<svg width="24" height="24" viewBox="0 0 24 24" fill="none" xmlns="http://www.w3.org/2000/svg">
<path fill-rule="evenodd" clip-rule="evenodd" d="M5.96973 7.46963C6.18418 7.25532 6.50697 7.1906 6.78711 7.30654C7.06726 7.42259 7.24987 7.69669 7.25 7.9999V15.7499H7.5C7.9141 15.7499 8.24982 16.0858 8.25 16.4999C8.25 16.9141 7.91421 17.2499 7.5 17.2499H5C4.58579 17.2499 4.25 16.9141 4.25 16.4999C4.25018 16.0858 4.5859 15.7499 5 15.7499H5.75V9.81045L5.53027 10.0302C5.23738 10.3231 4.76262 10.3231 4.46973 10.0302C4.177 9.73727 4.17689 9.26247 4.46973 8.96963L5.96973 7.46963ZM12.5 7.2499C13.3315 7.24991 13.9836 7.58326 14.4102 7.89346C14.6246 8.04948 14.7902 8.20607 14.9043 8.3251C14.9616 8.38485 15.0075 8.43581 15.04 8.47451C15.0562 8.4938 15.0691 8.51069 15.0791 8.52334C15.0839 8.5294 15.0884 8.53461 15.0918 8.53897C15.0935 8.54112 15.0954 8.54404 15.0967 8.5458L15.0996 8.54873V8.54971L15.1426 8.61318C15.339 8.93867 15.2606 9.36633 14.9502 9.59951C14.6189 9.84797 14.149 9.7812 13.9004 9.4501L14.5 8.9999C13.9399 9.41999 13.9018 9.44805 13.8994 9.4501C13.8973 9.44748 13.8943 9.44371 13.8906 9.43936C13.8772 9.42338 13.8546 9.39593 13.8223 9.36221C13.7567 9.29382 13.6563 9.2001 13.5273 9.10635C13.2665 8.91671 12.9181 8.74991 12.5 8.7499H12.25C11.4242 8.7499 10.7502 9.42232 10.75 10.2499V11.6552C11.1919 11.399 11.7037 11.2499 12.25 11.2499C13.9079 11.2499 15.2381 12.5976 15.2383 14.2499C15.2383 15.9049 13.8996 17.2499 12.2441 17.2499C10.5887 17.2499 9.25 15.9049 9.25 14.2499V10.2499C9.25018 8.59252 10.5972 7.2499 12.25 7.2499H12.5ZM12.25 12.7499C11.4242 12.7499 10.7502 13.4223 10.75 14.2499C10.75 15.0802 11.4208 15.7499 12.2441 15.7499C13.0675 15.7499 13.7383 15.0802 13.7383 14.2499C13.7381 13.4173 13.0707 12.7499 12.25 12.7499ZM18.25 10.2499C18.6641 10.2499 18.9998 10.5858 19 10.9999V11.4999H19.5C19.9141 11.4999 20.2498 11.8358 20.25 12.2499C20.25 12.6641 19.9142 12.9999 19.5 12.9999H19V13.4999C19 13.9141 18.6642 14.2499 18.25 14.2499C17.8358 14.2499 17.5 13.9141 17.5 13.4999V12.9999H17C16.5858 12.9999 16.25 12.6641 16.25 12.2499C16.2502 11.8358 16.5859 11.4999 17 11.4999H17.5V10.9999C17.5002 10.5858 17.8359 10.2499 18.25 10.2499Z" fill="black"/>
</svg>
