<svg width="24" height="24" viewBox="0 0 24 24" fill="none" xmlns="http://www.w3.org/2000/svg">
<path fill-rule="evenodd" clip-rule="evenodd" d="M5.71973 7.21963C5.93418 7.00532 6.25697 6.9406 6.53711 7.05654C6.81726 7.17259 6.99987 7.44669 7 7.7499V15.4999H7.25C7.6641 15.4999 7.99982 15.8358 8 16.2499C8 16.6641 7.66421 16.9999 7.25 16.9999H4.75C4.33579 16.9999 4 16.6641 4 16.2499C4.00018 15.8358 4.3359 15.4999 4.75 15.4999H5.5V9.56045L5.28027 9.78018C4.98738 10.0731 4.51262 10.0731 4.21973 9.78018C3.927 9.48727 3.92689 9.01247 4.21973 8.71963L5.71973 7.21963ZM12 6.9999C13.3806 6.9999 14.4998 8.11935 14.5 9.4999C14.5 9.94828 14.5113 10.7378 14.2207 11.4101C14.1527 11.5673 14.0646 11.7222 13.9561 11.869C13.9967 11.8998 14.0391 11.9287 14.0781 11.9618C14.6526 12.4494 14.9999 13.1592 15 13.9999C15 15.6549 13.6613 16.9999 12.0059 16.9999C10.3504 16.9999 9.01172 15.6549 9.01172 13.9999C9.01181 13.1592 9.35911 12.4494 9.93359 11.9618C9.97165 11.9295 10.0121 11.9001 10.0518 11.87C9.94322 11.7241 9.85567 11.5695 9.78711 11.413C9.49252 10.7403 9.5 9.95195 9.5 9.4999C9.50018 8.11935 10.6194 6.9999 12 6.9999ZM12.0059 12.7499C11.5343 12.7499 11.1537 12.8938 10.9043 13.1054C10.6667 13.307 10.5118 13.5982 10.5117 13.9999C10.5117 14.8302 11.1825 15.4999 12.0059 15.4999C12.8292 15.4999 13.5 14.8302 13.5 13.9999C13.4999 13.5983 13.345 13.307 13.1074 13.1054C12.858 12.8938 12.4774 12.7499 12.0059 12.7499ZM18 9.9999C18.4141 9.9999 18.7498 10.3358 18.75 10.7499V11.2499H19.25C19.6641 11.2499 19.9998 11.5858 20 11.9999C20 12.4141 19.6642 12.7499 19.25 12.7499H18.75V13.2499C18.75 13.6641 18.4142 13.9999 18 13.9999C17.5858 13.9999 17.25 13.6641 17.25 13.2499V12.7499H16.75C16.3358 12.7499 16 12.4141 16 11.9999C16.0002 11.5858 16.3359 11.2499 16.75 11.2499H17.25V10.7499C17.2502 10.3358 17.5859 9.9999 18 9.9999ZM12 8.4999C11.4478 8.4999 11.0002 8.94777 11 9.4999C11 10.0141 11.0142 10.4759 11.1611 10.8114C11.225 10.9571 11.3039 11.0516 11.4023 11.1151C11.4774 11.1635 11.5966 11.2154 11.7881 11.2382L12.0059 11.2499L12.2227 11.2382C12.4142 11.2154 12.5326 11.1639 12.6064 11.1161C12.7031 11.0535 12.7809 10.9598 12.8438 10.8144C12.9888 10.4784 13 10.0176 13 9.4999C12.9998 8.94777 12.5522 8.4999 12 8.4999Z" fill="black"/>
</svg>
