<svg width="24" height="24" viewBox="0 0 24 24" fill="none" xmlns="http://www.w3.org/2000/svg">
<path d="M7 8C8.10454 8 9 8.89542 9 10C9 10.5389 8.785 11.0261 8.43848 11.3857C8.47288 11.4073 8.50753 11.4287 8.54102 11.4521C8.97808 11.7586 9.28002 12.189 9.48828 12.6709C9.89168 13.6047 10 14.8658 10 16.25C10 16.6642 9.66421 17 9.25 17H8.94141V17.25C8.94141 17.8996 8.80344 18.5255 8.54395 19.0156C8.30221 19.472 7.83945 19.9998 7.13281 20H6.86719C6.16055 19.9998 5.69779 19.472 5.45605 19.0156C5.19656 18.5255 5.05859 17.8996 5.05859 17.25V17H4.75C4.33579 17 4 16.6642 4 16.25C4 14.8658 4.10832 13.6047 4.51172 12.6709C4.71998 12.189 5.02192 11.7586 5.45898 11.4521C5.49225 11.4288 5.52638 11.4072 5.56055 11.3857C5.2143 11.0262 5 10.5386 5 10C5 8.89542 5.89546 8 7 8ZM17 8C18.1045 8 19 8.89542 19 10C19 10.5389 18.785 11.0261 18.4385 11.3857C18.4729 11.4073 18.5075 11.4287 18.541 11.4521C18.9781 11.7586 19.28 12.189 19.4883 12.6709C19.8917 13.6047 20 14.8658 20 16.25C20 16.6642 19.6642 17 19.25 17H18.9414V17.25C18.9414 17.8996 18.8034 18.5255 18.5439 19.0156C18.3022 19.472 17.8394 19.9998 17.1328 20H16.8672C16.1606 19.9998 15.6978 19.472 15.4561 19.0156C15.1966 18.5255 15.0586 17.8996 15.0586 17.25V17H14.75C14.3358 17 14 16.6642 14 16.25C14 14.8658 14.1083 13.6047 14.5117 12.6709C14.72 12.189 15.0219 11.7586 15.459 11.4521C15.4922 11.4288 15.5264 11.4072 15.5605 11.3857C15.2143 11.0262 15 10.5386 15 10C15 8.89542 15.8955 8 17 8ZM7 12.5C6.67684 12.5 6.46791 12.5765 6.31934 12.6807C6.166 12.7882 6.01783 12.9676 5.88867 13.2666C5.66966 13.7738 5.55224 14.5154 5.51465 15.5H5.80859C6.22281 15.5 6.55859 15.8358 6.55859 16.25V17.25C6.55859 17.705 6.6585 18.0798 6.78223 18.3135C6.84502 18.432 6.89371 18.481 6.91699 18.5H7.08301C7.10629 18.481 7.15498 18.432 7.21777 18.3135C7.3415 18.0798 7.44141 17.705 7.44141 17.25V16.25C7.44141 15.8358 7.77719 15.5 8.19141 15.5H8.48535C8.44776 14.5154 8.33034 13.7738 8.11133 13.2666C7.98217 12.9676 7.834 12.7882 7.68066 12.6807C7.53209 12.5765 7.32316 12.5 7 12.5ZM17 12.5C16.6768 12.5 16.4679 12.5765 16.3193 12.6807C16.166 12.7882 16.0178 12.9676 15.8887 13.2666C15.6697 13.7738 15.5522 14.5154 15.5146 15.5H15.8086C16.2228 15.5 16.5586 15.8358 16.5586 16.25V17.25C16.5586 17.705 16.6585 18.0798 16.7822 18.3135C16.845 18.432 16.8937 18.481 16.917 18.5H17.083C17.1063 18.481 17.155 18.432 17.2178 18.3135C17.3415 18.0798 17.4414 17.705 17.4414 17.25V16.25C17.4414 15.8358 17.7772 15.5 18.1914 15.5H18.4854C18.4478 14.5154 18.3303 13.7738 18.1113 13.2666C17.9822 12.9676 17.834 12.7882 17.6807 12.6807C17.5321 12.5765 17.3232 12.5 17 12.5ZM7 9.5C6.72387 9.5 6.5 9.72387 6.5 10C6.5 10.2761 6.72387 10.5 7 10.5C7.27613 10.5 7.5 10.2761 7.5 10C7.5 9.72387 7.27613 9.5 7 9.5ZM17 9.5C16.7239 9.5 16.5 9.72387 16.5 10C16.5 10.2761 16.7239 10.5 17 10.5C17.2761 10.5 17.5 10.2761 17.5 10C17.5 9.72387 17.2761 9.5 17 9.5ZM19.25 4C19.6642 4 20 4.33579 20 4.75V6.25C20 6.66421 19.6642 7 19.25 7C18.8358 7 18.5 6.66421 18.5 6.25V5.5H5.5V6.25C5.5 6.66421 5.16421 7 4.75 7C4.33579 7 4 6.66421 4 6.25V4.75C4 4.33579 4.33579 4 4.75 4H19.25Z" fill="black"/>
</svg>
