<svg width="24" height="24" viewBox="0 0 24 24" fill="none" xmlns="http://www.w3.org/2000/svg">
<path d="M8.7334 9.04883C8.93359 8.97269 9.15865 8.98543 9.35059 9.08691L13.6006 11.3369C13.6172 11.3457 13.6327 11.3563 13.6484 11.3662C13.6576 11.372 13.6669 11.3776 13.6758 11.3838C13.7115 11.4085 13.7449 11.4358 13.7754 11.4658C13.7802 11.4705 13.7844 11.4757 13.7891 11.4805C13.8149 11.5073 13.8379 11.5362 13.8594 11.5664C13.8657 11.5753 13.8729 11.5836 13.8789 11.5928C13.9015 11.6277 13.9219 11.6639 13.9385 11.7021C13.9423 11.7109 13.9438 11.7206 13.9473 11.7295C13.9598 11.7619 13.9695 11.795 13.9775 11.8291C13.9813 11.8453 13.9856 11.8613 13.9883 11.8779C13.99 11.8883 13.9919 11.8987 13.9932 11.9092C13.9968 11.939 14 11.9692 14 12V17.25C14 17.5405 13.8322 17.805 13.5693 17.9287L9.31934 19.9287C9.1171 20.0239 8.8829 20.0239 8.68066 19.9287L4.43066 17.9287C4.16779 17.805 4 17.5405 4 17.25V12C4 11.9692 4.00226 11.939 4.00586 11.9092C4.00714 11.8987 4.00903 11.8883 4.01074 11.8779C4.01346 11.8614 4.0177 11.8453 4.02148 11.8291C4.02947 11.7951 4.03922 11.7618 4.05176 11.7295C4.05526 11.7205 4.05768 11.711 4.06152 11.7021C4.078 11.6641 4.09765 11.6275 4.12012 11.5928C4.12607 11.5836 4.13331 11.5753 4.13965 11.5664C4.16108 11.5362 4.18418 11.5073 4.20996 11.4805C4.21332 11.477 4.21631 11.4731 4.21973 11.4697L4.2334 11.4561C4.26112 11.4297 4.2914 11.4059 4.32324 11.3838C4.32591 11.3819 4.32836 11.3797 4.33105 11.3779L4.39941 11.3369L8.64941 9.08691L8.7334 9.04883ZM5.5 16.7734L8.25 18.0674V14.7012L5.5 13.2451V16.7734ZM9.75 14.7012V18.0674L12.5 16.7734V13.2451L9.75 14.7012ZM6.35254 12L9 13.4004L11.6465 12L9 10.5986L6.35254 12ZM11.75 4C15.0637 4 17.75 6.68629 17.75 10V10.4395L18.7197 9.46973C19.0126 9.17683 19.4874 9.17683 19.7803 9.46973C20.0732 9.76262 20.0732 10.2374 19.7803 10.5303L17.5303 12.7803C17.2374 13.0732 16.7626 13.0732 16.4697 12.7803L14.2197 10.5303C13.9268 10.2374 13.9268 9.76262 14.2197 9.46973C14.5126 9.17683 14.9874 9.17683 15.2803 9.46973L16.25 10.4395V10C16.25 7.51472 14.2353 5.5 11.75 5.5C11.3358 5.5 11 5.16421 11 4.75C11 4.33579 11.3358 4 11.75 4Z" fill="black"/>
</svg>
