<svg width="24" height="24" viewBox="0 0 24 24" fill="none" xmlns="http://www.w3.org/2000/svg">
<path fill-rule="evenodd" clip-rule="evenodd" d="M8.67081 8.27341C8.87192 8.02921 9.20503 7.93736 9.50284 8.04391C9.8008 8.15081 9.9999 8.43342 9.99992 8.74997V12.25H10.2499C10.6641 12.25 10.9999 12.5858 10.9999 13C10.9999 13.4142 10.6641 13.75 10.2499 13.75H9.99992V15.25C9.99992 15.6642 9.66413 16 9.24992 16C8.83584 15.9998 8.49992 15.6641 8.49992 15.25V13.75H5.74992C5.45981 13.7499 5.19503 13.5827 5.0712 13.3203C4.94748 13.058 4.98658 12.7474 5.17081 12.5234L8.67081 8.27341ZM16.2499 7.99997C16.6641 7.99997 16.9999 8.33577 16.9999 8.74997C16.9999 9.16418 16.6641 9.49997 16.2499 9.49997H15.7499C14.5074 9.50013 13.4999 10.5074 13.4999 11.75V12.25C13.4999 13.4925 14.5074 14.4998 15.7499 14.5H16.2499C16.388 14.5 16.4999 14.388 16.4999 14.25V13H15.9999C15.5858 12.9998 15.2499 12.6641 15.2499 12.25C15.2499 11.8359 15.5859 11.5001 15.9999 11.5H17.2499C17.6641 11.5 17.9999 11.8358 17.9999 12.25V14.25C17.9999 15.2165 17.2164 16 16.2499 16H15.7499C13.679 15.9998 11.9999 14.3209 11.9999 12.25V11.75C11.9999 9.67902 13.679 8.00013 15.7499 7.99997H16.2499ZM7.33878 12.25H8.49992V10.8398L7.33878 12.25Z" fill="black"/>
</svg>
