<svg width="24" height="24" viewBox="0 0 24 24" fill="none" xmlns="http://www.w3.org/2000/svg">
<path d="M17.25 5C18.7688 5 20 6.23122 20 7.75V16.25C20 17.7688 18.7688 19 17.25 19H6.75C5.23122 19 4 17.7688 4 16.25V7.75C4 6.23122 5.23122 5 6.75 5H17.25ZM6.75 6.5C6.05964 6.5 5.5 7.05964 5.5 7.75V16.25C5.5 16.9404 6.05964 17.5 6.75 17.5H17.25C17.9404 17.5 18.5 16.9404 18.5 16.25V7.75C18.5 7.05964 17.9404 6.5 17.25 6.5H6.75ZM10.25 9C10.6642 9 11 9.33579 11 9.75V14.25C11 14.6642 10.6642 15 10.25 15C9.83579 15 9.5 14.6642 9.5 14.25V13.5H8.75C7.7835 13.5 7 12.7165 7 11.75V9.75C7 9.33579 7.33579 9 7.75 9C8.16421 9 8.5 9.33579 8.5 9.75V11.75C8.5 11.8881 8.61193 12 8.75 12H9.5V9.75C9.5 9.33579 9.83579 9 10.25 9ZM13.75 9C14.1642 9 14.5 9.33579 14.5 9.75V11.25H14.5586L15.5947 9.38574C15.7959 9.02378 16.2522 8.8936 16.6143 9.09473C16.9762 9.29593 17.1064 9.75223 16.9053 10.1143L15.8574 12L16.9053 13.8857C17.1064 14.2478 16.9762 14.7041 16.6143 14.9053C16.2522 15.1064 15.7959 14.9762 15.5947 14.6143L14.5586 12.75H14.5V14.25C14.5 14.6642 14.1642 15 13.75 15C13.3358 15 13 14.6642 13 14.25V9.75C13 9.33579 13.3358 9 13.75 9Z" fill="black"/>
</svg>
