<svg width="24" height="24" viewBox="0 0 24 24" fill="none" xmlns="http://www.w3.org/2000/svg">
<path d="M10.25 8C10.6642 8 11 8.33579 11 8.75C11 9.16421 10.6642 9.5 10.25 9.5H7.5V10.5H8.25C9.76878 10.5 11 11.7312 11 13.25C11 14.7688 9.76878 16 8.25 16H6.75C6.33579 16 6 15.6642 6 15.25C6 14.8358 6.33579 14.5 6.75 14.5H8.25C8.94036 14.5 9.5 13.9404 9.5 13.25C9.5 12.5596 8.94036 12 8.25 12H6.75C6.33579 12 6 11.6642 6 11.25V8.75C6 8.33579 6.33579 8 6.75 8H10.25ZM16.25 8C16.6642 8 17 8.33579 17 8.75C17 9.16421 16.6642 9.5 16.25 9.5H15.75C14.5074 9.5 13.5 10.5074 13.5 11.75V12.25C13.5 13.4926 14.5074 14.5 15.75 14.5H16.25C16.3881 14.5 16.5 14.3881 16.5 14.25V13H16C15.5858 13 15.25 12.6642 15.25 12.25C15.25 11.8358 15.5858 11.5 16 11.5H17.25C17.6642 11.5 18 11.8358 18 12.25V14.25C18 15.2165 17.2165 16 16.25 16H15.75C13.6789 16 12 14.3211 12 12.25V11.75C12 9.67893 13.6789 8 15.75 8H16.25Z" fill="black"/>
</svg>
