<svg width="24" height="24" viewBox="0 0 24 24" fill="none" xmlns="http://www.w3.org/2000/svg">
<path fill-rule="evenodd" clip-rule="evenodd" d="M9.25047 14C9.55363 14.0002 9.8278 14.1828 9.94383 14.4629C10.0597 14.743 9.99499 15.0658 9.78074 15.2803L6.56101 18.5H9.25047C9.66447 18.5003 10.0005 18.8359 10.0005 19.25C10.0005 19.6641 9.66447 19.9997 9.25047 20H4.75047C4.44718 20 4.17323 19.8173 4.05711 19.5371C3.94107 19.2569 4.00571 18.9342 4.22019 18.7197L7.43992 15.5H4.75047C4.33625 15.5 4.00047 15.1642 4.00047 14.75C4.00047 14.3358 4.33625 14 4.75047 14H9.25047ZM17.0005 4C17.2129 4.00013 17.416 4.09016 17.5581 4.24805L19.8081 6.74805C20.0849 7.05583 20.0599 7.53055 19.7524 7.80762C19.4446 8.08463 18.97 8.05956 18.6929 7.75195L17.7505 6.7041V17.2949L18.6929 16.248C18.97 15.9404 19.4446 15.9154 19.7524 16.1924C20.0599 16.4694 20.0849 16.9442 19.8081 17.252L17.5581 19.752C17.416 19.9098 17.2129 19.9999 17.0005 20C16.788 20 16.5851 19.9098 16.4429 19.752L14.1929 17.252C13.9158 16.9441 13.9407 16.4695 14.2485 16.1924C14.5564 15.9156 15.0311 15.9403 15.3081 16.248L16.2505 17.2949V6.7041L15.3081 7.75195C15.0311 8.0597 14.5564 8.08445 14.2485 7.80762C13.9407 7.53052 13.9158 7.05591 14.1929 6.74805L16.4429 4.24805L16.4995 4.19238C16.6364 4.06947 16.8146 4 17.0005 4ZM7.00047 4C7.30478 4.00019 7.57953 4.18416 7.6948 4.46582L9.12644 7.96582L9.9448 9.96582C10.1014 10.349 9.91762 10.7873 9.53465 10.9443C9.15137 11.1011 8.71306 10.9174 8.55613 10.5342L7.9282 9H6.07273L5.4448 10.5342C5.28798 10.9173 4.84953 11.1009 4.46629 10.9443C4.08299 10.7875 3.89931 10.3492 4.05613 9.96582L4.87449 7.96582L6.30613 4.46582L6.35691 4.36523C6.49085 4.14125 6.73406 4 7.00047 4ZM6.68601 7.5H7.31492L7.00047 6.73145L6.68601 7.5Z" fill="black"/>
</svg>
