<svg width="24" height="24" viewBox="0 0 24 24" fill="none" xmlns="http://www.w3.org/2000/svg">
<path fill-rule="evenodd" clip-rule="evenodd" d="M17.7197 5.21956C18.0126 4.92684 18.4874 4.92679 18.7803 5.21956C19.0731 5.5124 19.073 5.98721 18.7803 6.2801L17.7383 7.32112C18.2985 8.04085 18.6718 8.85805 18.8584 9.70881C18.8606 9.71894 18.8634 9.72889 18.8652 9.73909C19.2767 11.6623 18.7364 13.7478 17.2422 15.242C16.9666 15.5176 16.531 15.5338 16.2363 15.2908L14.2471 17.1658C12.995 18.3443 11.3395 18.9998 9.62012 18.9998H5.75C5.33579 18.9998 5 18.664 5 18.2498V14.3797C5 12.6603 5.65656 11.0058 6.83496 9.75374L8.70996 7.76057C8.60078 7.62724 8.53818 7.46175 8.53809 7.28791C8.53809 7.089 8.61716 6.89829 8.75781 6.75764C10.2518 5.26366 12.3368 4.72346 14.2598 5.13459C14.27 5.13641 14.2799 5.13919 14.29 5.14143C15.1407 5.32791 15.958 5.7006 16.6777 6.26057L17.7197 5.21956ZM7.92676 10.7811C7.01018 11.7549 6.5 13.0424 6.5 14.3797V17.4998H9.62012C10.9575 17.4998 12.2449 16.9896 13.2188 16.0731L15.1729 14.2332L9.76562 8.826L7.92676 10.7811ZM16.0605 12.9998L16.667 13.6063C17.0997 12.999 17.364 12.3093 17.459 11.6004L16.0605 12.9998ZM14.0605 10.9998L15 11.9393L17.291 9.64729C17.1523 9.20606 16.9448 8.78214 16.667 8.39241L14.0605 10.9998ZM12.0605 8.99983L13 9.93928L15.6064 7.33186C15.2167 7.05418 14.7928 6.84637 14.3516 6.70784L12.0605 8.99983ZM12.3984 6.53987C11.6898 6.63492 10.9996 6.89922 10.3926 7.33186L11 7.93928L12.3984 6.53987Z" fill="black"/>
</svg>
