<svg width="24" height="24" viewBox="0 0 24 24" fill="none" xmlns="http://www.w3.org/2000/svg">
<path fill-rule="evenodd" clip-rule="evenodd" d="M10.2656 4.00016C10.6062 4.00726 10.8996 4.24328 10.9795 4.57438L13.7861 16.2023L15.0254 11.5568L15.0674 11.4386C15.1876 11.175 15.4527 11.0002 15.75 11.0002H19.25C19.6642 11.0002 20 11.3359 20 11.7502C20 12.1644 19.6642 12.5002 19.25 12.5002H16.3262L14.4746 19.4435C14.3862 19.7749 14.0842 20.0042 13.7412 20.0002C13.3981 19.9961 13.101 19.7595 13.0205 19.4259L10.1885 7.69352L8.9707 11.9562C8.87867 12.2781 8.58482 12.5002 8.25 12.5002H4.75C4.33579 12.5002 4 12.1644 4 11.7502C4 11.3359 4.33579 11.0002 4.75 11.0002H7.68457L9.5293 4.54411L9.57324 4.42594C9.69857 4.16406 9.96776 3.99399 10.2656 4.00016Z" fill="black"/>
</svg>
