<svg width="24" height="24" viewBox="0 0 24 24" fill="none" xmlns="http://www.w3.org/2000/svg">
<path fill-rule="evenodd" clip-rule="evenodd" d="M12.25 11.9999C12.5792 11.9999 12.8699 12.2146 12.9668 12.5292L14.9668 19.0292C15.0368 19.2565 14.9947 19.5038 14.8535 19.6952C14.7121 19.8866 14.488 19.9999 14.25 19.9999H9.75C9.51199 19.9999 9.28789 19.8866 9.14649 19.6952C9.00529 19.5038 8.96325 19.2565 9.03321 19.0292L11.0332 12.5292L11.0781 12.4159C11.2032 12.1641 11.462 11.9999 11.75 11.9999H12.25ZM10.7656 18.4999H13.2344L12 14.4872L10.7656 18.4999ZM8.31055 4.7489L7.78125 5.27917C6.22136 6.84278 5.50562 8.45439 5.50391 9.99792C5.50228 11.5409 6.21366 13.1529 7.78028 14.7196L8.31055 15.2499L7.25 16.3104L6.71973 15.7802C4.9506 14.0109 4.00169 12.0369 4.00391 9.99597C4.00622 7.95576 4.95874 5.9849 6.71875 4.22058L7.24903 3.68933L8.31055 4.7489ZM17.2852 4.22058C19.0452 5.9849 19.9977 7.95576 20 9.99597C20.0022 12.0369 19.0533 14.0109 17.2842 15.7802L16.7539 16.3104L15.6934 15.2499L16.2236 14.7196C17.7903 13.1529 18.5016 11.5409 18.5 9.99792C18.4983 8.45439 17.7826 6.84278 16.2227 5.27917L15.6934 4.7489L16.7549 3.68933L17.2852 4.22058ZM8.74414 6.19617C9.04985 5.91696 9.5243 5.93842 9.80371 6.24402C10.0829 6.54959 10.0621 7.02411 9.75684 7.30359C8.1359 8.78565 8.08409 11.3107 9.72852 12.6718C10.0473 12.9358 10.0919 13.4094 9.82813 13.7284C9.56418 14.0471 9.0915 14.0915 8.77246 13.828C6.33895 11.814 6.53715 8.21406 8.74414 6.19617ZM14.2139 6.24402C14.4933 5.93869 14.9678 5.91697 15.2734 6.19617C17.4801 8.21401 17.6792 11.814 15.2461 13.828C14.927 14.092 14.4536 14.0473 14.1895 13.7284C13.9254 13.4093 13.97 12.9359 14.2891 12.6718C15.9331 11.3108 15.8822 8.78564 14.2617 7.30359C13.9561 7.02415 13.9346 6.54972 14.2139 6.24402ZM12 8.99988C12.5523 8.99988 12.9999 9.44764 13 9.99988C13 10.5522 12.5523 10.9999 12 10.9999C11.4477 10.9999 11 10.5522 11 9.99988C11.0001 9.44764 11.4478 8.99988 12 8.99988Z" fill="black"/>
</svg>
