<svg width="24" height="24" viewBox="0 0 24 24" fill="none" xmlns="http://www.w3.org/2000/svg">
<path d="M12 15C12.2189 15 12.4269 15.0956 12.5693 15.2617L15.5693 18.7617C15.7599 18.9841 15.804 19.2974 15.6816 19.5635C15.5593 19.8296 15.2929 20 15 20H9C8.7071 20 8.44075 19.8296 8.31836 19.5635C8.19599 19.2974 8.24006 18.9841 8.43066 18.7617L11.4307 15.2617L11.4873 15.2031C11.6256 15.0735 11.8085 15 12 15ZM10.6309 18.5H13.3691L12 16.9023L10.6309 18.5ZM17.25 4C18.7688 4 20 5.23122 20 6.75V15.25C20 16.7688 18.7688 18 17.25 18H16V16.5H17.25C17.9404 16.5 18.5 15.9404 18.5 15.25V6.75C18.5 6.05964 17.9404 5.5 17.25 5.5H6.75C6.05964 5.5 5.5 6.05964 5.5 6.75V15.25C5.5 15.9404 6.05964 16.5 6.75 16.5H8V18H6.75C5.23122 18 4 16.7688 4 15.25V6.75C4 5.23122 5.23122 4 6.75 4H17.25Z" fill="black"/>
</svg>
