<svg width="24" height="24" viewBox="0 0 24 24" fill="none" xmlns="http://www.w3.org/2000/svg">
<path d="M7.25 4C9.32107 4 11 5.67893 11 7.75V17.5C11 18.8807 9.88071 20 8.5 20C7.11929 20 6 18.8807 6 17.5V11.6992C4.95985 11.852 4 11.0473 4 9.96875V6.75C4 5.23122 5.23122 4 6.75 4H7.25ZM17.25 4C18.7688 4 20 5.23122 20 6.75V9.96875C20 11.0473 19.0402 11.852 18 11.6992V17.5C18 18.8807 16.8807 20 15.5 20C14.1193 20 13 18.8807 13 17.5V7.75C13 5.67893 14.6789 4 16.75 4H17.25ZM6.75 5.5C6.05964 5.5 5.5 6.05964 5.5 6.75V9.96875C5.5 10.1314 5.6528 10.2513 5.81055 10.2119L6.56836 10.0225C6.79235 9.96654 7.02994 10.0171 7.21191 10.1592C7.39372 10.3013 7.5 10.5192 7.5 10.75V17.5C7.5 18.0523 7.94772 18.5 8.5 18.5C9.05228 18.5 9.5 18.0523 9.5 17.5V7.75C9.5 6.50736 8.49264 5.5 7.25 5.5H6.75ZM16.75 5.5C15.5074 5.5 14.5 6.50736 14.5 7.75V17.5C14.5 18.0523 14.9477 18.5 15.5 18.5C16.0523 18.5 16.5 18.0523 16.5 17.5V10.75C16.5 10.5192 16.6063 10.3013 16.7881 10.1592C16.9701 10.0171 17.2077 9.96654 17.4316 10.0225L18.1895 10.2119C18.3472 10.2513 18.5 10.1314 18.5 9.96875V6.75C18.5 6.05964 17.9404 5.5 17.25 5.5H16.75Z" fill="black"/>
</svg>
