<svg width="24" height="24" viewBox="0 0 24 24" fill="none" xmlns="http://www.w3.org/2000/svg">
<path d="M12 4C16.4183 4 20 7.58172 20 12C20 14.1937 19.1165 16.1807 17.6865 17.626L18.7803 18.7197C19.0732 19.0126 19.0732 19.4874 18.7803 19.7803C18.4874 20.0732 18.0126 20.0732 17.7197 19.7803L16.5312 18.5918C15.2429 19.4791 13.6826 20 12 20C10.3171 20 8.75624 19.4794 7.46777 18.5918L6.28027 19.7803C5.98738 20.0732 5.51262 20.0732 5.21973 19.7803C4.92683 19.4874 4.92683 19.0126 5.21973 18.7197L6.3125 17.626C4.88282 16.1808 4 14.1935 4 12C4 7.58172 7.58172 4 12 4ZM12 5.5C8.41015 5.5 5.5 8.41015 5.5 12C5.5 15.5899 8.41015 18.5 12 18.5C15.5899 18.5 18.5 15.5899 18.5 12C18.5 8.41015 15.5899 5.5 12 5.5ZM12 8C12.4142 8 12.75 8.33579 12.75 8.75V11.6895L14.7803 13.7197C15.0732 14.0126 15.0732 14.4874 14.7803 14.7803C14.4874 15.0732 14.0126 15.0732 13.7197 14.7803L11.4697 12.5303C11.3291 12.3896 11.25 12.1989 11.25 12V8.75C11.25 8.33579 11.5858 8 12 8ZM4.71973 4.21973C5.01262 3.92683 5.48738 3.92683 5.78027 4.21973C6.07317 4.51262 6.07317 4.98738 5.78027 5.28027L5.28027 5.78027C4.98738 6.07317 4.51262 6.07317 4.21973 5.78027C3.92683 5.48738 3.92683 5.01262 4.21973 4.71973L4.71973 4.21973ZM18.2197 4.21973C18.5126 3.92683 18.9874 3.92683 19.2803 4.21973L19.7803 4.71973C20.0732 5.01262 20.0732 5.48738 19.7803 5.78027C19.4874 6.07317 19.0126 6.07317 18.7197 5.78027L18.2197 5.28027C17.9268 4.98738 17.9268 4.51262 18.2197 4.21973Z" fill="black"/>
</svg>
