<svg width="24" height="24" viewBox="0 0 24 24" fill="none" xmlns="http://www.w3.org/2000/svg">
<path fill-rule="evenodd" clip-rule="evenodd" d="M4.13391 10.5478C4.93625 6.20295 9.10843 3.33136 13.4532 4.1337C13.8602 4.20915 14.1298 4.59969 14.0548 5.00675C13.9795 5.41385 13.5879 5.68327 13.1808 5.60831C9.65063 4.95641 6.26042 7.29006 5.60852 10.8202C4.95695 14.3502 7.29045 17.7406 10.8204 18.3925C14.3502 19.0439 17.7408 16.7104 18.3927 13.1806C18.4679 12.7734 18.8586 12.504 19.2657 12.579C19.6729 12.6544 19.9425 13.0458 19.8673 13.453C19.5642 15.094 18.779 16.5238 17.6866 17.6259L18.7804 18.7196C19.0732 19.0125 19.0732 19.4873 18.7804 19.7802C18.4875 20.0731 18.0127 20.0731 17.7198 19.7802L16.5314 18.5917C14.8456 19.7505 12.7186 20.2677 10.548 19.8671C9.40584 19.6562 8.36644 19.2103 7.46789 18.5917L6.28039 19.7802C5.98751 20.0731 5.51274 20.0731 5.21985 19.7802C4.92695 19.4873 4.92695 19.0125 5.21985 18.7196L6.3136 17.6249C4.53845 15.8271 3.64042 13.2208 4.13391 10.5478ZM12.0001 7.99991C12.4143 7.99998 12.7501 8.33577 12.7501 8.74991V11.6894L14.7804 13.7196C15.0732 14.0125 15.0732 14.4873 14.7804 14.7802C14.4875 15.0731 14.0127 15.0731 13.7198 14.7802L11.4698 12.5302C11.3292 12.3895 11.2501 12.1988 11.2501 11.9999V8.74991C11.2502 8.33573 11.5859 7.99991 12.0001 7.99991ZM18.0001 8.99991C18.5523 8.99998 19.0001 9.4477 19.0001 9.99991C19.0001 10.5522 18.5523 10.9998 18.0001 10.9999C17.4478 10.9999 17.0001 10.5522 17.0001 9.99991C17.0002 9.44766 17.4479 8.99991 18.0001 8.99991ZM18.0001 3.99991C18.4143 3.99998 18.7501 4.33577 18.7501 4.74991V7.24991C18.7501 7.66408 18.4143 7.99984 18.0001 7.99991C17.5859 7.99991 17.2501 7.66412 17.2501 7.24991V4.74991C17.2502 4.33573 17.5859 3.99991 18.0001 3.99991ZM4.71985 4.21964C5.01275 3.92684 5.48753 3.92678 5.78039 4.21964C6.07323 4.5125 6.07318 4.98729 5.78039 5.28018L5.28039 5.78018C4.98751 6.07307 4.51274 6.07305 4.21985 5.78018C3.92695 5.48729 3.92695 5.01253 4.21985 4.71964L4.71985 4.21964Z" fill="black"/>
</svg>
