<svg width="24" height="24" viewBox="0 0 24 24" fill="none" xmlns="http://www.w3.org/2000/svg">
<path fill-rule="evenodd" clip-rule="evenodd" d="M9.87311 4.88093C11.0478 3.70636 12.9523 3.70636 14.127 4.88093L19.1192 9.87311C20.2938 11.0478 20.2938 12.9523 19.1192 14.127L14.127 19.1192C12.9523 20.2938 11.0478 20.2938 9.87311 19.1192L4.88093 14.127C3.70636 12.9523 3.70636 11.0478 4.88093 9.87311L9.87311 4.88093ZM13.0665 5.94147C12.4776 5.35269 11.5226 5.35269 10.9337 5.94147L5.94147 10.9337C5.35269 11.5226 5.35269 12.4776 5.94147 13.0665L10.9337 18.0587C11.5226 18.6474 12.4776 18.6474 13.0665 18.0587L18.0587 13.0665C18.6474 12.4776 18.6474 11.5226 18.0587 10.9337L13.0665 5.94147ZM12.0098 14.2501C12.424 14.2501 12.7598 14.5859 12.7598 15.0001C12.7598 15.4143 12.424 15.7501 12.0098 15.7501H12.0001C11.5859 15.7501 11.2501 15.4143 11.2501 15.0001C11.2501 14.5859 11.5859 14.2501 12.0001 14.2501H12.0098ZM12.0001 7.75007C12.4143 7.75007 12.7501 8.08585 12.7501 8.50007V12.0001C12.7501 12.4143 12.4143 12.7501 12.0001 12.7501C11.5859 12.7501 11.2501 12.4143 11.2501 12.0001V8.50007C11.2501 8.08585 11.5859 7.75007 12.0001 7.75007Z" fill="black"/>
</svg>
