<svg width="24" height="24" viewBox="0 0 24 24" fill="none" xmlns="http://www.w3.org/2000/svg">
<path fill-rule="evenodd" clip-rule="evenodd" d="M10.0402 5.60232C10.9687 3.74706 13.6128 3.74723 14.5411 5.60232L19.3673 15.2244V15.2254C20.2044 16.8996 18.9903 18.8746 17.1163 18.8748H7.49036C5.61641 18.8745 4.40242 16.8995 5.23938 15.2254L10.0402 5.6033V5.60232ZM13.3116 6.21755C12.8901 5.3753 11.6913 5.3752 11.2697 6.21755L6.46985 15.8386V15.8396C6.08764 16.6033 6.64251 17.4995 7.49036 17.4998H17.1163C17.9109 17.4996 18.4485 16.7127 18.1984 15.9851L18.1378 15.8406L13.3126 6.21853L13.3116 6.21755ZM12.2531 14.6629C12.6326 14.663 12.9406 14.9707 12.9406 15.3504C12.9403 15.7298 12.6325 16.0377 12.2531 16.0379H12.2433C11.8638 16.0379 11.556 15.7298 11.5558 15.3504C11.5558 14.9707 11.8636 14.6629 12.2433 14.6629H12.2531ZM12.2433 8.70388C12.6229 8.704 12.9308 9.01176 12.9308 9.39138V12.5994C12.9308 12.979 12.6229 13.2868 12.2433 13.2869C11.8636 13.2869 11.5558 12.9791 11.5558 12.5994V9.39138C11.5558 9.01169 11.8636 8.70388 12.2433 8.70388Z" fill="black"/>
</svg>
