<svg width="24" height="24" viewBox="0 0 24 24" fill="none" xmlns="http://www.w3.org/2000/svg">
<path d="M12 4C13.586 4 15.3088 4.47509 16.6543 5.45605C18.0194 6.45136 19 7.97701 19 10C19 11.9097 18.2625 14.354 17.0811 16.3232C15.9239 18.2518 14.1661 20 12 20C9.83393 20 8.0761 18.2518 6.91895 16.3232C5.73749 14.354 5 11.9097 5 10C5 7.97701 5.98064 6.45136 7.3457 5.45605C8.69116 4.47509 10.414 4 12 4ZM12 5.5C10.6865 5.5 9.28415 5.89997 8.22949 6.66895C7.19456 7.42364 6.5 8.52311 6.5 10C6.5 11.5902 7.13761 13.771 8.20605 15.5518C9.29887 17.373 10.6661 18.5 12 18.5C13.3339 18.5 14.7011 17.373 15.7939 15.5518C16.8624 13.771 17.5 11.5902 17.5 10C17.5 8.52311 16.8054 7.42364 15.7705 6.66895C14.7159 5.89997 13.3135 5.5 12 5.5ZM8.20117 8.11621C8.89301 7.84151 9.52402 8.10264 9.94629 8.46973C10.3573 8.82716 10.653 9.33938 10.8203 9.84082C10.9883 10.3442 11.0591 10.9329 10.959 11.4727C10.8586 12.0136 10.555 12.6203 9.88184 12.8877C9.2053 13.1562 8.5659 12.9199 8.12598 12.5723C7.6905 12.228 7.36202 11.7194 7.18652 11.1934C7.01872 10.6903 6.94568 10.0949 7.06055 9.54199C7.17871 8.97364 7.51713 8.38797 8.20117 8.11621ZM14.0635 8.46973C14.4857 8.10262 15.1168 7.84162 15.8086 8.11621C16.4928 8.38793 16.831 8.97359 16.9492 9.54199C17.0641 10.095 16.9911 10.6903 16.8232 11.1934C16.6477 11.7194 16.3193 12.228 15.8838 12.5723C15.4438 12.9199 14.8045 13.1563 14.1279 12.8877C13.4548 12.6203 13.1512 12.0136 13.0508 11.4727C12.9507 10.9329 13.0215 10.3441 13.1895 9.84082C13.3567 9.33942 13.6525 8.82718 14.0635 8.46973ZM8.75488 9.50977C8.66394 9.54594 8.5755 9.6248 8.5293 9.84668C8.4799 10.0843 8.50526 10.4067 8.60938 10.7188C8.70585 11.0079 8.88131 11.2559 9.05664 11.3945C9.22655 11.5288 9.30521 11.5032 9.32812 11.4941C9.35388 11.4839 9.43846 11.4413 9.4834 11.1992C9.52856 10.9559 9.50151 10.6273 9.39746 10.3154C9.29278 10.0018 9.12355 9.74212 8.96191 9.60156C8.81278 9.47194 8.7627 9.50639 8.75488 9.50977ZM15.2549 9.50977C15.2464 9.50592 15.1959 9.47287 15.0479 9.60156C14.8862 9.74216 14.717 10.0018 14.6123 10.3154C14.5083 10.6272 14.4812 10.9559 14.5264 11.1992C14.5712 11.4407 14.6556 11.4838 14.6816 11.4941C14.7043 11.5031 14.7828 11.5291 14.9531 11.3945C15.1285 11.2559 15.3039 11.008 15.4004 10.7188C15.5045 10.4066 15.5299 10.0843 15.4805 9.84668C15.4342 9.62467 15.3459 9.5459 15.2549 9.50977Z" fill="black"/>
</svg>
