<svg width="24" height="24" viewBox="0 0 24 24" fill="none" xmlns="http://www.w3.org/2000/svg">
<path fill-rule="evenodd" clip-rule="evenodd" d="M11.9997 4C15.1889 4 17.4971 6.10212 18.4714 8.66992C19.4422 11.2288 19.1405 14.3785 17.0017 16.584C16.5402 17.0598 15.9432 17.6174 15.5124 18.0518C15.1288 18.4385 14.6093 18.9104 14.028 19.29C13.4613 19.6601 12.7499 20 11.9997 20C11.2495 19.9999 10.538 19.6601 9.97139 19.29C9.39012 18.9104 8.87056 18.4385 8.48701 18.0518C8.05614 17.6173 7.45919 17.0598 6.99775 16.584C4.85908 14.3786 4.55734 11.2287 5.52803 8.66992C6.50227 6.10217 8.81062 4.00018 11.9997 4ZM11.9997 5.5C9.55534 5.50018 7.73007 7.09443 6.93037 9.20215C6.12759 11.3186 6.41144 13.8244 8.07392 15.5391C8.57716 16.058 9.00757 16.4467 9.55244 16.9961C9.89685 17.3433 10.3329 17.7345 10.7917 18.0342C11.2652 18.3434 11.6798 18.4999 11.9997 18.5C12.3196 18.5 12.7342 18.3434 13.2077 18.0342C13.6666 17.7345 14.1025 17.3434 14.447 16.9961C14.9919 16.4466 15.4223 16.0579 15.9255 15.5391C17.5882 13.8244 17.8719 11.3187 17.069 9.20215C16.2693 7.09438 14.4442 5.5 11.9997 5.5ZM8.21943 10.2197C8.51226 9.9269 8.98707 9.92704 9.27998 10.2197L10.78 11.7197C11.0729 12.0126 11.0729 12.4874 10.78 12.7803C10.4871 13.073 10.0123 13.0731 9.71943 12.7803L8.21943 11.2803C7.92681 10.9874 7.92681 10.5126 8.21943 10.2197ZM14.7194 10.2197C15.0123 9.9269 15.4871 9.92704 15.78 10.2197C16.0729 10.5126 16.0729 10.9874 15.78 11.2803L14.28 12.7803C13.9871 13.073 13.5123 13.0731 13.2194 12.7803C12.9268 12.4874 12.9268 12.0126 13.2194 11.7197L14.7194 10.2197Z" fill="black"/>
</svg>
