<svg width="24" height="24" viewBox="0 0 24 24" fill="none" xmlns="http://www.w3.org/2000/svg">
<path d="M12 4C12.4142 4 12.75 4.33579 12.75 4.75V6H15.25C16.2165 6 17 6.7835 17 7.75V9.25C17 10.2165 16.2165 11 15.25 11H12.75V13H13.25C14.2165 13 15 13.7835 15 14.75V16.25C15 17.2165 14.2165 18 13.25 18H12.75V19.25C12.75 19.6642 12.4142 20 12 20C11.5858 20 11.25 19.6642 11.25 19.25V18H10.75C9.7835 18 9 17.2165 9 16.25V14.75C9 13.7835 9.7835 13 10.75 13H11.25V11H8.75C7.7835 11 7 10.2165 7 9.25V7.75C7 6.7835 7.7835 6 8.75 6H11.25V4.75C11.25 4.33579 11.5858 4 12 4ZM10.75 14.5C10.6119 14.5 10.5 14.6119 10.5 14.75V16.25C10.5 16.3881 10.6119 16.5 10.75 16.5H13.25C13.3881 16.5 13.5 16.3881 13.5 16.25V14.75C13.5 14.6119 13.3881 14.5 13.25 14.5H10.75ZM8.75 7.5C8.61193 7.5 8.5 7.61193 8.5 7.75V9.25C8.5 9.38807 8.61193 9.5 8.75 9.5H15.25C15.3881 9.5 15.5 9.38807 15.5 9.25V7.75C15.5 7.61193 15.3881 7.5 15.25 7.5H8.75Z" fill="black"/>
</svg>
