<svg width="24" height="24" viewBox="0 0 24 24" fill="none" xmlns="http://www.w3.org/2000/svg">
<path d="M9.25 7C10.2165 7 11 7.7835 11 8.75V11.25H13V10.75C13 9.7835 13.7835 9 14.75 9H16.25C17.2165 9 18 9.7835 18 10.75V11.25H19.25C19.6642 11.25 20 11.5858 20 12C20 12.4142 19.6642 12.75 19.25 12.75H18V13.25C18 14.2165 17.2165 15 16.25 15H14.75C13.7835 15 13 14.2165 13 13.25V12.75H11V15.25C11 16.2165 10.2165 17 9.25 17H7.75C6.7835 17 6 16.2165 6 15.25V12.75H4.75C4.33579 12.75 4 12.4142 4 12C4 11.5858 4.33579 11.25 4.75 11.25H6V8.75C6 7.7835 6.7835 7 7.75 7H9.25ZM7.75 8.5C7.61193 8.5 7.5 8.61193 7.5 8.75V15.25C7.5 15.3881 7.61193 15.5 7.75 15.5H9.25C9.38807 15.5 9.5 15.3881 9.5 15.25V8.75C9.5 8.61193 9.38807 8.5 9.25 8.5H7.75ZM14.75 10.5C14.6119 10.5 14.5 10.6119 14.5 10.75V13.25C14.5 13.3881 14.6119 13.5 14.75 13.5H16.25C16.3881 13.5 16.5 13.3881 16.5 13.25V10.75C16.5 10.6119 16.3881 10.5 16.25 10.5H14.75Z" fill="black"/>
</svg>
