<svg width="24" height="24" viewBox="0 0 24 24" fill="none" xmlns="http://www.w3.org/2000/svg">
<path fill-rule="evenodd" clip-rule="evenodd" d="M11.7497 8C12.164 8 12.4997 8.33579 12.4997 8.75V14.25C12.4997 14.3879 12.6119 14.4997 12.7497 14.5H14.2497C14.664 14.5 14.9997 14.8358 14.9997 15.25C14.9997 15.6642 14.664 16 14.2497 16H12.7497C11.7835 15.9997 10.9997 15.2163 10.9997 14.25V8.75C10.9997 8.33595 11.3358 8.00026 11.7497 8ZM19.2497 8C19.664 8 19.9998 8.33579 19.9998 8.75C19.9998 9.16421 19.664 9.5 19.2497 9.5H18.4997V15.25C18.4997 15.6642 18.164 16 17.7497 16C17.3358 15.9997 16.9997 15.6641 16.9997 15.25V9.5H15.7497C15.3358 9.49974 14.9997 9.16405 14.9997 8.75C14.9997 8.33595 15.3358 8.00026 15.7497 8H19.2497ZM6.99975 8C7.31935 8 7.60413 8.2029 7.70873 8.50488L9.26635 13.0049L9.95873 15.0049C10.094 15.3962 9.8862 15.8235 9.49487 15.959C9.10363 16.094 8.67618 15.8863 8.54077 15.4951L8.02319 14H5.97631L5.45873 15.4951C5.32321 15.8864 4.89594 16.0943 4.50463 15.959C4.11362 15.8234 3.90561 15.3961 4.04077 15.0049L4.73315 13.0049L6.29077 8.50488C6.39527 8.20297 6.68029 8.0002 6.99975 8ZM6.49584 12.5H7.50366L6.99975 11.043L6.49584 12.5Z" fill="black"/>
</svg>
