<svg width="24" height="24" viewBox="0 0 24 24" fill="none" xmlns="http://www.w3.org/2000/svg">
<path fill-rule="evenodd" clip-rule="evenodd" d="M18.8102 6.14281C19.1457 5.90011 19.6142 5.97541 19.8571 6.31078C20.0998 6.64625 20.0245 7.11478 19.6891 7.35766L12.445 12.6028C13.3183 13.6831 13.8762 15.0289 13.9801 16.5002H19.2555C19.6697 16.5002 20.0055 16.836 20.0055 17.2502C20.0054 17.6644 19.6696 18.0002 19.2555 18.0002H4.74964C4.42472 18.0001 4.13603 17.7908 4.03578 17.4817C3.93559 17.1725 4.04709 16.8336 4.31019 16.6428L18.8102 6.14281ZM7.0641 16.5002H12.4772C12.3744 15.3581 11.9221 14.3182 11.2282 13.4846L7.0641 16.5002Z" fill="black"/>
</svg>
