<svg width="24" height="24" viewBox="0 0 24 24" fill="none" xmlns="http://www.w3.org/2000/svg">
<path fill-rule="evenodd" clip-rule="evenodd" d="M8.76422 5.92559C9.999 4.69086 12.0019 4.6911 13.2369 5.92559L13.7798 6.46954C14.0727 6.76243 14.0727 7.23719 13.7798 7.53009C13.4869 7.82291 13.0122 7.82296 12.7193 7.53009L12.1763 6.98712C11.5272 6.33835 10.4738 6.33811 9.82476 6.98712L5.98785 10.824C5.33884 11.473 5.33908 12.5264 5.98785 13.1756L9.82476 17.0125C10.4739 17.6616 11.5272 17.6616 12.1763 17.0125L12.7193 16.4695C13.012 16.1768 13.4869 16.1771 13.7798 16.4695C14.0727 16.7624 14.0727 17.2372 13.7798 17.5301L13.2369 18.074C12.002 19.3089 9.99912 19.3089 8.76422 18.074L4.92633 14.2361C3.69183 13.0012 3.69159 10.9983 4.92633 9.76349L8.76422 5.92559ZM16.192 9.24786C16.4689 8.94013 16.9436 8.91549 17.2515 9.1922L19.7515 11.4422C19.9095 11.5843 19.9995 11.7873 19.9996 11.9998C19.9996 12.2124 19.9096 12.4152 19.7515 12.5574L17.2515 14.8074C16.9436 15.0845 16.469 15.0596 16.192 14.7518C15.9153 14.4439 15.94 13.9692 16.2476 13.6922L17.2945 12.7498H11.7496C11.3356 12.7495 10.9996 12.4139 10.9996 11.9998C10.9998 11.5859 11.3357 11.2501 11.7496 11.2498H17.2945L16.2476 10.3074C15.9402 10.0303 15.915 9.55557 16.192 9.24786Z" fill="black"/>
</svg>
