<svg width="24" height="24" viewBox="0 0 24 24" fill="none" xmlns="http://www.w3.org/2000/svg">
<path fill-rule="evenodd" clip-rule="evenodd" d="M10.7637 5.92559C11.9985 4.69098 14.0015 4.69098 15.2363 5.92559L19.0742 9.76349C20.309 10.9983 20.3089 13.0012 19.0742 14.2361L15.2363 18.074C14.0014 19.3089 11.9986 19.3089 10.7637 18.074L10.2207 17.5301C9.92799 17.2372 9.92787 16.7624 10.2207 16.4695C10.5136 16.177 10.9884 16.1769 11.2812 16.4695L11.8242 17.0125C12.4734 17.6616 13.5266 17.6616 14.1758 17.0125L18.0127 13.1756C18.6616 12.5264 18.6618 11.4731 18.0127 10.824L14.1758 6.98712C13.5267 6.33823 12.4733 6.33823 11.8242 6.98712L11.2812 7.53009C10.9884 7.82296 10.5136 7.82291 10.2207 7.53009C9.92799 7.23718 9.92787 6.76237 10.2207 6.46954L10.7637 5.92559ZM9.19238 9.24786C9.46946 8.94028 9.94415 8.91535 10.252 9.1922L12.752 11.4422C12.9099 11.5843 12.9999 11.7874 13 11.9998C13 12.2123 12.9098 12.4152 12.752 12.5574L10.252 14.8074C9.94409 15.0845 9.46948 15.0596 9.19238 14.7518C8.91549 14.4439 8.94028 13.9692 9.24805 13.6922L10.2949 12.7498H4.75C4.33579 12.7498 4 12.414 4 11.9998C4.00019 11.5858 4.33591 11.2498 4.75 11.2498H10.2949L9.24805 10.3074C8.94038 10.0303 8.91536 9.55567 9.19238 9.24786Z" fill="black"/>
</svg>
