<svg width="24" height="24" viewBox="0 0 24 24" fill="none" xmlns="http://www.w3.org/2000/svg">
<path d="M17.25 4C18.7688 4 20 5.23122 20 6.75V15.25C20 16.7688 18.7688 18 17.25 18H14.8779L12.4541 19.8467C12.1857 20.0509 11.8143 20.0509 11.5459 19.8467L9.12207 18H6.75C5.23122 18 4 16.7688 4 15.25V6.75C4 5.23122 5.23122 4 6.75 4H17.25ZM6.75 5.5C6.05964 5.5 5.5 6.05964 5.5 6.75V15.25C5.5 15.9404 6.05964 16.5 6.75 16.5H9.375C9.53909 16.5 9.69853 16.554 9.8291 16.6533L12 18.3066L14.1709 16.6533L14.2734 16.5879C14.3812 16.5307 14.5017 16.5 14.625 16.5H17.25C17.9404 16.5 18.5 15.9404 18.5 15.25V6.75C18.5 6.05964 17.9404 5.5 17.25 5.5H6.75ZM12 13C12.5523 13 13 13.4477 13 14C13 14.5523 12.5523 15 12 15C11.4477 15 11 14.5523 11 14C11 13.4477 11.4477 13 12 13ZM13 11H11V7H13V11Z" fill="black"/>
</svg>
