<svg width="24" height="24" viewBox="0 0 24 24" fill="none" xmlns="http://www.w3.org/2000/svg">
<path d="M17.1328 4.10925C17.4524 4.21931 17.7416 4.4031 17.9912 4.62C18.3996 4.97483 18.7536 5.4562 19.043 5.99792C19.6219 7.08192 20 8.51672 20 9.99988C20 11.483 19.6218 12.9178 19.043 14.0018C18.7536 14.5436 18.3996 15.0249 17.9912 15.3798C17.7416 15.5966 17.4523 15.7795 17.1328 15.8895L17.083 16.1356L16.3965 15.994C16.2013 15.9832 16.0151 15.9427 15.8379 15.8788C15.6176 15.8332 15.3342 15.775 15.0049 15.7069C14.199 15.5403 13.1155 15.3162 12 15.0839V17.2499C12 18.7687 10.7688 19.9999 9.25 19.9999H8.75C7.23122 19.9999 6 18.7687 6 17.2499V13.621C5.5944 13.3709 5.2157 13.0255 4.90527 12.621C4.38208 11.9392 4 11.0324 4 9.99988C4.00002 8.9674 4.38207 8.06056 4.90527 7.37878C5.41839 6.71019 6.11498 6.19818 6.81836 6.02234C7.33767 5.89254 9.73409 5.38792 11.9717 4.92175C13.0972 4.68728 14.1922 4.46086 15.0049 4.29285C15.3343 4.22474 15.6176 4.16558 15.8379 4.12C16.0141 4.05643 16.1996 4.01684 16.3936 4.00574L17.083 3.86414L17.1328 4.10925ZM7.5 17.2499C7.5 17.9402 8.05964 18.4999 8.75 18.4999H9.25C9.94036 18.4999 10.5 17.9402 10.5 17.2499V14.7684C9.31125 14.5192 8.20538 14.2864 7.5 14.1317V17.2499ZM16.2842 5.56042C16.2813 5.56101 16.2783 5.56081 16.2754 5.5614C16.1954 5.59989 16.1006 5.65947 15.9932 5.75281C15.7594 5.95588 15.5097 6.27544 15.2803 6.70496C14.8217 7.56368 14.5 8.75422 14.5 9.99988C14.5 11.2455 14.8217 12.4361 15.2803 13.2948C15.5097 13.7243 15.7594 14.0439 15.9932 14.2469C16.1004 14.3401 16.1955 14.3989 16.2754 14.4374C16.2783 14.438 16.2813 14.4387 16.2842 14.4393C16.3954 14.4623 16.4838 14.4812 16.5459 14.494C16.648 14.4805 16.8039 14.4232 17.0068 14.2469C17.2406 14.0439 17.4903 13.7243 17.7197 13.2948C18.1783 12.4361 18.5 11.2455 18.5 9.99988C18.5 8.75422 18.1783 7.56368 17.7197 6.70496C17.4903 6.27544 17.2406 5.95588 17.0068 5.75281C16.8039 5.57651 16.648 5.51821 16.5459 5.50476C16.4838 5.51762 16.3955 5.53747 16.2842 5.56042ZM12.2783 6.3905C10.0164 6.86174 7.66288 7.35711 7.18164 7.47742C6.88506 7.55165 6.4565 7.82048 6.09473 8.29187C5.74307 8.75018 5.50002 9.34321 5.5 9.99988C5.5 10.6566 5.74307 11.2496 6.09473 11.7079C6.4565 12.1793 6.88505 12.4481 7.18164 12.5223C7.66283 12.6426 10.0164 13.138 12.2783 13.6093C12.8482 13.728 13.4103 13.8438 13.9316 13.952C13.3675 12.874 13 11.4606 13 9.99988C13 8.53877 13.3673 7.12484 13.9316 6.04675C13.4103 6.15498 12.8483 6.27176 12.2783 6.3905Z" fill="black"/>
</svg>
