<svg width="24" height="24" viewBox="0 0 24 24" fill="none" xmlns="http://www.w3.org/2000/svg">
<path d="M12 4C16.4183 4 20 7.58172 20 12C20 16.4183 16.4183 20 12 20C7.58172 20 4 16.4183 4 12C4 7.58172 7.58172 4 12 4ZM12 5.5C8.41015 5.5 5.5 8.41015 5.5 12C5.5 15.5899 8.41015 18.5 12 18.5C15.5899 18.5 18.5 15.5899 18.5 12C18.5 8.41015 15.5899 5.5 12 5.5ZM12.6064 7.36426C12.8195 7.00917 13.2806 6.89357 13.6357 7.10645C13.9908 7.3195 14.1064 7.7806 13.8936 8.13574L12.875 9.83301L14.4746 12.5H15.25C15.6642 12.5 16 12.8358 16 13.25C16 13.6239 15.7261 13.9325 15.3682 13.9893L15.8936 14.8643C16.1064 15.2194 15.9908 15.6805 15.6357 15.8936C15.2806 16.1064 14.8195 15.9908 14.6064 15.6357L11.999 11.291L11.2734 12.501C11.6768 12.5134 12 12.8436 12 13.25C12 13.6642 11.6642 14 11.25 14H10.374L9.39355 15.6357C9.1805 15.9908 8.7194 16.1064 8.36426 15.8936C8.00917 15.6805 7.89357 15.2194 8.10645 14.8643L8.63086 13.9893C8.27337 13.9321 8 13.6236 8 13.25C8 12.8358 8.33579 12.5 8.75 12.5H9.52539L11.125 9.83301L10.1064 8.13574C9.89357 7.7806 10.0092 7.3195 10.3643 7.10645C10.7194 6.89357 11.1805 7.00917 11.3936 7.36426L12 8.37402L12.6064 7.36426Z" fill="black"/>
</svg>
