<svg width="24" height="24" viewBox="0 0 24 24" fill="none" xmlns="http://www.w3.org/2000/svg">
<path d="M16.25 8C17.7688 8 19 9.23122 19 10.75V20H17.5V10.75C17.5 10.0596 16.9404 9.5 16.25 9.5H7.75C7.05964 9.5 6.5 10.0596 6.5 10.75V20H5V10.75C5 9.23122 6.23122 8 7.75 8H16.25ZM12.25 10.5C12.6642 10.5 13 10.8358 13 11.25C13 11.6642 12.6642 12 12.25 12H11.75C11.3358 12 11 11.6642 11 11.25C11 10.8358 11.3358 10.5 11.75 10.5H12.25ZM12 4C13.4123 4 14.3829 4.42802 15.0127 4.90039C15.3225 5.13278 15.5409 5.36878 15.6855 5.55469C15.7579 5.64772 15.8123 5.72916 15.8506 5.79102C15.8697 5.8219 15.8849 5.8483 15.8965 5.86914C15.9023 5.87953 15.9071 5.88887 15.9111 5.89648C15.9131 5.90019 15.9154 5.90324 15.917 5.90625C15.9178 5.90779 15.9183 5.90978 15.9189 5.91113L15.9199 5.91309V5.91406C15.9153 5.91683 15.8657 5.94212 15.3457 6.20215L15.9209 5.91504C16.1058 6.28545 15.9553 6.73572 15.585 6.9209C15.2378 7.09425 14.8206 6.97319 14.6172 6.65234L14.5811 6.58887L14.582 6.5918L14.585 6.59766C14.5844 6.59656 14.5814 6.59014 14.5752 6.58008C14.5627 6.55993 14.5387 6.52383 14.502 6.47656C14.4279 6.38134 14.3021 6.24198 14.1123 6.09961C13.7421 5.82203 13.0874 5.5 12 5.5C10.9126 5.5 10.2579 5.82203 9.8877 6.09961C9.69787 6.24198 9.57211 6.38134 9.49805 6.47656C9.46131 6.52383 9.43729 6.55993 9.4248 6.58008C9.41858 6.59014 9.41565 6.59656 9.41504 6.59766L9.41797 6.5918L9.41895 6.58887L9.38281 6.65234C9.17936 6.97319 8.76223 7.09425 8.41504 6.9209C8.04469 6.73572 7.89416 6.28545 8.0791 5.91504L8.6543 6.20215C8.13432 5.94212 8.08466 5.91683 8.08008 5.91406V5.91309L8.08105 5.91113C8.08174 5.90978 8.08222 5.90779 8.08301 5.90625C8.08455 5.90324 8.08691 5.90019 8.08887 5.89648C8.09288 5.88887 8.09775 5.87953 8.10352 5.86914C8.11509 5.8483 8.1303 5.8219 8.14941 5.79102C8.18771 5.72916 8.2421 5.64772 8.31445 5.55469C8.4591 5.36878 8.67752 5.13278 8.9873 4.90039C9.61713 4.42802 10.5877 4 12 4Z" fill="black"/>
</svg>
