<svg width="24" height="24" viewBox="0 0 24 24" fill="none" xmlns="http://www.w3.org/2000/svg">
<path fill-rule="evenodd" clip-rule="evenodd" d="M14.6162 4.01213C15.0236 3.9383 15.4142 4.20923 15.4883 4.61662L15.9482 7.14787C16.4335 7.65097 16.7804 8.28883 16.9248 9.00041H17.25C17.6642 9.00041 18 9.33619 18 9.75041V14.2504C17.9998 14.6644 17.6641 15.0004 17.25 15.0004H16.9248C16.7803 15.7117 16.4333 16.349 15.9482 16.852L15.4883 19.3842C15.414 19.7913 15.0234 20.0624 14.6162 19.9887C14.209 19.9146 13.9382 19.5238 14.0117 19.1166L14.2383 17.8666C13.9233 17.9525 13.5922 18.0004 13.25 18.0004H10.75C10.4075 18.0004 10.076 17.9527 9.76074 17.8666L9.98828 19.1166C10.0618 19.5238 9.79103 19.9146 9.38379 19.9887C8.97658 20.0624 8.58598 19.7913 8.51172 19.3842L8.05078 16.852C7.40076 16.1777 7.00012 15.2609 7 14.2504V9.75041C7 8.73958 7.40051 7.82226 8.05078 7.14787L8.51172 4.61662C8.58579 4.20923 8.97641 3.9383 9.38379 4.01213C9.79113 4.08623 10.0621 4.47685 9.98828 4.8842L9.76074 6.13322C10.076 6.04721 10.4075 6.00041 10.75 6.00041H13.25C13.5922 6.00041 13.9233 6.04737 14.2383 6.13322L14.0117 4.8842C13.9379 4.47685 14.2089 4.08623 14.6162 4.01213ZM10.75 7.50041C9.50736 7.50041 8.5 8.50777 8.5 9.75041V14.2504C8.50024 15.4928 9.50751 16.5004 10.75 16.5004H13.25C14.4925 16.5004 15.4998 15.4928 15.5 14.2504V9.75041C15.5 8.50777 14.4926 7.50041 13.25 7.50041H10.75Z" fill="black"/>
</svg>
