<svg width="24" height="24" viewBox="0 0 24 24" fill="none" xmlns="http://www.w3.org/2000/svg">
<path d="M13.3506 4C14.0419 4.00018 14.6684 4.40734 14.9492 5.03906L15.6709 6.66309C17.0652 7.49076 18 9.01098 18 10.75V13.25C18 14.9888 17.0649 16.5082 15.6709 17.3359L14.9492 18.9609C14.6684 19.5927 14.0419 19.9998 13.3506 20H10.6494C9.95809 19.9998 9.33164 19.5927 9.05078 18.9609L8.32812 17.3359C6.93451 16.5081 6 14.9885 6 13.25V10.75C6 9.01128 6.93427 7.49085 8.32812 6.66309L9.05078 5.03906C9.33164 4.40734 9.95809 4.00018 10.6494 4H13.3506ZM13.7451 17.9736C13.5823 17.9905 13.4172 18 13.25 18H10.75C10.5824 18 10.417 17.9906 10.2539 17.9736L10.4219 18.3516C10.462 18.4416 10.5509 18.4998 10.6494 18.5H13.3506C13.4491 18.4998 13.538 18.4416 13.5781 18.3516L13.7451 17.9736ZM10.75 7.5C8.95507 7.5 7.5 8.95507 7.5 10.75V13.25C7.5 15.0449 8.95507 16.5 10.75 16.5H13.25C15.0449 16.5 16.5 15.0449 16.5 13.25V10.75C16.5 8.95507 15.0449 7.5 13.25 7.5H10.75ZM10.6494 5.5C10.5509 5.50018 10.462 5.5584 10.4219 5.64844L10.2539 6.02539C10.417 6.00847 10.5825 6 10.75 6H13.25C13.4172 6 13.5824 6.00854 13.7451 6.02539L13.5781 5.64844C13.538 5.5584 13.4491 5.50018 13.3506 5.5H10.6494Z" fill="black"/>
</svg>
