<svg width="24" height="24" viewBox="0 0 24 24" fill="none" xmlns="http://www.w3.org/2000/svg">
<path d="M15.25 4C15.6642 4 16 4.33579 16 4.75C16 5.16421 15.6642 5.5 15.25 5.5C14.6178 5.5 14.1839 5.70084 13.8643 5.97949C13.5297 6.27112 13.2825 6.68207 13.1064 7.14258C12.9533 7.54301 12.8661 7.95206 12.8154 8.29004C13.22 8.10788 13.6665 8 14.1553 8C16.9938 8.00007 19 10.8705 19 14C19 17.1295 16.9938 19.9999 14.1553 20C14.0464 20 13.9386 19.9764 13.8398 19.9307L13.3682 19.7119C12.5006 19.3094 11.4994 19.3094 10.6318 19.7119L10.1602 19.9307C10.0614 19.9764 9.95361 20 9.84473 20C7.00624 19.9999 5 17.1295 5 14C5 10.8705 7.00624 8.00007 9.84473 8C10.3559 8 10.8454 8.09896 11.3027 8.27637C11.3042 8.26477 11.3051 8.25301 11.3066 8.24121C11.3621 7.80581 11.4749 7.21199 11.7061 6.60742C11.9362 6.00553 12.2985 5.35384 12.8779 4.84863C13.4723 4.33046 14.2573 4 15.25 4ZM14.1553 9.5C13.6347 9.5 13.1552 9.73021 12.6924 10.1787C12.6758 10.1948 12.6586 10.2102 12.6406 10.2246C12.059 10.692 11.7758 11.2172 11.6357 11.6191C11.5653 11.8216 11.5311 11.9932 11.5146 12.1084C11.5065 12.1656 11.5026 12.2085 11.501 12.2334L11.5 12.2568L11.4961 12.3271C11.4575 12.7051 11.1382 13 10.75 13C10.3358 13 10 12.6642 10 12.25H10.75C10 12.25 10 12.2494 10 12.249V12.2344C10.0001 12.2277 10.0007 12.2194 10.001 12.21C10.0016 12.1908 10.0019 12.1657 10.0039 12.1357C10.0078 12.0758 10.0153 11.9946 10.0293 11.8965C10.0573 11.7007 10.1127 11.4332 10.2197 11.126C10.3617 10.7183 10.5973 10.2412 10.9814 9.76953C10.6217 9.59238 10.2388 9.5 9.84473 9.5C8.16028 9.50007 6.5 11.3306 6.5 14C6.5 16.5868 8.05911 18.3862 9.68848 18.4951L10.001 18.3506C11.2687 17.7625 12.7313 17.7625 13.999 18.3506L14.3105 18.4951C15.9403 18.3869 17.5 16.5873 17.5 14C17.5 11.3306 15.8397 9.50007 14.1553 9.5Z" fill="black"/>
</svg>
