<svg width="24" height="24" viewBox="0 0 24 24" fill="none" xmlns="http://www.w3.org/2000/svg">
<path d="M8.25 13C9.76878 13 11 14.2312 11 15.75V17.25C11 18.7688 9.76878 20 8.25 20H6.75C5.23122 20 4 18.7688 4 17.25V15.75C4 14.2312 5.23122 13 6.75 13H8.25ZM17.25 13C18.7688 13 20 14.2312 20 15.75V17.25C20 18.7688 18.7688 20 17.25 20H15.75C14.2312 20 13 18.7688 13 17.25V15.75C13 14.2312 14.2312 13 15.75 13H17.25ZM6.75 14.5C6.05964 14.5 5.5 15.0596 5.5 15.75V17.25C5.5 17.9404 6.05964 18.5 6.75 18.5H8.25C8.94036 18.5 9.5 17.9404 9.5 17.25V15.75C9.5 15.0596 8.94036 14.5 8.25 14.5H6.75ZM15.75 14.5C15.0596 14.5 14.5 15.0596 14.5 15.75V17.25C14.5 17.9404 15.0596 18.5 15.75 18.5H17.25C17.9404 18.5 18.5 17.9404 18.5 17.25V15.75C18.5 15.0596 17.9404 14.5 17.25 14.5H15.75ZM8.25 4C9.76878 4 11 5.23122 11 6.75V8.25C11 9.76878 9.76878 11 8.25 11H6.75C5.23122 11 4 9.76878 4 8.25V6.75C4 5.23122 5.23122 4 6.75 4H8.25ZM17.75 6.25H20V7.75H17.75V10H16.25V7.75H14V6.25H16.25V4H17.75V6.25ZM6.75 5.5C6.05964 5.5 5.5 6.05964 5.5 6.75V8.25C5.5 8.94036 6.05964 9.5 6.75 9.5H8.25C8.94036 9.5 9.5 8.94036 9.5 8.25V6.75C9.5 6.05964 8.94036 5.5 8.25 5.5H6.75Z" fill="black"/>
</svg>
