<svg width="24" height="24" viewBox="0 0 24 24" fill="none" xmlns="http://www.w3.org/2000/svg">
<path fill-rule="evenodd" clip-rule="evenodd" d="M8.67025 13.2755C8.87098 13.0302 9.20377 12.9376 9.50229 13.0441C9.80064 13.1508 10.0003 13.4333 10.0003 13.7501V17.3097L13.6956 13.2453C13.9041 13.0163 14.232 12.9393 14.5208 13.0509C14.8096 13.1628 15.0003 13.4405 15.0003 13.7501V17.3097L18.6956 13.2453C18.9041 13.0163 19.232 12.9393 19.5208 13.0509C19.8096 13.1628 20.0003 13.4405 20.0003 13.7501V19.2501C20.0002 19.6642 19.6643 20 19.2503 20.0001C18.8362 20.0001 18.5004 19.6643 18.5003 19.2501V15.6896L14.805 19.755C14.5967 19.9839 14.2686 20.0608 13.9798 19.9494C13.691 19.8376 13.5004 19.5599 13.5003 19.2501V15.6896L9.80502 19.755C9.59666 19.9839 9.2686 20.0608 8.97983 19.9494C8.69097 19.8376 8.50041 19.5599 8.50033 19.2501V15.8497L5.33041 19.7247C5.06819 20.0452 4.5963 20.0922 4.27572 19.8302C3.95514 19.5679 3.90796 19.0961 4.17025 18.7755L8.67025 13.2755ZM8.67025 4.27553C8.87098 4.03024 9.20377 3.93756 9.50229 4.04409C9.80064 4.15075 10.0003 4.43326 10.0003 4.75014V8.30971L13.6956 4.24526C13.9041 4.0163 14.232 3.93925 14.5208 4.05092C14.8096 4.16278 15.0003 4.44047 15.0003 4.75014V8.30971L18.6956 4.24526C18.9041 4.0163 19.232 3.93925 19.5208 4.05092C19.8096 4.16278 20.0003 4.44047 20.0003 4.75014V10.2501C20.0002 10.6642 19.6643 11 19.2503 11.0001C18.8362 11.0001 18.5004 10.6643 18.5003 10.2501V6.68959L14.805 10.755C14.5967 10.9839 14.2686 11.0608 13.9798 10.9494C13.691 10.8376 13.5004 10.5599 13.5003 10.2501V6.68959L9.80502 10.755C9.59666 10.9839 9.2686 11.0608 8.97983 10.9494C8.69097 10.8376 8.50041 10.5599 8.50033 10.2501V6.84975L5.33041 10.7247C5.06819 11.0452 4.5963 11.0922 4.27572 10.8302C3.95514 10.5679 3.90796 10.0961 4.17025 9.77553L8.67025 4.27553Z" fill="black"/>
</svg>
