<svg width="24" height="24" viewBox="0 0 24 24" fill="none" xmlns="http://www.w3.org/2000/svg">
<path d="M9.25 13C9.66421 13 10 13.3358 10 13.75V14.5H14V13.75C14 13.3358 14.3358 13 14.75 13H19.25C19.6642 13 20 13.3358 20 13.75V17.25C20 18.7688 18.7688 20 17.25 20H6.75C5.23122 20 4 18.7688 4 17.25V13.75C4 13.3358 4.33579 13 4.75 13H9.25ZM5.5 17.25C5.5 17.9404 6.05964 18.5 6.75 18.5H17.25C17.9404 18.5 18.5 17.9404 18.5 17.25V14.5H15.5V15.25C15.5 15.6642 15.1642 16 14.75 16H9.25C8.83579 16 8.5 15.6642 8.5 15.25V14.5H5.5V17.25ZM19.25 10C19.6642 10 20 10.3358 20 10.75C20 11.1642 19.6642 11.5 19.25 11.5H4.75C4.33579 11.5 4 11.1642 4 10.75C4 10.3358 4.33579 10 4.75 10H19.25ZM17.25 7C17.6642 7 18 7.33579 18 7.75C18 8.16421 17.6642 8.5 17.25 8.5H6.75C6.33579 8.5 6 8.16421 6 7.75C6 7.33579 6.33579 7 6.75 7H17.25ZM15.25 4C15.6642 4 16 4.33579 16 4.75C16 5.16421 15.6642 5.5 15.25 5.5H8.75C8.33579 5.5 8 5.16421 8 4.75C8 4.33579 8.33579 4 8.75 4H15.25Z" fill="black"/>
</svg>
