<svg width="24" height="24" viewBox="0 0 24 24" fill="none" xmlns="http://www.w3.org/2000/svg">
<path d="M16.2734 5.65723C16.3768 5.25638 16.7856 5.0152 17.1865 5.11816C18.8038 5.53441 20 7.00162 20 8.75V16.25C20 18.3211 18.3211 20 16.25 20H7.75C5.67893 20 4 18.3211 4 16.25V8.75C4 7.00162 5.19624 5.53441 6.81348 5.11816C7.2144 5.0152 7.62324 5.25638 7.72656 5.65723C7.82981 6.05837 7.58766 6.46804 7.18652 6.57129C6.21618 6.82128 5.5 7.7028 5.5 8.75V13H9.75C10.1642 13 10.5 13.3358 10.5 13.75V14.25C10.5 14.9404 11.0596 15.5 11.75 15.5H12.25C12.9404 15.5 13.5 14.9404 13.5 14.25V13.75C13.5 13.3358 13.8358 13 14.25 13H18.5V8.75C18.5 7.7028 17.7838 6.82128 16.8135 6.57129C16.4123 6.46804 16.1702 6.05837 16.2734 5.65723ZM5.5 16.25C5.5 17.4926 6.50736 18.5 7.75 18.5H16.25C17.4926 18.5 18.5 17.4926 18.5 16.25V14.5H14.9873C14.8609 15.9016 13.6845 17 12.25 17H11.75C10.3155 17 9.13906 15.9016 9.0127 14.5H5.5V16.25ZM12 4C12.2126 4 12.4154 4.09004 12.5576 4.24805L14.8076 6.74805C15.0847 7.05591 15.0598 7.53052 14.752 7.80762C14.4441 8.0847 13.9695 8.05978 13.6924 7.75195L12.75 6.7041V10.25C12.75 10.6642 12.4142 11 12 11C11.5858 11 11.25 10.6642 11.25 10.25V6.7041L10.3076 7.75195C10.0305 8.05978 9.55591 8.0847 9.24805 7.80762C8.94022 7.53052 8.91531 7.05591 9.19238 6.74805L11.4424 4.24805L11.499 4.19238C11.636 4.06933 11.814 4 12 4Z" fill="black"/>
</svg>
