<svg width="24" height="24" viewBox="0 0 24 24" fill="none" xmlns="http://www.w3.org/2000/svg">
<path d="M12.25 4C12.6642 4 13 4.33579 13 4.75C13 5.16421 12.6642 5.5 12.25 5.5H7.75C6.50736 5.5 5.5 6.50736 5.5 7.75V13H9.75C10.1642 13 10.5 13.3358 10.5 13.75V14.25C10.5 14.9404 11.0596 15.5 11.75 15.5H12.25C12.9404 15.5 13.5 14.9404 13.5 14.25V13.75C13.5 13.3358 13.8358 13 14.25 13H18.5V11.75C18.5 11.3358 18.8358 11 19.25 11C19.6642 11 20 11.3358 20 11.75V16.25C20 18.3211 18.3211 20 16.25 20H7.75C5.67893 20 4 18.3211 4 16.25V7.75C4 5.67893 5.67893 4 7.75 4H12.25ZM5.5 16.25C5.5 17.4926 6.50736 18.5 7.75 18.5H16.25C17.4926 18.5 18.5 17.4926 18.5 16.25V14.5H14.9873C14.8609 15.9016 13.6845 17 12.25 17H11.75C10.3155 17 9.13906 15.9016 9.0127 14.5H5.5V16.25ZM17 4C17.4142 4 17.75 4.33579 17.75 4.75V6.25H19.25C19.6642 6.25 20 6.58579 20 7C20 7.41421 19.6642 7.75 19.25 7.75H17.75V9.25C17.75 9.66421 17.4142 10 17 10C16.5858 10 16.25 9.66421 16.25 9.25V7.75H14.75C14.3358 7.75 14 7.41421 14 7C14 6.58579 14.3358 6.25 14.75 6.25H16.25V4.75C16.25 4.33579 16.5858 4 17 4Z" fill="black"/>
</svg>
