<svg width="24" height="24" viewBox="0 0 24 24" fill="none" xmlns="http://www.w3.org/2000/svg">
<path d="M16.2734 5.6582C16.3766 5.25721 16.7855 5.01521 17.1865 5.11816C18.8037 5.53442 19.9999 7.00174 20 8.75V16.25C19.9999 18.321 18.321 20 16.25 20H7.75C5.67901 20 4.00013 18.321 4 16.25V8.75C4.0001 7.00174 5.19633 5.53442 6.81348 5.11816C7.21447 5.01521 7.62335 5.25721 7.72656 5.6582C7.82936 6.05912 7.58744 6.4681 7.18652 6.57129C6.21625 6.82127 5.5001 7.7029 5.5 8.75V13H9.75C10.1641 13 10.4999 13.3359 10.5 13.75V14.25C10.5001 14.9402 11.0597 15.5 11.75 15.5H12.25C12.9403 15.5 13.4999 14.9402 13.5 14.25V13.75C13.5001 13.3359 13.8359 13 14.25 13H18.5V8.75C18.4999 7.7029 17.7838 6.82127 16.8135 6.57129C16.4126 6.4681 16.1706 6.05912 16.2734 5.6582ZM5.5 16.25C5.50013 17.4925 6.50744 18.5 7.75 18.5H16.25C17.4926 18.5 18.4999 17.4925 18.5 16.25V14.5H14.9873C14.8609 15.9015 13.6845 17 12.25 17H11.75C10.3155 17 9.13908 15.9015 9.0127 14.5H5.5V16.25ZM12 4C12.4142 4 12.75 4.33579 12.75 4.75V8.29492L13.6924 7.24805C13.9695 6.94022 14.4441 6.9153 14.752 7.19238C15.0598 7.46948 15.0847 7.94409 14.8076 8.25195L12.5576 10.752C12.4154 10.91 12.2126 11 12 11C11.7874 11 11.5846 10.91 11.4424 10.752L9.19238 8.25195C8.9153 7.94409 8.94022 7.46948 9.24805 7.19238C9.55591 6.9153 10.0305 6.94022 10.3076 7.24805L11.25 8.29492V4.75C11.25 4.33579 11.5858 4 12 4Z" fill="black"/>
</svg>
