<svg width="24" height="24" viewBox="0 0 24 24" fill="none" xmlns="http://www.w3.org/2000/svg">
<path d="M19.1123 4C20.0609 4.00012 21 4.69547 21 5.75V7.75C21 8.48344 20.545 9.04157 19.9492 9.31445L19.126 17.9629C19.016 19.1177 18.0457 20 16.8857 20H7.11426C5.95425 20 4.984 19.1177 4.87402 17.9629L4.0498 9.31445C3.45441 9.04144 3 8.48311 3 7.75V5.75C3 4.69547 3.93908 4.00011 4.8877 4H19.1123ZM6.36719 17.8213C6.40393 18.2061 6.72765 18.5 7.11426 18.5H16.8857C17.2724 18.5 17.5961 18.2061 17.6328 17.8213L18.4248 9.5H5.5752L6.36719 17.8213ZM14.25 12C14.6642 12 15 12.3358 15 12.75C15 13.1642 14.6642 13.5 14.25 13.5H9.75C9.33579 13.5 9 13.1642 9 12.75C9 12.3358 9.33579 12 9.75 12H14.25ZM4.8877 5.5C4.75084 5.50006 4.64345 5.54904 4.57812 5.60645C4.51441 5.66253 4.5 5.71491 4.5 5.75V7.75C4.5 7.78509 4.51441 7.83747 4.57812 7.89355C4.64345 7.95096 4.75084 7.99994 4.8877 8H19.1123C19.2492 7.99994 19.3565 7.95096 19.4219 7.89355C19.4856 7.83747 19.5 7.78509 19.5 7.75V5.75C19.5 5.71491 19.4856 5.66253 19.4219 5.60645C19.3565 5.54904 19.2492 5.50006 19.1123 5.5H4.8877Z" fill="black"/>
</svg>
