<svg width="24" height="24" viewBox="0 0 24 24" fill="none" xmlns="http://www.w3.org/2000/svg">
<path d="M12.25 4C12.6642 4 13 4.33579 13 4.75C13 5.16421 12.6642 5.5 12.25 5.5H7.75C6.50736 5.5 5.5 6.50736 5.5 7.75V13H9.75C10.1642 13 10.5 13.3358 10.5 13.75V14.25C10.5 14.9404 11.0596 15.5 11.75 15.5H12.25C12.9404 15.5 13.5 14.9404 13.5 14.25V13.75C13.5 13.3358 13.8358 13 14.25 13H18.5V11.75C18.5 11.3358 18.8358 11 19.25 11C19.6642 11 20 11.3358 20 11.75V16.25C20 18.3211 18.3211 20 16.25 20H7.75C5.67893 20 4 18.3211 4 16.25V7.75C4 5.67893 5.67893 4 7.75 4H12.25ZM5.5 16.25C5.5 17.4926 6.50736 18.5 7.75 18.5H16.25C17.4926 18.5 18.5 17.4926 18.5 16.25V14.5H14.9873C14.8609 15.9016 13.6845 17 12.25 17H11.75C10.3155 17 9.13906 15.9016 9.0127 14.5H5.5V16.25ZM18.6992 4.24121C18.9802 3.93704 19.4545 3.91833 19.7588 4.19922C20.063 4.48019 20.0817 4.95449 19.8008 5.25879L19.7979 5.26172C19.7951 5.26478 19.7904 5.27045 19.7842 5.27734C19.7717 5.29119 19.7526 5.31249 19.7275 5.34082C19.6768 5.39825 19.6013 5.48422 19.5078 5.5957C19.3206 5.81891 19.0604 6.14286 18.7705 6.53906C18.1865 7.33729 17.5031 8.40485 17.0537 9.52832C16.9556 9.77361 16.7355 9.94986 16.4746 9.99121C16.2138 10.0325 15.9504 9.93321 15.7812 9.73047L14.1738 7.80176C13.9087 7.48359 13.9514 7.01031 14.2695 6.74512C14.5876 6.48002 15.061 6.52287 15.3262 6.84082L16.1758 7.86035C16.6172 7.01313 17.1227 6.25042 17.5596 5.65332C17.8723 5.22587 18.1548 4.87571 18.3594 4.63184C18.4616 4.50998 18.5451 4.41383 18.6035 4.34766C18.6326 4.31474 18.6557 4.28933 18.6719 4.27148C18.68 4.26253 18.6859 4.255 18.6904 4.25L18.6982 4.24219V4.24121H18.6992Z" fill="black"/>
</svg>
