<svg width="24" height="24" viewBox="0 0 24 24" fill="none" xmlns="http://www.w3.org/2000/svg">
<path d="M17 4C18.6569 4 20 5.34315 20 7C20 7.84408 19.6502 8.60809 19.0898 9.15234C18.7927 9.44069 18.3178 9.43375 18.0293 9.13672C17.7408 8.83961 17.7479 8.36475 18.0449 8.07617C18.3265 7.8027 18.5 7.42224 18.5 7C18.5 6.17157 17.8284 5.5 17 5.5C16.7256 5.5 16.4555 5.63934 16.1709 5.98633C15.8815 6.33935 15.6441 6.83228 15.458 7.34277C14.4754 10.0377 12.75 15.346 12.75 19.25C12.75 19.6642 12.4142 20 12 20C11.5858 20 11.25 19.6642 11.25 19.25C11.25 15.346 9.52456 10.0377 8.54199 7.34277C8.35586 6.83228 8.11848 6.33935 7.8291 5.98633C7.54453 5.63934 7.27444 5.5 7 5.5C6.17157 5.5 5.5 6.17157 5.5 7C5.5 7.42224 5.67354 7.8027 5.95508 8.07617C6.25211 8.36475 6.25919 8.83961 5.9707 9.13672C5.68218 9.43375 5.20729 9.44069 4.91016 9.15234C4.34984 8.60809 4 7.84408 4 7C4 5.34315 5.34315 4 7 4C7.88254 4 8.53791 4.48519 8.98828 5.03418C9.43367 5.57726 9.74099 6.25264 9.95117 6.8291C10.5236 8.3992 11.384 10.9504 12 13.6387C12.616 10.9504 13.4764 8.3992 14.0488 6.8291C14.259 6.25264 14.5663 5.57726 15.0117 5.03418C15.4621 4.48519 16.1175 4 17 4Z" fill="black"/>
</svg>
