<svg width="24" height="24" viewBox="0 0 24 24" fill="none" xmlns="http://www.w3.org/2000/svg">
<path d="M12 4C16.4183 4 20 7.58172 20 12C20 16.4183 16.4183 20 12 20C7.58172 20 4 16.4183 4 12C4 7.58172 7.58172 4 12 4ZM12 5.5C8.41015 5.5 5.5 8.41015 5.5 12C5.5 15.5899 8.41015 18.5 12 18.5C15.5899 18.5 18.5 15.5899 18.5 12C18.5 8.41015 15.5899 5.5 12 5.5ZM12.75 13.4395L13.7197 12.4697C14.0126 12.1768 14.4874 12.1768 14.7803 12.4697C15.0732 12.7626 15.0732 13.2374 14.7803 13.5303L12.5303 15.7803C12.2374 16.0732 11.7626 16.0732 11.4697 15.7803L9.21973 13.5303C8.92683 13.2374 8.92683 12.7626 9.21973 12.4697C9.51262 12.1768 9.98738 12.1768 10.2803 12.4697L11.25 13.4395V8.25H12.75V13.4395Z" fill="black"/>
</svg>
