<svg width="24" height="24" viewBox="0 0 24 24" fill="none" xmlns="http://www.w3.org/2000/svg">
<path d="M12 4C16.4183 4 20 7.58173 20 12C20 16.4183 16.4183 20 12 20C7.58173 20 4 16.4183 4 12C4 7.58173 7.58173 4 12 4ZM12 5.5C8.41015 5.5 5.5 8.41015 5.5 12C5.5 15.5899 8.41015 18.5 12 18.5C15.5899 18.5 18.5 15.5899 18.5 12C18.5 8.41015 15.5899 5.5 12 5.5ZM10.4697 9.21973C10.7626 8.92683 11.2374 8.92683 11.5303 9.21973C11.8232 9.51262 11.8232 9.98738 11.5303 10.2803L10.5605 11.25H15.25C15.6642 11.25 16 11.5858 16 12C16 12.4142 15.6642 12.75 15.25 12.75H10.5605L11.5303 13.7197C11.8232 14.0126 11.8232 14.4874 11.5303 14.7803C11.2374 15.0732 10.7626 15.0732 10.4697 14.7803L8.21973 12.5303C7.92683 12.2374 7.92683 11.7626 8.21973 11.4697L10.4697 9.21973Z" fill="black"/>
</svg>
