<svg width="24" height="24" viewBox="0 0 24 24" fill="none" xmlns="http://www.w3.org/2000/svg">
<path fill-rule="evenodd" clip-rule="evenodd" d="M13.207 6.23234C13.4929 5.93284 13.9679 5.92131 14.2676 6.20695L19.7676 11.457C19.9158 11.5985 20 11.795 20 11.9999C20 12.2049 19.9158 12.4014 19.7676 12.5429L14.2676 17.7929C13.9679 18.0785 13.4929 18.067 13.207 17.7675C12.9214 17.4679 12.9329 16.9928 13.2324 16.707L17.3779 12.7499H4.75C4.33579 12.7499 4 12.4141 4 11.9999C4 11.5857 4.33579 11.2499 4.75 11.2499H17.3779L13.2324 7.29289C12.9329 7.007 12.9214 6.53198 13.207 6.23234Z" fill="black"/>
</svg>
