<svg width="24" height="24" viewBox="0 0 24 24" fill="none" xmlns="http://www.w3.org/2000/svg">
<path fill-rule="evenodd" clip-rule="evenodd" d="M11.9999 4C12.4141 4 12.7499 4.33579 12.7499 4.75V17.377L16.707 13.2324C16.9928 12.9329 17.4679 12.9214 17.7675 13.207C18.067 13.4929 18.0785 13.9679 17.7929 14.2676L12.5429 19.7676C12.4014 19.9158 12.2049 20 11.9999 20C11.795 20 11.5985 19.9158 11.457 19.7676L6.20695 14.2676C5.92131 13.9679 5.93284 13.4929 6.23234 13.207C6.53198 12.9214 7.007 12.9329 7.29289 13.2324L11.2499 17.377V4.75C11.2499 4.33579 11.5857 4 11.9999 4Z" fill="black"/>
</svg>
