<svg width="24" height="24" viewBox="0 0 24 24" fill="none" xmlns="http://www.w3.org/2000/svg">
<path d="M12 4C16.4183 4 20 7.58172 20 12C20 16.4183 16.4183 20 12 20C7.58172 20 4 16.4183 4 12C4 7.58172 7.58172 4 12 4ZM12 5.5C8.41015 5.5 5.5 8.41015 5.5 12C5.5 15.5899 8.41015 18.5 12 18.5C15.5899 18.5 18.5 15.5899 18.5 12C18.5 8.41015 15.5899 5.5 12 5.5ZM14.0605 9H14.25C14.6642 9 15 9.33579 15 9.75V9.93945L15.0605 10L15 10.0605V13.25C15 13.6642 14.6642 14 14.25 14C13.8358 14 13.5 13.6642 13.5 13.25V11.5605L9.75 15.3105L8.68945 14.25L12.4395 10.5H10.75C10.3358 10.5 10 10.1642 10 9.75C10 9.33579 10.3358 9 10.75 9H13.9395L14 8.93945L14.0605 9Z" fill="black"/>
</svg>
