<svg width="24" height="24" viewBox="0 0 24 24" fill="none" xmlns="http://www.w3.org/2000/svg">
<path d="M12 4C16.4183 4 20 7.58173 20 12C20 16.4183 16.4183 20 12 20C7.58169 20 4 16.4183 4 12C4 7.58173 7.58168 4 12 4ZM12 5.5C8.41012 5.5 5.5 8.41015 5.5 12C5.5 15.5899 8.41011 18.5 12 18.5C15.5898 18.5 18.5 15.5899 18.5 12C18.5 8.41015 15.5898 5.5 12 5.5ZM12.4697 9.21973C12.7626 8.92683 13.2374 8.92683 13.5303 9.21973L15.7803 11.4697C16.0732 11.7626 16.0732 12.2374 15.7803 12.5303L13.5303 14.7803C13.2374 15.0732 12.7626 15.0732 12.4697 14.7803C12.1768 14.4874 12.1768 14.0126 12.4697 13.7197L13.4395 12.75H8.75C8.33579 12.75 8 12.4142 8 12C8 11.5858 8.33579 11.25 8.75 11.25H13.4395L12.4697 10.2803C12.1768 9.98738 12.1768 9.51262 12.4697 9.21973Z" fill="black"/>
</svg>
