<svg width="24" height="24" viewBox="0 0 24 24" fill="none" xmlns="http://www.w3.org/2000/svg">
<path fill-rule="evenodd" clip-rule="evenodd" d="M11.9999 4C12.2049 4 12.4014 4.08416 12.5429 4.23242L17.7929 9.73242C18.0785 10.0321 18.067 10.5071 17.7675 10.793C17.4679 11.0786 16.9928 11.0671 16.707 10.7676L12.7499 6.62109V19.25C12.7499 19.6642 12.4141 20 11.9999 20C11.5857 20 11.2499 19.6642 11.2499 19.25V6.62109L7.29289 10.7676C7.007 11.0671 6.53199 11.0786 6.23234 10.793C5.93284 10.5071 5.92131 10.0321 6.20695 9.73242L11.457 4.23242C11.5985 4.08416 11.795 4 11.9999 4Z" fill="black"/>
</svg>
