<svg width="24" height="24" viewBox="0 0 24 24" fill="none" xmlns="http://www.w3.org/2000/svg">
<path d="M12 4C16.4183 4 20 7.58172 20 12C20 16.4183 16.4183 20 12 20C7.58172 20 4 16.4183 4 12C4 7.58172 7.58172 4 12 4ZM12 5.5C8.41015 5.5 5.5 8.41015 5.5 12C5.5 15.5899 8.41015 18.5 12 18.5C15.5899 18.5 18.5 15.5899 18.5 12C18.5 8.41015 15.5899 5.5 12 5.5ZM10.0605 9H13.25C13.6642 9 14 9.33579 14 9.75C14 10.1642 13.6642 10.5 13.25 10.5H11.5605L15.3105 14.25L14.25 15.3105L10.5 11.5605V13.25C10.5 13.6642 10.1642 14 9.75 14C9.33579 14 9 13.6642 9 13.25V10.0605L8.93945 10L9 9.93945V9.75C9 9.33579 9.33579 9 9.75 9H9.93945L10 8.93945L10.0605 9Z" fill="black"/>
</svg>
