<svg width="24" height="24" viewBox="0 0 24 24" fill="none" xmlns="http://www.w3.org/2000/svg">
<path d="M12 4C16.4183 4 20 7.58172 20 12C20 16.4183 16.4183 20 12 20C7.58172 20 4 16.4183 4 12C4 7.58172 7.58172 4 12 4ZM12 5.5C8.41015 5.5 5.5 8.41015 5.5 12C5.5 15.5899 8.41015 18.5 12 18.5C15.5899 18.5 18.5 15.5899 18.5 12C18.5 8.41015 15.5899 5.5 12 5.5ZM11.5264 8.41797C11.8209 8.17766 12.2557 8.19512 12.5303 8.46973L14.7803 10.7197C15.0732 11.0126 15.0732 11.4874 14.7803 11.7803C14.4874 12.0732 14.0126 12.0732 13.7197 11.7803L12.75 10.8105V16H11.25V10.8105L10.2803 11.7803C9.98738 12.0732 9.51262 12.0732 9.21973 11.7803C8.92683 11.4874 8.92683 11.0126 9.21973 10.7197L11.4697 8.46973L11.5264 8.41797Z" fill="black"/>
</svg>
