<svg width="24" height="24" viewBox="0 0 24 24" fill="none" xmlns="http://www.w3.org/2000/svg">
<path d="M12 4C16.4183 4 20 7.58172 20 12C20 16.4183 16.4183 20 12 20C7.58172 20 4 16.4183 4 12C4 7.58172 7.58172 4 12 4ZM12 5.5C8.41015 5.5 5.5 8.41015 5.5 12C5.5 15.5899 8.41015 18.5 12 18.5C15.5899 18.5 18.5 15.5899 18.5 12C18.5 8.41015 15.5899 5.5 12 5.5ZM15.3105 9.75L11.5605 13.5H13.25C13.6642 13.5 14 13.8358 14 14.25C14 14.6642 13.6642 15 13.25 15H10.0605L10 15.0605L9.93945 15H9.75C9.33579 15 9 14.6642 9 14.25V14.0605L8.93945 14L9 13.9395V10.75C9 10.3358 9.33579 10 9.75 10C10.1642 10 10.5 10.3358 10.5 10.75V12.4395L14.25 8.68945L15.3105 9.75Z" fill="black"/>
</svg>
