<svg width="24" height="24" viewBox="0 0 24 24" fill="none" xmlns="http://www.w3.org/2000/svg">
<path fill-rule="evenodd" clip-rule="evenodd" d="M9.73242 6.20695C10.0321 5.92131 10.5071 5.93284 10.793 6.23234C11.0786 6.53199 11.0671 7.007 10.7676 7.29289L6.62207 11.2499H19.25C19.6642 11.2499 20 11.5857 20 11.9999C20 12.4141 19.6642 12.7499 19.25 12.7499H6.62207L10.7676 16.707C11.0671 16.9928 11.0786 17.4679 10.793 17.7675C10.5071 18.067 10.0321 18.0785 9.73242 17.7929L4.23242 12.5429C4.08416 12.4014 4 12.2049 4 11.9999C4 11.795 4.08416 11.5985 4.23242 11.457L9.73242 6.20695Z" fill="black"/>
</svg>
