<svg width="24" height="24" viewBox="0 0 24 24" fill="none" xmlns="http://www.w3.org/2000/svg">
<path fill-rule="evenodd" clip-rule="evenodd" d="M17.0002 4C17.2128 4 17.4156 4.09005 17.5578 4.24805L19.8078 6.74805C20.0849 7.05591 20.0599 7.53052 19.7521 7.80762C19.4443 8.08469 18.9696 8.05978 18.6925 7.75195L17.7502 6.7041V16.75C17.7502 18.5449 16.2951 20 14.5002 20C12.7052 20 11.2502 18.5449 11.2502 16.75V7.25C11.2502 6.2835 10.4667 5.5 9.50016 5.5C8.53367 5.5 7.75016 6.2835 7.75016 7.25V17.2949L8.69255 16.248C8.96965 15.9402 9.44425 15.9153 9.75212 16.1924C10.0599 16.4695 10.0849 16.9441 9.80778 17.252L7.55778 19.752C7.41555 19.91 7.21275 20 7.00016 20C6.78757 20 6.58477 19.91 6.44255 19.752L4.19255 17.252C3.91547 16.9441 3.94038 16.4695 4.24821 16.1924C4.55607 15.9153 5.03068 15.9402 5.30778 16.248L6.25016 17.2949V7.25C6.25016 5.45508 7.70524 4 9.50016 4C11.2951 4 12.7502 5.45507 12.7502 7.25V16.75C12.7502 17.7165 13.5337 18.5 14.5002 18.5C15.4667 18.5 16.2502 17.7165 16.2502 16.75V6.7041L15.3078 7.75195C15.0307 8.05978 14.5561 8.08469 14.2482 7.80762C13.9404 7.53052 13.9155 7.05591 14.1925 6.74805L16.4425 4.24805L16.4992 4.19238C16.6361 4.06933 16.8142 4 17.0002 4Z" fill="black"/>
</svg>
