<svg width="24" height="24" viewBox="0 0 24 24" fill="none" xmlns="http://www.w3.org/2000/svg">
<path d="M12 4C16.4183 4 20 7.58172 20 12C20 16.4183 16.4183 20 12 20C7.58172 20 4 16.4183 4 12C4 7.58172 7.58172 4 12 4ZM12 5.5C8.41015 5.5 5.5 8.41015 5.5 12C5.5 15.5899 8.41015 18.5 12 18.5C15.5899 18.5 18.5 15.5899 18.5 12C18.5 8.41015 15.5899 5.5 12 5.5ZM13.5 12.4395V10.75C13.5 10.3358 13.8358 10 14.25 10C14.6642 10 15 10.3358 15 10.75V13.9395L15.0605 14L15 14.0605V14.25C15 14.6642 14.6642 15 14.25 15H14.0605L14 15.0605L13.9395 15H10.75C10.3358 15 10 14.6642 10 14.25C10 13.8358 10.3358 13.5 10.75 13.5H12.4395L8.68945 9.75L9.75 8.68945L13.5 12.4395Z" fill="black"/>
</svg>
