<svg width="24" height="24" viewBox="0 0 24 24" fill="none" xmlns="http://www.w3.org/2000/svg">
<path fill-rule="evenodd" clip-rule="evenodd" d="M11.9999 4C12.4141 4 12.7499 4.33579 12.7499 4.75V10.7646L17.9042 8.08496C18.2716 7.89389 18.7238 8.03685 18.9149 8.4043C19.106 8.77178 18.9631 9.22395 18.5956 9.41504L13.6239 12L18.5956 14.585C18.9629 14.776 19.1058 15.2283 18.9149 15.5957C18.7239 15.9631 18.2716 16.1068 17.9042 15.916L12.7499 13.2354V19.25C12.7499 19.6642 12.4141 20 11.9999 20C11.5857 19.9999 11.2499 19.6642 11.2499 19.25V13.2354L6.09558 15.916C5.72818 16.1067 5.27585 15.963 5.08484 15.5957C4.89396 15.2283 5.03684 14.776 5.40418 14.585L10.3739 12L5.40418 9.41504C5.03671 9.22395 4.89381 8.77178 5.08484 8.4043C5.27597 8.03694 5.72815 7.89396 6.09558 8.08496L11.2499 10.7646V4.75C11.2499 4.33583 11.5857 4.00006 11.9999 4Z" fill="black"/>
</svg>
