<svg width="24" height="24" viewBox="0 0 24 24" fill="none" xmlns="http://www.w3.org/2000/svg">
<path d="M18.4824 8.66504C18.8682 8.51434 19.3034 8.70499 19.4541 9.09082C19.8066 9.99349 20 10.975 20 12C20 16.4183 16.4183 20 12 20C11.4663 20 10.9441 19.9478 10.4385 19.8477C10.0322 19.7672 9.7672 19.3721 9.84766 18.9658C9.92818 18.5596 10.3232 18.2956 10.7295 18.376C11.1398 18.4572 11.5645 18.5 12 18.5C15.5899 18.5 18.5 15.5899 18.5 12C18.5 11.1646 18.3424 10.3674 18.0566 9.63574C17.9063 9.25017 18.097 8.81582 18.4824 8.66504ZM8 17C8.55228 17 9 17.4477 9 18C9 18.5523 8.55228 19 8 19C7.44772 19 7 18.5523 7 18C7 17.4477 7.44772 17 8 17ZM8.07422 13.7939C8.41502 13.559 8.88193 13.6447 9.11719 13.9854C9.74986 14.9018 10.8052 15.5 12 15.5C12.2429 15.5 12.4793 15.4754 12.707 15.4287C13.1128 15.3456 13.5096 15.607 13.5928 16.0127C13.6759 16.4185 13.4136 16.8153 13.0078 16.8984C12.6817 16.9652 12.3445 17 12 17C10.2916 17 8.78354 16.1426 7.88281 14.8379C7.64749 14.497 7.73334 14.0293 8.07422 13.7939ZM12 4C13.0487 4 14.052 4.20214 14.9717 4.57031C15.3562 4.72427 15.5436 5.16136 15.3896 5.5459C15.2356 5.93023 14.7985 6.11681 14.4141 5.96289C13.6687 5.66454 12.8545 5.5 12 5.5C8.41015 5.5 5.5 8.41015 5.5 12C5.5 13.354 5.91305 14.6093 6.62012 15.6494C6.85297 15.9919 6.76437 16.4585 6.42188 16.6914C6.07932 16.9243 5.61276 16.8347 5.37988 16.4922C4.50918 15.2113 4 13.664 4 12C4 7.58172 7.58172 4 12 4ZM15 14C15.5523 14 16 14.4477 16 15C16 15.5523 15.5523 16 15 16C14.4477 16 14 15.5523 14 15C14 14.4477 14.4477 14 15 14ZM12 10C13.1046 10 14 10.8954 14 12C14 13.1046 13.1046 14 12 14C10.8954 14 10 13.1046 10 12C10 10.8954 10.8954 10 12 10ZM12 7C14.7614 7 17 9.23858 17 12C17 12.2896 16.9753 12.5744 16.9277 12.8516C16.8575 13.2596 16.4697 13.5339 16.0615 13.4639C15.6534 13.3938 15.3793 13.0058 15.4492 12.5977C15.4825 12.404 15.5 12.2042 15.5 12C15.5 10.067 13.933 8.5 12 8.5C10.8052 8.5 9.74986 9.09818 9.11719 10.0146C8.88193 10.3553 8.41502 10.441 8.07422 10.2061C7.73334 9.97073 7.64749 9.50299 7.88281 9.16211C8.78354 7.85745 10.2916 7 12 7ZM8 11C8.55228 11 9 11.4477 9 12C9 12.5523 8.55228 13 8 13C7.44772 13 7 12.5523 7 12C7 11.4477 7.44772 11 8 11ZM12 11.5C11.7239 11.5 11.5 11.7239 11.5 12C11.5 12.2761 11.7239 12.5 12 12.5C12.2761 12.5 12.5 12.2761 12.5 12C12.5 11.7239 12.2761 11.5 12 11.5ZM17 6C17.5523 6 18 6.44772 18 7C18 7.55228 17.5523 8 17 8C16.4477 8 16 7.55228 16 7C16 6.44772 16.4477 6 17 6Z" fill="black"/>
</svg>
