<svg width="24" height="24" viewBox="0 0 24 24" fill="none" xmlns="http://www.w3.org/2000/svg">
<path d="M12 4C15.5787 4 17.6672 5.16126 18.8057 6.88281C19.9005 8.5384 20 10.5553 20 12V13.25C20 14.7688 18.7688 16 17.25 16C16.2732 16 15.4175 15.4892 14.9297 14.7217C14.1993 15.5075 13.1575 16 12 16C9.79086 16 8 14.2091 8 12C8 9.79086 9.79086 8 12 8C12.9461 8 13.8152 8.32883 14.5 8.87793V8.75C14.5 8.33579 14.8358 8 15.25 8C15.6642 8 16 8.33579 16 8.75V13.25C16 13.9404 16.5596 14.5 17.25 14.5C17.9404 14.5 18.5 13.9404 18.5 13.25V12C18.5 10.5697 18.3807 8.96159 17.5537 7.71094C16.7703 6.52628 15.2337 5.5 12 5.5C8.41015 5.5 5.5 8.41015 5.5 12C5.5 15.5899 8.41015 18.5 12 18.5C12.4142 18.5 12.75 18.8358 12.75 19.25C12.75 19.6642 12.4142 20 12 20C7.58172 20 4 16.4183 4 12C4 7.58172 7.58172 4 12 4ZM12 9.5C10.6193 9.5 9.5 10.6193 9.5 12C9.5 13.3807 10.6193 14.5 12 14.5C13.3807 14.5 14.5 13.3807 14.5 12C14.5 10.6193 13.3807 9.5 12 9.5Z" fill="black"/>
</svg>
