<svg width="24" height="24" viewBox="0 0 24 24" fill="none" xmlns="http://www.w3.org/2000/svg">
<path d="M16.25 4C18.3211 4 20 5.67893 20 7.75V16.25C20 18.3211 18.3211 20 16.25 20H7.75C5.67893 20 4 18.3211 4 16.25V7.75C4 5.67893 5.67893 4 7.75 4H16.25ZM12 16.5C10.2289 16.5 9.09986 17.2107 8.40527 17.9053C8.20159 18.109 8.03535 18.3137 7.90039 18.5H16.0996C15.9646 18.3137 15.7984 18.109 15.5947 17.9053C14.9001 17.2107 13.7711 16.5 12 16.5ZM7.75 5.5C6.50736 5.5 5.5 6.50736 5.5 7.75V16.25C5.5 16.9857 5.85438 17.6373 6.40039 18.0479C6.60573 17.7093 6.91246 17.277 7.34473 16.8447C8.27514 15.9143 9.77108 15 12 15C14.2289 15 15.7249 15.9143 16.6553 16.8447C17.0874 17.2768 17.3933 17.7093 17.5986 18.0479C18.145 17.6373 18.5 16.986 18.5 16.25V7.75C18.5 6.50736 17.4926 5.5 16.25 5.5H7.75ZM12 7C13.6569 7 15 8.34315 15 10C15 11.6569 13.6569 13 12 13C10.3431 13 9 11.6569 9 10C9 8.34315 10.3431 7 12 7ZM12 8.5C11.1716 8.5 10.5 9.17157 10.5 10C10.5 10.8284 11.1716 11.5 12 11.5C12.8284 11.5 13.5 10.8284 13.5 10C13.5 9.17157 12.8284 8.5 12 8.5Z" fill="black"/>
</svg>
