<svg width="24" height="24" viewBox="0 0 24 24" fill="none" xmlns="http://www.w3.org/2000/svg">
<path d="M14.2783 4C15.0077 4 15.7079 4.28994 16.2236 4.80566L19.1943 7.77637C19.7101 8.29209 20 8.99233 20 9.72168V13.3701C19.9999 13.9945 19.7875 14.6003 19.3975 15.0879L16.9707 18.1211L16.293 18.9678C15.7711 19.6201 14.9809 20 14.1455 20H9.85449C9.01912 20 8.22891 19.6201 7.70703 18.9678L7.0293 18.1211L4.60254 15.0879C4.2125 14.6003 4.00006 13.9945 4 13.3701V9.72168C4 8.99233 4.28994 8.29209 4.80566 7.77637L7.77637 4.80566C8.29209 4.28994 8.99233 4 9.72168 4H14.2783ZM12 16.5C10.404 16.5 9.32519 17.0777 8.61719 17.7051L8.87793 18.0312C9.11515 18.3277 9.47484 18.5 9.85449 18.5H14.1455C14.5252 18.5 14.8849 18.3277 15.1221 18.0312L15.3818 17.7051C14.6738 17.0779 13.5956 16.5 12 16.5ZM9.72168 5.5C9.39016 5.5 9.07133 5.63179 8.83691 5.86621L5.86621 8.83691C5.63179 9.07133 5.5 9.39016 5.5 9.72168V13.3701C5.50006 13.6537 5.5964 13.9289 5.77344 14.1504L7.68066 16.5332C8.61836 15.7232 10.0169 15 12 15C13.9827 15 15.3807 15.7234 16.3184 16.5332L18.2266 14.1504C18.4036 13.9289 18.4999 13.6537 18.5 13.3701V9.72168C18.5 9.39016 18.3682 9.07133 18.1338 8.83691L15.1631 5.86621C14.9287 5.63179 14.6098 5.5 14.2783 5.5H9.72168ZM12 7C13.6569 7 15 8.34315 15 10C15 11.6569 13.6569 13 12 13C10.3431 13 9 11.6569 9 10C9 8.34315 10.3431 7 12 7ZM12 8.5C11.1716 8.5 10.5 9.17157 10.5 10C10.5 10.8284 11.1716 11.5 12 11.5C12.8284 11.5 13.5 10.8284 13.5 10C13.5 9.17157 12.8284 8.5 12 8.5Z" fill="black"/>
</svg>
