<svg width="24" height="24" viewBox="0 0 24 24" fill="none" xmlns="http://www.w3.org/2000/svg">
<path d="M12 4C15.3137 4 18 6.68629 18 10C18 11.7961 17.2095 13.4063 15.959 14.5059C15.968 14.5322 15.9762 14.5591 15.9824 14.5869L16.9824 19.0869C17.0415 19.353 16.9511 19.6308 16.7471 19.8115C16.5431 19.9921 16.2569 20.0477 16 19.957L12 18.5449L8 19.957C7.7431 20.0477 7.45691 19.9921 7.25293 19.8115C7.04894 19.6308 6.95845 19.353 7.01758 19.0869L8.01758 14.5869C8.02375 14.5592 8.03105 14.5321 8.04004 14.5059C6.78986 13.4063 6 11.7958 6 10C6 6.68629 8.68629 4 12 4ZM14.624 15.3955C13.8312 15.7818 12.9413 16 12 16C11.0581 16 10.1672 15.7823 9.37402 15.3955L8.77539 18.0918L11.75 17.043L11.874 17.0107C11.9992 16.9894 12.1289 17.0002 12.25 17.043L15.2236 18.0918L14.624 15.3955ZM12 5.5C9.51472 5.5 7.5 7.51472 7.5 10C7.5 12.4853 9.51472 14.5 12 14.5C14.4853 14.5 16.5 12.4853 16.5 10C16.5 7.51472 14.4853 5.5 12 5.5Z" fill="black"/>
</svg>
