<svg width="24" height="24" viewBox="0 0 24 24" fill="none" xmlns="http://www.w3.org/2000/svg">
<g clip-path="url(#clip0_4152_809)">
<path fill-rule="evenodd" clip-rule="evenodd" d="M16.9453 4.06449C17.1772 3.96145 17.4454 3.98301 17.6582 4.12113C17.8711 4.25946 18 4.49617 18 4.75004V13.25C18 13.5039 17.8711 13.7406 17.6582 13.8789C17.4454 14.0171 17.1772 14.0386 16.9453 13.9356L16.9316 13.9297C16.9186 13.9242 16.8975 13.9151 16.8682 13.9034C16.8089 13.8797 16.7164 13.8441 16.5938 13.8008C16.3484 13.7142 15.9806 13.5963 15.5059 13.4776C14.5551 13.2399 13.1789 13 11.5 13H11V19.25C11 19.6642 10.6642 20 10.25 20C9.83579 20 9.5 19.6642 9.5 19.25V13H8.5V19.25C8.5 19.6642 8.16421 20 7.75 20C7.33579 20 7 19.6642 7 19.25V13H6.75C6.33579 13 6 12.6642 6 12.25V5.75004C6.00002 5.33584 6.3358 5.00004 6.75 5.00004H11.5C13.179 5.00004 14.5551 4.76018 15.5059 4.5225C15.9806 4.4038 16.3484 4.28584 16.5938 4.19925C16.7164 4.15596 16.8089 4.1204 16.8682 4.09672C16.8975 4.08499 16.9186 4.07584 16.9316 4.07035L16.9453 4.06449ZM34.25 15.5C34.6642 15.5 35 15.8358 35 16.25C35 16.6642 34.6642 17 34.25 17H25.75C25.3358 17 25 16.6642 25 16.25C25 15.8358 25.3358 15.5 25.75 15.5H34.25ZM15.8691 5.97757C15.7517 6.00693 15.6285 6.03555 15.5 6.06449V11.9346C15.6286 11.9636 15.7517 11.9931 15.8691 12.0225C16.1017 12.0806 16.3126 12.1387 16.5 12.1944V5.80472C16.3126 5.86042 16.1018 5.91941 15.8691 5.97757ZM14 6.33207C13.26 6.43185 12.4213 6.50004 11.5 6.50004H7.5V11.5H11.5C12.4213 11.5 13.2601 11.5673 14 11.667V6.33207Z" fill="black"/>
</g>
<defs>
<clipPath id="clip0_4152_809">
<rect width="24" height="24" fill="white"/>
</clipPath>
</defs>
</svg>
