<svg width="24" height="24" viewBox="0 0 24 24" fill="none" xmlns="http://www.w3.org/2000/svg">
<path fill-rule="evenodd" clip-rule="evenodd" d="M10.7305 5.20896C10.9472 5.00099 11.2675 4.94193 11.5439 5.05955C11.8205 5.17729 11.9999 5.44943 12 5.74998V8.99998H18.25C19.2164 8.99998 19.9998 9.78363 20 10.75V13.25C20 14.2165 19.2165 15 18.25 15H12V18.25C12 18.5506 11.8205 18.8226 11.5439 18.9404C11.2675 19.0581 10.9472 18.9991 10.7305 18.791L4.23047 12.541C4.08351 12.3996 4 12.2039 4 12C4.00009 11.7961 4.08349 11.6003 4.23047 11.459L10.7305 5.20896ZM5.83203 12L10.5 16.4883V14.25C10.5002 13.8359 10.8359 13.5 11.25 13.5H18.25C18.3881 13.5 18.5 13.3881 18.5 13.25V10.75C18.4998 10.6121 18.388 10.5 18.25 10.5H11.25C10.8358 10.5 10.5 10.1642 10.5 9.74998V7.5117L5.83203 12Z" fill="black"/>
</svg>
