<svg width="24" height="24" viewBox="0 0 24 24" fill="none" xmlns="http://www.w3.org/2000/svg">
<path d="M12.25 4C13.7426 4 14.9537 5.18927 14.9951 6.67188C17.3626 7.79438 19 10.2058 19 13V18C19 19.1046 18.1046 20 17 20H7C5.89543 20 5 19.1046 5 18V13C5 10.2061 6.63687 7.79455 9.00391 6.67188C9.04531 5.18926 10.2574 4 11.75 4H12.25ZM12 7.5C11.4799 7.5 10.9769 7.5731 10.5 7.70801V7.75H10.3555C8.12123 8.44915 6.5 10.5353 6.5 13V18C6.5 18.2761 6.72386 18.5 7 18.5H17C17.2761 18.5 17.5 18.2761 17.5 18V13C17.5 10.5353 15.8788 8.44915 13.6445 7.75H13.5V7.70801C13.0231 7.5731 12.5201 7.5 12 7.5ZM15 15H9V13.5H15V15ZM11.75 5.5C11.2862 5.5 10.8818 5.7528 10.666 6.12793C11.0979 6.04458 11.5438 6 12 6C12.4559 6 12.9014 6.0447 13.333 6.12793C13.1172 5.75304 12.7136 5.5 12.25 5.5H11.75Z" fill="black"/>
</svg>
