<svg width="24" height="24" viewBox="0 0 24 24" fill="none" xmlns="http://www.w3.org/2000/svg">
<path fill-rule="evenodd" clip-rule="evenodd" d="M15.7195 4.21964C16.0123 3.92677 16.4871 3.9268 16.78 4.21964C17.0729 4.51254 17.0729 4.9873 16.78 5.28019L15.2888 6.77043L17.3786 9.0341L18.8523 8.11418C19.2035 7.89467 19.6659 8.00131 19.8855 8.35246C20.105 8.70368 19.9984 9.16611 19.6472 9.38566L17.9997 10.415V13.5839L19.6472 14.6142C19.9984 14.8337 20.105 15.2962 19.8855 15.6474C19.6659 15.9985 19.2035 16.1052 18.8523 15.8857L17.3786 14.9648L15.2888 17.2284L16.78 18.7196C17.0729 19.0125 17.0729 19.4873 16.78 19.7802C16.4871 20.073 16.0123 20.0731 15.7195 19.7802L13.9392 17.9999H10.0603L8.28001 19.7802C7.98711 20.073 7.51234 20.0731 7.21946 19.7802C6.92663 19.4873 6.92663 19.0125 7.21946 18.7196L8.70969 17.2284L6.61985 14.9648L5.14719 15.8857C4.79598 16.1051 4.33353 15.9985 4.11399 15.6474C3.89453 15.2962 4.00116 14.8337 4.35227 14.6142L5.99973 13.5839V10.415L4.35227 9.38566C4.00116 9.1661 3.89453 8.70365 4.11399 8.35246C4.33353 8.0013 4.79598 7.89472 5.14719 8.11418L6.61985 9.0341L8.70969 6.77043L7.21946 5.28019C6.92663 4.98731 6.92663 4.51253 7.21946 4.21964C7.51234 3.92677 7.98711 3.9268 8.28001 4.21964L10.0603 5.99992H13.9392L15.7195 4.21964ZM7.49973 10.2929V13.7069L10.0779 16.4999H13.9216L16.4997 13.7069V10.2929L13.9216 7.49992H10.0779L7.49973 10.2929ZM13.9997 9.99992C15.1043 9.99992 15.9997 10.8953 15.9997 11.9999C15.9997 13.1045 15.1043 13.9999 13.9997 13.9999C12.8952 13.9999 11.9997 13.1045 11.9997 11.9999C11.9997 10.8954 12.8952 9.99997 13.9997 9.99992ZM13.9997 11.4999C13.7236 11.5 13.4997 11.7238 13.4997 11.9999C13.4997 12.276 13.7236 12.4999 13.9997 12.4999C14.2759 12.4999 14.4997 12.2761 14.4997 11.9999C14.4997 11.7238 14.2759 11.4999 13.9997 11.4999Z" fill="black"/>
</svg>
