<svg width="24" height="24" viewBox="0 0 24 24" fill="none" xmlns="http://www.w3.org/2000/svg">
<path fill-rule="evenodd" clip-rule="evenodd" d="M13.3655 5.13886C14.8834 3.62103 17.3438 3.62103 18.8616 5.13886C20.3792 6.65671 20.3794 9.11723 18.8616 10.635L10.6351 18.8615C9.11735 20.3792 6.65683 20.379 5.13898 18.8615C3.62115 17.3437 3.62115 14.8832 5.13898 13.3654L13.3655 5.13886ZM17.8011 6.1994C16.869 5.26736 15.3581 5.26736 14.4261 6.1994L13.8431 6.78241L14.7806 7.71991C15.0732 8.01283 15.0734 8.48767 14.7806 8.78046C14.4878 9.07325 14.013 9.07305 13.72 8.78046L12.7825 7.84296L10.8431 9.78241L11.7806 10.7199C12.0732 11.0128 12.0734 11.4877 11.7806 11.7805C11.4878 12.0733 11.013 12.0731 10.72 11.7805L9.78254 10.843L7.84308 12.7824L8.78058 13.7199C9.07317 14.0128 9.07337 14.4877 8.78058 14.7805C8.48779 15.0733 8.01295 15.0731 7.72003 14.7805L6.78253 13.843L6.19953 14.426C5.26749 15.358 5.26749 16.8689 6.19953 17.801C7.13159 18.7327 8.64259 18.7329 9.57453 17.801L17.8011 9.5744C18.733 8.64247 18.7328 7.13147 17.8011 6.1994Z" fill="black"/>
</svg>
