<svg width="24" height="24" viewBox="0 0 24 24" fill="none" xmlns="http://www.w3.org/2000/svg">
<path d="M11.75 4C12.1642 4 12.5 4.33579 12.5 4.75V6H12.75C14.6612 6 16 7.55993 16 9.375C16 10.4166 15.5582 11.373 14.8213 12C15.5582 12.627 16 13.5834 16 14.625C16 16.4401 14.6612 18 12.75 18H12.5V19.25C12.5 19.6642 12.1642 20 11.75 20C11.3358 20 11 19.6642 11 19.25V18H8.75C8.33579 18 8 17.6642 8 17.25V6.75C8 6.33579 8.33579 6 8.75 6H11V4.75C11 4.33579 11.3358 4 11.75 4ZM9.5 16.5H11V12.75H9.5V16.5ZM12.5 16.5H12.75C13.7383 16.5 14.5 15.7094 14.5 14.625C14.5 13.5406 13.7383 12.75 12.75 12.75H12.5V16.5ZM9.5 11.25H11V7.5H9.5V11.25ZM12.5 11.25H12.75C13.7383 11.25 14.5 10.4594 14.5 9.375C14.5 8.29058 13.7383 7.5 12.75 7.5H12.5V11.25Z" fill="black"/>
</svg>
