<svg width="24" height="24" viewBox="0 0 24 24" fill="none" xmlns="http://www.w3.org/2000/svg">
<path d="M9.25 12C9.66421 12 10 12.3358 10 12.75C10 13.1642 9.66421 13.5 9.25 13.5H8.75C7.67935 13.5 6.78513 14.2482 6.55762 15.25H8.25C8.66421 15.25 9 15.5858 9 16C9 16.4142 8.66421 16.75 8.25 16.75H6.55762C6.78513 17.7518 7.67935 18.5 8.75 18.5H9.25C9.66421 18.5 10 18.8358 10 19.25C10 19.6642 9.66421 20 9.25 20H8.75C6.84851 20 5.27869 18.5846 5.03418 16.75H4.75C4.33579 16.75 4 16.4142 4 16C4 15.5858 4.33579 15.25 4.75 15.25H5.03418C5.27869 13.4154 6.84851 12 8.75 12H9.25ZM12.75 4C12.9489 4 13.1396 4.07907 13.2803 4.21973L18.7803 9.71973C18.9209 9.86038 19 10.0511 19 10.25V17.25C19 18.7688 17.7688 20 16.25 20H12.75C12.3358 20 12 19.6642 12 19.25C12 18.8358 12.3358 18.5 12.75 18.5H16.25C16.9404 18.5 17.5 17.9404 17.5 17.25V11H14.75C13.2312 11 12 9.76878 12 8.25V5.5H7.75C7.05964 5.5 6.5 6.05964 6.5 6.75V10.25C6.5 10.6642 6.16421 11 5.75 11C5.33579 11 5 10.6642 5 10.25V6.75C5 5.23122 6.23122 4 7.75 4H12.75ZM13.5 8.25C13.5 8.94036 14.0596 9.5 14.75 9.5H16.4395L13.5 6.56055V8.25Z" fill="black"/>
</svg>
