<svg width="24" height="24" viewBox="0 0 24 24" fill="none" xmlns="http://www.w3.org/2000/svg">
<path d="M12 4C16.4183 4 20 7.58172 20 12C20 16.4183 16.4183 20 12 20C7.58172 20 4 16.4183 4 12C4 7.58172 7.58172 4 12 4ZM11.25 5.54395C9.80252 5.71028 8.5 6.35143 7.50195 7.30859C9.01516 8.23341 10 10.0097 10 12C10 13.9901 9.01491 15.7655 7.50195 16.6904C8.50004 17.6478 9.80233 18.2887 11.25 18.4551V5.54395ZM12.75 18.4551C14.1974 18.2887 15.4991 17.6476 16.4971 16.6904C14.9845 15.7654 14 13.9898 14 12C14 10.01 14.9843 8.23354 16.4971 7.30859C15.4991 6.3517 14.1972 5.71025 12.75 5.54395V18.4551ZM6.53418 8.4834C5.88051 9.49729 5.5 10.704 5.5 12C5.5 13.2957 5.88078 14.5019 6.53418 15.5156C7.6618 14.9261 8.5 13.6022 8.5 12C8.5 10.3976 7.662 9.07287 6.53418 8.4834ZM17.4648 8.4834C16.3374 9.07307 15.5 10.398 15.5 12C15.5 13.6018 16.3376 14.9258 17.4648 15.5156C18.1184 14.5018 18.5 13.2959 18.5 12C18.5 10.7038 18.1187 9.49738 17.4648 8.4834Z" fill="black"/>
</svg>
