<svg width="24" height="24" viewBox="0 0 24 24" fill="none" xmlns="http://www.w3.org/2000/svg">
<path d="M17.3916 4C18.2554 4 18.9907 4.63067 19.1221 5.48438L19.9912 11.1357C19.992 11.1409 19.9915 11.1462 19.9922 11.1514C19.9944 11.1678 19.996 11.1844 19.9971 11.2012C19.9976 11.21 19.9978 11.2187 19.998 11.2275C19.9983 11.235 20 11.2425 20 11.25V17.25C20 18.7688 18.7688 20 17.25 20H6.75C5.23122 20 4 18.7688 4 17.25V11.25C4 11.2425 4.00076 11.235 4.00098 11.2275C4.00124 11.2188 4.00138 11.21 4.00195 11.2012C4.00303 11.1844 4.00467 11.1678 4.00684 11.1514C4.00752 11.1462 4.00799 11.1409 4.00879 11.1357L4.87793 5.48438C5.00927 4.63067 5.74465 4 6.6084 4H17.3916ZM5.5 17.25C5.5 17.9404 6.05964 18.5 6.75 18.5H17.25C17.9404 18.5 18.5 17.9404 18.5 17.25V12H5.5V17.25ZM6.6084 5.5C6.48501 5.5 6.37911 5.58996 6.36035 5.71191L5.62402 10.5H18.376L17.6396 5.71191C17.6209 5.58996 17.515 5.5 17.3916 5.5H6.6084ZM14 7C14.4142 7 14.75 7.33579 14.75 7.75C14.75 8.16421 14.4142 8.5 14 8.5H10C9.58579 8.5 9.25 8.16421 9.25 7.75C9.25 7.33579 9.58579 7 10 7H14Z" fill="black"/>
</svg>
