<svg width="24" height="24" viewBox="0 0 24 24" fill="none" xmlns="http://www.w3.org/2000/svg">
<path d="M8 4C9.65685 4 11 5.34315 11 7C11 8.65685 9.65685 10 8 10C7.91145 10 7.82391 9.99482 7.7373 9.9873L19.6895 18.6426C19.9528 18.8333 20.0641 19.1721 19.9639 19.4814C19.8636 19.7907 19.5751 20 19.25 20H6.75C5.23122 20 4 18.7688 4 17.25V8.75C4 8.46818 4.15818 8.21017 4.40918 8.08203C4.66005 7.95403 4.96128 7.9775 5.18945 8.14258L5.24121 8.17969C5.08616 7.81755 5 7.41887 5 7C5 5.34315 6.34315 4 8 4ZM5.5 17.25C5.5 17.9404 6.05964 18.5 6.75 18.5H16.9355L5.5 10.2188V17.25ZM8 5.5C7.17157 5.5 6.5 6.17157 6.5 7C6.5 7.82843 7.17157 8.5 8 8.5C8.82843 8.5 9.5 7.82843 9.5 7C9.5 6.17157 8.82843 5.5 8 5.5Z" fill="black"/>
</svg>
