<svg width="24" height="24" viewBox="0 0 24 24" fill="none" xmlns="http://www.w3.org/2000/svg">
<path fill-rule="evenodd" clip-rule="evenodd" d="M4.40918 8.08184C4.66004 7.95385 4.96129 7.97733 5.18945 8.14238L14.0527 14.5604C14.0184 14.3787 14 14.1914 14 13.9998C14 12.343 15.3432 10.9998 17 10.9998C18.6568 10.9998 20 12.343 20 13.9998C20 15.5259 18.8603 16.784 17.3857 16.9734L19.6895 18.6424C19.9528 18.8331 20.0641 19.172 19.9639 19.4813C19.8636 19.7905 19.5751 19.9998 19.25 19.9998H6.75C5.23122 19.9998 4 18.7686 4 17.2498V8.74981C4.00002 8.46801 4.1582 8.20997 4.40918 8.08184ZM5.5 17.2498C5.5 17.9402 6.05964 18.4998 6.75 18.4998H16.9355L5.5 10.2186V17.2498ZM17 12.4998C16.1716 12.4998 15.5 13.1714 15.5 13.9998C15.5 14.8282 16.1716 15.4998 17 15.4998C17.8284 15.4998 18.5 14.8282 18.5 13.9998C18.5 13.1714 17.8284 12.4998 17 12.4998ZM6.13965 6.31426C6.38034 5.97733 6.84852 5.89897 7.18555 6.13945L10.6855 8.63945C11.0225 8.88014 11.1008 9.34832 10.8604 9.68535C10.6197 10.0223 10.1515 10.1007 9.81445 9.86016L6.31445 7.36016C5.97751 7.11946 5.89914 6.65129 6.13965 6.31426ZM12.1396 6.31426C12.3803 5.97733 12.8485 5.89897 13.1855 6.13945L16.6855 8.63945C17.0225 8.88014 17.1008 9.34832 16.8604 9.68535C16.6197 10.0223 16.1515 10.1007 15.8145 9.86016L12.3145 7.36016C11.9775 7.11946 11.8991 6.65129 12.1396 6.31426Z" fill="black"/>
</svg>
