<svg width="24" height="24" viewBox="0 0 24 24" fill="none" xmlns="http://www.w3.org/2000/svg">
<path d="M12 4C13.7572 4 15.4996 4.93901 16.7803 6.21973C18.061 7.50044 19 9.24277 19 11C19 12.7032 18.2917 14.3674 17.2842 15.7148C16.4847 16.784 15.4635 17.6964 14.376 18.2969C14.6842 19.0761 14.1249 19.9998 13.21 20H10.79C9.87523 19.9998 9.31511 19.076 9.62305 18.2969C8.53579 17.6964 7.51509 16.7837 6.71582 15.7148C5.70827 14.3674 5 12.7032 5 11C5 9.24277 5.93901 7.50044 7.21973 6.21973C8.50044 4.93901 10.2428 4 12 4ZM12 5.5C10.7572 5.5 9.37456 6.18599 8.28027 7.28027C7.18599 8.37456 6.5 9.75723 6.5 11C6.5 12.2968 7.04716 13.6541 7.91699 14.8174C8.7874 15.9813 9.9299 16.881 11.0195 17.2998C11.2426 17.3857 11.4111 17.573 11.4736 17.8037C11.5362 18.0346 11.4854 18.2819 11.3359 18.4688L11.3105 18.5H12.6895L12.6641 18.4688C12.5146 18.2819 12.4638 18.0346 12.5264 17.8037C12.5889 17.573 12.7574 17.3857 12.9805 17.2998C14.0701 16.881 15.2126 15.9813 16.083 14.8174C16.9528 13.6541 17.5 12.2968 17.5 11C17.5 9.75723 16.814 8.37456 15.7197 7.28027C14.6254 6.18599 13.2428 5.5 12 5.5Z" fill="#141414"/>
</svg>
