<svg width="24" height="24" viewBox="0 0 24 24" fill="none" xmlns="http://www.w3.org/2000/svg">
<path d="M16 4C17.4933 4 18.8125 5.23022 18.6396 6.82715C18.5521 7.63575 18.396 8.55365 18.1162 9.41895C17.9387 9.96783 17.7027 10.5173 17.3887 11.0107C17.5863 11.1328 17.7943 11.2795 17.9785 11.4502C18.5591 11.9884 19 12.7918 19 14C19 15.1589 18.6373 16.0965 18.2803 16.7393C18.1014 17.0611 17.9221 17.3136 17.7842 17.4883C17.7151 17.5757 17.6562 17.6445 17.6123 17.6934C17.5904 17.7178 17.5714 17.7374 17.5576 17.752C17.551 17.7589 17.5455 17.7649 17.541 17.7695L17.5303 17.7803C17.3777 17.9329 17.1665 18.012 16.9512 17.998C16.7359 17.984 16.5368 17.878 16.4053 17.707L14.6387 15.4102C14.3432 15.9119 13.9196 16.5284 13.3301 17.1436C11.9509 18.5827 9.70052 20 6.25 20V19.25L6.24902 20H6.23535C6.2291 19.9999 6.22098 19.9993 6.21191 19.999C6.19361 19.9985 6.16934 19.9978 6.14062 19.9961C6.08301 19.9927 6.00442 19.9865 5.91211 19.9736C5.73107 19.9485 5.47677 19.8964 5.21191 19.7861C4.94749 19.676 4.64068 19.4942 4.39844 19.1914C4.14679 18.8768 4 18.4752 4 18C4 17.1411 4.19587 16.4556 4.6123 15.9482C5.02915 15.4405 5.58139 15.2159 6.07617 15.1055C7.32709 14.8261 8.34445 14.1715 9.13477 13.4482C9.08212 13.3368 9.02248 13.2052 8.95898 13.0566C8.7518 12.5719 8.49937 11.8934 8.33008 11.1318C8.00193 9.65536 7.93359 7.60046 9.49805 6.19238C9.69033 6.01936 9.95842 5.95786 10.207 6.0293C10.4556 6.10077 10.6496 6.29526 10.7207 6.54395L10.7227 6.54883C10.7239 6.55306 10.7258 6.56025 10.7285 6.56934C10.734 6.58781 10.7427 6.61576 10.7539 6.65234C10.7766 6.72614 10.8107 6.83446 10.8555 6.96875C10.9453 7.23807 11.0762 7.60934 11.2432 8.01465C11.4063 8.41081 11.5946 8.81469 11.7979 9.18262C12.1375 8.33954 12.5277 7.33187 12.8203 6.45117C13.2476 5.16542 14.5051 4 16 4ZM11.9072 12.4678C11.6731 12.8271 11.359 13.2668 10.959 13.7246C9.98819 14.8356 8.48083 16.1054 6.40332 16.5693C6.08983 16.6393 5.89727 16.7463 5.77148 16.8994C5.64528 17.0532 5.5 17.3589 5.5 18C5.5 18.1498 5.54071 18.2169 5.57031 18.2539C5.60928 18.3026 5.67771 18.3553 5.78809 18.4014C5.89797 18.4472 6.01902 18.4734 6.11914 18.4873C6.16712 18.494 6.20614 18.4976 6.23047 18.499C6.24045 18.4996 6.24776 18.4989 6.25195 18.499C9.23776 18.4985 11.1118 17.2921 12.248 16.1064C12.8224 15.5071 13.2129 14.9067 13.459 14.459C13.5173 14.3528 13.5662 14.2551 13.6084 14.1689L11.9072 12.4678ZM16.4668 16.7217V16.7227C16.4671 16.7223 16.4678 16.7217 16.4688 16.7207H16.4678L16.4668 16.7217ZM15.0303 13.4697L15.0947 13.543L16.9785 15.9922C17.2429 15.5109 17.5 14.8306 17.5 14C17.5 13.2082 17.2325 12.8033 16.959 12.5498C16.6666 12.2789 16.4 12.1743 16.0645 12H13.5605L15.0303 13.4697ZM9.79199 8.4209C9.56569 9.13317 9.60841 9.96633 9.79492 10.8057C9.91324 11.338 10.0828 11.8311 10.2412 12.2285C10.4626 11.9375 10.642 11.6724 10.7754 11.4561C10.8791 11.2878 10.9554 11.1509 11.0049 11.0586C11.0296 11.0125 11.0484 10.9772 11.0596 10.9551C11.065 10.9442 11.0682 10.9361 11.0703 10.9316L11.0713 10.9297C11.0722 10.9276 11.0732 10.9253 11.0742 10.9229C11.0811 10.907 11.0903 10.884 11.1025 10.8555C10.5684 10.1681 10.1465 9.29012 9.85645 8.58594C9.83367 8.53064 9.81353 8.47481 9.79199 8.4209ZM16 5.5C15.2858 5.5 14.5136 6.11326 14.2441 6.92383C13.9068 7.93912 13.4539 9.09769 13.0889 9.99512C13.0158 10.1746 12.9437 10.3435 12.8789 10.5H15.9131C16.2298 10.1049 16.4881 9.57684 16.6885 8.95703C16.926 8.22247 17.0675 7.41404 17.1484 6.66602C17.2133 6.06663 16.7159 5.5 16 5.5Z" fill="black"/>
</svg>
