<svg width="24" height="24" viewBox="0 0 24 24" fill="none" xmlns="http://www.w3.org/2000/svg">
<path d="M10 4C10.1989 4 10.3896 4.07907 10.5303 4.21973L19.7803 13.4697C19.9209 13.6104 20 13.8011 20 14V15.25C20 17.8734 17.8734 20 15.25 20H14C13.8011 20 13.6104 19.9209 13.4697 19.7803L4.21973 10.5303C4.07907 10.3896 4 10.1989 4 10V8.75C4 6.12665 6.12665 4 8.75 4H10ZM8.75 5.5C6.95507 5.5 5.5 6.95507 5.5 8.75V9.68945L14.3105 18.5H15.25C17.0449 18.5 18.5 17.0449 18.5 15.25V14.3105L9.68945 5.5H8.75ZM10.5264 9.41797C10.8209 9.17766 11.2557 9.19512 11.5303 9.46973L14.5303 12.4697C14.8232 12.7626 14.8232 13.2374 14.5303 13.5303L13.5303 14.5303C13.2374 14.8232 12.7626 14.8232 12.4697 14.5303L9.46973 11.5303C9.17683 11.2374 9.17683 10.7626 9.46973 10.4697L10.4697 9.46973L10.5264 9.41797Z" fill="black"/>
</svg>
