<svg width="24" height="24" viewBox="0 0 24 24" fill="none" xmlns="http://www.w3.org/2000/svg">
<path fill-rule="evenodd" clip-rule="evenodd" d="M13.0558 4.83317C14.1668 3.72223 15.9682 3.72233 17.0793 4.83317L19.1671 6.92106C20.278 8.03207 20.2781 9.83354 19.1671 10.9445L18.1105 12.0002L19.1671 13.0558C20.2781 14.1668 20.278 15.9682 19.1671 17.0793L17.0793 19.1671C15.9682 20.278 14.1668 20.2781 13.0558 19.1671L12.0002 18.1105L10.9445 19.1671C9.83354 20.2781 8.03207 20.278 6.92106 19.1671L4.83317 17.0793C3.72233 15.9682 3.72223 14.1668 4.83317 13.0558L5.88883 11.9992L4.83317 10.9445C3.72223 9.83354 3.72233 8.03207 4.83317 6.92106L6.92106 4.83317C8.03207 3.72233 9.83354 3.72223 10.9445 4.83317L11.9992 5.88883L13.0558 4.83317ZM16.0187 5.89371C15.4935 5.36866 14.6415 5.36856 14.1164 5.89371L12.5382 7.47086C12.5354 7.47377 12.5333 7.47775 12.5304 7.48063C12.5275 7.48356 12.5236 7.48556 12.5207 7.48844L7.48844 12.5207C7.48556 12.5236 7.48356 12.5275 7.48063 12.5304C7.47775 12.5333 7.47377 12.5354 7.47086 12.5382L5.89371 14.1164C5.36856 14.6415 5.36866 15.4935 5.89371 16.0187L7.9816 18.1066C8.50683 18.6317 9.35878 18.6318 9.88395 18.1066L18.1066 9.88395C18.6318 9.35878 18.6317 8.50683 18.1066 7.9816L16.0187 5.89371ZM13.0607 17.05L14.1164 18.1066C14.6415 18.6318 15.4935 18.6317 16.0187 18.1066L18.1066 16.0187C18.6317 15.4935 18.6318 14.6415 18.1066 14.1164L17.05 13.0607L13.0607 17.05ZM9.21988 12.2199C9.51278 11.927 9.98754 11.927 10.2804 12.2199L11.7804 13.7199C12.0733 14.0128 12.0733 14.4875 11.7804 14.7804C11.4875 15.0733 11.0128 15.0733 10.7199 14.7804L9.21988 13.2804C8.92699 12.9875 8.92699 12.5128 9.21988 12.2199ZM12.2199 9.21988C12.5128 8.92699 12.9875 8.92699 13.2804 9.21988L14.7804 10.7199C15.0733 11.0128 15.0733 11.4875 14.7804 11.7804C14.4875 12.0733 14.0128 12.0733 13.7199 11.7804L12.2199 10.2804C11.927 9.98754 11.927 9.51278 12.2199 9.21988ZM9.88395 5.89371C9.35878 5.36856 8.50683 5.36866 7.9816 5.89371L5.89371 7.9816C5.36866 8.50683 5.36856 9.35878 5.89371 9.88395L6.94938 10.9386L10.9386 6.94938L9.88395 5.89371Z" fill="black"/>
</svg>
