<svg width="24" height="24" viewBox="0 0 24 24" fill="none" xmlns="http://www.w3.org/2000/svg">
<path fill-rule="evenodd" clip-rule="evenodd" d="M11.6123 4.10736C11.8896 3.93984 12.2517 3.96799 12.5009 4.19134L19.7509 10.6913C19.9821 10.8987 20.0609 11.2274 19.9502 11.5175C19.8391 11.8078 19.5608 11.9999 19.25 11.9999H19V18.4999H19.25C19.6641 18.4999 19.9998 18.8358 20 19.2499C20 19.6641 19.6642 19.9999 19.25 19.9999H4.74997C4.33577 19.9999 3.99997 19.6641 3.99997 19.2499C4.00011 18.8358 4.33586 18.5 4.74997 18.4999H4.99997V11.9999H4.74997C4.43918 11.9999 4.16084 11.8078 4.04977 11.5175C3.93902 11.2274 4.01779 10.8987 4.24899 10.6913L11.499 4.19134L11.6123 4.10736ZM6.49997 18.4999H8.99997V11.9999H6.49997V18.4999ZM10.5 18.4999H13.5V11.9999H10.5V18.4999ZM15 18.4999H17.5V11.9999H15V18.4999ZM6.71091 10.4999H17.289L12 5.75677L6.71091 10.4999Z" fill="black"/>
</svg>
