<svg width="24" height="24" viewBox="0 0 24 24" fill="none" xmlns="http://www.w3.org/2000/svg">
<path d="M18 19H6V17.5H18V19ZM4.75 5C5.16421 5 5.5 5.33579 5.5 5.75V13.25C5.5 13.6642 5.16421 14 4.75 14C4.33579 14 4 13.6642 4 13.25V5.75C4 5.33579 4.33579 5 4.75 5ZM8.75 5C9.16421 5 9.5 5.33579 9.5 5.75V13.25C9.5 13.6642 9.16421 14 8.75 14C8.33579 14 8 13.6642 8 13.25V5.75C8 5.33579 8.33579 5 8.75 5ZM12.75 5C13.1642 5 13.5 5.33579 13.5 5.75V13.25C13.5 13.6642 13.1642 14 12.75 14C12.3358 14 12 13.6642 12 13.25V5.75C12 5.33579 12.3358 5 12.75 5ZM19.25 5C19.6642 5 20 5.33579 20 5.75V13.25C20 13.6642 19.6642 14 19.25 14C18.8358 14 18.5 13.6642 18.5 13.25V5.75C18.5 5.33579 18.8358 5 19.25 5Z" fill="black"/>
</svg>
