<svg width="24" height="24" viewBox="0 0 24 24" fill="none" xmlns="http://www.w3.org/2000/svg">
<path d="M5.5 17.25C5.5 17.9404 6.05964 18.5 6.75 18.5H8V20H6.75C5.23122 20 4 18.7688 4 17.25V16H5.5V17.25ZM20 17.25C20 18.7688 18.7688 20 17.25 20H16V18.5H17.25C17.9404 18.5 18.5 17.9404 18.5 17.25V16H20V17.25ZM7.75 8.25C8.16421 8.25 8.5 8.58579 8.5 9V15C8.5 15.4142 8.16421 15.75 7.75 15.75C7.33579 15.75 7 15.4142 7 15V9C7 8.58579 7.33579 8.25 7.75 8.25ZM12 8.25C12.4142 8.25 12.75 8.58579 12.75 9V15C12.75 15.4142 12.4142 15.75 12 15.75C11.5858 15.75 11.25 15.4142 11.25 15V9C11.25 8.58579 11.5858 8.25 12 8.25ZM16.25 8.25C16.6642 8.25 17 8.58579 17 9V15C17 15.4142 16.6642 15.75 16.25 15.75C15.8358 15.75 15.5 15.4142 15.5 15V9C15.5 8.58579 15.8358 8.25 16.25 8.25ZM8 5.5H6.75C6.05964 5.5 5.5 6.05964 5.5 6.75V8H4V6.75C4 5.23122 5.23122 4 6.75 4H8V5.5ZM17.25 4C18.7688 4 20 5.23122 20 6.75V8H18.5V6.75C18.5 6.05964 17.9404 5.5 17.25 5.5H16V4H17.25Z" fill="black"/>
</svg>
