<svg width="24" height="24" viewBox="0 0 24 24" fill="none" xmlns="http://www.w3.org/2000/svg">
<path fill-rule="evenodd" clip-rule="evenodd" d="M4.27255 9.92974C5.41612 5.66219 9.80281 3.12919 14.0704 4.27252C18.338 5.41603 20.871 9.80273 19.7276 14.0704C18.5841 18.338 14.1974 20.8708 9.92978 19.7276C5.66231 18.584 3.12928 14.1973 4.27255 9.92974ZM13.6827 5.72174C12.2627 5.34131 10.8264 5.46168 9.56162 5.97467C11.252 9.5162 10.1105 13.776 6.87607 15.9981C7.7148 17.0749 8.89752 17.8978 10.3175 18.2784C11.7376 18.6589 13.1737 18.5376 14.4386 18.0245C12.7491 14.4835 13.8897 10.2231 17.1231 8.00103C16.2844 6.92495 15.102 6.10216 13.6827 5.72174ZM17.9044 9.28326C15.3531 11.0852 14.4477 14.4675 15.756 17.3038C16.9512 16.4584 17.8698 15.2072 18.2784 13.6827C18.6871 12.1573 18.5174 10.6135 17.9044 9.28326ZM8.24423 6.69537C7.04883 7.54074 6.13041 8.79271 5.72177 10.3174C5.3132 11.8423 5.48241 13.3859 6.09482 14.7159C8.64715 12.9138 9.55354 9.5322 8.24423 6.69537Z" fill="black"/>
</svg>
