<svg width="24" height="24" viewBox="0 0 24 24" fill="none" xmlns="http://www.w3.org/2000/svg">
<g clip-path="url(#clip0_4152_914)">
<path d="M11.25 4C11.6642 4 12 4.33579 12 4.75V6.25C12 6.66421 11.6642 7 11.25 7C10.8358 7 10.5 6.66421 10.5 6.25V5.5H8.75C8.05964 5.5 7.5 6.05964 7.5 6.75V11H19.25C19.6642 11 20 11.3358 20 11.75V13.25C20 14.8654 19.3323 16.3237 18.2598 17.3682L18.9395 18.9541C19.1026 19.3347 18.9264 19.7762 18.5459 19.9395C18.1653 20.1026 17.7238 19.9264 17.5605 19.5459L17.0215 18.2881C16.1994 18.7413 15.2551 19 14.25 19H9.75C8.74463 19 7.79977 18.7415 6.97754 18.2881L6.43945 19.5459C6.27617 19.9264 5.83471 20.1026 5.4541 19.9395C5.07362 19.7762 4.89743 19.3347 5.06055 18.9541L5.73926 17.3682C4.66698 16.3237 4 14.8651 4 13.25V11.75C4 11.3358 4.33579 11 4.75 11H6V6.75C6 5.23122 7.23122 4 8.75 4H11.25ZM5.5 13.25C5.5 15.5972 7.40279 17.5 9.75 17.5H14.25C16.5972 17.5 18.5 15.5972 18.5 13.25V12.5H5.5V13.25ZM34.25 15.5C34.6642 15.5 35 15.8358 35 16.25C35 16.6642 34.6642 17 34.25 17H25.75C25.3358 17 25 16.6642 25 16.25C25 15.8358 25.3358 15.5 25.75 15.5H34.25Z" fill="black"/>
</g>
<defs>
<clipPath id="clip0_4152_914">
<rect width="24" height="24" fill="white"/>
</clipPath>
</defs>
</svg>
