<svg width="24" height="24" viewBox="0 0 24 24" fill="none" xmlns="http://www.w3.org/2000/svg">
<path fill-rule="evenodd" clip-rule="evenodd" d="M8.25 5.99992C8.66417 5.99992 8.99993 6.33577 9 6.74992C9 7.16413 8.66421 7.49992 8.25 7.49992H6.75C6.05969 7.49992 5.50007 8.05962 5.5 8.74992V15.2499C5.5 15.9403 6.05964 16.4999 6.75 16.4999H7.25C7.66417 16.4999 7.99993 16.8358 8 17.2499C8 17.6641 7.66421 17.9999 7.25 17.9999H6.75C5.23122 17.9999 4 16.7687 4 15.2499V8.74992C4.00007 7.2312 5.23126 5.99992 6.75 5.99992H8.25ZM15.25 5.99992C16.7687 5.99992 17.9999 7.2312 18 8.74992V9.99992C19.1045 9.99992 19.9999 10.8954 20 11.9999C20 13.1045 19.1046 13.9999 18 13.9999V15.2499C18 16.7687 16.7688 17.9999 15.25 17.9999H13.75C13.3358 17.9999 13 17.6641 13 17.2499C13.0001 16.8358 13.3358 16.4999 13.75 16.4999H15.25C15.9404 16.4999 16.5 15.9403 16.5 15.2499V8.74992C16.4999 8.05962 15.9403 7.49992 15.25 7.49992H14.75C14.3358 7.49992 14 7.16413 14 6.74992C14.0001 6.33577 14.3358 5.99992 14.75 5.99992H15.25ZM11.0986 6.37785C11.3041 6.01834 11.7625 5.89319 12.1221 6.09855C12.4816 6.30402 12.6067 6.76238 12.4014 7.12199L10.043 11.2499H13.25C13.5173 11.2499 13.7642 11.3928 13.8984 11.6239C14.0324 11.8551 14.0338 12.14 13.9014 12.372L10.9014 17.622C10.6959 17.9816 10.2376 18.1067 9.87793 17.9013C9.51837 17.6958 9.39322 17.2375 9.59863 16.8779L11.957 12.7499H8.75C8.48265 12.7499 8.23575 12.6071 8.10156 12.3759C7.96759 12.1448 7.96611 11.8598 8.09863 11.6279L11.0986 6.37785ZM18 12.4999C18.2761 12.4999 18.5 12.2761 18.5 11.9999C18.4999 11.7238 18.2761 11.4999 18 11.4999V12.4999Z" fill="black"/>
</svg>
