<svg width="24" height="24" viewBox="0 0 24 24" fill="none" xmlns="http://www.w3.org/2000/svg">
<path d="M15.25 6C16.7688 6 18 7.23122 18 8.75V10C19.1046 10 20 10.8954 20 12C20 13.1046 19.1046 14 18 14V15.25C18 16.7688 16.7688 18 15.25 18H6.75C5.23122 18 4 16.7688 4 15.25V8.75C4 7.23122 5.23122 6 6.75 6H15.25ZM6.75 7.5C6.05964 7.5 5.5 8.05964 5.5 8.75V15.25C5.5 15.9404 6.05964 16.5 6.75 16.5H15.25C15.9404 16.5 16.5 15.9404 16.5 15.25V8.75C16.5 8.05964 15.9404 7.5 15.25 7.5H6.75ZM8.5 15H7V9H8.5V15ZM11.25 9C11.6642 9 12 9.33579 12 9.75V14.25C12 14.6642 11.6642 15 11.25 15C10.8358 15 10.5 14.6642 10.5 14.25V9.75C10.5 9.33579 10.8358 9 11.25 9ZM18 12.5C18.2761 12.5 18.5 12.2761 18.5 12C18.5 11.7239 18.2761 11.5 18 11.5V12.5Z" fill="black"/>
</svg>
