<svg width="24" height="24" viewBox="0 0 24 24" fill="none" xmlns="http://www.w3.org/2000/svg">
<path d="M7.71973 15.2197C8.01262 14.9268 8.48738 14.9268 8.78027 15.2197C9.07317 15.5126 9.07317 15.9874 8.78027 16.2803L7.56055 17.5L8.78027 18.7197C9.07317 19.0126 9.07317 19.4874 8.78027 19.7803C8.48738 20.0732 8.01262 20.0732 7.71973 19.7803L6.5 18.5605L5.28027 19.7803C4.98738 20.0732 4.51262 20.0732 4.21973 19.7803C3.92683 19.4874 3.92683 19.0126 4.21973 18.7197L5.43945 17.5L4.21973 16.2803C3.92683 15.9874 3.92683 15.5126 4.21973 15.2197C4.51262 14.9268 4.98738 14.9268 5.28027 15.2197L6.5 16.4395L7.71973 15.2197ZM15.25 6C16.7688 6 18 7.23122 18 8.75V10C19.1046 10 20 10.8954 20 12C20 13.1046 19.1046 14 18 14V15.25C18 16.7688 16.7688 18 15.25 18H11.75C11.3358 18 11 17.6642 11 17.25C11 16.8358 11.3358 16.5 11.75 16.5H15.25C15.9404 16.5 16.5 15.9404 16.5 15.25V8.75C16.5 8.05964 15.9404 7.5 15.25 7.5H6.75C6.05964 7.5 5.5 8.05964 5.5 8.75V12.25C5.5 12.6642 5.16421 13 4.75 13C4.33579 13 4 12.6642 4 12.25V8.75C4 7.23122 5.23122 6 6.75 6H15.25ZM18 12.5C18.2762 12.5 18.5 12.2762 18.5 12C18.5 11.7238 18.2762 11.5 18 11.5V12.5Z" fill="black"/>
</svg>
