<svg width="24" height="24" viewBox="0 0 24 24" fill="none" xmlns="http://www.w3.org/2000/svg">
<path d="M19.25 7C19.6642 7 20 7.33579 20 7.75C20 10.4966 18.2174 12.9422 15.6602 14.168L17.9268 18.9277C18.1048 19.3017 17.9462 19.7487 17.5723 19.9268C17.1983 20.1048 16.7513 19.9462 16.5732 19.5723L16.0625 18.5H8.93457C8.71235 19.3623 7.93171 20 7 20C5.89543 20 5 19.1046 5 18C5 16.8954 5.89543 16 7 16C7.05296 16 7.1053 16.0038 7.15723 16.0078L8.12891 14.0635C5.68513 12.8065 4 10.4204 4 7.75C4 7.33579 4.33579 7 4.75 7H19.25ZM7 17.5C6.72386 17.5 6.5 17.7239 6.5 18C6.5 18.2761 6.72386 18.5 7 18.5C7.27614 18.5 7.5 18.2761 7.5 18C7.5 17.7239 7.27614 17.5 7 17.5ZM8.49805 16.6787C8.58554 16.7778 8.6638 16.8849 8.73047 17H15.3477L14.25 14.6943C13.5334 14.8913 12.7783 15 12 15C11.1392 15 10.3065 14.8678 9.52344 14.6289L8.49805 16.6787ZM5.56152 8.5C5.98921 11.1731 8.65193 13.5 12 13.5C15.3481 13.5 18.0108 11.1731 18.4385 8.5H5.56152ZM9 4C9.41421 4 9.75 4.33579 9.75 4.75V5.25C9.75 5.66421 9.41421 6 9 6C8.58579 6 8.25 5.66421 8.25 5.25V4.75C8.25 4.33579 8.58579 4 9 4ZM12 4C12.4142 4 12.75 4.33579 12.75 4.75V5.25C12.75 5.66421 12.4142 6 12 6C11.5858 6 11.25 5.66421 11.25 5.25V4.75C11.25 4.33579 11.5858 4 12 4ZM15 4C15.4142 4 15.75 4.33579 15.75 4.75V5.25C15.75 5.66421 15.4142 6 15 6C14.5858 6 14.25 5.66421 14.25 5.25V4.75C14.25 4.33579 14.5858 4 15 4Z" fill="black"/>
</svg>
