<svg width="24" height="24" viewBox="0 0 24 24" fill="none" xmlns="http://www.w3.org/2000/svg">
<path fill-rule="evenodd" clip-rule="evenodd" d="M19.25 5C19.6642 5.00001 20 5.33579 20 5.75C20 6.16421 19.6642 6.49999 19.25 6.5C18.3978 6.5 17.4506 6.76704 16.6758 7.0625C16.7761 7.13546 16.8784 7.2138 16.9805 7.29883C17.846 8.02018 18.75 9.21432 18.75 11C18.75 11.4142 18.4142 11.75 18 11.75C17.5858 11.75 17.25 11.4142 17.25 11C17.25 9.78583 16.6539 8.97983 16.0195 8.45117C15.7071 8.19084 15.3917 8.00478 15.1504 7.88281C13.8747 9.15013 13.4897 10.6526 13.4375 11.9062C13.4091 12.5879 13.4802 13.1874 13.5586 13.6152C13.5976 13.8281 13.6382 13.9962 13.668 14.1084C13.673 14.1272 13.6774 14.1445 13.6816 14.1602C15.2756 14.4735 16.4683 15.202 17.3066 15.9355C17.8583 16.4183 18.2554 16.9019 18.5166 17.2676C18.6474 17.4507 18.7451 17.6055 18.8115 17.7178C18.8447 17.7738 18.8706 17.8192 18.8887 17.8525C18.8977 17.8692 18.9048 17.8832 18.9102 17.8936C18.9128 17.8986 18.9152 17.9028 18.917 17.9062C18.9178 17.9079 18.9183 17.9098 18.9189 17.9111L18.9199 17.9131L18.9209 17.9141C18.9207 17.9145 18.9085 17.9207 18.4727 18.1387L18.9209 17.915C19.1058 18.2854 18.9553 18.7357 18.585 18.9209C18.2155 19.1054 17.7671 18.9562 17.581 18.5879C17.5809 18.5876 17.5805 18.5868 17.5801 18.5859L17.5791 18.585V18.584C17.5774 18.5807 17.5742 18.5755 17.5703 18.5684C17.5606 18.5505 17.5439 18.5209 17.5205 18.4814C17.4737 18.4024 17.3993 18.2835 17.2959 18.1387C17.0883 17.8481 16.7665 17.4565 16.3184 17.0645C15.429 16.2863 14.0363 15.5 12 15.5C9.96371 15.5 8.57104 16.2863 7.68164 17.0645C7.23353 17.4565 6.91167 17.8481 6.7041 18.1387C6.60065 18.2835 6.5263 18.4024 6.47949 18.4814C6.45613 18.5209 6.4394 18.5505 6.42968 18.5684C6.42547 18.5761 6.4216 18.5817 6.41992 18.585V18.5879H6.41894L6.38085 18.6543C6.17696 18.9735 5.76142 19.0938 5.41503 18.9209C5.04468 18.7357 4.89416 18.2854 5.0791 17.915L5.52734 18.1387C5.09422 17.922 5.07943 17.9146 5.0791 17.9141L5.08007 17.9131L5.08105 17.9111C5.0817 17.9098 5.08215 17.9079 5.083 17.9062C5.08477 17.9028 5.0872 17.8986 5.08984 17.8936C5.09523 17.8832 5.10226 17.8692 5.11132 17.8525C5.12942 17.8192 5.1553 17.7738 5.18847 17.7178C5.25491 17.6055 5.35264 17.4507 5.48339 17.2676C5.74456 16.9019 6.14168 16.4183 6.69335 15.9355C7.80396 14.9638 9.5364 14 12 14C12.0356 14 12.0711 14.0016 12.1064 14.002C12.099 13.9641 12.0904 13.9251 12.083 13.8848C11.9896 13.3751 11.9044 12.6619 11.9385 11.8438C11.9789 10.8727 12.1909 9.74295 12.7598 8.63477C11.5064 9.18377 10.137 9.9235 9.28027 10.7803C8.98738 11.0732 8.51262 11.0732 8.21972 10.7803C7.92683 10.4874 7.92683 10.0126 8.21972 9.71973C9.32594 8.61352 10.9999 7.75521 12.3291 7.18555C12.4995 7.11251 12.6657 7.04321 12.8262 6.97852C11.8649 6.72731 10.5094 6.5 8.74999 6.5C8.33578 6.5 7.99999 6.16421 7.99999 5.75C7.99999 5.33579 8.33578 5 8.74999 5C10.9255 5 12.5606 5.32429 13.666 5.65723C14.2183 5.82357 14.6378 5.99164 14.9248 6.12207C14.9506 6.13379 14.9744 6.14712 14.998 6.1582C15.0167 6.1491 15.0358 6.13949 15.0557 6.12988C15.3124 6.00565 15.6759 5.84002 16.1055 5.6748C16.9499 5.35004 18.1138 5 19.25 5Z" fill="black"/>
</svg>
