<svg width="24" height="24" viewBox="0 0 24 24" fill="none" xmlns="http://www.w3.org/2000/svg">
<path fill-rule="evenodd" clip-rule="evenodd" d="M12 4C15.1756 4.00004 18 6.82438 18 10C18 10.3185 17.7986 10.6026 17.498 10.708C17.1989 10.8128 16.8662 10.7179 16.667 10.4717C16.6666 10.4712 16.6658 10.4707 16.665 10.4697C16.6617 10.4658 16.6547 10.4577 16.6445 10.4463C16.6238 10.4231 16.5889 10.386 16.542 10.3398C16.4475 10.2469 16.3053 10.1192 16.1211 9.99219C15.7497 9.73609 15.2399 9.50002 14.625 9.5C14.0101 9.5 13.5003 9.7361 13.1289 9.99219C12.9698 10.1019 12.8428 10.2129 12.75 10.3008V14.0254C15.5302 14.1979 17.317 15.3175 18.4199 16.4854C19.0112 17.1114 19.395 17.7382 19.6318 18.2119C19.7504 18.449 19.8335 18.6497 19.8877 18.7949C19.9147 18.8674 19.9344 18.9267 19.9482 18.9697C19.9552 18.9912 19.9608 19.0091 19.9648 19.0225C19.9668 19.029 19.9684 19.0346 19.9697 19.0391C19.9704 19.0413 19.9712 19.0432 19.9717 19.0449V19.0469L19.9727 19.0488L19.9912 19.1348C20.0223 19.3349 19.9707 19.5409 19.8467 19.7041C19.7049 19.8905 19.4842 20 19.25 20H4.75C4.51579 20 4.29515 19.8905 4.15332 19.7041C4.01149 19.5175 3.96461 19.2747 4.02734 19.0488L4.02832 19.0469V19.0449C4.0288 19.0432 4.02963 19.0413 4.03027 19.0391C4.03155 19.0346 4.0332 19.029 4.03515 19.0225C4.03915 19.0091 4.04484 18.9912 4.05175 18.9697C4.06563 18.9267 4.08528 18.8674 4.1123 18.7949C4.16646 18.6497 4.24963 18.449 4.36816 18.2119C4.60502 17.7382 4.98879 17.1114 5.58007 16.4854C6.68304 15.3175 8.46977 14.1979 11.25 14.0254V10.3008C11.1572 10.2129 11.0302 10.1019 10.8711 9.99219C10.4997 9.73609 9.98992 9.50002 9.375 9.5C8.76007 9.5 8.25027 9.7361 7.8789 9.99219C7.69468 10.1192 7.55254 10.2469 7.458 10.3398C7.41105 10.386 7.37621 10.4231 7.35546 10.4463C7.34531 10.4577 7.33831 10.4658 7.33496 10.4697C7.33362 10.4713 7.33312 10.4725 7.333 10.4727V10.4717H7.33203C7.13278 10.7176 6.80093 10.8127 6.50195 10.708C6.20139 10.6026 6 10.3185 6 10C6 6.82436 8.82436 4 12 4ZM12.75 16.25C12.75 16.6642 12.4142 17 12 17C11.5858 17 11.25 16.6642 11.25 16.25V15.5283C8.91773 15.6948 7.50937 16.6258 6.66992 17.5146C6.34707 17.8565 6.10524 18.1998 5.92382 18.5H18.0762C17.8948 18.1998 17.6529 17.8565 17.3301 17.5146C16.4906 16.6258 15.0822 15.6948 12.75 15.5283V16.25ZM12 5.5C10.2421 5.5 8.59311 6.70747 7.87597 8.2998C8.30282 8.12589 8.80553 8 9.375 8C10.385 8.00002 11.1878 8.38895 11.7227 8.75781C11.8239 8.82764 11.916 8.89832 12 8.96582C12.084 8.89832 12.1761 8.82764 12.2773 8.75781C12.8122 8.38895 13.615 8 14.625 8C15.1941 8.00001 15.6964 8.12606 16.123 8.2998C15.4058 6.70766 13.7577 5.50003 12 5.5Z" fill="black"/>
</svg>
