<svg width="24" height="24" viewBox="0 0 24 24" fill="none" xmlns="http://www.w3.org/2000/svg">
<path d="M12 10C14.3193 10 16.1931 10.3222 17.4941 10.6475C18.1446 10.8101 18.6526 10.9739 19.002 11.0986C19.1767 11.161 19.3126 11.2138 19.4062 11.252C19.4526 11.2708 19.4889 11.2858 19.5146 11.2969C19.5276 11.3024 19.5383 11.3072 19.5459 11.3105C19.5494 11.3121 19.5523 11.3134 19.5547 11.3145C19.5559 11.315 19.5577 11.316 19.5586 11.3164H19.5596V11.3174H19.5605C19.8282 11.4391 20 11.706 20 12V19.25C20 19.6642 19.6642 20 19.25 20C18.8358 20 18.5 19.6642 18.5 19.25V19H5.5V19.25C5.5 19.6642 5.16421 20 4.75 20C4.33579 20 4 19.6642 4 19.25V12C4 11.706 4.17183 11.4391 4.43945 11.3174H4.44043V11.3164H4.44141C4.44229 11.316 4.44409 11.315 4.44531 11.3145C4.44766 11.3134 4.45059 11.3121 4.4541 11.3105C4.46169 11.3072 4.47243 11.3024 4.48535 11.2969C4.51108 11.2858 4.54738 11.2708 4.59375 11.252C4.6874 11.2138 4.82334 11.161 4.99805 11.0986C5.3474 10.9739 5.85536 10.8101 6.50586 10.6475C7.80691 10.3222 9.6807 10 12 10ZM12 11.5C9.81944 11.5 8.06808 11.8028 6.86914 12.1025C6.26987 12.2524 5.8088 12.4012 5.50195 12.5107H5.5V17.5H18.5V12.5107H18.498C18.1912 12.4012 17.7301 12.2524 17.1309 12.1025C15.9319 11.8028 14.1806 11.5 12 11.5ZM18.25 4C18.6642 4 19 4.33579 19 4.75V9.25C19 9.66421 18.6642 10 18.25 10C17.8358 10 17.5 9.66421 17.5 9.25V6.5H6.5V9.25C6.5 9.66421 6.16421 10 5.75 10C5.33579 10 5 9.66421 5 9.25V4.75C5 4.33579 5.33579 4 5.75 4C6.16421 4 6.5 4.33579 6.5 4.75V5H17.5V4.75C17.5 4.33579 17.8358 4 18.25 4Z" fill="black"/>
</svg>
