<svg width="24" height="24" viewBox="0 0 24 24" fill="none" xmlns="http://www.w3.org/2000/svg">
<path d="M17.25 4C17.6642 4 18 4.33579 18 4.75V9C18 10.4884 17.3803 11.4072 16.8887 12.2061C16.4133 12.9785 16 13.7087 16 15V18.251C15.9999 19.2182 15.2156 20 14.25 20H9.75C8.7835 20 8 19.2165 8 18.25V15C8 13.7087 7.58669 12.9785 7.11133 12.2061C6.61972 11.4072 6 10.4884 6 9V4.75C6 4.33579 6.33579 4 6.75 4H17.25ZM7.5 8.5V9C7.5 10.0115 7.8804 10.593 8.38867 11.4189C8.91321 12.2713 9.5 13.2915 9.5 15V18.25C9.5 18.3881 9.61193 18.5 9.75 18.5H14.25C14.3889 18.5 14.4999 18.3882 14.5 18.251V15C14.5 13.2915 15.0868 12.2713 15.6113 11.4189C16.1196 10.593 16.5 10.0115 16.5 9V8.5H7.5ZM7.5 7H16.5V5.5H7.5V7Z" fill="black"/>
</svg>
