<svg width="24" height="24" viewBox="0 0 24 24" fill="none" xmlns="http://www.w3.org/2000/svg">
<path fill-rule="evenodd" clip-rule="evenodd" d="M11.9999 4C15.3136 4 17.9999 6.68629 17.9999 10V11.832L19.9286 15.9307C20.0379 16.163 20.0202 16.4356 19.8827 16.6523C19.7451 16.8688 19.5064 17 19.2499 17H15.7323C15.7233 17.0807 15.7103 17.1784 15.6883 17.2881C15.6296 17.5818 15.5113 17.9808 15.2684 18.3857C14.7531 19.2446 13.754 20 11.9999 20C10.2458 20 9.2466 19.2446 8.73131 18.3857C8.48843 17.9808 8.37018 17.5818 8.31139 17.2881C8.28945 17.1784 8.27646 17.0807 8.26745 17H4.74987C4.49332 17 4.25469 16.8688 4.11706 16.6523C3.97949 16.4356 3.96186 16.163 4.07116 15.9307L5.99987 11.832V10C5.99987 6.68629 8.68616 4 11.9999 4ZM9.78405 17C9.81947 17.1739 9.88826 17.3973 10.0184 17.6143C10.2532 18.0054 10.7543 18.5 11.9999 18.5C13.2455 18.5 13.7465 18.0054 13.9813 17.6143C14.1115 17.3973 14.1803 17.1739 14.2157 17H9.78405ZM11.9999 5.5C9.51459 5.5 7.49987 7.51472 7.49987 10V12C7.49987 12.1104 7.47558 12.2195 7.42858 12.3193L5.93151 15.5H18.0682L16.5712 12.3193C16.5242 12.2195 16.4999 12.1104 16.4999 12V10C16.4999 7.51472 14.4852 5.5 11.9999 5.5Z" fill="black"/>
</svg>
