<svg width="24" height="24" viewBox="0 0 24 24" fill="none" xmlns="http://www.w3.org/2000/svg">
<path fill-rule="evenodd" clip-rule="evenodd" d="M18.7197 4.21973C19.0126 3.92683 19.4873 3.92683 19.7802 4.21973C20.0731 4.51262 20.0731 4.98738 19.7802 5.28027L17.9999 7.06055V11.832L19.9287 15.9307C20.038 16.163 20.0203 16.4356 19.8828 16.6523C19.7451 16.8688 19.5065 17 19.2499 17H15.7324C15.7233 17.0807 15.7104 17.1784 15.6884 17.2881C15.6296 17.5818 15.5114 17.9808 15.2685 18.3857C14.7532 19.2446 13.754 20 11.9999 20C10.2459 20 9.24668 19.2446 8.73139 18.3857C8.48851 17.9808 8.37025 17.5818 8.31147 17.2881C8.28952 17.1784 8.27654 17.0807 8.26752 17H8.06049L5.28022 19.7803C4.98732 20.0732 4.51256 20.0732 4.21967 19.7803C3.92678 19.4874 3.92678 19.0126 4.21967 18.7197L18.7197 4.21973ZM9.78412 17C9.81954 17.1739 9.88834 17.3973 10.0185 17.6143C10.2533 18.0054 10.7543 18.5 11.9999 18.5C13.2456 18.5 13.7466 18.0054 13.9814 17.6143C14.1115 17.3973 14.1803 17.1739 14.2158 17H9.78412ZM9.56049 15.5H18.0683L16.5712 12.3193C16.5242 12.2195 16.4999 12.1104 16.4999 12V8.56055L9.56049 15.5ZM12.0869 4.00098C12.1385 4.00208 12.2117 4.00456 12.3017 4.00879C12.4815 4.01724 12.7323 4.03357 13.0165 4.06738C13.5644 4.13256 14.3203 4.2696 14.9335 4.58105C15.3028 4.76865 15.4502 5.22056 15.2626 5.58984C15.075 5.9591 14.6231 6.10651 14.2538 5.91895C13.8828 5.73049 13.3417 5.61744 12.8388 5.55762C12.5978 5.52895 12.3841 5.51401 12.2314 5.50684C12.1554 5.50327 12.0948 5.50183 12.0546 5.50098C12.0348 5.50056 12.02 5.50009 12.0107 5.5C12.006 5.49995 12.0018 5.50001 11.9999 5.5C9.51466 5.5 7.49994 7.51472 7.49994 10V12C7.49994 12.1104 7.47565 12.2195 7.42865 12.3193L6.42865 14.4443C6.25229 14.8191 5.80539 14.98 5.43061 14.8037C5.05584 14.6273 4.8949 14.1804 5.07123 13.8057L5.99994 11.832V10C5.99994 6.68629 8.68623 4 11.9999 4H12.0263C12.0409 4.00015 12.0613 4.00043 12.0869 4.00098Z" fill="black"/>
</svg>
