<svg width="24" height="24" viewBox="0 0 24 24" fill="none" xmlns="http://www.w3.org/2000/svg">
<path fill-rule="evenodd" clip-rule="evenodd" d="M11.9999 4C12.4141 4 12.7499 4.33579 12.7499 4.75C12.7499 5.16421 12.4141 5.5 11.9999 5.5C9.51459 5.5 7.49987 7.51472 7.49987 10V12C7.49987 12.1104 7.47558 12.2195 7.42858 12.3193L5.93151 15.5H18.0702L16.9296 13.0684C16.7539 12.6935 16.9153 12.2473 17.2899 12.0713C17.6649 11.8954 18.1121 12.0566 18.288 12.4316L19.9286 15.9316C20.0375 16.1639 20.0203 16.4358 19.8827 16.6523C19.745 16.8688 19.5064 17 19.2499 17H15.701C15.6976 17.0206 15.6952 17.0419 15.6913 17.0635C15.6346 17.3751 15.5194 17.8011 15.2831 18.2344C15.0445 18.6717 14.6782 19.1218 14.1249 19.46C13.5697 19.7992 12.8683 20 11.9999 20C11.1314 20 10.43 19.7992 9.87487 19.46C9.3215 19.1218 8.95525 18.6717 8.71667 18.2344C8.48035 17.8011 8.36513 17.3751 8.30846 17.0635C8.30454 17.0419 8.30211 17.0206 8.2987 17H4.74987C4.49332 17 4.25469 16.8688 4.11706 16.6523C3.97949 16.4356 3.96186 16.163 4.07116 15.9307L5.99987 11.832V10C5.99987 6.6863 8.68616 4 11.9999 4ZM9.8319 17C9.87466 17.1611 9.93753 17.3404 10.0331 17.5156C10.1695 17.7657 10.366 18.0033 10.6561 18.1807C10.9447 18.357 11.3684 18.5 11.9999 18.5C12.6313 18.5 13.055 18.357 13.3436 18.1807C13.6338 18.0033 13.8303 17.7657 13.9667 17.5156C14.0622 17.3404 14.1251 17.1611 14.1678 17H9.8319ZM18.7196 5.21973C19.0125 4.92683 19.4872 4.92683 19.7801 5.21973C20.073 5.51262 20.073 5.98738 19.7801 6.28027L18.0604 8L19.7801 9.71973C20.073 10.0126 20.073 10.4874 19.7801 10.7803C19.4872 11.0732 19.0125 11.0732 18.7196 10.7803L16.9999 9.06055L15.2801 10.7803C14.9872 11.0732 14.5125 11.0732 14.2196 10.7803C13.9267 10.4874 13.9267 10.0126 14.2196 9.71973L15.9393 8L14.2196 6.28027C13.9267 5.98738 13.9267 5.51262 14.2196 5.21973C14.5125 4.92683 14.9872 4.92683 15.2801 5.21973L16.9999 6.93945L18.7196 5.21973Z" fill="black"/>
</svg>
