<svg width="24" height="24" viewBox="0 0 24 24" fill="none" xmlns="http://www.w3.org/2000/svg">
<path fill-rule="evenodd" clip-rule="evenodd" d="M11.9999 4C12.9192 4 13.7924 4.20707 14.5731 4.57812C14.9471 4.75599 15.1064 5.20407 14.9286 5.57812C14.7507 5.95205 14.3026 6.11039 13.9286 5.93262C13.345 5.6553 12.6916 5.5 11.9999 5.5C9.51459 5.5 7.49987 7.51472 7.49987 10V12C7.49987 12.1104 7.47558 12.2195 7.42858 12.3193L5.93151 15.5H18.0682L16.5712 12.3193C16.3948 11.9446 16.5558 11.4977 16.9305 11.3213C17.3053 11.145 17.7522 11.3059 17.9286 11.6807L19.9286 15.9307C20.0379 16.163 20.0202 16.4356 19.8827 16.6523C19.7451 16.8688 19.5064 17 19.2499 17H15.701C15.6976 17.0206 15.6952 17.0419 15.6913 17.0635C15.6346 17.3751 15.5194 17.8011 15.2831 18.2344C15.0445 18.6717 14.6782 19.1218 14.1249 19.46C13.5697 19.7992 12.8683 20 11.9999 20C11.1314 20 10.43 19.7992 9.87487 19.46C9.3215 19.1218 8.95525 18.6717 8.71667 18.2344C8.48035 17.8011 8.36513 17.3751 8.30846 17.0635C8.30454 17.0419 8.30211 17.0206 8.2987 17H4.74987C4.49332 17 4.25469 16.8688 4.11706 16.6523C3.97949 16.4356 3.96186 16.163 4.07116 15.9307L5.99987 11.832V10C5.99987 6.6863 8.68616 4 11.9999 4ZM9.8319 17C9.87466 17.1611 9.93753 17.3404 10.0331 17.5156C10.1695 17.7657 10.366 18.0033 10.6561 18.1807C10.9447 18.357 11.3684 18.5 11.9999 18.5C12.6313 18.5 13.055 18.357 13.3436 18.1807C13.6338 18.0033 13.8303 17.7657 13.9667 17.5156C14.0622 17.3404 14.1251 17.1611 14.1678 17H9.8319ZM14.2499 8C14.5201 8 14.7691 8.14573 14.9022 8.38086C15.0352 8.61586 15.0322 8.90415 14.8934 9.13574L14.0751 10.5H14.2499C14.6641 10.5 14.9999 10.8358 14.9999 11.25C14.9999 11.6642 14.6641 12 14.2499 12H12.7499C12.4797 12 12.2307 11.8543 12.0975 11.6191C11.9645 11.3841 11.9675 11.0959 12.1063 10.8643L12.9247 9.5H12.7499C12.3357 9.5 11.9999 9.16421 11.9999 8.75C11.9999 8.33579 12.3357 8 12.7499 8H14.2499ZM19.2499 4C19.5308 4 19.7883 4.15742 19.9169 4.40723C20.0451 4.65686 20.0233 4.95708 19.8602 5.18555L18.2069 7.5H19.2499C19.6641 7.5 19.9999 7.83579 19.9999 8.25C19.9999 8.66421 19.6641 9 19.2499 9H16.7499C16.4689 9 16.2114 8.84258 16.0829 8.59277C15.9546 8.34315 15.9765 8.04292 16.1395 7.81445L17.7928 5.5H16.7499C16.3357 5.5 15.9999 5.16421 15.9999 4.75C15.9999 4.33579 16.3357 4 16.7499 4H19.2499Z" fill="black"/>
</svg>
