<svg width="24" height="24" viewBox="0 0 24 24" fill="none" xmlns="http://www.w3.org/2000/svg">
<path fill-rule="evenodd" clip-rule="evenodd" d="M11.9999 4C12.4141 4 12.7498 4.3358 12.7499 4.75C12.7499 5.16421 12.4141 5.5 11.9999 5.5C9.5146 5.5 7.49988 7.51474 7.49986 10V12C7.49986 12.1104 7.47556 12.2195 7.42857 12.3193L5.9315 15.5H18.0702L16.9296 13.0684C16.7539 12.6935 16.9153 12.2473 17.2899 12.0713C17.6649 11.8955 18.1121 12.0566 18.2879 12.4316L19.9286 15.9316C20.0375 16.1639 20.0203 16.4358 19.8827 16.6523C19.745 16.8688 19.5064 17 19.2499 17H15.701C15.6976 17.0206 15.6952 17.0419 15.6913 17.0635C15.6346 17.3751 15.5194 17.8011 15.2831 18.2344C15.0445 18.6717 14.6782 19.1218 14.1249 19.46C13.5697 19.7992 12.8683 20 11.9999 20C11.1314 20 10.43 19.7992 9.87486 19.46C9.3215 19.1218 8.95524 18.6717 8.71666 18.2344C8.48035 17.8011 8.36512 17.3751 8.30846 17.0635C8.30454 17.0419 8.3021 17.0206 8.29869 17H4.74986C4.49332 17 4.25468 16.8688 4.11705 16.6523C3.9795 16.4356 3.96185 16.163 4.07115 15.9307L5.99986 11.832V10C5.99988 6.68631 8.68617 4 11.9999 4ZM9.83189 17C9.87465 17.1611 9.93753 17.3404 10.0331 17.5156C10.1695 17.7657 10.366 18.0033 10.6561 18.1807C10.9447 18.357 11.3684 18.5 11.9999 18.5C12.6313 18.5 13.055 18.357 13.3436 18.1807C13.6338 18.0033 13.8303 17.7657 13.9667 17.5156C14.0622 17.3404 14.1251 17.1611 14.1678 17H9.83189ZM18.661 4.28613C18.9173 3.96081 19.3884 3.90486 19.7137 4.16113C20.0391 4.41746 20.095 4.88851 19.8387 5.21387L15.5057 10.7139C15.3725 10.883 15.1728 10.9871 14.9579 10.999C14.7429 11.0109 14.5328 10.9297 14.3817 10.7764L12.2157 8.57617C11.9251 8.28106 11.9284 7.80627 12.2235 7.51562C12.5185 7.22508 12.9934 7.22858 13.284 7.52344L14.8534 9.11719L18.661 4.28613Z" fill="black"/>
</svg>
