<svg width="24" height="24" viewBox="0 0 24 24" fill="none" xmlns="http://www.w3.org/2000/svg">
<path fill-rule="evenodd" clip-rule="evenodd" d="M12.0004 4.00041C15.3139 4.00064 18.0004 6.68684 18.0004 10.0004V11.8324L19.9291 15.9311C20.0382 16.1633 20.0207 16.4361 19.8832 16.6528C19.7457 16.869 19.5068 17.0003 19.2504 17.0004H15.7016C15.6982 17.0209 15.6957 17.0424 15.6918 17.0639C15.6351 17.3755 15.5199 17.8017 15.2836 18.2348C15.0451 18.672 14.6787 19.1222 14.1254 19.4604C13.5704 19.7995 12.8687 20.0003 12.0004 20.0004C11.1322 20.0004 10.4305 19.7994 9.87541 19.4604C9.32225 19.1223 8.9558 18.6719 8.71721 18.2348C8.48101 17.8018 8.3657 17.3755 8.30901 17.0639C8.30512 17.0425 8.30263 17.0209 8.29924 17.0004H4.75041C4.49406 17.0004 4.25528 16.8689 4.1176 16.6528C3.98007 16.436 3.96249 16.1633 4.0717 15.9311L6.00041 11.8324V10.0004C6.00041 6.6867 8.68671 4.00041 12.0004 4.00041ZM9.83147 17.0004C9.87423 17.1614 9.93813 17.3409 10.0336 17.516C10.17 17.7659 10.3667 18.0038 10.6567 18.1811C10.9452 18.3573 11.3693 18.5004 12.0004 18.5004C12.6316 18.5003 13.0557 18.3574 13.3442 18.1811C13.6342 18.0037 13.8308 17.766 13.9672 17.516C14.0627 17.3409 14.1256 17.1614 14.1684 17.0004H9.83147ZM12.0004 5.50041C9.51513 5.50041 7.50041 7.51513 7.50041 10.0004V12.0004C7.50035 12.1107 7.47606 12.22 7.42913 12.3197L5.93205 15.5004H18.0688L16.5717 12.3197C16.5248 12.22 16.5005 12.1107 16.5004 12.0004V10.0004C16.5004 7.51527 14.4855 5.50064 12.0004 5.50041ZM6.08342 4.01896C6.48714 3.92698 6.88969 4.17971 6.98186 4.58342C7.06793 4.96159 6.8512 5.33855 6.49163 5.46037L6.41741 5.48185V5.48088H6.41643C6.41455 5.48134 6.41187 5.48292 6.40862 5.48381C6.3974 5.48669 6.37831 5.49133 6.35393 5.49846C6.30432 5.51296 6.23422 5.53634 6.15666 5.56682C5.98353 5.6349 5.84758 5.7138 5.78069 5.78068C5.71381 5.84756 5.6349 5.98353 5.56682 6.15666C5.53634 6.23422 5.51296 6.30432 5.49846 6.35393C5.49134 6.37832 5.4867 6.3974 5.48381 6.40861C5.48241 6.41403 5.48125 6.41784 5.48088 6.41935V6.41838C5.3881 6.82118 4.98659 7.0736 4.58342 6.98185C4.17972 6.88969 3.927 6.48713 4.01897 6.08342V6.08244H4.01995V6.08049C4.02016 6.07954 4.02062 6.07781 4.02092 6.07658C4.02154 6.07397 4.02201 6.07046 4.02287 6.06682C4.0248 6.05885 4.02749 6.04802 4.03069 6.03557C4.03724 6.01006 4.04685 5.97464 4.05901 5.93303C4.08321 5.85023 4.11996 5.73602 4.17034 5.60783C4.26421 5.36905 4.4351 5.00518 4.72014 4.72014C5.00519 4.43509 5.36906 4.2642 5.60784 4.17033C5.73604 4.11994 5.85023 4.08321 5.93303 4.059C5.97464 4.04684 6.01007 4.03724 6.03557 4.03068C6.04801 4.02749 6.05886 4.0248 6.06682 4.02287C6.07046 4.02201 6.07398 4.02153 6.07659 4.02092C6.07783 4.02062 6.07954 4.02016 6.08049 4.01994H6.08245V4.01896H6.08342ZM17.019 4.58342C17.1112 4.1796 17.5136 3.92678 17.9174 4.01896H17.9184V4.01994H17.9203C17.9213 4.02019 17.9231 4.02066 17.9242 4.02092C17.9268 4.02149 17.9305 4.02201 17.934 4.02287C17.942 4.0248 17.9529 4.02752 17.9653 4.03068C17.9908 4.03725 18.0263 4.04688 18.0678 4.059C18.1506 4.08323 18.265 4.12 18.393 4.17033C18.6318 4.26425 18.9958 4.43529 19.2807 4.72014C19.5655 5.00512 19.7367 5.36917 19.8305 5.60783C19.8808 5.7359 19.9176 5.85029 19.9418 5.93303C19.9539 5.97454 19.9636 6.01011 19.9701 6.03557C19.9733 6.04794 19.976 6.05889 19.978 6.06682C19.9788 6.07038 19.9793 6.07401 19.9799 6.07658C19.9802 6.07777 19.9807 6.07959 19.9809 6.08049V6.08244H19.9819V6.08342L19.9946 6.15959C20.0408 6.53642 19.7955 6.89537 19.4174 6.98185C19.0392 7.06818 18.6624 6.85119 18.5405 6.49162L18.519 6.41838L18.5199 6.41935C18.5196 6.41786 18.5184 6.41392 18.517 6.40861C18.5141 6.39743 18.5095 6.37821 18.5024 6.35393C18.4879 6.30438 18.4644 6.23411 18.434 6.15666C18.3661 5.98389 18.2869 5.84771 18.2201 5.78068C18.1533 5.71387 18.0171 5.63485 17.8442 5.56682C17.7668 5.53639 17.6965 5.51298 17.6469 5.49846C17.6227 5.49139 17.6035 5.48671 17.5922 5.48381C17.5891 5.48301 17.5863 5.48148 17.5844 5.48088L17.5834 5.48185C17.1797 5.38969 16.927 4.98714 17.019 4.58342Z" fill="black"/>
</svg>
