<svg width="24" height="24" viewBox="0 0 24 24" fill="none" xmlns="http://www.w3.org/2000/svg">
<path d="M12 7C12.7399 7 13.3845 7.40267 13.7305 8H19.25C19.6642 8 20 8.33579 20 8.75C20 9.16421 19.6642 9.49999 19.25 9.5H16.7559C17.3303 9.96021 17.764 10.4766 18.0879 10.9727C18.4502 11.5277 18.6729 12.0536 18.8057 12.4434C18.8722 12.6388 18.9167 12.8022 18.9453 12.9199C18.9596 12.9787 18.9705 13.0266 18.9775 13.0615C18.9811 13.0789 18.9833 13.0936 18.9854 13.1045C18.9863 13.1098 18.9876 13.1145 18.9883 13.1182C18.9886 13.12 18.989 13.1216 18.9893 13.123V13.126C18.9865 13.1267 18.964 13.1301 18.7842 13.1602H18.7852L18.9902 13.127C18.9982 13.1749 19.0002 13.2226 18.999 13.2695C19.5968 13.6154 20 14.2598 20 15C20 16.1046 19.1046 17 18 17C16.8954 17 16 16.1046 16 15C16 14.0919 16.6055 13.3261 17.4346 13.082C17.4204 13.035 17.4048 12.9826 17.3857 12.9268C17.2842 12.6288 17.112 12.2208 16.832 11.792C16.3138 10.9984 15.4205 10.117 13.8643 9.71777C13.5755 10.4672 12.8512 11 12 11C11.1487 11 10.4234 10.4674 10.1348 9.71777C8.57908 10.1171 7.68614 10.9985 7.16797 11.792C6.88802 12.2208 6.71576 12.6288 6.61426 12.9268C6.59519 12.9827 6.57861 13.0349 6.56445 13.082C7.394 13.3258 8 14.0916 8 15C8 16.1046 7.10457 17 6 17C4.89543 17 4 16.1046 4 15C4 14.2601 4.40267 13.6155 5 13.2695C4.99883 13.2227 5.00179 13.1749 5.00977 13.127L5.21387 13.1602H5.21484C5.03587 13.1302 5.01349 13.1267 5.01074 13.126V13.123C5.01098 13.1216 5.0114 13.12 5.01172 13.1182C5.01237 13.1145 5.01367 13.1098 5.01465 13.1045C5.01666 13.0936 5.01894 13.0789 5.02246 13.0615C5.02954 13.0266 5.04041 12.9787 5.05469 12.9199C5.08326 12.8022 5.12776 12.6388 5.19434 12.4434C5.3271 12.0536 5.54976 11.5276 5.91211 10.9727C6.23599 10.4766 6.6697 9.96021 7.24414 9.5H4.75C4.33579 9.5 4.00001 9.16421 4 8.75C4.00006 8.33584 4.33583 8.00001 4.75 8H10.2686C10.6144 7.40244 11.2599 7 12 7ZM6 14.5C5.72386 14.5 5.5 14.7239 5.5 15C5.5 15.2761 5.72386 15.5 6 15.5C6.27614 15.5 6.5 15.2761 6.5 15C6.5 14.7239 6.27614 14.5 6 14.5ZM18 14.5C17.7239 14.5 17.5 14.7239 17.5 15C17.5 15.2761 17.7239 15.5 18 15.5C18.2761 15.5 18.5 15.2761 18.5 15C18.5 14.7239 18.2761 14.5 18 14.5ZM12 8.5C11.7239 8.5 11.5 8.72386 11.5 9C11.5 9.27614 11.7239 9.5 12 9.5C12.2761 9.5 12.5 9.27614 12.5 9C12.5 8.72386 12.2761 8.5 12 8.5Z" fill="black"/>
</svg>
