<svg width="24" height="24" viewBox="0 0 24 24" fill="none" xmlns="http://www.w3.org/2000/svg">
<path d="M19.25 17.5C19.6642 17.5 20 17.8358 20 18.25C20 18.6642 19.6642 19 19.25 19H4.75C4.33579 19 4 18.6642 4 18.25C4 17.8358 4.33579 17.5 4.75 17.5H19.25ZM19 5C19.4142 5 19.75 5.33579 19.75 5.75C19.75 6.16421 19.4142 6.5 19 6.5H15.6992L16.54 10.0342C16.6899 10.0111 16.8436 10 17 10C18.6569 10 20 11.3431 20 13C20 14.6569 18.6569 16 17 16C15.6024 16 14.431 15.0435 14.0977 13.75H9.90234C9.56905 15.0435 8.39761 16 7 16C5.34315 16 4 14.6569 4 13C4 11.3431 5.34315 10 7 10C8.39761 10 9.56905 10.9565 9.90234 12.25H10.8486L8.34863 8.5H7C6.58579 8.5 6.25 8.16421 6.25 7.75C6.25 7.33579 6.58579 7 7 7H10.5C10.9142 7 11.25 7.33579 11.25 7.75C11.25 8.16421 10.9142 8.5 10.5 8.5H10.1514L12.6514 12.25H14.0977C14.2638 11.6052 14.637 11.0449 15.1445 10.6445L14.0205 5.92383C13.9674 5.70067 14.019 5.46521 14.1611 5.28516C14.3034 5.10508 14.5205 5 14.75 5H19ZM7 11.5C6.17157 11.5 5.5 12.1716 5.5 13C5.5 13.8284 6.17157 14.5 7 14.5C7.82843 14.5 8.5 13.8284 8.5 13C8.5 12.1716 7.82843 11.5 7 11.5ZM17 11.5C16.7981 11.5 16.6055 11.54 16.4297 11.6123C16.3704 11.6539 16.3052 11.6885 16.2334 11.7119C15.7946 11.9736 15.5 12.4519 15.5 13C15.5 13.8284 16.1716 14.5 17 14.5C17.8284 14.5 18.5 13.8284 18.5 13C18.5 12.1716 17.8284 11.5 17 11.5Z" fill="#141414"/>
</svg>
