<svg width="24" height="24" viewBox="0 0 24 24" fill="none" xmlns="http://www.w3.org/2000/svg">
<path d="M13.8984 4C16.201 4.00002 18.1722 5.65188 18.5752 7.91895L19.958 15.6953C19.9862 15.8541 20 16.0155 20 16.1768V16.25C20 16.2774 19.998 16.3044 19.9951 16.3311C19.9978 16.387 20 16.4433 20 16.5C20 18.433 18.433 20 16.5 20C14.9053 20 13.5607 18.9333 13.1387 17.4746L13.0684 17.1855C13.0682 17.1851 13.0678 17.1842 13.0674 17.1826C13.0671 17.1815 13.0668 17.1793 13.0664 17.1777L13.0654 17.1758C13.0611 17.1624 13.0524 17.1372 13.0381 17.1045C13.0086 17.0369 12.9596 16.9459 12.8848 16.8564C12.752 16.6976 12.507 16.5 12 16.5C11.493 16.5 11.248 16.6976 11.1152 16.8564C11.0404 16.9459 10.9914 17.0369 10.9619 17.1045C10.9476 17.1372 10.9389 17.1624 10.9346 17.1758L10.9336 17.1777C10.9332 17.1793 10.9329 17.1815 10.9326 17.1826C10.9322 17.1842 10.9318 17.1851 10.9316 17.1855L10.8613 17.4746C10.4393 18.9333 9.09469 20 7.5 20C5.567 20 4 18.433 4 16.5C4 16.4433 4.00222 16.387 4.00488 16.3311C4.00202 16.3044 4 16.2774 4 16.25V16.1768C4 16.0155 4.01378 15.8541 4.04199 15.6953L5.4248 7.91895C5.82784 5.65188 7.79896 4.00002 10.1016 4H13.8984ZM7.5 14.5C6.39543 14.5 5.5 15.3954 5.5 16.5C5.5 17.6046 6.39543 18.5 7.5 18.5C8.60457 18.5 9.5 17.6046 9.5 16.5C9.5 15.3954 8.60457 14.5 7.5 14.5ZM16.5 14.5C15.3954 14.5 14.5 15.3954 14.5 16.5C14.5 17.6046 15.3954 18.5 16.5 18.5C17.6046 18.5 18.5 17.6046 18.5 16.5C18.5 15.3954 17.6046 14.5 16.5 14.5ZM10.1016 5.5C8.52624 5.50002 7.17728 6.62972 6.90137 8.18066L5.9834 13.3438C6.44213 13.1229 6.95681 13 7.5 13C8.99764 13 10.2747 13.941 10.7744 15.2637C10.919 15.1941 11.0772 15.1351 11.25 15.0908V9.75C11.25 9.33579 11.5858 9 12 9C12.4142 9 12.75 9.33579 12.75 9.75V15.0908C12.9225 15.135 13.0803 15.1942 13.2246 15.2637C13.7242 13.9408 15.0022 13 16.5 13C17.0429 13 17.5571 13.1232 18.0156 13.3438L17.0986 8.18066C16.8227 6.62972 15.4738 5.50002 13.8984 5.5H10.1016Z" fill="black"/>
</svg>
