<svg width="24" height="24" viewBox="0 0 24 24" fill="none" xmlns="http://www.w3.org/2000/svg">
<path fill-rule="evenodd" clip-rule="evenodd" d="M11.6122 4.10711C11.8894 3.93955 12.2516 3.9678 12.5009 4.1911L19.7509 10.6911C20.0592 10.9676 20.0849 11.4423 19.8085 11.7507C19.532 12.059 19.0573 12.0848 18.7489 11.8083L18.618 11.6911L18.12 17.4938V17.4977C17.9917 18.9146 16.8034 19.9997 15.3807 19.9997H8.61902C7.19642 19.9996 6.00806 18.9145 5.87976 17.4977V17.4938L5.38074 11.6911L5.25086 11.8083C4.94248 12.0848 4.4678 12.059 4.19129 11.7507C3.91504 11.4423 3.94066 10.9675 4.2489 10.6911L11.4989 4.1911L11.6122 4.10711ZM6.7782 10.4382L7.3739 17.362L7.3905 17.4811C7.50016 18.066 8.01279 18.4996 8.61902 18.4997H15.3807C16.0274 18.4997 16.5676 18.0061 16.6259 17.362L17.2206 10.4382L11.9999 5.75652L6.7782 10.4382ZM11.9999 10.9997C13.6566 10.9997 14.9997 12.343 14.9999 13.9997C14.9999 15.6565 13.6567 16.9997 11.9999 16.9997C10.3431 16.9996 8.99988 15.6565 8.99988 13.9997C9.00002 12.343 10.3432 10.9998 11.9999 10.9997ZM11.9999 12.4997C11.1716 12.4998 10.5 13.1714 10.4999 13.9997C10.4999 14.828 11.1715 15.4996 11.9999 15.4997C12.8283 15.4997 13.4999 14.8281 13.4999 13.9997C13.4997 13.1714 12.8282 12.4997 11.9999 12.4997Z" fill="black"/>
</svg>
