<svg width="24" height="24" viewBox="0 0 24 24" fill="none" xmlns="http://www.w3.org/2000/svg">
<path fill-rule="evenodd" clip-rule="evenodd" d="M12.0003 4C14.4404 4.00014 16.4708 5.74846 16.9104 8.06055C17.222 8.1093 17.6241 8.19954 18.0345 8.37012C18.4871 8.55828 18.9819 8.85756 19.3655 9.33594C19.7585 9.8262 20.0003 10.462 20.0003 11.25C20.0003 11.6641 19.6644 11.9998 19.2503 12H17.0003V14.8369C17.0003 17.6883 14.6885 19.9998 11.8372 20H10.6165C8.57516 19.9999 6.6966 18.8848 5.71904 17.0928L4.09209 14.1094C3.96534 13.877 3.97064 13.5948 4.10576 13.3672C4.24092 13.1397 4.4857 13 4.75029 13H6.75029C6.88823 12.9998 7.00029 12.888 7.00029 12.75V9C7.00029 6.23858 9.23887 4 12.0003 4ZM12.0003 5.5C10.0673 5.5 8.50029 7.067 8.50029 9V12.75C8.50029 13.7164 7.71665 14.4998 6.75029 14.5H6.01397L7.03643 16.374C7.75113 17.6842 9.12408 18.4999 10.6165 18.5H11.8372C13.8601 18.4998 15.5003 16.8599 15.5003 14.8369V9C15.5003 7.0671 13.9332 5.50016 12.0003 5.5ZM17.0003 10.5H18.3392C18.2962 10.415 18.2484 10.3393 18.1956 10.2734C18.0156 10.049 17.7581 9.87918 17.4593 9.75488C17.3058 9.69108 17.1487 9.6429 17.0003 9.60645V10.5ZM13.0003 8C13.5524 8.00016 14.0003 8.44782 14.0003 9C14.0003 9.55218 13.5524 9.99984 13.0003 10C12.448 10 12.0003 9.55228 12.0003 9C12.0003 8.44772 12.448 8 13.0003 8Z" fill="black"/>
</svg>
