<svg width="24" height="24" viewBox="0 0 24 24" fill="none" xmlns="http://www.w3.org/2000/svg">
<path d="M14.25 4C14.6642 4 15 4.33579 15 4.75V6.05273C17.7958 6.514 18.9063 9.98807 17.0439 12C18.9063 14.0119 17.7957 17.4849 15 17.9463V19.25C15 19.6642 14.6642 20 14.25 20C13.8358 20 13.5 19.6642 13.5 19.25V18H11.5V19.25C11.5 19.6642 11.1642 20 10.75 20C10.3358 20 10 19.6642 10 19.25V18H6.75C6.33579 18 6 17.6642 6 17.25C6 16.8358 6.33579 16.5 6.75 16.5H8V7.5H6.75C6.33579 7.5 6 7.16421 6 6.75C6 6.33579 6.33579 6 6.75 6H10V4.75C10 4.33579 10.3358 4 10.75 4C11.1642 4 11.5 4.33579 11.5 4.75V6H13.5V4.75C13.5 4.33579 13.8358 4 14.25 4ZM9.5 16.5H14.3652C16.3973 16.5 17.2029 13.9276 15.6416 12.75H9.5V16.5ZM9.5 11.25H15.6416C17.2029 10.0724 16.3973 7.5 14.3652 7.5H9.5V11.25Z" fill="black"/>
</svg>
