<svg width="24" height="24" viewBox="0 0 24 24" fill="none" xmlns="http://www.w3.org/2000/svg">
<path d="M17.583 4C18.9177 4 20 5.0823 20 6.41699C19.9999 7.08512 19.5854 7.65535 19 7.8877V18.25C19 18.6642 18.6642 19 18.25 19H12.75V19.25C12.75 19.6642 12.4142 20 12 20C11.5858 20 11.25 19.6642 11.25 19.25V19H5.75C5.33579 19 5 18.6642 5 18.25V7.8877C4.41458 7.65535 4.00013 7.08512 4 6.41699C4 5.0823 5.0823 4 6.41699 4H17.583ZM6.5 8V17.5H17.5V8H6.5ZM6.41699 5.5C5.91073 5.5 5.5 5.91073 5.5 6.41699C5.50017 6.46276 5.53724 6.49983 5.58301 6.5H18.417C18.4628 6.49983 18.4998 6.46276 18.5 6.41699C18.5 5.91073 18.0893 5.5 17.583 5.5H6.41699Z" fill="black"/>
</svg>
