<svg width="24" height="24" viewBox="0 0 24 24" fill="none" xmlns="http://www.w3.org/2000/svg">
<path d="M19.25 11C19.6642 11 20 11.3358 20 11.75V17.25C20 18.7688 18.7688 20 17.25 20H6.75C5.23122 20 4 18.7688 4 17.25V11.75C4 11.3358 4.33579 11 4.75 11C5.16421 11 5.5 11.3358 5.5 11.75V17.25C5.5 17.9404 6.05964 18.5 6.75 18.5H17.25C17.9404 18.5 18.5 17.9404 18.5 17.25V11.75C18.5 11.3358 18.8358 11 19.25 11ZM12 10C12.4142 10 12.75 10.3358 12.75 10.75V14.2949L13.6924 13.248C13.9695 12.9402 14.4441 12.9153 14.752 13.1924C15.0598 13.4695 15.0847 13.9441 14.8076 14.252L12.5576 16.752C12.4154 16.91 12.2126 17 12 17C11.7874 17 11.5846 16.91 11.4424 16.752L9.19238 14.252C8.91531 13.9441 8.94022 13.4695 9.24805 13.1924C9.55591 12.9153 10.0305 12.9402 10.3076 13.248L11.25 14.2949V10.75C11.25 10.3358 11.5858 10 12 10ZM14.25 4C15.2165 4 16 4.7835 16 5.75V7.25C16 8.2165 15.2165 9 14.25 9H9.75C8.7835 9 8 8.2165 8 7.25V5.75C8 4.7835 8.7835 4 9.75 4H14.25ZM9.75 5.5C9.61193 5.5 9.5 5.61193 9.5 5.75V7.25C9.5 7.38807 9.61193 7.5 9.75 7.5H14.25C14.3881 7.5 14.5 7.38807 14.5 7.25V5.75C14.5 5.61193 14.3881 5.5 14.25 5.5H9.75Z" fill="black"/>
</svg>
