<svg width="24" height="24" viewBox="0 0 24 24" fill="none" xmlns="http://www.w3.org/2000/svg">
<path d="M19.25 11C19.6642 11 20 11.3358 20 11.75V17.25C20 18.7688 18.7688 20 17.25 20H6.75C5.23122 20 4 18.7688 4 17.25V11.75C4 11.3358 4.33579 11 4.75 11C5.16421 11 5.5 11.3358 5.5 11.75V17.25C5.5 17.9404 6.05964 18.5 6.75 18.5H17.25C17.9404 18.5 18.5 17.9404 18.5 17.25V11.75C18.5 11.3358 18.8358 11 19.25 11ZM14.25 11.5C15.2165 11.5 16 12.2835 16 13.25V14.75C16 15.7165 15.2165 16.5 14.25 16.5H9.75C8.7835 16.5 8 15.7165 8 14.75V13.25C8 12.2835 8.7835 11.5 9.75 11.5H14.25ZM9.75 13C9.61193 13 9.5 13.1119 9.5 13.25V14.75C9.5 14.8881 9.61193 15 9.75 15H14.25C14.3881 15 14.5 14.8881 14.5 14.75V13.25C14.5 13.1119 14.3881 13 14.25 13H9.75ZM12 4C12.2126 4 12.4154 4.09004 12.5576 4.24805L14.8076 6.74805C15.0847 7.05591 15.0598 7.53052 14.752 7.80762C14.4441 8.0847 13.9695 8.05978 13.6924 7.75195L12.75 6.7041V9.25C12.75 9.66421 12.4142 10 12 10C11.5858 10 11.25 9.66421 11.25 9.25V6.7041L10.3076 7.75195C10.0305 8.05978 9.55591 8.0847 9.24805 7.80762C8.94022 7.53052 8.91531 7.05591 9.19238 6.74805L11.4424 4.24805L11.499 4.19238C11.636 4.06933 11.814 4 12 4Z" fill="black"/>
</svg>
