<svg width="24" height="24" viewBox="0 0 24 24" fill="none" xmlns="http://www.w3.org/2000/svg">
<path fill-rule="evenodd" clip-rule="evenodd" d="M15.4912 10.1994C15.7101 9.99741 16.0279 9.94333 16.3008 10.0627C16.5737 10.1822 16.75 10.4523 16.75 10.7502V13.0002H17.25C18.7688 13.0002 20 14.2314 20 15.7502V17.2502C20 18.769 18.7688 20.0002 17.25 20.0002H14.75C13.2312 20.0002 12 18.769 12 17.2502V15.0637C12 14.0171 12.437 13.0177 13.2061 12.3078L15.4912 10.1994ZM14.2236 13.4103C13.7623 13.8363 13.5 14.4358 13.5 15.0637V17.2502C13.5 17.9405 14.0596 18.5002 14.75 18.5002H17.25C17.9404 18.5002 18.5 17.9405 18.5 17.2502V15.7502C18.5 15.0598 17.9404 14.5002 17.25 14.5002H16C15.5858 14.5002 15.25 14.1644 15.25 13.7502V12.4621L14.2236 13.4103ZM7.49121 4.19941C7.71005 3.99741 8.02794 3.94333 8.30078 4.06269C8.57366 4.18217 8.74999 4.4523 8.75 4.75019V7.00019H9.25C10.7688 7.00019 12 8.23142 12 9.75019V11.2502C12 12.769 10.7688 14.0002 9.25 14.0002H6.75C5.23122 14.0002 4 12.769 4 11.2502V9.06367C4.00001 8.01708 4.43702 7.0177 5.20605 6.30781L7.49121 4.19941ZM6.22363 7.41035C5.76228 7.83627 5.50001 8.43576 5.5 9.06367V11.2502C5.5 11.9405 6.05964 12.5002 6.75 12.5002H9.25C9.94036 12.5002 10.5 11.9405 10.5 11.2502V9.75019C10.5 9.05984 9.94035 8.50019 9.25 8.50019H8C7.58579 8.50019 7.25 8.16441 7.25 7.75019V6.46211L6.22363 7.41035Z" fill="black"/>
</svg>
