<svg width="24" height="24" viewBox="0 0 24 24" fill="none" xmlns="http://www.w3.org/2000/svg">
<path fill-rule="evenodd" clip-rule="evenodd" d="M10.4085 5.08172C10.6592 4.95368 10.9615 4.97646 11.1897 5.14129L15.6897 8.39129C15.8848 8.53225 16.0002 8.75899 16.0003 8.99969C16.0003 9.24038 15.8848 9.46707 15.6897 9.60809L12.3782 11.9997L15.6897 14.3913C15.8848 14.5322 16.0002 14.759 16.0003 14.9997C16.0003 15.2404 15.8848 15.4671 15.6897 15.6081L11.1897 18.8581C10.9614 19.023 10.6592 19.0458 10.4085 18.9177C10.1578 18.7894 10.0003 18.5313 10.0003 18.2497V13.6032L8.17703 14.8659C7.8365 15.1017 7.36986 15.0169 7.13406 14.6764C6.89836 14.3359 6.98306 13.8693 7.32352 13.6335L9.68289 11.9987L7.32352 10.3659C6.98304 10.1301 6.89831 9.66346 7.13406 9.32293C7.36993 8.98271 7.8366 8.8978 8.17703 9.13348L10.0003 10.3952V5.74969C10.0004 5.46822 10.1579 5.20994 10.4085 5.08172ZM11.5003 16.7819L13.968 14.9997L11.5003 13.2165V16.7819ZM11.5003 10.7819L13.968 8.99969L11.5003 7.21649V10.7819Z" fill="black"/>
</svg>
