<svg width="24" height="24" viewBox="0 0 24 24" fill="none" xmlns="http://www.w3.org/2000/svg">
<path fill-rule="evenodd" clip-rule="evenodd" d="M11.591 17.3713C14.0308 15.783 16.0835 15.8126 17.5559 16.3176C18.2743 16.564 18.8302 16.9144 19.2073 17.2043C19.3962 17.3496 19.543 17.4819 19.6448 17.5803C19.6955 17.6294 19.7361 17.6708 19.7649 17.7013C19.7791 17.7164 19.7903 17.7297 19.799 17.7394C19.8034 17.7442 19.8078 17.7488 19.8108 17.7521L19.8166 17.758V17.759C19.8143 17.7615 19.7799 17.7918 19.3166 18.1926L19.8176 17.7599C20.0881 18.0732 20.0536 18.5468 19.7405 18.8176C19.4273 19.0881 18.9538 19.0541 18.6828 18.7414H18.6838L18.6721 18.7297C18.6585 18.7152 18.6347 18.6902 18.6018 18.6584C18.5357 18.5944 18.4319 18.5004 18.2932 18.3937C18.0141 18.1791 17.6006 17.9187 17.0696 17.7365C16.0419 17.3841 14.4695 17.2879 12.4094 18.6291C9.96976 20.2173 7.91688 20.1877 6.44456 19.6828C5.72619 19.4364 5.17026 19.086 4.79319 18.7961C4.60422 18.6508 4.45745 18.5185 4.35569 18.4201C4.30494 18.371 4.26436 18.3296 4.23557 18.299C4.22141 18.2839 4.21014 18.2706 4.20139 18.2609C4.19716 18.2562 4.19266 18.2525 4.18967 18.2492C4.18827 18.2476 4.18686 18.2456 4.18577 18.2443L4.18381 18.2424V18.2414C4.18609 18.2388 4.22259 18.2065 4.75022 17.7502L4.18284 18.2404C3.91215 17.9271 3.94681 17.4537 4.25999 17.1828C4.57284 16.9125 5.04556 16.946 5.31663 17.258L5.31565 17.257C5.31761 17.2593 5.32186 17.2648 5.32835 17.2717C5.34206 17.2862 5.36599 17.3104 5.39866 17.342C5.46484 17.406 5.56855 17.5 5.70725 17.6066C5.98641 17.8212 6.39978 18.0827 6.93088 18.2648C7.95851 18.6172 9.53112 18.7124 11.591 17.3713ZM11.6584 4.28924C11.8552 4.03665 12.1905 3.93731 12.4934 4.04119C12.7963 4.14526 13.0002 4.42988 13.0002 4.75017V11.0002H19.0002C19.2599 11.0003 19.5013 11.1348 19.6379 11.3556C19.7743 11.5766 19.7871 11.8528 19.6711 12.0851L18.4211 14.5851C18.2359 14.9553 17.7856 15.1058 17.4153 14.9211C17.045 14.7359 16.8945 14.2856 17.0793 13.9152L17.7864 12.5002H6.18479L7.3342 14.9289C7.51104 15.303 7.35167 15.7506 6.97776 15.9279C6.60362 16.105 6.15617 15.9453 5.97874 15.5715L4.32249 12.0715C4.21256 11.8392 4.22901 11.566 4.36643 11.3488C4.50394 11.1317 4.74321 11.0002 5.00022 11.0002H6.4387L11.6584 4.28924ZM8.33909 11.0002H11.5002V6.93572L8.33909 11.0002Z" fill="black"/>
</svg>
