<svg width="24" height="24" viewBox="0 0 24 24" fill="none" xmlns="http://www.w3.org/2000/svg">
<path d="M12.5 4C14.9853 4 17 6.01472 17 8.5C17 9.84108 16.4121 11.0437 15.4814 11.8682C16.9655 12.5311 18 14.0195 18 15.75C18 18.0972 16.0972 20 13.75 20H6.75C6.33579 20 6 19.6642 6 19.25V4.75C6 4.33579 6.33579 4 6.75 4H12.5ZM7.5 18.5H13.75C15.2688 18.5 16.5 17.2688 16.5 15.75C16.5 14.2312 15.2688 13 13.75 13H7.5V18.5ZM7.5 11.5H12.5C14.1569 11.5 15.5 10.1569 15.5 8.5C15.5 6.84315 14.1569 5.5 12.5 5.5H7.5V11.5Z" fill="black"/>
</svg>
