<svg width="24" height="24" viewBox="0 0 24 24" fill="none" xmlns="http://www.w3.org/2000/svg">
<path fill-rule="evenodd" clip-rule="evenodd" d="M12.6541 4.2941C12.8495 4.03897 13.1857 3.93722 13.4901 4.04019C13.7946 4.14329 13.9998 4.42862 13.9998 4.75015V10.0002H17.2498C17.5352 10.0002 17.7963 10.1623 17.9227 10.4181C18.0488 10.6738 18.0188 10.9797 17.8455 11.2062L11.3455 19.7062C11.1502 19.9612 10.8139 20.0631 10.5096 19.9601C10.2052 19.857 9.99997 19.5716 9.99985 19.2502V14.0002H6.74984C6.46462 14.0001 6.20342 13.8379 6.07699 13.5822C5.95084 13.3265 5.98107 13.0206 6.15414 12.7941L12.6541 4.2941ZM8.26742 12.5002H10.7498C11.1641 12.5002 11.4998 12.8359 11.4998 13.2502V17.0343L15.7323 11.5002H13.2498C12.8358 11.5001 12.5 11.1642 12.4998 10.7502V6.96597L8.26742 12.5002Z" fill="black"/>
</svg>
