<svg width="24" height="24" viewBox="0 0 24 24" fill="none" xmlns="http://www.w3.org/2000/svg">
<path d="M15.5 4C16.7245 4 17.7411 4.88071 17.9561 6.04297C19.1189 6.25743 20 7.27514 20 8.5C20 9.88071 18.8807 11 17.5 11C17.0437 11 16.6177 10.876 16.251 10.6631L10.6631 16.251C10.876 16.6177 11 17.0437 11 17.5C11 18.8807 9.88071 20 8.5 20C7.27514 20 6.25743 19.1189 6.04297 17.9561C4.88071 17.7411 4 16.7245 4 15.5C4 14.1193 5.11929 13 6.5 13C6.95535 13 7.38088 13.1229 7.74707 13.335L13.335 7.74707C13.1229 7.38088 13 6.95535 13 6.5C13 5.11929 14.1193 4 15.5 4ZM15.5 5.5C14.9477 5.5 14.5 5.94772 14.5 6.5C14.5 6.79485 14.6284 7.0604 14.8369 7.24609C14.9909 7.38337 15.0819 7.57799 15.0879 7.78418C15.0938 7.99046 15.0141 8.19001 14.8682 8.33594L8.33594 14.8682C8.19001 15.0141 7.99046 15.0938 7.78418 15.0879C7.57799 15.0819 7.38337 14.9909 7.24609 14.8369C7.0604 14.6284 6.79485 14.5 6.5 14.5C5.94772 14.5 5.5 14.9477 5.5 15.5C5.5 16.0523 5.94772 16.5 6.5 16.5C6.5421 16.5 6.59202 16.4954 6.65625 16.4854C6.89297 16.4483 7.13331 16.5269 7.30273 16.6963C7.47212 16.8658 7.55078 17.1061 7.51367 17.3428C7.50462 17.4004 7.5 17.4523 7.5 17.5C7.5 18.0523 7.94772 18.5 8.5 18.5C9.05228 18.5 9.5 18.0523 9.5 17.5C9.5 17.2049 9.37171 16.9396 9.16309 16.7539C9.00875 16.6167 8.91718 16.4213 8.91113 16.2148C8.90522 16.0086 8.98493 15.809 9.13086 15.6631L15.6631 9.13086L15.7207 9.0791C15.8594 8.96644 16.0345 8.90597 16.2148 8.91113C16.4213 8.91718 16.6167 9.00875 16.7539 9.16309C16.9396 9.37171 17.2049 9.5 17.5 9.5C18.0523 9.5 18.5 9.05228 18.5 8.5C18.5 7.94772 18.0523 7.5 17.5 7.5C17.4523 7.5 17.4004 7.50462 17.3428 7.51367C17.1061 7.55078 16.8658 7.47212 16.6963 7.30273C16.5269 7.13331 16.4483 6.89297 16.4854 6.65625C16.4954 6.59202 16.5 6.5421 16.5 6.5C16.5 5.94772 16.0523 5.5 15.5 5.5Z" fill="#141414"/>
</svg>
