<svg width="24" height="24" viewBox="0 0 24 24" fill="none" xmlns="http://www.w3.org/2000/svg">
<path d="M15.25 4C16.7688 4 18 5.23122 18 6.75V19.25C18 19.5429 17.8296 19.8093 17.5635 19.9316C17.2974 20.054 16.9841 20.0099 16.7617 19.8193L12 15.7373L7.23828 19.8193C7.0159 20.0099 6.70262 20.054 6.43652 19.9316C6.17042 19.8093 6 19.5429 6 19.25V6.75C6 5.23122 7.23122 4 8.75 4H15.25ZM8.75 5.5C8.05964 5.5 7.5 6.05964 7.5 6.75V17.6191L11.5117 14.1807L11.623 14.1016C11.8944 13.9436 12.2425 13.97 12.4883 14.1807L16.5 17.6191V6.75C16.5 6.05964 15.9404 5.5 15.25 5.5H8.75Z" fill="#141414"/>
</svg>
