<svg width="24" height="24" viewBox="0 0 24 24" fill="none" xmlns="http://www.w3.org/2000/svg">
<path d="M7.25 4C8.2165 4 9 4.7835 9 5.75V6.16992C9.22746 6.06176 9.48137 6 9.75 6H11.25C12.2165 6 13 6.7835 13 7.75V9.92285C13.0316 9.0713 13.732 8.40982 14.5518 8.28125L16.1914 8.02441C17.1188 7.87897 18.1315 8.4192 18.3301 9.4209L19.4863 15.2559L19.9688 17.6875C20.1737 18.7212 19.3894 19.5711 18.4482 19.7188L16.8086 19.9756C15.8812 20.121 14.8685 19.5808 14.6699 18.5791L14.1885 16.1484L13.0312 10.3125C13.0076 10.1929 12.9985 10.0757 13 9.96191V18.25C13 19.2165 12.2165 20 11.25 20H9.75C9.25979 20 8.8177 19.7974 8.5 19.4727C8.1823 19.7974 7.74021 20 7.25 20H5.75C4.7835 20 4 19.2165 4 18.25V5.75C4 4.7835 4.7835 4 5.75 4H7.25ZM5.5 18.25C5.5 18.3881 5.61193 18.5 5.75 18.5H7.25C7.38807 18.5 7.5 18.3881 7.5 18.25V16.5H5.5V18.25ZM9.5 18.25C9.5 18.3881 9.61193 18.5 9.75 18.5H11.25C11.3881 18.5 11.5 18.3881 11.5 18.25V16.5H9.5V18.25ZM15.8105 16.6221L16.1416 18.2881C16.1495 18.3277 16.179 18.3848 16.2588 18.4346C16.3393 18.4847 16.4528 18.5135 16.5762 18.4941L18.2158 18.2363C18.3384 18.2171 18.4188 18.1598 18.46 18.1074C18.499 18.0577 18.5041 18.0152 18.4971 17.9795L18.1553 16.2539L15.8105 16.6221ZM16.4238 9.50586L14.7842 9.76367C14.6616 9.7829 14.5812 9.84025 14.54 9.89258C14.501 9.94227 14.4959 9.98482 14.5029 10.0205L15.5186 15.1494L17.8633 14.7812L16.8584 9.71191C16.8505 9.67235 16.821 9.6152 16.7412 9.56543C16.6607 9.51528 16.5472 9.48651 16.4238 9.50586ZM5.75 5.5C5.61193 5.5 5.5 5.61193 5.5 5.75V15H7.5V5.75C7.5 5.61193 7.38807 5.5 7.25 5.5H5.75ZM9.75 7.5C9.61193 7.5 9.5 7.61193 9.5 7.75V15H11.5V7.75C11.5 7.61193 11.3881 7.5 11.25 7.5H9.75Z" fill="black"/>
</svg>
