<svg width="24" height="24" viewBox="0 0 24 24" fill="none" xmlns="http://www.w3.org/2000/svg">
<path fill-rule="evenodd" clip-rule="evenodd" d="M19.0508 4.02751C19.2764 3.96532 19.5179 4.01177 19.7041 4.15349C19.8903 4.29534 20 4.51609 20 4.75017V17.2502C19.9999 17.5874 19.7744 17.8831 19.4492 17.9728L12.1992 19.9728C12.1674 19.9816 12.1353 19.9869 12.1035 19.9914C12.0983 19.9921 12.0931 19.9927 12.0879 19.9933C12.0584 19.9969 12.0292 19.9962 12 19.9963C11.9705 19.9962 11.9409 19.9969 11.9111 19.9933C11.9059 19.9927 11.9007 19.9921 11.8955 19.9914C11.864 19.9869 11.8323 19.9815 11.8008 19.9728L4.55078 17.9728C4.22563 17.8831 4.00014 17.5874 4 17.2502V4.75017C4 4.51609 4.10971 4.29534 4.2959 4.15349C4.48212 4.01177 4.72361 3.96532 4.94922 4.02751L12 5.97185L19.0508 4.02751ZM12.75 7.32048V18.2648L18.5 16.6789V5.73454L12.75 7.32048ZM5.5 16.6789L11.25 18.2648V7.32048L5.5 5.73454V16.6789Z" fill="black"/>
</svg>
