<svg width="24" height="24" viewBox="0 0 24 24" fill="none" xmlns="http://www.w3.org/2000/svg">
<path d="M15.5 4C15.7869 4 16.0672 4.0184 16.3369 4.0498C17.2552 4.15673 18.0707 4.41742 18.6514 4.64746C18.9435 4.76321 19.1813 4.8731 19.3477 4.95508C19.4309 4.99609 19.4966 5.03091 19.543 5.05566C19.566 5.06797 19.5844 5.07764 19.5977 5.08496C19.6043 5.08864 19.6102 5.09146 19.6143 5.09375C19.6162 5.09485 19.6178 5.09592 19.6191 5.09668L19.6211 5.09766V5.09863H19.6221L19.7051 5.1543C19.8893 5.29499 20 5.51445 20 5.75V19.25C20 19.5174 19.8572 19.7642 19.626 19.8984C19.3951 20.0323 19.1108 20.0335 18.8789 19.9014H18.8779C18.8763 19.9004 18.873 19.8982 18.8682 19.8955C18.8585 19.8902 18.8421 19.8817 18.8203 19.8701C18.7764 19.8469 18.7092 19.8118 18.6211 19.7695C18.4442 19.6846 18.1857 19.5702 17.8691 19.4551C17.2292 19.2224 16.3821 19 15.5 19C14.6222 19 13.8436 19.2202 13.2783 19.4463C12.9977 19.5586 12.7749 19.6702 12.625 19.752C12.5502 19.7927 12.4935 19.826 12.458 19.8477C12.4404 19.8584 12.428 19.8666 12.4209 19.8711C12.4187 19.8725 12.4162 19.8723 12.415 19.873L12.416 19.874C12.1643 20.0418 11.8368 20.0415 11.585 19.874C11.5838 19.8733 11.5816 19.8727 11.5791 19.8711C11.572 19.8666 11.5596 19.8584 11.542 19.8477C11.5065 19.826 11.4498 19.7927 11.375 19.752C11.2251 19.6702 11.0023 19.5586 10.7217 19.4463C10.1564 19.2202 9.37779 19 8.5 19C7.61787 19 6.77077 19.2224 6.13086 19.4551C5.81429 19.5702 5.5558 19.6846 5.37891 19.7695C5.2908 19.8118 5.22359 19.8469 5.17969 19.8701C5.15785 19.8817 5.14154 19.8902 5.13184 19.8955C5.12699 19.8982 5.1237 19.9004 5.12207 19.9014L5.12109 19.9023V19.9014C4.8892 20.0335 4.60494 20.0323 4.37402 19.8984C4.14279 19.7642 4 19.5174 4 19.25V5.75C4 5.48086 4.14425 5.23216 4.37793 5.09863H4.37891L4.37988 5.09766L4.38184 5.09668C4.38348 5.09575 4.38526 5.09414 4.3877 5.09277C4.39274 5.08994 4.39989 5.08661 4.4082 5.08203C4.42509 5.07274 4.44881 5.05964 4.47852 5.04395C4.53811 5.01246 4.62347 4.96933 4.73047 4.91797C4.94411 4.81543 5.2485 4.6797 5.61914 4.54492C6.3542 4.27767 7.38237 4 8.5 4C9.62212 4 10.5936 4.27984 11.2783 4.55371C11.571 4.67077 11.8143 4.79012 12 4.8877C12.1857 4.79012 12.429 4.67077 12.7217 4.55371C13.4064 4.27984 14.3779 4 15.5 4ZM8.5 5.5C7.61787 5.5 6.77077 5.72238 6.13086 5.95508C5.87986 6.04637 5.66616 6.1387 5.5 6.21484V18.0908C5.53893 18.0761 5.57859 18.0597 5.61914 18.0449C6.3542 17.7777 7.38237 17.5 8.5 17.5C9.60666 17.5 10.5669 17.7718 11.25 18.042V6.1875C11.1107 6.11621 10.9329 6.03078 10.7217 5.94629C10.1564 5.72019 9.37779 5.5 8.5 5.5ZM15.5 5.5C14.6222 5.5 13.8436 5.72019 13.2783 5.94629C13.0671 6.03078 12.8893 6.11621 12.75 6.1875V18.042C13.4331 17.7718 14.3933 17.5 15.5 17.5C16.6176 17.5 17.6458 17.7777 18.3809 18.0449C18.4214 18.0597 18.4611 18.0761 18.5 18.0908V6.21387C18.3874 6.16229 18.2531 6.1028 18.0996 6.04199C17.7924 5.92026 17.4166 5.79264 17 5.69141V9.25C17 9.66421 16.6642 10 16.25 10C15.8358 10 15.5 9.66421 15.5 9.25V5.5Z" fill="black"/>
</svg>
