<svg width="24" height="24" viewBox="0 0 24 24" fill="none" xmlns="http://www.w3.org/2000/svg">
<path d="M18.25 4C19.2165 4 20 4.7835 20 5.75V19.25C20 19.6642 19.6642 20 19.25 20H6.75C5.23122 20 4 18.7688 4 17.25C4 17.1385 4.0086 17.0289 4.02148 16.9209C4.00863 16.8659 4 16.8089 4 16.75V6.75C4 5.23122 5.23122 4 6.75 4H18.25ZM6.75 16C6.05964 16 5.5 16.5596 5.5 17.25C5.5 17.9404 6.05964 18.5 6.75 18.5H18.5V16H6.75ZM6.75 5.5C6.05964 5.5 5.5 6.05964 5.5 6.75V14.8027C5.87532 14.6106 6.29942 14.5 6.75 14.5H18.5V5.75C18.5 5.61193 18.3881 5.5 18.25 5.5H6.75Z" fill="black"/>
</svg>
