<svg width="24" height="24" viewBox="0 0 24 24" fill="none" xmlns="http://www.w3.org/2000/svg">
<path d="M10 4C10.789 4 11.4985 4.33399 12 4.86621C12.5015 4.33399 13.211 4 14 4H18.25C19.2165 4 20 4.7835 20 5.75V16.25C20 17.2165 19.2165 18 18.25 18H15.6572C14.7953 18 13.9679 18.3427 13.3584 18.9521L12.5303 19.7803C12.5242 19.7863 12.517 19.7911 12.5107 19.7969C12.493 19.8135 12.4744 19.8289 12.4551 19.8438C12.4452 19.8513 12.435 19.8582 12.4248 19.8652C12.4043 19.8794 12.3834 19.8931 12.3613 19.9053C12.3507 19.9111 12.34 19.9165 12.3291 19.9219C12.315 19.9288 12.3017 19.9373 12.2871 19.9434C12.2802 19.9462 12.2726 19.9475 12.2656 19.9502C12.2509 19.9558 12.2358 19.9602 12.2207 19.9648C12.1993 19.9715 12.178 19.9778 12.1562 19.9824C12.1449 19.9848 12.1335 19.9864 12.1221 19.9883C12.098 19.9923 12.074 19.9955 12.0498 19.9971C12.0332 19.9982 12.0167 19.998 12 19.998C11.983 19.998 11.9661 19.9982 11.9492 19.9971C11.925 19.9954 11.901 19.9923 11.877 19.9883C11.8655 19.9864 11.8541 19.9849 11.8428 19.9824C11.8211 19.9778 11.7998 19.9715 11.7783 19.9648C11.7633 19.9602 11.7482 19.9558 11.7334 19.9502C11.7267 19.9476 11.7196 19.9461 11.7129 19.9434C11.698 19.9372 11.6842 19.9289 11.6699 19.9219C11.6591 19.9165 11.6483 19.9111 11.6377 19.9053C11.6156 19.8931 11.5947 19.8795 11.5742 19.8652C11.5641 19.8582 11.5538 19.8513 11.5439 19.8438C11.5246 19.8289 11.506 19.8135 11.4883 19.7969C11.4822 19.7912 11.4756 19.7862 11.4697 19.7803L10.6416 18.9521C10.0321 18.3427 9.20473 18 8.34277 18H5.75C4.7835 18 4 17.2165 4 16.25V5.75C4 4.7835 4.7835 4 5.75 4H10ZM5.75 5.5C5.61193 5.5 5.5 5.61193 5.5 5.75V16.25C5.5 16.3881 5.61193 16.5 5.75 16.5H8.34277C9.40072 16.5 10.4222 16.8535 11.25 17.4941V6.75C11.25 6.05964 10.6904 5.5 10 5.5H5.75ZM14 5.5C13.3096 5.5 12.75 6.05964 12.75 6.75V17.4941C13.5778 16.8535 14.5993 16.5 15.6572 16.5H18.25C18.3881 16.5 18.5 16.3881 18.5 16.25V5.75C18.5 5.61193 18.3881 5.5 18.25 5.5H14Z" fill="black"/>
</svg>
