<svg width="24" height="24" viewBox="0 0 24 24" fill="none" xmlns="http://www.w3.org/2000/svg">
<path d="M16.25 18.5C16.6642 18.5 17 18.8358 17 19.25C17 19.6642 16.6642 20 16.25 20H7.75C7.33579 20 7 19.6642 7 19.25C7 18.8358 7.33579 18.5 7.75 18.5H16.25ZM4.75 7C5.16421 7 5.5 7.33579 5.5 7.75V16.25C5.5 16.6642 5.16421 17 4.75 17C4.33579 17 4 16.6642 4 16.25V7.75C4 7.33579 4.33579 7 4.75 7ZM19.25 7C19.6642 7 20 7.33579 20 7.75V16.25C20 16.6642 19.6642 17 19.25 17C18.8358 17 18.5 16.6642 18.5 16.25V7.75C18.5 7.33579 18.8358 7 19.25 7ZM16.25 4C16.6642 4 17 4.33579 17 4.75C17 5.16421 16.6642 5.5 16.25 5.5H7.75C7.33579 5.5 7 5.16421 7 4.75C7 4.33579 7.33579 4 7.75 4H16.25Z" fill="black"/>
</svg>
