<svg width="24" height="24" viewBox="0 0 24 24" fill="none" xmlns="http://www.w3.org/2000/svg">
<path d="M14.25 4C14.6642 4 15 4.33579 15 4.75V9.43945L15.4375 9.87695C17.0782 11.5178 17.9999 13.7431 18 16.0635V19.25C18 19.6642 17.6642 20 17.25 20C16.8358 20 16.5 19.6642 16.5 19.25V16.0635C16.4999 14.1409 15.7363 12.297 14.377 10.9375L13.7197 10.2803C13.5791 10.1396 13.5 9.94891 13.5 9.75V8H11.5V9.75C11.5 9.94891 11.4209 10.1396 11.2803 10.2803L10.623 10.9375C9.2637 12.297 8.50006 14.1409 8.5 16.0635V19.25C8.5 19.6642 8.16421 20 7.75 20C7.33579 20 7 19.6642 7 19.25V16.0635C7.00006 13.7431 7.92184 11.5178 9.5625 9.87695L10 9.43945V4.75C10 4.33579 10.3358 4 10.75 4H14.25ZM11.5 6.5H13.5V5.5H11.5V6.5Z" fill="black"/>
</svg>
