<svg width="24" height="24" viewBox="0 0 24 24" fill="none" xmlns="http://www.w3.org/2000/svg">
<path fill-rule="evenodd" clip-rule="evenodd" d="M4.21973 5.21967C4.51262 4.92678 4.98738 4.92678 5.28027 5.21967L10.0303 9.96967C10.04 9.97935 10.0486 9.98988 10.0576 9.99994H19.25C19.6642 9.99994 20 10.3357 20 10.7499V11.9999C20 16.4182 16.4183 19.9999 12 19.9999C7.58172 19.9999 4 16.4182 4 11.9999V10.7499C4 10.3357 4.33579 9.99994 4.75 9.99994H7.93945L4.21973 6.28022C3.92683 5.98732 3.92683 5.51256 4.21973 5.21967ZM5.5 11.9999C5.5 15.5898 8.41015 18.4999 12 18.4999C15.5899 18.4999 18.5 15.5898 18.5 11.9999V11.4999H5.5V11.9999Z" fill="black"/>
</svg>
