<svg width="24" height="24" viewBox="0 0 24 24" fill="none" xmlns="http://www.w3.org/2000/svg">
<path fill-rule="evenodd" clip-rule="evenodd" d="M9.00019 4C10.5973 4 11.9417 5.35655 11.6506 6.97852L11.1467 9.78418L12.6652 11.5703C14.4082 13.6221 14.4491 16.5224 12.7619 18.6172L11.8732 19.7207C11.7309 19.8973 11.5161 19.9999 11.2892 20H6.71112C6.48428 19.9999 6.26946 19.8973 6.12714 19.7207L5.23847 18.6172C3.5513 16.5224 3.59221 13.6221 5.33515 11.5703L6.85272 9.78418L6.34979 6.97852C6.05864 5.35655 7.40311 4 9.00019 4ZM14.3039 5.9502C14.4574 5.56554 14.8938 5.37778 15.2785 5.53125C18.044 6.63468 20.0002 9.33814 20.0002 12.5C20.0002 15.6619 18.044 18.3653 15.2785 19.4688C14.8938 19.6222 14.4574 19.4345 14.3039 19.0498C14.1505 18.6652 14.3374 18.2288 14.7219 18.0752C16.9368 17.1915 18.5002 15.0274 18.5002 12.5C18.5002 9.97256 16.9368 7.80846 14.7219 6.9248C14.3374 6.7712 14.1505 6.33482 14.3039 5.9502ZM6.4787 12.542C5.20066 14.0466 5.17298 16.1443 6.40741 17.6768L7.0705 18.5H10.9299L11.593 17.6768C12.8274 16.1443 12.7997 14.0466 11.5217 12.542L10.2121 11H7.78827L6.4787 12.542ZM15.2502 10.5C15.6644 10.5 16.0002 10.8358 16.0002 11.25V11.2598C16.0002 11.674 15.6644 12.0098 15.2502 12.0098C14.836 12.0098 14.5002 11.674 14.5002 11.2598V11.25C14.5002 10.8358 14.836 10.5 15.2502 10.5ZM14.2502 8.5C14.6644 8.5 15.0002 8.83579 15.0002 9.25V9.25977C15.0002 9.67398 14.6644 10.0098 14.2502 10.0098C13.836 10.0098 13.5002 9.67398 13.5002 9.25977V9.25C13.5002 8.83579 13.836 8.5 14.2502 8.5ZM9.00019 5.5C8.20101 5.5 7.72261 6.14136 7.82538 6.71387L8.32538 9.5H9.67499L10.175 6.71387C10.2778 6.14136 9.79936 5.5 9.00019 5.5Z" fill="black"/>
</svg>
