<svg width="24" height="24" viewBox="0 0 24 24" fill="none" xmlns="http://www.w3.org/2000/svg">
<path fill-rule="evenodd" clip-rule="evenodd" d="M11.7674 4.03702C11.9434 3.97961 12.1357 3.98892 12.3065 4.06534L19.5565 7.31534C19.5932 7.33179 19.628 7.35135 19.6609 7.37295C19.6697 7.37872 19.6778 7.38539 19.6863 7.39151C19.7155 7.41243 19.7428 7.43525 19.7684 7.45987C19.7754 7.46658 19.7822 7.4734 19.7889 7.48038C19.8492 7.54296 19.898 7.61505 19.9334 7.69424C19.9398 7.70854 19.9445 7.72344 19.95 7.73819C19.9601 7.76509 19.9694 7.79213 19.9764 7.82022C19.9812 7.83986 19.9858 7.85957 19.9891 7.87979C19.9902 7.88661 19.9911 7.89343 19.992 7.9003C19.9963 7.93295 19.9998 7.96607 19.9998 7.99991V15.9999C19.9998 16.0409 19.9954 16.0808 19.9891 16.12C19.9884 16.1239 19.9878 16.1278 19.9871 16.1317C19.9821 16.1599 19.9737 16.1868 19.9656 16.2138C19.9591 16.2354 19.9535 16.2572 19.9451 16.2782C19.9359 16.3014 19.9234 16.3227 19.9119 16.3446C19.9009 16.3658 19.8907 16.3871 19.8777 16.4071C19.8659 16.4253 19.852 16.4418 19.8387 16.4589C19.8219 16.4804 19.8051 16.5017 19.7859 16.5214C19.7677 16.5401 19.7475 16.5564 19.7274 16.5731C19.7111 16.5867 19.6961 16.6019 19.6785 16.6142C19.6704 16.6199 19.6615 16.6244 19.6531 16.6298C19.6223 16.6495 19.5908 16.6691 19.5565 16.6845L19.5438 16.6894C19.5424 16.6899 19.5412 16.6908 19.5399 16.6913L12.3065 19.9345C12.1114 20.0218 11.8882 20.0218 11.6932 19.9345L4.4588 16.6913C4.45746 16.6907 4.45623 16.6899 4.4549 16.6894L4.44318 16.6845C4.40675 16.6681 4.37307 16.648 4.34064 16.6269C4.33527 16.6233 4.32931 16.6207 4.32404 16.6171C4.30213 16.602 4.28338 16.5834 4.26349 16.5663C4.2463 16.5515 4.22849 16.5377 4.21271 16.5214C4.19359 16.5017 4.17668 16.4804 4.15997 16.4589C4.14668 16.4418 4.13272 16.4253 4.12091 16.4071C4.10726 16.386 4.09719 16.363 4.08575 16.3407C4.07525 16.3203 4.06314 16.3007 4.0545 16.2792C4.04447 16.2542 4.03838 16.228 4.03107 16.2021C4.02497 16.1803 4.01665 16.1591 4.01251 16.1366C4.01106 16.1288 4.00981 16.121 4.00861 16.1132C4.00301 16.0762 3.99982 16.0384 3.99982 15.9999V7.99991C3.99982 7.96746 4.00266 7.93557 4.00665 7.9042C4.00804 7.89339 4.00968 7.88267 4.01154 7.87198C4.01392 7.85812 4.01719 7.84455 4.02032 7.83096C4.02877 7.79448 4.03988 7.75901 4.05353 7.72452C4.05676 7.71634 4.05978 7.70813 4.06329 7.7001C4.0806 7.66048 4.10006 7.62181 4.12384 7.58585C4.12858 7.57868 4.13448 7.57232 4.13947 7.56534C4.16091 7.5352 4.185 7.50713 4.21075 7.48038C4.21843 7.47241 4.22617 7.46456 4.23419 7.45694C4.26011 7.4323 4.28771 7.40946 4.3172 7.38858C4.32324 7.38429 4.3286 7.37902 4.33478 7.37491C4.36881 7.35229 4.40509 7.33242 4.44318 7.31534L4.4549 7.30948C4.45623 7.30891 4.45746 7.30809 4.4588 7.30752L11.6932 4.06534L11.7674 4.03702ZM5.49982 15.5136L11.2498 18.0907V11.7353L5.49982 9.15811V15.5136ZM12.7498 11.7353V18.0907L18.4998 15.5136V9.15811L12.7498 11.7353ZM6.58282 7.99991L11.9998 10.4276L17.4158 7.99991L11.9998 5.5712L6.58282 7.99991Z" fill="black"/>
</svg>
