<svg width="24" height="24" viewBox="0 0 24 24" fill="none" xmlns="http://www.w3.org/2000/svg">
<path d="M9.25 14C10.2165 14 11 14.7835 11 15.75V18.25C11 19.2165 10.2165 20 9.25 20H5.75C4.7835 20 4 19.2165 4 18.25V15.75C4 14.7835 4.7835 14 5.75 14H9.25ZM18.25 10C19.2165 10 20 10.7835 20 11.75V18.25C20 19.2165 19.2165 20 18.25 20H14.75C13.7835 20 13 19.2165 13 18.25V11.75C13 10.7835 13.7835 10 14.75 10H18.25ZM5.75 15.5C5.61193 15.5 5.5 15.6119 5.5 15.75V18.25C5.5 18.3881 5.61193 18.5 5.75 18.5H9.25C9.38807 18.5 9.5 18.3881 9.5 18.25V15.75C9.5 15.6119 9.38807 15.5 9.25 15.5H5.75ZM14.75 11.5C14.6119 11.5 14.5 11.6119 14.5 11.75V18.25C14.5 18.3881 14.6119 18.5 14.75 18.5H18.25C18.3881 18.5 18.5 18.3881 18.5 18.25V11.75C18.5 11.6119 18.3881 11.5 18.25 11.5H14.75ZM9.25 4C10.2165 4 11 4.7835 11 5.75V10.25C11 11.2165 10.2165 12 9.25 12H5.75C4.7835 12 4 11.2165 4 10.25V5.75C4 4.7835 4.7835 4 5.75 4H9.25ZM5.75 5.5C5.61193 5.5 5.5 5.61193 5.5 5.75V10.25C5.5 10.3881 5.61193 10.5 5.75 10.5H9.25C9.38807 10.5 9.5 10.3881 9.5 10.25V5.75C9.5 5.61193 9.38807 5.5 9.25 5.5H5.75ZM18.25 4C19.2165 4 20 4.7835 20 5.75V6.25C20 7.2165 19.2165 8 18.25 8H14.75C13.7835 8 13 7.2165 13 6.25V5.75C13 4.7835 13.7835 4 14.75 4H18.25ZM14.75 5.5C14.6119 5.5 14.5 5.61193 14.5 5.75V6.25C14.5 6.38807 14.6119 6.5 14.75 6.5H18.25C18.3881 6.5 18.5 6.38807 18.5 6.25V5.75C18.5 5.61193 18.3881 5.5 18.25 5.5H14.75Z" fill="black"/>
</svg>
