<svg width="24" height="24" viewBox="0 0 24 24" fill="none" xmlns="http://www.w3.org/2000/svg">
<path d="M12.75 4C14.1116 4 15.2748 4.83739 15.7588 6.02441C17.5834 6.23525 19 7.78585 19 9.66699V9.97461C19.623 10.6227 20 11.53 20 12.5C20 13.4795 19.625 14.3775 19.0059 15.0205C18.9773 15.0502 18.9466 15.0778 18.917 15.1064C18.5907 16.625 17.3261 17.7925 15.7588 17.9736C15.2752 19.1615 14.1122 20 12.75 20H11.25C9.88767 20 8.72376 19.1617 8.24023 17.9736C6.67331 17.7921 5.40819 16.6248 5.08203 15.1064C5.05255 15.078 5.02258 15.05 4.99414 15.0205C4.37499 14.3775 4 13.4795 4 12.5C4 11.53 4.37701 10.6227 5 9.97461V9.66699C5 7.78618 6.41608 6.23568 8.24023 6.02441C8.72417 4.83721 9.88831 4 11.25 4H12.75ZM11.25 5.5C10.4042 5.5 9.69724 6.10095 9.53516 6.89941C9.46413 7.24889 9.15644 7.5 8.7998 7.5H8.66699C7.67664 7.5 6.84247 8.16483 6.58398 9.07227C6.79766 9.02502 7.02023 9 7.25 9C7.66421 9 8 9.33579 8 9.75C8 10.1642 7.66421 10.5 7.25 10.5C6.34917 10.5 5.5 11.3266 5.5 12.5C5.5 13.0965 5.72788 13.6197 6.07422 13.9795C6.12868 14.036 6.18647 14.0887 6.24609 14.1367C6.53598 14.3699 6.88193 14.5 7.25 14.5H7.75C8.16421 14.5 8.5 14.8358 8.5 15.25C8.5 15.6642 8.16421 16 7.75 16H7.28516C7.66044 16.3113 8.14154 16.5 8.66699 16.5H8.7998C9.15644 16.5 9.46413 16.7511 9.53516 17.1006C9.69724 17.8991 10.4042 18.5 11.25 18.5V11.2568C10.871 11.6054 10.4175 11.8813 9.89746 11.9854C9.49142 12.0666 9.09605 11.8034 9.01465 11.3975C8.93344 10.9914 9.19658 10.5961 9.60254 10.5146C9.94093 10.447 10.3565 10.129 10.7129 9.5752C11.0618 9.03303 11.25 8.42224 11.25 8V5.5ZM12.75 12.3633C13.1725 12.1234 13.6213 12 14 12H14.25C14.6642 12 15 12.3358 15 12.75C15 13.1642 14.6642 13.5 14.25 13.5H14C13.8647 13.5 13.5358 13.5854 13.2422 13.8408C12.9767 14.0718 12.75 14.4331 12.75 15V18.5C13.5958 18.5 14.3028 17.8991 14.4648 17.1006C14.5359 16.7511 14.8436 16.5 15.2002 16.5H15.333C15.8585 16.5 16.3396 16.3113 16.7148 16H16.25C15.8358 16 15.5 15.6642 15.5 15.25C15.5 14.8358 15.8358 14.5 16.25 14.5H16.75C17.1181 14.5 17.464 14.3699 17.7539 14.1367C17.8135 14.0887 17.8713 14.036 17.9258 13.9795C18.2721 13.6197 18.5 13.0965 18.5 12.5C18.5 11.3266 17.6508 10.5 16.75 10.5C16.3358 10.5 16 10.1642 16 9.75C16 9.33579 16.3358 9 16.75 9C16.9794 9 17.2017 9.02515 17.415 9.07227C17.1565 8.16497 16.3233 7.5 15.333 7.5H15.2002C14.8436 7.5 14.5359 7.24889 14.4648 6.89941C14.3028 6.10095 13.5958 5.5 12.75 5.5V12.3633Z" fill="black"/>
</svg>
