<svg width="24" height="24" viewBox="0 0 24 24" fill="none" xmlns="http://www.w3.org/2000/svg">
<path fill-rule="evenodd" clip-rule="evenodd" d="M16.6968 4C17.7935 4.0001 18.8102 4.57448 19.3765 5.51367L19.5269 5.7627C20.3562 7.13847 20.1561 8.89841 19.0425 10.0537V18.25C19.0425 19.2164 18.2589 19.9999 17.2925 20H6.71537C5.74907 19.9998 4.96537 19.2164 4.96537 18.25V10.0537C3.84787 8.89871 3.64674 7.13531 4.48002 5.75879L4.63236 5.50781C5.19891 4.57201 6.21323 4.00007 7.30716 4H16.6968ZM7.30716 5.5C6.73813 5.50007 6.21038 5.79749 5.91556 6.28418L5.76322 6.53613C5.28083 7.33336 5.39995 8.35606 6.05228 9.02148C6.31738 9.29208 6.46537 9.65633 6.46537 10.0352V18.25C6.46537 18.3879 6.57749 18.4998 6.71537 18.5H17.2925C17.4305 18.4999 17.5425 18.388 17.5425 18.25V10.0342C17.5426 9.65614 17.6906 9.29303 17.9546 9.02246L18.0699 8.89355C18.6169 8.22934 18.6932 7.28471 18.2427 6.53711L18.0923 6.28809C17.7975 5.79912 17.2678 5.5001 16.6968 5.5H7.30716Z" fill="black"/>
</svg>
