<svg width="24" height="24" viewBox="0 0 24 24" fill="none" xmlns="http://www.w3.org/2000/svg">
<g clip-path="url(#clip0_4152_1143)">
<path d="M17.25 4C18.7688 4 20 5.23122 20 6.75V17.25C20 18.7688 18.7688 20 17.25 20H6.75C5.23122 20 4 18.7688 4 17.25V6.75C4 5.23122 5.23122 4 6.75 4H17.25ZM16 16.5V18.5H17.25C17.9404 18.5 18.5 17.9404 18.5 17.25V16.5H16ZM9.5 18.5H14.5V16.5H9.5V18.5ZM5.5 17.25C5.5 17.9404 6.05964 18.5 6.75 18.5H8V16.5H5.5V17.25ZM34.25 15.5C34.6642 15.5 35 15.8358 35 16.25C35 16.6642 34.6642 17 34.25 17H25.75C25.3358 17 25 16.6642 25 16.25C25 15.8358 25.3358 15.5 25.75 15.5H34.25ZM13.5 13V15H18.5V13H13.5ZM5.5 15H12V13H5.5V15ZM16 9V11.5H18.5V9H16ZM5.5 11.5H8V9H5.5V11.5ZM9.5 11.5H14.5V9H9.5V11.5ZM12.5 7.5H18.5V6.75C18.5 6.05964 17.9404 5.5 17.25 5.5H12.5V7.5ZM6.75 5.5C6.05964 5.5 5.5 6.05964 5.5 6.75V7.5H11V5.5H6.75Z" fill="black"/>
</g>
<defs>
<clipPath id="clip0_4152_1143">
<rect width="24" height="24" fill="white"/>
</clipPath>
</defs>
</svg>
