<svg width="24" height="24" viewBox="0 0 24 24" fill="none" xmlns="http://www.w3.org/2000/svg">
<path d="M13.25 4C14.7688 4 16 5.23122 16 6.75V7H17.25C18.7688 7 20 8.23122 20 9.75V17.25C20 18.7688 18.7688 20 17.25 20H6.75C5.23122 20 4 18.7688 4 17.25V9.75C4 8.23122 5.23122 7 6.75 7H8V6.75C8 5.23122 9.23122 4 10.75 4H13.25ZM5.5 17.25C5.5 17.9404 6.05964 18.5 6.75 18.5H17.25C17.9404 18.5 18.5 17.9404 18.5 17.25V14H16V14.25C16 14.6642 15.6642 15 15.25 15C14.8358 15 14.5 14.6642 14.5 14.25V14H9.5V14.25C9.5 14.6642 9.16421 15 8.75 15C8.33579 15 8 14.6642 8 14.25V14H5.5V17.25ZM6.75 8.5C6.05964 8.5 5.5 9.05964 5.5 9.75V12.5H8V11.75C8 11.3358 8.33579 11 8.75 11C9.16421 11 9.5 11.3358 9.5 11.75V12.5H14.5V11.75C14.5 11.3358 14.8358 11 15.25 11C15.6642 11 16 11.3358 16 11.75V12.5H18.5V9.75C18.5 9.05964 17.9404 8.5 17.25 8.5H6.75ZM10.75 5.5C10.0596 5.5 9.5 6.05964 9.5 6.75V7H14.5V6.75C14.5 6.05964 13.9404 5.5 13.25 5.5H10.75Z" fill="black"/>
</svg>
