<svg width="24" height="24" viewBox="0 0 24 24" fill="none" xmlns="http://www.w3.org/2000/svg">
<path d="M12 17C12.4142 17 12.75 17.3358 12.75 17.75V19.25C12.75 19.6642 12.4142 20 12 20C11.5858 20 11.25 19.6642 11.25 19.25V17.75C11.25 17.3358 11.5858 17 12 17ZM7.46973 15.4697C7.76261 15.1768 8.23738 15.1769 8.53027 15.4697C8.82317 15.7626 8.82317 16.2374 8.53027 16.5303L7.4043 17.6572C7.1114 17.9501 6.63567 17.9501 6.34277 17.6572C6.05006 17.3645 6.05035 16.8896 6.34277 16.5967L7.46973 15.4697ZM15.4697 15.4697C15.7626 15.1768 16.2374 15.1768 16.5303 15.4697L17.6572 16.5967C17.9497 16.8896 17.95 17.3645 17.6572 17.6572C17.3645 17.95 16.8896 17.9497 16.5967 17.6572L15.4697 16.5303C15.1768 16.2374 15.1769 15.7626 15.4697 15.4697ZM12 8C14.2091 8 16 9.79086 16 12C16 14.2091 14.2091 16 12 16C9.79089 16 8 14.2091 8 12C8 9.79088 9.79089 8.00003 12 8ZM12 9.5C10.6193 9.50003 9.5 10.6193 9.5 12C9.5 13.3807 10.6193 14.5 12 14.5C13.3807 14.5 14.5 13.3807 14.5 12C14.5 10.6193 13.3807 9.5 12 9.5ZM6.25 11.25C6.66421 11.25 7 11.5858 7 12C6.99977 12.414 6.66407 12.75 6.25 12.75H4.75C4.33593 12.75 4.00023 12.414 4 12C4 11.5858 4.33579 11.25 4.75 11.25H6.25ZM19.25 11.25C19.6642 11.25 20 11.5858 20 12C19.9998 12.414 19.6641 12.75 19.25 12.75H17.75C17.3359 12.75 17.0002 12.414 17 12C17 11.5858 17.3358 11.25 17.75 11.25H19.25ZM6.34277 6.34277C6.63567 6.04988 7.1114 6.04988 7.4043 6.34277L8.53027 7.46973C8.82317 7.76262 8.82317 8.23738 8.53027 8.53027C8.23738 8.82314 7.76261 8.82316 7.46973 8.53027L6.34277 7.40332C6.05035 7.1104 6.05006 6.63552 6.34277 6.34277ZM16.5967 6.34277C16.8896 6.05029 17.3645 6.05004 17.6572 6.34277C17.95 6.63553 17.9497 7.11039 17.6572 7.40332L16.5303 8.53027C16.2374 8.82317 15.7626 8.82317 15.4697 8.53027C15.1769 8.23738 15.1768 7.76261 15.4697 7.46973L16.5967 6.34277ZM12 4C12.4142 4 12.75 4.33579 12.75 4.75V6.25C12.75 6.66421 12.4142 7 12 7C11.5858 6.99997 11.25 6.66419 11.25 6.25V4.75C11.25 4.33581 11.5858 4.00003 12 4Z" fill="black"/>
</svg>
