<svg width="24" height="24" viewBox="0 0 24 24" fill="none" xmlns="http://www.w3.org/2000/svg">
<path d="M12 18C12.4142 18 12.75 18.3358 12.75 18.75V19.25C12.75 19.6642 12.4142 20 12 20C11.5858 20 11.25 19.6642 11.25 19.25V18.75C11.25 18.3358 11.5858 18 12 18ZM6.96973 15.9697C7.26264 15.6772 7.73751 15.677 8.03027 15.9697C8.32303 16.2625 8.32277 16.7373 8.03027 17.0303L7.4043 17.6572C7.1114 17.9501 6.63567 17.9501 6.34277 17.6572C6.05006 17.3645 6.05035 16.8896 6.34277 16.5967L6.96973 15.9697ZM15.9697 15.9697C16.2626 15.6769 16.7374 15.6769 17.0303 15.9697L17.6572 16.5967C17.9497 16.8896 17.95 17.3645 17.6572 17.6572C17.3645 17.95 16.8896 17.9497 16.5967 17.6572L15.9697 17.0303C15.6769 16.7374 15.6769 16.2626 15.9697 15.9697ZM12 9C13.6569 9 15 10.3431 15 12C15 13.6569 13.6569 15 12 15C10.3432 15 9 13.6568 9 12C9 10.3432 10.3432 9.00003 12 9ZM12 10.5C11.1716 10.5 10.5 11.1716 10.5 12C10.5 12.8284 11.1716 13.5 12 13.5C12.8284 13.5 13.5 12.8284 13.5 12C13.5 11.1716 12.8284 10.5 12 10.5ZM5.25 11.25C5.66421 11.25 6 11.5858 6 12C5.99977 12.414 5.66407 12.75 5.25 12.75H4.75C4.33593 12.75 4.00023 12.414 4 12C4 11.5858 4.33579 11.25 4.75 11.25H5.25ZM19.25 11.25C19.6642 11.25 20 11.5858 20 12C19.9998 12.414 19.6641 12.75 19.25 12.75H18.75C18.3359 12.75 18.0002 12.414 18 12C18 11.5858 18.3358 11.25 18.75 11.25H19.25ZM6.34277 6.34277C6.63567 6.04988 7.1114 6.04988 7.4043 6.34277L8.03027 6.96973C8.32317 7.26262 8.32317 7.73738 8.03027 8.03027C7.73738 8.32314 7.26261 8.32316 6.96973 8.03027L6.34277 7.40332C6.05035 7.1104 6.05006 6.63552 6.34277 6.34277ZM16.5967 6.34277C16.8896 6.05029 17.3645 6.05004 17.6572 6.34277C17.95 6.63553 17.9497 7.11039 17.6572 7.40332L17.0303 8.03027C16.7374 8.32317 16.2626 8.32317 15.9697 8.03027C15.6769 7.73738 15.6768 7.26261 15.9697 6.96973L16.5967 6.34277ZM12 4C12.4142 4 12.75 4.33579 12.75 4.75V5.25C12.75 5.66421 12.4142 6 12 6C11.5858 5.99997 11.25 5.66419 11.25 5.25V4.75C11.25 4.33581 11.5858 4.00003 12 4Z" fill="black"/>
</svg>
