<svg width="24" height="24" viewBox="0 0 24 24" fill="none" xmlns="http://www.w3.org/2000/svg">
<path d="M4.75 17C5.16421 17 5.5 17.3358 5.5 17.75V18.25C5.5 18.3881 5.61193 18.5 5.75 18.5H6.25C6.66421 18.5 7 18.8358 7 19.25C7 19.6642 6.66421 20 6.25 20H5.75C4.7835 20 4 19.2165 4 18.25V17.75C4 17.3358 4.33579 17 4.75 17ZM10.25 18.5C10.6642 18.5 11 18.8358 11 19.25C11 19.6642 10.6642 20 10.25 20H9.75C9.33579 20 9 19.6642 9 19.25C9 18.8358 9.33579 18.5 9.75 18.5H10.25ZM14.25 18.5C14.6642 18.5 15 18.8358 15 19.25C15 19.6642 14.6642 20 14.25 20H13.75C13.3358 20 13 19.6642 13 19.25C13 18.8358 13.3358 18.5 13.75 18.5H14.25ZM17.25 4C18.7688 4 20 5.23122 20 6.75V13.25C20 14.7688 18.7688 16 17.25 16H10.75C9.23122 16 8 14.7688 8 13.25V6.75C8 5.23122 9.23122 4 10.75 4H17.25ZM4.75 13C5.16421 13 5.5 13.3358 5.5 13.75V14.25C5.5 14.6642 5.16421 15 4.75 15C4.33579 15 4 14.6642 4 14.25V13.75C4 13.3358 4.33579 13 4.75 13ZM10.75 5.5C10.0596 5.5 9.5 6.05964 9.5 6.75V13.25C9.5 13.9404 10.0596 14.5 10.75 14.5H17.25C17.9404 14.5 18.5 13.9404 18.5 13.25V6.75C18.5 6.05964 17.9404 5.5 17.25 5.5H10.75ZM4.75 9C5.16421 9 5.5 9.33579 5.5 9.75V10.25C5.5 10.6642 5.16421 11 4.75 11C4.33579 11 4 10.6642 4 10.25V9.75C4 9.33579 4.33579 9 4.75 9Z" fill="black"/>
</svg>
