<svg width="24" height="24" viewBox="0 0 24 24" fill="none" xmlns="http://www.w3.org/2000/svg">
<path fill-rule="evenodd" clip-rule="evenodd" d="M12.0001 13.0005C12.4143 13.0005 12.7501 13.3363 12.7501 13.7505V19.2505C12.7499 19.6645 12.4142 20.0005 12.0001 20.0005C11.586 20.0005 11.2503 19.6645 11.2501 19.2505V13.7505C11.2501 13.3363 11.5859 13.0005 12.0001 13.0005ZM7.93467 4.87354L7.40342 5.40381C4.86534 7.94212 4.86541 12.0578 7.40342 14.5962L7.93467 15.1265L6.87315 16.187L6.34287 15.6567C3.21908 12.5326 3.219 7.46736 6.34287 4.34326L6.87315 3.81299L7.93467 4.87354ZM17.6573 4.34326C20.7812 7.46735 20.7811 12.5326 17.6573 15.6567L17.1271 16.187L16.0665 15.1265L16.5968 14.5962C19.1348 12.0578 19.1349 7.94211 16.5968 5.40381L16.0665 4.87354L17.1271 3.81299L17.6573 4.34326ZM10.0558 6.99463L9.52549 7.5249C8.15867 8.89172 8.15871 11.1083 9.52549 12.4751L10.0558 13.0054L8.99522 14.0659L8.46494 13.5356C6.51238 11.583 6.51234 8.41696 8.46494 6.46436L8.99522 5.93408L10.0558 6.99463ZM15.5353 6.46436C17.4879 8.41698 17.4879 11.583 15.5353 13.5356L15.005 14.0659L13.9444 13.0054L14.4747 12.4751C15.8415 11.1083 15.8415 8.89174 14.4747 7.5249L13.9444 6.99463L15.005 5.93408L15.5353 6.46436ZM12.0001 9.00049C12.5524 9.00049 13.0001 9.4482 13.0001 10.0005C12.9999 10.5526 12.5523 11.0005 12.0001 11.0005C11.4479 11.0005 11.0003 10.5526 11.0001 10.0005C11.0001 9.4482 11.4478 9.00049 12.0001 9.00049Z" fill="black"/>
</svg>
