<svg width="24" height="24" viewBox="0 0 24 24" fill="none" xmlns="http://www.w3.org/2000/svg">
<path d="M15.5 4C16.7245 4 17.7411 4.88071 17.9561 6.04297C19.1189 6.25743 20 7.27514 20 8.5C20 9.88071 18.8807 11 17.5 11C17.0448 11 16.6186 10.8766 16.251 10.6641L10.6641 16.251C10.8766 16.6186 11 17.0448 11 17.5C11 18.8807 9.88071 20 8.5 20C7.27514 20 6.25743 19.1189 6.04297 17.9561C4.88071 17.7411 4 16.7245 4 15.5C4 14.1193 5.11929 13 6.5 13C6.94644 13 7.36478 13.1192 7.72754 13.3242L9.45312 11.4863L9.53223 11.4141C9.72586 11.2594 9.98591 11.2089 10.2266 11.2852L11.7754 11.7754L11.2852 10.2266C11.198 9.9515 11.276 9.65066 11.4863 9.45312L13.3242 7.72754C13.1192 7.36478 13 6.94644 13 6.5C13 5.11929 14.1193 4 15.5 4ZM8.35449 14.8496C8.21047 15.0031 8.00828 15.0896 7.79785 15.0869C7.58729 15.0842 7.38712 14.9922 7.24707 14.835C7.06284 14.6283 6.79683 14.5 6.5 14.5C5.94772 14.5 5.5 14.9477 5.5 15.5C5.5 16.0523 5.94772 16.5 6.5 16.5C6.55327 16.5 6.6051 16.4961 6.65527 16.4883C6.89174 16.4515 7.13157 16.53 7.30078 16.6992C7.46999 16.8684 7.54846 17.1083 7.51172 17.3447C7.50395 17.3949 7.5 17.4467 7.5 17.5C7.5 18.0523 7.94772 18.5 8.5 18.5C9.05228 18.5 9.5 18.0523 9.5 17.5C9.5 17.2032 9.37174 16.9372 9.16504 16.7529C9.01099 16.6157 8.92015 16.421 8.91406 16.2148C8.9081 16.0085 8.98685 15.8081 9.13281 15.6621L11.5244 13.2695L10.2236 12.8574L8.35449 14.8496ZM15.5 5.5C14.9477 5.5 14.5 5.94772 14.5 6.5C14.5 6.79683 14.6283 7.06284 14.835 7.24707C14.9922 7.38712 15.0842 7.58729 15.0869 7.79785C15.0896 8.00828 15.0031 8.21047 14.8496 8.35449L12.8574 10.2236L13.2695 11.5244L15.6621 9.13281C15.8081 8.98685 16.0085 8.9081 16.2148 8.91406C16.421 8.92015 16.6157 9.01099 16.7529 9.16504C16.9372 9.37174 17.2032 9.5 17.5 9.5C18.0523 9.5 18.5 9.05228 18.5 8.5C18.5 7.94772 18.0523 7.5 17.5 7.5C17.4467 7.5 17.3949 7.50395 17.3447 7.51172C17.1083 7.54846 16.8684 7.46999 16.6992 7.30078C16.53 7.13157 16.4515 6.89174 16.4883 6.65527C16.4961 6.6051 16.5 6.55327 16.5 6.5C16.5 5.94772 16.0523 5.5 15.5 5.5ZM7.25 9.25C7.66421 9.25 8 9.58579 8 10C8 10.4142 7.66421 10.75 7.25 10.75H5.75C5.33579 10.75 5 10.4142 5 10C5 9.58579 5.33579 9.25 5.75 9.25H7.25ZM10 5C10.4142 5 10.75 5.33579 10.75 5.75V7.25C10.75 7.66421 10.4142 8 10 8C9.58579 8 9.25 7.66421 9.25 7.25V5.75C9.25 5.33579 9.58579 5 10 5Z" fill="black"/>
</svg>
