<svg width="24" height="24" viewBox="0 0 24 24" fill="none" xmlns="http://www.w3.org/2000/svg">
<path d="M18.6738 17.2695C18.939 16.9515 19.4123 16.9087 19.7305 17.1738C20.0485 17.439 20.0913 17.9123 19.8262 18.2305L18.5762 19.7305C18.4337 19.9013 18.2225 20 18 20C17.7775 20 17.5663 19.9013 17.4238 19.7305L16.1738 18.2305C15.9087 17.9123 15.9515 17.439 16.2695 17.1738C16.5877 16.9087 17.061 16.9515 17.3262 17.2695L18 18.0781L18.6738 17.2695ZM17.25 5C18.7688 5 20 6.23122 20 7.75V8.25C20 8.66421 19.6642 9 19.25 9H5.5V16.25C5.5 16.9404 6.05964 17.5 6.75 17.5H13.25C13.6642 17.5 14 17.8358 14 18.25C14 18.6642 13.6642 19 13.25 19H6.75C5.23122 19 4 17.7688 4 16.25V7.75C4 6.23122 5.23122 5 6.75 5H17.25ZM18 11C18.2225 11 18.4337 11.0987 18.5762 11.2695L19.8262 12.7695C20.0913 13.0877 20.0485 13.561 19.7305 13.8262C19.4123 14.0913 18.939 14.0485 18.6738 13.7305L18 12.9219L17.3262 13.7305C17.061 14.0485 16.5877 14.0913 16.2695 13.8262C15.9515 13.561 15.9087 13.0877 16.1738 12.7695L17.4238 11.2695C17.5663 11.0987 17.7775 11 18 11ZM6.75 6.5C6.14529 6.5 5.64124 6.92948 5.52539 7.5H18.4746C18.3588 6.92948 17.8547 6.5 17.25 6.5H6.75Z" fill="black"/>
</svg>
