<svg width="24" height="24" viewBox="0 0 24 24" fill="none" xmlns="http://www.w3.org/2000/svg">
<path d="M16.25 4C18.3211 4 20 5.67893 20 7.75V16.25C20 18.3211 18.3211 20 16.25 20H7.75C5.67893 20 4 18.3211 4 16.25V7.75C4 5.67893 5.67893 4 7.75 4H16.25ZM7.75 5.5C6.50736 5.5 5.5 6.50736 5.5 7.75V16.25C5.5 17.4926 6.50736 18.5 7.75 18.5H16.25C17.4926 18.5 18.5 17.4926 18.5 16.25V9H10.75C9.7835 9 9 8.2165 9 7.25V5.5H7.75ZM10.5 7.25C10.5 7.38807 10.6119 7.5 10.75 7.5H13.5V5.5H10.5V7.25ZM15 7.5H18.4854C18.3609 6.37506 17.4081 5.5 16.25 5.5H15V7.5Z" fill="black"/>
</svg>
