<svg width="24" height="24" viewBox="0 0 24 24" fill="none" xmlns="http://www.w3.org/2000/svg">
<path d="M13.6162 4C14.9325 4 16 5.06751 16 6.38379C15.9998 7.40015 15.419 8.27873 14.5723 8.71191C15.165 9.06823 15.6766 9.5446 16.0762 10.1064L17.8428 9.15625C18.2476 8.93827 18.4999 8.51542 18.5 8.05566V5H20V8.05566C19.9999 9.06724 19.4444 9.99696 18.5537 10.4766L16.752 11.4453C16.912 11.9348 17 12.4571 17 13V14.1328L18.1895 14.5664C19.2761 14.9615 19.9998 15.9942 20 17.1504V20H18.5V17.1504C18.4998 16.6249 18.1706 16.1561 17.6768 15.9766L16.9482 15.7109C16.603 18.1355 14.52 20 12 20C9.47996 20 7.39597 18.1356 7.05078 15.7109L6.32324 15.9766C5.8294 16.1561 5.50019 16.6249 5.5 17.1504V20H4V17.1504C4.00019 15.9942 4.72392 14.9615 5.81055 14.5664L7 14.1328V13C7 12.4572 7.08709 11.9347 7.24707 11.4453L5.44629 10.4766C4.55562 9.99696 4.00009 9.06724 4 8.05566V5H5.5V8.05566C5.50009 8.51542 5.75242 8.93827 6.15723 9.15625L7.92285 10.1064C8.3223 9.54463 8.83418 9.06828 9.42676 8.71191C8.58047 8.27859 8.00017 7.39984 8 6.38379C8 5.06751 9.06751 4 10.3838 4H13.6162ZM11.25 9.58105C9.67746 9.92443 8.5 11.3245 8.5 13V15C8.5 16.6754 9.67756 18.0745 11.25 18.418V9.58105ZM12.75 18.418C14.3224 18.0745 15.5 16.6754 15.5 15V13C15.5 11.3245 14.3225 9.92443 12.75 9.58105V18.418ZM10.3838 5.5C9.89594 5.5 9.5 5.89594 9.5 6.38379C9.50025 7.00015 9.99985 7.49975 10.6162 7.5H13.3838C14.0001 7.49975 14.4998 7.00015 14.5 6.38379C14.5 5.89594 14.1041 5.5 13.6162 5.5H10.3838Z" fill="black"/>
</svg>
