<svg width="24" height="24" viewBox="0 0 24 24" fill="none" xmlns="http://www.w3.org/2000/svg">
<path d="M13.75 4C13.9725 4 14.1837 4.09865 14.3262 4.26953L16.8262 7.26953C16.9385 7.40432 17 7.57455 17 7.75V9.67676L19.7734 12.3799C19.9182 12.521 20 12.7148 20 12.917V19.25C20 19.6642 19.6642 20 19.25 20H4.75C4.33579 20 4 19.6642 4 19.25V7.75C4 7.57455 4.06151 7.40432 4.17383 7.26953L6.67383 4.26953L6.73047 4.20898C6.86936 4.07559 7.05531 4 7.25 4H13.75ZM5.5 8.02148V18.5H12V12.917C12 12.7148 12.0818 12.521 12.2266 12.3799L15.4766 9.21289L15.5 9.19336V8.02148L13.3984 5.5H7.60156L5.5 8.02148ZM13.5 13.2324V18.5H18.5V13.2324L16 10.7969L13.5 13.2324ZM7.75 13C8.16421 13 8.5 13.3358 8.5 13.75V15.25C8.5 15.6642 8.16421 16 7.75 16C7.33579 16 7 15.6642 7 15.25V13.75C7 13.3358 7.33579 13 7.75 13ZM7.75 8C8.16421 8 8.5 8.33579 8.5 8.75V10.25C8.5 10.6642 8.16421 11 7.75 11C7.33579 11 7 10.6642 7 10.25V8.75C7 8.33579 7.33579 8 7.75 8ZM10.75 8C11.1642 8 11.5 8.33579 11.5 8.75V10.25C11.5 10.6642 11.1642 11 10.75 11C10.3358 11 10 10.6642 10 10.25V8.75C10 8.33579 10.3358 8 10.75 8Z" fill="black"/>
</svg>
