<svg width="24" height="24" viewBox="0 0 24 24" fill="none" xmlns="http://www.w3.org/2000/svg">
<path d="M9 4C9.22003 4 9.42879 4.097 9.57129 4.26465L13.3457 8.7041C13.7682 9.20128 14 9.83288 14 10.4854V12.25H19.25C19.6642 12.25 20 12.5858 20 13V18.25C20 19.2165 19.2165 20 18.25 20H5.75C4.7835 20 4 19.2165 4 18.25V10.4854C4 9.83288 4.23177 9.20128 4.6543 8.7041L8.42871 4.26465L8.48535 4.20508C8.62381 4.0743 8.8075 4 9 4ZM5.79785 9.67578C5.60575 9.90178 5.5 10.1887 5.5 10.4854V18.25C5.5 18.3881 5.61193 18.5 5.75 18.5H12.5V10.4854C12.5 10.1887 12.3942 9.90178 12.2021 9.67578L9 5.90723L5.79785 9.67578ZM14 18.5H18.25C18.3881 18.5 18.5 18.3881 18.5 18.25V13.75H14V18.5ZM9 9C10.1046 9 11 9.89543 11 11C11 12.1046 10.1046 13 9 13C7.89543 13 7 12.1046 7 11C7 9.89543 7.89543 9 9 9ZM9 10.5C8.72386 10.5 8.5 10.7239 8.5 11C8.5 11.2761 8.72386 11.5 9 11.5C9.27614 11.5 9.5 11.2761 9.5 11C9.5 10.7239 9.27614 10.5 9 10.5Z" fill="black"/>
</svg>
