<svg width="24" height="24" viewBox="0 0 24 24" fill="none" xmlns="http://www.w3.org/2000/svg">
<path d="M11.25 3.99951C12.2165 3.99951 13 4.78301 13 5.74951V6.99951H18.25C19.2165 6.99951 20 7.78301 20 8.74951V18.2495C20 19.216 19.2165 19.9995 18.25 19.9995H5.75C4.7835 19.9995 4 19.216 4 18.2495V5.74951C4 4.78301 4.7835 3.99951 5.75 3.99951H11.25ZM5.75 5.49951C5.61193 5.49951 5.5 5.61144 5.5 5.74951V18.2495C5.5 18.3876 5.61193 18.4995 5.75 18.4995H11.5V5.74951C11.5 5.61144 11.3881 5.49951 11.25 5.49951H5.75ZM13 18.4995H18.25C18.3881 18.4995 18.5 18.3876 18.5 18.2495V8.74951C18.5 8.61144 18.3881 8.49951 18.25 8.49951H13V18.4995ZM16.25 13.0249C16.6642 13.0249 17 13.3607 17 13.7749C17 14.1891 16.6642 14.5249 16.25 14.5249H14.75C14.3358 14.5249 14 14.1891 14 13.7749C14 13.3607 14.3358 13.0249 14.75 13.0249H16.25ZM9.25 10.0249C9.66421 10.0249 10 10.3607 10 10.7749C10 11.1891 9.66421 11.5249 9.25 11.5249H7.75C7.33579 11.5249 7 11.1891 7 10.7749C7 10.3607 7.33579 10.0249 7.75 10.0249H9.25ZM16.25 10.0249C16.6642 10.0249 17 10.3607 17 10.7749C17 11.1891 16.6642 11.5249 16.25 11.5249H14.75C14.3358 11.5249 14 11.1891 14 10.7749C14 10.3607 14.3358 10.0249 14.75 10.0249H16.25ZM9.25 7.0249C9.66421 7.0249 10 7.36069 10 7.7749C10 8.18912 9.66421 8.5249 9.25 8.5249H7.75C7.33579 8.5249 7 8.18912 7 7.7749C7 7.36069 7.33579 7.0249 7.75 7.0249H9.25Z" fill="black"/>
</svg>
