<svg width="24" height="24" viewBox="0 0 24 24" fill="none" xmlns="http://www.w3.org/2000/svg">
<path d="M16.7119 4.25C17.7903 4.25 18.7696 4.88063 19.2158 5.8623L19.7539 7.04492C19.7943 7.1339 19.8298 7.22495 19.8604 7.31738C19.9473 7.43983 20 7.58839 20 7.75C20 7.8256 19.9958 7.90143 19.9912 7.97754C19.9963 8.04604 20 8.11471 20 8.18359V17.25C20 18.7688 18.7688 20 17.25 20H6.75C5.23133 19.9999 4 18.7687 4 17.25V8.18359C4 8.11474 4.00269 8.046 4.00781 7.97754C4.00327 7.90145 4 7.82558 4 7.75C4 7.58761 4.05291 7.4382 4.14062 7.31543C4.17107 7.22368 4.20595 7.13326 4.24609 7.04492L4.78418 5.8623C5.23039 4.88064 6.20979 4.2501 7.28809 4.25H16.7119ZM14.5 9.8125C13.9306 10.513 13.0664 11 12 11C10.9336 11 10.0694 10.513 9.5 9.8125C8.93062 10.513 8.0664 11 7 11C6.42512 11 5.92188 10.8547 5.5 10.6064V17.25C5.5 17.9403 6.05976 18.4999 6.75 18.5H9V15.749C9 14.2302 10.2312 12.999 11.75 12.999H12.25C13.7686 12.9993 15 14.2304 15 15.749V18.5H17.25C17.9404 18.5 18.5 17.9404 18.5 17.25V10.6064C18.0781 10.8547 17.5749 11 17 11C15.9336 11 15.0694 10.513 14.5 9.8125ZM11.75 14.499C11.0596 14.499 10.5 15.0587 10.5 15.749V18.499H13.5V15.749C13.5 15.0588 12.9401 14.4993 12.25 14.499H11.75ZM7.28809 5.75C6.79804 5.7501 6.35224 6.03631 6.14941 6.48242L5.6123 7.66602C5.56358 7.77322 5.53167 7.88691 5.51465 8.00293C5.55644 8.387 5.6914 8.73871 5.89844 8.99805C6.13504 9.29438 6.48429 9.5 7 9.5C8.03656 9.5 8.75 8.62943 8.75 7.75C8.75 7.33579 9.08579 7 9.5 7C9.91421 7 10.25 7.33579 10.25 7.75C10.25 8.62943 10.9634 9.5 12 9.5C13.0366 9.5 13.75 8.62943 13.75 7.75C13.75 7.33579 14.0858 7 14.5 7C14.9142 7 15.25 7.33579 15.25 7.75C15.25 8.62943 15.9634 9.5 17 9.5C17.5157 9.5 17.865 9.29438 18.1016 8.99805C18.3091 8.73809 18.4429 8.38515 18.4844 8C18.4672 7.88502 18.436 7.7723 18.3877 7.66602L17.8506 6.48242C17.6477 6.03629 17.202 5.75 16.7119 5.75H7.28809Z" fill="black"/>
</svg>
