<svg width="24" height="24" viewBox="0 0 24 24" fill="none" xmlns="http://www.w3.org/2000/svg">
<path d="M7.24998 16C7.6642 16 7.99998 16.3358 7.99998 16.75V17H7.24998C7.99998 17 7.99999 17.0006 7.99998 17.001V17.0186C7.99985 17.0269 7.99942 17.0373 7.99901 17.0498C7.99816 17.0751 7.99704 17.1095 7.99413 17.1504C7.98831 17.2318 7.97697 17.3431 7.95506 17.4746C7.91174 17.7346 7.82314 18.0928 7.63963 18.46C7.45452 18.8302 7.16499 19.2237 6.71678 19.5225C6.26388 19.8244 5.69372 20 4.99998 20H4.74998C4.33578 20 3.99998 19.6642 3.99998 19.25C3.99998 18.8358 4.33578 18.5 4.74998 18.5H4.99998C5.43124 18.5 5.70484 18.3944 5.88475 18.2744C6.06923 18.1514 6.20171 17.9822 6.29784 17.79C6.39538 17.595 6.44761 17.3903 6.47459 17.2285C6.48778 17.1494 6.49408 17.0846 6.49706 17.043C6.49852 17.0224 6.49973 17.0076 6.49998 17V16.75C6.49998 16.3358 6.83578 16 7.24998 16ZM4.22948 7.20996C4.42023 7.02611 4.69378 6.95694 4.9492 7.02734L10.0742 8.44043L15.1992 9.85449L19.4492 11.0273C19.6967 11.0956 19.8918 11.2857 19.9668 11.5312C20.0417 11.7767 19.9863 12.0434 19.8193 12.2383L16.8193 15.7383C16.6383 15.9494 16.3552 16.043 16.084 15.9814C15.8126 15.9197 15.5973 15.7122 15.5254 15.4434L14.6064 12.0107L11.7744 14.7861C11.5842 14.9722 11.3095 15.0436 11.0527 14.9736C10.7959 14.9036 10.5958 14.7023 10.5264 14.4453L9.48729 10.6025L6.52733 13.5332C6.33472 13.7237 6.05441 13.7951 5.79393 13.7207C5.53342 13.6462 5.3333 13.4374 5.27049 13.1738L4.02049 7.92383C3.95907 7.66586 4.03868 7.39412 4.22948 7.20996ZM16.6064 13.6807L17.9111 12.1582L16.0625 11.6484L16.6064 13.6807ZM11.6387 12.8184L13.5439 10.9531L10.9414 10.2354L11.6387 12.8184ZM6.41991 11.5283L8.42674 9.54199L5.77245 8.80957L6.41991 11.5283ZM15.75 4C16.1642 4 16.5 4.33579 16.5 4.75C16.5 5.88993 17.1394 6.55496 17.8721 6.97363C18.2425 7.1853 18.62 7.32169 18.9092 7.4043C19.0522 7.44517 19.1705 7.47207 19.25 7.48828C19.2894 7.49631 19.3196 7.50175 19.3379 7.50488C19.3467 7.5064 19.3533 7.50732 19.3564 7.50781C19.7663 7.56659 20.0507 7.94653 19.9922 8.35645C19.9371 8.74055 19.6003 9.01433 19.2207 8.99902L19.1435 8.99219H19.1406C19.1395 8.99202 19.1382 8.99143 19.1367 8.99121C19.1334 8.99071 19.129 8.99004 19.124 8.98926C19.1139 8.98768 19.1004 8.98524 19.084 8.98242C19.0511 8.97678 19.0052 8.96846 18.9492 8.95703C18.8373 8.93419 18.6818 8.89848 18.4971 8.8457C18.13 8.74081 17.6324 8.56462 17.1279 8.27637C16.1106 7.69504 15 6.61 15 4.75C15 4.33579 15.3358 4.00001 15.75 4Z" fill="black"/>
</svg>
