<svg width="24" height="24" viewBox="0 0 24 24" fill="none" xmlns="http://www.w3.org/2000/svg">
<path d="M19.3271 12.0039L19.3682 12.0098C19.3701 12.0101 19.3721 12.0104 19.374 12.0107C19.4033 12.0156 19.431 12.0251 19.459 12.0332C19.4793 12.0391 19.4997 12.0441 19.5195 12.0518C19.5494 12.0633 19.5776 12.0777 19.6055 12.0928C19.6227 12.1021 19.6406 12.1103 19.6572 12.1211C19.6643 12.1257 19.6708 12.1309 19.6777 12.1357C19.7066 12.1559 19.7352 12.1774 19.7617 12.2021C19.7658 12.2059 19.7695 12.21 19.7734 12.2139C19.7779 12.2182 19.7818 12.2231 19.7861 12.2275C19.8151 12.2572 19.8412 12.2883 19.8643 12.3213C19.8859 12.3522 19.9031 12.3858 19.9199 12.4199C19.9246 12.4293 19.9313 12.4377 19.9355 12.4473C19.9487 12.4769 19.9566 12.5085 19.9658 12.54C19.9705 12.5561 19.9769 12.5716 19.9805 12.5879C19.992 12.6402 20 12.6942 20 12.75V18.25C20 18.5353 19.8378 18.7964 19.582 18.9229C19.3263 19.049 19.0205 19.0189 18.7939 18.8457L14.8711 15.8457L12.6465 19.6299C12.5117 19.859 12.2658 20 12 20C11.7342 20 11.4883 19.859 11.3535 19.6299L9.12695 15.8467L5.20605 18.8457C4.9795 19.0189 4.6737 19.049 4.41797 18.9229C4.16216 18.7964 4 18.5353 4 18.25V13C4 12.9571 4.00381 12.915 4.01074 12.874C3.97076 12.6346 4.04748 12.3804 4.23828 12.2021C4.54083 11.9196 5.01409 11.9361 5.29688 12.2383C5.29813 12.2395 5.30081 12.2403 5.30273 12.2422C5.31223 12.2516 5.32973 12.2685 5.35547 12.292C5.40732 12.3392 5.49215 12.4135 5.6123 12.5049C5.85259 12.6876 6.23374 12.9414 6.76953 13.1992C7.83783 13.7133 9.53928 14.25 12 14.25C14.4607 14.25 16.1622 13.7133 17.2305 13.1992C17.7663 12.9414 18.1474 12.6876 18.3877 12.5049C18.5079 12.4135 18.5927 12.3392 18.6445 12.292C18.6703 12.2685 18.6878 12.2516 18.6973 12.2422C18.699 12.2405 18.701 12.2395 18.7021 12.2383V12.2373H18.7031L18.7041 12.2363L18.7051 12.2344H18.7061C18.7088 12.2315 18.7111 12.2284 18.7139 12.2256C18.7182 12.2211 18.7231 12.2172 18.7275 12.2129C18.7572 12.184 18.7884 12.1578 18.8213 12.1348C18.8522 12.1132 18.8858 12.0959 18.9199 12.0791C18.9293 12.0745 18.9377 12.0677 18.9473 12.0635C18.9769 12.0504 19.0085 12.0424 19.04 12.0332C19.0561 12.0285 19.0716 12.0222 19.0879 12.0186C19.131 12.0091 19.1752 12.0027 19.2207 12.001C19.2227 12.0009 19.2246 12.001 19.2266 12.001C19.2344 12.0007 19.2422 12 19.25 12C19.276 12 19.3018 12.0013 19.3271 12.0039ZM13.2139 15.7061C12.8279 15.7331 12.4235 15.75 12 15.75C11.5761 15.75 11.1714 15.7331 10.7852 15.7061L12 17.7705L13.2139 15.7061ZM5.5 16.7314L7.59668 15.1279C7.03015 14.9514 6.53879 14.7527 6.11914 14.5508C5.89067 14.4408 5.68573 14.3273 5.5 14.2197V16.7314ZM18.5 14.2197C18.3143 14.3273 18.1093 14.4408 17.8809 14.5508C17.461 14.7528 16.9693 14.9513 16.4023 15.1279L18.5 16.7314V14.2197ZM5.2959 12.2363L5.29688 12.2373V12.2383C5.29505 12.2364 5.29438 12.2348 5.29395 12.2344H5.29492L5.2959 12.2363ZM19.3271 4.00391L19.3682 4.00977C19.3701 4.01008 19.3721 4.01042 19.374 4.01074C19.4033 4.01561 19.431 4.02506 19.459 4.0332C19.4793 4.0391 19.4997 4.04411 19.5195 4.05176C19.5494 4.0633 19.5776 4.07766 19.6055 4.09277C19.6227 4.10211 19.6406 4.1103 19.6572 4.12109C19.6643 4.12568 19.6708 4.13093 19.6777 4.13574C19.7066 4.15593 19.7352 4.17738 19.7617 4.20215C19.7658 4.20593 19.7695 4.21002 19.7734 4.21387C19.7779 4.21822 19.7818 4.22308 19.7861 4.22754C19.8151 4.25717 19.8412 4.28834 19.8643 4.32129C19.8859 4.35224 19.9031 4.3858 19.9199 4.41992C19.9246 4.42935 19.9313 4.43769 19.9355 4.44727C19.9487 4.47694 19.9566 4.50849 19.9658 4.54004C19.9705 4.55612 19.9769 4.57158 19.9805 4.58789C19.992 4.64022 20 4.69419 20 4.75V10.25C20 10.5353 19.8378 10.7964 19.582 10.9229C19.3263 11.049 19.0205 11.0189 18.7939 10.8457L14.8711 7.8457L12.6465 11.6299C12.5117 11.859 12.2658 12 12 12C11.7342 12 11.4883 11.859 11.3535 11.6299L9.12695 7.84668L5.20605 10.8457C4.9795 11.0189 4.6737 11.049 4.41797 10.9229C4.16216 10.7964 4 10.5353 4 10.25V5C4 4.95706 4.00381 4.91499 4.01074 4.87402C3.97076 4.63458 4.04748 4.38036 4.23828 4.20215C4.54083 3.91957 5.01409 3.93606 5.29688 4.23828C5.29813 4.23955 5.30081 4.24028 5.30273 4.24219C5.31223 4.25159 5.32973 4.26854 5.35547 4.29199C5.40732 4.33924 5.49215 4.41353 5.6123 4.50488C5.85259 4.68756 6.23374 4.94139 6.76953 5.19922C7.83783 5.71329 9.53928 6.25 12 6.25C14.4607 6.25 16.1622 5.71329 17.2305 5.19922C17.7663 4.94139 18.1474 4.68756 18.3877 4.50488C18.5079 4.41353 18.5927 4.33924 18.6445 4.29199C18.6703 4.26854 18.6878 4.25159 18.6973 4.24219C18.699 4.24052 18.701 4.23946 18.7021 4.23828V4.2373H18.7031L18.7041 4.23633L18.7051 4.23438H18.7061C18.7088 4.23153 18.7111 4.22838 18.7139 4.22559C18.7182 4.22114 18.7231 4.21723 18.7275 4.21289C18.7572 4.18402 18.7884 4.15778 18.8213 4.13477C18.8522 4.11317 18.8858 4.09591 18.9199 4.0791C18.9293 4.07447 18.9377 4.06769 18.9473 4.06348C18.9769 4.05039 19.0085 4.04242 19.04 4.0332C19.0561 4.02851 19.0716 4.02215 19.0879 4.01855C19.131 4.00905 19.1752 4.00273 19.2207 4.00098C19.2227 4.0009 19.2246 4.00104 19.2266 4.00098C19.2344 4.00074 19.2422 4 19.25 4C19.276 4 19.3018 4.00131 19.3271 4.00391ZM13.2139 7.70605C12.8279 7.73305 12.4235 7.75 12 7.75C11.5761 7.75 11.1714 7.7331 10.7852 7.70605L12 9.77051L13.2139 7.70605ZM5.5 8.73145L7.59668 7.12793C7.03015 6.95137 6.53879 6.75272 6.11914 6.55078C5.89067 6.44084 5.68573 6.32726 5.5 6.21973V8.73145ZM18.5 6.21973C18.3143 6.32726 18.1093 6.44084 17.8809 6.55078C17.461 6.75282 16.9693 6.9513 16.4023 7.12793L18.5 8.73145V6.21973ZM5.2959 4.23633L5.29688 4.2373V4.23828C5.29505 4.23645 5.29438 4.23483 5.29395 4.23438H5.29492L5.2959 4.23633Z" fill="black"/>
</svg>
