<svg width="24" height="24" viewBox="0 0 24 24" fill="none" xmlns="http://www.w3.org/2000/svg">
<g clip-path="url(#clip0_4152_1245)">
<path d="M12 14C12.1163 14 12.2309 14.0272 12.335 14.0791L14 14.9111L15.665 14.0791L15.7441 14.0449C15.8259 14.0152 15.9125 14 16 14H18.25C18.6642 14 19 14.3358 19 14.75V16.25C19 18.3211 17.3211 20 15.25 20H8.75C6.67893 20 5 18.3211 5 16.25V14.75C5 14.3358 5.33579 14 5.75 14H12ZM6.5 16.25C6.5 17.4926 7.50736 18.5 8.75 18.5H15.25C16.4926 18.5 17.5 17.4926 17.5 16.25V15.5H16.1768L14.335 16.4209C14.124 16.5262 13.876 16.5262 13.665 16.4209L11.8232 15.5H6.5V16.25ZM34.25 15.5C34.6642 15.5 35 15.8358 35 16.25C35 16.6642 34.6642 17 34.25 17H25.75C25.3358 17 25 16.6642 25 16.25C25 15.8358 25.3358 15.5 25.75 15.5H34.25ZM19.25 11.5C19.6642 11.5 20 11.8358 20 12.25C20 12.6642 19.6642 13 19.25 13H4.75C4.33579 13 4 12.6642 4 12.25C4 11.8358 4.33579 11.5 4.75 11.5H19.25ZM15.25 4C17.3211 4 19 5.67893 19 7.75V9.75C19 10.1642 18.6642 10.5 18.25 10.5H5.75C5.33579 10.5 5 10.1642 5 9.75V7.75C5 5.67893 6.67893 4 8.75 4H15.25ZM8.75 5.5C7.50736 5.5 6.5 6.50736 6.5 7.75V9H17.5V7.75C17.5 6.50736 16.4926 5.5 15.25 5.5H8.75Z" fill="black"/>
</g>
<defs>
<clipPath id="clip0_4152_1245">
<rect width="24" height="24" fill="white"/>
</clipPath>
</defs>
</svg>
