<svg width="24" height="24" viewBox="0 0 24 24" fill="none" xmlns="http://www.w3.org/2000/svg">
<path d="M16.25 4C17.7688 4 19 5.23122 19 6.75V8.08691C19.5823 8.29297 20 8.84707 20 9.5C20 10.1528 19.5822 10.706 19 10.9121V16.25C19 17.2165 18.2165 18 17.25 18H17V19.25C17 19.6642 16.6642 20 16.25 20C15.8358 20 15.5 19.6642 15.5 19.25V18H8.5V19.25C8.5 19.6642 8.16421 20 7.75 20C7.33579 20 7 19.6642 7 19.25V18H6.75C5.7835 18 5 17.2165 5 16.25V10.9121C4.41782 10.706 4 10.1528 4 9.5C4 8.84707 4.41766 8.29297 5 8.08691V6.75C5 5.23122 6.23122 4 7.75 4H16.25ZM6.5 16.25C6.5 16.3881 6.61193 16.5 6.75 16.5H17.25C17.3881 16.5 17.5 16.3881 17.5 16.25V12H6.5V16.25ZM9 13C9.55228 13 10 13.4477 10 14C10 14.5523 9.55228 15 9 15C8.44772 15 8 14.5523 8 14C8 13.4477 8.44772 13 9 13ZM15 13C15.5523 13 16 13.4477 16 14C16 14.5523 15.5523 15 15 15C14.4477 15 14 14.5523 14 14C14 13.4477 14.4477 13 15 13ZM7.75 5.5C7.05964 5.5 6.5 6.05964 6.5 6.75V10.5H11.25V5.5H7.75ZM12.75 10.5H17.5V6.75C17.5 6.05964 16.9404 5.5 16.25 5.5H12.75V10.5Z" fill="black"/>
</svg>
