<svg width="24" height="24" viewBox="0 0 24 24" fill="none" xmlns="http://www.w3.org/2000/svg">
<path d="M18.25 4C19.2165 4 20 4.7835 20 5.75V15.25C20 16.7688 18.7688 18 17.25 18H17V19.25C17 19.6642 16.6642 20 16.25 20C15.8358 20 15.5 19.6642 15.5 19.25V18H8.5V19.25C8.5 19.6642 8.16421 20 7.75 20C7.33579 20 7 19.6642 7 19.25V18H6.75C5.23122 18 4 16.7688 4 15.25V5.75C4 4.7835 4.7835 4 5.75 4H18.25ZM5.5 15.25C5.5 15.9404 6.05964 16.5 6.75 16.5H17.25C17.9404 16.5 18.5 15.9404 18.5 15.25V12H5.5V15.25ZM12.25 13.5C12.6642 13.5 13 13.8358 13 14.25C13 14.6642 12.6642 15 12.25 15H11.75C11.3358 15 11 14.6642 11 14.25C11 13.8358 11.3358 13.5 11.75 13.5H12.25ZM5.75 5.5C5.61193 5.5 5.5 5.61193 5.5 5.75V10.5H18.5V5.75C18.5 5.61193 18.3881 5.5 18.25 5.5H5.75ZM12.25 7.5C12.6642 7.5 13 7.83579 13 8.25C13 8.66421 12.6642 9 12.25 9H11.75C11.3358 9 11 8.66421 11 8.25C11 7.83579 11.3358 7.5 11.75 7.5H12.25Z" fill="black"/>
</svg>
