<svg width="24" height="24" viewBox="0 0 24 24" fill="none" xmlns="http://www.w3.org/2000/svg">
<path d="M18.25 4C19.2165 4 20 4.7835 20 5.75V17.25C20 18.7688 18.7688 20 17.25 20H6.75C5.23122 20 4 18.7688 4 17.25V5.75C4 4.7835 4.7835 4 5.75 4H18.25ZM5.5 17.25C5.5 17.9404 6.05964 18.5 6.75 18.5H17.25C17.9404 18.5 18.5 17.9404 18.5 17.25V13H5.5V17.25ZM12.25 14.5C12.6642 14.5 13 14.8358 13 15.25C13 15.6642 12.6642 16 12.25 16H11.75C11.3358 16 11 15.6642 11 15.25C11 14.8358 11.3358 14.5 11.75 14.5H12.25ZM5.75 5.5C5.61193 5.5 5.5 5.61193 5.5 5.75V11.5H18.5V5.75C18.5 5.61193 18.3881 5.5 18.25 5.5H5.75ZM12.25 7.5C12.6642 7.5 13 7.83579 13 8.25C13 8.66421 12.6642 9 12.25 9H11.75C11.3358 9 11 8.66421 11 8.25C11 7.83579 11.3358 7.5 11.75 7.5H12.25Z" fill="black"/>
</svg>
