<svg width="24" height="24" viewBox="0 0 24 24" fill="none" xmlns="http://www.w3.org/2000/svg">
<path d="M11.25 4C11.6642 4 12 4.33579 12 4.75C12 5.16421 11.6642 5.5 11.25 5.5H10.5C10.1059 5.5 9.76544 5.72825 9.60254 6.05957C10.9707 6.33844 12 7.54946 12 9C12 9.74435 11.7271 10.4239 11.2783 10.9482L17.4395 11.373C18.8813 11.4726 20 12.6719 20 14.1172V18.25C20 19.2165 19.2165 20 18.25 20H5.75C4.78354 20 4.00001 19.2165 4 18.25V11.25C4 11.0422 4.08643 10.844 4.23828 10.7021C4.39024 10.5603 4.59437 10.4877 4.80176 10.502L6.47559 10.6172C6.17584 10.1503 6 9.59607 6 9C6 7.68489 6.84679 6.56909 8.02441 6.16406C8.18863 4.94234 9.2333 4 10.5 4H11.25ZM5.5 18.25C5.5 18.3881 5.61196 18.5 5.75 18.5H18.25C18.3881 18.5 18.5 18.3881 18.5 18.25V15.5H5.5V18.25ZM5.5 14H18.4941C18.438 13.3964 17.9521 12.9126 17.3359 12.8701L5.5 12.0527V14ZM9 7.5C8.17157 7.5 7.5 8.17157 7.5 9C7.5 9.82843 8.17157 10.5 9 10.5C9.82843 10.5 10.5 9.82843 10.5 9C10.5 8.17157 9.82843 7.5 9 7.5Z" fill="black"/>
</svg>
