<svg width="24" height="24" viewBox="0 0 24 24" fill="none" xmlns="http://www.w3.org/2000/svg">
<path d="M14.25 4C14.6642 4 15 4.33579 15 4.75V7H18.25C18.6642 7 19 7.33579 19 7.75V16.6279C19.6109 17.1323 20 17.8959 20 18.75V19.25C20 19.6642 19.6642 20 19.25 20H4.75C4.33579 20 4 19.6642 4 19.25V18.75C4 17.8959 4.38906 17.1323 5 16.6279V7.75C5 7.33579 5.33579 7 5.75 7H9V4.75C9 4.33579 9.33579 4 9.75 4C10.1642 4 10.5 4.33579 10.5 4.75V7H13.5V4.75C13.5 4.33579 13.8358 4 14.25 4ZM6.75 17.5C6.14529 17.5 5.64124 17.9295 5.52539 18.5H18.4746C18.3588 17.9295 17.8547 17.5 17.25 17.5H6.75ZM16.0264 12.5723C14.9722 12.4407 13.6049 12.4469 12.2646 12.9521C10.6206 13.5719 8.9878 13.5657 7.78809 13.416C7.27799 13.3524 6.83882 13.2606 6.5 13.1768V16.0127C6.58238 16.0053 6.66568 16 6.75 16H17.25C17.3343 16 17.4176 16.0053 17.5 16.0127V12.8779C17.4398 12.8601 17.3695 12.8379 17.2891 12.8164C16.9864 12.7356 16.55 12.6376 16.0264 12.5723ZM6.5 11.6211C6.5603 11.639 6.63034 11.6621 6.71094 11.6836C7.01356 11.7644 7.45003 11.8624 7.97363 11.9277C9.02781 12.0593 10.3951 12.0531 11.7354 11.5479C13.3794 10.9281 15.0122 10.9343 16.2119 11.084C16.7219 11.1476 17.1612 11.2384 17.5 11.3223V8.5H6.5V11.6211Z" fill="black"/>
</svg>
