<svg width="24" height="24" viewBox="0 0 24 24" fill="none" xmlns="http://www.w3.org/2000/svg">
<path d="M16.25 4C17.7688 4 19 5.23122 19 6.75V17.25C19 18.7688 17.7688 20 16.25 20H7.75C6.23122 20 5 18.7688 5 17.25V6.75C5 5.23122 6.23122 4 7.75 4H16.25ZM6.5 17.25C6.5 17.9404 7.05964 18.5 7.75 18.5H16.25C16.9404 18.5 17.5 17.9404 17.5 17.25V8H6.5V17.25ZM9.25 15.5C9.66421 15.5 10 15.8358 10 16.25C10 16.6642 9.66421 17 9.25 17H8.75C8.33579 17 8 16.6642 8 16.25C8 15.8358 8.33579 15.5 8.75 15.5H9.25ZM12.25 15.5C12.6642 15.5 13 15.8358 13 16.25C13 16.6642 12.6642 17 12.25 17H11.75C11.3358 17 11 16.6642 11 16.25C11 15.8358 11.3358 15.5 11.75 15.5H12.25ZM15.25 15.5C15.6642 15.5 16 15.8358 16 16.25C16 16.6642 15.6642 17 15.25 17H14.75C14.3358 17 14 16.6642 14 16.25C14 15.8358 14.3358 15.5 14.75 15.5H15.25ZM9.25 12.5C9.66421 12.5 10 12.8358 10 13.25C10 13.6642 9.66421 14 9.25 14H8.75C8.33579 14 8 13.6642 8 13.25C8 12.8358 8.33579 12.5 8.75 12.5H9.25ZM12.25 12.5C12.6642 12.5 13 12.8358 13 13.25C13 13.6642 12.6642 14 12.25 14H11.75C11.3358 14 11 13.6642 11 13.25C11 12.8358 11.3358 12.5 11.75 12.5H12.25ZM15.25 12.5C15.6642 12.5 16 12.8358 16 13.25C16 13.6642 15.6642 14 15.25 14H14.75C14.3358 14 14 13.6642 14 13.25C14 12.8358 14.3358 12.5 14.75 12.5H15.25ZM9.25 9.5C9.66421 9.5 10 9.83579 10 10.25C10 10.6642 9.66421 11 9.25 11H8.75C8.33579 11 8 10.6642 8 10.25C8 9.83579 8.33579 9.5 8.75 9.5H9.25ZM12.25 9.5C12.6642 9.5 13 9.83579 13 10.25C13 10.6642 12.6642 11 12.25 11H11.75C11.3358 11 11 10.6642 11 10.25C11 9.83579 11.3358 9.5 11.75 9.5H12.25ZM15.25 9.5C15.6642 9.5 16 9.83579 16 10.25C16 10.6642 15.6642 11 15.25 11H14.75C14.3358 11 14 10.6642 14 10.25C14 9.83579 14.3358 9.5 14.75 9.5H15.25ZM7.75 5.5C7.14529 5.5 6.64124 5.92948 6.52539 6.5H17.4746C17.3588 5.92948 16.8547 5.5 16.25 5.5H7.75Z" fill="black"/>
</svg>
