<svg width="24" height="24" viewBox="0 0 24 24" fill="none" xmlns="http://www.w3.org/2000/svg">
<path d="M16 4C16.4142 4 16.75 4.33579 16.75 4.75V6H17.25C18.7688 6 20 7.23122 20 8.75V12.25C20 12.6642 19.6642 13 19.25 13C18.8358 13 18.5 12.6642 18.5 12.25V8.75C18.5 8.05964 17.9404 7.5 17.25 7.5H16.75V8.25C16.75 8.66421 16.4142 9 16 9C15.5858 9 15.25 8.66421 15.25 8.25V7.5H8.75V8.25C8.75 8.66421 8.41421 9 8 9C7.58579 9 7.25 8.66421 7.25 8.25V7.5H6.75C6.05964 7.5 5.5 8.05964 5.5 8.75V17.25C5.5 17.9404 6.05964 18.5 6.75 18.5H11.25C11.6642 18.5 12 18.8358 12 19.25C12 19.6642 11.6642 20 11.25 20H6.75C5.23122 20 4 18.7688 4 17.25V8.75C4 7.23122 5.23122 6 6.75 6H7.25V4.75C7.25 4.33579 7.58579 4 8 4C8.41421 4 8.75 4.33579 8.75 4.75V6H15.25V4.75C15.25 4.33579 15.5858 4 16 4ZM18.7197 15.2197C19.0126 14.9268 19.4874 14.9268 19.7803 15.2197C20.0732 15.5126 20.0732 15.9874 19.7803 16.2803L18.5605 17.5L19.7803 18.7197C20.0732 19.0126 20.0732 19.4874 19.7803 19.7803C19.4874 20.0732 19.0126 20.0732 18.7197 19.7803L17.5 18.5605L16.2803 19.7803C15.9874 20.0732 15.5126 20.0732 15.2197 19.7803C14.9268 19.4874 14.9268 19.0126 15.2197 18.7197L16.4395 17.5L15.2197 16.2803C14.9268 15.9874 14.9268 15.5126 15.2197 15.2197C15.5126 14.9268 15.9874 14.9268 16.2803 15.2197L17.5 16.4395L18.7197 15.2197ZM16.25 10C16.6642 10 17 10.3358 17 10.75C17 11.1642 16.6642 11.5 16.25 11.5H7.75C7.33579 11.5 7 11.1642 7 10.75C7 10.3358 7.33579 10 7.75 10H16.25Z" fill="black"/>
</svg>
