<svg width="24" height="24" viewBox="0 0 24 24" fill="none" xmlns="http://www.w3.org/2000/svg">
<path d="M16 4C16.4142 4 16.75 4.33579 16.75 4.75V6H17.25C18.7688 6 20 7.23122 20 8.75V11.25C20 11.6642 19.6642 12 19.25 12C18.8358 12 18.5 11.6642 18.5 11.25V8.75C18.5 8.05964 17.9404 7.5 17.25 7.5H16.75V8.25C16.75 8.66421 16.4142 9 16 9C15.5858 9 15.25 8.66421 15.25 8.25V7.5H8.75V8.25C8.75 8.66421 8.41421 9 8 9C7.58579 9 7.25 8.66421 7.25 8.25V7.5H6.75C6.05964 7.5 5.5 8.05964 5.5 8.75V17.25C5.5 17.9404 6.05964 18.5 6.75 18.5H11.25C11.6642 18.5 12 18.8358 12 19.25C12 19.6642 11.6642 20 11.25 20H6.75C5.23122 20 4 18.7688 4 17.25V8.75C4 7.23122 5.23122 6 6.75 6H7.25V4.75C7.25 4.33579 7.58579 4 8 4C8.41421 4 8.75 4.33579 8.75 4.75V6H15.25V4.75C15.25 4.33579 15.5858 4 16 4ZM17 14C17.4142 14 17.75 14.3358 17.75 14.75V16.25H19.25C19.6642 16.25 20 16.5858 20 17C20 17.4142 19.6642 17.75 19.25 17.75H17.75V19.25C17.75 19.6642 17.4142 20 17 20C16.5858 20 16.25 19.6642 16.25 19.25V17.75H14.75C14.3358 17.75 14 17.4142 14 17C14 16.5858 14.3358 16.25 14.75 16.25H16.25V14.75C16.25 14.3358 16.5858 14 17 14ZM16.25 10C16.6642 10 17 10.3358 17 10.75C17 11.1642 16.6642 11.5 16.25 11.5H7.75C7.33579 11.5 7 11.1642 7 10.75C7 10.3358 7.33579 10 7.75 10H16.25Z" fill="black"/>
</svg>
