<svg width="24" height="24" viewBox="0 0 24 24" fill="none" xmlns="http://www.w3.org/2000/svg">
<path d="M16 4C16.4142 4 16.75 4.33579 16.75 4.75V6H17.25C18.7688 6 20 7.23122 20 8.75V9.25C20 9.66421 19.6642 10 19.25 10C18.8358 10 18.5 9.66421 18.5 9.25V8.75C18.5 8.05964 17.9404 7.5 17.25 7.5H16.75V8.25C16.75 8.66421 16.4142 9 16 9C15.5858 9 15.25 8.66421 15.25 8.25V7.5H8.75V8.25C8.75 8.66421 8.41421 9 8 9C7.58579 9 7.25 8.66421 7.25 8.25V7.5H6.75C6.05964 7.5 5.5 8.05964 5.5 8.75V17.25C5.5 17.9404 6.05964 18.5 6.75 18.5H9.25C9.66421 18.5 10 18.8358 10 19.25C10 19.6642 9.66421 20 9.25 20H6.75C5.23122 20 4 18.7688 4 17.25V8.75C4 7.23122 5.23122 6 6.75 6H7.25V4.75C7.25 4.33579 7.58579 4 8 4C8.41421 4 8.75 4.33579 8.75 4.75V6H15.25V4.75C15.25 4.33579 15.5858 4 16 4ZM15 10C17.7614 10 20 12.2386 20 15C20 17.7614 17.7614 20 15 20C12.2386 20 10 17.7614 10 15C10 12.2386 12.2386 10 15 10ZM15 11.5C13.067 11.5 11.5 13.067 11.5 15C11.5 16.933 13.067 18.5 15 18.5C16.933 18.5 18.5 16.933 18.5 15C18.5 13.067 16.933 11.5 15 11.5ZM15 13C15.4142 13 15.75 13.3358 15.75 13.75V14.6895L16.7803 15.7197C17.0732 16.0126 17.0732 16.4874 16.7803 16.7803C16.4874 17.0732 16.0126 17.0732 15.7197 16.7803L14.4697 15.5303C14.3291 15.3896 14.25 15.1989 14.25 15V13.75C14.25 13.3358 14.5858 13 15 13Z" fill="black"/>
</svg>
