<svg width="24" height="24" viewBox="0 0 24 24" fill="none" xmlns="http://www.w3.org/2000/svg">
<path d="M4.21973 4.21973C4.51262 3.92683 4.98738 3.92683 5.28027 4.21973L18.0732 17.0127C19.1755 18.1151 18.3949 19.9999 16.8359 20H6.75C5.23122 20 4 18.7688 4 17.25V9.75C4 8.47841 4.86384 7.4113 6.03613 7.09668L4.21973 5.28027C3.92683 4.98738 3.92683 4.51262 4.21973 4.21973ZM6.75 8.5C6.05964 8.5 5.5 9.05964 5.5 9.75V17.25C5.5 17.9404 6.05964 18.5 6.75 18.5H16.8359C17.0585 18.4999 17.17 18.2307 17.0127 18.0732L14.7969 15.8574C14.0762 16.5627 13.0893 17 12 17C9.79086 17 8 15.2091 8 13C8 11.9107 8.43628 10.9228 9.1416 10.2021L7.43945 8.5H6.75ZM14.333 4C15.0395 4 15.6765 4.42502 15.9482 5.07715L16.6855 6.8457C16.7244 6.93886 16.8161 7 16.917 7H17.25C18.7688 7 20 8.23122 20 9.75V15.25C20 15.6642 19.6642 16 19.25 16C18.8358 16 18.5 15.6642 18.5 15.25V9.75C18.5 9.05964 17.9404 8.5 17.25 8.5H16.917C16.2105 8.5 15.5735 8.07498 15.3018 7.42285L14.5645 5.6543C14.5256 5.56114 14.4339 5.5 14.333 5.5H9.75C9.33579 5.5 9 5.16421 9 4.75C9 4.33579 9.33579 4 9.75 4H14.333ZM10.2021 11.2627C9.76661 11.7132 9.5 12.3252 9.5 13C9.5 14.3807 10.6193 15.5 12 15.5C12.6748 15.5 13.2859 15.2324 13.7363 14.7969L10.2021 11.2627Z" fill="black"/>
</svg>
