<svg width="24" height="24" viewBox="0 0 24 24" fill="none" xmlns="http://www.w3.org/2000/svg">
<path d="M17.25 4C18.7688 4 20 5.23122 20 6.75V13.25C20 14.7688 18.7688 16 17.25 16H13.7002L16.7461 18.6875C17.0566 18.9615 17.0864 19.4355 16.8125 19.7461C16.5385 20.0566 16.0645 20.0864 15.7539 19.8125L12.75 17.1611V19.25C12.75 19.6642 12.4142 20 12 20C11.5858 20 11.25 19.6642 11.25 19.25V17.1611L8.24609 19.8125C7.9355 20.0864 7.46151 20.0566 7.1875 19.7461C6.91357 19.4355 6.94336 18.9615 7.25391 18.6875L10.2998 16H6.75C5.23122 16 4 14.7688 4 13.25V6.75C4 5.23122 5.23122 4 6.75 4H17.25ZM6.75 5.5C6.05964 5.5 5.5 6.05964 5.5 6.75V13.25C5.5 13.9404 6.05964 14.5 6.75 14.5H17.25C17.9404 14.5 18.5 13.9404 18.5 13.25V6.75C18.5 6.05964 17.9404 5.5 17.25 5.5H6.75ZM12 7C13.6569 7 15 8.34315 15 10C15 11.6569 13.6569 13 12 13C10.3431 13 9 11.6569 9 10C9 8.34315 10.3431 7 12 7ZM12 8.5C11.1716 8.5 10.5 9.17157 10.5 10C10.5 10.8284 11.1716 11.5 12 11.5C12.8284 11.5 13.5 10.8284 13.5 10C13.5 9.17157 12.8284 8.5 12 8.5Z" fill="black"/>
</svg>
