<svg width="24" height="24" viewBox="0 0 24 24" fill="none" xmlns="http://www.w3.org/2000/svg">
<path d="M14.333 4C15.0395 4 15.6765 4.42502 15.9482 5.07715L16.6855 6.8457C16.7244 6.93886 16.8161 7 16.917 7H17.25C18.7688 7 20 8.23122 20 9.75V17.25C20 18.7688 18.7688 20 17.25 20H6.75C5.23122 20 4 18.7688 4 17.25V9.75C4 8.23122 5.23122 7 6.75 7H7.08301C7.18393 7 7.27564 6.93887 7.31445 6.8457L8.05176 5.07715C8.32348 4.42502 8.96052 4 9.66699 4H14.333ZM9.66699 5.5C9.56607 5.5 9.47436 5.56113 9.43555 5.6543L8.69824 7.42285C8.42652 8.07498 7.78948 8.5 7.08301 8.5H6.75C6.05964 8.5 5.5 9.05964 5.5 9.75V17.25C5.5 17.9404 6.05964 18.5 6.75 18.5H17.25C17.9404 18.5 18.5 17.9404 18.5 17.25V9.75C18.5 9.05964 17.9404 8.5 17.25 8.5H16.917C16.2105 8.5 15.5735 8.07498 15.3018 7.42285L14.5645 5.6543C14.5256 5.56114 14.4339 5.5 14.333 5.5H9.66699ZM12 9C14.2091 9 16 10.7909 16 13C16 15.2091 14.2091 17 12 17C9.79086 17 8 15.2091 8 13C8 10.7909 9.79086 9 12 9ZM12 10.5C10.6193 10.5 9.5 11.6193 9.5 13C9.5 14.3807 10.6193 15.5 12 15.5C13.3807 15.5 14.5 14.3807 14.5 13C14.5 11.6193 13.3807 10.5 12 10.5Z" fill="black"/>
</svg>
