<svg width="24" height="24" viewBox="0 0 24 24" fill="none" xmlns="http://www.w3.org/2000/svg">
<path fill-rule="evenodd" clip-rule="evenodd" d="M17 13C18.6568 13 20 14.3431 20 16C20 17.3538 19.1029 18.4968 17.871 18.8701C17.8677 18.8714 17.8647 18.8737 17.8613 18.875C16.096 19.5279 14.2868 20 12 20C9.42377 20 7.5352 19.613 6.27437 19.2148C5.64459 19.016 5.17254 18.8153 4.85152 18.6592C4.69116 18.5812 4.56832 18.5143 4.48238 18.4648C4.43944 18.4401 4.4055 18.4196 4.38082 18.4043C4.36849 18.3966 4.35836 18.3898 4.35054 18.3848C4.34688 18.3824 4.34344 18.3807 4.34078 18.3789C4.33941 18.378 4.33797 18.3767 4.33687 18.376L4.33492 18.375V18.374C4.3377 18.3692 4.37147 18.3177 4.74996 17.75L4.33394 18.374C3.98935 18.1443 3.89621 17.6786 4.12593 17.334C4.35503 16.9903 4.8187 16.8968 5.16304 17.124C5.16356 17.1244 5.16405 17.1254 5.165 17.126H5.16597L5.165 17.127C5.16655 17.1279 5.16928 17.1283 5.17183 17.1299C5.18251 17.1365 5.20224 17.1478 5.23043 17.1641C5.28701 17.1966 5.37928 17.2471 5.50777 17.3096C5.76483 17.4346 6.16806 17.6091 6.72554 17.7852C7.83969 18.137 9.57632 18.5 12 18.5C13.079 18.5 14.04 18.3835 14.9492 18.1855C14.3662 17.6383 14 16.8627 14 16C14 14.3432 15.3431 13 17 13ZM17 14.5C16.1716 14.5 15.5 15.1716 15.5 16C15.5 16.8284 16.1716 17.5 17 17.5C17.8284 17.5 18.5 16.8284 18.5 16C18.5 15.1716 17.8284 14.5 17 14.5ZM12 4C14.5761 4 16.4647 4.38702 17.7255 4.78516C18.3553 4.98403 18.8274 5.18466 19.1484 5.34082C19.3087 5.41883 19.4316 5.48571 19.5175 5.53516C19.5605 5.55986 19.5944 5.58038 19.6191 5.5957C19.6314 5.60335 19.6416 5.6102 19.6494 5.61523C19.653 5.61759 19.6565 5.61935 19.6591 5.62109C19.6605 5.62199 19.6619 5.62328 19.663 5.62402L19.665 5.625V5.62598C19.6623 5.63056 19.6334 5.67472 19.3418 6.1123L19.666 5.62598C20.0106 5.85574 20.1037 6.32137 19.874 6.66602C19.6449 7.00965 19.1812 7.10326 18.8369 6.87598C18.8355 6.87506 18.8326 6.87291 18.8281 6.87012C18.8174 6.86348 18.7977 6.85215 18.7695 6.83594C18.7129 6.80337 18.6206 6.75294 18.4921 6.69043C18.2351 6.56537 17.8318 6.3909 17.2744 6.21484C16.1602 5.86301 14.4236 5.5 12 5.5C10.9206 5.50001 9.95917 5.61537 9.04976 5.81348C9.63339 6.36081 9.99996 7.13674 9.99996 8C9.99996 9.65685 8.65681 11 6.99996 11C5.34314 11 3.99996 9.65683 3.99996 8C3.99996 6.64683 4.8959 5.50278 6.12691 5.12891C6.13074 5.12742 6.13476 5.12643 6.13863 5.125C7.90393 4.4721 9.71316 4.00001 12 4ZM6.99996 6.5C6.17157 6.50004 5.49996 7.1716 5.49996 8C5.49996 8.8284 6.17157 9.49996 6.99996 9.5C7.82838 9.5 8.49996 8.82843 8.49996 8C8.49996 7.17157 7.82838 6.5 6.99996 6.5Z" fill="black"/>
</svg>
