<svg width="24" height="24" viewBox="0 0 24 24" fill="none" xmlns="http://www.w3.org/2000/svg">
<path fill-rule="evenodd" clip-rule="evenodd" d="M4.8971 4.00057C4.9947 4.00298 5.13106 4.00995 5.29261 4.02596C5.61178 4.05761 6.05222 4.12841 6.50354 4.2906C6.94892 4.45073 7.44417 4.71464 7.8346 5.15486C7.85574 5.13166 7.87695 5.1083 7.89905 5.08553C8.58142 4.38281 9.61501 4.00063 10.9996 4.00057C12.3844 4.00057 13.4178 4.38275 14.1002 5.08553C14.7767 5.78232 14.9996 6.68271 14.9996 7.50057V12.648C16.2581 11.6751 18.0823 11.818 19.1715 13.0289L19.2477 13.1129C20.2123 14.1852 20.259 15.798 19.358 16.9244C18.154 18.4289 15.8531 18.3926 14.6979 16.8502L13.8932 15.775L11.9332 17.6685C11.0479 18.5229 9.86479 19.0005 8.6344 19.0006H7.74964C7.33573 19.0004 6.99986 18.6645 6.99964 18.2506C6.99964 17.8365 7.33559 17.5008 7.74964 17.5006H8.6344C9.47616 17.5005 10.2855 17.173 10.8912 16.5885L13.4996 14.0709V7.50057C13.4996 6.93783 13.3473 6.46345 13.0241 6.13045C12.7065 5.8034 12.1148 5.50057 10.9996 5.50057C9.88468 5.50063 9.29276 5.80344 8.97522 6.13045C8.65217 6.46343 8.49964 6.93804 8.49964 7.50057V13.0006C8.49938 13.4146 8.16369 13.7506 7.74964 13.7506C7.33575 13.7504 6.99989 13.4144 6.99964 13.0006V7.00057C6.99962 6.59114 6.87466 6.3344 6.71741 6.15486C6.54691 5.96051 6.2964 5.80982 5.99573 5.70174C5.6975 5.59462 5.38721 5.54224 5.14417 5.51814C5.02491 5.50634 4.92626 5.50221 4.85999 5.50057C4.82709 5.49976 4.80174 5.49951 4.78675 5.49959H4.7721C4.3586 5.5118 4.01248 5.18665 3.99964 4.77303C3.98703 4.35939 4.31258 4.01369 4.7262 4.00057L4.7428 4.5201L4.72718 4.00057H4.73304C4.73597 4.00049 4.74042 3.99971 4.74475 3.99959C4.75356 3.99943 4.76581 3.99966 4.77991 3.99959C4.8087 3.99945 4.84851 3.99937 4.8971 4.00057ZM18.0563 14.0318C17.4578 13.3666 16.4277 13.3303 15.7838 13.9517L14.9996 14.7076V14.7506L15.8991 15.9517C16.4664 16.7085 17.596 16.7262 18.1871 15.9879C18.6295 15.4348 18.6061 14.6424 18.1324 14.1158L18.0563 14.0318Z" fill="black"/>
</svg>
