<svg width="24" height="24" viewBox="0 0 24 24" fill="none" xmlns="http://www.w3.org/2000/svg">
<path d="M17.25 4C18.7688 4 20 5.23122 20 6.75V14.252C20 15.7707 18.7688 17.002 17.25 17.002H12.3027L9.41406 19.79C9.19752 19.999 8.87656 20.0581 8.59961 19.9404C8.32265 19.8228 8.14258 19.5509 8.14258 19.25V17.002H6.75C5.23122 17.002 4 15.7707 4 14.252V6.75C4 5.23122 5.23122 4 6.75 4H17.25ZM6.75 5.5C6.05964 5.5 5.5 6.05964 5.5 6.75V14.252C5.5 14.9423 6.05964 15.502 6.75 15.502H8.89258C9.3067 15.502 9.64243 15.8379 9.64258 16.252V17.4844L11.4795 15.7129L11.5918 15.623C11.7125 15.5447 11.8541 15.502 12 15.502H17.25C17.9404 15.502 18.5 14.9423 18.5 14.252V6.75C18.5 6.05964 17.9404 5.5 17.25 5.5H6.75ZM12.25 12.5C12.6642 12.5 13 12.8358 13 13.25C13 13.6642 12.6642 14 12.25 14H7.75C7.33579 14 7 13.6642 7 13.25C7 12.8358 7.33579 12.5 7.75 12.5H12.25ZM16.25 12.5C16.6642 12.5 17 12.8358 17 13.25C17 13.6642 16.6642 14 16.25 14H14.75C14.3358 14 14 13.6642 14 13.25C14 12.8358 14.3358 12.5 14.75 12.5H16.25ZM10.25 9.5C10.6642 9.5 11 9.83579 11 10.25C11 10.6642 10.6642 11 10.25 11H7.75C7.33579 11 7 10.6642 7 10.25C7 9.83579 7.33579 9.5 7.75 9.5H10.25ZM13.25 9.5C13.6642 9.5 14 9.83579 14 10.25C14 10.6642 13.6642 11 13.25 11H12.75C12.3358 11 12 10.6642 12 10.25C12 9.83579 12.3358 9.5 12.75 9.5H13.25ZM16.25 9.5C16.6642 9.5 17 9.83579 17 10.25C17 10.6642 16.6642 11 16.25 11H15.75C15.3358 11 15 10.6642 15 10.25C15 9.83579 15.3358 9.5 15.75 9.5H16.25Z" fill="black"/>
</svg>
