<svg width="24" height="24" viewBox="0 0 24 24" fill="none" xmlns="http://www.w3.org/2000/svg">
<path d="M12 4C16.4183 4 20 7.58172 20 12C20 16.4183 16.4183 20 12 20C7.58172 20 4 16.4183 4 12C4 7.58172 7.58172 4 12 4ZM12 16.5C11.2768 16.5 10.5117 16.6657 9.87695 16.9648C9.44057 17.1705 9.10117 17.4232 8.86816 17.6963C9.79714 18.2081 10.8644 18.5 12 18.5C13.1353 18.5 14.2021 18.2079 15.1309 17.6963C14.8979 17.4233 14.5592 17.1705 14.123 16.9648C13.4883 16.6657 12.7232 16.5 12 16.5ZM12 5.5C8.41015 5.5 5.5 8.41015 5.5 12C5.5 13.9137 6.32744 15.6338 7.64355 16.8232C8.06022 16.2953 8.6324 15.8926 9.2373 15.6074C10.0821 15.2093 11.0671 15 12 15C12.9329 15 13.918 15.2093 14.7627 15.6074C15.3673 15.8925 15.9396 16.2947 16.3564 16.8223C17.6723 15.6328 18.5 13.9135 18.5 12C18.5 8.41015 15.5899 5.5 12 5.5ZM13.7197 9.21973C14.0126 8.92683 14.4874 8.92683 14.7803 9.21973C15.0732 9.51262 15.0732 9.98738 14.7803 10.2803L12.2803 12.7803C11.9874 13.0732 11.5126 13.0732 11.2197 12.7803C10.9268 12.4874 10.9268 12.0126 11.2197 11.7197L13.7197 9.21973Z" fill="black"/>
</svg>
