<svg width="24" height="24" viewBox="0 0 24 24" fill="none" xmlns="http://www.w3.org/2000/svg">
<path d="M13.6318 5C14.2947 5 14.9008 5.3749 15.1973 5.96777L15.7139 7H16.25V6.75C16.25 6.33579 16.5858 6 17 6C17.4142 6 17.75 6.33579 17.75 6.75V7H18.25C19.2165 7 20 7.7835 20 8.75V18.25C20 19.2165 19.2165 20 18.25 20H5.75C4.7835 20 4 19.2165 4 18.25V8.75C4 7.7835 4.7835 7 5.75 7H6.25V6.75C6.25 6.33579 6.58579 6 7 6C7.41421 6 7.75 6.33579 7.75 6.75V7H8.28613L8.80273 5.96777C9.09917 5.3749 9.70531 5 10.3682 5H13.6318ZM5.75 8.5C5.61193 8.5 5.5 8.61193 5.5 8.75V18.25C5.5 18.3881 5.61193 18.5 5.75 18.5H18.25C18.3881 18.5 18.5 18.3881 18.5 18.25V8.75C18.5 8.61193 18.3881 8.5 18.25 8.5H5.75ZM11.6064 10.3643C11.8195 10.0092 12.2806 9.89357 12.6357 10.1064C12.9908 10.3195 13.1064 10.7806 12.8936 11.1357L12.0752 12.5H13.25C13.5098 12.5 13.751 12.6345 13.8877 12.8555C14.0243 13.0765 14.0369 13.3526 13.9209 13.585L12.4209 16.585C12.2357 16.9553 11.7854 17.1058 11.415 16.9209C11.0447 16.7357 10.8942 16.2854 11.0791 15.915L12.0361 14H10.75C10.4798 14 10.2308 13.8543 10.0977 13.6191C9.96467 13.3841 9.96763 13.0959 10.1064 12.8643L11.6064 10.3643ZM10.3682 6.5C10.2735 6.5 10.1869 6.55398 10.1445 6.63867L9.96387 7H14.0361L13.8555 6.63867C13.8131 6.55398 13.7265 6.5 13.6318 6.5H10.3682Z" fill="black"/>
</svg>
