<svg width="24" height="24" viewBox="0 0 24 24" fill="none" xmlns="http://www.w3.org/2000/svg">
<path d="M19.25 18.5C19.6642 18.5 20 18.8358 20 19.25C20 19.6642 19.6642 20 19.25 20H4.75C4.33579 20 4 19.6642 4 19.25C4 18.8358 4.33579 18.5 4.75 18.5H19.25ZM15.5293 5C16.2824 5.00002 16.9512 5.48186 17.1895 6.19629L17.8633 8.21777L18.4795 8.52637C19.4111 8.9922 20 9.9447 20 10.9863V12.25C20 12.9805 19.5519 13.605 18.916 13.8672C18.9689 14.0695 19 14.2811 19 14.5C19 15.8807 17.8807 17 16.5 17C15.1193 17 14 15.8807 14 14.5C14 14.3288 14.017 14.1615 14.0498 14H9.9502C9.98298 14.1615 10 14.3288 10 14.5C10 15.8807 8.88071 17 7.5 17C6.11929 17 5 15.8807 5 14.5C5 14.2812 5.03019 14.0695 5.08301 13.8672C4.44759 13.6048 4 12.9802 4 12.25V10.9863C4 9.94471 4.58885 8.9922 5.52051 8.52637L6.13574 8.21777L6.81055 6.19629C7.04882 5.48186 7.71757 5.00002 8.4707 5H15.5293ZM7.5 13.5C6.94772 13.5 6.5 13.9477 6.5 14.5C6.5 15.0523 6.94772 15.5 7.5 15.5C8.05228 15.5 8.5 15.0523 8.5 14.5C8.5 13.9477 8.05228 13.5 7.5 13.5ZM16.5 13.5C15.9477 13.5 15.5 13.9477 15.5 14.5C15.5 15.0523 15.9477 15.5 16.5 15.5C17.0523 15.5 17.5 15.0523 17.5 14.5C17.5 13.9477 17.0523 13.5 16.5 13.5ZM12.75 10.25C12.75 10.6642 12.4142 11 12 11H8.25C7.39716 11 6.65504 10.5256 6.27344 9.82617L6.19141 9.86816C5.76793 10.0799 5.5 10.5129 5.5 10.9863V12.25C5.5 12.3881 5.61193 12.5 5.75 12.5H6.00391C6.42132 12.1873 6.93828 12 7.5 12C8.06144 12 8.57781 12.1875 8.99512 12.5H15.0039C15.4213 12.1873 15.9383 12 16.5 12C17.0614 12 17.5778 12.1875 17.9951 12.5H18.25C18.3881 12.5 18.5 12.3881 18.5 12.25V10.9863C18.5 10.5129 18.2321 10.0799 17.8086 9.86816L16.915 9.4209C16.7371 9.33194 16.601 9.17601 16.5381 8.9873L15.7666 6.6709C15.7326 6.56883 15.6369 6.50002 15.5293 6.5H12.75V10.25ZM8.4707 6.5C8.36312 6.50002 8.26742 6.56883 8.2334 6.6709L7.50684 8.84961C7.55557 9.21672 7.86957 9.5 8.25 9.5H11.25V6.5H8.4707Z" fill="black"/>
</svg>
