<svg width="24" height="24" viewBox="0 0 24 24" fill="none" xmlns="http://www.w3.org/2000/svg">
<path d="M16.25 4C16.6642 4 17 4.33579 17 4.75C17 5.16421 16.6642 5.5 16.25 5.5H14.75V7H18.25C19.2165 7 20 7.7835 20 8.75V16.25C20 17.2165 19.2165 18 18.25 18H17.3105L15.5303 19.7803C15.3896 19.9209 15.1989 20 15 20H10C9.80109 20 9.61038 19.9209 9.46973 19.7803L6.7627 17.0732C6.71585 17.0264 6.65219 17 6.58594 17H5.75C4.7835 17 4 16.2165 4 15.25V11.75C4 10.7835 4.7835 10 5.75 10H6.68945L8.88379 7.80566C9.39944 7.29001 10.0989 7.00008 10.8281 7H13.25V5.5H11.75C11.3358 5.5 11 5.16421 11 4.75C11 4.33579 11.3358 4 11.75 4H16.25ZM10.8281 8.5C10.4967 8.50008 10.1787 8.63186 9.94434 8.86621L7.53027 11.2803C7.38962 11.4209 7.19891 11.5 7 11.5H5.75C5.61193 11.5 5.5 11.6119 5.5 11.75V15.25C5.5 15.3881 5.61193 15.5 5.75 15.5H6.58594C7.05001 15.5 7.49509 15.6845 7.82324 16.0127L10.3105 18.5H14.6895L16.4697 16.7197L16.584 16.626C16.7063 16.5444 16.8508 16.5 17 16.5H18.25C18.3881 16.5 18.5 16.3881 18.5 16.25V8.75C18.5 8.61193 18.3881 8.5 18.25 8.5H10.8281ZM12.3291 10.415C12.5143 10.0447 12.9646 9.89416 13.335 10.0791C13.7053 10.2643 13.8558 10.7146 13.6709 11.085L12.9639 12.5H14.25C14.5008 12.5 14.7349 12.6253 14.874 12.834C15.0131 13.0425 15.0387 13.3067 14.9424 13.5381L13.6924 16.5381C13.5331 16.9203 13.0942 17.1014 12.7119 16.9424C12.3297 16.7831 12.1486 16.3442 12.3076 15.9619L13.125 14H11.75C11.4902 14 11.249 13.8655 11.1123 13.6445C10.9757 13.4235 10.9631 13.1474 11.0791 12.915L12.3291 10.415Z" fill="black"/>
</svg>
