<svg width="24" height="24" viewBox="0 0 24 24" fill="none" xmlns="http://www.w3.org/2000/svg">
<path d="M12 4C16.4183 4 20 7.58172 20 12C20 16.4183 16.4183 20 12 20C7.58172 20 4 16.4183 4 12C4 7.58172 7.58172 4 12 4ZM12 5.5C8.41015 5.5 5.5 8.41015 5.5 12C5.5 15.5899 8.41015 18.5 12 18.5C15.5899 18.5 18.5 15.5899 18.5 12C18.5 8.41015 15.5899 5.5 12 5.5ZM15.25 9C15.6642 9 16 9.33579 16 9.75V12.25C16 12.6642 15.6642 13 15.25 13H12.75V14.25C12.75 14.6642 12.4142 15 12 15C11.5858 15 11.25 14.6642 11.25 14.25V13H9.5V14.25C9.5 14.6642 9.16421 15 8.75 15C8.33579 15 8 14.6642 8 14.25V9.75C8 9.33579 8.33579 9 8.75 9C9.16421 9 9.5 9.33579 9.5 9.75V11.5H11.25V9.75C11.25 9.33579 11.5858 9 12 9C12.4142 9 12.75 9.33579 12.75 9.75V11.5H14.5V9.75C14.5 9.33579 14.8358 9 15.25 9Z" fill="black"/>
</svg>
