<svg width="24" height="24" viewBox="0 0 24 24" fill="none" xmlns="http://www.w3.org/2000/svg">
<path d="M11.8066 4C12.3008 4.00004 12.7718 4.20898 13.1035 4.5752L18.5469 10.5859C18.8383 10.9078 19 11.3265 19 11.7607V18.25C19 19.2165 18.2165 20 17.25 20H6.75C5.7835 20 5 19.2165 5 18.25V5.75C5 4.7835 5.7835 4 6.75 4H11.8066ZM6.5 18.25C6.5 18.3881 6.61193 18.5 6.75 18.5H17.25C17.3881 18.5 17.5 18.3881 17.5 18.25V12H6.5V18.25ZM16 15H14V13.5H16V15ZM6.75 5.5C6.61193 5.5 6.5 5.61193 6.5 5.75V10.5H16.4463L11.9922 5.58203C11.9448 5.52974 11.8772 5.50004 11.8066 5.5H6.75Z" fill="black"/>
</svg>
