<svg width="24" height="24" viewBox="0 0 24 24" fill="none" xmlns="http://www.w3.org/2000/svg">
<path d="M15.5557 4C16.9 4 18.0475 4.97186 18.2686 6.29785L18.9883 10.6201C19.6054 11.1244 20 11.8908 20 12.75V16.25C20 17.2165 19.2165 18 18.25 18H18V19.25C18 19.6642 17.6642 20 17.25 20C16.8358 20 16.5 19.6642 16.5 19.25V18H7.5V19.25C7.5 19.6642 7.16421 20 6.75 20C6.33579 20 6 19.6642 6 19.25V18H5.75C4.7835 18 4 17.2165 4 16.25V12.75C4 11.8911 4.39392 11.1244 5.01074 10.6201L5.73145 6.29785C5.95245 4.97184 7.10003 4 8.44434 4H15.5557ZM6.75 11.5C6.05964 11.5 5.5 12.0596 5.5 12.75V16.25C5.5 16.3881 5.61193 16.5 5.75 16.5H18.25C18.3881 16.5 18.5 16.3881 18.5 16.25V12.75C18.5 12.0596 17.9404 11.5 17.25 11.5H6.75ZM8 13C8.55228 13 9 13.4477 9 14C9 14.5523 8.55228 15 8 15C7.44772 15 7 14.5523 7 14C7 13.4477 7.44772 13 8 13ZM16 13C16.5523 13 17 13.4477 17 14C17 14.5523 16.5523 15 16 15C15.4477 15 15 14.5523 15 14C15 13.4477 15.4477 13 16 13ZM8.44434 5.5C7.83329 5.5 7.31139 5.94219 7.21094 6.54492L6.63574 10H17.3652L16.7891 6.54492C16.6886 5.94219 16.1667 5.5 15.5557 5.5H8.44434Z" fill="black"/>
</svg>
