<svg width="24" height="24" viewBox="0 0 24 24" fill="none" xmlns="http://www.w3.org/2000/svg">
<path d="M14.25 4C15.2165 4 16 4.7835 16 5.75V18.25C16 19.2165 15.2165 20 14.25 20H5.75C4.7835 20 4 19.2165 4 18.25V5.75C4 4.7835 4.7835 4 5.75 4H14.25ZM18.25 4C19.2165 4 20 4.7835 20 5.75V18.25C20 19.2165 19.2165 20 18.25 20H17.75C17.3358 20 17 19.6642 17 19.25C17 18.8358 17.3358 18.5 17.75 18.5H18.25C18.3881 18.5 18.5 18.3881 18.5 18.25V5.75C18.5 5.61193 18.3881 5.5 18.25 5.5H17.75C17.3358 5.5 17 5.16421 17 4.75C17 4.33579 17.3358 4 17.75 4H18.25ZM5.75 5.5C5.61193 5.5 5.5 5.61193 5.5 5.75V18.25C5.5 18.3881 5.61193 18.5 5.75 18.5H14.25C14.3881 18.5 14.5 18.3881 14.5 18.25V5.75C14.5 5.61193 14.3881 5.5 14.25 5.5H5.75Z" fill="black"/>
</svg>
