<svg width="24" height="24" viewBox="0 0 24 24" fill="none" xmlns="http://www.w3.org/2000/svg">
<path fill-rule="evenodd" clip-rule="evenodd" d="M14.5127 4.03817C14.9057 3.90719 15.3309 4.11983 15.4619 4.51278L16.624 8.00009H19.25C19.4764 8.00009 19.6906 8.10241 19.833 8.27841C19.9753 8.45453 20.0309 8.68591 19.9834 8.90732L18.0723 17.8263C17.8005 19.0941 16.6795 20.0001 15.3828 20.0001H8.6172C7.32055 20.0001 6.19953 19.0941 5.92775 17.8263L4.01661 8.90732C3.96917 8.6859 4.02469 8.45453 4.16701 8.27841C4.3094 8.10241 4.52361 8.00009 4.75001 8.00009H7.37599L8.5381 4.51278C8.66909 4.11983 9.09436 3.90719 9.48732 4.03817C9.88022 4.16919 10.0929 4.59446 9.96193 4.98739L8.95802 8.00009H15.042L14.0381 4.98739C13.9071 4.59445 14.1198 4.16918 14.5127 4.03817ZM7.39454 17.5118C7.51813 18.088 8.02786 18.5001 8.6172 18.5001H15.3828C15.9722 18.5001 16.4819 18.088 16.6055 17.5118L18.3223 9.50009H5.67775L7.39454 17.5118Z" fill="black"/>
</svg>
