<svg width="24" height="24" viewBox="0 0 24 24" fill="none" xmlns="http://www.w3.org/2000/svg">
<path d="M17.25 5C18.7688 5 20 6.23122 20 7.75V16.25C20 17.7688 18.7688 19 17.25 19H6.75C5.23122 19 4 17.7688 4 16.25V7.75C4 6.23122 5.23122 5 6.75 5H17.25ZM6.75 6.5C6.05964 6.5 5.5 7.05964 5.5 7.75V16.25C5.5 16.9404 6.05964 17.5 6.75 17.5H7.16992L8.34473 15.3857L8.39941 15.3008C8.53979 15.113 8.7617 15 9 15H15C15.2723 15 15.523 15.1477 15.6553 15.3857L16.8301 17.5H17.25C17.9404 17.5 18.5 16.9404 18.5 16.25V7.75C18.5 7.05964 17.9404 6.5 17.25 6.5H6.75ZM8.88574 17.5H15.1143L14.5586 16.5H9.44141L8.88574 17.5ZM9 11C9.55228 11 10 11.4477 10 12C10 12.5523 9.55228 13 9 13C8.44772 13 8 12.5523 8 12C8 11.4477 8.44772 11 9 11ZM15 11C15.5523 11 16 11.4477 16 12C16 12.5523 15.5523 13 15 13C14.4477 13 14 12.5523 14 12C14 11.4477 14.4477 11 15 11ZM15.25 8.5C15.6642 8.5 16 8.83579 16 9.25C16 9.66421 15.6642 10 15.25 10H8.75C8.33579 10 8 9.66421 8 9.25C8 8.83579 8.33579 8.5 8.75 8.5H15.25Z" fill="black"/>
</svg>
