<svg width="24" height="24" viewBox="0 0 24 24" fill="none" xmlns="http://www.w3.org/2000/svg">
<path fill-rule="evenodd" clip-rule="evenodd" d="M18.9717 4.0535C19.2272 3.95137 19.5179 3.99765 19.7295 4.17362C19.9409 4.34964 20.0393 4.62746 19.9854 4.89725L19.1367 9.13553C19.6872 10.1501 20 11.2994 20 12.5174C19.9999 16.7009 16.3649 19.9998 12 19.9998C7.63511 19.9998 4.00012 16.7009 4 12.5174C4.00005 11.2996 4.31201 10.15 4.8623 9.13553L4.01465 4.89725C3.96069 4.62746 4.05907 4.34964 4.27051 4.17362C4.48206 3.99765 4.77281 3.95137 5.02832 4.0535L8.92188 5.61014C9.87112 5.23986 10.9112 5.03593 12 5.03593C13.0884 5.03593 14.1281 5.24007 15.0771 5.61014L18.9717 4.0535ZM15.3545 7.116C15.1685 7.19038 14.96 7.18712 14.7764 7.10721C13.9364 6.74132 12.9957 6.53593 12 6.53593C11.0043 6.53593 10.0635 6.74132 9.22363 7.10721C9.03996 7.18712 8.8315 7.19038 8.64551 7.116L5.75684 5.95975L6.3877 9.11503C6.42407 9.29717 6.39197 9.48672 6.29688 9.64628C5.78796 10.5001 5.50005 11.4779 5.5 12.5174C5.50012 15.7698 8.35691 18.4998 12 18.4998C15.6431 18.4998 18.4999 15.7698 18.5 12.5174C18.4999 11.4779 18.212 10.5001 17.7031 9.64628C17.608 9.48672 17.5759 9.29717 17.6123 9.11503L18.2422 5.95975L15.3545 7.116ZM12 12.9998C12.4142 12.9998 12.75 13.3356 12.75 13.7498V15.409C13.2274 15.2959 13.6358 15.0912 13.959 14.8758C14.1983 14.7163 14.3841 14.5564 14.5078 14.4392C14.5691 14.3811 14.6144 14.3338 14.6426 14.3035C14.6564 14.2887 14.6666 14.2783 14.6719 14.2723C14.6742 14.2696 14.6753 14.2671 14.6758 14.2664C14.9414 13.9508 15.4132 13.9092 15.7305 14.1736C16.0286 14.4223 16.0848 14.8537 15.8721 15.1687L15.8262 15.2303L15.8223 15.2342L15.7988 15.2615C15.7848 15.2775 15.766 15.2993 15.7422 15.325C15.6942 15.3766 15.6258 15.4469 15.5391 15.5291C15.3659 15.6931 15.1139 15.9086 14.791 16.1238C14.1476 16.5527 13.1918 16.9998 12 16.9998C10.8082 16.9998 9.85238 16.5527 9.20898 16.1238C8.88609 15.9086 8.63411 15.6931 8.46094 15.5291C8.37419 15.4469 8.30577 15.3766 8.25781 15.325C8.23397 15.2993 8.2152 15.2775 8.20117 15.2615L8.17773 15.2342L8.17383 15.2303C7.90874 14.9122 7.95159 14.4388 8.26953 14.1736C8.58678 13.9092 9.0586 13.9508 9.32422 14.2664C9.32466 14.2671 9.32577 14.2696 9.32812 14.2723C9.33341 14.2783 9.34363 14.2887 9.35742 14.3035C9.38558 14.3338 9.43086 14.3811 9.49219 14.4392C9.61587 14.5564 9.80174 14.7163 10.041 14.8758C10.3642 15.0912 10.7726 15.2959 11.25 15.409V13.7498C11.25 13.3356 11.5858 12.9998 12 12.9998ZM10 9.99979C10.5523 9.99979 11 10.4475 11 10.9998C10.9999 11.552 10.5522 11.9998 10 11.9998C9.44778 11.9998 9.00011 11.552 9 10.9998C9 10.4475 9.44772 9.99979 10 9.99979ZM14 9.99979C14.5523 9.99979 15 10.4475 15 10.9998C14.9999 11.552 14.5522 11.9998 14 11.9998C13.4478 11.9998 13.0001 11.552 13 10.9998C13 10.4475 13.4477 9.99979 14 9.99979Z" fill="black"/>
</svg>
