<svg width="24" height="24" viewBox="0 0 24 24" fill="none" xmlns="http://www.w3.org/2000/svg">
<path fill-rule="evenodd" clip-rule="evenodd" d="M7.09863 4.37799C7.29857 4.02821 7.73942 3.89882 8.09668 4.08502L18.0986 9.30377C19.278 9.9191 19.3674 11.5736 18.2607 12.3116L14.416 14.8741C14.1994 15.0185 13.9231 15.0404 13.6865 14.9317L10 13.2374V16.2501C10 17.7688 8.76878 19.0001 7.25 19.0001H4.75C4.33579 19.0001 4 18.6643 4 18.2501C4.00007 17.8359 4.33583 17.5001 4.75 17.5001H7.25C7.94036 17.5001 8.5 16.9404 8.5 16.2501V12.5479L4.43652 10.6817C4.24558 10.5939 4.10046 10.4296 4.03613 10.2296C3.9719 10.0292 3.9943 9.81064 4.09863 9.62799L7.09863 4.37799ZM17.2197 14.2198C17.5126 13.927 17.9874 13.927 18.2803 14.2198L18.7803 14.7198C19.0731 15.0127 19.0731 15.4874 18.7803 15.7803C18.4874 16.0732 18.0126 16.0732 17.7197 15.7803L17.2197 15.2803C16.9269 14.9874 16.9269 14.5127 17.2197 14.2198ZM5.80762 9.66021L13.9326 13.3926L17.4287 11.0635C17.5866 10.9581 17.5735 10.7218 17.4053 10.6338L8.04297 5.74811L5.80762 9.66021Z" fill="black"/>
</svg>
