<svg width="24" height="24" viewBox="0 0 24 24" fill="none" xmlns="http://www.w3.org/2000/svg">
<path d="M8.5 4C10.9853 4 13 6.01472 13 8.5V10H11.5V8.5C11.5 6.84315 10.1569 5.5 8.5 5.5C6.84315 5.5 5.5 6.84315 5.5 8.5V15.5C5.5 17.1569 6.84315 18.5 8.5 18.5C10.1569 18.5 11.5 17.1569 11.5 15.5V14H13V15.5C13 17.9853 10.9853 20 8.5 20C6.01472 20 4 17.9853 4 15.5V8.5C4 6.01472 6.01472 4 8.5 4ZM17.5 4C18.8807 4 20 5.11929 20 6.5C20 7.88071 18.8807 9 17.5 9C16.1193 9 15 7.88071 15 6.5C15 5.11929 16.1193 4 17.5 4ZM17.5 5.5C16.9477 5.5 16.5 5.94772 16.5 6.5C16.5 7.05228 16.9477 7.5 17.5 7.5C18.0523 7.5 18.5 7.05228 18.5 6.5C18.5 5.94772 18.0523 5.5 17.5 5.5Z" fill="black"/>
</svg>
