<svg width="24" height="24" viewBox="0 0 24 24" fill="none" xmlns="http://www.w3.org/2000/svg">
<path d="M4.75 16C5.16421 16 5.5 16.3358 5.5 16.75V17.25C5.5 17.9404 6.05964 18.5 6.75 18.5H7.25C7.66421 18.5 8 18.8358 8 19.25C8 19.6642 7.66421 20 7.25 20H6.75C5.23122 20 4 18.7688 4 17.25V16.75C4 16.3358 4.33579 16 4.75 16ZM13.25 4C13.6642 4 14 4.33579 14 4.75C14 5.16421 13.6642 5.5 13.25 5.5H12.75V11.25H18.5V10.75C18.5 10.3358 18.8358 10 19.25 10C19.6642 10 20 10.3358 20 10.75V13.25C20 13.6642 19.6642 14 19.25 14C18.8358 14 18.5 13.6642 18.5 13.25V12.75H12.75V18.5H13.25C13.6642 18.5 14 18.8358 14 19.25C14 19.6642 13.6642 20 13.25 20H10.75C10.3358 20 10 19.6642 10 19.25C10 18.8358 10.3358 18.5 10.75 18.5H11.25V12.75H5.5V13.25C5.5 13.6642 5.16421 14 4.75 14C4.33579 14 4 13.6642 4 13.25V10.75C4 10.3358 4.33579 10 4.75 10C5.16421 10 5.5 10.3358 5.5 10.75V11.25H11.25V5.5H10.75C10.3358 5.5 10 5.16421 10 4.75C10 4.33579 10.3358 4 10.75 4H13.25ZM19.25 16C19.6642 16 20 16.3358 20 16.75V17.25C20 18.7688 18.7688 20 17.25 20H16.75C16.3358 20 16 19.6642 16 19.25C16 18.8358 16.3358 18.5 16.75 18.5H17.25C17.9404 18.5 18.5 17.9404 18.5 17.25V16.75C18.5 16.3358 18.8358 16 19.25 16ZM7.25 4C7.66421 4 8 4.33579 8 4.75C8 5.16421 7.66421 5.5 7.25 5.5H6.75C6.05964 5.5 5.5 6.05964 5.5 6.75V7.25C5.5 7.66421 5.16421 8 4.75 8C4.33579 8 4 7.66421 4 7.25V6.75C4 5.23122 5.23122 4 6.75 4H7.25ZM17.25 4C18.7688 4 20 5.23122 20 6.75V7.25C20 7.66421 19.6642 8 19.25 8C18.8358 8 18.5 7.66421 18.5 7.25V6.75C18.5 6.05964 17.9404 5.5 17.25 5.5H16.75C16.3358 5.5 16 5.16421 16 4.75C16 4.33579 16.3358 4 16.75 4H17.25Z" fill="black"/>
</svg>
