<svg width="24" height="24" viewBox="0 0 24 24" fill="none" xmlns="http://www.w3.org/2000/svg">
<path d="M12.25 4C12.6642 4 13 4.33579 13 4.75V7H16.25C16.6642 7 17 7.33579 17 7.75C17 8.16421 16.6642 8.5 16.25 8.5H13V15.5H16.25C16.6642 15.5 17 15.8358 17 16.25C17 16.6642 16.6642 17 16.25 17H13V19.25C13 19.6642 12.6642 20 12.25 20C11.8358 20 11.5 19.6642 11.5 19.25V16.9746C8.97337 16.7237 7 14.5927 7 12C7 9.40732 8.97333 7.27526 11.5 7.02441V4.75C11.5 4.33579 11.8358 4 12.25 4ZM11.5 8.53516C9.80383 8.77775 8.5 10.2368 8.5 12C8.5 13.7632 9.8039 15.2212 11.5 15.4639V8.53516Z" fill="black"/>
</svg>
