<svg width="24" height="24" viewBox="0 0 24 24" fill="none" xmlns="http://www.w3.org/2000/svg">
<path d="M5.5 18.5H20V20H4V4H5.5V18.5ZM7.75 4C11.143 4 13.4286 5.22249 14.8506 6.9541C16.2501 8.65848 16.75 10.778 16.75 12.5V13.2949L17.6924 12.248L18.1943 11.6904L19.3096 12.6943L18.8076 13.252L16.5576 15.752L16 16.3711L15.4424 15.752L13.1924 13.252L12.6904 12.6943L13.8057 11.6904L14.3076 12.248L15.25 13.2949V12.5C15.25 11.0346 14.8195 9.27897 13.6914 7.90527C12.5856 6.55883 10.7458 5.5 7.75 5.5H7V4H7.75Z" fill="black"/>
</svg>
