<svg width="24" height="24" viewBox="0 0 24 24" fill="none" xmlns="http://www.w3.org/2000/svg">
<path d="M4.75 4C5.16421 4 5.5 4.33579 5.5 4.75V18.5H19.25C19.6642 18.5 20 18.8358 20 19.25C20 19.6642 19.6642 20 19.25 20H4.75C4.33579 20 4 19.6642 4 19.25V4.75C4 4.33579 4.33579 4 4.75 4ZM16 5C16.2126 5 16.4154 5.09004 16.5576 5.24805L18.8076 7.74805C19.0847 8.05591 19.0598 8.53052 18.752 8.80762C18.4441 9.08469 17.9695 9.05978 17.6924 8.75195L16.75 7.7041V8.5C16.75 10.222 16.2501 12.3415 14.8506 14.0459C13.4286 15.7775 11.143 17 7.75 17C7.33579 17 7 16.6642 7 16.25C7 15.8358 7.33579 15.5 7.75 15.5C10.7458 15.5 12.5856 14.4412 13.6914 13.0947C14.8195 11.721 15.25 9.96535 15.25 8.5V7.7041L14.3076 8.75195C14.0305 9.05978 13.5559 9.08469 13.248 8.80762C12.9402 8.53052 12.9153 8.05591 13.1924 7.74805L15.4424 5.24805C15.5846 5.09004 15.7874 5 16 5Z" fill="black"/>
</svg>
