<svg width="24" height="24" viewBox="0 0 24 24" fill="none" xmlns="http://www.w3.org/2000/svg">
<path d="M5.5 17.25C5.5 17.3881 5.61193 17.5 5.75 17.5H10V19H5.75C4.7835 19 4 18.2165 4 17.25V13H5.5V17.25ZM19.25 16.5C19.6642 16.5 20 16.8358 20 17.25C20 17.6642 19.6642 18 19.25 18H12.75C12.3358 18 12 17.6642 12 17.25C12 16.8358 12.3358 16.5 12.75 16.5H19.25ZM9.69922 12.2412C9.9802 11.937 10.4545 11.9183 10.7588 12.1992C11.0629 12.4801 11.0824 12.9545 10.8018 13.2588L10.7891 13.2715C10.7797 13.2818 10.7653 13.2986 10.7461 13.3203C10.7075 13.364 10.6497 13.4302 10.5781 13.5156C10.4345 13.6869 10.2345 13.9358 10.0117 14.2402C9.56159 14.8554 9.03856 15.6727 8.69629 16.5283C8.59817 16.7736 8.37813 16.9499 8.11719 16.9912C7.8564 17.0324 7.59292 16.9332 7.42383 16.7305L6.17383 15.2305C5.90871 14.9123 5.9515 14.439 6.26953 14.1738C6.58767 13.9087 7.06097 13.9515 7.32617 14.2695L7.82715 14.8711C8.14605 14.2904 8.49613 13.7699 8.80078 13.3535C9.04653 13.0177 9.26871 12.7427 9.42969 12.5508C9.51009 12.4549 9.57578 12.3796 9.62207 12.3271C9.64526 12.3009 9.66375 12.28 9.67676 12.2656C9.68316 12.2585 9.68867 12.2531 9.69238 12.249C9.69408 12.2472 9.69518 12.2453 9.69629 12.2441L9.69824 12.2422V12.2412H9.69922ZM19.25 14C19.6642 14 20 14.3358 20 14.75C20 15.1642 19.6642 15.5 19.25 15.5H12.75C12.3358 15.5 12 15.1642 12 14.75C12 14.3358 12.3358 14 12.75 14H19.25ZM8.25 5C9.2165 5 10 5.7835 10 6.75V9.25C10 10.2165 9.2165 11 8.25 11H5.75C4.7835 11 4 10.2165 4 9.25V6.75C4 5.7835 4.7835 5 5.75 5H8.25ZM19.25 8.5C19.6642 8.5 20 8.83579 20 9.25C20 9.66421 19.6642 10 19.25 10H12.75C12.3358 10 12 9.66421 12 9.25C12 8.83579 12.3358 8.5 12.75 8.5H19.25ZM5.75 6.5C5.61193 6.5 5.5 6.61193 5.5 6.75V9.25C5.5 9.38807 5.61193 9.5 5.75 9.5H8.25C8.38807 9.5 8.5 9.38807 8.5 9.25V6.75C8.5 6.61193 8.38807 6.5 8.25 6.5H5.75ZM19.25 6C19.6642 6 20 6.33579 20 6.75C20 7.16421 19.6642 7.5 19.25 7.5H12.75C12.3358 7.5 12 7.16421 12 6.75C12 6.33579 12.3358 6 12.75 6H19.25Z" fill="black"/>
</svg>
