<svg width="24" height="24" viewBox="0 0 24 24" fill="none" xmlns="http://www.w3.org/2000/svg">
<path d="M12 4C16.4183 4 20 7.58172 20 12C20 16.4183 16.4183 20 12 20C7.58172 20 4 16.4183 4 12C4 7.58172 7.58172 4 12 4ZM12 5.5C8.41015 5.5 5.5 8.41015 5.5 12C5.5 15.5899 8.41015 18.5 12 18.5C15.5899 18.5 18.5 15.5899 18.5 12C18.5 8.41015 15.5899 5.5 12 5.5ZM13.5996 9.37695C13.8057 9.01772 14.2638 8.89355 14.623 9.09961C14.9823 9.30574 15.1065 9.76379 14.9004 10.123L12.6064 14.1201C11.9017 15.3483 10.1065 15.275 9.50488 13.9932L9.07129 13.0684C8.8954 12.6934 9.05668 12.2472 9.43164 12.0713C9.80661 11.8954 10.2528 12.0567 10.4287 12.4316L10.8623 13.3555C10.9482 13.5386 11.2049 13.5494 11.3057 13.374L13.5996 9.37695Z" fill="black"/>
</svg>
