<svg width="24" height="24" viewBox="0 0 24 24" fill="none" xmlns="http://www.w3.org/2000/svg">
<path fill-rule="evenodd" clip-rule="evenodd" d="M15.8474 7.11708C16.168 6.91267 16.5979 6.98021 16.8386 7.28505C17.0792 7.58985 17.0452 8.0235 16.7722 8.28798L16.7146 8.33876L16.7136 8.33974C16.7121 8.34091 16.7093 8.34277 16.7058 8.3456C16.6983 8.35159 16.6856 8.36093 16.6697 8.37392C16.6378 8.39992 16.5897 8.44013 16.5271 8.49306C16.4017 8.599 16.219 8.75744 15.9949 8.96279C15.5456 9.37429 14.9322 9.97275 14.282 10.7138C12.9707 12.2081 11.5574 14.2289 10.9753 16.4403C10.9014 16.7214 10.6713 16.9346 10.3855 16.9872C10.0995 17.0397 9.80841 16.9221 9.63939 16.6854L7.13939 13.1854C6.89892 12.8484 6.97726 12.3802 7.31419 12.1395C7.65122 11.899 8.11939 11.9774 8.36009 12.3143L10.0085 14.622C10.7998 12.6826 12.0455 10.9879 13.155 9.72353C13.8482 8.93364 14.5009 8.2973 14.9812 7.85732C15.2216 7.63706 15.4201 7.46519 15.5593 7.34755C15.6289 7.28875 15.6841 7.24305 15.7224 7.21181C15.7413 7.19642 15.7558 7.18411 15.7663 7.17568C15.7715 7.17155 15.776 7.16832 15.779 7.16591C15.7805 7.16476 15.782 7.16372 15.7829 7.16298L15.7849 7.16103L15.8474 7.11708Z" fill="black"/>
</svg>
