<svg width="24" height="24" viewBox="0 0 24 24" fill="none" xmlns="http://www.w3.org/2000/svg">
<path fill-rule="evenodd" clip-rule="evenodd" d="M7.57324 4.13411C7.8333 3.95407 8.17809 3.95625 8.43555 4.13997L19.5166 12.0511C19.7988 12.1588 20 12.4303 20 12.7503V15.0003C19.9998 15.4144 19.6641 15.7503 19.25 15.7503H18.75C18.6119 15.7503 18.5 15.8622 18.5 16.0003C18.5002 16.1383 18.612 16.2503 18.75 16.2503H19.25C19.6642 16.2503 20 16.5861 20 17.0003V19.2503C19.9998 19.6644 19.6641 20.0003 19.25 20.0003H4.75C4.33588 20.0003 4.00016 19.6644 4 19.2503V12.7503C4 12.7204 4.00147 12.6905 4.00488 12.6615C4.06356 9.69806 4.8858 7.60643 5.7373 6.23079C6.17723 5.52014 6.62102 5.00627 6.96191 4.66536C7.13229 4.49498 7.27765 4.3671 7.38379 4.27961C7.43652 4.23616 7.47968 4.20221 7.51172 4.17805C7.52773 4.16599 7.54153 4.15614 7.55176 4.14876C7.55658 4.14528 7.561 4.14241 7.56445 4.13997C7.56617 4.13875 7.56797 4.13705 7.56934 4.13606L7.57129 4.13508L7.57227 4.13411C7.57386 4.13582 7.59025 4.15901 7.78613 4.44172L7.57324 4.13411ZM5.5 13.5003V18.5003H18.5V17.7298C17.6522 17.6083 17.0001 16.8817 17 16.0003C17 15.1188 17.6521 14.3913 18.5 14.2698V13.5003H5.5ZM8.02246 5.7259C7.75403 5.99435 7.38511 6.4183 7.0127 7.01985C6.36142 8.07198 5.68739 9.68676 5.5332 12.0003H16.8652L8.04492 5.70344C8.03754 5.71074 8.03 5.71836 8.02246 5.7259ZM8.42676 5.36555H8.42969L8.43066 5.36458H8.42969C8.42908 5.36489 8.42763 5.36491 8.42676 5.36555Z" fill="#141414"/>
</svg>
