<svg width="24" height="24" viewBox="0 0 24 24" fill="none" xmlns="http://www.w3.org/2000/svg">
<path fill-rule="evenodd" clip-rule="evenodd" d="M16.2499 4C16.5452 4 16.8135 4.17305 16.9345 4.44238C17.0555 4.71176 17.0066 5.02731 16.8105 5.24805L15.8212 6.36133C15.2925 6.95617 15 7.72464 14.9999 8.52051V11.0352L19.8857 18.8525C20.0301 19.0836 20.0381 19.3749 19.9062 19.6133C19.774 19.8517 19.5226 20 19.2499 20H4.74992C4.47728 20 4.22584 19.8517 4.09367 19.6133C3.9617 19.3749 3.96975 19.0836 4.11418 18.8525L8.99993 11.0352V8.52051C8.99985 7.72464 8.70739 6.95617 8.17864 6.36133L7.18938 5.24805C6.99325 5.02731 6.94439 4.71176 7.06535 4.44238C7.18638 4.17305 7.45464 4 7.74992 4H16.2499ZM7.35246 16.5L6.10246 18.5H17.8974L16.6474 16.5H7.35246ZM9.41496 5.5C10.1149 6.34914 10.4999 7.41644 10.4999 8.52051V11.25C10.4999 11.3906 10.4602 11.5283 10.3857 11.6475L8.28996 15H15.7099L13.6142 11.6475C13.5397 11.5283 13.4999 11.3906 13.4999 11.25V8.52051C13.5 7.41644 13.885 6.34914 14.5849 5.5H9.41496Z" fill="black"/>
</svg>
