<svg width="24" height="24" viewBox="0 0 24 24" fill="none" xmlns="http://www.w3.org/2000/svg">
<path fill-rule="evenodd" clip-rule="evenodd" d="M17.2499 4C17.6641 4 17.9999 4.33579 17.9999 4.75C17.9999 5.16421 17.6641 5.5 17.2499 5.5H14.9999V8.95605C15 10.3145 15.3816 11.6458 16.1015 12.7979L19.8857 18.8525C20.0301 19.0836 20.0381 19.3749 19.9062 19.6133C19.774 19.8517 19.5226 20 19.2499 20H4.74992C4.47728 20 4.22584 19.8517 4.09367 19.6133C3.9617 19.3749 3.96975 19.0836 4.11418 18.8525L7.89836 12.7979C8.61829 11.6458 8.99985 10.3145 8.99993 8.95605V5.5H6.74992C6.33571 5.5 5.99993 5.16421 5.99993 4.75C5.99993 4.33579 6.33571 4 6.74992 4H17.2499ZM10.4999 5.5V8.95605C10.4998 10.5957 10.0388 12.2023 9.16985 13.5928L6.10246 18.5H17.8974L14.83 13.5928C13.961 12.2023 13.5 10.5957 13.4999 8.95605V5.5H10.4999Z" fill="black"/>
</svg>
