<svg width="24" height="24" viewBox="0 0 24 24" fill="none" xmlns="http://www.w3.org/2000/svg">
<path fill-rule="evenodd" clip-rule="evenodd" d="M13 4.7497L12.9561 4.00067C13.1621 3.98859 13.3644 4.06225 13.5146 4.2038C13.6649 4.34543 13.7499 4.54325 13.75 4.7497C13.75 4.75089 13.75 4.75351 13.75 4.75653C13.7501 4.76359 13.7506 4.77558 13.751 4.79169C13.7517 4.82488 13.7535 4.87755 13.7568 4.94599C13.7635 5.08314 13.7771 5.28734 13.8047 5.54462C13.86 6.0607 13.971 6.78745 14.1934 7.61786C14.6401 9.28555 15.5236 11.3295 17.2617 12.9518C17.3135 13.0002 17.3537 13.0562 17.3887 13.114C18.8912 13.5072 19.9999 14.8739 20 16.4997C20 18.4327 18.433 19.9997 16.5 19.9997C14.567 19.9997 13 18.4327 13 16.4997C13.0001 14.9503 14.0071 13.6359 15.4023 13.1755C13.9422 11.4818 13.1614 9.56418 12.7441 8.00653C12.498 7.08735 12.3744 6.28226 12.3125 5.70477C12.3112 5.69278 12.3098 5.68044 12.3086 5.66864C12.0105 5.76994 11.6579 5.92733 11.3076 6.1745C10.4979 6.74603 9.59266 7.86374 9.50781 10.1472C10.9494 10.5799 11.9999 11.9172 12 13.4997C12 15.4327 10.433 16.9997 8.5 16.9997C6.567 16.9997 5 15.4327 5 13.4997C5.00015 11.7326 6.30999 10.2714 8.01172 10.0339C8.12699 7.34644 9.23593 5.80162 10.4424 4.94989C11.0609 4.51335 11.6771 4.27749 12.1377 4.15106C12.3686 4.08771 12.5637 4.05136 12.7051 4.02997C12.7758 4.01928 12.8336 4.01184 12.876 4.00751C12.8972 4.00535 12.9153 4.00369 12.9287 4.00263C12.9352 4.00211 12.9408 4.00196 12.9453 4.00165C12.9475 4.0015 12.9495 4.00176 12.9512 4.00165L12.9541 4.00067H12.9551C12.9556 4.0008 12.9566 4.01204 13 4.7497ZM16.5 14.4997C15.3955 14.4997 14.5002 15.3953 14.5 16.4997C14.5 17.6043 15.3954 18.4997 16.5 18.4997C17.6046 18.4997 18.5 17.6043 18.5 16.4997C18.4998 15.3953 17.6045 14.4997 16.5 14.4997ZM8.5 11.4997C7.39553 11.4997 6.50017 12.3953 6.5 13.4997C6.5 14.6043 7.39543 15.4997 8.5 15.4997C9.60457 15.4997 10.5 14.6043 10.5 13.4997C10.4998 12.3953 9.60447 11.4997 8.5 11.4997Z" fill="black"/>
</svg>
