<svg width="24" height="24" viewBox="0 0 24 24" fill="none" xmlns="http://www.w3.org/2000/svg">
<path fill-rule="evenodd" clip-rule="evenodd" d="M16.2588 4.4814C16.445 4.27387 16.7349 4.18392 17.0107 4.25776C17.6805 4.43708 18.3405 4.73108 18.8047 5.19526C19.3354 5.72597 19.6478 6.51695 19.8184 7.30464C19.9931 8.11175 20.04 9.01473 19.9658 9.86616C19.763 12.1925 17.7359 13.5273 16.0264 14.3457C15.1015 14.7884 14.0974 15.0416 13.0732 15.0908L12.9424 15.0966C12.588 15.1136 12.2425 15.0797 11.9121 15.0039L10.6641 16.2519C10.8763 16.6193 11 17.0451 11 17.5C11 18.8807 9.88071 20 8.5 20C7.2751 20 6.25739 19.1189 6.04297 17.956C4.88072 17.7411 4 16.7244 4 15.5C4.00009 14.1193 5.11934 13 6.5 13C6.95468 13 7.38073 13.1228 7.74805 13.3349L9.04688 12.0361C9.0018 11.8024 8.97559 11.5616 8.97559 11.3154V11.0771C8.97559 9.9683 9.2244 8.87313 9.70312 7.873C10.2407 6.74991 10.983 5.53368 12.0732 4.77437C12.3777 4.56236 12.7918 4.60455 13.0469 4.87398C13.4124 5.2603 13.9276 5.49995 14.5 5.49995C15.2068 5.49995 15.8288 5.1335 16.1855 4.5771L16.2588 4.4814ZM17.083 5.85933C16.4437 6.55876 15.524 6.99995 14.5 6.99995C13.7535 6.99995 13.0612 6.76531 12.4932 6.36714C11.931 6.90963 11.4621 7.67142 11.0557 8.52046C10.6737 9.3184 10.4756 10.1925 10.4756 11.0771V11.3154C10.4756 11.5672 10.5161 11.8083 10.5898 12.0322C10.6782 12.3009 10.6082 12.5967 10.4082 12.7968L8.33789 14.8671C8.19192 15.0131 7.9915 15.0919 7.78516 15.0859C7.57906 15.0798 7.38425 14.9898 7.24707 14.8359C7.06283 14.629 6.79696 14.5 6.5 14.5C5.94777 14.5 5.50009 14.9477 5.5 15.5C5.5 16.0522 5.94772 16.5 6.5 16.5C6.55328 16.5 6.6051 16.496 6.65527 16.4882C6.89169 16.4515 7.13158 16.53 7.30078 16.6992C7.46998 16.8684 7.54844 17.1082 7.51172 17.3447C7.50394 17.3948 7.50001 17.4467 7.5 17.5C7.5 18.0522 7.94772 18.5 8.5 18.5C9.05228 18.5 9.5 18.0522 9.5 17.5C9.49995 17.2032 9.37173 16.9371 9.16504 16.7529C9.01098 16.6157 8.92012 16.421 8.91406 16.2148C8.90811 16.0085 8.98685 15.808 9.13281 15.6621L11.167 13.6289L11.249 13.5576C11.4514 13.4069 11.7191 13.3668 11.96 13.457C12.2408 13.5622 12.5486 13.614 12.8711 13.5986L13.001 13.5917C13.8255 13.5522 14.6343 13.3486 15.3789 12.9921C17.0734 12.1809 18.3467 11.1697 18.4717 9.73628C18.5341 9.02035 18.4926 8.26894 18.3525 7.62202C18.2082 6.95554 17.98 6.49165 17.7441 6.25581C17.6053 6.11697 17.384 5.97976 17.083 5.85933Z" fill="black"/>
</svg>
