<svg width="24" height="24" viewBox="0 0 24 24" fill="none" xmlns="http://www.w3.org/2000/svg">
<path fill-rule="evenodd" clip-rule="evenodd" d="M19.2501 8C19.6642 8.00004 20.0001 8.33581 20.0001 8.75C20.0001 9.90541 19.6025 10.6848 19.1485 11.1797C19.1236 11.2068 19.0962 11.2307 19.0714 11.2559C19.2669 11.502 19.445 11.768 19.5675 12.0508C19.9092 12.84 19.3928 13.5184 18.9395 13.7998C17.0004 15.0034 15.4029 15.5632 13.8067 15.8115C12.2456 16.0544 10.691 15.9932 8.93464 15.9932C7.01675 15.9932 5.72652 15.6807 4.93268 15.0752C4.06094 14.4101 3.91977 13.5061 4.03522 12.7568L4.05671 12.6621C4.11925 12.4464 4.2762 12.2681 4.4864 12.1797L4.48737 12.1787L4.48933 12.1777C4.49098 12.1771 4.49354 12.1769 4.49616 12.1758C4.50146 12.1736 4.50848 12.1697 4.51765 12.166C4.53612 12.1585 4.56244 12.1478 4.59577 12.1348C4.66267 12.1085 4.75919 12.0718 4.87995 12.0283C5.12123 11.9414 5.46406 11.8269 5.87409 11.7119C6.68722 11.484 7.8 11.2471 8.93464 11.2471C10.6859 11.2471 11.3495 11.0802 11.751 10.9023C11.9688 10.8059 12.1252 10.7023 12.3995 10.5371C12.6669 10.3761 12.9881 10.1959 13.4503 10.0225C14.8486 9.49778 16.6009 9.38289 17.9708 10.2373C17.9942 10.2153 18.019 10.1922 18.043 10.166C18.2432 9.94786 18.5001 9.52998 18.5001 8.75C18.5001 8.33579 18.8359 8 19.2501 8ZM17.6319 11.8809C16.7983 11.0096 15.3694 10.9041 13.9766 11.4268C13.6308 11.5566 13.3959 11.688 13.1729 11.8223C12.9568 11.9525 12.6874 12.1287 12.3585 12.2744C11.6662 12.581 10.7485 12.7471 8.93464 12.7471C7.99062 12.7471 7.02437 12.9471 6.27839 13.1562C5.9781 13.2404 5.7188 13.3247 5.51765 13.3945C5.55493 13.5794 5.65428 13.739 5.84284 13.8828C6.23597 14.1824 7.11153 14.4932 8.93464 14.4932C10.7756 14.4932 12.1635 14.5489 13.5762 14.3291C14.95 14.1153 16.354 13.6352 18.1329 12.5332C18.0286 12.3428 17.8609 12.1202 17.6319 11.8809Z" fill="black"/>
</svg>
