<svg width="24" height="24" viewBox="0 0 24 24" fill="none" xmlns="http://www.w3.org/2000/svg">
<path fill-rule="evenodd" clip-rule="evenodd" d="M11.9999 4C12.2262 4 12.4405 4.10242 12.5829 4.27832L17.8329 10.7783C18.0144 11.0031 18.0512 11.3125 17.9267 11.5732C17.8021 11.8339 17.5388 12 17.2499 12H16.4384L18.8183 14.7607C19.0095 14.9829 19.0536 15.296 18.9315 15.5625C18.8093 15.829 18.5431 16 18.2499 16H17.0605L19.7802 18.7197C19.9947 18.9342 20.0593 19.2569 19.9433 19.5371C19.8271 19.8173 19.5532 20 19.2499 20H4.7499C4.44669 19.9999 4.17259 19.8173 4.05654 19.5371C3.9406 19.257 4.00532 18.9342 4.21963 18.7197L6.93936 16H5.7499C5.4568 15.9999 5.19042 15.8289 5.06826 15.5625C4.94627 15.2961 4.9905 14.9828 5.18154 14.7607L7.56143 12H6.7499C6.4611 11.9999 6.19765 11.8339 6.07315 11.5732C5.94873 11.3126 5.98551 11.003 6.1669 10.7783L11.4169 4.27832L11.4735 4.21582C11.613 4.07842 11.8019 4.00009 11.9999 4ZM8.31924 10.5H9.19815C9.49133 10.5 9.75756 10.671 9.87979 10.9375C10.0019 11.204 9.95772 11.5171 9.76651 11.7393L7.38662 14.5H8.7499C9.05321 14.5 9.32715 14.6827 9.44326 14.9629C9.55931 15.2431 9.49466 15.5658 9.28018 15.7803L6.56045 18.5H17.4394L14.7196 15.7803C14.5053 15.5658 14.4406 15.243 14.5565 14.9629C14.6726 14.6827 14.9467 14.5001 15.2499 14.5H16.6132L14.2333 11.7393C14.0422 11.5172 13.998 11.2039 14.12 10.9375C14.2422 10.6711 14.5086 10.5001 14.8017 10.5H15.6806L11.9999 5.94336L8.31924 10.5Z" fill="black"/>
</svg>
