<svg width="24" height="24" viewBox="0 0 24 24" fill="none" xmlns="http://www.w3.org/2000/svg">
<path d="M10 4C12.7074 4 14.9953 5.79336 15.7422 8.25684C18.2063 9.00333 20 11.2922 20 14C20 17.3137 17.3137 20 14 20C11.2922 20 9.00333 18.2063 8.25684 15.7422C5.79336 14.9953 4 12.7074 4 10C4 6.68629 6.68629 4 10 4ZM16 10C16 13.3137 13.3137 16 10 16C9.98925 16 9.97851 15.9991 9.96777 15.999C10.704 17.4812 12.2328 18.5 14 18.5C16.4853 18.5 18.5 16.4853 18.5 14C18.5 12.2328 17.4812 10.704 15.999 9.96777C15.9991 9.97851 16 9.98925 16 10ZM14 9.5C11.5147 9.5 9.5 11.5147 9.5 14C9.5 14.1603 9.50807 14.3187 9.52441 14.4746C9.68072 14.491 9.83935 14.5 10 14.5C12.4853 14.5 14.5 12.4853 14.5 10C14.5 9.83935 14.491 9.68072 14.4746 9.52441C14.3187 9.50807 14.1603 9.5 14 9.5ZM10 5.5C7.51472 5.5 5.5 7.51472 5.5 10C5.5 11.7667 6.5185 13.2948 8 14.0312C7.99995 14.0208 8 14.0104 8 14C8 10.6863 10.6863 8 14 8C14.0104 8 14.0208 7.99995 14.0312 8C13.2948 6.5185 11.7667 5.5 10 5.5Z" fill="black"/>
</svg>
