<svg width="24" height="24" viewBox="0 0 24 24" fill="none" xmlns="http://www.w3.org/2000/svg">
<path d="M12.25 4C12.6642 4 13 4.33579 13 4.75C13 5.16421 12.6642 5.5 12.25 5.5H12C8.41015 5.5 5.5 8.41015 5.5 12C5.5 15.5899 8.41015 18.5 12 18.5C15.5899 18.5 18.5 15.5899 18.5 12V11.75C18.5 11.3358 18.8358 11 19.25 11C19.6642 11 20 11.3358 20 11.75V12C20 16.4183 16.4183 20 12 20C7.58172 20 4 16.4183 4 12C4 7.58172 7.58172 4 12 4H12.25ZM17 4C17.4142 4 17.75 4.33579 17.75 4.75V6.25H19.25C19.6642 6.25 20 6.58579 20 7C20 7.41421 19.6642 7.75 19.25 7.75H17.75V9.25C17.75 9.66421 17.4142 10 17 10C16.5858 10 16.25 9.66421 16.25 9.25V7.75H14.75C14.3358 7.75 14 7.41421 14 7C14 6.58579 14.3358 6.25 14.75 6.25H16.25V4.75C16.25 4.33579 16.5858 4 17 4Z" fill="black"/>
</svg>
