<svg width="24" height="24" viewBox="0 0 24 24" fill="none" xmlns="http://www.w3.org/2000/svg">
<path d="M13.25 4C13.6642 4 14 4.33579 14 4.75V6H15.25C16.2165 6 17 6.7835 17 7.75V18.25C17 19.2165 16.2165 20 15.25 20H8.75C7.7835 20 7 19.2165 7 18.25V7.75C7 6.7835 7.7835 6 8.75 6H10V4.75C10 4.33579 10.3358 4 10.75 4H13.25ZM8.75 7.5C8.61193 7.5 8.5 7.61193 8.5 7.75V18.25C8.5 18.3881 8.61193 18.5 8.75 18.5H15.25C15.3881 18.5 15.5 18.3881 15.5 18.25V7.75C15.5 7.61193 15.3881 7.5 15.25 7.5H8.75ZM11.3291 10.415C11.5143 10.0447 11.9646 9.89416 12.335 10.0791C12.7053 10.2643 12.8558 10.7146 12.6709 11.085L11.9639 12.5H13.25C13.5008 12.5 13.7349 12.6253 13.874 12.834C14.0131 13.0425 14.0387 13.3067 13.9424 13.5381L12.6924 16.5381C12.5331 16.9203 12.0942 17.1014 11.7119 16.9424C11.3297 16.7831 11.1486 16.3442 11.3076 15.9619L12.125 14H10.75C10.4902 14 10.249 13.8655 10.1123 13.6445C9.97573 13.4235 9.96307 13.1474 10.0791 12.915L11.3291 10.415ZM11.5 6H12.5V5.5H11.5V6Z" fill="black"/>
</svg>
