<svg width="24" height="24" viewBox="0 0 24 24" fill="none" xmlns="http://www.w3.org/2000/svg">
<path fill-rule="evenodd" clip-rule="evenodd" d="M18.583 4.40666C18.7727 4.03851 19.2256 3.89373 19.5938 4.08341C19.9618 4.2732 20.1066 4.72603 19.917 5.09416L17.1426 10.477L17.7148 10.5658C19.3474 10.8192 20.3174 12.4978 19.9033 14.0717L19.7695 14.5824L18.4902 19.4418C18.4032 19.7708 18.105 20.0004 17.7646 20.0004C14.1175 20.0004 11.5729 19.6487 9.81934 19.2143C8.50134 18.8877 7.626 18.5136 7.06445 18.2035C6.78376 18.0485 6.58168 17.9094 6.44238 17.8012C6.37311 17.7474 6.31925 17.7011 6.2793 17.6645C6.25941 17.6462 6.24181 17.6299 6.22852 17.6166C6.22207 17.6102 6.2159 17.6042 6.21094 17.599C6.20852 17.5965 6.20616 17.5935 6.2041 17.5912C6.2032 17.5903 6.20202 17.5892 6.20117 17.5883L6.2002 17.5863L6.19922 17.5854C6.20201 17.5822 6.24171 17.5449 6.75 17.0766L6.19824 17.5854C6.04165 17.4154 5.97205 17.1815 6.00977 16.9535C6.04772 16.7256 6.18953 16.5277 6.39258 16.4174C8.33015 15.3659 9.78862 13.7545 10.7529 12.4184C11.0064 12.0672 11.224 11.7373 11.4053 11.4457C11.9931 10.5001 13.0826 9.8471 14.2666 10.0307L15.5801 10.2338L18.583 4.40666ZM11.6768 13.685C10.8305 14.7944 9.66461 16.0606 8.1709 17.0824C8.56007 17.2623 9.0995 17.4672 9.82715 17.6654C9.9782 17.5393 10.1786 17.3646 10.3906 17.1518C10.8578 16.6828 11.3292 16.0917 11.5449 15.4955C11.6858 15.106 12.1154 14.9045 12.5049 15.0453C12.8943 15.1862 13.0959 15.6158 12.9551 16.0053C12.6596 16.8221 12.0964 17.5356 11.6055 18.0522C12.1698 18.1485 12.8018 18.2325 13.5078 18.3031C13.5696 18.23 13.6428 18.1409 13.7207 18.0356C13.9808 17.6838 14.3035 17.1631 14.5449 16.4955C14.6858 16.106 15.1154 15.9045 15.5049 16.0453C15.8943 16.1862 16.0959 16.6158 15.9551 17.0053C15.751 17.5696 15.4995 18.0488 15.2578 18.4369C15.8577 18.4682 16.4997 18.4891 17.1865 18.4965L18.1152 14.9711L11.6768 13.685ZM14.0361 11.5131C13.5602 11.4395 13.0154 11.6977 12.6797 12.2377C12.6581 12.2724 12.6338 12.3066 12.6113 12.3422L18.4863 13.516C18.5868 12.7851 18.1027 12.1442 17.4844 12.0483L14.0361 11.5131ZM7 4.00041C7.41421 4.00041 7.75 4.33619 7.75 4.75041V4.76994C7.75043 4.78765 7.75208 4.8161 7.75391 4.85295C7.75762 4.92798 7.76487 5.0388 7.78027 5.17228C7.8116 5.44357 7.87334 5.7926 7.99023 6.13029C8.23219 6.82885 8.60681 7.25041 9.25 7.25041C9.66421 7.25041 10 7.58619 10 8.00041C9.99975 8.41441 9.66406 8.75041 9.25 8.75041C8.60668 8.75041 8.23219 9.17171 7.99023 9.87052C7.87337 10.2083 7.81157 10.5573 7.78027 10.8285C7.76488 10.9621 7.75761 11.0729 7.75391 11.1479C7.75208 11.1848 7.75041 11.2133 7.75 11.2309V11.2504L7.74609 11.3276C7.70726 11.7053 7.38801 12.0004 7 12.0004C6.61199 12.0004 6.29274 11.7053 6.25391 11.3276L6.25 11.2504V11.2309C6.24959 11.2133 6.24792 11.1848 6.24609 11.1479C6.24239 11.0729 6.23512 10.9621 6.21973 10.8285C6.18843 10.5573 6.12663 10.2083 6.00977 9.87052C5.76782 9.17172 5.39334 8.75041 4.75 8.75041C4.33594 8.75041 4.00025 8.41441 4 8.00041C4 7.58619 4.33579 7.25041 4.75 7.25041C5.39317 7.25041 5.7678 6.82886 6.00977 6.13029C6.12666 5.7926 6.1884 5.44357 6.21973 5.17228C6.23513 5.0388 6.24238 4.92798 6.24609 4.85295C6.24792 4.81611 6.24957 4.78766 6.25 4.76994C6.25019 4.7615 6.24999 4.75388 6.25 4.75041C6.25 4.3362 6.58579 4.00041 7 4.00041ZM7 7.50529C6.88675 7.6792 6.75435 7.84696 6.60156 8.00041C6.75415 8.15368 6.88686 8.32086 7 8.49455C7.11302 8.32104 7.24508 8.15355 7.39746 8.00041C7.24488 7.8471 7.11313 7.67901 7 7.50529Z" fill="black"/>
</svg>
