<svg width="24" height="24" viewBox="0 0 24 24" fill="none" xmlns="http://www.w3.org/2000/svg">
<path d="M16.25 4C18.3211 4 20 5.67893 20 7.75V12H18.5V7.75C18.5 6.50736 17.4926 5.5 16.25 5.5H7.75C6.50736 5.5 5.5 6.50736 5.5 7.75V16.25C5.5 17.4926 6.50736 18.5 7.75 18.5H10V20H7.75C5.67893 20 4 18.3211 4 16.25V7.75C4 5.67893 5.67893 4 7.75 4H16.25ZM11.2969 10.1523C11.5362 9.97089 11.8612 9.94983 12.1221 10.0986L19.6221 14.376C19.8861 14.5267 20.0331 14.8225 19.9941 15.124C19.955 15.4257 19.7373 15.6745 19.4434 15.7529L16.0176 16.666L14.5449 19.5879C14.4038 19.8677 14.1034 20.0298 13.792 19.9951C13.4805 19.9604 13.2235 19.7357 13.1475 19.4316L11.0225 10.9316C10.9497 10.6403 11.0576 10.3337 11.2969 10.1523ZM14.1133 17.1113L14.8301 15.6904L14.8701 15.6211C14.9707 15.4654 15.1257 15.351 15.3066 15.3027L17.2891 14.7734L12.9033 12.2715L14.1133 17.1113Z" fill="black"/>
</svg>
