<svg width="24" height="24" viewBox="0 0 24 24" fill="none" xmlns="http://www.w3.org/2000/svg">
<path fill-rule="evenodd" clip-rule="evenodd" d="M11.2969 10.1524C11.5362 9.97093 11.8612 9.94987 12.1221 10.0987L19.6221 14.376C19.8862 14.5268 20.0332 14.8225 19.9942 15.1241C19.9551 15.4258 19.7374 15.6746 19.4434 15.753L16.0176 16.6661L14.545 19.5879C14.4039 19.8677 14.1034 20.0299 13.792 19.9952C13.4806 19.9604 13.2235 19.7357 13.1475 19.4317L11.0225 10.9317C10.9498 10.6404 11.0577 10.3338 11.2969 10.1524ZM6.3643 6.3643C9.51672 3.21188 14.6279 3.21192 17.7803 6.3643C18.0732 6.65717 18.0731 7.13195 17.7803 7.42485C17.4874 7.71774 17.0127 7.71774 16.7198 7.42485C14.1531 4.85826 9.99148 4.85821 7.42485 7.42485C4.85821 9.99148 4.85826 14.1531 7.42485 16.7198C7.71774 17.0127 7.71774 17.4874 7.42485 17.7803C7.13195 18.0731 6.65717 18.0732 6.3643 17.7803C3.21192 14.6279 3.21188 9.51672 6.3643 6.3643ZM14.1133 17.1114L14.8301 15.6905L14.8702 15.6211C14.9707 15.4654 15.1258 15.351 15.3067 15.3028L17.2891 14.7735L12.9034 12.2715L14.1133 17.1114ZM8.50688 8.50688C10.476 6.53772 13.6686 6.53776 15.6377 8.50688C15.9306 8.79977 15.9306 9.27453 15.6377 9.56742C15.3448 9.86029 14.8701 9.86031 14.5772 9.56742C13.1938 8.18409 10.9508 8.18405 9.56742 9.56742C8.18405 10.9508 8.18409 13.1938 9.56742 14.5772C9.86031 14.8701 9.86029 15.3448 9.56742 15.6377C9.27453 15.9306 8.79977 15.9306 8.50688 15.6377C6.53776 13.6686 6.53772 10.476 8.50688 8.50688Z" fill="black"/>
</svg>
