<svg width="24" height="24" viewBox="0 0 24 24" fill="none" xmlns="http://www.w3.org/2000/svg">
<path fill-rule="evenodd" clip-rule="evenodd" d="M4.21973 4.21967C4.51262 3.92678 4.98738 3.92678 5.28027 4.21967L6.06055 4.99994H17.25C18.7688 4.99994 20 6.23116 20 7.74994V19.2499C20 19.5533 19.8174 19.8272 19.5371 19.9433C19.2569 20.0593 18.9342 19.9947 18.7197 19.7802L4.21973 5.28022C3.92683 4.98732 3.92683 4.51256 4.21973 4.21967ZM4.75 9.99994C5.16421 9.99994 5.5 10.3357 5.5 10.7499V16.2499C5.5 16.9403 6.05964 17.4999 6.75 17.4999H12.25C12.6642 17.4999 13 17.8357 13 18.2499C13 18.6642 12.6642 18.9999 12.25 18.9999H6.75C5.23122 18.9999 4 17.7687 4 16.2499V10.7499C4 10.3357 4.33579 9.99994 4.75 9.99994ZM9.33594 8.27533C9.7731 8.09728 10.251 7.99994 10.75 7.99994H11.25C11.6642 7.99994 12 8.33573 12 8.74994C12 9.16416 11.6642 9.49994 11.25 9.49994H10.75C10.6894 9.49994 10.6296 9.50504 10.5703 9.50971L12.0723 11.0117C12.4151 9.29411 13.9316 7.99994 15.75 7.99994H16.25C16.6642 7.99994 17 8.33573 17 8.74994C17 9.16416 16.6642 9.49994 16.25 9.49994H15.75C14.5074 9.49994 13.5 10.5073 13.5 11.7499V12.4394L15.5605 14.4999H16.25C16.6642 14.4999 17 14.8357 17 15.2499C17 15.4416 16.9259 15.6144 16.8076 15.747L18.5 17.4394V7.74994C18.5 7.05959 17.9404 6.49994 17.25 6.49994H7.56055L9.33594 8.27533ZM7.75 10.9999C8.16421 10.9999 8.5 11.3357 8.5 11.7499V12.2499C8.5 13.4926 9.50736 14.4999 10.75 14.4999H11.25C11.6642 14.4999 12 14.8357 12 15.2499C12 15.6642 11.6642 15.9999 11.25 15.9999H10.75C8.67893 15.9999 7 14.321 7 12.2499V11.7499C7 11.3357 7.33579 10.9999 7.75 10.9999Z" fill="black"/>
</svg>
