<svg width="24" height="24" viewBox="0 0 24 24" fill="none" xmlns="http://www.w3.org/2000/svg">
<path d="M17.25 5C18.7688 5 20 6.23122 20 7.75V16.25C20 17.7688 18.7688 19 17.25 19H6.75C5.23122 19 4 17.7688 4 16.25V7.75C4 6.23122 5.23122 5 6.75 5H17.25ZM6.75 6.5C6.05964 6.5 5.5 7.05964 5.5 7.75V16.25C5.5 16.9404 6.05964 17.5 6.75 17.5H17.25C17.9404 17.5 18.5 16.9404 18.5 16.25V7.75C18.5 7.05964 17.9404 6.5 17.25 6.5H6.75ZM12 9.5H10.75C9.50736 9.5 8.5 10.5074 8.5 11.75V12.25C8.5 13.4926 9.50736 14.5 10.75 14.5H12V16H10.75C8.67893 16 7 14.3211 7 12.25V11.75C7 9.67893 8.67893 8 10.75 8H12V9.5ZM17 9.5H15.75C14.5074 9.5 13.5 10.5074 13.5 11.75V12.25C13.5 13.4926 14.5074 14.5 15.75 14.5H17V16H15.75C13.6789 16 12 14.3211 12 12.25V11.75C12 9.67893 13.6789 8 15.75 8H17V9.5Z" fill="black"/>
</svg>
