<svg width="24" height="24" viewBox="0 0 24 24" fill="none" xmlns="http://www.w3.org/2000/svg">
<path fill-rule="evenodd" clip-rule="evenodd" d="M16.7197 6.21967C17.0126 5.92678 17.4873 5.92678 17.7802 6.21967C18.0731 6.51256 18.0731 6.98732 17.7802 7.28022L13.0605 11.9999L17.7802 16.7197C18.0731 17.0126 18.0731 17.4873 17.7802 17.7802C17.4873 18.0731 17.0126 18.0731 16.7197 17.7802L11.9999 13.0605L7.28022 17.7802C6.98732 18.0731 6.51256 18.0731 6.21967 17.7802C5.92678 17.4873 5.92678 17.0126 6.21967 16.7197L10.9394 11.9999L6.21967 7.28022C5.92678 6.98732 5.92678 6.51256 6.21967 6.21967C6.51256 5.92678 6.98732 5.92678 7.28022 6.21967L11.9999 10.9394L16.7197 6.21967Z" fill="black"/>
</svg>
