<svg width="24" height="24" viewBox="0 0 24 24" fill="none" xmlns="http://www.w3.org/2000/svg">
<path d="M12 4C16.4183 4 20 7.58172 20 12C20 16.4183 16.4183 20 12 20C7.58172 20 4 16.4183 4 12C4 7.58172 7.58172 4 12 4ZM12 5.5C8.41015 5.5 5.5 8.41015 5.5 12C5.5 15.5899 8.41015 18.5 12 18.5C15.5899 18.5 18.5 15.5899 18.5 12C18.5 8.41015 15.5899 5.5 12 5.5ZM13.7197 9.21973C14.0126 8.92683 14.4874 8.92683 14.7803 9.21973C15.0732 9.51262 15.0732 9.98738 14.7803 10.2803L13.0605 12L14.7803 13.7197C15.0732 14.0126 15.0732 14.4874 14.7803 14.7803C14.4874 15.0732 14.0126 15.0732 13.7197 14.7803L12 13.0605L10.2803 14.7803C9.98738 15.0732 9.51262 15.0732 9.21973 14.7803C8.92683 14.4874 8.92683 14.0126 9.21973 13.7197L10.9395 12L9.21973 10.2803C8.92683 9.98738 8.92683 9.51262 9.21973 9.21973C9.51262 8.92683 9.98738 8.92683 10.2803 9.21973L12 10.9395L13.7197 9.21973Z" fill="black"/>
</svg>
