<svg width="24" height="24" viewBox="0 0 24 24" fill="none" xmlns="http://www.w3.org/2000/svg">
<path d="M12 6C14.4564 6 16.4974 7.77124 16.9189 10.1064C18.6854 10.5219 20 12.107 20 14C20 16.2091 18.2091 18 16 18H8C5.79086 18 4 16.2091 4 14C4 12.1073 5.31411 10.5222 7.08008 10.1064C7.50158 7.77115 9.54355 6 12 6ZM12 7.5C10.1339 7.5 8.60876 8.96083 8.50586 10.8008C8.48484 11.1768 8.18798 11.4788 7.8125 11.5068C6.51995 11.6025 5.5 12.6826 5.5 14C5.5 15.3807 6.61929 16.5 8 16.5H16C17.3807 16.5 18.5 15.3807 18.5 14C18.5 12.6826 17.4801 11.6025 16.1875 11.5068C15.812 11.4788 15.5152 11.1768 15.4941 10.8008C15.3912 8.96083 13.8661 7.5 12 7.5Z" fill="black"/>
</svg>
