<svg width="24" height="24" viewBox="0 0 24 24" fill="none" xmlns="http://www.w3.org/2000/svg">
<path d="M12 4C14.2091 4 16 5.79086 16 8C16 8.37768 15.9448 8.74286 15.8467 9.08984C17.6492 9.47829 19 11.0814 19 13C19 15.2091 17.2091 17 15 17C14.9814 17 14.9629 16.9983 14.9443 16.998L15.7012 18.9834C15.7888 19.2138 15.7571 19.4728 15.6172 19.6758C15.4772 19.8787 15.2466 20 15 20H9C8.75345 20 8.52281 19.8787 8.38281 19.6758C8.24293 19.4728 8.21122 19.2138 8.29883 18.9834L9.05469 16.998C9.03648 16.9983 9.01826 17 9 17C6.79086 17 5 15.2091 5 13C5 11.0817 6.35033 9.47865 8.15234 9.08984C8.05423 8.74294 8 8.37759 8 8C8 5.79086 9.79086 4 12 4ZM12 5.5C10.6193 5.5 9.5 6.61929 9.5 8C9.5 8.50008 9.64593 8.96384 9.89746 9.35352C10.0524 9.59344 10.0578 9.90142 9.91113 10.1465C9.7644 10.3912 9.49148 10.5319 9.20703 10.5088C9.13894 10.5032 9.06982 10.5 9 10.5C7.61929 10.5 6.5 11.6193 6.5 13C6.5 14.3807 7.61929 15.5 9 15.5C9.33781 15.5 9.65826 15.4335 9.9502 15.3135C10.2268 15.1997 10.5445 15.261 10.7588 15.4697C10.973 15.6784 11.043 15.9949 10.9365 16.2744L10.0889 18.5H13.9111L13.0635 16.2744C12.957 15.9949 13.027 15.6784 13.2412 15.4697C13.4555 15.261 13.7732 15.1997 14.0498 15.3135C14.3417 15.4335 14.6622 15.5 15 15.5C16.3807 15.5 17.5 14.3807 17.5 13C17.5 11.6193 16.3807 10.5 15 10.5C14.9302 10.5 14.8611 10.5032 14.793 10.5088C14.5085 10.5319 14.2356 10.3912 14.0889 10.1465C13.9422 9.90142 13.9476 9.59344 14.1025 9.35352C14.3541 8.96384 14.5 8.50008 14.5 8C14.5 6.61929 13.3807 5.5 12 5.5Z" fill="black"/>
</svg>
