<svg width="24" height="24" viewBox="0 0 24 24" fill="none" xmlns="http://www.w3.org/2000/svg">
<path fill-rule="evenodd" clip-rule="evenodd" d="M10.9042 5C13.1503 5.00021 14.3532 7.59727 12.9784 9.30664C13.0797 9.37505 13.1755 9.45495 13.2636 9.54688L19.4833 16.0391C20.5493 17.1518 19.7605 18.9998 18.2196 19H5.78019C4.23921 18.9999 3.45045 17.1518 4.51652 16.0391L10.7362 9.54688C10.7428 9.54005 10.7501 9.53404 10.7568 9.52734L10.7587 9.52539L11.7568 8.43164C12.4323 7.69086 11.9068 6.50021 10.9042 6.5C10.2669 6.50005 9.74992 7.01698 9.74992 7.6543V8.25C9.74992 8.66421 9.41413 9 8.99992 9C8.58575 8.99995 8.24992 8.66418 8.24992 8.25V7.6543C8.24992 6.18855 9.43848 5.00005 10.9042 5ZM12.1806 10.585C12.0822 10.4824 11.9176 10.4823 11.8193 10.585L5.59953 17.0771C5.44761 17.2361 5.56025 17.4999 5.78019 17.5H18.2196C18.4395 17.4998 18.5521 17.2361 18.4003 17.0771L12.1806 10.585Z" fill="black"/>
</svg>
