<svg width="24" height="24" viewBox="0 0 24 24" fill="none" xmlns="http://www.w3.org/2000/svg">
<path fill-rule="evenodd" clip-rule="evenodd" d="M15.658 4.28897C15.9123 3.96239 16.3839 3.90394 16.7107 4.15811C17.0373 4.41249 17.0957 4.88402 16.8416 5.21085L16.2283 5.99991H18.2498C18.5364 5.99991 18.7978 6.16331 18.9236 6.42081C19.0493 6.67852 19.0171 6.98587 18.8406 7.21183L12.7498 15.0077V18.4999H16.2498C16.664 18.4999 16.9997 18.8357 16.9998 19.2499C16.9998 19.6641 16.664 19.9999 16.2498 19.9999H7.74976C7.33555 19.9999 6.99976 19.6641 6.99976 19.2499C6.99978 18.8357 7.33556 18.4999 7.74976 18.4999H11.2498V15.0077L5.15894 7.21183C4.98242 6.98587 4.95023 6.67852 5.07593 6.42081C5.20171 6.16331 5.46316 5.99991 5.74976 5.99991H14.3269L15.658 4.28897ZM11.9998 13.5312L16.7117 7.49991H15.0613L13.3416 9.71085C13.0872 10.0375 12.6156 10.0959 12.2888 9.84171C11.9622 9.58733 11.9038 9.11579 12.158 8.78897L13.1609 7.49991H7.28784L11.9998 13.5312Z" fill="black"/>
</svg>
