<svg width="24" height="24" viewBox="0 0 24 24" fill="none" xmlns="http://www.w3.org/2000/svg">
<path d="M17.25 4C18.7688 4 20 5.23122 20 6.75V17.25C20 18.7688 18.7688 20 17.25 20H6.75C5.23122 20 4 18.7688 4 17.25V6.75C4 5.23122 5.23122 4 6.75 4H17.25ZM6.75 5.5C6.05964 5.5 5.5 6.05964 5.5 6.75V17.25C5.5 17.9404 6.05964 18.5 6.75 18.5H17.25C17.9404 18.5 18.5 17.9404 18.5 17.25V6.75C18.5 6.05964 17.9404 5.5 17.25 5.5H6.75ZM8.19238 10.248C8.46948 9.94022 8.94409 9.9153 9.25195 10.1924L11.752 12.4424C11.91 12.5846 12 12.7874 12 13C12 13.2126 11.91 13.4154 11.752 13.5576L9.25195 15.8076C8.94409 16.0847 8.46948 16.0598 8.19238 15.752C7.9153 15.4441 7.94022 14.9695 8.24805 14.6924L10.1279 13L8.24805 11.3076C7.94022 11.0305 7.9153 10.5559 8.19238 10.248Z" fill="black"/>
</svg>
