<svg width="24" height="24" viewBox="0 0 24 24" fill="none" xmlns="http://www.w3.org/2000/svg">
<path fill-rule="evenodd" clip-rule="evenodd" d="M7.73926 8.20008C8.04271 7.91842 8.51796 7.93589 8.7998 8.23914C9.08158 8.54259 9.06405 9.01781 8.76074 9.29969L5.85254 11.9999L8.76074 14.7001C9.06412 14.9819 9.08149 15.4571 8.7998 15.7606C8.51794 16.064 8.04275 16.0815 7.73926 15.7997L4.23926 12.5497C4.08658 12.4078 4 12.2083 4 11.9999C4.00007 11.7915 4.08656 11.5919 4.23926 11.4501L7.73926 8.20008ZM15.2002 8.23914C15.482 7.93589 15.9573 7.91842 16.2607 8.20008L19.7607 11.4501C19.9134 11.5919 19.9999 11.7915 20 11.9999C20 12.2083 19.9134 12.4078 19.7607 12.5497L16.2607 15.7997C15.9572 16.0815 15.4821 16.064 15.2002 15.7606C14.9185 15.4571 14.9359 14.9819 15.2393 14.7001L18.1465 11.9999L15.2393 9.29969C14.936 9.01781 14.9184 8.54259 15.2002 8.23914Z" fill="black"/>
</svg>
