<svg width="24" height="24" viewBox="0 0 24 24" fill="none" xmlns="http://www.w3.org/2000/svg">
<path fill-rule="evenodd" clip-rule="evenodd" d="M12.5146 5.60247C12.5961 5.1966 12.9915 4.9334 13.3975 5.01458C13.8034 5.09597 14.0665 5.4914 13.9854 5.89739L11.4854 18.3974C11.4039 18.8033 11.0086 19.0665 10.6025 18.9853C10.1966 18.9039 9.93344 18.5085 10.0146 18.1025L12.5146 5.60247ZM7.73926 8.20013C8.04273 7.9184 8.51795 7.93586 8.7998 8.23919C9.0816 8.54266 9.0641 9.01786 8.76074 9.29974L5.85254 11.9999L8.76074 14.7001C9.06414 14.982 9.08155 15.4572 8.7998 15.7607C8.51794 16.0641 8.04275 16.0816 7.73926 15.7997L4.23926 12.5497C4.08655 12.4078 4 12.2084 4 11.9999C4.00004 11.7915 4.08654 11.592 4.23926 11.4501L7.73926 8.20013ZM15.2002 8.23919C15.482 7.93586 15.9573 7.9184 16.2607 8.20013L19.7607 11.4501C19.9135 11.592 20 11.7915 20 11.9999C20 12.2084 19.9135 12.4078 19.7607 12.5497L16.2607 15.7997C15.9572 16.0816 15.4821 16.0641 15.2002 15.7607C14.9185 15.4572 14.9359 14.982 15.2393 14.7001L18.1465 11.9999L15.2393 9.29974C14.9359 9.01786 14.9184 8.54266 15.2002 8.23919Z" fill="black"/>
</svg>
