<svg width="24" height="24" viewBox="0 0 24 24" fill="none" xmlns="http://www.w3.org/2000/svg">
<path fill-rule="evenodd" clip-rule="evenodd" d="M14.9375 4C15.2122 4 15.4653 4.15028 15.5966 4.3916L17.9091 8.6416C18.0038 8.81574 18.0254 9.0207 17.9697 9.21094L14.9697 19.4609C14.876 19.7805 14.5829 20 14.25 20H9.74996C9.41698 20 9.12388 19.7805 9.03024 19.4609L6.03024 9.21094C5.97541 9.0236 5.99565 8.82197 6.08688 8.64941L8.33688 4.39941C8.46686 4.15389 8.72216 4 8.99996 4H14.9375ZM7.55465 9.08105L10.3115 18.5H13.6884L16.4423 9.08594L14.4912 5.5H9.45114L7.55465 9.08105ZM12 8C12.4142 8 12.75 8.33579 12.75 8.75V9H13.25C13.6642 9 14 9.33579 14 9.75C14 10.1642 13.6642 10.5 13.25 10.5H12.75V12.25C12.75 12.6642 12.4142 13 12 13C11.5858 13 11.25 12.6642 11.25 12.25V10.5H10.75C10.3358 10.5 9.99996 10.1642 9.99996 9.75C9.99996 9.33579 10.3358 9 10.75 9H11.25V8.75C11.25 8.33579 11.5858 8 12 8Z" fill="black"/>
</svg>
