<svg width="24" height="24" viewBox="0 0 24 24" fill="none" xmlns="http://www.w3.org/2000/svg">
<path fill-rule="evenodd" clip-rule="evenodd" d="M18.2497 4C19.2162 4 19.9997 4.7835 19.9997 5.75V19.25C19.9997 19.6642 19.6639 20 19.2497 20H4.74969C4.33561 19.9998 3.99969 19.6641 3.99969 19.25C3.99969 18.8359 4.33561 18.5002 4.74969 18.5H13.9997V10.25C13.9997 9.00736 12.9923 8 11.7497 8H4.74969C4.33561 7.99984 3.99969 7.66411 3.99969 7.25V5.75C3.99969 4.7836 4.78333 4.00016 5.74969 4H18.2497ZM5.74969 5.5C5.61176 5.50016 5.49969 5.61203 5.49969 5.75V6.5H11.7497C13.8208 6.5 15.4997 8.17893 15.4997 10.25V18.5H18.4997V5.75C18.4997 5.61193 18.3878 5.5 18.2497 5.5H5.74969ZM10.2497 11C10.4777 11 10.6933 11.1041 10.8356 11.2822C10.9779 11.4605 11.0316 11.6936 10.9811 11.916L10.9518 12.042C12.1166 12.2549 12.9997 13.2737 12.9997 14.5C12.9997 15.8807 11.8804 17 10.4997 17H10.0309C9.74622 17.6 9.13815 17.9999 8.45184 18H6.58465C5.7392 17.9999 5.01445 17.3952 4.86297 16.5635L4.01141 11.8838C3.97183 11.6653 4.03135 11.4401 4.17352 11.2695C4.31595 11.0989 4.52741 11.0001 4.74969 11H10.2497ZM6.33856 16.2949C6.36025 16.4136 6.46404 16.4999 6.58465 16.5H8.45184C8.56828 16.4998 8.66903 16.4192 8.695 16.3057L8.73993 16.1084L9.28094 12.6348L9.29071 12.584L9.31024 12.5H5.64911L6.33856 16.2949ZM10.3532 15.5H10.4997C11.052 15.5 11.4997 15.0523 11.4997 14.5C11.4997 14.0029 11.1369 13.5912 10.6618 13.5137L10.3532 15.5Z" fill="black"/>
</svg>
