<svg width="24" height="24" viewBox="0 0 24 24" fill="none" xmlns="http://www.w3.org/2000/svg">
<path d="M10 11C11.5078 11 12.904 11.2024 13.9492 11.5508C14.4679 11.7237 14.9422 11.9461 15.3018 12.2295C15.6529 12.5062 16 12.9301 16 13.5V17.5C16 18.0699 15.6529 18.4938 15.3018 18.7705C14.9422 19.0539 14.4679 19.2763 13.9492 19.4492C12.904 19.7976 11.5078 20 10 20C8.49223 20 7.096 19.7976 6.05078 19.4492C5.53211 19.2763 5.05783 19.0539 4.69824 18.7705C4.3471 18.4938 4 18.0699 4 17.5V13.5C4 12.9301 4.3471 12.5062 4.69824 12.2295C5.05783 11.9461 5.53211 11.7237 6.05078 11.5508C7.096 11.2024 8.49223 11 10 11ZM14.5 15.2334C14.3244 15.3112 14.1405 15.3855 13.9492 15.4492C12.904 15.7976 11.5078 16 10 16C8.49223 16 7.096 15.7976 6.05078 15.4492C5.8595 15.3855 5.6756 15.3112 5.5 15.2334V17.4648C5.51238 17.4842 5.54522 17.5274 5.62695 17.5918C5.79865 17.7271 6.0932 17.8826 6.52441 18.0264C7.37929 18.3113 8.60843 18.5 10 18.5C11.3916 18.5 12.6207 18.3113 13.4756 18.0264C13.9068 17.8826 14.2014 17.7271 14.373 17.5918C14.4548 17.5274 14.4876 17.4842 14.5 17.4648V15.2334ZM10 12.5C8.60843 12.5 7.37929 12.6887 6.52441 12.9736C6.0932 13.1174 5.79865 13.2729 5.62695 13.4082C5.57818 13.4466 5.54659 13.4773 5.52637 13.5C5.54659 13.5227 5.57818 13.5534 5.62695 13.5918C5.79865 13.7271 6.0932 13.8826 6.52441 14.0264C7.37929 14.3113 8.60843 14.5 10 14.5C11.3916 14.5 12.6207 14.3113 13.4756 14.0264C13.9068 13.8826 14.2014 13.7271 14.373 13.5918C14.4215 13.5536 14.4524 13.5226 14.4727 13.5C14.4524 13.4774 14.4215 13.4464 14.373 13.4082C14.2014 13.2729 13.9068 13.1174 13.4756 12.9736C12.6207 12.6887 11.3916 12.5 10 12.5ZM14 4C15.5078 4 16.904 4.20243 17.9492 4.55078C18.4679 4.72367 18.9422 4.94612 19.3018 5.22949C19.6529 5.50622 20 5.93008 20 6.5V10.5C20 11.0095 19.7204 11.4042 19.416 11.6748C19.1102 11.9466 18.7082 12.1617 18.2734 12.332L17.5752 12.6055L17.0283 11.209L17.7266 10.9355C18.0713 10.8005 18.2946 10.6642 18.4189 10.5537C18.4679 10.5102 18.4901 10.4801 18.5 10.4648V8.2334C18.3244 8.3112 18.1405 8.38546 17.9492 8.44922C16.904 8.79757 15.5078 9 14 9C12.4922 9 11.096 8.79757 10.0508 8.44922C9.8595 8.38546 9.6756 8.3112 9.5 8.2334V10H8V6.5C8 5.93008 8.3471 5.50622 8.69824 5.22949C9.05783 4.94612 9.53211 4.72367 10.0508 4.55078C11.096 4.20243 12.4922 4 14 4ZM14 5.5C12.6084 5.5 11.3793 5.68868 10.5244 5.97363C10.0932 6.11739 9.79865 6.27289 9.62695 6.4082C9.57818 6.44664 9.54659 6.47735 9.52637 6.5C9.54659 6.52265 9.57818 6.55336 9.62695 6.5918C9.79865 6.72711 10.0932 6.88261 10.5244 7.02637C11.3793 7.31132 12.6084 7.5 14 7.5C15.3916 7.5 16.6207 7.31132 17.4756 7.02637C17.9068 6.88261 18.2014 6.72711 18.373 6.5918C18.4215 6.55363 18.4524 6.52261 18.4727 6.5C18.4524 6.47739 18.4215 6.44637 18.373 6.4082C18.2014 6.27289 17.9068 6.11739 17.4756 5.97363C16.6207 5.68868 15.3916 5.5 14 5.5Z" fill="black"/>
</svg>
