<svg width="24" height="24" viewBox="0 0 24 24" fill="none" xmlns="http://www.w3.org/2000/svg">
<path d="M11.25 4C12.1069 4 12.8716 4.39246 13.376 5.00684C13.5694 4.98025 13.8351 4.9541 14.1309 4.95605C14.6897 4.95982 15.5744 5.0635 16.1738 5.7002L19.2539 8.97461C20.2645 10.0489 20.2477 11.7294 19.2158 12.7832L16.2861 15.7744L15.7617 16.3105L14.6895 15.2607L15.2139 14.7256L18.1445 11.7334C18.6134 11.2544 18.6213 10.4902 18.1621 10.002L15.082 6.72852C14.9266 6.56332 14.5921 6.45924 14.1211 6.45605C14.0744 6.45574 14.0282 6.45944 13.9834 6.46094C13.9933 6.55599 14 6.65232 14 6.75V17.25C14 18.7688 12.7688 20 11.25 20H6.75C5.23122 20 4 18.7688 4 17.25V6.75C4 5.23122 5.23122 4 6.75 4H11.25ZM6.75 5.5C6.05964 5.5 5.5 6.05964 5.5 6.75V17.25C5.5 17.9404 6.05964 18.5 6.75 18.5H11.25C11.9404 18.5 12.5 17.9404 12.5 17.25V6.75C12.5 6.05964 11.9404 5.5 11.25 5.5H6.75ZM9 15C9.55228 15 10 15.4477 10 16C10 16.5523 9.55228 17 9 17C8.44772 17 8 16.5523 8 16C8 15.4477 8.44772 15 9 15Z" fill="black"/>
</svg>
