<svg width="24" height="24" viewBox="0 0 24 24" fill="none" xmlns="http://www.w3.org/2000/svg">
<path d="M6.25 4C7.2165 4 8 4.7835 8 5.75V18.25C8 19.2165 7.2165 20 6.25 20H5.75C4.7835 20 4 19.2165 4 18.25V5.75C4 4.7835 4.7835 4 5.75 4H6.25ZM12.25 4C13.2165 4 14 4.7835 14 5.75V18.25C14 19.2165 13.2165 20 12.25 20H11.75C10.7835 20 10 19.2165 10 18.25V5.75C10 4.7835 10.7835 4 11.75 4H12.25ZM18.25 4C19.2165 4 20 4.7835 20 5.75V18.25C20 19.2165 19.2165 20 18.25 20H17.75C16.7835 20 16 19.2165 16 18.25V5.75C16 4.7835 16.7835 4 17.75 4H18.25ZM5.75 5.5C5.61193 5.5 5.5 5.61193 5.5 5.75V18.25C5.5 18.3881 5.61193 18.5 5.75 18.5H6.25C6.38807 18.5 6.5 18.3881 6.5 18.25V5.75C6.5 5.61193 6.38807 5.5 6.25 5.5H5.75ZM11.75 5.5C11.6119 5.5 11.5 5.61193 11.5 5.75V18.25C11.5 18.3881 11.6119 18.5 11.75 18.5H12.25C12.3881 18.5 12.5 18.3881 12.5 18.25V5.75C12.5 5.61193 12.3881 5.5 12.25 5.5H11.75ZM17.75 5.5C17.6119 5.5 17.5 5.61193 17.5 5.75V18.25C17.5 18.3881 17.6119 18.5 17.75 18.5H18.25C18.3881 18.5 18.5 18.3881 18.5 18.25V5.75C18.5 5.61193 18.3881 5.5 18.25 5.5H17.75Z" fill="black"/>
</svg>
