<svg width="24" height="24" viewBox="0 0 24 24" fill="none" xmlns="http://www.w3.org/2000/svg">
<path fill-rule="evenodd" clip-rule="evenodd" d="M11.5263 14.1681C11.8209 13.9278 12.2556 13.9452 12.5302 14.2198L14.7802 16.4698C15.0731 16.7627 15.0731 17.2375 14.7802 17.5304L12.5302 19.7804C12.2373 20.0733 11.7626 20.0733 11.4697 19.7804L9.21967 17.5304C8.92678 17.2375 8.92678 16.7627 9.21967 16.4698L11.4697 14.2198L11.5263 14.1681ZM10.8105 17.0001L11.9999 18.1896L13.1894 17.0001L11.9999 15.8107L10.8105 17.0001ZM6.52631 9.16809C6.82089 8.92778 7.25561 8.94524 7.53022 9.21984L9.78022 11.4698C10.0731 11.7627 10.0731 12.2375 9.78022 12.5304L7.53022 14.7804C7.23732 15.0733 6.76256 15.0733 6.46967 14.7804L4.21967 12.5304C3.92678 12.2375 3.92678 11.7627 4.21967 11.4698L6.46967 9.21984L6.52631 9.16809ZM16.5263 9.16809C16.8209 8.92778 17.2556 8.94524 17.5302 9.21984L19.7802 11.4698C20.0731 11.7627 20.0731 12.2375 19.7802 12.5304L17.5302 14.7804C17.2373 15.0733 16.7626 15.0733 16.4697 14.7804L14.2197 12.5304C13.9268 12.2375 13.9268 11.7627 14.2197 11.4698L16.4697 9.21984L16.5263 9.16809ZM5.81049 12.0001L6.99994 13.1896L8.1894 12.0001L6.99994 10.8107L5.81049 12.0001ZM15.8105 12.0001L16.9999 13.1896L18.1894 12.0001L16.9999 10.8107L15.8105 12.0001ZM11.5263 4.16809C11.8209 3.92778 12.2556 3.94524 12.5302 4.21984L14.7802 6.46984C15.0731 6.76274 15.0731 7.2375 14.7802 7.53039L12.5302 9.78039C12.2373 10.0733 11.7626 10.0733 11.4697 9.78039L9.21967 7.53039C8.92678 7.2375 8.92678 6.76274 9.21967 6.46984L11.4697 4.21984L11.5263 4.16809ZM10.8105 7.00012L11.9999 8.18957L13.1894 7.00012L11.9999 5.81066L10.8105 7.00012Z" fill="black"/>
</svg>
