<svg width="24" height="24" viewBox="0 0 24 24" fill="none" xmlns="http://www.w3.org/2000/svg">
<path d="M12 4C16.4183 4 20 7.58172 20 12C20 16.4183 16.4183 20 12 20C7.58172 20 4 16.4183 4 12C4 7.58172 7.58172 4 12 4ZM12 5.5C8.41015 5.5 5.5 8.41015 5.5 12C5.5 15.5899 8.41015 18.5 12 18.5C15.5899 18.5 18.5 15.5899 18.5 12C18.5 8.41015 15.5899 5.5 12 5.5ZM15.0068 8.04004C15.2776 7.94739 15.5779 8.01743 15.7803 8.21973C15.9827 8.4222 16.0518 8.72233 15.959 8.99316L14.3008 13.834C14.2257 14.0531 14.0531 14.2257 13.834 14.3008L8.99316 15.96C8.72237 16.0526 8.42212 15.9827 8.21973 15.7803C8.01739 15.5778 7.94732 15.2776 8.04004 15.0068L9.69922 10.166L9.73242 10.0859C9.81866 9.90536 9.97447 9.76493 10.166 9.69922L15.0068 8.04004ZM10.999 10.999L9.95605 14.0439L12.999 13.001L14.043 9.95605L10.999 10.999Z" fill="black"/>
</svg>
