<svg width="24" height="24" viewBox="0 0 24 24" fill="none" xmlns="http://www.w3.org/2000/svg">
<path d="M12 4C13.7891 4 15.4419 4.25963 16.6738 4.70312C17.2865 4.9237 17.8353 5.20396 18.2451 5.55273C18.652 5.89902 19 6.38542 19 7C19 7.28042 18.9251 7.53287 18.8076 7.75879C18.7948 7.7988 18.7788 7.83841 18.7588 7.87695L12.665 19.5957C12.536 19.8439 12.2798 20 12 20C11.7202 20 11.464 19.8439 11.335 19.5957L5.24121 7.87695C5.22113 7.83831 5.20424 7.7989 5.19141 7.75879C5.07408 7.53297 5 7.28026 5 7C5 6.38542 5.34803 5.89902 5.75488 5.55273C6.16468 5.20396 6.71353 4.9237 7.32617 4.70312C8.5581 4.25963 10.2109 4 12 4ZM16.2598 9.43164C15.0827 9.79105 13.596 10 12 10C10.4036 10 8.91643 9.79122 7.73926 9.43164L12 17.625L16.2598 9.43164ZM12 5.5C10.3376 5.5 8.86507 5.7435 7.83496 6.11426C7.31684 6.30078 6.95023 6.50583 6.72754 6.69531C6.50186 6.8874 6.5 6.99326 6.5 7C6.5 7.00674 6.50186 7.1126 6.72754 7.30469C6.95023 7.49417 7.31684 7.69922 7.83496 7.88574C8.86507 8.2565 10.3376 8.5 12 8.5C13.6624 8.5 15.1349 8.2565 16.165 7.88574C16.6832 7.69922 17.0498 7.49417 17.2725 7.30469C17.4981 7.1126 17.5 7.00674 17.5 7C17.5 6.99326 17.4981 6.8874 17.2725 6.69531C17.0498 6.50583 16.6832 6.30078 16.165 6.11426C15.1349 5.7435 13.6624 5.5 12 5.5Z" fill="black"/>
</svg>
