<svg width="24" height="24" viewBox="0 0 24 24" fill="none" xmlns="http://www.w3.org/2000/svg">
<path d="M19.25 4.99976C19.6642 4.99976 19.9999 5.33561 20 5.74976V10.2498C20 10.664 19.6642 10.9998 19.25 10.9998H17V18.2498C17 18.664 16.6642 18.9998 16.25 18.9998C15.8358 18.9998 15.5 18.664 15.5 18.2498V10.9998H8.5V18.2498C8.5 18.664 8.16421 18.9998 7.75 18.9998C7.33579 18.9998 7 18.664 7 18.2498V10.9998H4.75C4.33579 10.9998 4 10.664 4 10.2498V5.74976C4.00007 5.33561 4.33583 4.99976 4.75 4.99976H19.25ZM6.02441 9.49976H7.30859L8.97559 6.49976H7.69141L6.02441 9.49976ZM9.02441 9.49976H10.3086L11.9756 6.49976H10.6914L9.02441 9.49976ZM12.0244 9.49976H13.3086L14.9756 6.49976H13.6914L12.0244 9.49976ZM15.0244 9.49976H16.3086L17.9756 6.49976H16.6914L15.0244 9.49976ZM18.0244 9.49976H18.5V8.64331L18.0244 9.49976ZM5.5 7.35522L5.97559 6.49976H5.5V7.35522Z" fill="black"/>
</svg>
