<svg width="24" height="24" viewBox="0 0 24 24" fill="none" xmlns="http://www.w3.org/2000/svg">
<path d="M18.25 4C19.2165 3.99998 20 4.78349 20 5.75V18.25C20 19.2165 19.2165 20 18.25 20H7.75C5.67892 20 3.99999 18.3211 4 16.25V7.75C4.00004 5.67898 5.67898 4.00003 7.75 4H18.25ZM7.75 5.5C6.50741 5.50003 5.50004 6.50741 5.5 7.75V16.25C5.49999 17.4926 6.50735 18.5 7.75 18.5H16V5.5H7.75ZM17.5 18.5H18.25C18.3881 18.5 18.5 18.3881 18.5 18.25V16.5H17.5V18.5ZM11 13C12.0498 13 12.7945 13.5064 13.2529 13.9766C13.4814 14.2109 13.6467 14.4436 13.7559 14.6182C13.8108 14.706 13.8526 14.7812 13.8818 14.8369C13.8965 14.8648 13.9084 14.8885 13.917 14.9062C13.9212 14.915 13.9249 14.9227 13.9277 14.9287C13.9291 14.9317 13.9306 14.9343 13.9316 14.9365C13.9321 14.9375 13.9322 14.9386 13.9326 14.9395L13.9336 14.9414V14.9424C14.1036 15.3201 13.9353 15.7636 13.5576 15.9336C13.1799 16.1036 12.7364 15.9353 12.5664 15.5576C12.5639 15.5528 12.5594 15.5449 12.5537 15.5342C12.5399 15.5079 12.5172 15.4656 12.4844 15.4131C12.4178 15.3065 12.3158 15.164 12.1787 15.0234C11.9059 14.7436 11.5251 14.5 11 14.5C10.4749 14.5 10.0941 14.7436 9.82129 15.0234C9.68436 15.1639 9.58323 15.3065 9.5166 15.4131C9.48373 15.4657 9.46009 15.5079 9.44629 15.5342C9.43977 15.5466 9.43478 15.5551 9.43262 15.5596L9.43359 15.5586C9.26336 15.9358 8.81986 16.1035 8.44238 15.9336C8.06472 15.7636 7.89644 15.3201 8.06641 14.9424L8.70898 15.2314L8.06641 14.9414L8.06738 14.9395C8.06777 14.9386 8.0679 14.9375 8.06836 14.9365C8.06939 14.9343 8.0709 14.9316 8.07227 14.9287C8.07507 14.9227 8.07877 14.915 8.08301 14.9062C8.09163 14.8885 8.1035 14.8648 8.11816 14.8369C8.14743 14.7812 8.18919 14.7061 8.24414 14.6182C8.35327 14.4436 8.51862 14.2109 8.74707 13.9766C9.20547 13.5064 9.95019 13 11 13ZM17.5 15H18.5V12.75H17.5V15ZM11 8C12.1045 8 13 8.89547 13 10C13 11.1046 12.1046 12 11 12C9.89546 12 9 11.1045 9 10C9.00005 8.89549 9.89549 8.00004 11 8ZM17.5 11.25H18.5V9H17.5V11.25ZM11 9.5C10.7239 9.50004 10.5 9.72392 10.5 10C10.5 10.2761 10.7239 10.5 11 10.5C11.2761 10.5 11.5 10.2761 11.5 10C11.5 9.7239 11.2761 9.5 11 9.5ZM17.5 7.5H18.5V5.75C18.5 5.61193 18.3881 5.5 18.25 5.5H17.5V7.5Z" fill="black"/>
</svg>
