<svg width="24" height="24" viewBox="0 0 24 24" fill="none" xmlns="http://www.w3.org/2000/svg">
<path d="M7.71973 15.2197C8.01262 14.9268 8.48738 14.9268 8.78027 15.2197C9.07317 15.5126 9.07317 15.9874 8.78027 16.2803L7.56055 17.5L8.78027 18.7197C9.07317 19.0126 9.07317 19.4874 8.78027 19.7803C8.48738 20.0732 8.01262 20.0732 7.71973 19.7803L6.5 18.5605L5.28027 19.7803C4.98738 20.0732 4.51262 20.0732 4.21973 19.7803C3.92683 19.4874 3.92683 19.0126 4.21973 18.7197L5.43945 17.5L4.21973 16.2803C3.92683 15.9874 3.92683 15.5126 4.21973 15.2197C4.51262 14.9268 4.98738 14.9268 5.28027 15.2197L6.5 16.4395L7.71973 15.2197ZM15.25 18.5C15.6642 18.5 16 18.8358 16 19.25C16 19.6642 15.6642 20 15.25 20H11.75C11.3358 20 11 19.6642 11 19.25C11 18.8358 11.3358 18.5 11.75 18.5H15.25ZM17.25 4C18.7688 4 20 5.23122 20 6.75V19.25C20 19.6642 19.6642 20 19.25 20C18.8358 20 18.5 19.6642 18.5 19.25V6.75C18.5 6.05964 17.9404 5.5 17.25 5.5H6.75C6.05964 5.5 5.5 6.05964 5.5 6.75V12.25C5.5 12.6642 5.16421 13 4.75 13C4.33579 13 4 12.6642 4 12.25V6.75C4 5.23122 5.23122 4 6.75 4H17.25ZM14.25 11C14.6642 11 15 11.3358 15 11.75C15 12.1642 14.6642 12.5 14.25 12.5H9.75C9.33579 12.5 9 12.1642 9 11.75C9 11.3358 9.33579 11 9.75 11H14.25ZM15.25 8C15.6642 8 16 8.33579 16 8.75C16 9.16421 15.6642 9.5 15.25 9.5H8.75C8.33579 9.5 8 9.16421 8 8.75C8 8.33579 8.33579 8 8.75 8H15.25Z" fill="#141414"/>
</svg>
