<svg width="24" height="24" viewBox="0 0 24 24" fill="none" xmlns="http://www.w3.org/2000/svg">
<path fill-rule="evenodd" clip-rule="evenodd" d="M11.6131 4.10735C11.8382 3.97188 12.1181 3.96416 12.3504 4.08684L16.6004 6.33684C16.8354 6.46127 16.987 6.70109 16.9988 6.96673C17.0104 7.23255 16.8804 7.48527 16.657 7.62981L12.7498 10.1572V14.332L19.6453 18.6122C19.9971 18.8306 20.1057 19.2935 19.8875 19.6454C19.669 19.9972 19.2061 20.1059 18.8543 19.8876L15.5847 17.8574C15.5113 18.0682 15.4065 18.3045 15.2488 18.5409C14.7177 19.3375 13.7181 19.9999 11.9998 19.9999C10.2815 19.9998 9.28182 19.3375 8.75076 18.5409C8.5931 18.3044 8.48826 18.0682 8.41482 17.8574L5.14529 19.8876C4.79342 20.1056 4.33042 19.9972 4.11208 19.6454C3.89403 19.2937 4.0027 18.8307 4.35427 18.6122L11.2498 14.332V4.74993C11.2498 4.48701 11.3879 4.24306 11.6131 4.10735ZM9.75271 17.0273C9.75612 17.0624 9.76357 17.1185 9.77908 17.1884C9.8112 17.333 9.87484 17.5229 9.9988 17.7089C10.2177 18.0372 10.7186 18.4998 11.9998 18.4999C13.2811 18.4999 13.7818 18.0372 14.0008 17.7089C14.1248 17.5229 14.1883 17.333 14.2205 17.1884C14.236 17.1186 14.2425 17.0624 14.2459 17.0273L11.9998 15.6327L9.75271 17.0273ZM12.7498 8.37102L14.7683 7.06438L12.7498 5.99505V8.37102Z" fill="black"/>
</svg>
