<svg width="24" height="24" viewBox="0 0 24 24" fill="none" xmlns="http://www.w3.org/2000/svg">
<path d="M10.5 6H13.5V4H15V6H15.25C16.7688 6 18 7.23122 18 8.75V9H20V10.5H18V13.5H20V15H18V15.25C18 16.7688 16.7688 18 15.25 18H15V20H13.5V18H10.5V20H9V18H8.75C7.23122 18 6 16.7688 6 15.25V15H4V13.5H6V10.5H4V9H6V8.75C6 7.23122 7.23122 6 8.75 6H9V4H10.5V6ZM8.75 7.5C8.05964 7.5 7.5 8.05964 7.5 8.75V15.25C7.5 15.9404 8.05964 16.5 8.75 16.5H15.25C15.9404 16.5 16.5 15.9404 16.5 15.25V8.75C16.5 8.05964 15.9404 7.5 15.25 7.5H8.75Z" fill="black"/>
</svg>
