<svg width="24" height="24" viewBox="0 0 24 24" fill="none" xmlns="http://www.w3.org/2000/svg">
<path d="M17 14C17.4142 14 17.75 14.3358 17.75 14.75V16.25H19.25C19.6642 16.25 20 16.5858 20 17C20 17.4142 19.6642 17.75 19.25 17.75H17.75V19.25C17.75 19.6642 17.4142 20 17 20C16.5858 20 16.25 19.6642 16.25 19.25V17.75H14.75C14.3358 17.75 14 17.4142 14 17C14 16.5858 14.3358 16.25 14.75 16.25H16.25V14.75C16.25 14.3358 16.5858 14 17 14ZM17.25 5C18.7688 5 20 6.23122 20 7.75V12.25C20 12.6642 19.6642 13 19.25 13C18.8358 13 18.5 12.6642 18.5 12.25V11H5.5V16.25C5.5 16.9404 6.05964 17.5 6.75 17.5H11.25C11.6642 17.5 12 17.8358 12 18.25C12 18.6642 11.6642 19 11.25 19H6.75C5.23122 19 4 17.7688 4 16.25V7.75C4 6.23122 5.23122 5 6.75 5H17.25ZM11.25 13.5C11.6642 13.5 12 13.8358 12 14.25C12 14.6642 11.6642 15 11.25 15H7.75C7.33579 15 7 14.6642 7 14.25C7 13.8358 7.33579 13.5 7.75 13.5H11.25ZM6.75 6.5C6.05964 6.5 5.5 7.05964 5.5 7.75V9.5H18.5V7.75C18.5 7.05964 17.9404 6.5 17.25 6.5H6.75Z" fill="black"/>
</svg>
