<svg width="24" height="24" viewBox="0 0 24 24" fill="none" xmlns="http://www.w3.org/2000/svg">
<path d="M17.25 5C18.7688 5 20 6.23122 20 7.75V16.25C20 17.7688 18.7688 19 17.25 19H6.75C5.23122 19 4 17.7688 4 16.25V7.75C4 6.23122 5.23122 5 6.75 5H17.25ZM5.5 16.25C5.5 16.9404 6.05964 17.5 6.75 17.5H17.25C17.9404 17.5 18.5 16.9404 18.5 16.25V11H5.5V16.25ZM10.25 13.5C10.6642 13.5 11 13.8358 11 14.25C11 14.6642 10.6642 15 10.25 15H7.75C7.33579 15 7 14.6642 7 14.25C7 13.8358 7.33579 13.5 7.75 13.5H10.25ZM16.25 13.5C16.6642 13.5 17 13.8358 17 14.25C17 14.6642 16.6642 15 16.25 15H15.75C15.3358 15 15 14.6642 15 14.25C15 13.8358 15.3358 13.5 15.75 13.5H16.25ZM6.75 6.5C6.05964 6.5 5.5 7.05964 5.5 7.75V9.5H18.5V7.75C18.5 7.05964 17.9404 6.5 17.25 6.5H6.75Z" fill="black"/>
</svg>
