<svg width="24" height="24" viewBox="0 0 24 24" fill="none" xmlns="http://www.w3.org/2000/svg">
<path d="M12 4C12.4142 4 12.75 4.33579 12.75 4.75V7.05566C14.911 7.38072 16.6193 9.08899 16.9443 11.25H19.25C19.6642 11.25 20 11.5858 20 12C20 12.4142 19.6642 12.75 19.25 12.75H16.9443C16.6193 14.911 14.9109 16.6183 12.75 16.9434V19.25C12.75 19.6642 12.4142 20 12 20C11.5858 20 11.25 19.6642 11.25 19.25V16.9434C9.08906 16.6183 7.38071 14.911 7.05566 12.75H4.75C4.33579 12.75 4 12.4142 4 12C4 11.5858 4.33579 11.25 4.75 11.25H7.05566C7.38072 9.08899 9.08899 7.38072 11.25 7.05566V4.75C11.25 4.33579 11.5858 4 12 4ZM8.58203 12.75C8.87269 14.0807 9.91928 15.1273 11.25 15.418V12.75H8.58203ZM12.75 15.418C14.0807 15.1273 15.1273 14.0807 15.418 12.75H12.75V15.418ZM12.75 11.25H15.418C15.1273 9.91921 14.0808 8.87165 12.75 8.58105V11.25ZM11.25 8.58105C9.91918 8.87165 8.8727 9.91921 8.58203 11.25H11.25V8.58105Z" fill="black"/>
</svg>
