<svg width="24" height="24" viewBox="0 0 24 24" fill="none" xmlns="http://www.w3.org/2000/svg">
<path d="M12.75 5.04004C16.0169 5.38804 18.612 7.98311 18.96 11.25H20V12.75H18.96C18.612 16.0169 16.0168 18.6109 12.75 18.959V20H11.25V18.959C7.98316 18.6109 5.38803 16.0169 5.04004 12.75H4V11.25H5.04004C5.38804 7.98311 7.98311 5.38804 11.25 5.04004V4H12.75V5.04004ZM12.75 10H11.25V6.55176C8.81262 6.88416 6.88519 8.81264 6.55273 11.25H10V12.75H6.55273C6.88519 15.1873 8.81268 17.1148 11.25 17.4473V14H12.75V17.4473C15.1873 17.1148 17.1148 15.1873 17.4473 12.75H14V11.25H17.4473C17.1148 8.81264 15.1874 6.88416 12.75 6.55176V10Z" fill="black"/>
</svg>
