<svg width="24" height="24" viewBox="0 0 24 24" fill="none" xmlns="http://www.w3.org/2000/svg">
<path d="M17 16C17.7111 16 18.292 16.201 18.7471 16.5381C19.1934 16.8687 19.4747 17.2976 19.6523 17.6924C19.8296 18.0862 19.9153 18.4697 19.957 18.748C19.9782 18.8891 19.9886 19.0084 19.9941 19.0947C19.9969 19.1378 19.9982 19.173 19.999 19.1992C19.9994 19.2124 19.9999 19.2239 20 19.2324V19.249C20 19.2494 20 19.25 19.25 19.25H20C20 19.6642 19.6642 20 19.25 20C18.8618 20 18.5425 19.7051 18.5039 19.3271L18.5 19.25C18.5 19.2485 18.5001 19.2464 18.5 19.2441C18.4997 19.2337 18.4987 19.2153 18.4971 19.1904C18.4938 19.14 18.4866 19.0639 18.4727 18.9707C18.4441 18.7803 18.3892 18.5388 18.2852 18.3076C18.1816 18.0774 18.041 17.8813 17.8545 17.7432C17.6767 17.6115 17.4139 17.5 17 17.5C16.2248 17.5 15.8168 17.9009 15.5635 18.3613C15.4315 18.6012 15.3498 18.8488 15.3018 19.041C15.2781 19.1356 15.2633 19.2137 15.2549 19.2646C15.2508 19.2896 15.2484 19.3079 15.2471 19.3184L15.2461 19.3281C15.2451 19.3374 15.2406 19.3462 15.2393 19.3555C15.2352 19.3841 15.2298 19.412 15.2227 19.4395C15.1822 19.5934 15.0958 19.7296 14.9746 19.8291C14.8969 19.893 14.8063 19.9402 14.708 19.9688C14.6686 19.9801 14.628 19.9893 14.5859 19.9941C14.5576 19.9974 14.529 19.9991 14.5 19.999C14.4706 19.9991 14.4417 19.9975 14.4131 19.9941C14.371 19.9892 14.3304 19.9802 14.291 19.9688C14.1928 19.9402 14.1021 19.893 14.0244 19.8291C14.0235 19.8284 14.0224 19.8279 14.0215 19.8271L13.9229 19.7285C13.8918 19.6911 13.8643 19.6506 13.8408 19.6074C13.8152 19.5604 13.7954 19.5101 13.7803 19.458C13.7689 19.4186 13.7597 19.378 13.7549 19.3359C13.7546 19.3333 13.7542 19.3307 13.7539 19.3281C13.7538 19.327 13.7536 19.3235 13.7529 19.3184C13.7516 19.3079 13.7492 19.2896 13.7451 19.2646C13.7367 19.2137 13.7219 19.1356 13.6982 19.041C13.6502 18.8488 13.5685 18.6012 13.4365 18.3613C13.1832 17.9009 12.7752 17.5 12 17.5C11.2248 17.5 10.8168 17.9009 10.5635 18.3613C10.4315 18.6012 10.3498 18.8488 10.3018 19.041C10.2781 19.1356 10.2633 19.2137 10.2549 19.2646C10.2508 19.2896 10.2484 19.3079 10.2471 19.3184L10.2461 19.3281C10.2451 19.3374 10.2406 19.3462 10.2393 19.3555C10.2352 19.3841 10.2298 19.412 10.2227 19.4395C10.1822 19.5934 10.0958 19.7296 9.97461 19.8291C9.89686 19.893 9.80628 19.9402 9.70801 19.9688C9.66856 19.9801 9.62803 19.9893 9.58594 19.9941C9.55765 19.9974 9.52903 19.9991 9.5 19.999C9.47064 19.9991 9.44169 19.9975 9.41309 19.9941C9.37101 19.9892 9.33044 19.9802 9.29102 19.9688C9.19283 19.9402 9.10215 19.893 9.02441 19.8291C9.02351 19.8284 9.02238 19.8279 9.02148 19.8271L8.92285 19.7285C8.89181 19.6911 8.86428 19.6506 8.84082 19.6074C8.81524 19.5604 8.79537 19.5101 8.78027 19.458C8.76892 19.4186 8.75974 19.378 8.75488 19.3359C8.75458 19.3333 8.75418 19.3307 8.75391 19.3281C8.75378 19.327 8.7536 19.3235 8.75293 19.3184C8.75156 19.3079 8.7492 19.2896 8.74512 19.2646C8.73674 19.2137 8.7219 19.1356 8.69824 19.041C8.65016 18.8488 8.56846 18.6012 8.43652 18.3613C8.18325 17.9009 7.77521 17.5 7 17.5C6.58606 17.5 6.32328 17.6115 6.14551 17.7432C5.95899 17.8813 5.81844 18.0774 5.71484 18.3076C5.61081 18.5388 5.55591 18.7803 5.52734 18.9707C5.51337 19.0639 5.50618 19.14 5.50293 19.1904C5.50133 19.2153 5.50031 19.2337 5.5 19.2441C5.49985 19.2493 5.50001 19.2529 5.5 19.2539L5.49609 19.3271C5.45747 19.7051 5.13817 20 4.75 20C4.33579 20 4 19.6642 4 19.25H4.75L4 19.249V19.2324C4.00012 19.2239 4.00058 19.2124 4.00098 19.1992C4.00176 19.173 4.0031 19.1378 4.00586 19.0947C4.01141 19.0084 4.02181 18.8891 4.04297 18.748C4.08472 18.4697 4.17044 18.0862 4.34766 17.6924C4.52531 17.2976 4.80664 16.8687 5.25293 16.5381C5.70797 16.201 6.28895 16 7 16C8.23089 16 9.01988 16.5924 9.5 17.2471C9.98012 16.5924 10.7691 16 12 16C13.2309 16 14.0199 16.5924 14.5 17.2471C14.9801 16.5924 15.7691 16 17 16ZM7 12C8.10457 12 9 12.8954 9 14C9 15.1046 8.10457 16 7 16C5.89543 16 5 15.1046 5 14C5 12.8954 5.89543 12 7 12ZM12 12C13.1046 12 14 12.8954 14 14C14 15.1046 13.1046 16 12 16C10.8954 16 10 15.1046 10 14C10 12.8954 10.8954 12 12 12ZM17 12C18.1046 12 19 12.8954 19 14C19 15.1046 18.1046 16 17 16C15.8954 16 15 15.1046 15 14C15 12.8954 15.8954 12 17 12ZM7 13.5C6.72386 13.5 6.5 13.7239 6.5 14C6.5 14.2761 6.72386 14.5 7 14.5C7.27614 14.5 7.5 14.2761 7.5 14C7.5 13.7239 7.27614 13.5 7 13.5ZM12 13.5C11.7239 13.5 11.5 13.7239 11.5 14C11.5 14.2761 11.7239 14.5 12 14.5C12.2761 14.5 12.5 14.2761 12.5 14C12.5 13.7239 12.2761 13.5 12 13.5ZM17 13.5C16.7239 13.5 16.5 13.7239 16.5 14C16.5 14.2761 16.7239 14.5 17 14.5C17.2761 14.5 17.5 14.2761 17.5 14C17.5 13.7239 17.2761 13.5 17 13.5ZM9 8C10.1046 8 11 8.89543 11 10C11 11.1046 10.1046 12 9 12C7.89543 12 7 11.1046 7 10C7 8.89543 7.89543 8 9 8ZM15 8C16.1046 8 17 8.89543 17 10C17 11.1046 16.1046 12 15 12C13.8954 12 13 11.1046 13 10C13 8.89543 13.8954 8 15 8ZM9 9.5C8.72386 9.5 8.5 9.72386 8.5 10C8.5 10.2761 8.72386 10.5 9 10.5C9.27614 10.5 9.5 10.2761 9.5 10C9.5 9.72386 9.27614 9.5 9 9.5ZM15 9.5C14.7239 9.5 14.5 9.72386 14.5 10C14.5 10.2761 14.7239 10.5 15 10.5C15.2761 10.5 15.5 10.2761 15.5 10C15.5 9.72386 15.2761 9.5 15 9.5ZM12 4C13.1046 4 14 4.89543 14 6C14 7.10457 13.1046 8 12 8C10.8954 8 10 7.10457 10 6C10 4.89543 10.8954 4 12 4ZM12 5.5C11.7239 5.5 11.5 5.72386 11.5 6C11.5 6.27614 11.7239 6.5 12 6.5C12.2761 6.5 12.5 6.27614 12.5 6C12.5 5.72386 12.2761 5.5 12 5.5Z" fill="black"/>
</svg>
