<svg width="24" height="24" viewBox="0 0 24 24" fill="none" xmlns="http://www.w3.org/2000/svg">
<path d="M12 4C12.2507 4 12.4849 4.12534 12.624 4.33398L15.2304 8.24414L18.8701 6.10352C19.1248 5.95382 19.4437 5.96748 19.6845 6.13867C19.9255 6.31005 20.0433 6.60752 19.9853 6.89746L18.1347 16.1484C19.219 16.5171 20 17.5411 20 18.75V19.25C20 19.6642 19.6642 20 19.25 20H4.74997C4.33577 20 3.99997 19.6642 3.99997 19.25V18.75C3.99997 17.5414 4.78045 16.5173 5.86423 16.1484L4.01462 6.89746C3.95663 6.60753 4.07446 6.31005 4.3154 6.13867C4.55623 5.96747 4.8751 5.95383 5.12985 6.10352L8.76852 8.24414L11.3759 4.33398L11.4326 4.25977C11.574 4.09605 11.7806 4.00001 12 4ZM6.74997 17.5C6.14527 17.5 5.6412 17.9295 5.52536 18.5H18.4746C18.3587 17.9295 17.8547 17.5 17.25 17.5H6.74997ZM9.62399 9.66602C9.40338 9.99692 8.96294 10.098 8.62009 9.89648L5.81345 8.24512L7.3652 16H16.6347L18.1855 8.24512L15.3799 9.89648C15.037 10.0979 14.5966 9.99692 14.3759 9.66602L12 6.10156L9.62399 9.66602Z" fill="black"/>
</svg>
