<svg width="24" height="24" viewBox="0 0 24 24" fill="none" xmlns="http://www.w3.org/2000/svg">
<path fill-rule="evenodd" clip-rule="evenodd" d="M18.6562 5.29121C18.8524 5.03748 19.1886 4.93669 19.4922 5.04023C19.7958 5.14387 20 5.42937 20 5.75019V16.2502C20 16.3907 19.9602 16.5285 19.8857 16.6477L19.25 16.2502C19.828 16.6115 19.8803 16.645 19.8848 16.6486L19.8838 16.6506C19.8833 16.6514 19.8833 16.6526 19.8828 16.6535C19.8816 16.6555 19.8794 16.6572 19.8779 16.6594C19.875 16.6639 19.8718 16.6695 19.8682 16.675C19.8608 16.6859 19.8522 16.6988 19.8418 16.7131C19.8209 16.7419 19.7932 16.7775 19.7588 16.8185C19.6897 16.9008 19.5919 17.0051 19.459 17.1232C19.1922 17.3603 18.7878 17.6496 18.1943 17.9289C17.0082 18.4871 15.0808 19.0002 12 19.0002C8.91922 19.0002 6.99176 18.4871 5.80566 17.9289C5.21215 17.6496 4.80776 17.3603 4.54102 17.1232C4.40811 17.0051 4.31027 16.9008 4.24121 16.8185C4.20675 16.7775 4.17908 16.7419 4.1582 16.7131C4.14783 16.6988 4.13915 16.6859 4.13184 16.675C4.12817 16.6695 4.125 16.6639 4.12207 16.6594C4.12065 16.6572 4.11844 16.6555 4.11719 16.6535C4.11666 16.6526 4.11672 16.6514 4.11621 16.6506L4.11523 16.6486C4.11965 16.645 4.17197 16.6115 4.75 16.2502L4.11426 16.6477C4.03977 16.5285 4 16.3907 4 16.2502V5.75019C4.00002 5.42937 4.20419 5.14387 4.50781 5.04023C4.81135 4.93669 5.14759 5.03748 5.34375 5.29121L8.8916 9.88203L11.3418 5.39082L11.3965 5.30488C11.5366 5.1149 11.7599 5.00019 12 5.00019C12.2743 5.00019 12.5267 5.15005 12.6582 5.39082L15.1074 9.88203L18.6562 5.29121ZM9.6582 11.6096C9.53692 11.8317 9.31187 11.9781 9.05957 11.9982C8.80715 12.0183 8.56111 11.9095 8.40625 11.7092L5.5 7.94746V15.9641C5.51208 15.9754 5.52304 15.9896 5.53711 16.0021C5.69223 16.14 5.97549 16.3508 6.44434 16.5715C7.38324 17.0133 9.08082 17.5002 12 17.5002C14.9192 17.5002 16.6168 17.0133 17.5557 16.5715C18.0245 16.3508 18.3078 16.14 18.4629 16.0021C18.477 15.9896 18.4879 15.9754 18.5 15.9641V7.94746L15.5938 11.7092C15.4389 11.9095 15.1928 12.0183 14.9404 11.9982C14.6881 11.9781 14.4631 11.8317 14.3418 11.6096L12 7.31562L9.6582 11.6096Z" fill="black"/>
</svg>
