<svg width="24" height="24" viewBox="0 0 24 24" fill="none" xmlns="http://www.w3.org/2000/svg">
<path d="M8.25 8C8.66421 8 9 8.33579 9 8.75C9 9.16421 8.66421 9.5 8.25 9.5H7.75C7.05964 9.5 6.5 10.0596 6.5 10.75V13.25C6.5 13.9404 7.05964 14.5 7.75 14.5H8.25C8.66421 14.5 9 14.8358 9 15.25C9 15.6642 8.66421 16 8.25 16H7.75C6.23122 16 5 14.7688 5 13.25V10.75C5 9.23122 6.23122 8 7.75 8H8.25ZM13.25 8C13.6642 8 14 8.33579 14 8.75C14 9.16421 13.6642 9.5 13.25 9.5H11.75C11.6119 9.5 11.5 9.61193 11.5 9.75V10.5732C11.5001 10.6753 11.5624 10.7667 11.6572 10.8047L12.9004 11.3018C13.5646 11.5675 13.9999 12.2114 14 12.9268V14.25C14 15.2165 13.2165 16 12.25 16H10.75C10.3358 16 10 15.6642 10 15.25C10 14.8358 10.3358 14.5 10.75 14.5H12.25C12.3881 14.5 12.5 14.3881 12.5 14.25V12.9268C12.4999 12.8247 12.4376 12.7333 12.3428 12.6953L11.0996 12.1982C10.4354 11.9325 10.0001 11.2886 10 10.5732V9.75C10 8.7835 10.7835 8 11.75 8H13.25ZM18.25 8C18.6642 8 19 8.33579 19 8.75C19 9.16421 18.6642 9.5 18.25 9.5H16.75C16.6119 9.5 16.5 9.61193 16.5 9.75V10.5732C16.5001 10.6753 16.5624 10.7667 16.6572 10.8047L17.9004 11.3018C18.5646 11.5675 18.9999 12.2114 19 12.9268V14.25C19 15.2165 18.2165 16 17.25 16H15.75C15.3358 16 15 15.6642 15 15.25C15 14.8358 15.3358 14.5 15.75 14.5H17.25C17.3881 14.5 17.5 14.3881 17.5 14.25V12.9268C17.4999 12.8247 17.4376 12.7333 17.3428 12.6953L16.0996 12.1982C15.4354 11.9325 15.0001 11.2886 15 10.5732V9.75C15 8.7835 15.7835 8 16.75 8H18.25Z" fill="black"/>
</svg>
