<svg width="24" height="24" viewBox="0 0 24 24" fill="none" xmlns="http://www.w3.org/2000/svg">
<path d="M16.25 4C16.6642 4 17 4.33579 17 4.75C17 5.16421 16.6642 5.5 16.25 5.5H13.75C13.0596 5.5 12.5 6.05964 12.5 6.75V7.01367C13.5702 7.06925 14.558 7.30148 15.3301 7.67285C16.1677 8.07577 17 8.77795 17 9.79492C17 9.89824 16.989 9.9979 16.9727 10.0947L16.1855 17.5391C16.0376 18.9381 14.857 20 13.4502 20H10.5498C9.14298 20 7.96241 18.9381 7.81445 17.5391L7.02734 10.0947C7.01101 9.9979 7.00003 9.89824 7 9.79492C7 8.77795 7.83234 8.07577 8.66992 7.67285C9.32016 7.3601 10.1235 7.14686 11 7.05371V6.75C11 5.23122 12.2312 4 13.75 4H16.25ZM15.2676 11.9424C14.3841 12.353 13.2321 12.5889 12 12.5889C10.7676 12.5889 9.61502 12.3532 8.73145 11.9424L9.30664 17.3818C9.37406 18.0176 9.91046 18.5 10.5498 18.5H13.4502C14.0895 18.5 14.6259 18.0176 14.6934 17.3818L15.2676 11.9424ZM12.5 9.25C12.5 9.66421 12.1642 10 11.75 10C11.3358 10 11 9.66421 11 9.25V8.56445C10.3358 8.64947 9.75907 8.81342 9.32031 9.02441C8.65611 9.34393 8.51489 9.64903 8.50195 9.77539L8.51074 9.85938C8.55068 10.0045 8.72651 10.2788 9.32031 10.5645C9.9674 10.8756 10.9139 11.0889 12 11.0889C13.0861 11.0889 14.0326 10.8756 14.6797 10.5645C15.2731 10.279 15.4482 10.0046 15.4883 9.85938L15.4971 9.77539C15.4841 9.64897 15.3437 9.34384 14.6797 9.02441C14.1341 8.76204 13.3755 8.57062 12.5 8.5166V9.25Z" fill="black"/>
</svg>
