<svg width="24" height="24" viewBox="0 0 24 24" fill="none" xmlns="http://www.w3.org/2000/svg">
<path d="M12 4C13.9991 4 15.8897 4.29496 17.3027 4.74609C18.0047 4.97023 18.6263 5.24469 19.0889 5.56641C19.4941 5.84828 19.9601 6.29775 19.9961 6.92285C19.9987 6.94821 20 6.97395 20 7V17C20 17.6655 19.5106 18.1402 19.0889 18.4336C18.6263 18.7553 18.0047 19.0298 17.3027 19.2539C15.8897 19.705 13.9991 20 12 20C10.0009 20 8.11026 19.705 6.69727 19.2539C5.9953 19.0298 5.37372 18.7553 4.91113 18.4336C4.48944 18.1402 4 17.6655 4 17V7C4 6.33453 4.48944 5.85975 4.91113 5.56641C5.37372 5.24469 5.9953 4.97023 6.69727 4.74609C8.11026 4.29496 10.0009 4 12 4ZM18.5 13.7773C18.1445 13.9549 17.7393 14.1145 17.3027 14.2539C15.8897 14.705 13.9991 15 12 15C10.0009 15 8.11026 14.705 6.69727 14.2539C6.26066 14.1145 5.85549 13.9549 5.5 13.7773V16.958C5.51585 16.9836 5.57519 17.0683 5.76758 17.2021C6.06028 17.4057 6.52637 17.625 7.15332 17.8252C8.39881 18.2229 10.1332 18.5 12 18.5C13.8668 18.5 15.6012 18.2229 16.8467 17.8252C17.4736 17.625 17.9397 17.4057 18.2324 17.2021C18.4248 17.0683 18.4842 16.9836 18.5 16.958V13.7773ZM18.5 8.77734C18.1445 8.95495 17.7393 9.1145 17.3027 9.25391C15.8897 9.70504 13.9991 10 12 10C10.0009 10 8.11026 9.70504 6.69727 9.25391C6.26066 9.1145 5.85549 8.95495 5.5 8.77734V11.959C5.51595 11.9852 5.5762 12.069 5.76758 12.2021C6.06028 12.4057 6.52637 12.625 7.15332 12.8252C8.39881 13.2229 10.1332 13.5 12 13.5C13.8668 13.5 15.6012 13.2229 16.8467 12.8252C17.4736 12.625 17.9397 12.4057 18.2324 12.2021C18.4248 12.0683 18.4841 11.9837 18.5 11.958V8.77734ZM12 5.5C10.1332 5.5 8.39881 5.77713 7.15332 6.1748C6.52637 6.37499 6.06028 6.59429 5.76758 6.79785C5.63793 6.88804 5.57042 6.95761 5.53418 7C5.57042 7.04239 5.63793 7.11196 5.76758 7.20215C6.06028 7.40571 6.52637 7.62501 7.15332 7.8252C8.39881 8.22287 10.1332 8.5 12 8.5C13.8668 8.5 15.6012 8.22287 16.8467 7.8252C17.4736 7.62501 17.9397 7.40571 18.2324 7.20215C18.3621 7.11196 18.4296 7.04239 18.4658 7C18.4296 6.95761 18.3621 6.88804 18.2324 6.79785C17.9397 6.59429 17.4736 6.37499 16.8467 6.1748C15.6012 5.77713 13.8668 5.5 12 5.5Z" fill="black"/>
</svg>
