<svg width="24" height="24" viewBox="0 0 24 24" fill="none" xmlns="http://www.w3.org/2000/svg">
<path d="M12 4C13.9991 4 15.8897 4.29496 17.3027 4.74609C18.0047 4.97023 18.6263 5.24469 19.0889 5.56641C19.4941 5.84828 19.9601 6.29775 19.9961 6.92285C19.9987 6.94821 20 6.97395 20 7V13.25C20 13.6642 19.6642 14 19.25 14C18.8358 14 18.5 13.6642 18.5 13.25V8.77734C18.1445 8.95495 17.7393 9.1145 17.3027 9.25391C15.8897 9.70504 13.9991 10 12 10C10.0009 10 8.11026 9.70504 6.69727 9.25391C6.26066 9.1145 5.85549 8.95495 5.5 8.77734V11.9463C5.52109 11.9757 5.59016 12.0601 5.78906 12.1904C6.10727 12.3988 6.60763 12.6207 7.26855 12.8223C8.58188 13.2228 10.3829 13.5 12.25 13.5C12.6642 13.5 13 13.8358 13 14.25C13 14.6642 12.6642 15 12.25 15C10.2512 15 8.30123 14.7052 6.83105 14.2568C6.34262 14.1079 5.89083 13.9358 5.5 13.7441V16.9453C5.52047 16.9741 5.58864 17.0592 5.78906 17.1904C6.10727 17.3988 6.60763 17.6207 7.26855 17.8223C8.58188 18.2228 10.3829 18.5 12.25 18.5C12.6642 18.5 13 18.8358 13 19.25C13 19.6642 12.6642 20 12.25 20C10.2512 20 8.30123 19.7052 6.83105 19.2568C6.10055 19.034 5.45066 18.7622 4.9668 18.4453C4.53684 18.1637 4 17.6888 4 17V7C4 6.33453 4.48944 5.85975 4.91113 5.56641C5.37372 5.24469 5.9953 4.97023 6.69727 4.74609C8.11026 4.29496 10.0009 4 12 4ZM19.25 16.25C19.6642 16.25 20 16.5858 20 17C20 17.4142 19.6642 17.75 19.25 17.75H15.75C15.3358 17.75 15 17.4142 15 17C15 16.5858 15.3358 16.25 15.75 16.25H19.25ZM12 5.5C10.1332 5.5 8.39881 5.77713 7.15332 6.1748C6.52637 6.37499 6.06028 6.59429 5.76758 6.79785C5.63793 6.88804 5.57042 6.95761 5.53418 7C5.57042 7.04239 5.63793 7.11196 5.76758 7.20215C6.06028 7.40571 6.52637 7.62501 7.15332 7.8252C8.39881 8.22287 10.1332 8.5 12 8.5C13.8668 8.5 15.6012 8.22287 16.8467 7.8252C17.4736 7.62501 17.9397 7.40571 18.2324 7.20215C18.3621 7.11196 18.4296 7.04239 18.4658 7C18.4296 6.95761 18.3621 6.88804 18.2324 6.79785C17.9397 6.59429 17.4736 6.37499 16.8467 6.1748C15.6012 5.77713 13.8668 5.5 12 5.5Z" fill="black"/>
</svg>
