<svg width="24" height="24" viewBox="0 0 24 24" fill="none" xmlns="http://www.w3.org/2000/svg">
<path d="M12 4C13.9991 4 15.8897 4.29496 17.3027 4.74609C18.0047 4.97023 18.6263 5.24469 19.0889 5.56641C19.4941 5.84828 19.9601 6.29775 19.9961 6.92285C19.9987 6.94821 20 6.97395 20 7V10.25C20 10.6642 19.6642 11 19.25 11C18.8358 11 18.5 10.6642 18.5 10.25V8.77734C18.1445 8.95495 17.7393 9.1145 17.3027 9.25391C15.8897 9.70504 13.9991 10 12 10C10.0009 10 8.11026 9.70504 6.69727 9.25391C6.26066 9.1145 5.85549 8.95495 5.5 8.77734V11.9482C5.51352 11.9708 5.55085 12.0267 5.64551 12.1143C5.81929 12.2749 6.10089 12.4625 6.47949 12.6436C7.23482 13.0047 8.25741 13.284 9.27051 13.3115C9.68435 13.3228 10.011 13.6672 10 14.0811C9.98875 14.4951 9.64355 14.8218 9.22949 14.8105C7.99274 14.7769 6.76511 14.4427 5.83301 13.9971C5.71896 13.9425 5.60797 13.8846 5.5 13.8252V16.96C5.51212 16.9826 5.55265 17.0501 5.66602 17.1631C5.84575 17.3422 6.13194 17.5511 6.50977 17.7529C7.26578 18.1567 8.27763 18.473 9.27051 18.5C9.68451 18.5113 10.0113 18.8565 10 19.2705C9.98868 19.6845 9.64351 20.0113 9.22949 20C7.97242 19.9658 6.73418 19.5736 5.80273 19.0762C5.3369 18.8274 4.91983 18.5369 4.60742 18.2256C4.34377 17.9628 4.04686 17.5744 4.00781 17.1025C4.00322 17.069 4 17.0348 4 17V7C4 6.33453 4.48944 5.85975 4.91113 5.56641C5.37372 5.24469 5.9953 4.97023 6.69727 4.74609C8.11026 4.29496 10.0009 4 12 4ZM16 12C18.2091 12 20 13.7909 20 16C20 18.2091 18.2091 20 16 20C13.7909 20 12 18.2091 12 16C12 13.7909 13.7909 12 16 12ZM13.7842 14.8447C13.6036 15.1904 13.5 15.5829 13.5 16C13.5 17.3807 14.6193 18.5 16 18.5C16.4169 18.5 16.8087 18.3953 17.1543 18.2148L13.7842 14.8447ZM16 13.5C15.5829 13.5 15.1904 13.6036 14.8447 13.7842L18.2148 17.1543C18.3953 16.8087 18.5 16.4169 18.5 16C18.5 14.6193 17.3807 13.5 16 13.5ZM12 5.5C10.1332 5.5 8.39881 5.77713 7.15332 6.1748C6.52637 6.37499 6.06028 6.59429 5.76758 6.79785C5.63793 6.88804 5.57042 6.95761 5.53418 7C5.57042 7.04239 5.63793 7.11196 5.76758 7.20215C6.06028 7.40571 6.52637 7.62501 7.15332 7.8252C8.39881 8.22287 10.1332 8.5 12 8.5C13.8668 8.5 15.6012 8.22287 16.8467 7.8252C17.4736 7.62501 17.9397 7.40571 18.2324 7.20215C18.3621 7.11196 18.4296 7.04239 18.4658 7C18.4296 6.95761 18.3621 6.88804 18.2324 6.79785C17.9397 6.59429 17.4736 6.37499 16.8467 6.1748C15.6012 5.77713 13.8668 5.5 12 5.5Z" fill="black"/>
</svg>
