<svg width="24" height="24" viewBox="0 0 24 24" fill="none" xmlns="http://www.w3.org/2000/svg">
<path d="M12 4C16.4183 4 20 7.58172 20 12C20 16.4183 16.4183 20 12 20C7.58172 20 4 16.4183 4 12C4 7.58172 7.58172 4 12 4ZM6.2334 15C7.31751 17.0796 9.49247 18.5 12 18.5C14.5075 18.5 16.6825 17.0796 17.7666 15H6.2334ZM12 5.5C8.41015 5.5 5.5 8.41015 5.5 12C5.5 12.5164 5.56197 13.0184 5.67578 13.5H18.3242C18.438 13.0184 18.5 12.5164 18.5 12C18.5 8.41015 15.5899 5.5 12 5.5ZM9.5 8C10.8807 8 12 9.11929 12 10.5C12 11.8807 10.8807 13 9.5 13C8.11929 13 7 11.8807 7 10.5C7 9.11929 8.11929 8 9.5 8ZM9.5 9.5C8.94772 9.5 8.5 9.94772 8.5 10.5C8.5 11.0523 8.94772 11.5 9.5 11.5C10.0523 11.5 10.5 11.0523 10.5 10.5C10.5 9.94772 10.0523 9.5 9.5 9.5Z" fill="black"/>
</svg>
