<svg width="24" height="24" viewBox="0 0 24 24" fill="none" xmlns="http://www.w3.org/2000/svg">
<path fill-rule="evenodd" clip-rule="evenodd" d="M18.5122 4.05711C18.7707 3.9907 19.3026 3.90807 19.6977 4.3032C20.0926 4.69838 20.0102 5.23027 19.9438 5.48875C19.8628 5.80362 19.6992 6.14244 19.5014 6.47214C19.0996 7.14181 18.4645 7.93095 17.6977 8.69773C17.514 8.88138 17.4311 9.21486 17.5444 9.55711C17.891 10.6035 18.0004 11.7918 18.0004 13.0005C18.0004 14.9967 16.9238 16.7385 15.7202 17.9487C15.1119 18.5603 14.4469 19.0605 13.8207 19.4126C13.2177 19.7516 12.5668 20.0004 12.0004 20.0005C11.4341 20.0005 10.7832 19.7516 10.1801 19.4126C9.55402 19.0605 8.88897 18.5602 8.28071 17.9487C7.07709 16.7385 6.00051 14.9967 6.00043 13.0005C6.00043 11.7917 6.10981 10.6036 6.45649 9.55711C6.56973 9.21501 6.48666 8.88143 6.30317 8.69773C5.53647 7.93103 4.90129 7.14177 4.49946 6.47214C4.30166 6.14248 4.13804 5.80359 4.05707 5.48875C3.99066 5.23022 3.90796 4.6984 4.30317 4.3032C4.69837 3.90799 5.23019 3.99069 5.48872 4.05711C5.80356 4.13807 6.14245 4.30169 6.47211 4.49949C7.14174 4.90132 7.931 5.5365 8.6977 6.3032C8.83734 6.44261 9.11787 6.51622 9.42329 6.40476C10.1587 6.13623 11.0145 6.00045 12.0004 6.00046C12.9863 6.0005 13.8423 6.13624 14.5776 6.40476C14.8831 6.5161 15.1636 6.44273 15.3032 6.3032C16.07 5.5364 16.8591 4.90132 17.5288 4.49949C17.8585 4.30165 18.1973 4.13804 18.5122 4.05711ZM18.0639 5.93601C17.5673 6.26663 16.9701 6.75738 16.3637 7.36375C15.725 8.0025 14.7914 8.07975 14.0629 7.81394C13.5271 7.61826 12.8518 7.5005 12.0004 7.50046C11.149 7.50045 10.4738 7.61732 9.93793 7.81296C9.20956 8.07896 8.27602 8.00242 7.63715 7.36375C7.03062 6.75721 6.43268 6.26663 5.93598 5.93601C6.2666 6.43271 6.75718 7.03065 7.36372 7.63718C8.01701 8.29067 8.13913 9.24726 7.88032 10.0288C7.60576 10.8576 7.50043 11.8642 7.50043 13.0005C7.50052 14.4557 8.29899 15.8393 9.34516 16.8911C9.86164 17.4102 10.4159 17.8256 10.9145 18.1059C11.4362 18.3992 11.8169 18.5005 12.0004 18.5005C12.184 18.5004 12.5647 18.3992 13.0864 18.1059C13.585 17.8255 14.1392 17.4103 14.6557 16.8911C15.7019 15.8393 16.5004 14.4557 16.5004 13.0005C16.5004 11.8643 16.3951 10.8575 16.1206 10.0288C15.8617 9.24717 15.9837 8.29067 16.6372 7.63718C17.2436 7.03075 17.7333 6.43266 18.0639 5.93601ZM12.2504 15.2505C12.6645 15.2506 13.0004 15.5863 13.0004 16.0005C13.0003 16.4145 12.6645 16.7503 12.2504 16.7505H11.7504C11.3363 16.7505 11.0006 16.4146 11.0004 16.0005C11.0004 15.5863 11.3362 15.2505 11.7504 15.2505H12.2504ZM10.0004 11.0005C10.5526 11.0006 11.0004 11.4483 11.0004 12.0005C11.0003 12.5526 10.5525 13.0003 10.0004 13.0005C9.44822 13.0005 9.00056 12.5526 9.00043 12.0005C9.00043 11.4482 9.44815 11.0005 10.0004 11.0005ZM14.0004 11.0005C14.5526 11.0006 15.0004 11.4483 15.0004 12.0005C15.0003 12.5526 14.5525 13.0003 14.0004 13.0005C13.4482 13.0005 13.0006 12.5526 13.0004 12.0005C13.0004 11.4482 13.4481 11.0005 14.0004 11.0005Z" fill="black"/>
</svg>
