<svg width="24" height="24" viewBox="0 0 24 24" fill="none" xmlns="http://www.w3.org/2000/svg">
<path fill-rule="evenodd" clip-rule="evenodd" d="M17.2501 5C18.7689 5 20.0001 6.23122 20.0001 7.75V16.25C20.0001 17.7688 18.7689 19 17.2501 19H9.84482C8.90713 19 8.03389 18.5222 7.52842 17.7324L4.11826 12.4043C3.96058 12.1579 3.96058 11.8421 4.11826 11.5957L7.52842 6.26758C8.03389 5.4778 8.90713 5 9.84482 5H17.2501ZM9.84482 6.5C9.41865 6.5 9.02186 6.71726 8.79209 7.07617L5.63975 12L8.79209 16.9238C9.02186 17.2827 9.41865 17.5 9.84482 17.5H17.2501C17.9405 17.5 18.5001 16.9404 18.5001 16.25V7.75C18.5001 7.05964 17.9405 6.5 17.2501 6.5H9.84482ZM14.7198 9.21973C15.0127 8.92683 15.4875 8.92683 15.7804 9.21973C16.0733 9.51262 16.0733 9.98738 15.7804 10.2803L14.0606 12L15.7804 13.7197C16.0733 14.0126 16.0733 14.4874 15.7804 14.7803C15.4875 15.0732 15.0127 15.0732 14.7198 14.7803L13.0001 13.0605L11.2804 14.7803C10.9875 15.0732 10.5127 15.0732 10.2198 14.7803C9.92693 14.4874 9.92693 14.0126 10.2198 13.7197L11.9395 12L10.2198 10.2803C9.92693 9.98738 9.92693 9.51262 10.2198 9.21973C10.5127 8.92683 10.9875 8.92683 11.2804 9.21973L13.0001 10.9395L14.7198 9.21973Z" fill="black"/>
</svg>
