<svg width="24" height="24" viewBox="0 0 24 24" fill="none" xmlns="http://www.w3.org/2000/svg">
<path d="M9.25 10C10.2165 10 11 10.7835 11 11.75V18.25C11 19.2165 10.2165 20 9.25 20H5.75C4.7835 20 4 19.2165 4 18.25V11.75C4 10.7835 4.7835 10 5.75 10H9.25ZM18.25 6C19.2165 6 20 6.7835 20 7.75V18.25C20 19.2165 19.2165 20 18.25 20H12V18.5H18.25C18.3881 18.5 18.5 18.3881 18.5 18.25V7.75C18.5 7.61193 18.3881 7.5 18.25 7.5H8.75C8.61193 7.5 8.5 7.61193 8.5 7.75V9H7V7.75C7 6.7835 7.7835 6 8.75 6H18.25ZM5.75 11.5C5.61193 11.5 5.5 11.6119 5.5 11.75V18.25C5.5 18.3881 5.61193 18.5 5.75 18.5H9.25C9.38807 18.5 9.5 18.3881 9.5 18.25V11.75C9.5 11.6119 9.38807 11.5 9.25 11.5H5.75Z" fill="black"/>
</svg>
