<svg width="24" height="24" viewBox="0 0 24 24" fill="none" xmlns="http://www.w3.org/2000/svg">
<path d="M17.25 4C18.7688 4 20 5.23122 20 6.75V17.25C20 18.7688 18.7688 20 17.25 20H6.75C5.23122 20 4 18.7688 4 17.25V6.75C4 5.23122 5.23122 4 6.75 4H17.25ZM6.75 5.5C6.05964 5.5 5.5 6.05964 5.5 6.75V17.25C5.5 17.9404 6.05964 18.5 6.75 18.5H17.25C17.9404 18.5 18.5 17.9404 18.5 17.25V6.75C18.5 6.05964 17.9404 5.5 17.25 5.5H6.75ZM9 14C9.55228 14 10 14.4477 10 15C10 15.5523 9.55228 16 9 16C8.44772 16 8 15.5523 8 15C8 14.4477 8.44772 14 9 14ZM15 14C15.5523 14 16 14.4477 16 15C16 15.5523 15.5523 16 15 16C14.4477 16 14 15.5523 14 15C14 14.4477 14.4477 14 15 14ZM9 8C9.55228 8 10 8.44772 10 9C10 9.55228 9.55228 10 9 10C8.44772 10 8 9.55228 8 9C8 8.44772 8.44772 8 9 8ZM15 8C15.5523 8 16 8.44772 16 9C16 9.55228 15.5523 10 15 10C14.4477 10 14 9.55228 14 9C14 8.44772 14.4477 8 15 8Z" fill="black"/>
</svg>
