<svg width="24" height="24" viewBox="0 0 24 24" fill="none" xmlns="http://www.w3.org/2000/svg">
<path fill-rule="evenodd" clip-rule="evenodd" d="M6.00004 6.99994C6.22254 6.99994 6.43372 7.0986 6.57621 7.26947L7.82621 8.76947C8.09133 9.08761 8.04854 9.56091 7.73051 9.82611C7.4406 10.0677 7.02275 10.0526 6.75004 9.80756V17.1913C7.02276 16.9467 7.44077 16.9323 7.73051 17.1738C8.04854 17.439 8.09133 17.9123 7.82621 18.2304L6.57621 19.7304C6.43372 19.9013 6.22254 19.9999 6.00004 19.9999C5.77754 19.9999 5.56636 19.9013 5.42387 19.7304L4.17387 18.2304C3.90876 17.9123 3.95155 17.439 4.26957 17.1738C4.5593 16.9323 4.97731 16.9467 5.25004 17.1913V9.80756C4.97732 10.0526 4.55948 10.0677 4.26957 9.82611C3.95155 9.56091 3.90876 9.08761 4.17387 8.76947L5.42387 7.26947L5.48051 7.20892C5.6194 7.07554 5.80535 6.99994 6.00004 6.99994ZM17.25 9.99994C18.7688 9.99994 20 11.2312 20 12.7499V17.2499C20 18.7687 18.7688 19.9999 17.25 19.9999H12.75C11.2313 19.9999 10 18.7687 10 17.2499V12.7499C10 11.2312 11.2313 9.99995 12.75 9.99994H17.25ZM12.75 11.4999C12.0597 11.4999 11.5 12.0596 11.5 12.7499V17.2499C11.5 17.9403 12.0597 18.4999 12.75 18.4999H17.25C17.9404 18.4999 18.5 17.9403 18.5 17.2499V12.7499C18.5 12.0596 17.9404 11.4999 17.25 11.4999H12.75ZM17.4698 4.21967C17.7627 3.92678 18.2374 3.92678 18.5303 4.21967L19.7803 5.46967C20.0732 5.76256 20.0732 6.23732 19.7803 6.53021L18.5303 7.78021C18.2374 8.0731 17.7627 8.0731 17.4698 7.78021C17.1866 7.497 17.1779 7.04439 17.4424 6.74994H11.8077C12.0722 7.04439 12.0635 7.49699 11.7803 7.78021C11.4874 8.0731 11.0127 8.0731 10.7198 7.78021L9.46977 6.53021C9.17689 6.23732 9.17689 5.76256 9.46977 5.46967L10.7198 4.21967C11.0127 3.92678 11.4874 3.92678 11.7803 4.21967C12.0635 4.50288 12.0722 4.95549 11.8077 5.24994H17.4424C17.1779 4.95549 17.1866 4.50288 17.4698 4.21967Z" fill="black"/>
</svg>
