<svg width="24" height="24" viewBox="0 0 24 24" fill="none" xmlns="http://www.w3.org/2000/svg">
<path d="M18 4C18.1989 4 18.3896 4.07907 18.5303 4.21973L19.7803 5.46973C20.0732 5.76262 20.0732 6.23738 19.7803 6.53027L18.5303 7.78027C18.3896 7.92093 18.1989 8 18 8H12.5V11H18C18.1989 11 18.3896 11.0791 18.5303 11.2197L19.7803 12.4697C20.0732 12.7626 20.0732 13.2374 19.7803 13.5303L18.5303 14.7803C18.3896 14.9209 18.1989 15 18 15H12.5V18.5H15V20H9V18.5H11V12H6.20703C6.02796 12 5.85469 11.9359 5.71875 11.8193L4.26172 10.5693C4.09565 10.4269 4 10.2188 4 10C4 9.78118 4.09565 9.57315 4.26172 9.43066L5.71875 8.18066L5.82715 8.10352C5.94163 8.03627 6.07267 8 6.20703 8H11V4.75C11 4.33579 11.3358 4 11.75 4C11.7926 4 11.8343 4.00392 11.875 4.01074C11.9157 4.00392 11.9574 4 12 4H18ZM12.5 13.5H17.6895L18.1895 13L17.6895 12.5H12.5V13.5ZM6.48438 9.5L5.90137 10L6.48438 10.5H11V9.5H6.48438ZM12.5 6.5H17.6895L18.1895 6L17.6895 5.5H12.5V6.5Z" fill="black"/>
</svg>
