<svg width="24" height="24" viewBox="0 0 24 24" fill="none" xmlns="http://www.w3.org/2000/svg">
<path fill-rule="evenodd" clip-rule="evenodd" d="M5.45036 11.7148C5.60795 11.3318 6.04679 11.1491 6.42985 11.3066C6.81267 11.4643 6.99538 11.9022 6.83805 12.2852C6.16719 13.9159 6.49506 15.8588 7.81755 17.1816C9.5749 18.939 12.4244 18.939 14.1818 17.1816C14.4746 16.889 14.9495 16.8891 15.2424 17.1816C15.5352 17.4745 15.5352 17.9503 15.2424 18.2432C12.8992 20.5859 9.10003 20.5861 6.757 18.2432C4.99134 16.4775 4.55728 13.8859 5.45036 11.7148ZM14.0002 4C15.657 4 17.0002 5.34315 17.0002 7C17.0002 8.65685 15.657 10 14.0002 10C13.8065 10 13.6172 9.98134 13.4338 9.94629L12.2082 13.0635C12.1986 13.0877 12.188 13.1116 12.1759 13.1348C12.0894 13.3012 12.21 13.5 12.3976 13.5H16.2502C16.5136 13.5 16.7582 13.6384 16.8937 13.8643L19.8937 18.8643C20.1066 19.2194 19.991 19.6805 19.6359 19.8936C19.2808 20.1064 18.8197 19.9908 18.6066 19.6357L15.8254 15H12.3976C11.107 15 10.2686 13.6552 10.8156 12.5029L11.2863 11.3057L7.13688 8.71875L5.30778 10.752C5.03068 11.0598 4.55607 11.0847 4.24821 10.8076C3.94038 10.5305 3.91547 10.0559 4.19255 9.74805L6.44255 7.24805C6.68579 6.97783 7.08804 6.92111 7.39665 7.11328L11.8449 9.88574L12.0754 9.2998C11.4185 8.74949 11.0002 7.92393 11.0002 7C11.0002 5.34315 12.3433 4 14.0002 4ZM14.0002 5.5C13.1717 5.5 12.5002 6.17158 12.5002 7C12.5002 7.54758 12.7944 8.02523 13.2326 8.28711C13.2466 8.29169 13.2607 8.2963 13.2746 8.30176C13.3302 8.32363 13.3809 8.35306 13.4279 8.38574C13.6044 8.45869 13.7973 8.5 14.0002 8.5C14.8286 8.5 15.5002 7.82843 15.5002 7C15.5002 6.17157 14.8286 5.5 14.0002 5.5Z" fill="black"/>
</svg>
