<svg width="24" height="24" viewBox="0 0 24 24" fill="none" xmlns="http://www.w3.org/2000/svg">
<path fill-rule="evenodd" clip-rule="evenodd" d="M6.61149 10.6104C6.90442 10.3181 7.37935 10.3177 7.67204 10.6104C7.96466 10.9032 7.96466 11.379 7.67204 11.6719C6.11001 13.234 6.10996 15.766 7.67204 17.3281C8.93248 18.5883 10.8267 18.8333 12.3322 18.0576C12.7003 17.8683 13.1523 18.0128 13.342 18.3809C13.5313 18.7489 13.3865 19.2009 13.0187 19.3906C10.9502 20.4564 8.34649 20.1234 6.61149 18.3887C4.46361 16.2408 4.46361 12.7582 6.61149 10.6104ZM11.0002 4C12.6568 4.00022 14.0002 5.34328 14.0002 7C14.0002 8.48641 12.9189 9.71987 11.5002 9.95801V11H14.2502C14.6642 11.0002 15.0002 11.3359 15.0002 11.75C15.0002 12.1641 14.6642 12.4998 14.2502 12.5H11.5002V14.5H14.2502C14.4861 14.5001 14.7092 14.6111 14.8507 14.7998L17.8507 18.7998C18.0989 19.131 18.0312 19.6011 17.7004 19.8496C17.3691 20.098 16.8992 20.0312 16.6506 19.7002L13.8752 16H10.7502C10.336 15.9999 10.0002 15.6642 10.0002 15.25V9.8252C8.83576 9.41293 8.00016 8.30566 8.00016 7C8.00016 5.34323 9.34342 4.00013 11.0002 4ZM11.0002 5.5C10.1718 5.50013 9.50016 6.17165 9.50016 7C9.50016 7.82835 10.1718 8.49987 11.0002 8.5C11.8284 8.49978 12.5002 7.82829 12.5002 7C12.5002 6.17171 11.8284 5.50022 11.0002 5.5Z" fill="black"/>
</svg>
