<svg width="24" height="24" viewBox="0 0 24 24" fill="none" xmlns="http://www.w3.org/2000/svg">
<path fill-rule="evenodd" clip-rule="evenodd" d="M14.304 5.14639C14.4953 5.00517 14.7427 4.96333 14.97 5.03311L17.6087 5.84463C18.2608 6.04528 18.737 6.60699 18.8284 7.28311L19.8059 14.5165C19.9603 15.6586 19.386 16.776 18.3675 17.3153L15.3509 18.913C15.163 19.0123 14.941 19.0271 14.7415 18.954C14.5419 18.8806 14.382 18.7257 14.303 18.5282L13.596 16.7606C13.1978 16.8906 12.6655 16.9999 11.9993 16.9999C11.3325 16.9998 10.7998 16.8908 10.4017 16.7606L9.6956 18.5282C9.61658 18.7256 9.45771 18.8807 9.2581 18.954C9.05853 19.0271 8.8366 19.0124 8.64872 18.913L5.63212 17.3153C4.61374 16.776 4.03837 15.6585 4.19267 14.5165L5.17021 7.28311C5.26158 6.60715 5.73809 6.04544 6.38993 5.84463L9.02861 5.03311C9.25581 4.9632 9.50327 5.0054 9.69462 5.14639C9.88607 5.28779 9.99931 5.5119 9.99931 5.74991V6.24991C9.99931 6.38776 10.1115 6.49956 10.2493 6.49991H13.7493C13.8874 6.49991 13.9993 6.38798 13.9993 6.24991V5.74991C13.9993 5.51202 14.1127 5.28781 14.304 5.14639ZM6.83134 7.27823C6.73839 7.307 6.67055 7.38783 6.65751 7.48428L5.67997 14.7177C5.60986 15.2367 5.87053 15.745 6.33329 15.9901L8.61259 17.1962L9.30302 15.4716L9.34013 15.3925C9.4366 15.2145 9.60259 15.0819 9.80009 15.0273C10.0231 14.9657 10.2622 15.0104 10.4476 15.1483L10.4456 15.1464C10.4521 15.1507 10.4683 15.1614 10.4934 15.1757C10.5442 15.2045 10.6333 15.25 10.7601 15.2978C11.0123 15.3927 11.4231 15.4998 11.9993 15.4999C12.5756 15.4999 12.9872 15.3927 13.2395 15.2978C13.3658 15.2502 13.4543 15.2045 13.5052 15.1757C13.5287 15.1623 13.5447 15.1522 13.552 15.1474C13.5537 15.1462 13.5552 15.145 13.5559 15.1444C13.7407 15.009 13.9782 14.9662 14.1995 15.0273C14.4252 15.0897 14.6086 15.2542 14.6956 15.4716L15.3851 17.1962L17.6653 15.9901C18.1283 15.745 18.3898 15.2368 18.3196 14.7177L17.3421 7.48428C17.329 7.38771 17.2604 7.30689 17.1673 7.27823L15.428 6.74307C15.2149 7.46925 14.5444 7.99991 13.7493 7.99991H10.2493C9.45407 7.99962 8.78325 7.46865 8.5706 6.74209L6.83134 7.27823ZM10.0003 10.9999C10.5524 11.0001 11.0003 11.4477 11.0003 11.9999C11.0003 12.5521 10.5524 12.9998 10.0003 12.9999C9.448 12.9999 9.00029 12.5522 9.00029 11.9999C9.00029 11.4476 9.448 10.9999 10.0003 10.9999ZM14.0003 10.9999C14.5524 11.0001 15.0003 11.4477 15.0003 11.9999C15.0003 12.5521 14.5524 12.9998 14.0003 12.9999C13.448 12.9999 13.0003 12.5522 13.0003 11.9999C13.0003 11.4476 13.448 10.9999 14.0003 10.9999Z" fill="black"/>
</svg>
