<svg width="24" height="24" viewBox="0 0 24 24" fill="none" xmlns="http://www.w3.org/2000/svg">
<path fill-rule="evenodd" clip-rule="evenodd" d="M16.2498 4C16.664 4 16.9998 4.33579 16.9998 4.75V6.94824L18.9393 6.06738C19.3163 5.89602 19.7609 6.06257 19.9324 6.43945C20.1038 6.81647 19.9373 7.26114 19.5604 7.43262L16.9998 8.5957V9.54492C16.9998 11.3256 16.1745 13.0059 14.7654 14.0947L11.2088 16.8438C10.8811 17.0969 10.4093 17.0366 10.1561 16.709C9.90293 16.3813 9.9633 15.9095 10.2908 15.6562L13.0399 13.5322L10.6297 10.7207L10.1512 11.0918C9.10978 11.8966 8.49985 13.139 8.49981 14.4551V19.25C8.49981 19.6642 8.16403 20 7.74981 20C7.33568 19.9999 6.99981 19.6642 6.99981 19.25V17.0508L5.06036 17.9326C4.68338 18.1039 4.23865 17.9374 4.0672 17.5605C3.8959 17.1836 4.06247 16.7389 4.43927 16.5674L6.99981 15.4033V14.4551C6.99985 12.6744 7.8252 10.9941 9.23419 9.90527L12.7908 7.15625C13.1185 6.90303 13.5903 6.96343 13.8436 7.29102C14.0968 7.61874 14.0365 8.09046 13.7088 8.34375L11.8191 9.80273L14.2108 12.5938C15.0299 11.7982 15.4998 10.7002 15.4998 9.54492V4.75C15.4998 4.33585 15.8357 4.0001 16.2498 4Z" fill="black"/>
</svg>
