<svg width="24" height="24" viewBox="0 0 24 24" fill="none" xmlns="http://www.w3.org/2000/svg">
<path fill-rule="evenodd" clip-rule="evenodd" d="M17.1736 4.00372C17.5853 3.96155 17.9542 4.26093 17.9968 4.67266L17.2507 4.74981C17.9911 4.67322 17.9967 4.67329 17.9968 4.67364V4.67657C17.997 4.67814 17.9976 4.68011 17.9978 4.68243C17.9983 4.68748 17.999 4.69456 17.9997 4.70293C18.0013 4.71999 18.0033 4.74418 18.0056 4.77422C18.0102 4.83457 18.0155 4.92065 18.0203 5.02813C18.0298 5.24278 18.0357 5.54582 18.0232 5.90801C17.9984 6.62811 17.899 7.60663 17.5915 8.59747C17.2844 9.58695 16.7566 10.6313 15.8474 11.4305C15.6061 11.6425 15.3409 11.8329 15.0525 11.9998C15.3407 12.1667 15.6052 12.3572 15.8464 12.5691C16.7558 13.3683 17.2834 14.4126 17.5906 15.4022C17.8981 16.393 17.9983 17.3715 18.0232 18.0916C18.0357 18.4538 18.0288 18.7568 18.0193 18.9715C18.0145 19.0789 18.0092 19.165 18.0046 19.2254C18.0023 19.2554 18.0003 19.2796 17.9988 19.2967C17.998 19.305 17.9973 19.3121 17.9968 19.3172C17.9966 19.3195 17.996 19.3215 17.9958 19.3231V19.326C17.9958 19.3263 17.9958 19.327 17.2497 19.2498L17.9958 19.327C17.9532 19.739 17.5846 20.0385 17.1726 19.9959C16.7606 19.9533 16.461 19.5847 16.5037 19.1727L16.5046 19.1619C16.5055 19.1517 16.5068 19.1347 16.5085 19.1121C16.5107 19.0836 16.5126 19.0454 16.5154 18.9988C16.5103 18.9989 16.5049 18.9998 16.4997 18.9998H7.49974C7.49452 18.9998 7.48932 18.9989 7.48412 18.9988C7.48663 19.0454 7.48879 19.0836 7.49096 19.1121C7.49268 19.1348 7.49491 19.1517 7.49584 19.1619L7.49681 19.1727L7.50072 19.2488C7.50167 19.6289 7.21394 19.9556 6.82787 19.9959C6.41585 20.0385 6.04725 19.739 6.00463 19.327L6.75072 19.2498C6.07888 19.3193 6.01132 19.3256 6.00463 19.326V19.325L6.00365 19.3231C6.00351 19.3215 6.00387 19.3195 6.00365 19.3172C6.00316 19.3121 6.00245 19.305 6.0017 19.2967C6.00016 19.2796 5.99812 19.2554 5.99584 19.2254C5.99126 19.165 5.98498 19.079 5.98021 18.9715C5.9707 18.7568 5.96481 18.4538 5.97728 18.0916C6.00212 17.3715 6.10142 16.393 6.40892 15.4022C6.71611 14.4125 7.24462 13.3683 8.15404 12.5691C9.0774 11.7579 10.337 11.2498 12.0007 11.2498C13.3363 11.2497 14.2338 10.8513 14.8572 10.3035C15.124 10.069 15.3485 9.79619 15.5408 9.49981H8.61986C8.68497 9.59116 8.75251 9.68102 8.82494 9.76739C9.09104 10.0846 9.04922 10.5578 8.73217 10.824C8.41492 11.0901 7.94177 11.0493 7.67553 10.7322C6.64911 9.5085 6.24441 7.97085 6.08471 6.79961C6.00378 6.20591 5.98288 5.68459 5.98217 5.31036C5.98182 5.12301 5.98696 4.97103 5.99193 4.86407C5.99442 4.81058 5.99674 4.76722 5.99877 4.73711C5.99976 4.72248 6.00005 4.71062 6.00072 4.70196C6.00105 4.69777 6.00148 4.69393 6.0017 4.69122C6.00184 4.68985 6.00259 4.68827 6.00267 4.68731V4.68536C6.03849 4.27286 6.40171 3.96717 6.8142 4.00274C7.22672 4.03851 7.53235 4.40177 7.49681 4.81426C7.49677 4.81488 7.4969 4.81594 7.49681 4.81719C7.4965 4.82123 7.49554 4.82864 7.49486 4.83868C7.4935 4.85885 7.49196 4.89089 7.48998 4.9334C7.48906 4.95323 7.48989 4.97551 7.489 4.99981H16.5163C16.5139 4.95368 16.5117 4.91583 16.5095 4.8875C16.5078 4.86487 16.5065 4.84794 16.5056 4.8377L16.5046 4.82696L16.5007 4.75079C16.4998 4.37049 16.7872 4.04369 17.1736 4.00372ZM7.7976 15.9998C7.64991 16.5171 7.56498 17.0342 7.51928 17.4998H16.4802C16.4348 17.0341 16.3495 16.5171 16.2019 15.9998H7.7976ZM11.9997 12.7498C10.6643 12.7499 9.76765 13.1485 9.14428 13.6961C8.87737 13.9307 8.65223 14.2034 8.45971 14.4998H15.5408C15.3482 14.2034 15.1232 13.9307 14.8562 13.6961C14.2327 13.1482 13.3357 12.7498 11.9997 12.7498ZM7.57103 6.59747C7.63228 7.04658 7.73475 7.52574 7.88842 7.99981H16.2029C16.3505 7.48257 16.4345 6.96536 16.4802 6.49981H7.55931C7.56337 6.53206 7.56657 6.5647 7.57103 6.59747Z" fill="black"/>
</svg>
