<svg width="24" height="24" viewBox="0 0 24 24" fill="none" xmlns="http://www.w3.org/2000/svg">
<path d="M6.25 8C7.76878 8 9 9.23122 9 10.75V13.25C9 14.7688 7.76878 16 6.25 16H4.75C4.33579 16 4 15.6642 4 15.25V8.75C4 8.33579 4.33579 8 4.75 8H6.25ZM12.5 8C13.8807 8 15 9.11929 15 10.5V13.5C15 14.8807 13.8807 16 12.5 16C11.1193 16 10 14.8807 10 13.5V10.5C10 9.11929 11.1193 8 12.5 8ZM20 9.5H18.75C18.0596 9.5 17.5 10.0596 17.5 10.75V13.25C17.5 13.9404 18.0596 14.5 18.75 14.5H20V16H18.75C17.2312 16 16 14.7688 16 13.25V10.75C16 9.23122 17.2312 8 18.75 8H20V9.5ZM5.5 14.5H6.25C6.94036 14.5 7.5 13.9404 7.5 13.25V10.75C7.5 10.0596 6.94036 9.5 6.25 9.5H5.5V14.5ZM12.5 9.5C11.9477 9.5 11.5 9.94772 11.5 10.5V13.5C11.5 14.0523 11.9477 14.5 12.5 14.5C13.0523 14.5 13.5 14.0523 13.5 13.5V10.5C13.5 9.94772 13.0523 9.5 12.5 9.5Z" fill="black"/>
</svg>
