<svg width="24" height="24" viewBox="0 0 24 24" fill="none" xmlns="http://www.w3.org/2000/svg">
<path fill-rule="evenodd" clip-rule="evenodd" d="M12.3389 4.12287C12.5505 3.98429 12.8179 3.96126 13.0498 4.06232L12.75 4.74982C13.0494 4.06294 13.0505 4.06219 13.0508 4.06232V4.0633H13.0527C13.0537 4.06372 13.0545 4.06474 13.0557 4.06525C13.0582 4.06638 13.0619 4.06758 13.0654 4.06916C13.0723 4.07229 13.0814 4.07598 13.0918 4.08088C13.113 4.09085 13.1413 4.1053 13.1758 4.12287C13.2449 4.15806 13.3396 4.20903 13.4531 4.27716C13.6802 4.41342 13.9863 4.62031 14.3184 4.90998C14.9832 5.49006 15.7609 6.40946 16.2119 7.76252C16.5506 8.77871 17.3727 9.73585 18.1797 10.4705C18.574 10.8295 18.9461 11.1183 19.2188 11.3172C19.3546 11.4163 19.465 11.4923 19.54 11.5428C19.5775 11.568 19.6065 11.5874 19.625 11.5994C19.634 11.6053 19.6406 11.6096 19.6445 11.6121C19.6462 11.6132 19.6477 11.6136 19.6484 11.6141C19.9993 11.8341 20.1057 12.2974 19.8857 12.6483C19.6657 12.9991 19.2025 13.1055 18.8516 12.8856V12.8846H18.8496L18.8379 12.8768C18.8308 12.8722 18.8209 12.8662 18.8086 12.8582C18.7835 12.8419 18.7478 12.818 18.7031 12.7879C18.6137 12.7278 18.487 12.6408 18.334 12.5291C18.0285 12.3062 17.6129 11.9823 17.1699 11.5789C16.3019 10.7886 15.2493 9.62075 14.7881 8.23713C14.4771 7.3041 13.9681 6.64302 13.5 6.19513V10.2498C13.5 10.664 13.1642 10.9998 12.75 10.9998C12.3358 10.9998 12 10.664 12 10.2498V9.03888C11.7597 9.12248 11.4882 9.21936 11.2012 9.32697C10.2019 9.7017 9.08708 10.1765 8.41602 10.6238C7.86822 10.989 7.22133 11.3379 6.77051 11.6121C6.27011 11.9165 5.92645 12.1738 5.7207 12.4451C5.57853 12.6326 5.5 12.8723 5.5 13.1307V15.1903C5.50021 15.8285 5.98812 16.3905 6.65527 16.491C7.70643 16.6495 9.08218 16.8936 10.3711 17.2361C11.6263 17.5697 12.9219 18.0264 13.7188 18.6639C14.0422 18.9226 14.0947 19.3951 13.8359 19.7186C13.5772 20.042 13.1047 20.0945 12.7812 19.8358C12.2522 19.4125 11.2328 19.0169 9.98535 18.6854C8.77167 18.3629 7.45674 18.129 6.43164 17.9744C5.06702 17.7687 4.0002 16.6067 4 15.1903V13.1307C4 12.5685 4.17178 12.0053 4.52539 11.5389C4.91434 11.026 5.4713 10.6461 5.99121 10.3299C6.56084 9.98346 7.05526 9.72828 7.58398 9.3758C8.41283 8.82324 9.67317 8.29793 10.6738 7.92267C11.1846 7.73114 11.6469 7.57128 11.9814 7.45978C11.9877 7.45768 11.9938 7.45501 12 7.45295V4.74982C12 4.49703 12.1275 4.26148 12.3389 4.12287ZM10 10.9998C10.5523 10.9998 11 11.4475 11 11.9998C11 12.5521 10.5523 12.9998 10 12.9998C9.44772 12.9998 9 12.5521 9 11.9998C9 11.4475 9.44772 10.9998 10 10.9998ZM12.4473 5.43634H12.4482L12.4502 5.43732V5.43634C12.4482 5.43541 12.4466 5.43551 12.4463 5.43537L12.4473 5.43634Z" fill="black"/>
</svg>
