<svg width="24" height="24" viewBox="0 0 24 24" fill="none" xmlns="http://www.w3.org/2000/svg">
<path d="M11 5C14.866 5 18 8.13401 18 12C18 15.866 14.866 19 11 19H6.75C6.33579 19 6 18.6642 6 18.25C6 17.8358 6.33579 17.5 6.75 17.5H8V12.75H6.75C6.33579 12.75 6 12.4142 6 12C6 11.5858 6.33579 11.25 6.75 11.25H8V6.5H6.75C6.33579 6.5 6 6.16421 6 5.75C6 5.33579 6.33579 5 6.75 5H11ZM9.5 11.25H12.25C12.6642 11.25 13 11.5858 13 12C13 12.4142 12.6642 12.75 12.25 12.75H9.5V17.5H11C14.0376 17.5 16.5 15.0376 16.5 12C16.5 8.96243 14.0376 6.5 11 6.5H9.5V11.25Z" fill="black"/>
</svg>
