<svg width="24" height="24" viewBox="0 0 24 24" fill="none" xmlns="http://www.w3.org/2000/svg">
<path d="M11.75 4C12.1642 4 12.5 4.33579 12.5 4.75V6H17.25C17.6642 6 18 6.33579 18 6.75C18 7.16421 17.6642 7.5 17.25 7.5H12.5V11.25H14.625C16.489 11.25 18 12.761 18 14.625C18 16.489 16.489 18 14.625 18H12.5V19.25C12.5 19.6642 12.1642 20 11.75 20C11.3358 20 11 19.6642 11 19.25V18H6.75C6.33579 18 6 17.6642 6 17.25C6 16.8358 6.33579 16.5 6.75 16.5H11V12.75H9.375C7.51104 12.75 6 11.239 6 9.375C6 7.51104 7.51104 6 9.375 6H11V4.75C11 4.33579 11.3358 4 11.75 4ZM12.5 16.5H14.625C15.6605 16.5 16.5 15.6605 16.5 14.625C16.5 13.5895 15.6605 12.75 14.625 12.75H12.5V16.5ZM9.375 7.5C8.33947 7.5 7.5 8.33947 7.5 9.375C7.5 10.4105 8.33947 11.25 9.375 11.25H11V7.5H9.375Z" fill="black"/>
</svg>
