<svg width="24" height="24" viewBox="0 0 24 24" fill="none" xmlns="http://www.w3.org/2000/svg">
<path fill-rule="evenodd" clip-rule="evenodd" d="M17.2598 4.06544C18.2222 4.07094 18.9998 4.85298 19 5.81544V16.25C19 17.2165 18.2165 18 17.25 18H14V19.25C14 19.5 13.8755 19.7338 13.668 19.8731C13.4605 20.0123 13.1971 20.039 12.9658 19.9443L5.46582 16.8731C5.18413 16.7577 5.00006 16.4831 5 16.1787V4.75001C5 4.55038 5.07916 4.35855 5.2207 4.21778C5.36219 4.0771 5.55439 3.99897 5.75391 4.00001L17.2598 4.06544ZM6.5 15.6748L12.5 18.1318V8.32423L6.5 5.8672V15.6748ZM13.5342 7.12696C13.8159 7.24232 13.9999 7.51691 14 7.8213V16.5H17.25C17.3881 16.5 17.5 16.3881 17.5 16.25V5.81544C17.4998 5.67806 17.3884 5.56623 17.251 5.56544L9.61426 5.52149L13.5342 7.12696Z" fill="black"/>
</svg>
