<svg width="24" height="24" viewBox="0 0 24 24" fill="none" xmlns="http://www.w3.org/2000/svg">
<path d="M15.25 4C16.7688 4 18 5.23122 18 6.75V18.5H19.25C19.6642 18.5 20 18.8358 20 19.25C20 19.6642 19.6642 20 19.25 20H4.75C4.33579 20 4 19.6642 4 19.25C4 18.8358 4.33579 18.5 4.75 18.5H6V6.75C6 5.23122 7.23122 4 8.75 4H15.25ZM8.75 5.5C8.05964 5.5 7.5 6.05964 7.5 6.75V18.5H16.5V6.75C16.5 6.05964 15.9404 5.5 15.25 5.5H8.75ZM14 11C14.5523 11 15 11.4477 15 12C15 12.5523 14.5523 13 14 13C13.4477 13 13 12.5523 13 12C13 11.4477 13.4477 11 14 11Z" fill="black"/>
</svg>
