<svg width="24" height="24" viewBox="0 0 24 24" fill="none" xmlns="http://www.w3.org/2000/svg">
<path fill-rule="evenodd" clip-rule="evenodd" d="M10.25 4.00016C10.6642 4.00016 11 4.33595 11 4.75016C11 5.16438 10.6642 5.50016 10.25 5.50016H6.75C6.05965 5.50016 5.5 6.05981 5.5 6.75016V18.5002H14.5V12.7502C14.5 12.336 14.8358 12.0002 15.25 12.0002C15.6642 12.0002 16 12.336 16 12.7502V18.5002H19.25C19.6642 18.5002 20 18.836 20 19.2502C20 19.6644 19.6642 20.0002 19.25 20.0002H4.75C4.33579 20.0002 4 19.6644 4 19.2502V6.75016C4 5.23138 5.23122 4.00016 6.75 4.00016H10.25ZM12 11.0002C12.5523 11.0002 13 11.4479 13 12.0002C13 12.5524 12.5523 13.0002 12 13.0002C11.4477 13.0002 11 12.5524 11 12.0002C11 11.4479 11.4477 11.0002 12 11.0002ZM16.1924 4.24821C16.4695 3.94038 16.9441 3.91547 17.252 4.19255L19.752 6.44255C19.91 6.58477 20 6.78757 20 7.00016C20 7.21275 19.91 7.41555 19.752 7.55778L17.252 9.80778C16.9441 10.0849 16.4695 10.0599 16.1924 9.75212C15.9153 9.44425 15.9402 8.96965 16.248 8.69255L17.2949 7.75016H13.75C13.3358 7.75016 13 7.41438 13 7.00016C13 6.58595 13.3358 6.25016 13.75 6.25016H17.2949L16.248 5.30778C15.9402 5.03068 15.9153 4.55607 16.1924 4.24821Z" fill="black"/>
</svg>
