<svg width="24" height="24" viewBox="0 0 24 24" fill="none" xmlns="http://www.w3.org/2000/svg">
<path d="M14.25 4C14.6642 4 15 4.33579 15 4.75V7.25C15 7.66421 14.6642 8 14.25 8C13.8358 8 13.5 7.66421 13.5 7.25V5.5H5.5V18.5H9.25C9.66421 18.5 10 18.8358 10 19.25C10 19.6642 9.66421 20 9.25 20H4.75C4.33579 20 4 19.6642 4 19.25V4.75C4 4.33579 4.33579 4 4.75 4H14.25ZM16 9.25C17.5188 9.25 18.75 10.4812 18.75 12V13H19.25C19.6642 13 20 13.3358 20 13.75V18.25C20 19.2165 19.2165 20 18.25 20H13.75C12.7835 20 12 19.2165 12 18.25V13.75C12 13.3358 12.3358 13 12.75 13H13.25V12C13.25 10.4812 14.4812 9.25 16 9.25ZM13.5 18.25C13.5 18.3881 13.6119 18.5 13.75 18.5H18.25C18.3881 18.5 18.5 18.3881 18.5 18.25V14.5H13.5V18.25ZM16 10.75C15.3096 10.75 14.75 11.3096 14.75 12V13H17.25V12C17.25 11.3096 16.6904 10.75 16 10.75ZM8 11.25C8.41421 11.25 8.75 11.5858 8.75 12V12.0098C8.75 12.424 8.41421 12.7598 8 12.7598C7.58579 12.7598 7.25 12.424 7.25 12.0098V12C7.25 11.5858 7.58579 11.25 8 11.25Z" fill="black"/>
</svg>
