<svg width="24" height="24" viewBox="0 0 24 24" fill="none" xmlns="http://www.w3.org/2000/svg">
<path d="M7.30371 16.9175C7.92801 17.622 8.69002 18.1854 9.55176 18.563L10.2383 18.8638L9.63672 20.2378L8.94922 19.937C7.88164 19.4692 6.94399 18.7732 6.18066 17.9116L5.68359 17.3501L6.80664 16.356L7.30371 16.9175ZM11.8311 4.80713C12.3634 4.31804 13.1196 4.07344 13.9248 4.29443C17.325 5.22771 19.9997 8.29928 20 11.9995C20 15.7 17.3252 18.7722 13.9248 19.7056C13.1196 19.9266 12.3634 19.682 11.8311 19.1929C11.3098 18.7139 11 18.0037 11 17.2495V6.74951C11.0002 5.99551 11.3099 5.28601 11.8311 4.80713ZM13.5283 5.74072C13.2687 5.66947 13.0361 5.73784 12.8467 5.91162C12.6462 6.09582 12.5002 6.3994 12.5 6.74951V17.2495C12.5 17.5998 12.6461 17.9031 12.8467 18.0874C13.0362 18.2615 13.2684 18.3306 13.5283 18.2593C16.351 17.4843 18.5 14.9505 18.5 11.9995C18.4997 9.04872 16.3508 6.51565 13.5283 5.74072ZM5.93945 9.29834L5.75 10.0239C5.58682 10.6496 5.5 11.3129 5.5 12.0005C5.50003 12.6881 5.58678 13.3514 5.75 13.9771L5.93945 14.7026L4.48828 15.0815L4.29883 14.356C4.10313 13.6059 4.00003 12.8151 4 12.0005C4 11.1858 4.10315 10.3951 4.29883 9.64502L4.48828 8.91943L5.93945 9.29834ZM10.2383 5.13623L9.55176 5.43701C8.69007 5.81459 7.92799 6.37801 7.30371 7.08252L6.80664 7.64404L5.68359 6.6499L6.18066 6.08838C6.94391 5.22692 7.88178 4.53178 8.94922 4.06396L9.63672 3.76221L10.2383 5.13623Z" fill="black"/>
</svg>
