<svg width="24" height="24" viewBox="0 0 24 24" fill="none" xmlns="http://www.w3.org/2000/svg">
<path d="M18.3174 17.3499L17.8193 17.9114C17.056 18.7729 16.1184 19.4689 15.0508 19.9368L14.3643 20.2375L13.7617 18.8635L14.4492 18.5627C15.3109 18.1851 16.073 17.6218 16.6973 16.9172L17.1943 16.3557L18.3174 17.3499ZM10.0752 4.29419C10.8804 4.0732 11.6366 4.3178 12.1689 4.80688C12.6901 5.28577 12.9998 5.99527 13 6.74927V17.2493C13 18.0034 12.6902 18.7136 12.1689 19.1926C11.6366 19.6817 10.8804 19.9263 10.0752 19.7053C6.67482 18.772 4 15.6997 4 11.9993C4.00028 8.29904 6.67499 5.22746 10.0752 4.29419ZM11.1533 5.91138C10.9639 5.7376 10.7313 5.66923 10.4717 5.74048C7.64915 6.5154 5.50028 9.04847 5.5 11.9993C5.5 14.9503 7.64897 17.4841 10.4717 18.259C10.7316 18.3304 10.9638 18.2613 11.1533 18.0872C11.3539 17.9029 11.5 17.5996 11.5 17.2493V6.74927C11.4998 6.39915 11.3538 6.09557 11.1533 5.91138ZM19.7012 9.64478C19.8968 10.3949 20 11.1856 20 12.0002C20 12.8149 19.8969 13.6056 19.7012 14.3557L19.5117 15.0813L18.0605 14.7024L18.25 13.9768C18.4132 13.3511 18.5 12.6879 18.5 12.0002C18.5 11.3126 18.4132 10.6493 18.25 10.0237L18.0605 9.2981L19.5117 8.91919L19.7012 9.64478ZM15.0508 4.06372C16.1183 4.53153 17.056 5.22662 17.8193 6.08813L18.3174 6.64966L17.1943 7.6438L16.6973 7.08228C16.073 6.37769 15.3109 5.81439 14.4492 5.43677L13.7617 5.13599L14.3643 3.76196L15.0508 4.06372Z" fill="black"/>
</svg>
