<svg width="24" height="24" viewBox="0 0 24 24" fill="none" xmlns="http://www.w3.org/2000/svg">
<path fill-rule="evenodd" clip-rule="evenodd" d="M11.9999 12C12.2083 12 12.4078 12.0866 12.5497 12.2393L15.7997 15.7393C16.0815 16.0428 16.064 16.5179 15.7606 16.7998C15.4571 17.0815 14.9819 17.0641 14.7001 16.7607L11.9999 13.8525L9.29969 16.7607C9.01781 17.064 8.54259 17.0816 8.23914 16.7998C7.93589 16.518 7.91842 16.0427 8.20008 15.7393L11.4501 12.2393L11.5057 12.1855C11.6417 12.0665 11.8174 12.0001 11.9999 12ZM11.9999 7C12.2083 7 12.4078 7.08658 12.5497 7.23926L15.7997 10.7393C16.0815 11.0428 16.064 11.5179 15.7606 11.7998C15.4571 12.0815 14.9819 12.0641 14.7001 11.7607L11.9999 8.85254L9.29969 11.7607C9.01781 12.064 8.54259 12.0816 8.23914 11.7998C7.93589 11.518 7.91842 11.0427 8.20008 10.7393L11.4501 7.23926L11.5057 7.18555C11.6417 7.06647 11.8174 7.00006 11.9999 7Z" fill="black"/>
</svg>
