<svg width="24" height="24" viewBox="0 0 24 24" fill="none" xmlns="http://www.w3.org/2000/svg">
<path d="M17.25 4C18.2165 4 19 4.7835 19 5.75V11.6279C19.6109 12.1323 20 12.8959 20 13.75V17.25C20 17.6642 19.6642 18 19.25 18H18V18.25C18 18.6642 17.6642 19 17.25 19C16.8358 19 16.5 18.6642 16.5 18.25V18H7.5V18.25C7.5 18.6642 7.16421 19 6.75 19C6.33579 19 6 18.6642 6 18.25V18H4.75C4.33579 18 4 17.6642 4 17.25V13.75C4 12.8959 4.38906 12.1323 5 11.6279V5.75C5 4.7835 5.7835 4 6.75 4H17.25ZM6.75 12.5C6.05964 12.5 5.5 13.0596 5.5 13.75V16.5H18.5V13.75C18.5 13.0596 17.9404 12.5 17.25 12.5H6.75ZM6.75 5.5C6.61193 5.5 6.5 5.61193 6.5 5.75V11.0127C6.58238 11.0053 6.66568 11 6.75 11H7V10.75C7 9.7835 7.7835 9 8.75 9H15.25C16.2165 9 17 9.7835 17 10.75V11H17.25C17.3343 11 17.4176 11.0053 17.5 11.0127V5.75C17.5 5.61193 17.3881 5.5 17.25 5.5H6.75ZM8.75 10.5C8.61193 10.5 8.5 10.6119 8.5 10.75V11H15.5V10.75C15.5 10.6119 15.3881 10.5 15.25 10.5H8.75Z" fill="black"/>
</svg>
