<svg width="24" height="24" viewBox="0 0 24 24" fill="none" xmlns="http://www.w3.org/2000/svg">
<path fill-rule="evenodd" clip-rule="evenodd" d="M10.7393 8.19983C11.0427 7.91818 11.518 7.93564 11.7998 8.23889C12.0816 8.54235 12.064 9.01756 11.7607 9.29944L8.85254 11.9996L11.7607 14.6998C12.0641 14.9817 12.0815 15.4569 11.7998 15.7604C11.5179 16.0638 11.0428 16.0813 10.7393 15.7994L7.23926 12.5494C7.08658 12.4075 7 12.2081 7 11.9996C7.00007 11.7912 7.08656 11.5917 7.23926 11.4498L10.7393 8.19983ZM15.7393 8.19983C16.0427 7.91818 16.518 7.93564 16.7998 8.23889C17.0816 8.54235 17.064 9.01756 16.7607 9.29944L13.8525 11.9996L16.7607 14.6998C17.0641 14.9817 17.0815 15.4569 16.7998 15.7604C16.5179 16.0638 16.0428 16.0813 15.7393 15.7994L12.2393 12.5494C12.0866 12.4075 12 12.2081 12 11.9996C12.0001 11.7912 12.0866 11.5917 12.2393 11.4498L15.7393 8.19983Z" fill="black"/>
</svg>
