<svg width="24" height="24" viewBox="0 0 24 24" fill="none" xmlns="http://www.w3.org/2000/svg">
<path d="M17.7539 9.91797C18.075 9.65683 18.5471 9.70553 18.8086 10.0264C19.5593 10.9482 19.9834 12.1583 19.9834 13.6299C19.9834 14.9873 19.6216 16.1228 18.9736 17.0166C18.9833 16.998 18.9786 16.9966 18.9727 17.0244C18.9654 17.0588 18.9603 17.1134 18.9619 17.1826C18.9636 17.2509 18.9718 17.3189 18.9844 17.376C18.9958 17.4275 19.0068 17.4542 19.0088 17.459C19.3723 18.1333 19.1947 18.8457 18.7842 19.3086C18.3834 19.7604 17.7295 20.0209 17.0459 19.8643C16.4257 19.7221 15.7502 19.525 15.1436 19.25C15.064 19.214 14.98 19.2012 14.9014 19.21C14.6021 19.2438 14.2973 19.2598 13.9912 19.2598C12.5779 19.2597 11.1907 18.9055 10.0957 18.1055C9.76125 17.8611 9.68825 17.3921 9.93262 17.0576C10.177 16.7233 10.6461 16.6502 10.9805 16.8945C11.7591 17.4633 12.8134 17.7597 13.9912 17.7598C14.2433 17.7598 14.4915 17.746 14.7324 17.7188C15.0884 17.6785 15.4449 17.7393 15.7637 17.8838C16.2457 18.1022 16.8151 18.2726 17.3809 18.4023C17.4893 18.4271 17.5968 18.387 17.6621 18.3135C17.6923 18.2794 17.7016 18.2498 17.7041 18.2344C17.7056 18.2247 17.7074 18.206 17.6885 18.1709C17.5336 17.8834 17.4692 17.5216 17.4619 17.2188C17.4552 16.9375 17.4916 16.5009 17.7432 16.1602C18.1918 15.5523 18.4834 14.7274 18.4834 13.6299C18.4834 12.4572 18.1508 11.5941 17.6455 10.9736C17.3841 10.6524 17.4328 10.1795 17.7539 9.91797ZM9.99121 4C11.5144 4 13.0102 4.41222 14.1396 5.35156C15.2892 6.30773 15.9834 7.74788 15.9834 9.62988C15.9834 11.512 15.2893 12.953 14.1396 13.9092C13.0103 14.8483 11.5142 15.2598 9.99121 15.2598C9.68511 15.2598 9.38123 15.2438 9.08203 15.21C9.00313 15.201 8.91865 15.2138 8.83887 15.25C8.23231 15.5249 7.55756 15.7221 6.9375 15.8643C6.25381 16.021 5.60002 15.7604 5.19922 15.3086C4.78862 14.8457 4.61 14.1334 4.97363 13.459C4.97532 13.455 4.98737 13.4286 4.99902 13.376C5.01164 13.3189 5.01984 13.2509 5.02148 13.1826C5.02313 13.1133 5.01707 13.0588 5.00977 13.0244C5.00896 13.0206 5.00752 13.0174 5.00684 13.0146C4.35999 12.1212 4 10.9861 4 9.62988C4.00004 7.74803 4.69335 6.30774 5.84277 5.35156C6.97212 4.41223 8.46813 4.00005 9.99121 4ZM9.99121 5.5C8.71953 5.50005 7.59428 5.8457 6.80176 6.50488C6.02964 7.14731 5.50004 8.14679 5.5 9.62988C5.5 10.7273 5.79072 11.5523 6.23926 12.1602C6.49082 12.5009 6.52822 12.9375 6.52148 13.2188C6.51418 13.5217 6.44895 13.8834 6.29395 14.1709C6.27496 14.2061 6.27683 14.2247 6.27832 14.2344C6.28075 14.2498 6.29096 14.2793 6.32129 14.3135C6.38666 14.387 6.49404 14.4272 6.60254 14.4023C7.16838 14.2726 7.73765 14.1023 8.21973 13.8838C8.53861 13.7392 8.89494 13.6785 9.25098 13.7188C9.49184 13.746 9.73918 13.7598 9.99121 13.7598C11.2629 13.7598 12.3881 13.415 13.1807 12.7559C13.9531 12.1134 14.4834 11.1133 14.4834 9.62988C14.4834 8.14656 13.953 7.1473 13.1807 6.50488C12.3881 5.84565 11.263 5.5 9.99121 5.5Z" fill="black"/>
</svg>
