<svg width="24" height="24" viewBox="0 0 24 24" fill="none" xmlns="http://www.w3.org/2000/svg">
<path fill-rule="evenodd" clip-rule="evenodd" d="M7.20008 8.23889C7.48187 7.93556 7.95712 7.91826 8.26063 8.19982L11.7606 11.4498C11.9133 11.5917 11.9998 11.7912 11.9999 11.9996C11.9999 12.2081 11.9134 12.4075 11.7606 12.5494L8.26063 15.7994C7.95713 16.0812 7.48194 16.0638 7.20008 15.7604C6.91852 15.4569 6.93581 14.9816 7.23914 14.6998L10.1464 11.9996L7.23914 9.29943C6.93597 9.01754 6.91834 8.54229 7.20008 8.23889ZM12.2001 8.23889C12.4819 7.93556 12.9571 7.91826 13.2606 8.19982L16.7606 11.4498C16.9133 11.5917 16.9998 11.7912 16.9999 11.9996C16.9999 12.2081 16.9134 12.4075 16.7606 12.5494L13.2606 15.7994C12.9571 16.0812 12.4819 16.0638 12.2001 15.7604C11.9185 15.4569 11.9358 14.9816 12.2391 14.6998L15.1464 11.9996L12.2391 9.29943C11.936 9.01754 11.9183 8.54229 12.2001 8.23889Z" fill="black"/>
</svg>
