<svg width="24" height="24" viewBox="0 0 24 24" fill="none" xmlns="http://www.w3.org/2000/svg">
<path fill-rule="evenodd" clip-rule="evenodd" d="M14.7001 12.2389C14.9819 11.9356 15.4571 11.9183 15.7606 12.1998C16.064 12.4817 16.0815 12.9569 15.7997 13.2604L12.5497 16.7604C12.4078 16.9131 12.2084 16.9996 11.9999 16.9996C11.7915 16.9996 11.5919 16.9131 11.4501 16.7604L8.20007 13.2604C7.91851 12.9569 7.9358 12.4816 8.23913 12.1998C8.54254 11.9181 9.01778 11.9357 9.29968 12.2389L11.9999 15.1461L14.7001 12.2389ZM14.7001 7.2389C14.9819 6.93557 15.4571 6.91828 15.7606 7.19984C16.064 7.4817 16.0815 7.95689 15.7997 8.26038L12.5497 11.7604C12.4078 11.9131 12.2084 11.9996 11.9999 11.9996C11.7915 11.9996 11.5919 11.9131 11.4501 11.7604L8.20007 8.26038C7.91851 7.95688 7.9358 7.48162 8.23913 7.19984C8.54254 6.9181 9.01778 6.93573 9.29968 7.2389L11.9999 10.1461L14.7001 7.2389Z" fill="black"/>
</svg>
