<svg width="24" height="24" viewBox="0 0 24 24" fill="none" xmlns="http://www.w3.org/2000/svg">
<path d="M19.25 14C19.6642 14 20 14.3358 20 14.75V16.25C20 18.3211 18.3211 20 16.25 20H7.75C5.67893 20 4 18.3211 4 16.25V14.75C4 14.3358 4.33579 14 4.75 14C5.16421 14 5.5 14.3358 5.5 14.75V16.25C5.5 17.4926 6.50736 18.5 7.75 18.5H16.25C17.4926 18.5 18.5 17.4926 18.5 16.25V14.75C18.5 14.3358 18.8358 14 19.25 14ZM12 4C12.4142 4 12.75 4.33579 12.75 4.75V12.3389L14.7002 10.2393C14.9821 9.93583 15.4572 9.91838 15.7607 10.2002C16.0642 10.4821 16.0816 10.9572 15.7998 11.2607L12.5498 14.7607C12.5445 14.7665 12.5377 14.7708 12.5322 14.7764C12.5298 14.7788 12.5279 14.7818 12.5254 14.7842C12.4932 14.8158 12.4587 14.8441 12.4219 14.8691C12.4184 14.8715 12.4147 14.8736 12.4111 14.876C12.3748 14.8998 12.3367 14.9204 12.2969 14.9375C12.2914 14.9399 12.2858 14.9421 12.2803 14.9443C12.1919 14.9799 12.0972 15 12 15C11.9025 15 11.8073 14.9801 11.7188 14.9443C11.7132 14.9421 11.7076 14.9399 11.7021 14.9375C11.6624 14.9203 11.6242 14.8998 11.5879 14.876C11.5843 14.8736 11.5807 14.8715 11.5771 14.8691C11.5406 14.8442 11.5066 14.8156 11.4746 14.7842C11.472 14.7816 11.4694 14.779 11.4668 14.7764C11.4615 14.771 11.4554 14.7663 11.4502 14.7607L8.2002 11.2607C7.91838 10.9572 7.93583 10.4821 8.23926 10.2002C8.54275 9.91838 9.01794 9.93583 9.2998 10.2393L11.25 12.3389V4.75C11.25 4.33579 11.5858 4 12 4Z" fill="black"/>
</svg>
