<svg width="24" height="24" viewBox="0 0 24 24" fill="none" xmlns="http://www.w3.org/2000/svg">
<g clip-path="url(#clip0_4152_2215)">
<path fill-rule="evenodd" clip-rule="evenodd" d="M19.25 5.99994C19.6642 5.99994 20 6.33573 20 6.74994V19.2499C20 19.6642 19.6642 19.9999 19.25 19.9999H6.75C6.33579 19.9999 6 19.6642 6 19.2499V14.7499C6 14.3357 6.33579 13.9999 6.75 13.9999H10V10.7499C10 10.3357 10.3358 9.99994 10.75 9.99994H14V6.74994C14 6.33573 14.3358 5.99994 14.75 5.99994H19.25ZM15.5 10.7499C15.5 11.1642 15.1642 11.4999 14.75 11.4999H11.5V14.7499C11.5 15.1642 11.1642 15.4999 10.75 15.4999H7.5V18.4999H18.5V7.49994H15.5V10.7499ZM34.25 15.4999C34.6642 15.4999 35 15.8357 35 16.2499C35 16.6642 34.6642 16.9999 34.25 16.9999H25.75C25.3358 16.9999 25 16.6642 25 16.2499C25 15.8357 25.3358 15.4999 25.75 15.4999H34.25ZM9.46973 4.46967C9.76262 4.17678 10.2374 4.17678 10.5303 4.46967C10.8232 4.76256 10.8232 5.23732 10.5303 5.53022L6.56055 9.49994H8.25C8.66421 9.49994 9 9.83573 9 10.2499C9 10.6642 8.66421 10.9999 8.25 10.9999H4.75C4.70462 10.9999 4.66035 10.995 4.61719 10.9872C4.61165 10.9863 4.6061 10.9854 4.60059 10.9843C4.5872 10.9816 4.57464 10.976 4.56152 10.9726C4.52828 10.964 4.49492 10.9556 4.46289 10.9423C4.43375 10.9302 4.40703 10.9139 4.37988 10.8984C4.3232 10.866 4.26812 10.8286 4.21973 10.7802C4.16525 10.7257 4.12406 10.6633 4.08984 10.5986C4.07883 10.5778 4.0657 10.558 4.05664 10.5361C4.03603 10.4861 4.02106 10.4343 4.01172 10.3818C4.00413 10.339 4 10.2949 4 10.2499V6.74994C4 6.33573 4.33579 5.99994 4.75 5.99994C5.16421 5.99994 5.5 6.33573 5.5 6.74994V8.4394L9.46973 4.46967Z" fill="black"/>
</g>
<defs>
<clipPath id="clip0_4152_2215">
<rect width="24" height="24" fill="white"/>
</clipPath>
</defs>
</svg>
