<svg width="24" height="24" viewBox="0 0 24 24" fill="none" xmlns="http://www.w3.org/2000/svg">
<path fill-rule="evenodd" clip-rule="evenodd" d="M9.99988 4C10.3212 4 10.6065 4.20484 10.7098 4.50879C10.7112 4.51246 10.7146 4.52094 10.7196 4.5332C10.7297 4.55812 10.7471 4.59898 10.7723 4.64941C10.8237 4.75217 10.9035 4.88734 11.0136 5.01953C11.2297 5.27886 11.5359 5.4999 11.9999 5.5C12.464 5.5 12.7701 5.27886 12.9862 5.01953C13.0963 4.88734 13.176 4.75219 13.2274 4.64941C13.2526 4.59899 13.27 4.55816 13.2802 4.5332C13.2841 4.52352 13.2873 4.51615 13.2889 4.51172C13.3913 4.20621 13.6776 4.00014 13.9999 4H16.2499C16.519 4 16.7677 4.14433 16.9012 4.37793L18.9012 7.87793C19.0771 8.18585 19.013 8.57495 18.7479 8.81055L16.4979 10.8105C16.3463 10.9452 16.1465 11.0131 15.9442 10.998C15.7783 10.9856 15.6223 10.9174 15.4999 10.8076V12C15.4999 13.2726 16.2683 14.9274 17.1405 16.3604C17.5634 17.0551 17.9878 17.6611 18.3065 18.0938C18.4655 18.3095 18.5977 18.4818 18.6893 18.5986C18.735 18.6569 18.771 18.7019 18.7948 18.7314C18.8064 18.7458 18.8154 18.7566 18.8212 18.7637C18.8239 18.7671 18.8267 18.7699 18.828 18.7715L18.829 18.7734C19.0133 18.9975 19.0524 19.3079 18.9286 19.5703C18.8047 19.8327 18.5401 20 18.2499 20H5.74988C5.45979 19.9999 5.19499 19.8327 5.07117 19.5703C4.94744 19.308 4.98657 18.9974 5.17078 18.7734L5.17176 18.7715C5.17298 18.77 5.17578 18.7671 5.17859 18.7637C5.18431 18.7567 5.19337 18.7458 5.20496 18.7314C5.2287 18.7019 5.26469 18.657 5.31043 18.5986C5.40204 18.4818 5.53428 18.3095 5.69324 18.0938C6.012 17.6611 6.43634 17.0551 6.85926 16.3604C7.7315 14.9274 8.49988 13.2726 8.49988 12V10.8076C8.37741 10.9174 8.22155 10.9856 8.05555 10.998C7.85332 11.013 7.65343 10.9452 7.50183 10.8105L5.25183 8.81055C4.98698 8.57497 4.92276 8.18576 5.09851 7.87793L7.09851 4.37793C7.23199 4.14434 7.48086 4.00012 7.74988 4H9.99988ZM6.70301 8.09375L7.91883 9.1748L8.67371 8.26953C8.87573 8.02727 9.2081 7.93781 9.50476 8.04492C9.80167 8.15242 9.99988 8.43423 9.99988 8.75V12C9.99988 13.7273 9.01823 15.6976 8.14051 17.1396C7.83042 17.6491 7.51969 18.1117 7.24695 18.5H16.7528C16.4801 18.1117 16.1693 17.6491 15.8593 17.1396C14.9816 15.6977 13.9999 13.7272 13.9999 12V8.75C13.9999 8.43434 14.1983 8.15249 14.495 8.04492C14.7917 7.93767 15.124 8.02731 15.3261 8.26953L16.08 9.1748L17.2958 8.09375L15.8143 5.5H14.4716C14.3877 5.64562 14.2784 5.8127 14.1386 5.98047C13.7297 6.47098 13.0355 7 11.9999 7C10.9644 6.99989 10.27 6.47097 9.86121 5.98047C9.72142 5.8127 9.61209 5.64561 9.5282 5.5H8.18543L6.70301 8.09375Z" fill="black"/>
</svg>
