<svg width="24" height="24" viewBox="0 0 24 24" fill="none" xmlns="http://www.w3.org/2000/svg">
<path d="M12 4C16.4183 4 20 7.58172 20 12C20 16.4183 16.4183 20 12 20C7.58172 20 4 16.4183 4 12C4 7.58172 7.58172 4 12 4ZM14.6748 13.4385C13.7718 14.2204 13.116 15.0761 12.6416 15.8809C12.1264 16.7548 11.8218 17.5707 11.6465 18.165C11.6126 18.28 11.5843 18.3867 11.5596 18.4834C11.7052 18.4931 11.8519 18.5 12 18.5C13.7167 18.5 15.2766 17.8331 16.4385 16.7461C15.9311 15.5223 15.3306 14.4238 14.6748 13.4385ZM12.2188 10.4463C10.4276 11.3864 8.19001 12.021 5.50488 11.8047C5.50297 11.8696 5.5 11.9346 5.5 12C5.5 14.9219 7.42794 17.3933 10.0811 18.2119C10.1153 18.0722 10.157 17.9143 10.208 17.7412C10.4106 17.0544 10.7596 16.12 11.3496 15.1191C11.917 14.1567 12.7072 13.138 13.7939 12.2188C13.2856 11.5712 12.7557 10.9819 12.2188 10.4463ZM18.4678 11.3564C17.4724 11.6718 16.6186 12.0813 15.8838 12.5439C16.4741 13.4239 17.0224 14.3897 17.5078 15.4473C18.1348 14.4477 18.5 13.267 18.5 12C18.5 11.7828 18.4886 11.5682 18.4678 11.3564ZM16.3311 7.1543C15.666 7.91816 14.7364 8.83267 13.541 9.65039C14.038 10.1637 14.5283 10.7207 15.001 11.3252C15.8892 10.7554 16.9287 10.2573 18.1455 9.88477C17.7804 8.82367 17.1499 7.88669 16.3311 7.1543ZM7.77441 7.06152C6.79309 7.90198 6.06575 9.02964 5.72168 10.3145C7.79492 10.4633 9.56482 10.0385 11.0342 9.3584C9.93561 8.42431 8.85169 7.69848 7.89746 7.15039C7.85261 7.1246 7.81173 7.09452 7.77441 7.06152ZM12 5.5C10.9804 5.5 10.0151 5.73389 9.15625 6.15234C10.1727 6.77243 11.3028 7.57234 12.4336 8.58496C13.562 7.85625 14.4507 7.01381 15.0996 6.28418C14.1784 5.78356 13.1222 5.5 12 5.5Z" fill="black"/>
</svg>
