<svg width="24" height="24" viewBox="0 0 24 24" fill="none" xmlns="http://www.w3.org/2000/svg">
<path d="M14.25 4C14.2916 4 14.3323 4.00423 14.3721 4.01074C14.3811 4.01223 14.3904 4.01282 14.3994 4.01465C14.4097 4.01673 14.4195 4.02093 14.4297 4.02344C14.4641 4.03196 14.4988 4.04107 14.5322 4.05469L14.542 4.05859C14.5457 4.06018 14.549 4.06281 14.5527 4.06445C14.5915 4.08161 14.6296 4.10168 14.666 4.12598L17.666 6.12598C17.8746 6.26506 18 6.49927 18 6.75V7.25H19.25C19.6642 7.25 20 7.58582 20 8C20 8.41421 19.6642 8.75 19.25 8.75H18V9.25C18 9.50075 17.8746 9.73492 17.666 9.87402L14.666 11.874C14.6297 11.8982 14.5913 11.9174 14.5527 11.9346C14.5474 11.9369 14.5425 11.9401 14.5371 11.9424C14.502 11.957 14.4659 11.9666 14.4297 11.9756C14.4195 11.9781 14.4097 11.9823 14.3994 11.9844C14.3904 11.9862 14.3812 11.9868 14.3721 11.9883C14.3322 11.9948 14.2917 12 14.25 12H12.9424L12.1064 18.4736C11.9939 19.3462 11.2508 19.9998 10.3711 20H7.8877C6.83246 19.9999 6.01748 19.0729 6.15234 18.0264L6.92969 12H5.75C4.7835 12 4 11.2165 4 10.25V5.75C4.00004 4.78354 4.78353 4 5.75 4H14.25ZM7.63965 18.2178C7.62036 18.3673 7.737 18.4999 7.8877 18.5H10.3711C10.4965 18.4998 10.603 18.4066 10.6191 18.2822L11.4297 12H8.44238L7.63965 18.2178ZM5.75 5.5C5.61196 5.5 5.50004 5.61197 5.5 5.75V10.25C5.5 10.3881 5.61193 10.5 5.75 10.5H13.5V5.5H5.75ZM15 9.84863L16.5 8.84863V7.15137L15 6.15137V9.84863Z" fill="black"/>
</svg>
