<svg width="24" height="24" viewBox="0 0 24 24" fill="none" xmlns="http://www.w3.org/2000/svg">
<path fill-rule="evenodd" clip-rule="evenodd" d="M17.1023 4C18.1638 4 18.9817 4.93766 18.8367 5.98926L17.1121 18.4893C16.9926 19.355 16.2526 19.9999 15.3787 20H8.62182C7.74785 19.9999 7.00794 19.355 6.88842 18.4893L5.16381 5.98926C5.01879 4.93776 5.83581 4.00018 6.89721 4H17.1023ZM11.5837 12.624C10.2689 11.7476 9.24654 11.7815 8.5808 11.9717C8.23349 12.071 7.95961 12.2198 7.77514 12.3428C7.68417 12.4034 7.61693 12.457 7.57494 12.4922L8.37377 18.2842C8.39083 18.4078 8.49701 18.4999 8.62182 18.5H15.3787C15.5034 18.4999 15.6086 18.4078 15.6257 18.2842L16.3132 13.2979C16.1647 13.3599 16.0046 13.422 15.8308 13.4717C14.7466 13.7813 13.2686 13.7472 11.5837 12.624ZM6.89721 5.5C6.74572 5.50018 6.62944 5.63406 6.65014 5.78418L7.34936 10.8574C7.57998 10.7377 7.85369 10.6193 8.16869 10.5293C9.25286 10.2195 10.7308 10.2527 12.4158 11.376C13.7304 12.2524 14.7529 12.2194 15.4187 12.0293C15.7661 11.93 16.0398 11.7802 16.2244 11.6572C16.3155 11.5964 16.3835 11.543 16.4255 11.5078C16.446 11.4907 16.461 11.4776 16.4685 11.4707C16.5026 11.4366 16.5394 11.4061 16.5779 11.3799L17.3503 5.78418C17.3711 5.63395 17.2539 5.5 17.1023 5.5H6.89721Z" fill="black"/>
</svg>
