<svg width="24" height="24" viewBox="0 0 24 24" fill="none" xmlns="http://www.w3.org/2000/svg">
<path d="M8 9C8.16195 9 8.31954 9.05242 8.44922 9.14941C8.44944 9.14958 8.45024 9.1497 8.45117 9.15039C8.45344 9.15207 8.45795 9.15586 8.46387 9.16016C8.47569 9.16874 8.49427 9.18251 8.51953 9.2002C8.57081 9.23609 8.6488 9.28908 8.74902 9.35352C8.95018 9.48283 9.23912 9.65616 9.58496 9.8291C10.2925 10.1829 11.1699 10.5 12 10.5C12.8301 10.5 13.7075 10.1829 14.415 9.8291C14.7609 9.65616 15.0498 9.48283 15.251 9.35352C15.3512 9.28908 15.4292 9.23609 15.4805 9.2002C15.5057 9.18251 15.5243 9.16874 15.5361 9.16016C15.542 9.15586 15.5466 9.15207 15.5488 9.15039L15.5498 9.14941C15.6796 9.05212 15.8378 9 16 9H17.5C18.8807 9 20 10.1193 20 11.5C20 12.846 18.9362 13.9398 17.6035 13.9941C17.6402 14.1453 17.6896 14.3052 17.7549 14.4619C17.8791 14.7598 18.049 15.0157 18.2734 15.1953C18.4862 15.3655 18.7877 15.5 19.25 15.5C19.6642 15.5 20 15.8358 20 16.25C20 16.6642 19.6642 17 19.25 17C18.4623 17 17.8263 16.7595 17.3359 16.3672C16.8574 15.9843 16.5584 15.49 16.3701 15.0381C16.2144 14.6643 16.1266 14.2975 16.0752 14H15C14.959 14 14.9366 14.0044 14.9277 14.0068C14.9232 14.0081 14.9206 14.0095 14.9199 14.0098L14.9189 14.0107C14.9185 14.0111 14.9174 14.0115 14.916 14.0127C14.9139 14.0145 14.9101 14.018 14.9053 14.0234C14.8949 14.0352 14.8783 14.0561 14.8584 14.0908C14.7503 14.2797 14.6978 14.5184 14.5527 14.9766C14.4299 15.3644 14.2406 15.8874 13.8359 16.3037C13.3987 16.7535 12.7927 17 12 17C11.2073 17 10.6013 16.7535 10.1641 16.3037C9.75938 15.8874 9.57009 15.3644 9.44727 14.9766C9.30217 14.5184 9.24967 14.2797 9.1416 14.0908C9.12173 14.0561 9.1051 14.0352 9.09473 14.0234C9.08988 14.018 9.08608 14.0145 9.08398 14.0127C9.08259 14.0115 9.08151 14.0111 9.08105 14.0107L9.08008 14.0098C9.07938 14.0095 9.07684 14.0081 9.07227 14.0068C9.06335 14.0044 9.04099 14 9 14H7.9248C7.87338 14.2975 7.78558 14.6643 7.62988 15.0381C7.44158 15.49 7.14264 15.9843 6.66406 16.3672C6.17372 16.7595 5.53773 17 4.75 17C4.33579 17 4 16.6642 4 16.25C4 15.8358 4.33579 15.5 4.75 15.5C5.21227 15.5 5.51378 15.3655 5.72656 15.1953C5.95102 15.0157 6.12093 14.7598 6.24512 14.4619C6.31037 14.3053 6.3588 14.1452 6.39551 13.9941C5.06333 13.9393 4 12.8457 4 11.5C4 10.1193 5.11929 9 6.5 9H8ZM6.5 10.5C5.94772 10.5 5.5 10.9477 5.5 11.5C5.5 12.0523 5.94772 12.5 6.5 12.5H9C9.32361 12.5 9.62625 12.5776 9.89062 12.7471C10.1489 12.9127 10.3225 13.1354 10.4434 13.3467C10.657 13.7203 10.7856 14.2317 10.8779 14.5234C10.9926 14.8855 11.0971 15.1126 11.2393 15.2588C11.3489 15.3715 11.5429 15.5 12 15.5C12.4571 15.5 12.6511 15.3715 12.7607 15.2588C12.9029 15.1126 13.0074 14.8855 13.1221 14.5234C13.2144 14.2317 13.343 13.7203 13.5566 13.3467C13.6775 13.1354 13.8511 12.9127 14.1094 12.7471C14.3738 12.5776 14.6764 12.5 15 12.5H17.5C18.0523 12.5 18.5 12.0523 18.5 11.5C18.5 10.9477 18.0523 10.5 17.5 10.5H16.2334C16.1836 10.5336 16.1266 10.5734 16.0615 10.6152C15.8253 10.7671 15.4888 10.969 15.085 11.1709C14.2925 11.5671 13.1697 12 12 12C10.8303 12 9.70747 11.5671 8.91504 11.1709C8.51116 10.969 8.17473 10.7671 7.93848 10.6152C7.87337 10.5734 7.81637 10.5336 7.7666 10.5H6.5ZM9.25 6C9.66421 6 10 6.33579 10 6.75C10 7.16421 9.66421 7.5 9.25 7.5H4.75C4.33579 7.5 4 7.16421 4 6.75C4 6.33579 4.33579 6 4.75 6H9.25ZM19.25 6C19.6642 6 20 6.33579 20 6.75C20 7.16421 19.6642 7.5 19.25 7.5H14.75C14.3358 7.5 14 7.16421 14 6.75C14 6.33579 14.3358 6 14.75 6H19.25Z" fill="black"/>
</svg>
