<svg width="24" height="24" viewBox="0 0 24 24" fill="none" xmlns="http://www.w3.org/2000/svg">
<path d="M12 4C12.2258 4 12.4396 4.10207 12.582 4.27734H12.583V4.27832L12.5986 4.29785C12.6091 4.31086 12.6247 4.32976 12.6445 4.35449C12.6842 4.40398 12.7414 4.4766 12.8145 4.56934C12.9606 4.75484 13.1687 5.02214 13.418 5.35156C13.9162 6.00994 14.5819 6.92014 15.249 7.92285C15.9143 8.9229 16.5909 10.0294 17.1035 11.0791C17.6026 12.1012 18 13.1735 18 14.0713C18 17.3552 15.304 20 12 20C8.69601 20 6 17.3552 6 14.0713C6.00004 13.1735 6.39736 12.1012 6.89648 11.0791C7.4091 10.0294 8.08566 8.9229 8.75098 7.92285C9.41806 6.92014 10.0838 6.00994 10.582 5.35156C10.8313 5.02214 11.0394 4.75484 11.1855 4.56934C11.2586 4.4766 11.3158 4.40398 11.3555 4.35449C11.3753 4.32976 11.3909 4.31086 11.4014 4.29785L11.417 4.27832V4.27734H11.418C11.5604 4.10207 11.7742 4 12 4ZM11.7773 6.25684C11.2912 6.8993 10.6443 7.78392 9.99902 8.75391C9.35199 9.72651 8.71583 10.7714 8.24414 11.7373C7.75895 12.7309 7.50005 13.5391 7.5 14.0713C7.5 16.5075 9.505 18.5 12 18.5C14.495 18.5 16.5 16.5075 16.5 14.0713C16.5 13.5391 16.241 12.7309 15.7559 11.7373C15.2842 10.7714 14.648 9.72651 14.001 8.75391C13.3557 7.78392 12.7088 6.8993 12.2227 6.25684C12.1446 6.15362 12.069 6.05768 12 5.96777C11.931 6.05768 11.8554 6.15362 11.7773 6.25684Z" fill="black"/>
</svg>
