<svg width="24" height="24" viewBox="0 0 24 24" fill="none" xmlns="http://www.w3.org/2000/svg">
<path fill-rule="evenodd" clip-rule="evenodd" d="M15.4883 10.2024C15.7765 9.93319 16.2235 9.93319 16.5117 10.2024H16.5127L16.5244 10.2141C16.5315 10.2208 16.542 10.2303 16.5547 10.2424C16.5806 10.2671 16.6175 10.3033 16.6641 10.3489C16.7575 10.4403 16.89 10.5717 17.0479 10.7356C17.3631 11.0628 17.7858 11.5227 18.21 12.051C18.6322 12.5768 19.0688 13.1869 19.4033 13.8118C19.7305 14.423 20 15.1222 20 15.8098C19.9999 18.225 18.2314 20.0002 16 20.0002C13.7686 20.0002 12.0001 18.225 12 15.8098C12 15.1222 12.2695 14.423 12.5967 13.8118C12.9312 13.1869 13.3678 12.5768 13.79 12.051C14.2142 11.5227 14.6369 11.0628 14.9521 10.7356C15.11 10.5717 15.2425 10.4403 15.3359 10.3489C15.3825 10.3033 15.4194 10.2671 15.4453 10.2424C15.458 10.2303 15.4685 10.2208 15.4756 10.2141L15.4873 10.2024H15.4883ZM16 11.8108C15.7101 12.1132 15.3339 12.5248 14.96 12.9905C14.5697 13.4765 14.1938 14.0064 13.9189 14.5198C13.637 15.0466 13.5 15.4858 13.5 15.8098C13.5001 17.4419 14.6417 18.5002 16 18.5002C17.3583 18.5002 18.4999 17.4419 18.5 15.8098C18.5 15.4858 18.363 15.0466 18.0811 14.5198C17.8062 14.0064 17.4303 13.4765 17.04 12.9905C16.6661 12.5248 16.2899 12.1132 16 11.8108ZM7.48828 4.20239C7.77649 3.93319 8.22351 3.93319 8.51172 4.20239H8.5127L8.52441 4.21411C8.53154 4.22083 8.54202 4.23033 8.55469 4.24243C8.58057 4.26715 8.61748 4.30329 8.66406 4.34888C8.75748 4.44029 8.88996 4.57173 9.04785 4.73559C9.36308 5.06276 9.78576 5.52273 10.21 6.05102C10.6322 6.57685 11.0688 7.18687 11.4033 7.81177C11.7305 8.42302 12 9.1222 12 9.80981C11.9999 12.225 10.2314 14.0002 8 14.0002C5.76864 14.0002 4.00014 12.225 4 9.80981C4 9.1222 4.26952 8.42302 4.59668 7.81177C4.93118 7.18687 5.36784 6.57685 5.79004 6.05102C6.21424 5.52273 6.63692 5.06276 6.95215 4.73559C7.11004 4.57173 7.24252 4.44029 7.33594 4.34888C7.38252 4.30329 7.41943 4.26715 7.44531 4.24243C7.45798 4.23033 7.46846 4.22083 7.47559 4.21411L7.4873 4.20239H7.48828ZM8 5.81079C7.71007 6.11319 7.33387 6.52482 6.95996 6.99048C6.56974 7.47648 6.19376 8.00639 5.91895 8.51977C5.63702 9.04658 5.5 9.48577 5.5 9.80981C5.50014 11.4419 6.64168 12.5002 8 12.5002C9.35832 12.5002 10.4999 11.4419 10.5 9.80981C10.5 9.48577 10.363 9.04658 10.0811 8.51977C9.80624 8.00639 9.43026 7.47648 9.04004 6.99048C8.66613 6.52482 8.28993 6.11319 8 5.81079Z" fill="black"/>
</svg>
