<svg width="24" height="24" viewBox="0 0 24 24" fill="none" xmlns="http://www.w3.org/2000/svg">
<path d="M18.25 8C19.2165 8 20 8.7835 20 9.75V18.25C20 19.2165 19.2165 20 18.25 20H5.75C4.7835 20 4 19.2165 4 18.25V9.75C4 8.7835 4.7835 8 5.75 8H18.25ZM5.5 18.25C5.5 18.3881 5.61193 18.5 5.75 18.5H18.25C18.3881 18.5 18.5 18.3881 18.5 18.25V14.75H5.5V18.25ZM5.75 9.5C5.61193 9.5 5.5 9.61193 5.5 9.75V13.25H18.5V9.75C18.5 9.61193 18.3881 9.5 18.25 9.5H5.75ZM5 4C5.55228 4 6 4.44772 6 5C6 5.55228 5.55228 6 5 6C4.44772 6 4 5.55228 4 5C4 4.44772 4.44772 4 5 4Z" fill="black"/>
</svg>
