<svg width="24" height="24" viewBox="0 0 24 24" fill="none" xmlns="http://www.w3.org/2000/svg">
<path fill-rule="evenodd" clip-rule="evenodd" d="M6.60932 11.7031C6.77339 11.3228 7.21434 11.1475 7.59467 11.3115C7.97487 11.4756 8.15019 11.9166 7.98627 12.2969C7.66109 13.0507 7.49997 13.6542 7.49994 14.0713C7.49994 16.5075 9.50495 18.5 11.9999 18.5C12.6098 18.5 13.1897 18.3808 13.7177 18.166C14.1012 18.0103 14.5381 18.1948 14.6943 18.5781C14.8503 18.9618 14.6659 19.3996 14.2822 19.5557C13.5775 19.8422 12.8064 20 11.9999 20C8.69596 20 5.99994 17.3553 5.99994 14.0713C5.99997 13.3426 6.26067 12.5113 6.60932 11.7031ZM11.9999 4C12.2258 4 12.4396 4.10206 12.582 4.27734H12.583V4.27832L12.5986 4.29785C12.6091 4.31086 12.6247 4.32975 12.6445 4.35449C12.6841 4.40398 12.7414 4.4766 12.8144 4.56934C12.9605 4.75484 13.1686 5.02214 13.4179 5.35156C13.9161 6.00994 14.5819 6.92015 15.249 7.92285C15.9143 8.92291 16.5908 10.0294 17.1035 11.0791C17.6026 12.1013 17.9999 13.1735 17.9999 14.0713C17.9999 14.9124 17.8194 15.7126 17.499 16.4385L19.7802 18.7197C20.0731 19.0126 20.0731 19.4874 19.7802 19.7803C19.4873 20.0732 19.0126 20.0732 18.7197 19.7803L4.21967 5.28027C3.92678 4.98738 3.92678 4.51262 4.21967 4.21973C4.51256 3.92683 4.98732 3.92683 5.28022 4.21973L8.84369 7.7832C9.41597 6.9301 9.98151 6.15094 10.4345 5.54688C10.724 5.16091 10.9688 4.84509 11.1415 4.625C11.228 4.51488 11.2965 4.42813 11.3437 4.36914C11.3672 4.3397 11.3859 4.31725 11.3984 4.30176C11.4044 4.2943 11.4088 4.28826 11.4121 4.28418C11.4136 4.28232 11.4151 4.28039 11.416 4.2793L11.4169 4.27734H11.4179C11.5603 4.10206 11.7741 4 11.9999 4ZM11.6347 6.44727C11.1482 7.09606 10.5354 7.94729 9.92768 8.86719L16.331 15.2705C16.4397 14.8893 16.4999 14.4875 16.4999 14.0713C16.4999 13.5391 16.241 12.7309 15.7558 11.7373C15.2841 10.7714 14.648 9.72651 14.0009 8.75391C13.3556 7.78392 12.7087 6.8993 12.2226 6.25684C12.1447 6.15385 12.0688 6.05849 11.9999 5.96875C11.8901 6.11184 11.7665 6.27149 11.6347 6.44727Z" fill="black"/>
</svg>
