<svg width="24" height="24" viewBox="0 0 24 24" fill="none" xmlns="http://www.w3.org/2000/svg">
<path fill-rule="evenodd" clip-rule="evenodd" d="M14.7931 16.1552C15.1214 15.9029 15.5924 15.9647 15.8449 16.2929C16.0972 16.6212 16.0354 17.0922 15.7072 17.3447L12.4572 19.8447C12.1877 20.0518 11.8126 20.0518 11.5431 19.8447L8.2931 17.3447C7.96488 17.0922 7.90311 16.6212 8.15541 16.2929C8.40789 15.9647 8.87886 15.9029 9.20717 16.1552L12.0001 18.3037L14.7931 16.1552ZM15.6749 4.07418C15.9153 3.95843 16.2028 3.97859 16.4269 4.13375L19.6769 6.38375C19.8749 6.5209 19.9954 6.74447 20.0001 6.98531C20.0047 7.22622 19.893 7.45491 19.7003 7.59957L16.4992 9.99996L19.7003 12.4004C19.893 12.545 20.0047 12.7737 20.0001 13.0146C19.9954 13.2555 19.8749 13.479 19.6769 13.6162L16.4269 15.8662C16.1615 16.0499 15.8082 16.0433 15.5499 15.8496L11.9992 13.1865L8.45033 15.8496C8.19207 16.0433 7.8388 16.0499 7.57338 15.8662L4.32338 13.6162C4.12534 13.479 4.00484 13.2555 4.00014 13.0146C3.99556 12.7737 4.10727 12.545 4.29994 12.4004L7.50014 9.99996L4.29994 7.59957C4.10727 7.45491 3.99556 7.22622 4.00014 6.98531C4.00484 6.74447 4.12533 6.5209 4.32338 6.38375L7.57338 4.13375L7.67299 4.07516C7.91289 3.95877 8.2004 3.97749 8.42494 4.1318L12.0001 6.58883L15.5753 4.1318L15.6749 4.07418ZM6.03139 12.9755L7.98158 14.3252L10.7169 12.2734L8.76771 10.9238L6.03139 12.9755ZM13.2814 12.2734L16.0177 14.3252L17.9679 12.9755L15.2316 10.9238L13.2814 12.2734ZM10.0665 9.99996L12.0001 11.3379L13.9328 9.99996L12.0001 8.66109L10.0665 9.99996ZM6.03139 7.0234L8.76771 9.07516L10.8605 7.62594L8.00111 5.66012L6.03139 7.0234ZM13.1388 7.62594L15.2316 9.07516L17.9679 7.0234L15.9982 5.66012L13.1388 7.62594Z" fill="black"/>
</svg>
