<svg width="24" height="24" viewBox="0 0 24 24" fill="none" xmlns="http://www.w3.org/2000/svg">
<path d="M20.3104 4.75L16.4344 8.625C16.5154 8.65149 16.596 8.67515 16.6737 8.70312C17.2863 8.92368 17.8352 9.20401 18.245 9.55273C18.6518 9.899 18.9998 10.3855 18.9999 11V16C18.9999 17.0736 18.3773 18.1035 17.2089 18.8311C16.0503 19.5524 14.3345 20 11.9999 20C9.66524 20 7.94945 19.5524 6.79089 18.8311C5.62251 18.1035 4.99988 17.0736 4.99988 16V11C4.99992 10.3855 5.34793 9.899 5.75476 9.55273C6.16454 9.20398 6.71344 8.92369 7.32605 8.70312C7.40346 8.67526 7.48367 8.6514 7.56433 8.625L3.68933 4.75L4.74988 3.68945L9.27625 8.21582C10.1153 8.07742 11.0377 8.00001 11.9999 8C12.9617 8 13.8838 8.07753 14.7225 8.21582L19.2499 3.68945L20.3104 4.75ZM17.4999 12.9375C17.2444 13.0712 16.9666 13.1914 16.6737 13.2969C15.4418 13.7404 13.789 14 11.9999 14C10.2108 14 8.55795 13.7404 7.32605 13.2969C7.03314 13.1914 6.75539 13.0712 6.49988 12.9375V16C6.49988 16.4451 6.75257 17.0399 7.58386 17.5576C8.42527 18.0815 9.83463 18.5 11.9999 18.5C14.1652 18.5 15.5745 18.0815 16.4159 17.5576C17.2473 17.0399 17.4999 16.4451 17.4999 16V12.9375ZM11.9999 9.5C11.5222 9.5 11.0603 9.52211 10.62 9.55957L11.3104 10.25L10.2499 11.3105L8.78015 9.84082C8.43521 9.92111 8.11812 10.0123 7.83484 10.1143C7.31675 10.3008 6.9501 10.5058 6.72742 10.6953C6.50292 10.8864 6.4999 10.9923 6.49988 11C6.49988 11.0067 6.50186 11.1127 6.72742 11.3047C6.95009 11.4942 7.31679 11.6992 7.83484 11.8857C8.86493 12.2565 10.3375 12.5 11.9999 12.5C13.6623 12.5 15.1348 12.2565 16.1649 11.8857C16.683 11.6992 17.0496 11.4942 17.2723 11.3047C17.498 11.1126 17.4999 11.0067 17.4999 11C17.4999 10.9923 17.4968 10.8864 17.2723 10.6953C17.0496 10.5059 16.6829 10.3007 16.1649 10.1143C15.8814 10.0122 15.564 9.92116 15.2186 9.84082L13.7499 11.3105L12.6893 10.25L13.3788 9.55957C12.9388 9.52218 12.4772 9.5 11.9999 9.5Z" fill="black"/>
</svg>
