<svg width="24" height="24" viewBox="0 0 24 24" fill="none" xmlns="http://www.w3.org/2000/svg">
<path fill-rule="evenodd" clip-rule="evenodd" d="M18.6775 4.2654C18.945 3.94929 19.4179 3.91 19.7341 4.17751C20.0502 4.44508 20.0895 4.91798 19.822 5.23415L16.1765 9.54079C16.3487 9.59169 16.5148 9.64574 16.6736 9.7029C17.2862 9.92347 17.8351 10.2038 18.2449 10.5525C18.6517 10.8988 18.9997 11.3852 18.9997 11.9998V16.9998C18.9997 17.6144 18.6517 18.1008 18.2449 18.447C17.8351 18.7958 17.2862 19.0761 16.6736 19.2967C15.4417 19.7401 13.7889 19.9998 11.9997 19.9998C10.2106 19.9998 8.55784 19.7401 7.32592 19.2967C6.71329 19.0761 6.16442 18.7958 5.75463 18.447C5.34778 18.1008 4.99975 17.6143 4.99975 16.9998V11.9998C4.99975 11.3852 5.34778 10.8988 5.75463 10.5525C6.16442 10.2037 6.71328 9.92348 7.32592 9.7029C7.48444 9.64584 7.65017 9.59162 7.82201 9.54079L4.17748 5.23415C3.90996 4.91798 3.94925 4.44508 4.26537 4.17751C4.58154 3.90998 5.05444 3.94929 5.32201 4.2654L9.48119 9.18142C10.2645 9.06364 11.1154 8.99978 11.9997 8.99978C12.8837 8.99978 13.7343 9.06374 14.5173 9.18142L18.6775 4.2654ZM17.4997 13.9373C17.2443 14.071 16.9665 14.1912 16.6736 14.2967C15.4417 14.7401 13.7889 14.9998 11.9997 14.9998C10.2106 14.9998 8.55784 14.7401 7.32592 14.2967C7.03302 14.1912 6.75523 14.071 6.49975 13.9373V16.9998C6.49975 17.0065 6.50162 17.1124 6.72729 17.3045C6.94997 17.4939 7.3166 17.699 7.83471 17.8855C8.86481 18.2563 10.3373 18.4998 11.9997 18.4998C13.6622 18.4998 15.1347 18.2563 16.1648 17.8855C16.6829 17.699 17.0495 17.494 17.2722 17.3045C17.4979 17.1124 17.4997 17.0065 17.4997 16.9998V13.9373ZM11.9997 10.4998C11.5312 10.4998 11.0779 10.5203 10.6453 10.5564L10.822 10.7654C11.0895 11.0816 11.0502 11.5545 10.7341 11.822C10.4179 12.0896 9.94505 12.0503 9.67748 11.7342L8.89916 10.8142C8.50782 10.9006 8.15028 11.0005 7.83471 11.114C7.31659 11.3006 6.94997 11.5056 6.72729 11.6951C6.50178 11.887 6.49975 11.9929 6.49975 11.9998C6.49975 12.0065 6.50162 12.1124 6.72729 12.3045C6.94997 12.494 7.3166 12.699 7.83471 12.8855C8.86481 13.2563 10.3373 13.4998 11.9997 13.4998C13.6622 13.4998 15.1347 13.2563 16.1648 12.8855C16.6829 12.699 17.0495 12.494 17.2722 12.3045C17.4979 12.1124 17.4997 12.0065 17.4997 11.9998C17.4997 11.9929 17.4977 11.887 17.2722 11.6951C17.0495 11.5056 16.6829 11.3006 16.1648 11.114C15.849 11.0004 15.4911 10.9007 15.0994 10.8142L14.322 11.7342C14.0544 12.0503 13.5815 12.0896 13.2654 11.822C12.9493 11.5545 12.91 11.0816 13.1775 10.7654L13.3533 10.5564C12.9209 10.5204 12.4679 10.4998 11.9997 10.4998Z" fill="black"/>
</svg>
