<svg width="24" height="24" viewBox="0 0 24 24" fill="none" xmlns="http://www.w3.org/2000/svg">
<path d="M8.25 8C8.66421 8 9 8.33579 9 8.75V11.25H15V8.75C15 8.33579 15.3358 8 15.75 8H16.25C17.7688 8 19 9.23122 19 10.75V11.25H19.25C19.6642 11.25 20 11.5858 20 12C20 12.4142 19.6642 12.75 19.25 12.75H19V13.25C19 14.7688 17.7688 16 16.25 16H15.75C15.3358 16 15 15.6642 15 15.25V12.75H9V15.25C9 15.6642 8.66421 16 8.25 16H7.75C6.23122 16 5 14.7688 5 13.25V12.75H4.75C4.33579 12.75 4 12.4142 4 12C4 11.5858 4.33579 11.25 4.75 11.25H5V10.75C5 9.23122 6.23122 8 7.75 8H8.25ZM7.5 9.52441C6.92938 9.64019 6.5 10.1452 6.5 10.75V13.25C6.5 13.8547 6.92948 14.3588 7.5 14.4746V9.52441ZM16.5 14.4746C17.0705 14.3588 17.5 13.8547 17.5 13.25V10.75C17.5 10.1452 17.0706 9.64019 16.5 9.52441V14.4746Z" fill="black"/>
</svg>
