<svg width="24" height="24" viewBox="0 0 24 24" fill="none" xmlns="http://www.w3.org/2000/svg">
<path fill-rule="evenodd" clip-rule="evenodd" d="M8.74994 16C9.16416 16 9.49994 16.3358 9.49994 16.75V17.25C9.49994 17.9404 10.0596 18.5 10.7499 18.5H11.9999C12.4064 18.5 12.7996 18.2407 13.1826 17.6104C13.3977 17.2565 13.8589 17.1443 14.2128 17.3594C14.5667 17.5745 14.6798 18.0357 14.4648 18.3896C13.9709 19.2024 13.1798 20 11.9999 20H10.7499C9.23116 20 7.99994 18.7688 7.99994 17.25V16.75C7.99994 16.3358 8.33573 16 8.74994 16ZM11.9999 4C15.1756 4 17.9999 6.82436 17.9999 10C17.9999 11.2342 17.6092 12.2149 17.1288 12.9473C16.6974 13.6049 16.2723 14.2255 15.9238 14.8633L19.7802 18.7197C20.0731 19.0126 20.0731 19.4874 19.7802 19.7803C19.4873 20.0732 19.0126 20.0732 18.7197 19.7803L4.21967 5.28027C3.92678 4.98738 3.92678 4.51262 4.21967 4.21973C4.51256 3.92683 4.98732 3.92683 5.28022 4.21973L7.36518 6.30469C8.478 4.93712 10.168 4 11.9999 4ZM11.9999 5.5C10.6243 5.5 9.28984 6.24459 8.43158 7.37109L9.46088 8.40039C9.99206 7.5588 10.9305 7 11.9999 7C13.6568 7.00005 14.9999 8.34318 14.9999 10V10.25C14.9999 10.6642 14.6641 11 14.2499 11C13.8357 11 13.4999 10.6642 13.4999 10.25V10C13.4999 9.1716 12.8283 8.50005 11.9999 8.5C11.3406 8.5 10.7796 8.92618 10.579 9.51855L14.8232 13.7627C15.1669 13.1799 15.5436 12.6287 15.874 12.125C16.2184 11.5999 16.4999 10.9004 16.4999 10C16.4999 7.65279 14.3472 5.5 11.9999 5.5Z" fill="black"/>
</svg>
