<svg width="24" height="24" viewBox="0 0 24 24" fill="none" xmlns="http://www.w3.org/2000/svg">
<path d="M12 4C15.1756 4 18 6.82436 18 10C18 11.2342 17.6092 12.2149 17.1289 12.9473C16.3726 14.1002 15.6384 15.1399 15.3271 16.2734C15.1167 17.0396 14.7955 17.9276 14.3027 18.6396C13.8083 19.3541 13.0584 20 12 20H10.75C9.23122 20 8 18.7688 8 17.25V16.75C8 16.3358 8.33579 16 8.75 16C9.16421 16 9.5 16.3358 9.5 16.75V17.25C9.5 17.9404 10.0596 18.5 10.75 18.5H12C12.3675 18.5 12.7189 18.2925 13.0693 17.7861C13.4214 17.2774 13.6883 16.5773 13.8809 15.876C14.2702 14.4582 15.179 13.1845 15.874 12.125C16.2185 11.5999 16.5 10.9004 16.5 10C16.5 7.65279 14.3472 5.5 12 5.5C9.65279 5.5 7.5 7.65279 7.5 10C7.5 10.4142 7.16421 10.75 6.75 10.75C6.33579 10.75 6 10.4142 6 10C6 6.82436 8.82436 4 12 4ZM12 7C13.6569 7 15 8.34315 15 10V10.25C15 10.6642 14.6642 11 14.25 11C13.8358 11 13.5 10.6642 13.5 10.25V10C13.5 9.17157 12.8284 8.5 12 8.5C11.1716 8.5 10.5 9.17157 10.5 10V10.25C10.5 10.6642 10.1642 11 9.75 11C9.33579 11 9 10.6642 9 10.25V10C9 8.34315 10.3431 7 12 7Z" fill="black"/>
</svg>
