<svg width="24" height="24" viewBox="0 0 24 24" fill="none" xmlns="http://www.w3.org/2000/svg">
<path d="M12 4C16.4183 4 20 7.58172 20 12C20 16.4183 16.4183 20 12 20C7.58172 20 4 16.4183 4 12C4 7.58172 7.58172 4 12 4ZM12 5.5C8.41015 5.5 5.5 8.41015 5.5 12C5.5 15.5899 8.41015 18.5 12 18.5C15.5899 18.5 18.5 15.5899 18.5 12C18.5 8.41015 15.5899 5.5 12 5.5ZM14.25 8C14.6642 8 15 8.33579 15 8.75C15 9.16421 14.6642 9.5 14.25 9.5H10.5V11.25H13.25C13.6642 11.25 14 11.5858 14 12C14 12.4142 13.6642 12.75 13.25 12.75H10.5V14.5H14.25C14.6642 14.5 15 14.8358 15 15.25C15 15.6642 14.6642 16 14.25 16H9.75C9.33579 16 9 15.6642 9 15.25V8.75C9 8.33579 9.33579 8 9.75 8H14.25Z" fill="black"/>
</svg>
