<svg width="24" height="24" viewBox="0 0 24 24" fill="none" xmlns="http://www.w3.org/2000/svg">
<path d="M12 10C16.4183 10 20 13.5817 20 18V18.25C20 18.6642 19.6642 19 19.25 19C18.8358 19 18.5 18.6642 18.5 18.25V18C18.5 14.4101 15.5899 11.5 12 11.5C8.41015 11.5 5.5 14.4101 5.5 18V18.25C5.5 18.6642 5.16421 19 4.75 19C4.33579 19 4 18.6642 4 18.25V18C4 13.5817 7.58172 10 12 10ZM12.25 5C13.0426 5 13.7105 5.52737 13.9258 6.25H16.1465C16.4433 5.51725 17.1608 5 18 5C19.1046 5 20 5.89543 20 7C20 8.10457 19.1046 9 18 9C17.1608 9 16.4433 8.48275 16.1465 7.75H13.9258C13.7105 8.47263 13.0426 9 12.25 9H11.75C10.9574 9 10.2895 8.47263 10.0742 7.75H7.85352C7.55673 8.48275 6.8392 9 6 9C4.89543 9 4 8.10457 4 7C4 5.89543 4.89543 5 6 5C6.8392 5 7.55673 5.51725 7.85352 6.25H10.0742C10.2895 5.52737 10.9574 5 11.75 5H12.25ZM6 6.5C5.72386 6.5 5.5 6.72386 5.5 7C5.5 7.27614 5.72386 7.5 6 7.5C6.27614 7.5 6.5 7.27614 6.5 7C6.5 6.72386 6.27614 6.5 6 6.5ZM11.75 6.5C11.6119 6.5 11.5 6.61193 11.5 6.75V7.25C11.5 7.38807 11.6119 7.5 11.75 7.5H12.25C12.3881 7.5 12.5 7.38807 12.5 7.25V6.75C12.5 6.61193 12.3881 6.5 12.25 6.5H11.75ZM18 6.5C17.7239 6.5 17.5 6.72386 17.5 7C17.5 7.27614 17.7239 7.5 18 7.5C18.2761 7.5 18.5 7.27614 18.5 7C18.5 6.72386 18.2761 6.5 18 6.5Z" fill="black"/>
</svg>
