<svg width="24" height="24" viewBox="0 0 24 24" fill="none" xmlns="http://www.w3.org/2000/svg">
<path fill-rule="evenodd" clip-rule="evenodd" d="M19.2497 18.5003C19.6639 18.5003 19.9997 18.8361 19.9997 19.2503C19.9995 19.6643 19.6638 20.0003 19.2497 20.0003H13.7497C13.3357 20.0001 12.9999 19.6642 12.9997 19.2503C12.9997 18.8362 13.3356 18.5005 13.7497 18.5003H19.2497ZM14.5124 5.17706C15.1957 4.49368 16.3035 4.49375 16.987 5.17706L18.8229 7.013C19.5062 7.69643 19.5063 8.80424 18.8229 9.48761L9.52994 18.7806C9.43141 18.879 9.30709 18.9479 9.17154 18.9798L4.92154 19.9798C4.66885 20.0391 4.40297 19.9641 4.21939 19.7806C4.03589 19.597 3.95987 19.3311 4.0192 19.0784L5.0192 14.8284L5.05045 14.7288C5.08795 14.6322 5.14561 14.5439 5.21939 14.47L14.5124 5.17706ZM15.9264 6.23761C15.8288 6.14008 15.6705 6.14001 15.5729 6.23761L6.43131 15.3782L5.75748 18.2415L8.62076 17.5677L17.7624 8.42706C17.8599 8.32948 17.8598 8.17119 17.7624 8.07355L15.9264 6.23761Z" fill="black"/>
</svg>
