<svg width="24" height="24" viewBox="0 0 24 24" fill="none" xmlns="http://www.w3.org/2000/svg">
<path fill-rule="evenodd" clip-rule="evenodd" d="M11.7109 5.05784C11.9264 4.96785 12.1741 4.9829 12.3789 5.10276L19.6289 9.35276C19.8585 9.48737 20 9.73405 20 10.0002C20 10.2664 19.8585 10.5131 19.6289 10.6477L18 11.6018V16.2502C18 16.3908 17.9602 16.5285 17.8857 16.6477L17.25 16.2502C17.8748 16.6407 17.8858 16.6481 17.8857 16.6487L17.8848 16.6496L17.8838 16.6516C17.8829 16.653 17.8819 16.6548 17.8809 16.6565C17.8787 16.6598 17.8759 16.6639 17.873 16.6682C17.8674 16.6768 17.86 16.6873 17.8516 16.6994C17.8346 16.7239 17.8119 16.7558 17.7832 16.7932C17.7256 16.8682 17.643 16.9667 17.5332 17.0813C17.3133 17.3107 16.9835 17.6027 16.5186 17.8889C15.582 18.4652 14.1318 19.0002 12 19.0002C9.86821 19.0002 8.41798 18.4652 7.48145 17.8889C7.01647 17.6027 6.68671 17.3107 6.4668 17.0813C6.35703 16.9667 6.27441 16.8682 6.2168 16.7932C6.18806 16.7558 6.16539 16.7239 6.14844 16.6994C6.14002 16.6873 6.13261 16.6768 6.12695 16.6682C6.12411 16.6639 6.1213 16.6598 6.11914 16.6565C6.11808 16.6548 6.11711 16.653 6.11621 16.6516L6.11523 16.6496L6.11426 16.6487C6.11417 16.6481 6.1252 16.6407 6.75 16.2502L6.11426 16.6477C6.03976 16.5285 6 16.3908 6 16.2502V11.6018L4.37109 10.6477C4.14146 10.5131 4 10.2664 4 10.0002C4.00001 9.73405 4.14147 9.48737 4.37109 9.35276L11.6211 5.10276L11.7109 5.05784ZM12.3789 14.8977C12.1449 15.0346 11.8551 15.0346 11.6211 14.8977L7.5 12.4817V15.9875C7.51537 16.0046 7.53024 16.0248 7.54883 16.0442C7.68823 16.1896 7.92126 16.3978 8.26855 16.6116C8.95708 17.0352 10.1321 17.5002 12 17.5002C13.8679 17.5002 15.0429 17.0352 15.7314 16.6116C16.0787 16.3978 16.3118 16.1896 16.4512 16.0442C16.4698 16.0248 16.4846 16.0046 16.5 15.9875V12.4817L12.3789 14.8977ZM6.2334 10.0002L12 13.3801L17.7666 10.0002L12 6.61936L6.2334 10.0002ZM12 9.00022C12.5523 9.00022 13 9.44794 13 10.0002C13 10.5525 12.5523 11.0002 12 11.0002C11.4477 11.0002 11 10.5525 11 10.0002C11 9.44794 11.4477 9.00022 12 9.00022Z" fill="black"/>
</svg>
