<svg width="24" height="24" viewBox="0 0 24 24" fill="none" xmlns="http://www.w3.org/2000/svg">
<path fill-rule="evenodd" clip-rule="evenodd" d="M18.2502 4C18.4873 4 18.7103 4.11253 18.8518 4.30273C18.9932 4.49291 19.0371 4.73882 18.969 4.96582L17.8684 8.63379C17.4468 10.0391 16.6082 11.2207 15.4534 12C16.6082 12.7793 17.4468 13.9609 17.8684 15.3662L18.969 19.0342C19.0371 19.2612 18.9932 19.5071 18.8518 19.6973C18.7103 19.8875 18.4873 20 18.2502 20H5.75023C5.51315 20 5.29018 19.8875 5.14866 19.6973C5.00727 19.5071 4.96338 19.2612 5.03148 19.0342L6.13206 15.3662C6.55357 13.9612 7.39167 12.7793 8.54613 12C7.39167 11.2207 6.55357 10.0388 6.13206 8.63379L5.03148 4.96582C4.96338 4.73882 5.00727 4.49291 5.14866 4.30273C5.29018 4.11253 5.51315 4 5.75023 4H18.2502ZM7.56956 8.20312C8.02664 9.72668 9.07386 10.8411 10.4768 11.2852C10.7884 11.3839 11.0002 11.6731 11.0002 12C11.0002 12.3269 10.7884 12.6161 10.4768 12.7148C9.07386 13.1589 8.02664 14.2733 7.56956 15.7969L6.75902 18.5H17.2414L16.4309 15.7969C15.9738 14.2733 14.9266 13.1588 13.5237 12.7148C13.212 12.6161 13.0002 12.3269 13.0002 12C13.0002 11.6731 13.212 11.3839 13.5237 11.2852C14.9266 10.8412 15.9738 9.72668 16.4309 8.20312L17.2414 5.5H6.75902L7.56956 8.20312Z" fill="black"/>
</svg>
