<svg width="24" height="24" viewBox="0 0 24 24" fill="none" xmlns="http://www.w3.org/2000/svg">
<path fill-rule="evenodd" clip-rule="evenodd" d="M15.75 8.99993C16.1353 8.99993 16.4577 9.29239 16.4961 9.67571L16.9277 14.0009C16.9518 14.0003 16.9758 13.9999 17 13.9999C18.6568 13.9999 19.9999 15.3431 20 16.9999C20 18.6568 18.6569 19.9999 17 19.9999C15.3431 19.9999 14 18.6568 14 16.9999C14 16.649 14.0631 16.3129 14.1738 15.9999H9.82617C9.93693 16.3129 9.99998 16.649 10 16.9999C10 18.6568 8.65685 19.9999 7 19.9999C5.34315 19.9999 4 18.6568 4 16.9999C4.00009 15.3431 5.3432 13.9999 7 13.9999C7.61284 13.9999 8.18232 14.1845 8.65723 14.4999H8.78613L8.0791 13.0849C7.96314 12.8525 7.97575 12.5763 8.1123 12.3554C8.24901 12.1345 8.49023 11.9999 8.75 11.9999H10.25C10.6642 11.9999 10.9999 12.3358 11 12.7499C11 13.1641 10.6642 13.4999 10.25 13.4999H9.96387L10.4639 14.4999H15.0732L15.4521 14.3095L15.0713 10.4999H13.75C13.3358 10.4999 13 10.1641 13 9.74993C13.0001 9.33579 13.3358 8.99993 13.75 8.99993H15.75ZM7 15.4999C6.17163 15.4999 5.50009 16.1716 5.5 16.9999C5.5 17.8284 6.17157 18.4999 7 18.4999C7.82843 18.4999 8.5 17.8284 8.5 16.9999C8.49991 16.1716 7.82837 15.4999 7 15.4999ZM17 15.4999C16.1716 15.4999 15.5001 16.1716 15.5 16.9999C15.5 17.8284 16.1716 18.4999 17 18.4999C17.8284 18.4999 18.5 17.8284 18.5 16.9999C18.4999 16.1716 17.8284 15.4999 17 15.4999ZM5.3291 4.41497C5.51431 4.04473 5.96461 3.89416 6.33496 4.07903C6.70527 4.26418 6.85574 4.7145 6.6709 5.08489L5.96387 6.49993H7.25C7.50072 6.49993 7.73491 6.62533 7.87402 6.83391C8.01303 7.04241 8.03859 7.30665 7.94238 7.53801L6.69238 10.538C6.53312 10.9202 6.09418 11.1014 5.71191 10.9423C5.32972 10.783 5.14857 10.3441 5.30762 9.96184L6.125 7.99993H4.75C4.49018 7.99993 4.24899 7.86539 4.1123 7.64446C3.9758 7.42349 3.96309 7.14733 4.0791 6.91497L5.3291 4.41497Z" fill="black"/>
</svg>
