<svg width="24" height="24" viewBox="0 0 24 24" fill="none" xmlns="http://www.w3.org/2000/svg">
<path fill-rule="evenodd" clip-rule="evenodd" d="M17.25 5.99993C17.6642 5.99993 17.9999 6.33579 18 6.74993C18 7.16414 17.6642 7.49993 17.25 7.49993H15.9551C15.7988 7.50012 15.6813 7.64219 15.71 7.79583L17.0703 15.037C17.21 15.0128 17.3536 14.9999 17.5 14.9999C18.8807 14.9999 19.9999 16.1193 20 17.4999C20 18.8806 18.8807 19.9999 17.5 19.9999C16.3807 19.9999 15.4339 19.2641 15.1152 18.2499H8.88477C8.56613 19.2641 7.61933 19.9999 6.5 19.9999C5.11929 19.9999 4 18.8806 4 17.4999C4.00009 16.1193 5.11934 14.9999 6.5 14.9999C7.61927 14.9999 8.56608 15.7358 8.88477 16.7499H15.1152C15.2303 16.3841 15.4269 16.0547 15.6836 15.7831L14.2354 8.07317C14.0331 6.99617 14.8593 6.00012 15.9551 5.99993H17.25ZM6.5 16.4999C5.94777 16.4999 5.50009 16.9477 5.5 17.4999C5.5 18.0522 5.94772 18.4999 6.5 18.4999C7.05228 18.4999 7.5 18.0522 7.5 17.4999C7.49991 16.9477 7.05223 16.4999 6.5 16.4999ZM17.5 16.4999C17.2866 16.4999 17.0904 16.5659 16.9287 16.6786C16.668 16.8606 16.5001 17.1609 16.5 17.4999C16.5 18.0522 16.9477 18.4999 17.5 18.4999C18.0523 18.4999 18.5 18.0522 18.5 17.4999C18.4999 16.9477 18.0522 16.4999 17.5 16.4999ZM6.3291 5.41497C6.51431 5.04473 6.96461 4.89416 7.33496 5.07903C7.70527 5.26418 7.85574 5.7145 7.6709 6.08489L6.96387 7.49993H8.25C8.50072 7.49993 8.73491 7.62533 8.87402 7.83391C9.01302 8.04241 9.03859 8.30665 8.94238 8.53801L7.69238 11.538C7.53312 11.9202 7.09418 12.1014 6.71191 11.9423C6.32972 11.783 6.14857 11.3441 6.30762 10.9618L7.125 8.99993H5.75C5.49018 8.99993 5.24899 8.86539 5.1123 8.64446C4.9758 8.42349 4.96309 8.14733 5.0791 7.91497L6.3291 5.41497Z" fill="black"/>
</svg>
