<svg width="24" height="24" viewBox="0 0 24 24" fill="none" xmlns="http://www.w3.org/2000/svg">
<path d="M17.25 5C18.7688 5 20 6.23122 20 7.75V12H18.5V7.75C18.5 7.67152 18.4914 7.59498 18.4775 7.52051L12.4971 12.8115C12.2133 13.0625 11.7867 13.0625 11.5029 12.8115L5.52148 7.52051C5.50767 7.59493 5.5 7.67158 5.5 7.75V16.25C5.5 16.9404 6.05964 17.5 6.75 17.5H13V19H6.75C5.23122 19 4 17.7688 4 16.25V7.75C4 6.23122 5.23122 5 6.75 5H17.25ZM20 17.5H15V16H20V17.5ZM6.6377 6.50586L12 11.248L17.3613 6.50586C17.3246 6.50262 17.2875 6.5 17.25 6.5H6.75C6.71212 6.5 6.67472 6.50256 6.6377 6.50586Z" fill="black"/>
</svg>
