<svg width="24" height="24" viewBox="0 0 24 24" fill="none" xmlns="http://www.w3.org/2000/svg">
<path d="M18 18C18.5523 18 19 18.4477 19 19C19 19.5523 18.5523 20 18 20C17.4477 20 17 19.5523 17 19C17 18.4477 17.4477 18 18 18ZM17.25 5C18.7688 5 20 6.23122 20 7.75V11H18.5V7.75C18.5 7.67152 18.4914 7.59498 18.4775 7.52051L12.4971 12.8115C12.2133 13.0625 11.7867 13.0625 11.5029 12.8115L5.52148 7.52051C5.50767 7.59493 5.5 7.67158 5.5 7.75V16.25C5.5 16.9404 6.05964 17.5 6.75 17.5H13V19H6.75C5.23122 19 4 17.7688 4 16.25V7.75C4 6.23122 5.23122 5 6.75 5H17.25ZM18.75 17H17.25V13H18.75V17ZM6.6377 6.50586L12 11.248L17.3613 6.50586C17.3246 6.50262 17.2875 6.5 17.25 6.5H6.75C6.71212 6.5 6.67472 6.50256 6.6377 6.50586Z" fill="black"/>
</svg>
