<svg width="24" height="24" viewBox="0 0 24 24" fill="none" xmlns="http://www.w3.org/2000/svg">
<path d="M15.25 4C17.8734 4 20 6.12665 20 8.75V15.25C20 17.8734 17.8734 20 15.25 20H8.75C6.12665 20 4 17.8734 4 15.25V8.75C4 6.12665 6.12665 4 8.75 4H15.25ZM8.75 5.5C6.95507 5.5 5.5 6.95508 5.5 8.75V15.25C5.5 17.0449 6.95508 18.5 8.75 18.5H15.25C17.0449 18.5 18.5 17.0449 18.5 15.25V8.75C18.5 6.95507 17.0449 5.5 15.25 5.5H8.75ZM15.5791 12.415C15.7643 12.0447 16.2146 11.8942 16.585 12.0791C16.9553 12.2643 17.1058 12.7146 16.9209 13.085L16.25 12.75C16.9068 13.0784 16.9208 13.0855 16.9209 13.0859L16.9199 13.0869L16.9121 13.1025C16.9078 13.1108 16.9024 13.122 16.8955 13.1348C16.8817 13.1603 16.8624 13.1945 16.8379 13.2363C16.7887 13.3203 16.7168 13.435 16.6221 13.5703C16.4332 13.8401 16.1478 14.1974 15.7549 14.5547C14.9638 15.2739 13.7284 16 12 16C10.2716 16 9.03624 15.2739 8.24512 14.5547C7.85221 14.1974 7.5668 13.8401 7.37793 13.5703C7.28321 13.435 7.21127 13.3203 7.16211 13.2363C7.13759 13.1945 7.11827 13.1603 7.10449 13.1348C7.09759 13.122 7.09216 13.1108 7.08789 13.1025L7.08008 13.0869C7.07991 13.0866 7.07918 13.0854 7.75 12.75L7.0791 13.085C6.89416 12.7146 7.04469 12.2643 7.41504 12.0791C7.78545 11.8942 8.23475 12.0447 8.41992 12.415L8.4248 12.4219C8.43079 12.433 8.44169 12.4523 8.45703 12.4785C8.48793 12.5313 8.53727 12.6121 8.60645 12.7109C8.74565 12.9098 8.96056 13.1777 9.25488 13.4453C9.83877 13.976 10.7286 14.5 12 14.5C13.2714 14.5 14.1612 13.976 14.7451 13.4453C15.0394 13.1777 15.2544 12.9098 15.3936 12.7109C15.4627 12.6121 15.5121 12.5313 15.543 12.4785C15.5583 12.4523 15.5692 12.433 15.5752 12.4219L15.5791 12.415ZM10 9C10.5523 9 11 9.44772 11 10C11 10.5523 10.5523 11 10 11C9.44772 11 9 10.5523 9 10C9 9.44772 9.44772 9 10 9ZM14 9C14.5523 9 15 9.44772 15 10C15 10.5523 14.5523 11 14 11C13.4477 11 13 10.5523 13 10C13 9.44772 13.4477 9 14 9Z" fill="black"/>
</svg>
