<svg width="24" height="24" viewBox="0 0 24 24" fill="none" xmlns="http://www.w3.org/2000/svg">
<path d="M15.25 4C17.8734 4 20 6.12665 20 8.75V15.25C20 17.8734 17.8734 20 15.25 20H8.75C6.12665 20 4 17.8734 4 15.25V8.75C4 6.12665 6.12665 4 8.75 4H15.25ZM8.75 5.5C6.95507 5.5 5.5 6.95508 5.5 8.75V15.25C5.5 17.0449 6.95508 18.5 8.75 18.5H15.25C17.0449 18.5 18.5 17.0449 18.5 15.25V8.75C18.5 6.95507 17.0449 5.5 15.25 5.5H8.75ZM12 12C13.7284 12 14.9638 12.7261 15.7549 13.4453C16.1478 13.8026 16.4332 14.1599 16.6221 14.4297C16.7168 14.565 16.7887 14.6797 16.8379 14.7637C16.8624 14.8055 16.8817 14.8397 16.8955 14.8652C16.9024 14.878 16.9078 14.8892 16.9121 14.8975L16.9199 14.9131C16.9201 14.9134 16.9208 14.9145 16.4922 15.1289L16.9209 14.915C17.1058 15.2854 16.9553 15.7357 16.585 15.9209C16.2376 16.0943 15.8206 15.9725 15.6172 15.6514L15.5811 15.5889L15.5801 15.5879L15.5791 15.5859V15.585C15.5782 15.5832 15.5767 15.5809 15.5752 15.5781C15.5692 15.567 15.5583 15.5477 15.543 15.5215C15.5121 15.4687 15.4627 15.3879 15.3936 15.2891C15.2544 15.0902 15.0394 14.8223 14.7451 14.5547C14.1612 14.024 13.2714 13.5 12 13.5C10.7286 13.5 9.83877 14.024 9.25488 14.5547C8.96056 14.8223 8.74565 15.0902 8.60645 15.2891C8.53727 15.3879 8.48793 15.4687 8.45703 15.5215C8.44169 15.5477 8.43079 15.567 8.4248 15.5781C8.42318 15.5811 8.42085 15.5832 8.41992 15.585C8.23475 15.9553 7.78545 16.1058 7.41504 15.9209C7.04469 15.7357 6.89416 15.2854 7.0791 14.915L7.50781 15.1289C7.08964 14.9197 7.07921 14.9145 7.0791 14.9141L7.08008 14.9131L7.08789 14.8975C7.09216 14.8892 7.09759 14.878 7.10449 14.8652C7.11827 14.8397 7.13759 14.8055 7.16211 14.7637C7.21127 14.6797 7.28321 14.565 7.37793 14.4297C7.5668 14.1599 7.85221 13.8026 8.24512 13.4453C9.03624 12.7261 10.2716 12 12 12ZM10 9C10.5523 9 11 9.44772 11 10C11 10.5523 10.5523 11 10 11C9.44772 11 9 10.5523 9 10C9 9.44772 9.44772 9 10 9ZM14 9C14.5523 9 15 9.44772 15 10C15 10.5523 14.5523 11 14 11C13.4477 11 13 10.5523 13 10C13 9.44772 13.4477 9 14 9Z" fill="black"/>
</svg>
