<svg width="24" height="24" viewBox="0 0 24 24" fill="none" xmlns="http://www.w3.org/2000/svg">
<path d="M15.25 4C17.8734 4 20 6.12665 20 8.75V15.25C20 17.8734 17.8734 20 15.25 20H8.75C6.12665 20 4 17.8734 4 15.25V8.75C4 6.12665 6.12665 4 8.75 4H15.25ZM8.75 5.5C6.95507 5.5 5.5 6.95508 5.5 8.75V15.25C5.5 17.0449 6.95508 18.5 8.75 18.5H15.25C17.0449 18.5 18.5 17.0449 18.5 15.25V8.75C18.5 6.95507 17.0449 5.5 15.25 5.5H8.75ZM15.25 13.5C15.6642 13.5 16 13.8358 16 14.25C16 14.6642 15.6642 15 15.25 15H8.75C8.33579 15 8 14.6642 8 14.25C8 13.8358 8.33579 13.5 8.75 13.5H15.25ZM10 9C10.5523 9 11 9.44772 11 10C11 10.5523 10.5523 11 10 11C9.44772 11 9 10.5523 9 10C9 9.44772 9.44772 9 10 9ZM14 9C14.5523 9 15 9.44772 15 10C15 10.5523 14.5523 11 14 11C13.4477 11 13 10.5523 13 10C13 9.44772 13.4477 9 14 9Z" fill="black"/>
</svg>
