<svg width="24" height="24" viewBox="0 0 24 24" fill="none" xmlns="http://www.w3.org/2000/svg">
<path d="M12 4C16.4183 4 20 7.58172 20 12C20 16.4183 16.4183 20 12 20C7.58172 20 4 16.4183 4 12C4 7.58172 7.58172 4 12 4ZM12 5.5C8.41015 5.5 5.5 8.41015 5.5 12C5.5 15.5899 8.41015 18.5 12 18.5C15.5899 18.5 18.5 15.5899 18.5 12C18.5 8.41015 15.5899 5.5 12 5.5ZM12 13C13.0191 13 13.761 13.513 14.2178 13.9697C14.4482 14.2001 14.6193 14.4285 14.7334 14.5996C14.7909 14.6858 14.8352 14.7592 14.8662 14.8135C14.8817 14.8405 14.8942 14.8628 14.9033 14.8799L14.918 14.9092C14.9185 14.9103 14.9195 14.9112 14.9199 14.9121V14.9131C14.92 14.9133 14.9208 14.9145 14.5527 15.0986L14.9209 14.915C15.1058 15.2854 14.9553 15.7357 14.585 15.9209C14.2378 16.0942 13.8206 15.9732 13.6172 15.6523L13.5811 15.5889V15.5898C13.5811 15.5898 13.5804 15.5883 13.5791 15.5859C13.5764 15.581 13.5712 15.5712 13.5635 15.5576C13.5476 15.5298 13.5216 15.486 13.4854 15.4316C13.4119 15.3215 13.3018 15.1749 13.1572 15.0303C12.864 14.737 12.4809 14.5 12 14.5C11.5191 14.5 11.136 14.737 10.8428 15.0303C10.6982 15.1749 10.5881 15.3215 10.5146 15.4316C10.4784 15.486 10.4524 15.5298 10.4365 15.5576C10.4288 15.5712 10.4236 15.581 10.4209 15.5859C10.4196 15.5883 10.419 15.5898 10.4189 15.5898V15.5889L10.3828 15.6523C10.1794 15.9732 9.76223 16.0942 9.41504 15.9209C9.04469 15.7357 8.89416 15.2854 9.0791 14.915L9.44727 15.0986C9.08567 14.9177 9.0791 14.9143 9.0791 14.9141L9.08008 14.9121C9.08053 14.9112 9.08149 14.9103 9.08203 14.9092L9.09668 14.8799C9.10577 14.8628 9.11832 14.8405 9.13379 14.8135C9.16479 14.7592 9.20914 14.6858 9.2666 14.5996C9.38068 14.4285 9.55182 14.2001 9.78223 13.9697C10.239 13.513 10.9809 13 12 13ZM8.02246 9.56836C8.1229 9.16659 8.52987 8.92215 8.93164 9.02246L10.9316 9.52246C11.2655 9.60593 11.5 9.90585 11.5 10.25V11.25C11.5 11.6642 11.1642 12 10.75 12C10.3358 12 10 11.6642 10 11.25V10.835L8.56836 10.4775C8.16659 10.3771 7.92215 9.97013 8.02246 9.56836ZM15.0684 9.02246C15.4701 8.92215 15.8771 9.16659 15.9775 9.56836C16.0779 9.97013 15.8334 10.3771 15.4316 10.4775L14 10.835V11.25C14 11.6642 13.6642 12 13.25 12C12.8358 12 12.5 11.6642 12.5 11.25V10.25C12.5 9.90585 12.7345 9.60593 13.0684 9.52246L15.0684 9.02246Z" fill="black"/>
</svg>
