<svg width="24" height="24" viewBox="0 0 24 24" fill="none" xmlns="http://www.w3.org/2000/svg">
<path d="M12 4C16.4183 4 20 7.58173 20 12C20 16.4183 16.4183 20 12 20C7.58173 20 4 16.4183 4 12C4 7.58173 7.58173 4 12 4ZM12 5.5C8.41015 5.5 5.5 8.41015 5.5 12C5.5 15.5899 8.41015 18.5 12 18.5C15.5899 18.5 18.5 15.5899 18.5 12C18.5 8.41015 15.5899 5.5 12 5.5ZM13.25 14.5C13.6642 14.5 14 14.8358 14 15.25C14 15.6642 13.6642 16 13.25 16H10.75C10.3358 16 10 15.6642 10 15.25C10 14.8358 10.3358 14.5 10.75 14.5H13.25ZM9.71973 9.21973C10.0126 8.92683 10.4874 8.92683 10.7803 9.21973C11.0732 9.51262 11.0732 9.98738 10.7803 10.2803L10.5605 10.5L10.7803 10.7197C11.0732 11.0126 11.0732 11.4874 10.7803 11.7803C10.4874 12.0732 10.0126 12.0732 9.71973 11.7803L9.5 11.5605L9.28027 11.7803C8.98738 12.0732 8.51262 12.0732 8.21973 11.7803C7.92683 11.4874 7.92683 11.0126 8.21973 10.7197L8.43945 10.5L8.21973 10.2803C7.92683 9.98738 7.92683 9.51262 8.21973 9.21973C8.51262 8.92683 8.98738 8.92683 9.28027 9.21973L9.5 9.43945L9.71973 9.21973ZM14.7197 9.21973C15.0126 8.92683 15.4874 8.92683 15.7803 9.21973C16.0732 9.51262 16.0732 9.98738 15.7803 10.2803L15.5605 10.5L15.582 10.5215C15.5832 10.5226 15.5848 10.5233 15.5859 10.5244C15.5871 10.5256 15.5877 10.5272 15.5889 10.5283L15.6045 10.5439C15.6056 10.5451 15.6073 10.5457 15.6084 10.5469C15.6095 10.548 15.6102 10.5496 15.6113 10.5508L15.623 10.5625C15.6242 10.5636 15.6258 10.5643 15.627 10.5654C15.6281 10.5666 15.6287 10.5682 15.6299 10.5693L15.6816 10.6211C15.6828 10.6222 15.6844 10.6229 15.6855 10.624C15.6867 10.6252 15.6873 10.6268 15.6885 10.6279L15.7139 10.6533C15.715 10.6545 15.7166 10.6551 15.7178 10.6562C15.7189 10.6574 15.7196 10.659 15.7207 10.6602C15.7219 10.6613 15.7234 10.6629 15.7246 10.6641C15.7257 10.6652 15.7274 10.6659 15.7285 10.667C15.7297 10.6681 15.7303 10.6698 15.7314 10.6709L15.7422 10.6816C15.7433 10.6828 15.745 10.6834 15.7461 10.6846C15.7472 10.6857 15.7479 10.6873 15.749 10.6885L15.7734 10.7129C15.7746 10.714 15.7762 10.7147 15.7773 10.7158C15.7785 10.717 15.7791 10.7186 15.7803 10.7197C16.0732 11.0126 16.0732 11.4874 15.7803 11.7803C15.4874 12.0732 15.0126 12.0732 14.7197 11.7803C14.7186 11.7791 14.717 11.7785 14.7158 11.7773C14.7147 11.7762 14.714 11.7746 14.7129 11.7734L14.6885 11.749C14.6873 11.7479 14.6857 11.7472 14.6846 11.7461C14.6834 11.745 14.6828 11.7433 14.6816 11.7422L14.6709 11.7314C14.6698 11.7303 14.6681 11.7297 14.667 11.7285C14.6659 11.7274 14.6652 11.7257 14.6641 11.7246C14.6629 11.7234 14.6613 11.7219 14.6602 11.7207C14.659 11.7196 14.6574 11.7189 14.6562 11.7178C14.6551 11.7166 14.6545 11.715 14.6533 11.7139L14.6279 11.6885C14.6268 11.6873 14.6252 11.6867 14.624 11.6855C14.6229 11.6844 14.6222 11.6828 14.6211 11.6816L14.5693 11.6299C14.5682 11.6287 14.5666 11.6281 14.5654 11.627C14.5643 11.6258 14.5636 11.6242 14.5625 11.623L14.5508 11.6113C14.5496 11.6102 14.548 11.6095 14.5469 11.6084C14.5457 11.6073 14.5451 11.6056 14.5439 11.6045L14.5283 11.5889C14.5272 11.5877 14.5256 11.5871 14.5244 11.5859C14.5233 11.5848 14.5226 11.5832 14.5215 11.582L14.5 11.5605L14.2803 11.7803C13.9874 12.0732 13.5126 12.0732 13.2197 11.7803C12.9268 11.4874 12.9268 11.0126 13.2197 10.7197L13.4395 10.5L13.4365 10.4971C13.4357 10.4963 13.4344 10.4959 13.4336 10.4951C13.4328 10.4943 13.4324 10.493 13.4316 10.4922L13.4238 10.4844C13.423 10.4836 13.4217 10.4832 13.4209 10.4824C13.4201 10.4816 13.4198 10.4803 13.4189 10.4795L13.3994 10.46C13.3986 10.4592 13.3973 10.4588 13.3965 10.458C13.3957 10.4572 13.3953 10.4559 13.3945 10.4551L13.3809 10.4414C13.3801 10.4406 13.3787 10.4402 13.3779 10.4395C13.3772 10.4387 13.3767 10.4373 13.376 10.4365L13.3506 10.4111L13.3477 10.4092L13.3457 10.4062L13.3184 10.3789L13.3164 10.3779L13.3154 10.376L13.2959 10.3564L13.2939 10.3555L13.293 10.3535L13.2568 10.3174L13.2549 10.3164L13.2539 10.3145L13.2363 10.2969H13.2354V10.2959L13.2334 10.2939H13.2324V10.293L13.2266 10.2871H13.2256V10.2861H13.2246V10.2852L13.2197 10.2803C12.9268 9.98738 12.9268 9.51262 13.2197 9.21973C13.5126 8.92683 13.9874 8.92683 14.2803 9.21973H14.2812V9.2207L14.2861 9.22559H14.2871V9.22656L14.293 9.23242H14.2939V9.2334L14.2959 9.23535H14.2969V9.23633L14.3145 9.25391L14.3164 9.25488L14.3174 9.25684L14.3535 9.29297L14.3555 9.29395L14.3564 9.2959L14.376 9.31543L14.3779 9.31641L14.3789 9.31836L14.4062 9.3457L14.4092 9.34766L14.4111 9.35059L14.4189 9.3584C14.4197 9.35911 14.4212 9.35963 14.4219 9.36035L14.4238 9.36328L14.4365 9.37598C14.4373 9.37671 14.4387 9.37719 14.4395 9.37793C14.4402 9.37868 14.4406 9.3801 14.4414 9.38086L14.4551 9.39453C14.4559 9.39531 14.4572 9.3957 14.458 9.39648C14.4588 9.39727 14.4592 9.39862 14.46 9.39941L14.4795 9.41895C14.4803 9.41975 14.4816 9.42009 14.4824 9.4209C14.4832 9.42171 14.4836 9.42301 14.4844 9.42383L14.4922 9.43164C14.493 9.43244 14.4943 9.43279 14.4951 9.43359C14.4959 9.43441 14.4963 9.43571 14.4971 9.43652C14.4979 9.43738 14.4991 9.43859 14.5 9.43945L14.7197 9.21973Z" fill="black"/>
</svg>
