<svg width="24" height="24" viewBox="0 0 24 24" fill="none" xmlns="http://www.w3.org/2000/svg">
<path fill-rule="evenodd" clip-rule="evenodd" d="M19.2499 18.4999C19.6641 18.4999 19.9999 18.8357 19.9999 19.2499C19.9998 19.664 19.664 19.9999 19.2499 19.9999H12.7499C12.3358 19.9999 12 19.664 11.9999 19.2499C11.9999 18.8357 12.3357 18.4999 12.7499 18.4999H19.2499ZM10.7626 5.92663C11.446 5.24321 12.5538 5.24321 13.2372 5.92663L16.0731 8.76256C16.7564 9.44599 16.7565 10.5538 16.0731 11.2372L11.5302 15.7801C11.3895 15.9207 11.1988 15.9999 10.9999 15.9999H6.99991C6.80103 15.9999 6.61028 15.9207 6.46963 15.7801L4.21963 13.5301C3.92676 13.2373 3.92681 12.7625 4.21963 12.4696L10.7626 5.92663ZM12.1767 6.98717C12.079 6.88954 11.9208 6.88954 11.8231 6.98717L5.81045 12.9999L7.31045 14.4999H10.6894L15.0126 10.1766C15.1102 10.079 15.1101 9.92075 15.0126 9.82311L12.1767 6.98717Z" fill="black"/>
</svg>
