<svg width="24" height="24" viewBox="0 0 24 24" fill="none" xmlns="http://www.w3.org/2000/svg">
<path d="M7.25 8C7.66421 8 8 8.33579 8 8.75C8 9.16421 7.66421 9.5 7.25 9.5H5.75C5.61193 9.5 5.5 9.61193 5.5 9.75V11.25H7.25C7.66421 11.25 8 11.5858 8 12C8 12.4142 7.66421 12.75 7.25 12.75H5.5V14.25C5.5 14.3881 5.61193 14.5 5.75 14.5H7.25C7.66421 14.5 8 14.8358 8 15.25C8 15.6642 7.66421 16 7.25 16H5.75C4.7835 16 4 15.2165 4 14.25V9.75C4 8.7835 4.7835 8 5.75 8H7.25ZM13.25 8C13.6642 8 14 8.33579 14 8.75C14 9.16421 13.6642 9.5 13.25 9.5H12.375C11.8918 9.5 11.5 9.89175 11.5 10.375V10.75C11.5 11.0261 11.7239 11.25 12 11.25C13.1046 11.25 14 12.1454 14 13.25V13.625C14 14.9367 12.9367 16 11.625 16H10.75C10.3358 16 10 15.6642 10 15.25C10 14.8358 10.3358 14.5 10.75 14.5H11.625C12.1082 14.5 12.5 14.1082 12.5 13.625V13.25C12.5 12.9739 12.2761 12.75 12 12.75C10.8954 12.75 10 11.8546 10 10.75V10.375C10 9.06332 11.0633 8 12.375 8H13.25ZM19.25 8C19.6642 8 20 8.33579 20 8.75C20 9.16421 19.6642 9.5 19.25 9.5H18.75C18.0596 9.5 17.5 10.0596 17.5 10.75V13.25C17.5 13.9404 18.0596 14.5 18.75 14.5H19.25C19.6642 14.5 20 14.8358 20 15.25C20 15.6642 19.6642 16 19.25 16H18.75C17.2312 16 16 14.7688 16 13.25V10.75C16 9.23122 17.2312 8 18.75 8H19.25Z" fill="black"/>
</svg>
