<svg width="24" height="24" viewBox="0 0 24 24" fill="none" xmlns="http://www.w3.org/2000/svg">
<path fill-rule="evenodd" clip-rule="evenodd" d="M11.5173 4.17571C11.7963 3.94142 12.2033 3.94143 12.4822 4.17571L18.7322 9.42571C19.0261 9.67267 19.0858 10.1017 18.8709 10.4199L12.6209 19.6699C12.4814 19.8762 12.2488 19.9999 11.9998 19.9999C11.7507 19.9999 11.5181 19.8762 11.3787 19.6699L5.12866 10.4199C4.91374 10.1017 4.97341 9.67267 5.26734 9.42571L11.5173 4.17571ZM12.2537 12.956C12.0896 13.015 11.9099 13.015 11.7459 12.956L7.65698 11.4833L11.9998 17.9101L16.3416 11.4833L12.2537 12.956ZM7.23023 9.73528L11.9998 11.4521L16.7683 9.73528L11.9998 5.72845L7.23023 9.73528Z" fill="black"/>
</svg>
