<svg width="24" height="24" viewBox="0 0 24 24" fill="none" xmlns="http://www.w3.org/2000/svg">
<path d="M18 5.5H16C13.4925 5.5 11.3175 6.92038 10.2334 9H12.25C12.6642 9 13 9.33579 13 9.75C13 10.1642 12.6642 10.5 12.25 10.5H9.67578C9.56197 10.9816 9.5 11.4836 9.5 12C9.5 12.5164 9.56197 13.0184 9.67578 13.5H12.25C12.6642 13.5 13 13.8358 13 14.25C13 14.6642 12.6642 15 12.25 15H10.2334C11.3175 17.0796 13.4925 18.5 16 18.5H18V20H16C12.643 20 9.77097 17.9314 8.58398 15H6.75C6.33579 15 6 14.6642 6 14.25C6 13.8358 6.33579 13.5 6.75 13.5H8.1416C8.04941 13.0141 8 12.5128 8 12C8 11.4872 8.04941 10.9859 8.1416 10.5H6.75C6.33579 10.5 6 10.1642 6 9.75C6 9.33579 6.33579 9 6.75 9H8.58398C9.77097 6.06862 12.643 4 16 4H18V5.5Z" fill="black"/>
</svg>
