<svg width="24" height="24" viewBox="0 0 24 24" fill="none" xmlns="http://www.w3.org/2000/svg">
<path d="M17.25 18.5C17.6642 18.5 18 18.8358 18 19.25C18 19.6642 17.6642 20 17.25 20H6.75C6.33579 20 6 19.6642 6 19.25C6 18.8358 6.33579 18.5 6.75 18.5H17.25ZM12 4C12.095 4 12.1879 4.01856 12.2744 4.05273C12.2822 4.0558 12.2902 4.05821 12.2979 4.06152C12.3337 4.07708 12.3673 4.09715 12.4004 4.11816C12.4092 4.12375 12.4182 4.12883 12.4268 4.13477C12.458 4.1565 12.4877 4.18052 12.5156 4.20703C12.5226 4.2137 12.5294 4.2206 12.5361 4.22754C12.5389 4.23034 12.5422 4.23251 12.5449 4.23535L16.7949 8.73535C17.0793 9.03649 17.0658 9.51051 16.7646 9.79492C16.4635 10.0793 15.9895 10.0658 15.7051 9.76465L12.75 6.63477V15.25C12.75 15.6642 12.4142 16 12 16C11.5858 16 11.25 15.6642 11.25 15.25V6.63477L8.29492 9.76465C8.01051 10.0658 7.53649 10.0793 7.23535 9.79492C6.93421 9.51051 6.92067 9.03649 7.20508 8.73535L11.4551 4.23535L11.4629 4.22656C11.4682 4.22112 11.474 4.21622 11.4795 4.21094L11.5107 4.18164C11.5224 4.17159 11.5356 4.16357 11.5479 4.1543C11.5657 4.14073 11.5835 4.12719 11.6025 4.11523C11.6214 4.10344 11.6414 4.09404 11.6611 4.08398C11.6818 4.07342 11.7019 4.06137 11.7236 4.05273C11.7543 4.04058 11.7863 4.03245 11.8184 4.02441C11.8311 4.02123 11.8434 4.01619 11.8564 4.01367C11.8648 4.01203 11.8734 4.01112 11.8818 4.00977C11.9204 4.00367 11.9598 4 12 4Z" fill="black"/>
</svg>
