<svg width="24" height="24" viewBox="0 0 24 24" fill="none" xmlns="http://www.w3.org/2000/svg">
<path d="M16.5 11.25C17.7078 11.25 18.75 12.1914 18.75 13.4287V14H19.25C19.6642 14 20 14.3358 20 14.75V18.25C20 19.2165 19.2165 20 18.25 20H14.75C13.7835 20 13 19.2165 13 18.25V14.75C13 14.3358 13.3358 14 13.75 14H14.25V13.4287C14.25 12.1914 15.2922 11.25 16.5 11.25ZM12 5C15.3599 5 17.4643 6.7944 18.6494 8.5498L18.835 8.78027C19.0942 9.10326 19.0426 9.57566 18.7197 9.83496C18.3967 10.0942 17.9243 10.0426 17.665 9.71973L17.4648 9.46973C17.4512 9.45278 17.4379 9.43506 17.4258 9.41699C16.4434 7.94778 14.7522 6.5 12 6.5C9.52659 6.5 7.91699 7.66681 6.90332 8.96191C6.39156 9.61584 6.03419 10.301 5.80664 10.877C5.56918 11.478 5.5 11.8901 5.5 12C5.5 12.0891 5.54892 12.4104 5.72363 12.9014C5.89042 13.37 6.15231 13.9383 6.52734 14.5127C7.23096 15.5903 8.30838 16.6562 9.87598 17.1738L10.1963 17.2695L10.2393 17.2832L10.4893 17.3672C10.8816 17.4995 11.093 17.925 10.9609 18.3174C10.8286 18.7097 10.4031 18.9211 10.0107 18.7891L9.7793 18.71C7.60122 18.1126 6.15897 16.6922 5.27148 15.333C4.82599 14.6507 4.51337 13.9742 4.31055 13.4043C4.11565 12.8566 4 12.3444 4 12C4 11.61 4.14958 10.9907 4.41211 10.3262C4.68452 9.63663 5.10858 8.82155 5.72168 8.03809C6.95803 6.45831 8.97359 5 12 5ZM14.5 18.25C14.5 18.3881 14.6119 18.5 14.75 18.5H18.25C18.3881 18.5 18.5 18.3881 18.5 18.25V15.5H14.5V18.25ZM12 9C12.8335 9 13.589 9.34059 14.1318 9.88867C14.4232 10.1828 14.4208 10.6577 14.127 10.9492C13.8326 11.2407 13.3569 11.2386 13.0654 10.9443C12.7928 10.6692 12.4169 10.5 12 10.5C11.1716 10.5 10.5 11.1716 10.5 12C10.5 12.409 10.6628 12.7785 10.9287 13.0498C11.2187 13.3456 11.2138 13.8204 10.918 14.1104C10.6222 14.4003 10.1474 14.3954 9.85742 14.0996C9.32788 13.5593 9 12.8172 9 12C9 10.3431 10.3431 9 12 9ZM16.5 12.75C16.0509 12.75 15.75 13.088 15.75 13.4287V14H17.25V13.4287C17.25 13.088 16.9491 12.75 16.5 12.75Z" fill="black"/>
</svg>
