<svg width="24" height="24" viewBox="0 0 24 24" fill="none" xmlns="http://www.w3.org/2000/svg">
<path fill-rule="evenodd" clip-rule="evenodd" d="M15.3057 5.63381C16.1508 4.78873 17.5211 4.78873 18.3662 5.63381C19.2114 6.47896 19.2113 7.84917 18.3662 8.69435L17.0605 10L17.7803 10.7197C18.0732 11.0126 18.0732 11.4874 17.7803 11.7803C17.4874 12.0732 17.0126 12.0732 16.7197 11.7803L16.2412 11.3018L8.52246 18.7881C8.38253 18.9238 8.19492 19 8 19H7.75C6.23122 19 5 17.7688 5 16.25V16C5 15.8051 5.07622 15.6175 5.21191 15.4776L12.6973 7.75783L12.2197 7.28029C11.9268 6.9874 11.9268 6.51264 12.2197 6.21975C12.5126 5.92685 12.9874 5.92685 13.2803 6.21975L14 6.93947L15.3057 5.63381ZM6.50195 16.3008C6.52793 16.9504 7.04878 17.4706 7.69824 17.4971L15.1807 10.2412L13.7578 8.81838L6.50195 16.3008ZM17.3057 6.69435C17.0463 6.43506 16.6256 6.43506 16.3662 6.69435L15.0605 8.00002L16 8.93947L17.3057 7.63381C17.565 7.37441 17.565 6.95372 17.3057 6.69435Z" fill="black"/>
</svg>
