<svg width="24" height="24" viewBox="0 0 24 24" fill="none" xmlns="http://www.w3.org/2000/svg">
<path fill-rule="evenodd" clip-rule="evenodd" d="M18.7197 4.21967C19.0126 3.92678 19.4874 3.92678 19.7803 4.21967C20.0732 4.51256 20.0732 4.98732 19.7803 5.28022L5.28027 19.7802C4.98738 20.0731 4.51262 20.0731 4.21973 19.7802C3.92683 19.4873 3.92683 19.0126 4.21973 18.7197L6.30664 16.6318C5.49989 15.7962 4.9397 14.8683 4.57715 14.0644C4.20207 13.2326 4 12.4513 4 11.9999C4 11.6099 4.14958 10.9907 4.41211 10.3261C4.68452 9.63657 5.10858 8.8215 5.72168 8.03803C6.95803 6.45825 8.97359 4.99994 12 4.99994C13.881 4.99994 15.3835 5.56572 16.5518 6.38666L18.7197 4.21967ZM18.2949 9.32612C18.6668 9.14414 19.1156 9.29818 19.2979 9.66987C19.5364 10.1571 19.7088 10.6163 19.8223 11.0048C19.931 11.3772 20 11.7321 20 11.9999C20 12.39 19.8504 13.0092 19.5879 13.6738C19.3155 14.3633 18.8914 15.1784 18.2783 15.9619C17.042 17.5416 15.0264 18.9999 12 18.9999C11.2044 18.9999 10.473 18.8989 9.80371 18.7177C9.40407 18.6094 9.16817 18.1975 9.27637 17.7978C9.38462 17.398 9.79649 17.1613 10.1963 17.2695C10.734 17.415 11.3329 17.4999 12 17.4999C14.4734 17.4999 16.083 16.3331 17.0967 15.038C17.6084 14.3841 17.9658 13.699 18.1934 13.123C18.4308 12.5219 18.5 12.1099 18.5 11.9999C18.5 11.9423 18.4767 11.7463 18.3828 11.4247C18.2936 11.1194 18.1524 10.7411 17.9512 10.33C17.769 9.958 17.9229 9.50824 18.2949 9.32612ZM12 6.49994C9.52659 6.49994 7.91699 7.66675 6.90332 8.96186C6.39156 9.61578 6.03419 10.3009 5.80664 10.8769C5.56918 11.478 5.5 11.89 5.5 11.9999C5.5 12.1399 5.60394 12.6934 5.94434 13.4482C6.24825 14.1221 6.71412 14.8876 7.36816 15.5703L9.41699 13.5205C8.73881 12.3704 8.89099 10.8668 9.87891 9.87885C10.8668 8.89093 12.3704 8.73876 13.5205 9.41694L15.4717 7.46674C14.5761 6.89341 13.4392 6.49994 12 6.49994ZM12.3857 10.5517C11.886 10.4191 11.3315 10.5474 10.9395 10.9394C10.5475 11.3314 10.4191 11.8859 10.5518 12.3857L12.3857 10.5517Z" fill="black"/>
</svg>
