<svg width="24" height="24" viewBox="0 0 24 24" fill="none" xmlns="http://www.w3.org/2000/svg">
<path d="M12 5C15.0264 5 17.042 6.45831 18.2783 8.03809C18.8914 8.82155 19.3155 9.63663 19.5879 10.3262C19.8504 10.9907 20 11.61 20 12C20 12.39 19.8504 13.0093 19.5879 13.6738C19.3155 14.3634 18.8914 15.1784 18.2783 15.9619C17.042 17.5417 15.0264 19 12 19C8.97359 19 6.95803 17.5417 5.72168 15.9619C5.10858 15.1784 4.68452 14.3634 4.41211 13.6738C4.14958 13.0093 4 12.39 4 12C4 11.61 4.14958 10.9907 4.41211 10.3262C4.68452 9.63663 5.10858 8.82155 5.72168 8.03809C6.95803 6.45831 8.97359 5 12 5ZM12 6.5C9.52659 6.5 7.91699 7.66681 6.90332 8.96191C6.39156 9.61584 6.03419 10.301 5.80664 10.877C5.56918 11.478 5.5 11.8901 5.5 12C5.5 12.1099 5.56918 12.522 5.80664 13.123C6.03419 13.699 6.39156 14.3842 6.90332 15.0381C7.91699 16.3332 9.52659 17.5 12 17.5C14.4734 17.5 16.083 16.3332 17.0967 15.0381C17.6084 14.3842 17.9658 13.699 18.1934 13.123C18.4308 12.522 18.5 12.1099 18.5 12C18.5 11.8901 18.4308 11.478 18.1934 10.877C17.9658 10.301 17.6084 9.61584 17.0967 8.96191C16.083 7.66681 14.4734 6.5 12 6.5ZM12 9C13.6569 9 15 10.3431 15 12C15 13.6569 13.6569 15 12 15C10.3431 15 9 13.6569 9 12C9 10.3431 10.3431 9 12 9ZM12 10.5C11.1716 10.5 10.5 11.1716 10.5 12C10.5 12.8284 11.1716 13.5 12 13.5C12.8284 13.5 13.5 12.8284 13.5 12C13.5 11.1716 12.8284 10.5 12 10.5Z" fill="black"/>
</svg>
