<svg width="24" height="24" viewBox="0 0 24 24" fill="none" xmlns="http://www.w3.org/2000/svg">
<path d="M12 4C16.4183 4 20 7.58172 20 12C20 16.4183 16.4183 20 12 20C7.58172 20 4 16.4183 4 12C4 7.58172 7.58172 4 12 4ZM12 5.5C8.41015 5.5 5.5 8.41015 5.5 12C5.5 15.5899 8.41015 18.5 12 18.5C15.5899 18.5 18.5 15.5899 18.5 12C18.5 8.41015 15.5899 5.5 12 5.5ZM13.502 12C14.8834 12.0002 16 13.1203 16 14.5C16 15.8807 14.8807 17 13.5 17H10.5C9.11929 17 8 15.8807 8 14.5C8 13.1203 9.11657 12.0002 10.498 12H13.502ZM10.498 13.5C9.94682 13.5002 9.5 13.9469 9.5 14.5C9.5 15.0523 9.94772 15.5 10.5 15.5H13.5C14.0523 15.5 14.5 15.0523 14.5 14.5C14.5 13.9469 14.0532 13.5002 13.502 13.5H10.498ZM10 9C10.5523 9 11 9.44772 11 10C11 10.5523 10.5523 11 10 11C9.44772 11 9 10.5523 9 10C9 9.44772 9.44772 9 10 9ZM14 9C14.5523 9 15 9.44772 15 10C15 10.5523 14.5523 11 14 11C13.4477 11 13 10.5523 13 10C13 9.44772 13.4477 9 14 9Z" fill="black"/>
</svg>
