<svg width="24" height="24" viewBox="0 0 24 24" fill="none" xmlns="http://www.w3.org/2000/svg">
<path d="M12 4C16.4183 4 20 7.58172 20 12C20 16.4183 16.4183 20 12 20C7.58172 20 4 16.4183 4 12C4 7.58172 7.58172 4 12 4ZM12 5.5C8.41015 5.5 5.5 8.41015 5.5 12C5.5 15.5899 8.41015 18.5 12 18.5C15.5899 18.5 18.5 15.5899 18.5 12C18.5 8.41015 15.5899 5.5 12 5.5ZM12 11C13.6569 11 15 12.3431 15 14C15 15.6569 13.6569 17 12 17C10.3431 17 9 15.6569 9 14C9 12.3431 10.3431 11 12 11ZM12 12.5C11.1716 12.5 10.5 13.1716 10.5 14C10.5 14.8284 11.1716 15.5 12 15.5C12.8284 15.5 13.5 14.8284 13.5 14C13.5 13.1716 12.8284 12.5 12 12.5ZM10.0127 8.03809C10.4057 7.9071 10.8309 8.11974 10.9619 8.5127C11.0929 8.90565 10.8803 9.33093 10.4873 9.46191L8.9873 9.96191C8.59435 10.0929 8.16907 9.88026 8.03809 9.4873C7.9071 9.09435 8.11974 8.66907 8.5127 8.53809L10.0127 8.03809ZM13.0381 8.5127C13.1691 8.11974 13.5943 7.9071 13.9873 8.03809L15.4873 8.53809C15.8803 8.66907 16.0929 9.09435 15.9619 9.4873C15.8309 9.88026 15.4057 10.0929 15.0127 9.96191L13.5127 9.46191C13.1197 9.33093 12.9071 8.90565 13.0381 8.5127Z" fill="black"/>
</svg>
