<svg width="24" height="24" viewBox="0 0 24 24" fill="none" xmlns="http://www.w3.org/2000/svg">
<path d="M12 4C16.4183 4 20 7.58172 20 12C20 16.4183 16.4183 20 12 20C7.58172 20 4 16.4183 4 12C4 7.58172 7.58172 4 12 4ZM12 5.5C8.41015 5.5 5.5 8.41015 5.5 12C5.5 15.5899 8.41015 18.5 12 18.5C15.5899 18.5 18.5 15.5899 18.5 12C18.5 8.41015 15.5899 5.5 12 5.5ZM14.25 13C14.6642 13 15 13.3358 15 13.75C15 14.1642 14.6642 14.5 14.25 14.5H13.75C13.6119 14.5 13.5 14.6119 13.5 14.75C13.5 14.8881 13.6119 15 13.75 15H14.25C14.6642 15 15 15.3358 15 15.75C15 16.1642 14.6642 16.5 14.25 16.5H13.75C12.7835 16.5 12 15.7165 12 14.75C12 13.7835 12.7835 13 13.75 13H14.25ZM10 9.25C10.3793 9.25001 10.6808 9.34583 10.8975 9.4541C11.0046 9.50766 11.0902 9.56401 11.1533 9.61133C11.1847 9.63491 11.2114 9.65641 11.2324 9.6748C11.2429 9.68397 11.2518 9.69273 11.2598 9.7002C11.2638 9.70395 11.2681 9.70767 11.2715 9.71094L11.2803 9.71973C11.5731 10.0126 11.5731 10.4874 11.2803 10.7803C11.0057 11.0549 10.571 11.0723 10.2764 10.832L10.251 10.8096C10.2474 10.8072 10.239 10.8021 10.2266 10.7959C10.1931 10.7792 10.1199 10.75 10 10.75C9.87961 10.75 9.80574 10.7793 9.77246 10.7959C9.75736 10.8035 9.74881 10.8093 9.74707 10.8105L9.72363 10.832C9.42905 11.0723 8.99433 11.0549 8.71973 10.7803C8.42683 10.4874 8.42683 10.0126 8.71973 9.71973L9 10C8.72173 9.72158 8.71953 9.71897 8.71973 9.71875H8.7207L8.72168 9.71777C8.72241 9.71705 8.72287 9.7156 8.72363 9.71484C8.72505 9.71345 8.72697 9.71244 8.72852 9.71094C8.7319 9.70766 8.73623 9.70395 8.74023 9.7002C8.7482 9.69273 8.7571 9.68398 8.76758 9.6748C8.78862 9.6564 8.81522 9.63494 8.84668 9.61133C8.90977 9.56401 8.99541 9.50767 9.10254 9.4541C9.31922 9.34583 9.62068 9.25 10 9.25ZM13.75 10.8076L13.7236 10.832C13.4291 11.0723 12.9943 11.0549 12.7197 10.7803C12.4268 10.4874 12.4268 10.0126 12.7197 9.71973L13 10C12.7217 9.72158 12.7195 9.71897 12.7197 9.71875H12.7207L12.7217 9.71777C12.7224 9.71705 12.7229 9.7156 12.7236 9.71484C12.725 9.71345 12.727 9.71244 12.7285 9.71094C12.7319 9.70766 12.7362 9.70395 12.7402 9.7002C12.7482 9.69273 12.7571 9.68398 12.7676 9.6748C12.7886 9.6564 12.8152 9.63494 12.8467 9.61133C12.9098 9.56401 12.9954 9.50767 13.1025 9.4541C13.3192 9.34583 13.6207 9.25 14 9.25C14.3793 9.25001 14.6808 9.34583 14.8975 9.4541C15.0046 9.50766 15.0902 9.56401 15.1533 9.61133C15.1847 9.63491 15.2114 9.65641 15.2324 9.6748C15.2429 9.68397 15.2518 9.69273 15.2598 9.7002C15.2638 9.70395 15.2681 9.70767 15.2715 9.71094L15.2803 9.71973C15.5731 10.0126 15.5731 10.4874 15.2803 10.7803C15.0057 11.0549 14.571 11.0723 14.2764 10.832L14.251 10.8096C14.2474 10.8072 14.239 10.8021 14.2266 10.7959C14.1931 10.7792 14.1199 10.75 14 10.75C13.8796 10.75 13.8057 10.7793 13.7725 10.7959C13.7574 10.8035 13.7488 10.8093 13.7471 10.8105C13.7476 10.8102 13.7483 10.8089 13.75 10.8076ZM9.77832 10.7822L9.7793 10.7812H9.78027L9.7793 10.7803L9.77832 10.7822ZM13.7783 10.7822L13.7793 10.7812H13.7803L13.7793 10.7803L13.7783 10.7822ZM13.7656 10.7939C13.7676 10.7921 13.7701 10.7903 13.7725 10.7881L13.7627 10.7969C13.7636 10.7959 13.7646 10.7949 13.7656 10.7939Z" fill="black"/>
</svg>
