<svg width="24" height="24" viewBox="0 0 24 24" fill="none" xmlns="http://www.w3.org/2000/svg">
<path d="M18.7637 9.2793C19.1619 9.16526 19.5774 9.39574 19.6914 9.79395C19.8923 10.4956 20 11.2358 20 12C20 16.4183 16.4183 20 12 20C7.58172 20 4 16.4183 4 12C4 11.2358 4.10768 10.4956 4.30859 9.79395C4.42263 9.39574 4.83812 9.16526 5.23633 9.2793C5.63412 9.39352 5.86379 9.80811 5.75 10.2061C5.5871 10.7749 5.5 11.3768 5.5 12C5.5 15.5899 8.41015 18.5 12 18.5C15.5899 18.5 18.5 15.5899 18.5 12C18.5 11.3768 18.4129 10.7749 18.25 10.2061C18.1362 9.80811 18.3659 9.39352 18.7637 9.2793ZM9.2998 15.1504C9.63107 14.9019 10.101 14.9687 10.3496 15.2998V15.2988L10.3545 15.3047C10.3665 15.3187 10.3887 15.3438 10.4209 15.376C10.4857 15.4407 10.5886 15.5327 10.7285 15.626C11.0055 15.8107 11.4257 16 12 16C12.5743 16 12.9945 15.8107 13.2715 15.626C13.4114 15.5327 13.5143 15.4407 13.5791 15.376C13.6113 15.3438 13.6335 15.3187 13.6455 15.3047C13.6492 15.3004 13.6516 15.297 13.6533 15.2949V15.2959L13.6504 15.2988V15.2998L13.6992 15.2412C13.9569 14.9616 14.3895 14.9174 14.7002 15.1504C15.0107 15.3835 15.089 15.8112 14.8926 16.1367L14.8496 16.2002L14.8486 16.2012V16.2021C14.848 16.203 14.8465 16.2041 14.8457 16.2051C14.8442 16.2071 14.8427 16.2095 14.8408 16.2119C14.837 16.2168 14.8325 16.2228 14.8271 16.2295C14.8162 16.2432 14.8016 16.2609 14.7842 16.2812C14.7493 16.3219 14.7011 16.3751 14.6396 16.4365C14.5169 16.5593 14.3386 16.7173 14.1035 16.874C13.6305 17.1893 12.9257 17.5 12 17.5C11.0743 17.5 10.3695 17.1893 9.89648 16.874C9.66144 16.7173 9.48308 16.5593 9.36035 16.4365C9.29888 16.3751 9.25068 16.3219 9.21582 16.2812C9.19837 16.2609 9.18378 16.2432 9.17285 16.2295C9.16749 16.2228 9.16298 16.2168 9.15918 16.2119C9.15728 16.2095 9.15581 16.2071 9.1543 16.2051C9.15353 16.2041 9.15203 16.203 9.15137 16.2021V16.2012L9.15039 16.2002C8.90194 15.8689 8.9687 15.399 9.2998 15.1504ZM10 11C10.5523 11 11 11.4477 11 12C11 12.5523 10.5523 13 10 13C9.44772 13 9 12.5523 9 12C9 11.4477 9.44772 11 10 11ZM14 11C14.5523 11 15 11.4477 15 12C15 12.5523 14.5523 13 14 13C13.4477 13 13 12.5523 13 12C13 11.4477 13.4477 11 14 11ZM12 4C14.0433 4 15.9179 4.19894 17.3027 4.5332C17.989 4.69886 18.5971 4.90758 19.0518 5.16699C19.4485 5.39343 20 5.81652 20 6.5C20 7.18348 19.4485 7.60657 19.0518 7.83301C18.5971 8.09242 17.989 8.30114 17.3027 8.4668C15.9179 8.80106 14.0433 9 12 9C9.95666 9 8.08207 8.80106 6.69727 8.4668C6.011 8.30114 5.40293 8.09242 4.94824 7.83301C4.55145 7.60657 4 7.18348 4 6.5C4 5.81652 4.55145 5.39343 4.94824 5.16699C5.40293 4.90758 6.011 4.69886 6.69727 4.5332C8.08207 4.19894 9.95666 4 12 4ZM12 5.5C10.0395 5.5 8.28896 5.69216 7.0498 5.99121C6.42444 6.14216 5.97039 6.31054 5.69141 6.46973C5.67366 6.47986 5.65774 6.49074 5.64258 6.5C5.65774 6.50926 5.67366 6.52014 5.69141 6.53027C5.97039 6.68946 6.42444 6.85784 7.0498 7.00879C8.28896 7.30784 10.0395 7.5 12 7.5C13.9605 7.5 15.711 7.30784 16.9502 7.00879C17.5756 6.85784 18.0296 6.68946 18.3086 6.53027C18.3261 6.5203 18.3415 6.50913 18.3564 6.5C18.3415 6.49087 18.3261 6.4797 18.3086 6.46973C18.0296 6.31054 17.5756 6.14216 16.9502 5.99121C15.711 5.69216 13.9605 5.5 12 5.5Z" fill="black"/>
</svg>
