<svg width="24" height="24" viewBox="0 0 24 24" fill="none" xmlns="http://www.w3.org/2000/svg">
<path d="M12 4C16.4183 4 20 7.58172 20 12C20 16.4183 16.4183 20 12 20C7.58172 20 4 16.4183 4 12C4 7.58172 7.58172 4 12 4ZM12 5.5C8.41015 5.5 5.5 8.41015 5.5 12C5.5 15.5899 8.41015 18.5 12 18.5C15.5899 18.5 18.5 15.5899 18.5 12C18.5 8.41015 15.5899 5.5 12 5.5ZM13.5117 13.6182C13.5837 13.2144 13.9674 12.9423 14.373 13.0098C14.7815 13.0778 15.0581 13.4646 14.9902 13.873L14.25 13.75C14.9291 13.8632 14.9848 13.8728 14.9893 13.874V13.877C14.989 13.8784 14.9886 13.8802 14.9883 13.8818C14.9877 13.885 14.9871 13.8887 14.9863 13.8926C14.9848 13.9007 14.9828 13.9108 14.9805 13.9219C14.9758 13.9439 14.9695 13.9721 14.9609 14.0049C14.9438 14.0702 14.9177 14.1561 14.8789 14.2559C14.8015 14.4549 14.67 14.7179 14.4512 14.9805C13.9922 15.5311 13.2162 16 12 16C10.7838 16 10.0078 15.5311 9.54883 14.9805C9.33003 14.7179 9.19851 14.4549 9.12109 14.2559C9.08232 14.1561 9.05618 14.0702 9.03906 14.0049C9.03049 13.9721 9.02419 13.9439 9.01953 13.9219C9.0172 13.9108 9.0152 13.9007 9.01367 13.8926C9.01294 13.8887 9.01228 13.885 9.01172 13.8818C9.01144 13.8802 9.01098 13.8784 9.01074 13.877V13.874C9.01525 13.8728 9.07095 13.8632 9.75 13.75L9.00977 13.873C8.94186 13.4646 9.21848 13.0778 9.62695 13.0098C10.0326 12.9423 10.4163 13.2144 10.4883 13.6182V13.6152L10.4902 13.624C10.4946 13.6406 10.5038 13.6724 10.5195 13.7129C10.5515 13.795 10.6077 13.9073 10.7012 14.0195C10.8672 14.2188 11.2163 14.5 12 14.5C12.7837 14.5 13.1328 14.2188 13.2988 14.0195C13.3923 13.9073 13.4485 13.795 13.4805 13.7129C13.4962 13.6724 13.5054 13.6406 13.5098 13.624L13.5117 13.6152V13.6182ZM10 9C10.5523 9 11 9.44772 11 10C11 10.5523 10.5523 11 10 11C9.44772 11 9 10.5523 9 10C9 9.44772 9.44772 9 10 9ZM14 9C14.5523 9 15 9.44772 15 10C15 10.5523 14.5523 11 14 11C13.4477 11 13 10.5523 13 10C13 9.44772 13.4477 9 14 9Z" fill="black"/>
</svg>
