<svg width="24" height="24" viewBox="0 0 24 24" fill="none" xmlns="http://www.w3.org/2000/svg">
<path d="M12 4C16.4183 4 20 7.58172 20 12C20 16.4183 16.4183 20 12 20C7.58172 20 4 16.4183 4 12C4 7.58172 7.58172 4 12 4ZM12 5.5C8.41015 5.5 5.5 8.41015 5.5 12C5.5 15.5899 8.41015 18.5 12 18.5C15.5899 18.5 18.5 15.5899 18.5 12C18.5 8.41015 15.5899 5.5 12 5.5ZM14.7256 14.2139C14.9972 13.9476 15.432 13.9251 15.7305 14.1738C16.0287 14.4225 16.0848 14.8539 15.8721 15.1689L15.8262 15.2305L15.8223 15.2344L15.7988 15.2617C15.7848 15.2777 15.7661 15.2995 15.7422 15.3252C15.6942 15.3768 15.6259 15.4471 15.5391 15.5293C15.3659 15.6933 15.114 15.9087 14.791 16.124C14.1476 16.553 13.1918 17 12 17C10.8082 17 9.85238 16.553 9.20898 16.124C8.88603 15.9087 8.63412 15.6933 8.46094 15.5293C8.37413 15.4471 8.30578 15.3768 8.25781 15.3252C8.23391 15.2995 8.21521 15.2777 8.20117 15.2617L8.17773 15.2344L8.17383 15.2305C7.90871 14.9123 7.9515 14.439 8.26953 14.1738C8.58697 13.9093 9.05869 13.9515 9.32422 14.2676C9.32491 14.2684 9.3262 14.2703 9.32812 14.2725C9.33338 14.2784 9.34355 14.2888 9.35742 14.3037C9.38557 14.334 9.43079 14.3813 9.49219 14.4395C9.61587 14.5566 9.80168 14.7164 10.041 14.876C10.5226 15.197 11.1918 15.5 12 15.5C12.8082 15.5 13.4774 15.197 13.959 14.876C14.1983 14.7164 14.3841 14.5566 14.5078 14.4395C14.5692 14.3813 14.6144 14.334 14.6426 14.3037C14.6565 14.2888 14.6666 14.2784 14.6719 14.2725C14.6744 14.2695 14.6754 14.267 14.6758 14.2666V14.2676L14.7256 14.2139ZM12 10C13.1046 10 14 10.8954 14 12C14 13.1046 13.1046 14 12 14C10.8954 14 10 13.1046 10 12C10 10.8954 10.8954 10 12 10ZM12 11.5C11.7239 11.5 11.5 11.7239 11.5 12C11.5 12.2761 11.7239 12.5 12 12.5C12.2761 12.5 12.5 12.2761 12.5 12C12.5 11.7239 12.2761 11.5 12 11.5ZM9 8C9.55228 8 10 8.44772 10 9C10 9.55228 9.55228 10 9 10C8.44772 10 8 9.55228 8 9C8 8.44772 8.44772 8 9 8ZM15 8C15.5523 8 16 8.44772 16 9C16 9.55228 15.5523 10 15 10C14.4477 10 14 9.55228 14 9C14 8.44772 14.4477 8 15 8Z" fill="black"/>
</svg>
