<svg width="24" height="24" viewBox="0 0 24 24" fill="none" xmlns="http://www.w3.org/2000/svg">
<path d="M12 4C15.6539 4 18.7336 6.44938 19.6914 9.79395C19.8052 10.192 19.5748 10.6067 19.1768 10.7207C18.7786 10.8346 18.364 10.6042 18.25 10.2061C17.4714 7.48797 14.9667 5.5 12 5.5C8.41015 5.5 5.5 8.41015 5.5 12C5.5 15.5899 8.41015 18.5 12 18.5C13.1392 18.5 14.2082 18.2077 15.1377 17.6943C15.5003 17.4942 15.956 17.6258 16.1562 17.9883C16.3565 18.3509 16.2249 18.8066 15.8623 19.0068C14.7165 19.6397 13.3993 20 12 20C7.58172 20 4 16.4183 4 12C4 7.58172 7.58172 4 12 4ZM18 12C18.2276 12 18.4426 12.1036 18.585 12.2812H18.5859L18.5869 12.2832C18.5878 12.2843 18.5894 12.2853 18.5908 12.2871C18.5937 12.2908 18.5974 12.2962 18.6025 12.3027C18.6128 12.3158 18.6272 12.3348 18.6455 12.3584C18.6822 12.4056 18.7342 12.473 18.7959 12.5557C18.919 12.7206 19.085 12.9507 19.252 13.2051C19.4171 13.4567 19.5933 13.7465 19.7305 14.0312C19.8546 14.2891 20 14.647 20 15C20 16.1046 19.1046 17 18 17C16.8954 17 16 16.1046 16 15C16 14.647 16.1454 14.2891 16.2695 14.0312C16.4067 13.7465 16.5829 13.4567 16.748 13.2051C16.915 12.9507 17.081 12.7206 17.2041 12.5557C17.2658 12.473 17.3178 12.4056 17.3545 12.3584C17.3728 12.3348 17.3872 12.3158 17.3975 12.3027C17.4026 12.2962 17.4063 12.2908 17.4092 12.2871C17.4106 12.2853 17.4122 12.2843 17.4131 12.2832L17.4141 12.2812H17.415C17.5574 12.1036 17.7724 12 18 12ZM18 14.0303C17.8535 14.2538 17.7178 14.4818 17.6211 14.6826C17.5109 14.9114 17.5 15.0078 17.5 15C17.5 15.2761 17.7239 15.5 18 15.5C18.2761 15.5 18.5 15.2761 18.5 15C18.5 15.0078 18.4891 14.9114 18.3789 14.6826C18.2822 14.4818 18.1465 14.2538 18 14.0303ZM12 13C12.9257 13 13.6305 13.3107 14.1035 13.626C14.3386 13.7827 14.5169 13.9407 14.6396 14.0635C14.7011 14.1249 14.7493 14.1781 14.7842 14.2188C14.8016 14.2391 14.8162 14.2568 14.8271 14.2705C14.8325 14.2772 14.837 14.2832 14.8408 14.2881C14.8427 14.2905 14.8442 14.2929 14.8457 14.2949C14.8465 14.2959 14.848 14.297 14.8486 14.2979V14.2988L14.8496 14.2998L14.8926 14.3633C15.089 14.6888 15.0107 15.1165 14.7002 15.3496C14.3895 15.5826 13.9569 15.5384 13.6992 15.2588L13.6504 15.2002V15.2012C13.649 15.1995 13.6474 15.1975 13.6455 15.1953C13.6335 15.1813 13.6113 15.1562 13.5791 15.124C13.5143 15.0593 13.4114 14.9673 13.2715 14.874C12.9945 14.6893 12.5743 14.5 12 14.5C11.4257 14.5 11.0055 14.6893 10.7285 14.874C10.5886 14.9673 10.4857 15.0593 10.4209 15.124C10.3887 15.1562 10.3665 15.1813 10.3545 15.1953C10.3526 15.1975 10.351 15.1995 10.3496 15.2012V15.2002C10.101 15.5313 9.63107 15.5981 9.2998 15.3496C8.9687 15.101 8.90194 14.6311 9.15039 14.2998L9.15137 14.2988V14.2979C9.15203 14.297 9.15353 14.2959 9.1543 14.2949C9.15581 14.2929 9.15728 14.2905 9.15918 14.2881C9.16298 14.2832 9.16749 14.2772 9.17285 14.2705C9.18378 14.2568 9.19837 14.2391 9.21582 14.2188C9.25068 14.1781 9.29888 14.1249 9.36035 14.0635C9.48308 13.9407 9.66144 13.7827 9.89648 13.626C10.3695 13.3107 11.0743 13 12 13ZM10 9C10.5523 9 11 9.44772 11 10C11 10.5523 10.5523 11 10 11C9.44772 11 9 10.5523 9 10C9 9.44772 9.44772 9 10 9ZM14 9C14.5523 9 15 9.44772 15 10C15 10.5523 14.5523 11 14 11C13.4477 11 13 10.5523 13 10C13 9.44772 13.4477 9 14 9Z" fill="black"/>
</svg>
