<svg width="24" height="24" viewBox="0 0 24 24" fill="none" xmlns="http://www.w3.org/2000/svg">
<path d="M12 4C16.4183 4 20 7.58172 20 12C20 16.4183 16.4183 20 12 20C7.58172 20 4 16.4183 4 12C4 7.58172 7.58172 4 12 4ZM12 5.5C8.41015 5.5 5.5 8.41015 5.5 12C5.5 15.5899 8.41015 18.5 12 18.5C15.5899 18.5 18.5 15.5899 18.5 12C18.5 8.41015 15.5899 5.5 12 5.5ZM12 13C12.9257 13 13.6305 13.3107 14.1035 13.626C14.3386 13.7827 14.5169 13.9407 14.6396 14.0635C14.7011 14.1249 14.7493 14.1781 14.7842 14.2188C14.8016 14.2391 14.8162 14.2568 14.8271 14.2705C14.8325 14.2772 14.837 14.2832 14.8408 14.2881C14.8427 14.2905 14.8442 14.2929 14.8457 14.2949C14.8465 14.2959 14.848 14.297 14.8486 14.2979V14.2988L14.8496 14.2998L14.8926 14.3633C15.089 14.6888 15.0107 15.1165 14.7002 15.3496C14.3895 15.5826 13.9569 15.5384 13.6992 15.2588L13.6504 15.2002V15.2012C13.649 15.1995 13.6474 15.1975 13.6455 15.1953C13.6335 15.1813 13.6113 15.1562 13.5791 15.124C13.5143 15.0593 13.4114 14.9673 13.2715 14.874C12.9945 14.6893 12.5743 14.5 12 14.5C11.4257 14.5 11.0055 14.6893 10.7285 14.874C10.5886 14.9673 10.4857 15.0593 10.4209 15.124C10.3887 15.1562 10.3665 15.1813 10.3545 15.1953C10.3526 15.1975 10.351 15.1995 10.3496 15.2012V15.2002C10.101 15.5313 9.63107 15.5981 9.2998 15.3496C8.9687 15.101 8.90194 14.6311 9.15039 14.2998L9.15137 14.2988V14.2979C9.15203 14.297 9.15353 14.2959 9.1543 14.2949C9.15581 14.2929 9.15728 14.2905 9.15918 14.2881C9.16298 14.2832 9.16749 14.2772 9.17285 14.2705C9.18378 14.2568 9.19836 14.2391 9.21582 14.2188C9.25068 14.1781 9.29888 14.1249 9.36035 14.0635C9.48308 13.9407 9.66144 13.7827 9.89648 13.626C10.3695 13.3107 11.0743 13 12 13ZM9.71973 9.21973C10.0126 8.92683 10.4874 8.92683 10.7803 9.21973C11.0732 9.51262 11.0732 9.98738 10.7803 10.2803L9.28027 11.7803C8.98738 12.0732 8.51262 12.0732 8.21973 11.7803C7.92683 11.4874 7.92683 11.0126 8.21973 10.7197L9.71973 9.21973ZM13.2197 9.21973C13.5126 8.92683 13.9874 8.92683 14.2803 9.21973L15.7803 10.7197C16.0732 11.0126 16.0732 11.4874 15.7803 11.7803C15.4874 12.0732 15.0126 12.0732 14.7197 11.7803L13.2197 10.2803C12.9268 9.98738 12.9268 9.51262 13.2197 9.21973Z" fill="black"/>
</svg>
