<svg width="24" height="24" viewBox="0 0 24 24" fill="none" xmlns="http://www.w3.org/2000/svg">
<path d="M12 4C16.4183 4 20 7.58172 20 12C20 16.4183 16.4183 20 12 20C7.58172 20 4 16.4183 4 12C4 7.58172 7.58172 4 12 4ZM12 5.5C8.41015 5.5 5.5 8.41015 5.5 12C5.5 15.5899 8.41015 18.5 12 18.5C15.5899 18.5 18.5 15.5899 18.5 12C18.5 8.41015 15.5899 5.5 12 5.5ZM15.25 13C15.6642 13 16 13.3358 16 13.75H15.25C15.9741 13.75 15.9991 13.7504 16 13.751V13.7734C15.9998 13.7837 15.9988 13.7969 15.998 13.8115C15.9966 13.8407 15.9939 13.8787 15.9893 13.9238C15.9799 14.014 15.9629 14.1354 15.9287 14.2773C15.8606 14.5602 15.7248 14.937 15.4521 15.3145C14.8795 16.1074 13.8188 16.75 12 16.75C10.1812 16.75 9.12053 16.1074 8.54785 15.3145C8.27525 14.937 8.1394 14.5602 8.07129 14.2773C8.03712 14.1354 8.02006 14.014 8.01074 13.9238C8.00609 13.8787 8.00336 13.8407 8.00195 13.8115C8.00125 13.7969 8.00024 13.7837 8 13.7734V13.751C8.00087 13.7504 8.02597 13.75 8.75 13.75H8C8 13.3358 8.33579 13 8.75 13H15.25ZM9.81641 14.5C10.082 14.8263 10.6607 15.25 12 15.25C13.3393 15.25 13.918 14.8263 14.1836 14.5H9.81641ZM10 9C10.5523 9 11 9.44772 11 10C11 10.5523 10.5523 11 10 11C9.44772 11 9 10.5523 9 10C9 9.44772 9.44772 9 10 9ZM14 9C14.5523 9 15 9.44772 15 10C15 10.5523 14.5523 11 14 11C13.4477 11 13 10.5523 13 10C13 9.44772 13.4477 9 14 9Z" fill="black"/>
</svg>
