<svg width="24" height="24" viewBox="0 0 24 24" fill="none" xmlns="http://www.w3.org/2000/svg">
<path d="M12 4C12.4142 4 12.7499 4.33585 12.75 4.75C12.75 5.16421 12.4142 5.5 12 5.5C8.41019 5.5 5.50007 8.41021 5.5 12C5.5 15.5899 8.41015 18.5 12 18.5C15.5899 18.5 18.5 15.5899 18.5 12C18.5001 11.5858 18.8358 11.25 19.25 11.25C19.6642 11.25 19.9999 11.5858 20 12C20 16.4183 16.4183 20 12 20C7.58172 20 4 16.4183 4 12C4.00007 7.58178 7.58177 4 12 4ZM10.3496 14.2988L10.3545 14.3047C10.3665 14.3187 10.3887 14.3438 10.4209 14.376C10.4857 14.4407 10.5886 14.5327 10.7285 14.626C11.0055 14.8107 11.4257 15 12 15C12.5743 15 12.9945 14.8107 13.2715 14.626C13.4114 14.5327 13.5143 14.4407 13.5791 14.376C13.6113 14.3438 13.6335 14.3187 13.6455 14.3047C13.6495 14.3 13.6517 14.2959 13.6533 14.2939V14.2959L13.6504 14.2988V14.2998L13.6992 14.2412C13.9568 13.9617 14.3895 13.9175 14.7002 14.1504C15.0107 14.3835 15.089 14.8112 14.8926 15.1367L14.8496 15.2002L14.8486 15.2012V15.2021C14.848 15.203 14.8465 15.2041 14.8457 15.2051C14.8442 15.207 14.8427 15.2095 14.8408 15.2119C14.837 15.2168 14.8325 15.2228 14.8271 15.2295C14.8162 15.2431 14.8016 15.2609 14.7842 15.2812C14.7493 15.3219 14.7011 15.3751 14.6396 15.4365C14.5169 15.5592 14.3385 15.7173 14.1035 15.874C13.6305 16.1893 12.9257 16.5 12 16.5C11.0743 16.5 10.3695 16.1893 9.89648 15.874C9.66147 15.7173 9.48307 15.5592 9.36035 15.4365C9.29891 15.3751 9.25067 15.3219 9.21582 15.2812C9.19839 15.2609 9.18377 15.2431 9.17285 15.2295C9.16751 15.2228 9.16296 15.2168 9.15918 15.2119C9.15731 15.2095 9.15579 15.207 9.1543 15.2051C9.15352 15.2041 9.15201 15.203 9.15137 15.2021V15.2012L9.15039 15.2002C8.90202 14.8689 8.96873 14.399 9.2998 14.1504C9.63104 13.902 10.101 13.9688 10.3496 14.2998V14.2988ZM10 10C10.5522 10 10.9999 10.4478 11 11C11 11.5523 10.5523 12 10 12C9.44772 12 9 11.5523 9 11C9.00007 10.4478 9.44776 10 10 10ZM14 10C14.5522 10 14.9999 10.4478 15 11C15 11.5523 14.5523 12 14 12C13.4477 12 13 11.5523 13 11C13.0001 10.4478 13.4478 10 14 10ZM18.9551 4.06055C19.3042 3.91075 19.7167 4.04661 19.9053 4.38574C20.1064 4.74776 19.9762 5.20405 19.6143 5.40527C19.6122 5.40645 19.6076 5.40958 19.6016 5.41309C19.5895 5.42011 19.5699 5.43139 19.5439 5.44727C19.4908 5.47983 19.4104 5.53128 19.3105 5.59961C19.1101 5.73679 18.8324 5.94212 18.5342 6.21191C17.93 6.75852 17.2808 7.53066 16.9619 8.4873C16.8797 8.73389 16.6748 8.91976 16.4219 8.97949C16.169 9.03907 15.9034 8.964 15.7197 8.78027L14.2197 7.28027C13.9269 6.98737 13.9269 6.5126 14.2197 6.21973C14.5126 5.92692 14.9874 5.92692 15.2803 6.21973L16.0137 6.95312C16.4576 6.17276 17.0285 5.55279 17.5283 5.10059C17.8862 4.7768 18.2181 4.5288 18.4629 4.36133C18.5853 4.27759 18.687 4.21349 18.7598 4.16895C18.796 4.14673 18.8255 4.12856 18.8467 4.11621C18.8573 4.11004 18.8666 4.10524 18.873 4.10156C18.8762 4.09979 18.8788 4.09786 18.8809 4.09668C18.8818 4.09615 18.883 4.09612 18.8838 4.0957L18.8848 4.09473H18.8857L18.9551 4.06055Z" fill="black"/>
</svg>
