<svg width="24" height="24" viewBox="0 0 24 24" fill="none" xmlns="http://www.w3.org/2000/svg">
<path d="M12 4C16.4183 4 20 7.58172 20 12C20 16.4183 16.4183 20 12 20C7.58172 20 4 16.4183 4 12C4 7.58172 7.58172 4 12 4ZM12 5.5C8.41015 5.5 5.5 8.41015 5.5 12C5.5 15.5899 8.41015 18.5 12 18.5C15.5899 18.5 18.5 15.5899 18.5 12C18.5 8.41015 15.5899 5.5 12 5.5ZM12 13C13.2162 13 13.9922 13.4689 14.4512 14.0195C14.67 14.2821 14.8015 14.5451 14.8789 14.7441C14.9177 14.8439 14.9438 14.9298 14.9609 14.9951C14.9695 15.0279 14.9758 15.0561 14.9805 15.0781C14.9828 15.0892 14.9848 15.0993 14.9863 15.1074C14.9871 15.1113 14.9877 15.115 14.9883 15.1182C14.9886 15.1198 14.989 15.1216 14.9893 15.123V15.126C14.9848 15.1272 14.9291 15.1368 14.25 15.25L14.9902 15.127C15.0581 15.5354 14.7815 15.9222 14.373 15.9902C13.9928 16.0534 13.6313 15.8184 13.5283 15.4561L13.5117 15.3838C13.5112 15.3818 13.5106 15.3792 13.5098 15.376C13.5054 15.3594 13.4962 15.3276 13.4805 15.2871C13.4485 15.205 13.3923 15.0927 13.2988 14.9805C13.1328 14.7812 12.7837 14.5 12 14.5C11.2163 14.5 10.8672 14.7812 10.7012 14.9805C10.6077 15.0927 10.5515 15.205 10.5195 15.2871C10.5038 15.3276 10.4946 15.3594 10.4902 15.376C10.4894 15.3792 10.4888 15.3818 10.4883 15.3838C10.4885 15.3827 10.488 15.3813 10.4883 15.3799L10.4717 15.4521C10.3702 15.8166 10.0085 16.0537 9.62695 15.9902C9.21848 15.9222 8.94186 15.5354 9.00977 15.127L9.75 15.25C9.07095 15.1368 9.01525 15.1272 9.01074 15.126V15.123C9.01098 15.1216 9.01144 15.1198 9.01172 15.1182C9.01228 15.115 9.01294 15.1113 9.01367 15.1074C9.0152 15.0993 9.0172 15.0892 9.01953 15.0781C9.02419 15.0561 9.03049 15.0279 9.03906 14.9951C9.05618 14.9298 9.08232 14.8439 9.12109 14.7441C9.19851 14.5451 9.33003 14.2821 9.54883 14.0195C10.0078 13.4689 10.7838 13 12 13ZM10 9C10.5523 9 11 9.44772 11 10C11 10.5523 10.5523 11 10 11C9.44772 11 9 10.5523 9 10C9 9.44772 9.44772 9 10 9ZM14 9C14.5523 9 15 9.44772 15 10C15 10.5523 14.5523 11 14 11C13.4477 11 13 10.5523 13 10C13 9.44772 13.4477 9 14 9Z" fill="black"/>
</svg>
