<svg width="24" height="24" viewBox="0 0 24 24" fill="none" xmlns="http://www.w3.org/2000/svg">
<path d="M5.5 15.25C5.5 17.0449 6.95507 18.5 8.75 18.5H10V20H8.75C6.12665 20 4 17.8734 4 15.25V14H5.5V15.25ZM20 15.25C20 17.8734 17.8734 20 15.25 20H14V18.5H15.25C17.0449 18.5 18.5 17.0449 18.5 15.25V14H20V15.25ZM15.3242 12.0039C15.7362 12.0451 16.0371 12.4122 15.9961 12.8242L15.25 12.75C15.9512 12.8201 15.9936 12.8245 15.9961 12.8252V12.8281C15.996 12.8295 15.9953 12.8314 15.9951 12.833C15.9947 12.8365 15.9947 12.8411 15.9941 12.8457C15.993 12.8553 15.9912 12.8676 15.9893 12.8818C15.9853 12.9104 15.9792 12.9484 15.9707 12.9941C15.9537 13.0855 15.9267 13.2102 15.8828 13.3564C15.7957 13.6468 15.6396 14.0363 15.3643 14.4297C14.7893 15.2511 13.7497 16 12 16C10.2503 16 9.2107 15.2511 8.63574 14.4297C8.36039 14.0363 8.20431 13.6468 8.11719 13.3564C8.07332 13.2102 8.04626 13.0855 8.0293 12.9941C8.02081 12.9484 8.01475 12.9104 8.01074 12.8818C8.00875 12.8676 8.007 12.8553 8.00586 12.8457C8.00531 12.8411 8.00526 12.8365 8.00488 12.833C8.00471 12.8314 8.00405 12.8295 8.00391 12.8281V12.8252C8.00642 12.8245 8.04879 12.8201 8.75 12.75L8.00391 12.8242C7.96292 12.4122 8.26375 12.0451 8.67578 12.0039C9.0853 11.9632 9.45026 12.2598 9.49512 12.668C9.49513 12.668 9.49598 12.6689 9.49609 12.6699V12.6738C9.49721 12.6818 9.49971 12.6981 9.50391 12.7207C9.51233 12.766 9.52831 12.8369 9.55469 12.9248C9.60818 13.1031 9.70225 13.3389 9.86426 13.5703C10.1643 13.9989 10.7499 14.5 12 14.5C13.2501 14.5 13.8357 13.9989 14.1357 13.5703C14.2978 13.3389 14.3918 13.1031 14.4453 12.9248C14.4717 12.8369 14.4877 12.766 14.4961 12.7207C14.5003 12.6981 14.5028 12.6818 14.5039 12.6738V12.6699C14.504 12.6689 14.5049 12.668 14.5049 12.668C14.5497 12.2598 14.9147 11.9632 15.3242 12.0039ZM10 9C10.5523 9 11 9.44772 11 10C11 10.5523 10.5523 11 10 11C9.44772 11 9 10.5523 9 10C9 9.44772 9.44772 9 10 9ZM14 9C14.5523 9 15 9.44772 15 10C15 10.5523 14.5523 11 14 11C13.4477 11 13 10.5523 13 10C13 9.44772 13.4477 9 14 9ZM10 5.5H8.75C6.95507 5.5 5.5 6.95507 5.5 8.75V10H4V8.75C4 6.12665 6.12665 4 8.75 4H10V5.5ZM15.25 4C17.8734 4 20 6.12665 20 8.75V10H18.5V8.75C18.5 6.95507 17.0449 5.5 15.25 5.5H14V4H15.25Z" fill="black"/>
</svg>
