<svg width="24" height="24" viewBox="0 0 24 24" fill="none" xmlns="http://www.w3.org/2000/svg">
<path d="M5.5 15.25C5.5 17.0449 6.95507 18.5 8.75 18.5H10V20H8.75C6.12665 20 4 17.8734 4 15.25V14H5.5V15.25ZM20 15.25C20 17.8734 17.8734 20 15.25 20H14V18.5H15.25C17.0449 18.5 18.5 17.0449 18.5 15.25V14H20V15.25ZM12 13C13.624 13 14.6282 13.4078 15.2383 13.9307C15.5395 14.1889 15.7241 14.4589 15.835 14.6807C15.8899 14.7906 15.9265 14.8874 15.9502 14.9639C15.962 15.0019 15.9702 15.0352 15.9766 15.0625C15.9798 15.0762 15.9822 15.0889 15.9844 15.0996C15.9854 15.1049 15.9865 15.1098 15.9873 15.1143C15.9877 15.1165 15.9889 15.119 15.9893 15.1211V15.125C15.9894 15.1257 15.9898 15.1267 15.25 15.25L15.9902 15.127C16.0581 15.5354 15.7815 15.9222 15.373 15.9902C14.9655 16.058 14.5801 15.783 14.5107 15.376V15.3789C14.511 15.3806 14.5114 15.3823 14.5117 15.3838C14.5122 15.3867 14.5132 15.3892 14.5137 15.3916C14.5146 15.3964 14.515 15.4006 14.5156 15.4033C14.5169 15.4087 14.5174 15.41 14.5166 15.4072C14.5148 15.4015 14.5083 15.3808 14.4932 15.3506C14.4634 15.2911 14.3976 15.1858 14.2617 15.0693C13.9967 14.8422 13.3757 14.5 12 14.5C10.6243 14.5 10.0033 14.8422 9.73828 15.0693C9.60241 15.1858 9.53665 15.2911 9.50684 15.3506C9.49171 15.3808 9.48518 15.4015 9.4834 15.4072C9.48255 15.41 9.48311 15.4087 9.48438 15.4033C9.485 15.4006 9.48537 15.3964 9.48633 15.3916C9.4868 15.3892 9.48775 15.3867 9.48828 15.3838C9.48856 15.3823 9.48897 15.3806 9.48926 15.3789V15.376C9.41993 15.783 9.03452 16.058 8.62695 15.9902C8.21848 15.9222 7.94186 15.5354 8.00977 15.127L8.75 15.25C8.0102 15.1267 8.01062 15.1257 8.01074 15.125V15.1211C8.01111 15.119 8.01228 15.1165 8.0127 15.1143C8.01352 15.1098 8.01458 15.1049 8.01562 15.0996C8.01775 15.0889 8.02024 15.0762 8.02344 15.0625C8.02981 15.0352 8.03802 15.0019 8.0498 14.9639C8.07347 14.8874 8.11012 14.7906 8.16504 14.6807C8.27592 14.4589 8.46048 14.1889 8.76172 13.9307C9.37178 13.4078 10.376 13 12 13ZM10 9C10.5523 9 11 9.44772 11 10C11 10.5523 10.5523 11 10 11C9.44772 11 9 10.5523 9 10C9 9.44772 9.44772 9 10 9ZM14 9C14.5523 9 15 9.44772 15 10C15 10.5523 14.5523 11 14 11C13.4477 11 13 10.5523 13 10C13 9.44772 13.4477 9 14 9ZM10 5.5H8.75C6.95507 5.5 5.5 6.95507 5.5 8.75V10H4V8.75C4 6.12665 6.12665 4 8.75 4H10V5.5ZM15.25 4C17.8734 4 20 6.12665 20 8.75V10H18.5V8.75C18.5 6.95507 17.0449 5.5 15.25 5.5H14V4H15.25Z" fill="black"/>
</svg>
