<svg width="24" height="24" viewBox="0 0 24 24" fill="none" xmlns="http://www.w3.org/2000/svg">
<path d="M12 4C12.4142 4 12.75 4.33579 12.75 4.75C12.75 5.16421 12.4142 5.5 12 5.5C8.41015 5.5 5.5 8.41015 5.5 12C5.5 15.5899 8.41015 18.5 12 18.5C15.5899 18.5 18.5 15.5899 18.5 12C18.5 11.5858 18.8358 11.25 19.25 11.25C19.6642 11.25 20 11.5858 20 12C20 16.4183 16.4183 20 12 20C7.58172 20 4 16.4183 4 12C4 7.58172 7.58172 4 12 4ZM9.2998 14.1504C9.63107 13.9019 10.101 13.9687 10.3496 14.2998V14.2988L10.3545 14.3047C10.3665 14.3187 10.3887 14.3438 10.4209 14.376C10.4857 14.4407 10.5886 14.5327 10.7285 14.626C11.0055 14.8107 11.4257 15 12 15C12.5743 15 12.9945 14.8107 13.2715 14.626C13.4114 14.5327 13.5143 14.4407 13.5791 14.376C13.6113 14.3438 13.6335 14.3187 13.6455 14.3047C13.6492 14.3004 13.6516 14.297 13.6533 14.2949V14.2959L13.6504 14.2988V14.2998L13.6992 14.2412C13.9569 13.9616 14.3895 13.9174 14.7002 14.1504C15.0107 14.3835 15.089 14.8112 14.8926 15.1367L14.8496 15.2002L14.8486 15.2012V15.2021C14.848 15.203 14.8465 15.2041 14.8457 15.2051C14.8442 15.2071 14.8427 15.2095 14.8408 15.2119C14.837 15.2168 14.8325 15.2228 14.8271 15.2295C14.8162 15.2432 14.8016 15.2609 14.7842 15.2812C14.7493 15.3219 14.7011 15.3751 14.6396 15.4365C14.5169 15.5593 14.3386 15.7173 14.1035 15.874C13.6305 16.1893 12.9257 16.5 12 16.5C11.0743 16.5 10.3695 16.1893 9.89648 15.874C9.66144 15.7173 9.48308 15.5593 9.36035 15.4365C9.29888 15.3751 9.25068 15.3219 9.21582 15.2812C9.19837 15.2609 9.18378 15.2432 9.17285 15.2295C9.16749 15.2228 9.16298 15.2168 9.15918 15.2119C9.15728 15.2095 9.15581 15.2071 9.1543 15.2051C9.15353 15.2041 9.15203 15.203 9.15137 15.2021V15.2012L9.15039 15.2002C8.90194 14.8689 8.9687 14.399 9.2998 14.1504ZM10 10C10.5523 10 11 10.4477 11 11C11 11.5523 10.5523 12 10 12C9.44772 12 9 11.5523 9 11C9 10.4477 9.44772 10 10 10ZM14 10C14.5523 10 15 10.4477 15 11C15 11.5523 14.5523 12 14 12C13.4477 12 13 11.5523 13 11C13 10.4477 13.4477 10 14 10ZM17 5.38672C17.7379 4.8182 18.7916 4.87833 19.46 5.57129C20.1795 6.31743 20.1795 7.51655 19.46 8.2627L18.335 9.42871C17.6007 10.19 16.3993 10.19 15.665 9.42871L14.54 8.2627C13.8205 7.51655 13.8205 6.31743 14.54 5.57129C15.2084 4.87833 16.2621 4.8182 17 5.38672ZM18.3809 6.6123C18.2365 6.46256 18.0135 6.46256 17.8691 6.6123L17.54 6.9541C17.3987 7.10069 17.2036 7.18359 17 7.18359C16.7964 7.18359 16.6013 7.10069 16.46 6.9541L16.1309 6.6123C15.9865 6.46256 15.7635 6.46256 15.6191 6.6123C15.4602 6.7773 15.4603 7.05563 15.6191 7.2207L16.7441 8.3877C16.8885 8.53744 17.1115 8.53744 17.2559 8.3877L18.3809 7.2207C18.5397 7.05563 18.5398 6.7773 18.3809 6.6123Z" fill="black"/>
</svg>
