<svg width="24" height="24" viewBox="0 0 24 24" fill="none" xmlns="http://www.w3.org/2000/svg">
<path d="M16.4824 16.707C16.7823 16.4214 17.2572 16.4327 17.543 16.7324C17.8286 17.0323 17.8174 17.5072 17.5176 17.793C16.0829 19.1597 14.1386 20 12 20C9.86139 20 7.91708 19.1597 6.48242 17.793C6.18273 17.5072 6.17139 17.0323 6.45703 16.7324C6.74275 16.4326 7.21772 16.4214 7.51758 16.707C8.68447 17.8186 10.2618 18.5 12 18.5C13.7381 18.5 15.3155 17.8186 16.4824 16.707ZM6 11C6.2276 11 6.44262 11.1036 6.58496 11.2812H6.58594L6.58691 11.2832C6.58777 11.2843 6.5894 11.2853 6.59082 11.2871C6.59373 11.2908 6.59741 11.2962 6.60254 11.3027C6.61284 11.3158 6.62716 11.3348 6.64551 11.3584C6.6822 11.4056 6.73417 11.473 6.7959 11.5557C6.91904 11.7206 7.08499 11.9507 7.25195 12.2051C7.41707 12.4567 7.5933 12.7465 7.73047 13.0312C7.85465 13.2891 8 13.647 8 14C8 15.1046 7.10457 16 6 16C4.89543 16 4 15.1046 4 14C4 13.647 4.14535 13.2891 4.26953 13.0312C4.4067 12.7465 4.58293 12.4567 4.74805 12.2051C4.91501 11.9507 5.08096 11.7206 5.2041 11.5557C5.26583 11.473 5.3178 11.4056 5.35449 11.3584C5.37284 11.3348 5.38716 11.3158 5.39746 11.3027C5.40259 11.2962 5.40627 11.2908 5.40918 11.2871C5.4106 11.2853 5.41223 11.2843 5.41309 11.2832L5.41406 11.2812H5.41504C5.55738 11.1036 5.7724 11 6 11ZM14.25 13C14.4705 13 14.6798 13.0974 14.8223 13.2656C14.9646 13.4337 15.0263 13.6558 14.9902 13.873L14.25 13.75C14.929 13.8632 14.9848 13.8728 14.9893 13.874V13.877C14.989 13.8784 14.9886 13.8802 14.9883 13.8818C14.9877 13.885 14.9871 13.8887 14.9863 13.8926C14.9848 13.9007 14.9828 13.9108 14.9805 13.9219C14.9758 13.9439 14.9695 13.9721 14.9609 14.0049C14.9438 14.0702 14.9177 14.1561 14.8789 14.2559C14.8015 14.4549 14.67 14.7179 14.4512 14.9805C13.9922 15.5311 13.2162 16 12 16C10.7838 16 10.0078 15.5311 9.54883 14.9805C9.33003 14.7179 9.19851 14.4549 9.12109 14.2559C9.08232 14.1561 9.05618 14.0702 9.03906 14.0049C9.03049 13.9721 9.02419 13.9439 9.01953 13.9219C9.0172 13.9108 9.0152 13.9007 9.01367 13.8926C9.01294 13.8887 9.01228 13.885 9.01172 13.8818C9.01144 13.8802 9.01098 13.8784 9.01074 13.877V13.874C9.01525 13.8728 9.07095 13.8632 9.75 13.75L9.00977 13.873C8.97365 13.6558 9.03544 13.4337 9.17773 13.2656C9.32024 13.0974 9.52954 13 9.75 13H14.25ZM18 11C18.2276 11 18.4426 11.1036 18.585 11.2812H18.5859L18.5869 11.2832C18.5878 11.2843 18.5894 11.2853 18.5908 11.2871C18.5937 11.2908 18.5974 11.2962 18.6025 11.3027C18.6128 11.3158 18.6272 11.3348 18.6455 11.3584C18.6822 11.4056 18.7342 11.473 18.7959 11.5557C18.919 11.7206 19.085 11.9507 19.252 12.2051C19.4171 12.4567 19.5933 12.7465 19.7305 13.0312C19.8546 13.2891 20 13.647 20 14C20 15.1046 19.1046 16 18 16C16.8954 16 16 15.1046 16 14C16 13.647 16.1454 13.2891 16.2695 13.0312C16.4067 12.7465 16.5829 12.4567 16.748 12.2051C16.915 11.9507 17.081 11.7206 17.2041 11.5557C17.2658 11.473 17.3178 11.4056 17.3545 11.3584C17.3728 11.3348 17.3872 11.3158 17.3975 11.3027C17.4026 11.2962 17.4063 11.2908 17.4092 11.2871C17.4106 11.2853 17.4122 11.2843 17.4131 11.2832L17.4141 11.2812H17.415C17.5574 11.1036 17.7724 11 18 11ZM6 13.0303C5.85346 13.2538 5.71782 13.4818 5.62109 13.6826C5.5109 13.9114 5.5 14.0078 5.5 14C5.5 14.2761 5.72386 14.5 6 14.5C6.27614 14.5 6.5 14.2761 6.5 14C6.5 14.0078 6.4891 13.9114 6.37891 13.6826C6.28218 13.4818 6.14654 13.2538 6 13.0303ZM18 13.0303C17.8535 13.2538 17.7178 13.4818 17.6211 13.6826C17.5109 13.9114 17.5 14.0078 17.5 14C17.5 14.2761 17.7239 14.5 18 14.5C18.2761 14.5 18.5 14.2761 18.5 14C18.5 14.0078 18.4891 13.9114 18.3789 13.6826C18.2822 13.4818 18.1465 13.2538 18 13.0303ZM9.5 8.75C9.83725 8.75 10.1555 8.81215 10.4248 8.97363C10.709 9.14413 10.8792 9.3896 10.9619 9.6377C11.039 9.8689 11.0336 10.0808 11.0186 10.2158C11.0107 10.2866 10.999 10.3467 10.9883 10.3916C10.9829 10.4143 10.9773 10.4343 10.9727 10.4502C10.9705 10.4578 10.9687 10.4647 10.9668 10.4707C10.9659 10.4737 10.9647 10.4769 10.9639 10.4795C10.9635 10.4807 10.9633 10.4823 10.9629 10.4834L10.9619 10.4854V10.4873C10.8309 10.8802 10.4056 11.0929 10.0127 10.9619C9.69841 10.8571 9.50289 10.564 9.50293 10.25H9.49609C9.49614 10.564 9.30157 10.8571 8.9873 10.9619C8.59436 11.0929 8.16907 10.8802 8.03809 10.4873L8.75 10.25C8.04813 10.4839 8.03835 10.4867 8.03809 10.4863V10.4854L8.03711 10.4834C8.03673 10.4822 8.03654 10.4807 8.03613 10.4795C8.03529 10.4769 8.03415 10.4737 8.0332 10.4707C8.03128 10.4645 8.02863 10.4571 8.02637 10.4492C8.02181 10.4334 8.01705 10.414 8.01172 10.3916C8.00103 10.3467 7.98932 10.2866 7.98145 10.2158C7.96646 10.0808 7.96102 9.86887 8.03809 9.6377C8.1208 9.38961 8.29104 9.14412 8.5752 8.97363C8.84447 8.81217 9.16275 8.75 9.5 8.75ZM14.5 8.75C14.8372 8.75 15.1555 8.81215 15.4248 8.97363C15.709 9.14413 15.8792 9.3896 15.9619 9.6377C16.039 9.8689 16.0336 10.0808 16.0186 10.2158C16.0107 10.2866 15.999 10.3467 15.9883 10.3916C15.9829 10.4143 15.9773 10.4343 15.9727 10.4502C15.9705 10.4578 15.9687 10.4647 15.9668 10.4707C15.9659 10.4737 15.9647 10.4769 15.9639 10.4795C15.9635 10.4807 15.9633 10.4823 15.9629 10.4834L15.9619 10.4854V10.4873C15.8309 10.8802 15.4056 11.0929 15.0127 10.9619C14.6984 10.8571 14.5029 10.564 14.5029 10.25H14.4961C14.4961 10.564 14.3016 10.8571 13.9873 10.9619C13.5944 11.0929 13.1691 10.8802 13.0381 10.4873L13.75 10.25C13.0482 10.4839 13.0384 10.4867 13.0381 10.4863V10.4854L13.0371 10.4834C13.0367 10.4822 13.0365 10.4807 13.0361 10.4795C13.0353 10.4769 13.0342 10.4737 13.0332 10.4707C13.0313 10.4645 13.0286 10.4571 13.0264 10.4492C13.0218 10.4334 13.017 10.414 13.0117 10.3916C13.001 10.3467 12.9893 10.2866 12.9814 10.2158C12.9665 10.0808 12.961 9.86887 13.0381 9.6377C13.1208 9.38961 13.291 9.14412 13.5752 8.97363C13.8445 8.81217 14.1627 8.75 14.5 8.75ZM12 4C15.2388 4 18.0269 5.92473 19.2852 8.68945C19.4565 9.06636 19.2899 9.51102 18.9131 9.68262C18.5361 9.8542 18.0915 9.68754 17.9199 9.31055C16.8962 7.06121 14.6294 5.5 12 5.5C9.37072 5.50003 7.10484 7.06139 6.08105 9.31055C5.90947 9.68755 5.46392 9.8542 5.08691 9.68262C4.71022 9.51098 4.54352 9.0663 4.71484 8.68945C5.97313 5.92476 8.76125 4.00003 12 4Z" fill="black"/>
</svg>
