<svg width="24" height="24" viewBox="0 0 24 24" fill="none" xmlns="http://www.w3.org/2000/svg">
<path d="M12 4C15.788 4 18.9598 6.63192 19.7891 10.166C19.8836 10.5693 19.6327 10.9728 19.2295 11.0674C18.8263 11.1618 18.4228 10.9119 18.3281 10.5088C17.6544 7.63742 15.076 5.5 12 5.5C8.41015 5.5 5.5 8.41015 5.5 12C5.5 15.5899 8.41015 18.5 12 18.5C12.723 18.5 13.4168 18.3818 14.0645 18.165C14.4572 18.0336 14.8822 18.2459 15.0137 18.6387C15.1451 19.0314 14.9336 19.4563 14.541 19.5879C13.7418 19.8554 12.8869 20 12 20C7.58172 20 4 16.4183 4 12C4 7.58172 7.58172 4 12 4ZM18 12C18.2276 12 18.4426 12.1036 18.585 12.2812H18.5859L18.5869 12.2832C18.5878 12.2843 18.5894 12.2853 18.5908 12.2871C18.5937 12.2908 18.5974 12.2962 18.6025 12.3027C18.6128 12.3158 18.6272 12.3348 18.6455 12.3584C18.6822 12.4056 18.7342 12.473 18.7959 12.5557C18.919 12.7206 19.085 12.9507 19.252 13.2051C19.4171 13.4567 19.5933 13.7465 19.7305 14.0312C19.8546 14.2891 20 14.647 20 15C20 16.1046 19.1046 17 18 17C16.8954 17 16 16.1046 16 15C16 14.647 16.1454 14.2891 16.2695 14.0312C16.4067 13.7465 16.5829 13.4567 16.748 13.2051C16.915 12.9507 17.081 12.7206 17.2041 12.5557C17.2658 12.473 17.3178 12.4056 17.3545 12.3584C17.3728 12.3348 17.3872 12.3158 17.3975 12.3027C17.4026 12.2962 17.4063 12.2908 17.4092 12.2871C17.4106 12.2853 17.4122 12.2843 17.4131 12.2832L17.4141 12.2812H17.415C17.5574 12.1036 17.7724 12 18 12ZM13.5117 13.6182C13.5837 13.2144 13.9674 12.9423 14.373 13.0098C14.7815 13.0778 15.0581 13.4646 14.9902 13.873L14.25 13.75C14.9291 13.8632 14.9848 13.8728 14.9893 13.874V13.877C14.989 13.8784 14.9886 13.8802 14.9883 13.8818C14.9877 13.885 14.9871 13.8887 14.9863 13.8926C14.9848 13.9007 14.9828 13.9108 14.9805 13.9219C14.9758 13.9439 14.9695 13.9721 14.9609 14.0049C14.9438 14.0702 14.9177 14.1561 14.8789 14.2559C14.8015 14.4549 14.67 14.7179 14.4512 14.9805C13.9922 15.5311 13.2162 16 12 16C10.7838 16 10.0078 15.5311 9.54883 14.9805C9.33003 14.7179 9.19851 14.4549 9.12109 14.2559C9.08232 14.1561 9.05618 14.0702 9.03906 14.0049C9.03049 13.9721 9.02419 13.9439 9.01953 13.9219C9.0172 13.9108 9.0152 13.9007 9.01367 13.8926C9.01294 13.8887 9.01228 13.885 9.01172 13.8818C9.01144 13.8802 9.01098 13.8784 9.01074 13.877V13.874C9.01525 13.8728 9.07095 13.8632 9.75 13.75L9.00977 13.873C8.94186 13.4646 9.21848 13.0778 9.62695 13.0098C10.0326 12.9423 10.4163 13.2144 10.4883 13.6182V13.6152L10.4902 13.624C10.4946 13.6406 10.5038 13.6724 10.5195 13.7129C10.5515 13.795 10.6077 13.9073 10.7012 14.0195C10.8672 14.2188 11.2163 14.5 12 14.5C12.7837 14.5 13.1328 14.2188 13.2988 14.0195C13.3923 13.9073 13.4485 13.795 13.4805 13.7129C13.4962 13.6724 13.5054 13.6406 13.5098 13.624L13.5117 13.6152V13.6182ZM18 14.0303C17.8535 14.2538 17.7178 14.4818 17.6211 14.6826C17.5109 14.9114 17.5 15.0078 17.5 15C17.5 15.2761 17.7239 15.5 18 15.5C18.2761 15.5 18.5 15.2761 18.5 15C18.5 15.0078 18.4891 14.9114 18.3789 14.6826C18.2822 14.4818 18.1465 14.2538 18 14.0303ZM10 9C10.5523 9 11 9.44772 11 10C11 10.5523 10.5523 11 10 11C9.44772 11 9 10.5523 9 10C9 9.44772 9.44772 9 10 9ZM14 9C14.5523 9 15 9.44772 15 10C15 10.5523 14.5523 11 14 11C13.4477 11 13 10.5523 13 10C13 9.44772 13.4477 9 14 9Z" fill="black"/>
</svg>
