<svg width="24" height="24" viewBox="0 0 24 24" fill="none" xmlns="http://www.w3.org/2000/svg">
<path d="M12 4C16.4183 4 20 7.58172 20 12C20 16.4183 16.4183 20 12 20C7.58172 20 4 16.4183 4 12C4 7.58172 7.58172 4 12 4ZM12 5.5C8.41015 5.5 5.5 8.41015 5.5 12C5.5 15.5899 8.41015 18.5 12 18.5C15.5899 18.5 18.5 15.5899 18.5 12C18.5 8.41015 15.5899 5.5 12 5.5ZM15.25 12C15.4582 12 15.657 12.0869 15.7988 12.2393C15.9228 12.3725 15.9941 12.5454 16 12.7256L15.998 12.8037V12.8066C15.998 12.8078 15.9972 12.8091 15.9971 12.8105C15.9968 12.8139 15.9965 12.8191 15.9961 12.8242C15.9952 12.8343 15.9948 12.848 15.9932 12.8643C15.9899 12.8974 15.984 12.9428 15.9766 12.999C15.9616 13.1115 15.9373 13.2681 15.8975 13.4541C15.8185 13.8228 15.6761 14.3245 15.4209 14.835C14.9019 15.8729 13.8734 17 12 17C10.1266 17 9.09805 15.8729 8.5791 14.835C8.32394 14.3245 8.18155 13.8228 8.10254 13.4541C8.06268 13.2681 8.03836 13.1115 8.02344 12.999C8.01598 12.9428 8.01015 12.8974 8.00684 12.8643C8.00521 12.848 8.00477 12.8343 8.00391 12.8242C8.00347 12.8191 8.0032 12.8139 8.00293 12.8105C8.00281 12.8091 8.00204 12.8078 8.00195 12.8066V12.8037C7.98712 12.5961 8.05939 12.3916 8.20117 12.2393C8.34305 12.0869 8.5418 12 8.75 12H15.25ZM9.66406 13.5C9.72648 13.7097 9.80819 13.9396 9.9209 14.165C10.277 14.877 10.8736 15.5 12 15.5C13.1264 15.5 13.723 14.877 14.0791 14.165C14.1918 13.9396 14.2735 13.7097 14.3359 13.5H9.66406ZM10.25 9C10.6642 9 11 9.33579 11 9.75C11 10.1642 10.6642 10.5 10.25 10.5H8.75C8.33579 10.5 8 10.1642 8 9.75C8 9.33579 8.33579 9 8.75 9H10.25ZM15.25 9C15.6642 9 16 9.33579 16 9.75C16 10.1642 15.6642 10.5 15.25 10.5H13.75C13.3358 10.5 13 10.1642 13 9.75C13 9.33579 13.3358 9 13.75 9H15.25Z" fill="black"/>
</svg>
