<svg width="24" height="24" viewBox="0 0 24 24" fill="none" xmlns="http://www.w3.org/2000/svg">
<path d="M12 4C16.4183 4 20 7.58172 20 12C20 16.4183 16.4183 20 12 20C7.58172 20 4 16.4183 4 12C4 7.58172 7.58172 4 12 4ZM12 5.5C8.41015 5.5 5.5 8.41015 5.5 12C5.5 15.5899 8.41015 18.5 12 18.5C15.5899 18.5 18.5 15.5899 18.5 12C18.5 8.41015 15.5899 5.5 12 5.5ZM10 13C10.5523 13 11 13.4477 11 14C11 14.5523 10.5523 15 10 15C9.44772 15 9 14.5523 9 14C9 13.4477 9.44772 13 10 13ZM14 13C14.5523 13 15 13.4477 15 14C15 14.5523 14.5523 15 14 15C13.4477 15 13 14.5523 13 14C13 13.4477 13.4477 13 14 13ZM12 9C12.9257 9 13.6305 9.31066 14.1035 9.62598C14.3386 9.78267 14.5169 9.94075 14.6396 10.0635C14.7011 10.1249 14.7493 10.1781 14.7842 10.2188C14.8016 10.2391 14.8162 10.2568 14.8271 10.2705C14.8325 10.2772 14.837 10.2832 14.8408 10.2881C14.8427 10.2905 14.8442 10.2929 14.8457 10.2949C14.8465 10.2959 14.848 10.297 14.8486 10.2979V10.2988L14.8496 10.2998L14.8926 10.3633C15.089 10.6888 15.0107 11.1165 14.7002 11.3496C14.3895 11.5826 13.9569 11.5384 13.6992 11.2588L13.6504 11.2002V11.2012C13.649 11.1995 13.6474 11.1975 13.6455 11.1953C13.6335 11.1813 13.6113 11.1562 13.5791 11.124C13.5143 11.0593 13.4114 10.9673 13.2715 10.874C12.9945 10.6893 12.5743 10.5 12 10.5C11.4257 10.5 11.0055 10.6893 10.7285 10.874C10.5886 10.9673 10.4857 11.0593 10.4209 11.124C10.3887 11.1562 10.3665 11.1813 10.3545 11.1953C10.3526 11.1975 10.351 11.1995 10.3496 11.2012V11.2002C10.101 11.5313 9.63107 11.5981 9.2998 11.3496C8.9687 11.101 8.90194 10.6311 9.15039 10.2998L9.15137 10.2988V10.2979C9.15203 10.297 9.15353 10.2959 9.1543 10.2949C9.15581 10.2929 9.15728 10.2905 9.15918 10.2881C9.16298 10.2832 9.16749 10.2772 9.17285 10.2705C9.18378 10.2568 9.19837 10.2391 9.21582 10.2188C9.25068 10.1781 9.29888 10.1249 9.36035 10.0635C9.48308 9.94075 9.66144 9.78267 9.89648 9.62598C10.3695 9.31066 11.0743 9 12 9Z" fill="black"/>
</svg>
