<svg width="24" height="24" viewBox="0 0 24 24" fill="none" xmlns="http://www.w3.org/2000/svg">
<path d="M12.25 4C12.6642 4 13 4.33579 13 4.75C13 5.16421 12.6642 5.5 12.25 5.5H7.75C6.50736 5.5 5.5 6.50736 5.5 7.75V11H10.25C10.6642 11 11 11.3358 11 11.75C11 12.1642 10.6642 12.5 10.25 12.5H5.5V19.25C5.5 19.6642 5.16421 20 4.75 20C4.33579 20 4 19.6642 4 19.25V7.75C4 5.67893 5.67893 4 7.75 4H12.25ZM17.5 4C18.8807 4 20 5.11929 20 6.5C20 7.88071 18.8807 9 17.5 9C16.1193 9 15 7.88071 15 6.5C15 5.11929 16.1193 4 17.5 4ZM17.5 5.5C16.9477 5.5 16.5 5.94772 16.5 6.5C16.5 7.05228 16.9477 7.5 17.5 7.5C18.0523 7.5 18.5 7.05228 18.5 6.5C18.5 5.94772 18.0523 5.5 17.5 5.5Z" fill="black"/>
</svg>
