<svg width="24" height="24" viewBox="0 0 24 24" fill="none" xmlns="http://www.w3.org/2000/svg">
<path d="M10.5684 4C12.9563 4.00009 15 5.79628 15 8.13965V8.75C15 8.88807 15.1119 9 15.25 9H18.4971C19.3843 9.00018 20 9.76197 20 10.5684C19.9999 12.9563 18.2037 15 15.8604 15H15.25C15.1119 15 15 15.1119 15 15.25V18.4971C14.9998 19.3843 14.238 20 13.4316 20C11.0437 19.9999 9 18.2037 9 15.8604V15.25C9 15.1119 8.88807 15 8.75 15H5.50293C4.6157 14.9998 4 14.238 4 13.4316C4.00009 11.0437 5.79628 9 8.13965 9H8.75C8.88807 9 9 8.88807 9 8.75V5.50293C9.00018 4.6157 9.76197 4 10.5684 4ZM10.5684 5.5C10.5328 5.5 10.5103 5.51212 10.5 5.52051V8.75C10.5 9.7165 9.7165 10.5 8.75 10.5H8.13965C6.73906 10.5 5.50009 11.7529 5.5 13.4316C5.5 13.4678 5.51308 13.4899 5.52148 13.5H8.75C9.7165 13.5 10.5 14.2835 10.5 15.25V15.8604C10.5 17.2609 11.7529 18.4999 13.4316 18.5C13.4678 18.5 13.4899 18.4869 13.5 18.4785V15.25C13.5 14.2835 14.2835 13.5 15.25 13.5H15.8604C17.2609 13.5 18.4999 12.2471 18.5 10.5684C18.5 10.5322 18.4869 10.5101 18.4785 10.5H15.25C14.2835 10.5 13.5 9.7165 13.5 8.75V8.13965C13.5 6.73906 12.2471 5.50009 10.5684 5.5ZM12 10C13.1046 10 14 10.8954 14 12C14 13.1046 13.1046 14 12 14C10.8954 14 10 13.1046 10 12C10 10.8954 10.8954 10 12 10ZM12 11.5C11.7239 11.5 11.5 11.7239 11.5 12C11.5 12.2761 11.7239 12.5 12 12.5C12.2761 12.5 12.5 12.2761 12.5 12C12.5 11.7239 12.2761 11.5 12 11.5Z" fill="black"/>
</svg>
