<svg width="24" height="24" viewBox="0 0 24 24" fill="none" xmlns="http://www.w3.org/2000/svg">
<path fill-rule="evenodd" clip-rule="evenodd" d="M11.2321 4.13919C11.7051 4.05221 12.1468 4.21466 12.4596 4.49955C12.8026 4.81222 12.9996 5.27205 12.9997 5.74955V8.1265C13.2371 8.18765 13.466 8.27111 13.6843 8.37259C14.107 8.29068 14.5489 8.24957 14.9997 8.24955C16.9704 8.24955 19.139 9.03118 19.8073 11.0279C19.9909 11.5768 19.8264 12.102 19.5007 12.4595C19.1879 12.8028 18.7275 12.9995 18.2497 12.9995H15.8727C15.8114 13.2375 15.7275 13.4664 15.6257 13.6851C15.7075 14.1076 15.7497 14.5491 15.7497 14.9995C15.7497 16.9702 14.969 19.1388 12.9723 19.8072C12.4236 19.9907 11.8982 19.8261 11.5407 19.5005C11.1976 19.1877 10.9997 18.7272 10.9997 18.2495V15.8716C10.7616 15.8102 10.532 15.7274 10.3132 15.6255C9.89094 15.7072 9.44982 15.7495 8.99968 15.7495C7.0291 15.7494 4.86033 14.9687 4.19206 12.9722C4.00861 12.4233 4.17396 11.8981 4.49968 11.5406C4.81237 11.1974 5.27201 10.9997 5.74968 10.9995H8.12664C8.18791 10.7618 8.27101 10.5326 8.37273 10.314C8.29099 9.89161 8.24968 9.44989 8.24968 8.99955C8.24981 7.02889 9.03131 4.86011 11.028 4.19193L11.2321 4.13919ZM11.4626 5.62943C10.4127 6.00795 9.74981 7.29209 9.74968 8.99955C9.74968 9.44613 9.79769 9.86378 9.88933 10.2388C9.9343 10.4228 9.90748 10.6173 9.81511 10.7827C9.64373 11.0896 9.53573 11.4364 9.50749 11.8062C9.47775 12.1971 9.15151 12.4995 8.75945 12.4995H5.74968C5.71565 12.4996 5.68338 12.5067 5.65691 12.5181C5.64536 12.5231 5.63709 12.5307 5.62956 12.5357C6.00751 13.5863 7.29154 14.2494 8.99968 14.2495C9.44634 14.2495 9.86387 14.2016 10.2389 14.1099L10.3786 14.0894C10.5184 14.0822 10.659 14.115 10.7829 14.1841C11.0897 14.3555 11.4365 14.4645 11.8063 14.4927C12.1971 14.5224 12.4993 14.848 12.4997 15.2398V18.2495C12.4997 18.2835 12.5069 18.3158 12.5182 18.3423C12.523 18.3533 12.5309 18.3614 12.5358 18.3687C13.5863 17.9905 14.2497 16.7077 14.2497 14.9995C14.2496 14.553 14.2017 14.1353 14.11 13.7603C14.0653 13.5764 14.0919 13.3816 14.1843 13.2163C14.3557 12.9094 14.4647 12.5628 14.4928 12.1929L14.5173 12.0503C14.6051 11.7311 14.8974 11.4999 15.2399 11.4995H18.2497C18.2838 11.4995 18.3159 11.4924 18.3425 11.481C18.3539 11.476 18.3613 11.4674 18.3688 11.4624C17.99 10.4128 16.707 9.74955 14.9997 9.74955C14.5531 9.74958 14.1354 9.79752 13.7604 9.88919C13.5765 9.93401 13.3818 9.90732 13.2165 9.81498C12.9097 9.6437 12.5628 9.53551 12.193 9.50736C11.8023 9.47743 11.4998 9.15124 11.4997 8.75931V5.74955C11.4996 5.71551 11.4926 5.68324 11.4811 5.65677C11.476 5.64513 11.4676 5.63697 11.4626 5.62943ZM11.9997 11.0005C12.552 11.0005 12.9997 11.4482 12.9997 12.0005C12.9994 12.5526 12.5518 13.0005 11.9997 13.0005C11.4477 13.0003 10.9999 12.5525 10.9997 12.0005C10.9997 11.4484 11.4476 11.0007 11.9997 11.0005Z" fill="black"/>
</svg>
