<svg width="24" height="24" viewBox="0 0 24 24" fill="none" xmlns="http://www.w3.org/2000/svg">
<path fill-rule="evenodd" clip-rule="evenodd" d="M4.41113 5.08096C4.66344 4.95331 4.96651 4.97795 5.19434 5.14541L8.44434 7.53506C8.778 7.7804 8.84975 8.25019 8.60449 8.58389C8.35913 8.91758 7.88937 8.98936 7.55566 8.74404L5.5 7.23233V16.7665L7.55566 15.2558C7.88937 15.0104 8.35913 15.0822 8.60449 15.4159C8.84975 15.7496 8.778 16.2194 8.44434 16.4647L5.19434 18.8544C4.96651 19.0219 4.66344 19.0465 4.41113 18.9188C4.15899 18.7911 4 18.5326 4 18.2499V5.7499C4 5.46723 4.15899 5.20869 4.41113 5.08096ZM10.4111 5.08096C10.6634 4.95331 10.9665 4.97795 11.1943 5.14541L19.6943 11.3954C19.8865 11.5367 20 11.7613 20 11.9999C20 12.2385 19.8865 12.4631 19.6943 12.6044L11.1943 18.8544C10.9665 19.0219 10.6634 19.0465 10.4111 18.9188C10.159 18.7911 10 18.5326 10 18.2499V5.7499C10 5.46723 10.159 5.20869 10.4111 5.08096ZM11.5 16.7665L17.9834 11.9999L11.5 7.23233V16.7665Z" fill="black"/>
</svg>
