<svg width="24" height="24" viewBox="0 0 24 24" fill="none" xmlns="http://www.w3.org/2000/svg">
<path d="M19.25 17.5C19.6642 17.5 20 17.8358 20 18.25C20 18.6642 19.6642 19 19.25 19H4.75C4.33579 19 4 18.6642 4 18.25C4 17.8358 4.33579 17.5 4.75 17.5H19.25ZM12 5C15.3774 5 17.3738 7.76872 18.4814 10.1875C19.0498 11.4288 19.4256 12.6629 19.6592 13.5811C19.7763 14.0414 19.8589 14.426 19.9121 14.6973C19.9387 14.833 19.9587 14.9409 19.9717 15.0156C19.9781 15.0529 19.983 15.0822 19.9863 15.1025C19.9879 15.1125 19.9893 15.1203 19.9902 15.126C19.9907 15.1289 19.9909 15.1321 19.9912 15.1338V15.1367L19.999 15.2178C20.0072 15.4068 19.9438 15.5931 19.8193 15.7383C19.6769 15.9042 19.4687 16 19.25 16H4.75C4.33579 16 4 15.6642 4 15.25C4 14.8358 4.33579 14.5 4.75 14.5H18.3369C18.2998 14.3351 18.2569 14.1502 18.2061 13.9502C18.0633 13.3889 17.8642 12.7103 17.6006 11.9922C17.5676 11.9966 17.5342 12 17.5 12H13.75C12.2312 12 11 10.7688 11 9.25V6.5H4.75C4.33579 6.5 4 6.16421 4 5.75C4 5.33579 4.33579 5 4.75 5H12ZM12.5 9.25C12.5 9.94036 13.0596 10.5 13.75 10.5H16.9688C15.9795 8.46905 14.5447 6.76896 12.5 6.5293V9.25Z" fill="#141414"/>
</svg>
