<svg width="24" height="24" viewBox="0 0 24 24" fill="none" xmlns="http://www.w3.org/2000/svg">
<path fill-rule="evenodd" clip-rule="evenodd" d="M16.0439 4.02914C16.4422 3.91536 16.8569 4.14559 16.9707 4.54379C17.0844 4.942 16.8542 5.3567 16.4561 5.47054L10 7.31429V7.99984H19.25C19.6642 7.99984 20 8.33563 20 8.74984V11.2498C20 11.664 19.6642 11.9998 19.25 11.9998C16.8408 11.9998 14.4109 12.4831 12.5684 12.9744C11.6506 13.2192 10.8859 13.4634 10.3525 13.6463C10.2202 13.6917 10.1025 13.7346 10 13.7713V17.2498C9.99997 18.7686 8.76876 19.9998 7.25 19.9998H4.75C4.3358 19.9998 4.00003 19.664 4 19.2498V7.74984C4 7.39843 4.24393 7.09379 4.58691 7.01742L9.07812 6.01937L16.0439 4.02914ZM18 14.9998C18.2276 14.9998 18.4426 15.1035 18.585 15.2811H18.5859V15.2821L18.5908 15.2869C18.5937 15.2906 18.5974 15.2961 18.6025 15.3026C18.6128 15.3156 18.6272 15.3346 18.6455 15.3582C18.6822 15.4055 18.7342 15.4728 18.7959 15.5555C18.919 15.7205 19.085 15.9505 19.252 16.2049C19.4171 16.4565 19.5933 16.7464 19.7305 17.0311C19.8546 17.2889 20 17.6469 20 17.9998C20 19.1044 19.1046 19.9998 18 19.9998C16.8954 19.9998 16 19.1044 16 17.9998C16 17.6469 16.1454 17.2889 16.2695 17.0311C16.4067 16.7464 16.5829 16.4565 16.748 16.2049C16.915 15.9505 17.081 15.7205 17.2041 15.5555C17.2658 15.4728 17.3178 15.4055 17.3545 15.3582C17.3728 15.3346 17.3872 15.3156 17.3975 15.3026C17.4026 15.2961 17.4063 15.2906 17.4092 15.2869L17.415 15.2811C17.5574 15.1035 17.7724 14.9998 18 14.9998ZM5.5 8.3514V18.4998H7.25C7.94034 18.4998 8.49997 17.9402 8.5 17.2498V7.68441L5.5 8.3514ZM18 17.0301C17.8535 17.2536 17.7178 17.4817 17.6211 17.6825C17.5112 17.9107 17.5001 18.0071 17.5 17.9998C17.5 18.276 17.7239 18.4998 18 18.4998C18.2761 18.4998 18.5 18.276 18.5 17.9998C18.4999 18.0071 18.4888 17.9107 18.3789 17.6825C18.2822 17.4817 18.1465 17.2536 18 17.0301ZM10 12.1834C10.5505 11.9975 11.2982 11.7608 12.1816 11.5252C13.9047 11.0657 16.1687 10.6003 18.5 10.5145V9.49984H10V12.1834Z" fill="black"/>
</svg>
