<svg width="24" height="24" viewBox="0 0 24 24" fill="none" xmlns="http://www.w3.org/2000/svg">
<path fill-rule="evenodd" clip-rule="evenodd" d="M19.2499 4C19.6642 4 19.9999 4.33579 19.9999 4.75V6.68652C19.9999 9.00691 19.0781 11.2322 17.4374 12.873L14.873 15.4375C13.2321 17.0782 11.0069 17.9999 8.68647 18H7.06049L5.28022 19.7803C4.98732 20.0732 4.51256 20.0732 4.21967 19.7803C3.92678 19.4874 3.92678 19.0126 4.21967 18.7197L5.99994 16.9395V15.3135C6 12.9931 6.92179 10.7678 8.56244 9.12695L11.1269 6.5625C12.7677 4.92184 14.993 4.00006 17.3134 4H19.2499ZM17.3134 5.5C15.3909 5.50006 13.547 6.2637 12.1874 7.62305L9.62299 10.1875C8.26364 11.547 7.5 13.3909 7.49994 15.3135V15.4395L14.7197 8.21973C15.0126 7.92683 15.4873 7.92683 15.7802 8.21973C16.0731 8.51262 16.0731 8.98738 15.7802 9.28027L8.56049 16.5H8.68647C10.609 16.4999 12.4529 15.7363 13.8124 14.377L16.3769 11.8125C17.7362 10.453 18.4999 8.60908 18.4999 6.68652V5.5H17.3134Z" fill="black"/>
</svg>
