<svg width="24" height="24" viewBox="0 0 24 24" fill="none" xmlns="http://www.w3.org/2000/svg">
<path d="M12 4C14.2091 4 16 5.79086 16 8C16 9.95272 14.6005 11.5776 12.75 11.9287V15H15.25C15.6642 15 16 15.3358 16 15.75C16 16.1642 15.6642 16.5 15.25 16.5H12.75V19.25C12.75 19.6642 12.4142 20 12 20C11.5858 20 11.25 19.6642 11.25 19.25V16.5H8.75C8.33579 16.5 8 16.1642 8 15.75C8 15.3358 8.33579 15 8.75 15H11.25V11.9287C9.39945 11.5776 8 9.95272 8 8C8 5.79086 9.79086 4 12 4ZM12 5.5C10.6193 5.5 9.5 6.61929 9.5 8C9.5 9.38071 10.6193 10.5 12 10.5C13.3807 10.5 14.5 9.38071 14.5 8C14.5 6.61929 13.3807 5.5 12 5.5Z" fill="black"/>
</svg>
