<svg width="24" height="24" viewBox="0 0 24 24" fill="none" xmlns="http://www.w3.org/2000/svg">
<path d="M14.667 4.25C16.3696 4.25018 17.7498 5.63039 17.75 7.33301C17.75 8.26638 17.333 9.10042 16.6777 9.66602C17.3333 10.2314 17.7499 11.0664 17.75 12C17.7498 13.7026 16.3696 15.0838 14.667 15.084H14.333C13.7533 15.0839 13.2132 14.9199 12.75 14.6416V17C12.7498 18.5186 11.5187 19.75 10 19.75H9.33301C7.63028 19.7498 6.25 18.3688 6.25 16.666C6.25019 15.7329 6.66624 14.8983 7.32129 14.333C6.66636 13.7675 6.25009 12.9331 6.25 12C6.2501 11.0667 6.66606 10.2314 7.32129 9.66602C6.66638 9.10043 6.25 8.26612 6.25 7.33301C6.25018 5.63039 7.63039 4.25018 9.33301 4.25H14.667ZM9.32031 15.083C8.45206 15.09 7.75034 15.7962 7.75 16.666C7.75 17.5404 8.45871 18.2498 9.33301 18.25H10C10.6902 18.25 11.2498 17.6902 11.25 17V15.084H9.33301C9.32877 15.084 9.32454 15.083 9.32031 15.083ZM14.333 10.417C13.4588 10.4172 12.7502 11.1258 12.75 12C12.7502 12.8742 13.4588 13.5838 14.333 13.584H14.667C15.5412 13.5838 16.2498 12.8742 16.25 12C16.2498 11.1258 15.5412 10.4172 14.667 10.417H14.333ZM9.33301 10.417C8.45882 10.4172 7.75018 11.1258 7.75 12C7.75016 12.87 8.45196 13.576 9.32031 13.583H11.25V10.417H9.33301ZM9.33301 5.75C8.45882 5.75018 7.75018 6.45882 7.75 7.33301C7.75 8.20735 8.45871 8.91682 9.33301 8.91699H11.25V5.75H9.33301ZM12.75 8.91699H14.667C15.5413 8.91682 16.25 8.20735 16.25 7.33301C16.2498 6.45882 15.5412 5.75018 14.667 5.75H12.75V8.91699Z" fill="black"/>
</svg>
