<svg width="24" height="24" viewBox="0 0 24 24" fill="none" xmlns="http://www.w3.org/2000/svg">
<path d="M18 20.0098H16V18H18V20.0098ZM12.75 4C12.9489 4 13.1396 4.07907 13.2803 4.21973L18.7803 9.71973C18.9948 9.93421 19.0594 10.2569 18.9434 10.5371C18.8273 10.8174 18.5533 11 18.25 11H14.75C13.2312 11 12 9.76878 12 8.25V5.5H7.75C7.05964 5.5 6.5 6.05964 6.5 6.75V17.25C6.5 17.9404 7.05964 18.5 7.75 18.5H12.25C12.6642 18.5 13 18.8358 13 19.25C13 19.6642 12.6642 20 12.25 20H7.75C6.23122 20 5 18.7688 5 17.25V6.75C5 5.23122 6.23122 4 7.75 4H12.75ZM18 17H16V13H18V17ZM13.5 8.25C13.5 8.94036 14.0596 9.5 14.75 9.5H16.4395L13.5 6.56055V8.25Z" fill="black"/>
</svg>
