<svg width="24" height="24" viewBox="0 0 24 24" fill="none" xmlns="http://www.w3.org/2000/svg">
<path d="M12.75 4C12.9489 4 13.1396 4.07907 13.2803 4.21973L17.7803 8.71973C17.9948 8.93421 18.0594 9.25687 17.9434 9.53711C17.8273 9.81737 17.5533 10 17.25 10H13.75C12.7835 10 12 9.2165 12 8.25V5.5H6.75C6.05964 5.5 5.5 6.05964 5.5 6.75V17.25C5.5 17.9404 6.05964 18.5 6.75 18.5H9.25C9.66421 18.5 10 18.8358 10 19.25C10 19.6642 9.66421 20 9.25 20H6.75C5.23122 20 4 18.7688 4 17.25V6.75C4 5.23122 5.23122 4 6.75 4H12.75ZM15.5 13C17.433 13 19 14.567 19 16.5C19 17.4297 18.6361 18.2762 18.0449 18.9023C17.4078 19.5771 16.5028 20 15.5 20C13.567 20 12 18.433 12 16.5C12 15.4972 12.4229 14.5922 13.0977 13.9551C13.7238 13.3639 14.5703 13 15.5 13ZM13.6943 15.6426C13.5706 15.9026 13.5 16.1927 13.5 16.5C13.5 17.6046 14.3954 18.5 15.5 18.5C15.8071 18.5 16.0965 18.4283 16.3564 18.3047L13.6943 15.6426ZM15.5 14.5C15.2533 14.5 15.0177 14.5455 14.7998 14.627L17.3721 17.1992C17.4534 16.9814 17.5 16.7465 17.5 16.5C17.5 15.3954 16.6046 14.5 15.5 14.5ZM13.5 8.25C13.5 8.38807 13.6119 8.5 13.75 8.5H15.4395L13.5 6.56055V8.25Z" fill="black"/>
</svg>
