<svg width="24" height="24" viewBox="0 0 24 24" fill="none" xmlns="http://www.w3.org/2000/svg">
<path fill-rule="evenodd" clip-rule="evenodd" d="M12.7501 4C12.949 4 13.1397 4.07908 13.2803 4.21973L18.7803 9.71973C18.921 9.86038 19.0001 10.0511 19.0001 10.25V17.25C19.0001 18.7688 17.7689 20 16.2501 20H13.7501C13.3359 20 13.0001 19.6642 13.0001 19.25C13.0001 18.8358 13.3359 18.5 13.7501 18.5H16.2501C16.9404 18.5 17.5001 17.9404 17.5001 17.25V11H14.7501C13.2313 11 12.0001 9.76877 12.0001 8.25V5.5H7.75007C7.05972 5.50001 6.50007 6.05965 6.50007 6.75V9.25C6.50007 9.66421 6.16428 10 5.75007 10C5.33587 9.99999 5.00007 9.66421 5.00007 9.25V6.75C5.00007 5.23122 6.2313 4.00001 7.75007 4H12.7501ZM7.50007 17C8.48896 17 9.33671 17.4871 9.88777 17.9004C10.1724 18.1139 10.4023 18.3261 10.5616 18.4854C10.6416 18.5654 10.7045 18.6334 10.7491 18.6826C10.7714 18.7073 10.79 18.7274 10.8028 18.7422C10.8091 18.7494 10.8145 18.7552 10.8184 18.7598C10.8203 18.762 10.822 18.764 10.8233 18.7656C10.824 18.7664 10.8247 18.7679 10.8253 18.7686V18.7695H10.8262L10.8721 18.8311C11.0849 19.1461 11.0288 19.5775 10.7305 19.8262C10.4123 20.0913 9.93907 20.0477 9.6739 19.7295C9.67286 19.7283 9.67097 19.7269 9.66902 19.7246C9.66282 19.7175 9.65251 19.7048 9.63777 19.6885C9.60812 19.6557 9.56161 19.6065 9.50105 19.5459C9.37911 19.424 9.20255 19.261 8.98737 19.0996C8.5385 18.763 8.01105 18.5 7.50007 18.5C6.98909 18.5 6.46164 18.763 6.01277 19.0996C5.79759 19.261 5.62103 19.424 5.49909 19.5459C5.43853 19.6065 5.39202 19.6557 5.36237 19.6885C5.34763 19.7048 5.33731 19.7175 5.33112 19.7246C5.3289 19.7272 5.3263 19.7283 5.32527 19.7295C5.06008 20.0476 4.58777 20.0913 4.2696 19.8262C3.95158 19.561 3.90879 19.0877 4.1739 18.7695H4.17487V18.7686C4.1754 18.7679 4.17615 18.7664 4.17683 18.7656C4.17817 18.764 4.17979 18.762 4.18171 18.7598C4.18562 18.7552 4.19105 18.7494 4.19734 18.7422C4.21017 18.7274 4.22874 18.7073 4.25105 18.6826C4.29561 18.6334 4.35855 18.5654 4.43855 18.4854C4.5978 18.3261 4.8277 18.1139 5.11237 17.9004C5.66342 17.4871 6.51119 17 7.50007 17ZM7.50007 11C8.88078 11 10.0001 12.1193 10.0001 13.5C10.0001 14.8807 8.88078 16 7.50007 16C6.11937 16 5.00007 14.8807 5.00007 13.5C5.00007 12.1193 6.11937 11 7.50007 11ZM7.50007 12.5C6.94779 12.5 6.50007 12.9477 6.50007 13.5C6.50007 14.0523 6.94779 14.5 7.50007 14.5C8.05235 14.5 8.50007 14.0523 8.50007 13.5C8.50007 12.9477 8.05235 12.5 7.50007 12.5ZM13.5001 8.25C13.5001 8.94036 14.0597 9.49999 14.7501 9.5H16.4395L13.5001 6.56055V8.25Z" fill="black"/>
</svg>
