<svg width="24" height="24" viewBox="0 0 24 24" fill="none" xmlns="http://www.w3.org/2000/svg">
<path d="M14 4C14.1989 4 14.3896 4.07907 14.5303 4.21973L18.7803 8.46973C18.9209 8.61038 19 8.80109 19 9V17.25C19 18.7688 17.7688 20 16.25 20H7.75C6.23122 20 5 18.7688 5 17.25V6.75C5 5.23122 6.23122 4 7.75 4H14ZM7.75 5.5C7.05964 5.5 6.5 6.05964 6.5 6.75V17.25C6.5 17.9404 7.05964 18.5 7.75 18.5H16.25C16.9404 18.5 17.5 17.9404 17.5 17.25V10H13.75C13.3358 10 13 9.66421 13 9.25V5.5H7.75ZM14.5 8.5H16.6895L14.5 6.31055V8.5Z" fill="black"/>
</svg>
