<svg width="24" height="24" viewBox="0 0 24 24" fill="none" xmlns="http://www.w3.org/2000/svg">
<path d="M12.75 4C12.9489 4 13.1396 4.07907 13.2803 4.21973L18.7803 9.71973C18.9209 9.86038 19 10.0511 19 10.25V17.25C19 18.7688 17.7688 20 16.25 20H7.75C6.23122 20 5 18.7688 5 17.25V6.75C5 5.23122 6.23122 4 7.75 4H12.75ZM7.75 5.5C7.05964 5.5 6.5 6.05964 6.5 6.75V17.25C6.5 17.9404 7.05964 18.5 7.75 18.5H16.25C16.9404 18.5 17.5 17.9404 17.5 17.25V11H14.75C13.2312 11 12 9.76878 12 8.25V5.5H7.75ZM16 16.5H8V15H16V16.5ZM12 13.5H8V12H12V13.5ZM13.5 8.25C13.5 8.94036 14.0596 9.5 14.75 9.5H16.4395L13.5 6.56055V8.25Z" fill="black"/>
</svg>
