<svg width="24" height="24" viewBox="0 0 24 24" fill="none" xmlns="http://www.w3.org/2000/svg">
<path d="M6.5 17.25C6.5 17.9404 7.05964 18.5 7.75 18.5H16.25C16.9404 18.5 17.5 17.9404 17.5 17.25V16H19V17.25C19 18.7688 17.7688 20 16.25 20H7.75C6.23122 20 5 18.7688 5 17.25V16H6.5V17.25ZM19.25 12.5C19.6642 12.5 20 12.8358 20 13.25C20 13.6642 19.6642 14 19.25 14H4.75C4.33579 14 4 13.6642 4 13.25C4 12.8358 4.33579 12.5 4.75 12.5H19.25ZM16.25 4C17.7687 4.00013 19 5.2313 19 6.75V11H17.5V6.75C17.5 6.05973 16.9402 5.50013 16.25 5.5H7.75C7.05964 5.5 6.5 6.05964 6.5 6.75V11H5V6.75C5 5.23122 6.23122 4 7.75 4H16.25Z" fill="black"/>
</svg>
