<svg width="24" height="24" viewBox="0 0 24 24" fill="none" xmlns="http://www.w3.org/2000/svg">
<path d="M12.75 4C12.9489 4 13.1396 4.07907 13.2803 4.21973L18.7803 9.71973C18.9209 9.86038 19 10.0511 19 10.25V11.25C19 11.6642 18.6642 12 18.25 12C17.8358 12 17.5 11.6642 17.5 11.25V11H14.75C13.2312 11 12 9.76878 12 8.25V5.5H7.75C7.05964 5.5 6.5 6.05964 6.5 6.75V17.25C6.5 17.9404 7.05964 18.5 7.75 18.5H11.25C11.6642 18.5 12 18.8358 12 19.25C12 19.6642 11.6642 20 11.25 20H7.75C6.23122 20 5 18.7688 5 17.25V6.75C5 5.23122 6.23122 4 7.75 4H12.75ZM18.6992 14.2412C18.9802 13.937 19.4545 13.9183 19.7588 14.1992C20.063 14.4802 20.0817 14.9545 19.8008 15.2588L19.7979 15.2617C19.7951 15.2648 19.7904 15.2705 19.7842 15.2773C19.7717 15.2912 19.7526 15.3125 19.7275 15.3408C19.6768 15.3983 19.6013 15.4842 19.5078 15.5957C19.3206 15.8189 19.0604 16.1429 18.7705 16.5391C18.1864 17.3373 17.5031 18.4048 17.0537 19.5283C16.9556 19.7736 16.7355 19.9499 16.4746 19.9912C16.2138 20.0325 15.9504 19.9332 15.7812 19.7305L14.1738 17.8018C13.9087 17.4836 13.9514 17.0103 14.2695 16.7451C14.5876 16.48 15.061 16.5229 15.3262 16.8408L16.1758 17.8604C16.6172 17.0131 17.1227 16.2504 17.5596 15.6533C17.8723 15.2259 18.1548 14.8757 18.3594 14.6318C18.4616 14.51 18.5451 14.4138 18.6035 14.3477C18.6326 14.3147 18.6557 14.2893 18.6719 14.2715C18.68 14.2625 18.6859 14.255 18.6904 14.25L18.6982 14.2422V14.2412H18.6992ZM13.5 8.25C13.5 8.94036 14.0596 9.5 14.75 9.5H16.4395L13.5 6.56055V8.25Z" fill="black"/>
</svg>
