<svg width="24" height="24" viewBox="0 0 24 24" fill="none" xmlns="http://www.w3.org/2000/svg">
<path d="M12.75 4C12.9489 4 13.1396 4.07907 13.2803 4.21973L17.7803 8.71973C17.9948 8.93421 18.0594 9.25687 17.9434 9.53711C17.8273 9.81737 17.5533 10 17.25 10H13.75C12.7835 10 12 9.2165 12 8.25V5.5H6.75C6.05964 5.5 5.5 6.05964 5.5 6.75V17.25C5.5 17.9404 6.05964 18.5 6.75 18.5H10.25C10.6642 18.5 11 18.8358 11 19.25C11 19.6642 10.6642 20 10.25 20H6.75C5.23122 20 4 18.7688 4 17.25V6.75C4 5.23122 5.23122 4 6.75 4H12.75ZM15.2354 12C17.0221 12 18.4707 13.4486 18.4707 15.2354C18.4707 15.8569 18.2941 16.4367 17.9902 16.9297L19.7803 18.7197C20.0732 19.0126 20.0732 19.4874 19.7803 19.7803C19.4874 20.0732 19.0126 20.0732 18.7197 19.7803L16.9297 17.9902C16.4367 18.2941 15.8569 18.4707 15.2354 18.4707C13.4486 18.4707 12 17.0221 12 15.2354C12 13.4485 13.4485 12 15.2354 12ZM15.2354 13.5C14.277 13.5 13.5 14.277 13.5 15.2354C13.5 16.1937 14.277 16.9707 15.2354 16.9707C16.1937 16.9707 16.9707 16.1937 16.9707 15.2354C16.9707 14.277 16.1937 13.5 15.2354 13.5ZM13.5 8.25C13.5 8.38807 13.6119 8.5 13.75 8.5H15.4395L13.5 6.56055V8.25Z" fill="black"/>
</svg>
