<svg width="24" height="24" viewBox="0 0 24 24" fill="none" xmlns="http://www.w3.org/2000/svg">
<path d="M13.75 4C13.9489 4 14.1396 4.07907 14.2803 4.21973L19.7803 9.71973C19.9209 9.86038 20 10.0511 20 10.25V15.25C20 16.7688 18.7688 18 17.25 18H15.8936C15.5668 19.1539 14.5085 20 13.25 20H6.75C5.23122 20 4 18.7688 4 17.25V8.75C4 7.23122 5.23122 6 6.75 6H9.75C9.94891 6 10.1396 6.07907 10.2803 6.21973L15.7803 11.7197C15.9209 11.8604 16 12.0511 16 12.25V16.5H17.25C17.9404 16.5 18.5 15.9404 18.5 15.25V10.5605L13.4395 5.5H11.75C11.3358 5.5 11 5.16421 11 4.75C11 4.33579 11.3358 4 11.75 4H13.75ZM6.75 7.5C6.05964 7.5 5.5 8.05964 5.5 8.75V17.25C5.5 17.9404 6.05964 18.5 6.75 18.5H13.25C13.9404 18.5 14.5 17.9404 14.5 17.25V13H11.75C10.2312 13 9 11.7688 9 10.25V7.5H6.75ZM10.5 10.25C10.5 10.9404 11.0596 11.5 11.75 11.5H13.4395L10.5 8.56055V10.25Z" fill="black"/>
</svg>
