<svg width="24" height="24" viewBox="0 0 24 24" fill="none" xmlns="http://www.w3.org/2000/svg">
<path fill-rule="evenodd" clip-rule="evenodd" d="M17 11.0002C17.2249 11.0002 17.4376 11.1015 17.5801 11.2756L19.8301 14.0256C19.9397 14.1595 20 14.327 20 14.5002V18.2502C20 19.2167 19.2165 20.0002 18.25 20.0002H14.75C13.7835 20.0002 13 19.2167 13 18.2502V12.7502C13 11.7837 13.7835 11.0002 14.75 11.0002H17ZM4.75 14.0002C5.16421 14.0002 5.5 14.336 5.5 14.7502V16.0002C5.5 16.1382 5.61193 16.2502 5.75 16.2502H9.29492L8.24805 15.3078C7.94022 15.0307 7.91531 14.5561 8.19238 14.2482C8.46948 13.9404 8.94409 13.9155 9.25195 14.1925L11.752 16.4425C11.91 16.5848 12 16.7876 12 17.0002C12 17.2128 11.91 17.4156 11.752 17.5578L9.25195 19.8078C8.94409 20.0849 8.46948 20.0599 8.19238 19.7521C7.91531 19.4443 7.94022 18.9696 8.24805 18.6925L9.29492 17.7502H5.75C4.7835 17.7502 4 16.9667 4 16.0002V14.7502C4 14.336 4.33579 14.0002 4.75 14.0002ZM14.75 12.5002C14.6119 12.5002 14.5 12.6121 14.5 12.7502V18.2502C14.5 18.3882 14.6119 18.5002 14.75 18.5002H18.25C18.3881 18.5002 18.5 18.3882 18.5 18.2502V14.7668L16.6455 12.5002H14.75ZM8 4.00016C8.22495 4.00016 8.43763 4.10145 8.58008 4.27555L10.8301 7.02555C10.9397 7.15955 11 7.32703 11 7.50016V11.2502C11 12.2167 10.2165 13.0002 9.25 13.0002H5.75C4.7835 13.0002 4 12.2167 4 11.2502V5.75016C4 4.78367 4.7835 4.00016 5.75 4.00016H8ZM5.75 5.50016C5.61193 5.50016 5.5 5.61209 5.5 5.75016V11.2502C5.5 11.3882 5.61193 11.5002 5.75 11.5002H9.25C9.38807 11.5002 9.5 11.3882 9.5 11.2502V7.76676L7.64551 5.50016H5.75ZM14.748 4.19255C15.0559 3.91547 15.5305 3.94038 15.8076 4.24821C16.0847 4.55607 16.0598 5.03068 15.752 5.30778L14.7051 6.25016H18.25C19.2165 6.25016 20 7.03367 20 8.00016V9.25016C20 9.66438 19.6642 10.0002 19.25 10.0002C18.8358 10.0002 18.5 9.66438 18.5 9.25016V8.00016C18.5 7.86209 18.3881 7.75016 18.25 7.75016H14.7051L15.752 8.69255C16.0598 8.96965 16.0847 9.44425 15.8076 9.75212C15.5305 10.0599 15.0559 10.0849 14.748 9.80778L12.248 7.55778C12.09 7.41555 12 7.21275 12 7.00016C12 6.78757 12.09 6.58477 12.248 6.44255L14.748 4.19255Z" fill="black"/>
</svg>
