<svg width="24" height="24" viewBox="0 0 24 24" fill="none" xmlns="http://www.w3.org/2000/svg">
<path d="M14 4C14.1989 4 14.3896 4.07907 14.5303 4.21973L18.7803 8.46973C18.9209 8.61038 19 8.80109 19 9V11.25C19 11.6642 18.6642 12 18.25 12C17.8358 12 17.5 11.6642 17.5 11.25V10H13.75C13.3358 10 13 9.66421 13 9.25V5.5H7.75C7.05964 5.5 6.5 6.05964 6.5 6.75V17.25C6.5 17.9404 7.05964 18.5 7.75 18.5H11.25C11.6642 18.5 12 18.8358 12 19.25C12 19.6642 11.6642 20 11.25 20H7.75C6.23122 20 5 18.7688 5 17.25V6.75C5 5.23122 6.23122 4 7.75 4H14ZM17 14C17.4142 14 17.75 14.3358 17.75 14.75V16.25H19.25C19.6642 16.25 20 16.5858 20 17C20 17.4142 19.6642 17.75 19.25 17.75H17.75V19.25C17.75 19.6642 17.4142 20 17 20C16.5858 20 16.25 19.6642 16.25 19.25V17.75H14.75C14.3358 17.75 14 17.4142 14 17C14 16.5858 14.3358 16.25 14.75 16.25H16.25V14.75C16.25 14.3358 16.5858 14 17 14ZM14.5 8.5H16.6895L14.5 6.31055V8.5Z" fill="black"/>
</svg>
