<svg width="24" height="24" viewBox="0 0 24 24" fill="none" xmlns="http://www.w3.org/2000/svg">
<path d="M17.25 4C18.7688 4 20 5.23122 20 6.75V17.25C20 18.7688 18.7688 20 17.25 20H6.75C5.23122 20 4 18.7688 4 17.25V6.75C4 5.23122 5.23122 4 6.75 4H17.25ZM5.5 17.25C5.5 17.9404 6.05964 18.5 6.75 18.5H7V16H5.5V17.25ZM8.5 18.5H15.5V12.75H8.5V18.5ZM17 16V18.5H17.25C17.9404 18.5 18.5 17.9404 18.5 17.25V16H17ZM17 14.5H18.5V12.75H17V14.5ZM5.5 14.5H7V12.75H5.5V14.5ZM5.5 11.25H7V9.5H5.5V11.25ZM8.5 11.25H15.5V5.5H8.5V11.25ZM17 11.25H18.5V9.5H17V11.25ZM6.75 5.5C6.05964 5.5 5.5 6.05964 5.5 6.75V8H7V5.5H6.75ZM17 8H18.5V6.75C18.5 6.05964 17.9404 5.5 17.25 5.5H17V8Z" fill="black"/>
</svg>
