<svg width="24" height="24" viewBox="0 0 24 24" fill="none" xmlns="http://www.w3.org/2000/svg">
<path d="M19.25 4C19.6642 4 20 4.33579 20 4.75C20 8.15259 18.0795 11.2782 15 12.4814V18.25C15 19.2165 14.2165 20 13.25 20H10.75C9.7835 20 9 19.2165 9 18.25V12.4814C5.92053 11.2782 4 8.15259 4 4.75C4 4.33579 4.33579 4 4.75 4H19.25ZM5.53809 5.5C5.80727 8.20484 7.5189 10.4836 9.96973 11.2334C10.2849 11.3299 10.5 11.6216 10.5 11.9512V18.25C10.5 18.3881 10.6119 18.5 10.75 18.5H13.25C13.3881 18.5 13.5 18.3881 13.5 18.25V11.9512C13.5 11.6216 13.7151 11.3299 14.0303 11.2334C16.4811 10.4836 18.1927 8.20484 18.4619 5.5H5.53809Z" fill="black"/>
</svg>
