<svg width="24" height="24" viewBox="0 0 24 24" fill="none" xmlns="http://www.w3.org/2000/svg">
<path fill-rule="evenodd" clip-rule="evenodd" d="M19.25 4C19.5382 4 19.8008 4.16514 19.9258 4.4248C20.0506 4.68465 20.016 4.99362 19.8359 5.21875L15.2734 10.9209C15.0964 11.1424 15.0001 11.4176 15 11.7012V18.25C15 19.2165 14.2165 20 13.25 20H10.75C9.78348 20 8.99998 19.2165 8.99998 18.25V11.7012C8.99989 11.4176 8.90359 11.1424 8.72654 10.9209L4.16404 5.21875C3.98394 4.99362 3.94931 4.68465 4.0742 4.4248C4.19915 4.16514 4.4618 4 4.74998 4H19.25ZM9.89744 9.9834C10.2874 10.4709 10.4999 11.0769 10.5 11.7012V18.25C10.5 18.3881 10.6119 18.5 10.75 18.5H13.25C13.388 18.5 13.5 18.3881 13.5 18.25V11.7012C13.5001 11.0769 13.7125 10.4709 14.1025 9.9834L17.6894 5.5H6.31052L9.89744 9.9834Z" fill="black"/>
</svg>
