<svg width="24" height="24" viewBox="0 0 24 24" fill="none" xmlns="http://www.w3.org/2000/svg">
<path d="M12 4C15.3136 4 18 6.68628 18 10C18 10.0844 17.9966 10.1684 17.9932 10.252C19.2185 11.2607 20 12.789 20 14.5C20 17.5376 17.5375 20 14.5 20C13.5995 20 12.7503 19.7821 12 19.3984C11.2497 19.7821 10.4005 20 9.5 20C6.46253 20 4 17.5376 4 14.5C4 12.7893 4.78089 11.2607 6.00586 10.252C6.00241 10.1684 6 10.0844 6 10C6 6.68628 8.6864 4 12 4ZM6.35352 12.0312C5.81925 12.7112 5.5 13.5682 5.5 14.5C5.5 16.7091 7.29094 18.5 9.5 18.5C9.87302 18.5 10.2336 18.4471 10.5762 18.3516C9.76112 17.5213 9.20794 16.4346 9.04883 15.2227C7.80831 14.5202 6.84248 13.3902 6.35352 12.0312ZM17.6455 12.0312C17.1564 13.3904 16.191 14.5202 14.9502 15.2227C14.791 16.4348 14.2381 17.5213 13.4229 18.3516C13.7657 18.4472 14.1266 18.5 14.5 18.5C16.7091 18.5 18.5 16.7091 18.5 14.5C18.5 13.568 18.18 12.7113 17.6455 12.0312ZM13.2598 15.8662C12.8535 15.953 12.4322 16 12 16C11.5675 16 11.1458 15.9532 10.7393 15.8662C10.992 16.5619 11.4333 17.1665 12 17.6211C12.5667 17.1666 13.007 16.5617 13.2598 15.8662ZM12 11.3779C11.1477 12.0613 10.5807 13.0861 10.5078 14.2451C10.9749 14.4093 11.4768 14.5 12 14.5C12.5229 14.5 13.0244 14.4091 13.4912 14.2451C13.4183 13.0861 12.8523 12.0613 12 11.3779ZM9.5 10.5C8.81515 10.5 8.17002 10.6713 7.60645 10.9746C7.8231 11.9556 8.35979 12.816 9.10156 13.4414C9.31156 12.3643 9.83686 11.4004 10.5762 10.6475C10.2337 10.552 9.87293 10.5 9.5 10.5ZM14.5 10.5C14.1267 10.5 13.7656 10.5518 13.4229 10.6475C14.1624 11.4004 14.6874 12.3641 14.8975 13.4414C15.6395 12.816 16.1758 11.9558 16.3926 10.9746C15.8292 10.6715 15.1845 10.5 14.5 10.5ZM12 5.5C9.73265 5.5 7.85733 7.17707 7.5459 9.3584C8.15322 9.12745 8.81166 9 9.5 9C10.4004 9 11.2498 9.21703 12 9.60059C12.7502 9.21703 13.5996 9 14.5 9C15.188 9 15.846 9.12765 16.4531 9.3584C16.1416 7.17713 14.2673 5.5 12 5.5Z" fill="black"/>
</svg>
