<svg width="24" height="24" viewBox="0 0 24 24" fill="none" xmlns="http://www.w3.org/2000/svg">
<path d="M9.25 4C9.66421 4 10 4.33579 10 4.75C10 5.16421 9.66421 5.5 9.25 5.5H7.75C6.50736 5.5 5.5 6.50736 5.5 7.75V16.25C5.5 17.4926 6.50736 18.5 7.75 18.5H16.25C17.4926 18.5 18.5 17.4926 18.5 16.25V7.75C18.5 6.50736 17.4926 5.5 16.25 5.5H14.2861C13.7201 5.50019 13.2251 5.88082 13.0791 6.42773L11.8096 11.1855C11.7673 11.3442 11.8875 11.5 12.0518 11.5H13.25C13.6642 11.5 14 11.8358 14 12.25C14 12.6642 13.6642 13 13.25 13H12.0518C10.902 13 10.0641 11.9098 10.3604 10.7988L11.6299 6.04102C11.951 4.8376 13.0406 4.00019 14.2861 4H16.25C18.3211 4 20 5.67893 20 7.75V16.25C20 18.3211 18.3211 20 16.25 20H7.75C5.67893 20 4 18.3211 4 16.25V7.75C4 5.67893 5.67893 4 7.75 4H9.25ZM14.6143 14.6025C14.8303 14.2567 15.2845 14.1459 15.6357 14.3564C15.9908 14.5695 16.1064 15.0306 15.8936 15.3857L15.25 15C15.8686 15.3712 15.892 15.3857 15.8926 15.3867L15.8916 15.3877L15.8906 15.3896L15.8818 15.4043C15.8772 15.4116 15.8716 15.4201 15.8652 15.4297C15.8523 15.449 15.8359 15.4734 15.8154 15.501C15.7744 15.5563 15.7165 15.6267 15.6416 15.707C15.4915 15.8678 15.2699 16.067 14.96 16.2607C14.3335 16.6523 13.3817 17 12 17C10.6183 17 9.6665 16.6523 9.04004 16.2607C8.73014 16.067 8.50852 15.8678 8.3584 15.707C8.28346 15.6267 8.22563 15.5563 8.18457 15.501C8.16411 15.4734 8.14766 15.449 8.13477 15.4297C8.12841 15.4201 8.12278 15.4116 8.11816 15.4043L8.10938 15.3896L8.1084 15.3877L8.10742 15.3867C8.10805 15.3857 8.13141 15.3712 8.75 15L8.10645 15.3857C7.89357 15.0306 8.00917 14.5695 8.36426 14.3564C8.71547 14.1459 9.16967 14.2567 9.38574 14.6025C9.38419 14.6001 9.38316 14.5982 9.38281 14.5977C9.38281 14.5977 9.38544 14.6008 9.38965 14.6064C9.39942 14.6196 9.41997 14.647 9.4541 14.6836C9.52271 14.7571 9.64504 14.8706 9.83496 14.9893C10.2085 15.2227 10.8818 15.5 12 15.5C13.1182 15.5 13.7915 15.2227 14.165 14.9893C14.355 14.8706 14.4773 14.7571 14.5459 14.6836C14.58 14.647 14.6006 14.6196 14.6104 14.6064C14.6146 14.6008 14.6172 14.5977 14.6172 14.5977C14.6168 14.5982 14.6158 14.6001 14.6143 14.6025ZM8.75 8C9.16421 8 9.5 8.33579 9.5 8.75V10.25C9.5 10.6642 9.16421 11 8.75 11C8.33579 11 8 10.6642 8 10.25V8.75C8 8.33579 8.33579 8 8.75 8ZM15.25 8C15.6642 8 16 8.33579 16 8.75V10.25C16 10.6642 15.6642 11 15.25 11C14.8358 11 14.5 10.6642 14.5 10.25V8.75C14.5 8.33579 14.8358 8 15.25 8Z" fill="black"/>
</svg>
