<svg width="24" height="24" viewBox="0 0 24 24" fill="none" xmlns="http://www.w3.org/2000/svg">
<path d="M10.8851 4C12.0576 4.00006 12.9852 4.99226 12.9066 6.16211L12.6146 10.5H16.2504C18.3213 10.5001 20.0004 12.179 20.0004 14.25V15.25C20.0004 17.8733 17.8736 19.9999 15.2504 20H11.3656C9.02577 19.9999 6.91913 18.5818 6.03845 16.4141L4.05994 11.543C3.94572 11.2617 4.00747 10.9393 4.21814 10.7207L4.40857 10.5439C5.39272 9.72334 6.88044 9.83805 7.72205 10.8467L8.20837 11.4297L8.87244 5.78906C8.99268 4.76882 9.85778 4 10.8851 4ZM10.8851 5.5C10.6183 5.5 10.3939 5.69981 10.3627 5.96484L9.49548 13.3379C9.46041 13.6353 9.25122 13.8832 8.96423 13.9688C8.67701 14.0542 8.36615 13.9606 8.17419 13.7305L6.57068 11.8076C6.34449 11.5364 5.98918 11.4425 5.67517 11.5332L7.4281 15.8496C8.07903 17.4519 9.63618 18.4999 11.3656 18.5H15.2504C17.0452 18.4999 18.5004 17.0448 18.5004 15.25V14.25C18.5004 13.0075 17.4929 12.0001 16.2504 12H11.8129C11.6054 12 11.4068 11.9141 11.265 11.7627C11.1232 11.611 11.0509 11.4064 11.0648 11.1992L11.4105 6.06152C11.4309 5.75774 11.1896 5.50006 10.8851 5.5ZM15.972 5.02832C17.0637 5.33959 17.977 5.73397 18.6185 6.0498C18.9396 6.20787 19.1949 6.34689 19.3715 6.44824C19.4596 6.49884 19.5286 6.54101 19.5765 6.57031C19.6003 6.58485 19.6198 6.5961 19.6332 6.60449C19.6396 6.60858 19.6449 6.61274 19.6488 6.61523C19.6507 6.6164 19.6534 6.61737 19.6547 6.61816L19.6556 6.61914H19.6566V6.62012H19.6576L20.2875 7.02637L19.474 8.28711L18.8441 7.87988H18.8431C18.8418 7.879 18.8389 7.87726 18.8353 7.875C18.8272 7.8699 18.8135 7.86074 18.7953 7.84961C18.7584 7.82704 18.7002 7.79254 18.6244 7.74902C18.4725 7.66183 18.2458 7.53797 17.9564 7.39551C17.3757 7.1096 16.5464 6.75293 15.5599 6.47168L14.8392 6.26562L15.2504 4.82324L15.972 5.02832ZM7.224 6.5918L6.52771 6.86914C6.15278 7.01828 5.90495 7.18523 5.76013 7.30273C5.68777 7.36148 5.64012 7.40855 5.61462 7.43555C5.60255 7.44835 5.59554 7.4571 5.59314 7.45996L5.15466 8.0498L3.95056 7.1543L4.3988 6.55273L4.82458 6.86914C4.43549 6.57946 4.40158 6.55411 4.3988 6.55176L4.40076 6.5498L4.40173 6.54785C4.40286 6.54637 4.40436 6.54464 4.40564 6.54297C4.40841 6.53935 4.41187 6.53475 4.41541 6.53027C4.42251 6.52127 4.43152 6.51031 4.44177 6.49805C4.4624 6.47337 4.48982 6.44227 4.5238 6.40625C4.59204 6.33395 4.68779 6.2408 4.81482 6.1377C5.07002 5.93062 5.44822 5.68337 5.97302 5.47461L6.67029 5.19824L7.224 6.5918Z" fill="black"/>
</svg>
