<svg width="24" height="24" viewBox="0 0 24 24" fill="none" xmlns="http://www.w3.org/2000/svg">
<path fill-rule="evenodd" clip-rule="evenodd" d="M9.02148 5.56878C9.06503 4.4894 10.2348 3.63087 11.3145 4.17034C12.3472 4.6867 13 5.74229 13 6.8969V8.99944H18C19.1044 8.99944 19.9998 9.89508 20 10.9994C20 12.104 19.1046 12.9994 18 12.9994H15.6533L15.0205 17.5424C14.8098 19.0559 13.4061 20.107 11.8945 19.8832L7.99316 19.3061C7.89033 19.2908 7.79104 19.2658 7.69531 19.2338C7.38027 19.6957 6.85125 19.9994 6.25 19.9994H5.75C4.7835 19.9994 4 19.2159 4 18.2494V9.74944C4.00022 8.78313 4.78364 7.99944 5.75 7.99944H6.25C6.90506 7.99944 7.47542 8.36013 7.77539 8.893C8.10489 8.74531 8.35614 8.44325 8.55957 7.98382C8.87052 7.2813 8.98966 6.35723 9.02148 5.56878ZM5.75 9.49944C5.61206 9.49944 5.50022 9.61156 5.5 9.74944V18.2494C5.5 18.3875 5.61193 18.4994 5.75 18.4994H6.25C6.38807 18.4994 6.5 18.3875 6.5 18.2494V9.74944C6.49978 9.61156 6.38794 9.49944 6.25 9.49944H5.75ZM10.5869 5.52679C10.541 5.55606 10.5218 5.59838 10.5205 5.62933C10.4863 6.47643 10.3574 7.62745 9.93066 8.59124C9.57656 9.39096 8.96901 10.1443 8 10.4037V17.5746C8.00003 17.6984 8.09057 17.8033 8.21289 17.8217L12.1143 18.3998C12.8013 18.5014 13.4394 18.0233 13.5352 17.3354L14.1387 12.9994H13.75C13.3358 12.9994 13 12.6636 13 12.2494C13.0002 11.8354 13.3359 11.4994 13.75 11.4994H18C18.2761 11.4994 18.5 11.2756 18.5 10.9994C18.4998 10.7235 18.276 10.4994 18 10.4994H12.25C11.8358 10.4994 11.5 10.1636 11.5 9.74944V6.8969C11.5 6.31059 11.1688 5.77448 10.6445 5.51214C10.6389 5.50931 10.6358 5.50879 10.6309 5.50921C10.6231 5.50992 10.6071 5.51396 10.5869 5.52679Z" fill="black"/>
</svg>
