<svg width="24" height="24" viewBox="0 0 24 24" fill="none" xmlns="http://www.w3.org/2000/svg">
<path fill-rule="evenodd" clip-rule="evenodd" d="M4.75045 13.9999C5.16441 14.0001 5.50039 14.3359 5.50045 14.7499V19.2499C5.50045 19.6639 5.16444 19.9996 4.75045 19.9999C4.33623 19.9999 4.00045 19.6641 4.00045 19.2499V14.7499C4.0005 14.3357 4.33627 13.9999 4.75045 13.9999ZM11.7504 11.9999C12.1644 12.0001 12.5004 12.3359 12.5004 12.7499V16.2499C12.5004 17.0251 12.6794 17.5646 12.9848 17.9061C13.2761 18.2318 13.7929 18.4999 14.7504 18.4999C15.1644 18.5001 15.5004 18.8359 15.5004 19.2499C15.5004 19.6639 15.1644 19.9996 14.7504 19.9999C13.5085 19.9999 12.5254 19.6426 11.8667 18.9061C11.3026 18.2753 11.0623 17.4609 11.0112 16.6141L11.0004 16.2499V12.7499C11.0005 12.3357 11.3363 11.9999 11.7504 11.9999ZM15.101 5.3739C15.3086 5.01575 15.768 4.89316 16.1264 5.10046C18.4596 6.45039 20.0004 9.15251 20.0004 11.9999V19.2499C20.0004 19.6639 19.6644 19.9996 19.2504 19.9999C18.8362 19.9999 18.5004 19.6641 18.5004 19.2499V11.9999C18.5004 9.66573 17.2254 7.47016 15.3745 6.39929C15.0161 6.19182 14.8937 5.73237 15.101 5.3739ZM8.75045 14.9999C9.16439 15.0001 9.50036 15.3359 9.50045 15.7499V17.2499C9.50045 18.0813 9.16706 18.7334 8.85689 19.16C8.70094 19.3744 8.54426 19.5401 8.42525 19.6542C8.36558 19.7114 8.31452 19.7574 8.27584 19.7899C8.25663 19.806 8.23964 19.819 8.22701 19.829C8.22103 19.8337 8.2157 19.8383 8.21138 19.8417C8.2093 19.8433 8.20631 19.8453 8.20455 19.8466L8.20162 19.8495H8.20064C7.86942 20.0979 7.39945 20.0311 7.15084 19.7001C6.91782 19.3894 6.96208 18.9567 7.24166 18.6991L7.30025 18.6503H7.29927C7.30196 18.6481 7.30611 18.6446 7.31099 18.6405C7.32699 18.6271 7.35453 18.6044 7.38814 18.5721C7.45651 18.5066 7.55032 18.406 7.644 18.2772C7.83359 18.0164 8.00045 17.6679 8.00045 17.2499V15.7499C8.00053 15.3357 8.33628 14.9999 8.75045 14.9999ZM15.2504 13.9999C15.6644 14.0001 16.0004 14.3359 16.0004 14.7499V16.2499C16.0004 16.6639 15.6644 16.9996 15.2504 16.9999C14.8362 16.9999 14.5004 16.6641 14.5004 16.2499V14.7499C14.5005 14.3357 14.8363 13.9999 15.2504 13.9999ZM8.45162 10.1532C8.64318 9.78618 9.09616 9.64347 9.46334 9.83484C9.83022 10.0264 9.97282 10.4794 9.7817 10.8466C9.60229 11.1908 9.50047 11.5824 9.50045 11.9999V13.2499C9.50045 13.6639 9.16444 13.9996 8.75045 13.9999C8.33623 13.9999 8.00045 13.6641 8.00045 13.2499V11.9999C8.00047 11.3353 8.16329 10.7064 8.45162 10.1532ZM12.0004 7.99988C13.0738 7.99999 14.0865 8.37672 14.8315 9.12878C15.5789 9.88355 16.0004 10.9586 16.0004 12.2499C16.0004 12.6639 15.6644 12.9996 15.2504 12.9999C14.8362 12.9999 14.5004 12.6641 14.5004 12.2499C14.5004 11.2917 14.1946 10.6161 13.7661 10.1835C13.335 9.74828 12.7216 9.49999 12.0004 9.49988C11.5862 9.49988 11.2504 9.16409 11.2504 8.74988C11.2505 8.33574 11.5863 7.99988 12.0004 7.99988ZM11.9995 3.99988C12.4136 3.99988 12.7494 4.33574 12.7495 4.74988C12.7495 5.16409 12.4137 5.49988 11.9995 5.49988C10.239 5.49999 8.55333 6.12678 7.34517 7.26453C6.14928 8.39086 5.38485 10.0507 5.49849 12.2108C5.52007 12.6243 5.20297 12.9771 4.78951 12.9989C4.37587 13.0207 4.02319 12.7026 4.00142 12.2889C3.86528 9.69966 4.79214 7.60877 6.31685 6.17273C7.82945 4.74827 9.89431 3.99999 11.9995 3.99988Z" fill="black"/>
</svg>
