<svg width="24" height="24" viewBox="0 0 24 24" fill="none" xmlns="http://www.w3.org/2000/svg">
<path fill-rule="evenodd" clip-rule="evenodd" d="M12.9999 6.99994C14.1045 6.99994 14.9999 7.89537 14.9999 8.99994V12.4999H16.2499C18.321 12.4999 19.9999 14.1789 19.9999 16.2499V19.2499C19.9999 19.6642 19.6642 19.9999 19.2499 19.9999C18.8358 19.9999 18.4999 19.6641 18.4999 19.2499V16.2499C18.4999 15.0073 17.4926 13.9999 16.2499 13.9999H14.2499C13.8358 13.9999 13.4999 13.6641 13.4999 13.2499V8.99994C13.4999 8.7238 13.2761 8.49994 12.9999 8.49994C12.7238 8.49999 12.4999 8.72383 12.4999 8.99994V15.2499C12.4999 15.5655 12.3025 15.8474 12.0058 15.955C11.709 16.0626 11.376 15.9728 11.1738 15.7304L9.57026 13.8076C9.34009 13.5319 8.97701 13.4403 8.65912 13.539L10.7021 18.9863C10.8475 19.374 10.6513 19.8066 10.2636 19.9521C9.87587 20.0975 9.44334 19.9013 9.29779 19.5136L7.0517 13.5244C6.94779 13.2473 7.01247 12.9348 7.21772 12.7216L7.40815 12.5449C8.39252 11.7237 9.8808 11.8384 10.7226 12.8476L10.9999 13.1796V8.99994C10.9999 7.8954 11.8954 6.99999 12.9999 6.99994ZM8.71967 4.21967C9.01256 3.92678 9.48732 3.92678 9.78022 4.21967C10.0731 4.51256 10.0731 4.98732 9.78022 5.28022L8.06049 6.99994L9.78022 8.71967C10.0731 9.01256 10.0731 9.48732 9.78022 9.78022C9.48732 10.0731 9.01256 10.0731 8.71967 9.78022L6.99994 8.06049L5.28022 9.78022C4.98732 10.0731 4.51256 10.0731 4.21967 9.78022C3.92678 9.48732 3.92678 9.01256 4.21967 8.71967L5.9394 6.99994L4.21967 5.28022C3.92678 4.98732 3.92678 4.51256 4.21967 4.21967C4.51256 3.92678 4.98732 3.92678 5.28022 4.21967L6.99994 5.9394L8.71967 4.21967Z" fill="black"/>
</svg>
