<svg width="24" height="24" viewBox="0 0 24 24" fill="none" xmlns="http://www.w3.org/2000/svg">
<path d="M10.8848 3.99988C12.0573 3.99988 12.9848 4.99213 12.9062 6.16199L12.6143 10.4999H16.25C18.321 10.5 19.9999 12.1789 20 14.2499V15.2499C20 17.8732 17.8733 19.9998 15.25 19.9999H11.3652C9.02548 19.9997 6.91873 18.5817 6.03809 16.4139L4.05957 11.5428C3.94547 11.2617 4.0072 10.9391 4.21777 10.7206L4.4082 10.5438C5.39229 9.72321 6.88002 9.83808 7.72168 10.8466L8.20801 11.4296L8.87207 5.78894C8.99234 4.76881 9.85755 4 10.8848 3.99988ZM10.8848 5.49988C10.618 5.5 10.3935 5.69981 10.3623 5.96472L9.49512 13.3378C9.46004 13.6352 9.25091 13.8832 8.96387 13.9686C8.67668 14.0539 8.36574 13.9604 8.17383 13.7303L6.57031 11.8075C6.34409 11.5364 5.98876 11.4423 5.6748 11.5331L7.42773 15.8495C8.07863 17.4517 9.6359 18.4997 11.3652 18.4999H15.25C17.0449 18.4998 18.5 17.0448 18.5 15.2499V14.2499C18.4999 13.0073 17.4925 12 16.25 11.9999H11.8125C11.6051 11.9998 11.4064 11.914 11.2646 11.7626C11.1229 11.6109 11.0505 11.4062 11.0645 11.1991L11.4102 6.0614C11.4305 5.75762 11.1893 5.49988 10.8848 5.49988ZM6 8.99988H4V7.49988H6V8.99988ZM17 8.99988H15V7.49988H17V8.99988ZM8.31055 5.24988L7.25 6.31042L5.68945 4.74988L6.75 3.68933L8.31055 5.24988ZM16.3105 4.74988L14.75 6.31042L13.6895 5.24988L15.25 3.68933L16.3105 4.74988Z" fill="black"/>
</svg>
