<svg width="24" height="24" viewBox="0 0 24 24" fill="none" xmlns="http://www.w3.org/2000/svg">
<path d="M6.75 9C7.16421 9 7.5 9.33579 7.5 9.75V14C7.5 16.4853 9.51472 18.5 12 18.5C13.1124 18.5 14.1285 18.0971 14.9141 17.4287C15.2295 17.1603 15.7032 17.1984 15.9717 17.5137C16.2401 17.8291 16.2022 18.3028 15.8867 18.5713C14.8401 19.4619 13.4819 20 12 20C8.68629 20 6 17.3137 6 14V9.75C6 9.33579 6.33579 9 6.75 9ZM10 12C10.4142 12 10.75 12.3358 10.75 12.75V14C10.75 14.6904 11.3096 15.25 12 15.25H12.25C12.6642 15.25 13 15.5858 13 16C13 16.4142 12.6642 16.75 12.25 16.75H12C10.4812 16.75 9.25 15.5188 9.25 14V12.75C9.25 12.3358 9.58579 12 10 12ZM17.25 12C17.6642 12 18 12.3358 18 12.75V14C18 14.3564 17.9187 14.7422 17.8525 15.0039C17.8176 15.1422 17.7821 15.2621 17.7559 15.3477C17.7427 15.3905 17.7317 15.4254 17.7236 15.4502L17.71 15.4912V15.4932H17.709C17.5746 15.885 17.1486 16.0934 16.7568 15.959C16.365 15.8246 16.1566 15.3986 16.291 15.0068H16.29C16.2902 15.0063 16.2914 15.0047 16.292 15.0029C16.2932 14.9992 16.2952 14.9933 16.2979 14.9854C16.3034 14.9683 16.312 14.9417 16.3223 14.9082C16.3429 14.8408 16.3699 14.7456 16.3975 14.6367C16.4563 14.4038 16.5 14.1647 16.5 14V12.75C16.5 12.3358 16.8358 12 17.25 12ZM14 9C14.4142 9 14.75 9.33579 14.75 9.75V12.25C14.75 12.6642 14.4142 13 14 13C13.5858 13 13.25 12.6642 13.25 12.25V9.75C13.25 9.33579 13.5858 9 14 9ZM12 4C15.3137 4 18 6.68629 18 10C18 10.0267 17.9978 10.0531 17.9951 10.0791C17.9967 10.136 18 10.1929 18 10.25C18 10.6642 17.6642 11 17.25 11C16.8358 11 16.5 10.6642 16.5 10.25C16.5 7.71899 14.441 5.5 12 5.5H11.75C11.3358 5.5 11 5.16421 11 4.75C11 4.33579 11.3358 4 11.75 4H12ZM12.25 7.25C12.6642 7.25 13 7.58579 13 8C13 8.41421 12.6642 8.75 12.25 8.75H12C11.3096 8.75 10.75 9.30964 10.75 10C10.75 10.4142 10.4142 10.75 10 10.75C9.58579 10.75 9.25 10.4142 9.25 10C9.25 8.48122 10.4812 7.25 12 7.25H12.25Z" fill="black"/>
</svg>
