<svg width="24" height="24" viewBox="0 0 24 24" fill="none" xmlns="http://www.w3.org/2000/svg">
<path fill-rule="evenodd" clip-rule="evenodd" d="M12.5752 4.13187C12.8045 3.97429 13.1023 3.95662 13.3486 4.08597C13.5951 4.21563 13.75 4.47151 13.75 4.75003C13.75 6.6496 14.8228 7.76261 16.1426 9.01956C17.4038 10.2208 19 11.6262 19 14C19 16.1921 18.2336 17.7536 16.877 18.7334C15.566 19.6802 13.8164 20 12 20C7.62032 20 5 16.8479 5 14C5 12.6739 5.34389 11.4192 5.82129 10.4053C6.28925 9.4115 6.92636 8.56443 7.58398 8.12601C7.81405 7.97263 8.10969 7.95852 8.35352 8.0889C8.59738 8.21941 8.75 8.47344 8.75 8.75003C8.75 9.8987 9.29573 10.8576 10.0146 11.5352C10.1803 11.6913 10.3535 11.8283 10.5264 11.9483C10.0304 10.4916 10.0683 9.05119 10.3721 7.81448C10.7849 6.13458 11.7135 4.72425 12.5752 4.13187ZM12.5049 6.48245C12.2381 6.94276 11.9895 7.51612 11.8281 8.17288C11.485 9.5699 11.5621 11.2412 12.624 12.834C12.7728 13.0572 12.791 13.3427 12.6719 13.583C12.5528 13.8233 12.3145 13.9823 12.0469 13.9991C11.5493 14.0302 11.0062 13.8878 10.502 13.6582C9.98689 13.4237 9.45975 13.0741 8.98535 12.627C8.37814 12.0546 7.83711 11.3017 7.52637 10.4004C7.40746 10.5928 7.29012 10.8083 7.17871 11.045C6.78118 11.8893 6.5 12.9263 6.5 14C6.5 15.9522 8.3798 18.5 12 18.5C13.6836 18.5 15.059 18.1948 15.998 17.5166C16.8914 16.8714 17.5 15.8079 17.5 14C17.5 12.3741 16.4711 11.4043 15.1074 10.1055C14.1231 9.16805 12.9985 8.07739 12.5049 6.48245Z" fill="black"/>
</svg>
