<svg width="24" height="24" viewBox="0 0 24 24" fill="none" xmlns="http://www.w3.org/2000/svg">
<path fill-rule="evenodd" clip-rule="evenodd" d="M12 6.99987C14.1115 6.99987 16.0599 7.49997 17.5059 8.34753C18.9339 9.18467 19.9998 10.4508 20 11.9999C20 13.5491 18.934 14.815 17.5059 15.6522C16.0599 16.4998 14.1116 16.9999 12 16.9999C9.90437 16.9999 8.26546 15.9772 7.13086 14.9286L5.28027 16.7801C5.06579 16.9946 4.74313 17.0593 4.46289 16.9432C4.1827 16.8271 4 16.5532 4 16.2499V7.74987C4.00013 7.44666 4.18274 7.17256 4.46289 7.05651C4.74303 6.94057 5.06582 7.00528 5.28027 7.2196L7.13086 9.07019C8.26543 8.02181 9.90478 6.99987 12 6.99987ZM12 8.49987C10.1394 8.49987 8.67466 9.56749 7.67773 10.6395C7.53911 10.7885 7.34603 10.875 7.14258 10.8788C6.93901 10.8825 6.74262 10.803 6.59863 10.6591L5.5 9.56042V14.4393L6.59863 13.3407L6.65527 13.2899C6.79205 13.1785 6.96458 13.1177 7.14258 13.121C7.34595 13.1247 7.53912 13.2114 7.67773 13.3602C8.67467 14.4323 10.1393 15.4999 12 15.4999C13.8924 15.4999 15.569 15.0488 16.7471 14.3583C17.9428 13.6573 18.5 12.7978 18.5 11.9999C18.4998 11.202 17.9427 10.3424 16.7471 9.64147C15.569 8.95102 13.8923 8.49987 12 8.49987ZM15 10.9999C15.5522 10.9999 15.9998 11.4477 16 11.9999C16 12.5522 15.5523 12.9999 15 12.9999C14.4477 12.9999 14 12.5522 14 11.9999C14.0002 11.4477 14.4478 10.9999 15 10.9999Z" fill="black"/>
</svg>
