<svg width="24" height="24" viewBox="0 0 24 24" fill="none" xmlns="http://www.w3.org/2000/svg">
<path fill-rule="evenodd" clip-rule="evenodd" d="M14.6855 13.9999C16.0354 13.9999 17.2946 14.2683 18.2441 14.7362C19.1458 15.1806 19.9998 15.936 20 16.9999C20 18.0639 19.1458 18.8191 18.2441 19.2635C17.2946 19.7315 16.0355 19.9998 14.6855 19.9999C13.3906 19.9999 12.3561 19.4966 11.6133 18.951L9.01953 19.9501C8.7889 20.0388 8.52888 20.0079 8.3252 19.868C8.12171 19.7281 8 19.4968 8 19.2499V14.7499C8.00011 14.503 8.1217 14.2715 8.3252 14.1317C8.52883 13.9919 8.78899 13.9611 9.01953 14.0497L11.6133 15.0477C12.356 14.5023 13.3909 13.9999 14.6855 13.9999ZM14.6855 15.4999C13.6438 15.4999 12.8152 15.971 12.2285 16.4716C12.0193 16.6499 11.7292 16.6991 11.4727 16.6005L9.5 15.8417V18.1571L11.4727 17.3993L11.5703 17.369C11.8004 17.3149 12.0455 17.3723 12.2285 17.5282C12.8152 18.0288 13.6437 18.4999 14.6855 18.4999C15.8561 18.4998 16.8787 18.264 17.5811 17.9178C18.3313 17.548 18.5 17.1784 18.5 16.9999C18.4998 16.8212 18.331 16.4515 17.5811 16.0819C16.8787 15.7358 15.8561 15.4999 14.6855 15.4999ZM4.46289 4.05651C4.74303 3.94057 5.06582 4.00528 5.28027 4.2196L7.45703 6.39636C8.5791 5.657 10.1087 4.99987 12 4.99987C14.0826 4.99987 16.0045 5.37687 17.4336 6.01745C18.1471 6.33732 18.7705 6.73831 19.2256 7.22058C19.6844 7.70687 19.9999 8.30953 20 8.99987C20 9.69027 19.6843 10.2928 19.2256 10.7792C18.7705 11.2615 18.1471 11.6624 17.4336 11.9823C16.0045 12.6229 14.0826 12.9999 12 12.9999C10.1084 12.9999 8.57916 12.3419 7.45703 11.6024L5.28027 13.7801C5.06579 13.9946 4.74313 14.0593 4.46289 13.9432C4.1827 13.8271 4 13.5532 4 13.2499V4.74987C4.00013 4.44666 4.18274 4.17256 4.46289 4.05651ZM12 6.49987C10.2111 6.49987 8.8049 7.22407 7.83008 7.9696C7.53148 8.19799 7.10957 8.16999 6.84375 7.90417L5.5 6.56042V11.4393L6.84375 10.0956L6.9502 10.0067C7.213 9.82642 7.56881 9.83042 7.83008 10.0301C8.8049 10.7757 10.211 11.4999 12 11.4999C13.9214 11.4999 15.6244 11.1488 16.8193 10.6132C17.4176 10.345 17.8562 10.0451 18.1348 9.74987C18.4093 9.45877 18.5 9.2067 18.5 8.99987C18.4999 8.79307 18.4093 8.54089 18.1348 8.24987C17.8562 7.95468 17.4175 7.65475 16.8193 7.38659C15.6244 6.85101 13.9213 6.49987 12 6.49987ZM15 7.99987C15.5522 7.99987 15.9998 8.44774 16 8.99987C16 9.55216 15.5523 9.99987 15 9.99987C14.4477 9.99987 14 9.55216 14 8.99987C14.0002 8.44774 14.4478 7.99987 15 7.99987Z" fill="black"/>
</svg>
