<svg width="24" height="24" viewBox="0 0 24 24" fill="none" xmlns="http://www.w3.org/2000/svg">
<path fill-rule="evenodd" clip-rule="evenodd" d="M7.38086 4.17906C8.6811 3.85405 10.4605 3.86932 12.4053 5.11949C13.9601 6.11897 15.3062 6.10395 16.2559 5.86656C16.7397 5.74557 17.1302 5.56371 17.3975 5.41343C17.5305 5.33862 17.6317 5.27187 17.6963 5.22691C17.7283 5.2046 17.7513 5.18723 17.7646 5.17711C17.7693 5.17358 17.7731 5.17102 17.7754 5.16929C17.9996 4.98612 18.3096 4.9486 18.5713 5.07261C18.833 5.19676 19 5.46065 19 5.75035V13.2503C18.9999 13.4752 18.8986 13.6881 18.7246 13.8304L18.25 13.2503L18.7246 13.8314L18.7236 13.8324L18.7217 13.8334C18.7206 13.8342 18.7191 13.8352 18.7178 13.8363C18.7147 13.8388 18.7104 13.8426 18.7061 13.8461C18.6973 13.853 18.6857 13.8619 18.6719 13.8724C18.6432 13.8942 18.6034 13.9237 18.5537 13.9584C18.4543 14.0276 18.3128 14.1194 18.1338 14.2201C17.7761 14.4212 17.2597 14.6615 16.6191 14.8216C15.319 15.1466 13.5394 15.1312 11.5947 13.8812C10.0397 12.8816 8.69384 12.8967 7.74414 13.1341C7.26025 13.2551 6.86979 13.437 6.60254 13.5873C6.56597 13.6078 6.5316 13.6288 6.5 13.6478V19.2503C6.49979 19.6644 6.16408 20.0003 5.75 20.0003C5.33592 20.0003 5.00021 19.6644 5 19.2503V5.75035C5 5.52548 5.10141 5.31272 5.27539 5.17027L5.75 5.75035C5.31106 5.21386 5.27763 5.17263 5.27539 5.16929L5.27637 5.16832L5.27832 5.16734C5.27939 5.16648 5.28088 5.16548 5.28223 5.16441C5.28526 5.16198 5.28956 5.15811 5.29395 5.15465C5.30269 5.14775 5.31425 5.13881 5.32812 5.12828C5.35676 5.10655 5.39656 5.07697 5.44629 5.04234C5.54567 4.97313 5.68719 4.88135 5.86621 4.78062C6.22387 4.57944 6.74025 4.33922 7.38086 4.17906ZM11.5947 6.38121C10.0397 5.38157 8.69384 5.39671 7.74414 5.63414C7.26025 5.75515 6.86979 5.93698 6.60254 6.08726C6.56598 6.10783 6.5316 6.12883 6.5 6.14781V11.972C6.75789 11.8642 7.0531 11.761 7.38086 11.6791C8.6811 11.3541 10.4605 11.3693 12.4053 12.6195C13.9601 13.619 15.3062 13.604 16.2559 13.3666C16.7397 13.2456 17.1302 13.0637 17.3975 12.9134C17.4342 12.8928 17.4683 12.871 17.5 12.8519V7.02769C17.242 7.13556 16.947 7.23967 16.6191 7.32164C15.319 7.64661 13.5394 7.63123 11.5947 6.38121Z" fill="black"/>
</svg>
