<svg width="24" height="24" viewBox="0 0 24 24" fill="none" xmlns="http://www.w3.org/2000/svg">
<path d="M18.8545 5.1123C18.8533 5.11299 18.8514 5.11329 18.8496 5.11426C19.1507 4.92454 19.5461 4.97365 19.793 5.23242C20.0441 5.49591 20.0695 5.90223 19.8535 6.19531L16.6816 10.5L19.8535 14.8047C20.0499 15.0711 20.0482 15.4354 19.8496 15.7002L19.25 15.25C19.8476 15.6982 19.85 15.7007 19.8496 15.7012L19.8467 15.7041C19.8457 15.7053 19.8448 15.7067 19.8438 15.708C19.8414 15.711 19.8387 15.7143 19.8359 15.7178C19.8305 15.7246 19.8245 15.7326 19.8174 15.7412C19.8029 15.7586 19.7847 15.78 19.7627 15.8037C19.7187 15.8511 19.6589 15.9096 19.582 15.9756C19.4275 16.108 19.204 16.2676 18.8975 16.4209C18.2816 16.7288 17.3523 17 16 17C14.5647 17 13.2947 16.4242 12.1953 15.9355C11.0447 15.4242 10.0647 15 9 15C7.84871 15 6.86764 15.231 6.1748 15.4619C5.90011 15.5535 5.67289 15.6454 5.5 15.7207V20H4V5H4.52734C4.55613 4.98241 4.5862 4.96177 4.62012 4.94238C4.81995 4.8282 5.1091 4.68494 5.49414 4.54492C6.26587 4.26436 7.41515 4 9 4C10.6352 4 11.8622 4.41346 12.9375 4.79297C14.0218 5.17566 14.9002 5.5 16 5.5C17.2012 5.5 17.9514 5.37984 18.3809 5.27246C18.5947 5.21898 18.728 5.16856 18.7979 5.13867C18.8282 5.12565 18.8468 5.11624 18.8545 5.1123ZM9 5.5C7.58517 5.5 6.60913 5.73571 6.00586 5.95508C5.7924 6.03272 5.62548 6.111 5.5 6.1748V14.1084C5.56441 14.0854 5.63091 14.0612 5.7002 14.0381C6.50736 13.769 7.65129 13.5 9 13.5C10.4353 13.5 11.7053 14.0758 12.8047 14.5645C13.9553 15.0758 14.9353 15.5 16 15.5C17.1225 15.5 17.8121 15.2801 18.2012 15.0908L15.1465 10.9453C14.9515 10.6807 14.9515 10.3193 15.1465 10.0547L17.4434 6.93555C17.0335 6.97389 16.5556 7 16 7C14.6 7 13.478 6.57428 12.4375 6.20703C11.3879 5.83659 10.3646 5.5 9 5.5ZM18.8467 5.11719C18.8451 5.11822 18.8428 5.11884 18.8408 5.12012C18.8438 5.1182 18.8466 5.11613 18.8496 5.11426C18.8485 5.11486 18.8479 5.11644 18.8467 5.11719Z" fill="black"/>
</svg>
