<svg width="24" height="24" viewBox="0 0 24 24" fill="none" xmlns="http://www.w3.org/2000/svg">
<path d="M5.5 4.22363L19.5049 9.29492C19.7236 9.3741 19.894 9.54997 19.9648 9.77148C20.0356 9.99315 19.9987 10.2354 19.8662 10.4268L19.25 10C19.8647 10.4256 19.8664 10.4274 19.8662 10.4277L19.8643 10.4297C19.8634 10.4309 19.8625 10.4329 19.8613 10.4346C19.8591 10.4378 19.8559 10.4416 19.8525 10.4463C19.8457 10.4559 19.8366 10.469 19.8252 10.4844C19.8023 10.5152 19.77 10.5577 19.7285 10.6094C19.6453 10.7131 19.5241 10.856 19.3643 11.0244C19.0447 11.3612 18.5676 11.8037 17.9238 12.2441C16.631 13.1287 14.6731 14 12 14C9.60306 14 7.88929 14.479 6.79102 14.9414C6.24095 15.173 5.84238 15.4014 5.58789 15.5664C5.556 15.5871 5.52743 15.6084 5.5 15.627V20H4V4H5.5V4.22363ZM5.5 13.8906C5.70937 13.783 5.94502 13.6697 6.20898 13.5586C7.48571 13.021 9.397 12.5 12 12.5C14.3268 12.5 15.994 11.7463 17.0762 11.0059C17.4216 10.7695 17.7062 10.5316 17.9355 10.3213L5.5 5.81836V13.8906Z" fill="black"/>
</svg>
