<svg width="24" height="24" viewBox="0 0 24 24" fill="none" xmlns="http://www.w3.org/2000/svg">
<path d="M19.25 6.25C19.6642 6.25 20 6.58579 20 7V17C20 17.4142 19.6642 17.75 19.25 17.75C16.8269 17.75 15.3037 16.7066 14.4531 15.8066C13.9761 15.3019 13.4469 15 12.9619 15H5.75C4.7835 15 4 14.2165 4 13.25V10.75C4 9.7835 4.7835 9 5.75 9H12.9619C13.4469 9 13.9761 8.69808 14.4531 8.19336C15.3037 7.29339 16.8269 6.25 19.25 6.25ZM18.5 7.79395C17.0081 7.97075 16.079 8.65646 15.543 9.22363C14.9426 9.85891 14.0454 10.5 12.9619 10.5H5.75C5.61193 10.5 5.5 10.6119 5.5 10.75V13.25C5.5 13.3881 5.61193 13.5 5.75 13.5H12.9619C14.0454 13.5 14.9426 14.1411 15.543 14.7764C16.079 15.3435 17.0081 16.0282 18.5 16.2051V7.79395ZM13.25 11.25C13.6642 11.25 14 11.5858 14 12C14 12.4142 13.6642 12.75 13.25 12.75H12.75C12.3358 12.75 12 12.4142 12 12C12 11.5858 12.3358 11.25 12.75 11.25H13.25Z" fill="black"/>
</svg>
