<svg width="24" height="24" viewBox="0 0 24 24" fill="none" xmlns="http://www.w3.org/2000/svg">
<path fill-rule="evenodd" clip-rule="evenodd" d="M12.0001 4C12.4143 4 12.7501 4.33579 12.7501 4.75V19.25C12.7501 19.6642 12.4143 20 12.0001 20C11.5859 20 11.2501 19.6642 11.2501 19.25V4.75C11.2501 4.33579 11.5859 4 12.0001 4ZM9.37903 5.01074C9.73807 5.0734 10.0001 5.38553 10.0001 5.75V18.25C10.0001 18.6642 9.66434 19 9.25012 19H4.75012C4.50606 19 4.2773 18.8812 4.13684 18.6816C3.99645 18.4819 3.96145 18.2258 4.04407 17.9961L8.54407 5.49609C8.66751 5.15321 9.02002 4.94814 9.37903 5.01074ZM14.6212 5.01074C14.9802 4.94814 15.3327 5.15321 15.4562 5.49609L19.9562 17.9961C20.0388 18.2258 20.0038 18.4819 19.8634 18.6816C19.7229 18.8812 19.4942 19 19.2501 19H14.7501C14.3359 19 14.0001 18.6642 14.0001 18.25V5.75C14.0001 5.38553 14.2622 5.0734 14.6212 5.01074ZM5.8175 17.5H8.50012V10.0479L5.8175 17.5ZM15.5001 17.5H18.1827L15.5001 10.0479V17.5Z" fill="black"/>
</svg>
