<svg width="24" height="24" viewBox="0 0 24 24" fill="none" xmlns="http://www.w3.org/2000/svg">
<path d="M12 17C12.4142 17 12.75 17.3358 12.75 17.75V19.25C12.75 19.6642 12.4142 20 12 20C11.5858 20 11.25 19.6642 11.25 19.25V17.75C11.25 17.3358 11.5858 17 12 17ZM12 14C12.4142 14 12.75 14.3358 12.75 14.75V15.25C12.75 15.6642 12.4142 16 12 16C11.5858 16 11.25 15.6642 11.25 15.25V14.75C11.25 14.3358 11.5858 14 12 14ZM6.19238 9.24805C6.46948 8.94022 6.94409 8.91531 7.25195 9.19238L9.75195 11.4424C9.90996 11.5846 10 11.7874 10 12C10 12.2126 9.90996 12.4154 9.75195 12.5576L7.25195 14.8076C6.94409 15.0847 6.46948 15.0598 6.19238 14.752C5.9153 14.4441 5.94022 13.9695 6.24805 13.6924L7.29492 12.75H4.75C4.33579 12.75 4 12.4142 4 12C4 11.5858 4.33579 11.25 4.75 11.25H7.29492L6.24805 10.3076C5.94022 10.0305 5.9153 9.55591 6.19238 9.24805ZM16.748 9.19238C17.0559 8.91531 17.5305 8.94022 17.8076 9.24805C18.0847 9.55591 18.0598 10.0305 17.752 10.3076L16.7051 11.25H19.25C19.6642 11.25 20 11.5858 20 12C20 12.4142 19.6642 12.75 19.25 12.75H16.7051L17.752 13.6924C18.0598 13.9695 18.0847 14.4441 17.8076 14.752C17.5305 15.0598 17.0559 15.0847 16.748 14.8076L14.248 12.5576C14.09 12.4154 14 12.2126 14 12C14 11.7874 14.09 11.5846 14.248 11.4424L16.748 9.19238ZM12 11C12.4142 11 12.75 11.3358 12.75 11.75V12.25C12.75 12.6642 12.4142 13 12 13C11.5858 13 11.25 12.6642 11.25 12.25V11.75C11.25 11.3358 11.5858 11 12 11ZM12 8C12.4142 8 12.75 8.33579 12.75 8.75V9.25C12.75 9.66421 12.4142 10 12 10C11.5858 10 11.25 9.66421 11.25 9.25V8.75C11.25 8.33579 11.5858 8 12 8ZM12 4C12.4142 4 12.75 4.33579 12.75 4.75V6.25C12.75 6.66421 12.4142 7 12 7C11.5858 7 11.25 6.66421 11.25 6.25V4.75C11.25 4.33579 11.5858 4 12 4Z" fill="black"/>
</svg>
