<svg width="24" height="24" viewBox="0 0 24 24" fill="none" xmlns="http://www.w3.org/2000/svg">
<path fill-rule="evenodd" clip-rule="evenodd" d="M18.25 14.0001C18.6145 14.0001 18.9266 14.2622 18.9893 14.6212C19.0519 14.9802 18.8468 15.3327 18.5039 15.4562L6.00391 19.9562C5.77417 20.0388 5.51811 20.0038 5.31836 19.8634C5.11879 19.7229 5 19.4942 5 19.2501V14.7501C5 14.5512 5.07908 14.3605 5.21973 14.2198C5.36038 14.0792 5.55109 14.0001 5.75 14.0001H18.25ZM6.5 18.1818L13.9512 15.5001H6.5V18.1818ZM19.25 11.2501C19.6642 11.2501 20 11.5859 20 12.0001C20 12.4143 19.6642 12.7501 19.25 12.7501H4.75C4.33579 12.7501 4 12.4143 4 12.0001C4 11.5859 4.33579 11.2501 4.75 11.2501H19.25ZM5.31836 4.13684C5.51811 3.99645 5.77417 3.96145 6.00391 4.04407L18.5039 8.54407C18.8468 8.66751 19.0519 9.02002 18.9893 9.37903C18.9266 9.73807 18.6145 10.0001 18.25 10.0001H5.75C5.55109 10.0001 5.36038 9.92105 5.21973 9.7804C5.07908 9.63974 5 9.44903 5 9.25012V4.75012C5 4.50606 5.11879 4.2773 5.31836 4.13684ZM6.5 8.50012H13.9512L6.5 5.8175V8.50012Z" fill="black"/>
</svg>
