<svg width="24" height="24" viewBox="0 0 24 24" fill="none" xmlns="http://www.w3.org/2000/svg">
<path d="M12 14C12.2126 14 12.4154 14.09 12.5576 14.248L14.8076 16.748C15.0847 17.0559 15.0598 17.5305 14.752 17.8076C14.4441 18.0847 13.9695 18.0598 13.6924 17.752L12.75 16.7041V19.25C12.75 19.6642 12.4142 20 12 20C11.5858 20 11.25 19.6642 11.25 19.25V16.7041L10.3076 17.752C10.0305 18.0598 9.55591 18.0847 9.24805 17.8076C8.94022 17.5305 8.9153 17.0559 9.19238 16.748L11.4424 14.248C11.5846 14.09 11.7874 14 12 14ZM6.25 11.25C6.66421 11.25 7 11.5858 7 12C7 12.4142 6.66421 12.75 6.25 12.75H4.75C4.33579 12.75 4 12.4142 4 12C4 11.5858 4.33579 11.25 4.75 11.25H6.25ZM9.25 11.25C9.66421 11.25 10 11.5858 10 12C10 12.4142 9.66421 12.75 9.25 12.75H8.75C8.33579 12.75 8 12.4142 8 12C8 11.5858 8.33579 11.25 8.75 11.25H9.25ZM12.25 11.25C12.6642 11.25 13 11.5858 13 12C13 12.4142 12.6642 12.75 12.25 12.75H11.75C11.3358 12.75 11 12.4142 11 12C11 11.5858 11.3358 11.25 11.75 11.25H12.25ZM15.25 11.25C15.6642 11.25 16 11.5858 16 12C16 12.4142 15.6642 12.75 15.25 12.75H14.75C14.3358 12.75 14 12.4142 14 12C14 11.5858 14.3358 11.25 14.75 11.25H15.25ZM19.25 11.25C19.6642 11.25 20 11.5858 20 12C20 12.4142 19.6642 12.75 19.25 12.75H17.75C17.3358 12.75 17 12.4142 17 12C17 11.5858 17.3358 11.25 17.75 11.25H19.25ZM12 4C12.4142 4 12.75 4.33579 12.75 4.75V7.29492L13.6924 6.24805C13.9695 5.94022 14.4441 5.9153 14.752 6.19238C15.0598 6.46948 15.0847 6.94409 14.8076 7.25195L12.5576 9.75195C12.4154 9.90996 12.2126 10 12 10C11.7874 10 11.5846 9.90996 11.4424 9.75195L9.19238 7.25195C8.9153 6.94409 8.94022 6.46948 9.24805 6.19238C9.55591 5.9153 10.0305 5.94022 10.3076 6.24805L11.25 7.29492V4.75C11.25 4.33579 11.5858 4 12 4Z" fill="black"/>
</svg>
