<svg width="24" height="24" viewBox="0 0 24 24" fill="none" xmlns="http://www.w3.org/2000/svg">
<path d="M20 19H4V17.5H20V19ZM20 15H4V13.5H20V15ZM7 11H4V9.5H7V11ZM13.25 5C14.2165 5 15 5.7835 15 6.75V9.25C15 10.2165 14.2165 11 13.25 11H10.75C9.7835 11 9 10.2165 9 9.25V6.75C9 5.7835 9.7835 5 10.75 5H13.25ZM20 11H17V9.5H20V11ZM10.75 6.5C10.6119 6.5 10.5 6.61193 10.5 6.75V9.25C10.5 9.38807 10.6119 9.5 10.75 9.5H13.25C13.3881 9.5 13.5 9.38807 13.5 9.25V6.75C13.5 6.61193 13.3881 6.5 13.25 6.5H10.75ZM7 6.5H4V5H7V6.5ZM20 6.5H17V5H20V6.5Z" fill="black"/>
</svg>
