<svg width="24" height="24" viewBox="0 0 24 24" fill="none" xmlns="http://www.w3.org/2000/svg">
<path d="M20 19H4V17.5H20V19ZM20 15H4V13.5H20V15ZM12 11H4V9.5H12V11ZM18.25 5C19.2165 5 20 5.7835 20 6.75V9.25C20 10.2165 19.2165 11 18.25 11H15.75C14.7835 11 14 10.2165 14 9.25V6.75C14 5.7835 14.7835 5 15.75 5H18.25ZM15.75 6.5C15.6119 6.5 15.5 6.61193 15.5 6.75V9.25C15.5 9.38807 15.6119 9.5 15.75 9.5H18.25C18.3881 9.5 18.5 9.38807 18.5 9.25V6.75C18.5 6.61193 18.3881 6.5 18.25 6.5H15.75ZM12 6.5H4V5H12V6.5Z" fill="black"/>
</svg>
