<svg width="24" height="24" viewBox="0 0 24 24" fill="none" xmlns="http://www.w3.org/2000/svg">
<path d="M20 19H4V17.5H20V19ZM20 15H4V13.5H20V15ZM8.25 5C9.2165 5 10 5.7835 10 6.75V9.25C10 10.2165 9.2165 11 8.25 11H5.75C4.7835 11 4 10.2165 4 9.25V6.75C4 5.7835 4.7835 5 5.75 5H8.25ZM20 11H12V9.5H20V11ZM5.75 6.5C5.61193 6.5 5.5 6.61193 5.5 6.75V9.25C5.5 9.38807 5.61193 9.5 5.75 9.5H8.25C8.38807 9.5 8.5 9.38807 8.5 9.25V6.75C8.5 6.61193 8.38807 6.5 8.25 6.5H5.75ZM20 6.5H12V5H20V6.5Z" fill="black"/>
</svg>
