<svg width="24" height="24" viewBox="0 0 24 24" fill="none" xmlns="http://www.w3.org/2000/svg">
<path d="M17.25 4C18.7688 4 20 5.23122 20 6.75V17.25C20 18.7688 18.7688 20 17.25 20H6.75C5.23122 20 4 18.7688 4 17.25V6.75C4 5.23122 5.23122 4 6.75 4H17.25ZM5.5 17.25C5.5 17.9404 6.05964 18.5 6.75 18.5H10.5V12.75C10.5 12.6119 10.3881 12.5 10.25 12.5H5.5V17.25ZM16 14C16 14.9665 15.2165 15.75 14.25 15.75H12V18.5H17.25C17.9404 18.5 18.5 17.9404 18.5 17.25V6.75C18.5 6.05964 17.9404 5.5 17.25 5.5H16V14ZM9 11H10.25C11.2165 11 12 11.7835 12 12.75V14.25H14.25C14.3881 14.25 14.5 14.1381 14.5 14V5.5H9V11ZM6.75 5.5C6.05964 5.5 5.5 6.05964 5.5 6.75V11H7.5V5.5H6.75Z" fill="black"/>
</svg>
