<svg width="24" height="24" viewBox="0 0 24 24" fill="none" xmlns="http://www.w3.org/2000/svg">
<path d="M14.1719 4C14.9011 4.00008 15.6006 4.29001 16.1162 4.80566L19.1943 7.88379C19.71 8.39944 19.9999 9.09889 20 9.82812V17.25C20 18.7688 18.7688 20 17.25 20H6.75C5.23122 20 4 18.7688 4 17.25V6.75C4 5.23122 5.23122 4 6.75 4H14.1719ZM6.75 5.5C6.05964 5.5 5.5 6.05964 5.5 6.75V17.25C5.5 17.9404 6.05964 18.5 6.75 18.5H8V15.75C8 14.7835 8.7835 14 9.75 14H14.25C15.2165 14 16 14.7835 16 15.75V18.5H17.25C17.9404 18.5 18.5 17.9404 18.5 17.25V9.82812C18.4999 9.49671 18.3681 9.17869 18.1338 8.94434L15.0557 5.86621C14.8213 5.63186 14.5033 5.50008 14.1719 5.5H9.5V8.25C9.5 8.66421 9.16421 9 8.75 9C8.33579 9 8 8.66421 8 8.25V5.5H6.75ZM9.75 15.5C9.61193 15.5 9.5 15.6119 9.5 15.75V18.5H14.5V15.75C14.5 15.6119 14.3881 15.5 14.25 15.5H9.75Z" fill="black"/>
</svg>
