<svg width="24" height="24" viewBox="0 0 24 24" fill="none" xmlns="http://www.w3.org/2000/svg">
<path d="M14.5 4C16.433 4 18 5.567 18 7.5C18 7.77352 17.9669 8.03979 17.9072 8.2959C19.1393 8.83776 20 10.0674 20 11.5C20 12.9324 19.1391 14.1612 17.9072 14.7031C17.967 14.9595 18 15.2261 18 15.5C18 17.433 16.433 19 14.5 19C13.5195 19 12.6349 18.5958 12 17.9473C11.3651 18.5958 10.4805 19 9.5 19C7.567 19 6 17.433 6 15.5C6 15.2262 6.03204 14.9595 6.0918 14.7031C4.86032 14.161 4 12.9321 4 11.5C4 10.0677 4.86013 8.83795 6.0918 8.2959C6.03219 8.03985 6 7.77345 6 7.5C6 5.567 7.567 4 9.5 4C10.4803 4 11.3651 4.4035 12 5.05176C12.6349 4.4035 13.5197 4 14.5 4ZM14.5 5.5C13.6944 5.5 12.9986 5.9764 12.6816 6.66602C12.5593 6.9322 12.293 7.10254 12 7.10254C11.707 7.10254 11.4407 6.9322 11.3184 6.66602C11.0014 5.9764 10.3056 5.5 9.5 5.5C8.39543 5.5 7.5 6.39543 7.5 7.5C7.5 7.83855 7.58355 8.15579 7.73047 8.43359C7.84347 8.64752 7.84645 8.90273 7.73828 9.11914C7.62997 9.33567 7.4237 9.4866 7.18457 9.52441C6.23009 9.67522 5.5 10.5032 5.5 11.5C5.5 12.4968 6.23008 13.3248 7.18457 13.4756C7.4237 13.5134 7.62997 13.6643 7.73828 13.8809C7.84645 14.0973 7.84347 14.3525 7.73047 14.5664C7.58355 14.8442 7.5 15.1614 7.5 15.5C7.5 16.6046 8.39543 17.5 9.5 17.5C10.3056 17.5 11.0014 17.0236 11.3184 16.334C11.4407 16.0678 11.707 15.8975 12 15.8975C12.293 15.8975 12.5593 16.0678 12.6816 16.334C12.9986 17.0236 13.6944 17.5 14.5 17.5C15.6046 17.5 16.5 16.6046 16.5 15.5C16.5 15.1614 16.4165 14.8442 16.2695 14.5664C16.1565 14.3525 16.1535 14.0973 16.2617 13.8809C16.37 13.6643 16.5763 13.5134 16.8154 13.4756C17.7699 13.3248 18.5 12.4968 18.5 11.5C18.5 10.5032 17.7699 9.67521 16.8154 9.52441C16.5763 9.4866 16.37 9.33567 16.2617 9.11914C16.1535 8.90273 16.1565 8.64752 16.2695 8.43359C16.4165 8.15579 16.5 7.83855 16.5 7.5C16.5 6.39543 15.6046 5.5 14.5 5.5ZM12 8.75C13.6569 8.75 15 10.0931 15 11.75C15 13.4069 13.6569 14.75 12 14.75C10.3431 14.75 9 13.4069 9 11.75C9 10.0931 10.3431 8.75 12 8.75ZM12 10.25C11.1716 10.25 10.5 10.9216 10.5 11.75C10.5 12.5784 11.1716 13.25 12 13.25C12.8284 13.25 13.5 12.5784 13.5 11.75C13.5 10.9216 12.8284 10.25 12 10.25Z" fill="black"/>
</svg>
