<svg width="24" height="24" viewBox="0 0 24 24" fill="none" xmlns="http://www.w3.org/2000/svg">
<path fill-rule="evenodd" clip-rule="evenodd" d="M15.7737 4.17063C15.9977 3.98648 16.3083 3.94725 16.5706 4.07102C16.8329 4.19487 17.0002 4.45966 17.0003 4.74973V9.24973C17.0003 11.7041 15.1384 13.7234 12.7503 13.9734V18.4734C14.3801 18.3547 15.3123 17.8568 15.8323 17.4236C16.1351 17.1712 16.3167 16.9254 16.4192 16.7546C16.4705 16.6691 16.5027 16.6011 16.5198 16.5613C16.528 16.542 16.5336 16.5292 16.5354 16.5241V16.5222C16.6593 16.1331 17.0735 15.9132 17.4661 16.031C17.8625 16.1501 18.0878 16.569 17.969 16.9656L17.2503 16.7497C17.9437 16.9578 17.9674 16.9657 17.968 16.9665V16.9675L17.9466 17.032C17.9352 17.0635 17.9194 17.1048 17.8987 17.1531C17.8573 17.2497 17.7952 17.3779 17.7063 17.5261C17.5276 17.8239 17.2398 18.2036 16.7932 18.5759C15.8883 19.33 14.3974 19.9997 12.0003 19.9997L11.5608 19.9919C9.41862 19.9155 8.05567 19.2829 7.20729 18.5759C6.76054 18.2036 6.47294 17.824 6.29421 17.5261C6.20524 17.3778 6.14328 17.2497 6.10182 17.1531C6.08111 17.1047 6.06535 17.0635 6.05397 17.032L6.03249 16.9675V16.9665C6.03616 16.9648 6.08673 16.9488 6.75026 16.7497L6.03151 16.9656C5.91263 16.5689 6.13787 16.1501 6.53444 16.031C6.92703 15.9134 7.3413 16.1331 7.46511 16.5222V16.5241C7.46695 16.5293 7.47244 16.5419 7.48073 16.5613C7.49783 16.6012 7.52992 16.669 7.58132 16.7546C7.68384 16.9254 7.86527 17.1711 8.16823 17.4236C8.6883 17.8569 9.62011 18.3547 11.2503 18.4734V13.9734C8.86184 13.7236 7.00026 11.7043 7.00026 9.24973V4.74973C7.00037 4.45962 7.16757 4.19485 7.42995 4.07102C7.69227 3.94738 8.0029 3.98635 8.22682 4.17063L9.55397 5.2634C10.0972 4.49994 10.9899 3.99981 12.0003 3.99973C13.0105 3.99989 13.9016 4.501 14.4446 5.26438L15.7737 4.17063ZM12.4768 8.82883C12.2 9.05667 11.8006 9.05666 11.5237 8.82883L8.50026 6.3386V9.24973C8.50026 11.0447 9.95534 12.4997 11.7503 12.4997H12.2503C14.0451 12.4996 15.5003 11.0446 15.5003 9.24973V6.3386L12.4768 8.82883ZM12.0003 5.49973C11.458 5.49981 10.9839 5.78951 10.72 6.22337L12.0003 7.27805L13.2796 6.22434C13.0158 5.79027 12.5427 5.4999 12.0003 5.49973Z" fill="black"/>
</svg>
