<svg width="24" height="24" viewBox="0 0 24 24" fill="none" xmlns="http://www.w3.org/2000/svg">
<path d="M10.8125 4C11.756 4 12.6294 4.48298 13.1318 5.27148L13.2266 5.43359L13.2461 5.46973L13.9736 7H17.25C18.7688 7 20 8.23122 20 9.75V17.25C20 18.7688 18.7688 20 17.25 20H6.75C5.23122 20 4 18.7688 4 17.25V6.75C4 5.23122 5.23122 4 6.75 4H10.8125ZM5.5 17.25C5.5 17.9404 6.05964 18.5 6.75 18.5H13.25V17H12.75C12.3358 17 12 16.6642 12 16.25C12 15.8358 12.3358 15.5 12.75 15.5H13.25V14.5H12.75C12.3358 14.5 12 14.1642 12 13.75C12 13.3358 12.3358 13 12.75 13H13.25V11.75C13.25 11.3358 13.5858 11 14 11C14.4142 11 14.75 11.3358 14.75 11.75V13H15.25C15.6642 13 16 13.3358 16 13.75C16 14.1642 15.6642 14.5 15.25 14.5H14.75V15.5H15.25C15.6642 15.5 16 15.8358 16 16.25C16 16.6642 15.6642 17 15.25 17H14.75V18.5H17.25C17.9404 18.5 18.5 17.9404 18.5 17.25V9.75C18.5 9.05964 17.9404 8.5 17.25 8.5H5.5V17.25ZM6.75 5.5C6.05964 5.5 5.5 6.05964 5.5 6.75V7H12.3135L11.9062 6.14551C11.6864 5.74759 11.2677 5.5 10.8125 5.5H6.75Z" fill="black"/>
</svg>
