<svg width="24" height="24" viewBox="0 0 24 24" fill="none" xmlns="http://www.w3.org/2000/svg">
<path d="M10.8125 4C11.756 4 12.6294 4.48298 13.1318 5.27148L13.2266 5.43359L13.2461 5.46973L13.9736 7H17.25C18.7688 7 20 8.23122 20 9.75V10.25C20 10.6642 19.6642 11 19.25 11C18.8358 11 18.5 10.6642 18.5 10.25V9.75C18.5 9.05964 17.9404 8.5 17.25 8.5H5.5V17.25C5.5 17.9404 6.05964 18.5 6.75 18.5H10.25C10.6642 18.5 11 18.8358 11 19.25C11 19.6642 10.6642 20 10.25 20H6.75C5.23122 20 4 18.7688 4 17.25V6.75C4 5.23122 5.23122 4 6.75 4H10.8125ZM16.5 17C17.4889 17 18.3366 17.4871 18.8877 17.9004C19.1724 18.1139 19.4023 18.3261 19.5615 18.4854C19.6415 18.5654 19.7045 18.6334 19.749 18.6826C19.7713 18.7073 19.7899 18.7274 19.8027 18.7422C19.809 18.7494 19.8144 18.7552 19.8184 18.7598C19.8203 18.762 19.8219 18.764 19.8232 18.7656C19.8239 18.7664 19.8247 18.7679 19.8252 18.7686V18.7695H19.8262L19.8721 18.8311C20.0848 19.1461 20.0287 19.5775 19.7305 19.8262C19.4123 20.0913 18.939 20.0477 18.6738 19.7295C18.6728 19.7283 18.6709 19.7269 18.6689 19.7246C18.6628 19.7175 18.6524 19.7048 18.6377 19.6885C18.608 19.6557 18.5615 19.6065 18.501 19.5459C18.379 19.424 18.2025 19.261 17.9873 19.0996C17.5384 18.763 17.011 18.5 16.5 18.5C15.989 18.5 15.4616 18.763 15.0127 19.0996C14.7975 19.261 14.621 19.424 14.499 19.5459C14.4385 19.6065 14.392 19.6557 14.3623 19.6885C14.3476 19.7048 14.3372 19.7175 14.3311 19.7246C14.3288 19.7272 14.3262 19.7283 14.3252 19.7295C14.06 20.0476 13.5877 20.0913 13.2695 19.8262C12.9515 19.561 12.9087 19.0877 13.1738 18.7695H13.1748V18.7686C13.1753 18.7679 13.1761 18.7664 13.1768 18.7656C13.1781 18.764 13.1797 18.762 13.1816 18.7598C13.1856 18.7552 13.191 18.7494 13.1973 18.7422C13.2101 18.7274 13.2287 18.7073 13.251 18.6826C13.2955 18.6334 13.3585 18.5654 13.4385 18.4854C13.5977 18.3261 13.8276 18.1139 14.1123 17.9004C14.6634 17.4871 15.5111 17 16.5 17ZM16.5 11C17.8807 11 19 12.1193 19 13.5C19 14.8807 17.8807 16 16.5 16C15.1193 16 14 14.8807 14 13.5C14 12.1193 15.1193 11 16.5 11ZM16.5 12.5C15.9477 12.5 15.5 12.9477 15.5 13.5C15.5 14.0523 15.9477 14.5 16.5 14.5C17.0523 14.5 17.5 14.0523 17.5 13.5C17.5 12.9477 17.0523 12.5 16.5 12.5ZM6.75 5.5C6.05964 5.5 5.5 6.05964 5.5 6.75V7H12.3135L11.9062 6.14551C11.6864 5.74759 11.2677 5.5 10.8125 5.5H6.75Z" fill="black"/>
</svg>
