<svg width="24" height="24" viewBox="0 0 24 24" fill="none" xmlns="http://www.w3.org/2000/svg">
<path d="M10.8125 4C11.8188 4 12.7447 4.55003 13.2266 5.43359L14.0811 7H17.25C18.7688 7 20 8.23122 20 9.75V12.25C20 12.6642 19.6642 13 19.25 13C18.8358 13 18.5 12.6642 18.5 12.25V9.75C18.5 9.05964 17.9404 8.5 17.25 8.5H5.5V17.25C5.5 17.9404 6.05964 18.5 6.75 18.5H12.25C12.6642 18.5 13 18.8358 13 19.25C13 19.6642 12.6642 20 12.25 20H6.75C5.23122 20 4 18.7688 4 17.25V6.75C4 5.23122 5.23122 4 6.75 4H10.8125ZM18.7197 15.2197C19.0126 14.9268 19.4874 14.9268 19.7803 15.2197C20.0732 15.5126 20.0732 15.9874 19.7803 16.2803L18.5605 17.5L19.7803 18.7197C20.0732 19.0126 20.0732 19.4874 19.7803 19.7803C19.4874 20.0732 19.0126 20.0732 18.7197 19.7803L17.5 18.5605L16.2803 19.7803C15.9874 20.0732 15.5126 20.0732 15.2197 19.7803C14.9268 19.4874 14.9268 19.0126 15.2197 18.7197L16.4395 17.5L15.2197 16.2803C14.9268 15.9874 14.9268 15.5126 15.2197 15.2197C15.5126 14.9268 15.9874 14.9268 16.2803 15.2197L17.5 16.4395L18.7197 15.2197ZM6.75 5.5C6.05964 5.5 5.5 6.05964 5.5 6.75V7H12.373L11.9102 6.15137C11.6912 5.74987 11.27 5.5 10.8125 5.5H6.75Z" fill="black"/>
</svg>
