<svg width="24" height="24" viewBox="0 0 24 24" fill="none" xmlns="http://www.w3.org/2000/svg">
<path d="M10.8125 4C11.756 4 12.6294 4.48298 13.1318 5.27148L13.2266 5.43359L13.2461 5.46973L13.9736 7H17.25C18.7688 7 20 8.23122 20 9.75V10.25C20 10.6642 19.6642 11 19.25 11C18.8358 11 18.5 10.6642 18.5 10.25V9.75C18.5 9.05964 17.9404 8.5 17.25 8.5H5.5V17.25C5.5 17.9404 6.05964 18.5 6.75 18.5H12.25C12.6642 18.5 13 18.8358 13 19.25C13 19.6642 12.6642 20 12.25 20H6.75C5.23122 20 4 18.7688 4 17.25V6.75C4 5.23122 5.23122 4 6.75 4H10.8125ZM17 12C17.4142 12 17.75 12.3358 17.75 12.75C17.75 13.2106 17.9468 13.8884 18.2939 14.4492C18.6632 15.0456 19.0301 15.25 19.25 15.25C19.6642 15.25 20 15.5858 20 16C20 16.4142 19.6642 16.75 19.25 16.75C19.0301 16.75 18.6632 16.9544 18.2939 17.5508C17.9468 18.1116 17.75 18.7894 17.75 19.25C17.75 19.6642 17.4142 20 17 20C16.5858 20 16.25 19.6642 16.25 19.25C16.25 18.7894 16.0532 18.1116 15.7061 17.5508C15.3368 16.9544 14.9699 16.75 14.75 16.75C14.3358 16.75 14 16.4142 14 16C14 15.5858 14.3358 15.25 14.75 15.25C14.9699 15.25 15.3368 15.0456 15.7061 14.4492C16.0532 13.8884 16.25 13.2106 16.25 12.75C16.25 12.3358 16.5858 12 17 12ZM16.9814 15.2383C16.8221 15.4956 16.6215 15.7628 16.3828 16C16.6215 16.2372 16.8221 16.5044 16.9814 16.7617C16.988 16.7722 16.9936 16.7833 17 16.7939C17.0064 16.7833 17.012 16.7722 17.0186 16.7617C17.1777 16.5046 17.3778 16.2371 17.6162 16C17.3778 15.7629 17.1777 15.4954 17.0186 15.2383C17.012 15.2278 17.0064 15.2167 17 15.2061C16.9936 15.2167 16.988 15.2278 16.9814 15.2383ZM6.75 5.5C6.05964 5.5 5.5 6.05964 5.5 6.75V7H12.3135L11.9062 6.14551C11.6864 5.74759 11.2677 5.5 10.8125 5.5H6.75Z" fill="black"/>
</svg>
