<svg width="24" height="24" viewBox="0 0 24 24" fill="none" xmlns="http://www.w3.org/2000/svg">
<path d="M8.16797 5C8.88785 5 9.58331 5.27284 10.1064 5.76562L11.0381 6.64258C11.2792 6.86971 11.6048 6.99992 11.9473 7H17.25C18.2165 7 19 7.7835 19 8.75V11.1787C19.7461 11.5383 20.1952 12.3936 19.9189 13.2695L18.2773 18.4756C18.1789 18.7876 17.8897 18.9999 17.5625 19H4.75C4.33579 19 4 18.6642 4 18.25V7.75C4 6.21393 5.27105 5.00007 6.7998 5H8.16797ZM7.55664 12.5C7.42387 12.5001 7.32377 12.584 7.29297 12.6816L5.77246 17.5H17.0117L18.4883 12.8184C18.5304 12.6847 18.4357 12.5048 18.2324 12.5H7.55664ZM6.7998 6.5C6.06439 6.50007 5.5 7.07702 5.5 7.75V13.3789L5.8623 12.2305C6.0961 11.4891 6.78976 11.0001 7.55664 11H17.5V8.75C17.5 8.61193 17.3881 8.5 17.25 8.5H11.9473C11.2275 8.49992 10.5328 8.22709 10.0098 7.73438L9.07812 6.85742C8.83693 6.63021 8.51055 6.5 8.16797 6.5H6.7998Z" fill="black"/>
</svg>
