<svg width="24" height="24" viewBox="0 0 24 24" fill="none" xmlns="http://www.w3.org/2000/svg">
<path d="M10.8125 4C11.756 4 12.6294 4.48298 13.1318 5.27148L13.2266 5.43359L13.2461 5.46973L13.9736 7H17.25C18.7688 7 20 8.23122 20 9.75V10.25C20 10.6642 19.6642 11 19.25 11C18.8358 11 18.5 10.6642 18.5 10.25V9.75C18.5 9.05964 17.9404 8.5 17.25 8.5H5.5V17.25C5.5 17.9404 6.05964 18.5 6.75 18.5H10.25C10.6642 18.5 11 18.8358 11 19.25C11 19.6642 10.6642 20 10.25 20H6.75C5.23122 20 4 18.7688 4 17.25V6.75C4 5.23122 5.23122 4 6.75 4H10.8125ZM15.5 12C17.433 12 19 13.567 19 15.5C19 16.1949 18.7955 16.8412 18.4463 17.3857L19.7803 18.7197C20.0732 19.0126 20.0732 19.4874 19.7803 19.7803C19.4874 20.0732 19.0126 20.0732 18.7197 19.7803L17.3857 18.4463C16.8412 18.7955 16.1949 19 15.5 19C13.567 19 12 17.433 12 15.5C12 13.567 13.567 12 15.5 12ZM15.5 13.5C14.3954 13.5 13.5 14.3954 13.5 15.5C13.5 16.6046 14.3954 17.5 15.5 17.5C16.6046 17.5 17.5 16.6046 17.5 15.5C17.5 14.3954 16.6046 13.5 15.5 13.5ZM6.75 5.5C6.05964 5.5 5.5 6.05964 5.5 6.75V7H12.3135L11.9062 6.14551C11.6864 5.74759 11.2677 5.5 10.8125 5.5H6.75Z" fill="black"/>
</svg>
