<svg width="24" height="24" viewBox="0 0 24 24" fill="none" xmlns="http://www.w3.org/2000/svg">
<path d="M10.25 13C10.6642 13 11 13.3358 11 13.75V17.25C11 17.6642 10.6642 18 10.25 18C9.83579 18 9.5 17.6642 9.5 17.25V15.5605L5.28027 19.7803C4.98738 20.0732 4.51262 20.0732 4.21973 19.7803C3.92683 19.4874 3.92683 19.0126 4.21973 18.7197L8.43945 14.5H6.75C6.33579 14.5 6 14.1642 6 13.75C6 13.3358 6.33579 13 6.75 13H10.25ZM10.8125 4C11.756 4 12.6294 4.48298 13.1318 5.27148L13.2266 5.43359L13.2461 5.46973L13.9736 7H17.25C18.7688 7 20 8.23122 20 9.75V17.25C20 18.7688 18.7688 20 17.25 20H13.75C13.3358 20 13 19.6642 13 19.25C13 18.8358 13.3358 18.5 13.75 18.5H17.25C17.9404 18.5 18.5 17.9404 18.5 17.25V9.75C18.5 9.05964 17.9404 8.5 17.25 8.5H5.5V10.25C5.5 10.6642 5.16421 11 4.75 11C4.33579 11 4 10.6642 4 10.25V6.75C4 5.23122 5.23122 4 6.75 4H10.8125ZM6.75 5.5C6.05964 5.5 5.5 6.05964 5.5 6.75V7H12.3135L11.9062 6.14551C11.6864 5.74759 11.2677 5.5 10.8125 5.5H6.75Z" fill="black"/>
</svg>
