<svg width="24" height="24" viewBox="0 0 24 24" fill="none" xmlns="http://www.w3.org/2000/svg">
<path fill-rule="evenodd" clip-rule="evenodd" d="M9.99985 5C10.2506 5 10.4848 5.12534 10.6239 5.33398L12.327 7.88867C12.3734 7.95821 12.4514 7.99999 12.535 8H18.2499C19.2163 8 19.9999 8.7835 19.9999 9.75V18.25C19.9999 18.6642 19.6641 19 19.2499 19H9.02915C7.95669 18.9999 6.98252 18.3761 6.53305 17.4023L4.06919 12.0645C3.96201 11.8322 3.98017 11.5611 4.11801 11.3457C4.25586 11.1303 4.49409 11 4.74985 11H16.2499C16.5423 11 16.8079 11.1701 16.9305 11.4355L18.4999 14.835V9.75C18.4999 9.61193 18.3879 9.5 18.2499 9.5H12.535C11.9499 9.49999 11.4035 9.20754 11.079 8.7207L9.59848 6.5H6.74985C6.61178 6.5 6.49985 6.61193 6.49985 6.75V9.25C6.49985 9.66421 6.16406 10 5.74985 10C5.33564 10 4.99985 9.66421 4.99985 9.25V6.75C4.99985 5.7835 5.78335 5 6.74985 5H9.99985ZM7.89438 16.7734C8.09865 17.216 8.54173 17.4999 9.02915 17.5H18.078L15.7704 12.5H5.92173L7.89438 16.7734Z" fill="black"/>
</svg>
