<svg width="24" height="24" viewBox="0 0 24 24" fill="none" xmlns="http://www.w3.org/2000/svg">
<path d="M10.8125 4C11.8188 4 12.7447 4.55013 13.2266 5.43359L14.0811 7H17.25C18.7688 7 20 8.23122 20 9.75V12.25C20 12.6642 19.6642 13 19.25 13C18.8358 13 18.5 12.6642 18.5 12.25V9.75C18.5 9.05964 17.9404 8.5 17.25 8.5H5.5V17.25C5.5 17.9404 6.05964 18.5 6.75 18.5H12.25C12.6642 18.5 13 18.8358 13 19.25C13 19.6642 12.6642 20 12.25 20H6.75C5.23122 20 4 18.7688 4 17.25V6.75C4 5.23122 5.23122 4 6.75 4H10.8125ZM17 14C17.4142 14 17.75 14.3358 17.75 14.75V16.25H19.25C19.6642 16.25 20 16.5858 20 17C20 17.4142 19.6642 17.75 19.25 17.75H17.75V19.25C17.75 19.6642 17.4142 20 17 20C16.5858 20 16.25 19.6642 16.25 19.25V17.75H14.75C14.3358 17.75 14 17.4142 14 17C14 16.5858 14.3358 16.25 14.75 16.25H16.25V14.75C16.25 14.3358 16.5858 14 17 14ZM6.75 5.5C6.05964 5.5 5.5 6.05964 5.5 6.75V7H12.373L11.9102 6.15137C11.6911 5.74981 11.2699 5.5 10.8125 5.5H6.75Z" fill="black"/>
</svg>
