<svg width="24" height="24" viewBox="0 0 24 24" fill="none" xmlns="http://www.w3.org/2000/svg">
<path d="M10.8125 4C11.756 4 12.6294 4.48298 13.1318 5.27148L13.2266 5.43359L13.2461 5.46973L13.9736 7H17.25C18.7688 7 20 8.23122 20 9.75V10.25C20 10.6642 19.6642 11 19.25 11C18.8358 11 18.5 10.6642 18.5 10.25V9.75C18.5 9.05964 17.9404 8.5 17.25 8.5H5.5V17.25C5.5 17.9404 6.05964 18.5 6.75 18.5H11.25C11.6642 18.5 12 18.8358 12 19.25C12 19.6642 11.6642 20 11.25 20H6.75C5.23122 20 4 18.7688 4 17.25V6.75C4 5.23122 5.23122 4 6.75 4H10.8125ZM17 13C17.4142 13 17.75 13.3358 17.75 13.75V17.2949L18.6924 16.248C18.9695 15.9402 19.4441 15.9153 19.752 16.1924C20.0598 16.4695 20.0847 16.9441 19.8076 17.252L17.5576 19.752C17.4154 19.91 17.2126 20 17 20C16.7874 20 16.5846 19.91 16.4424 19.752L14.1924 17.252C13.9153 16.9441 13.9402 16.4695 14.248 16.1924C14.5559 15.9153 15.0305 15.9402 15.3076 16.248L16.25 17.2949V13.75C16.25 13.3358 16.5858 13 17 13ZM6.75 5.5C6.05964 5.5 5.5 6.05964 5.5 6.75V7H12.3135L11.9062 6.14551C11.6864 5.74759 11.2677 5.5 10.8125 5.5H6.75Z" fill="black"/>
</svg>
