<svg width="24" height="24" viewBox="0 0 24 24" fill="none" xmlns="http://www.w3.org/2000/svg">
<path d="M10.8125 4C11.8188 4 12.7447 4.55013 13.2266 5.43359L14.0811 7H17.25C18.7688 7 20 8.23122 20 9.75V11.25C20 11.6642 19.6642 12 19.25 12C18.8358 12 18.5 11.6642 18.5 11.25V9.75C18.5 9.05964 17.9404 8.5 17.25 8.5H13.2334L13.2012 8.51758L13.1914 8.5H5.5V17.25C5.5 17.9404 6.05964 18.5 6.75 18.5H10.25C10.6642 18.5 11 18.8358 11 19.25C11 19.6642 10.6642 20 10.25 20H6.75C5.23122 20 4 18.7688 4 17.25V6.75C4 5.23122 5.23122 4 6.75 4H10.8125ZM18.6602 15.2871C18.916 14.9615 19.3872 14.9046 19.7129 15.1602C20.0385 15.416 20.0954 15.8872 19.8398 16.2129L17.0898 19.7129C16.9635 19.8737 16.7767 19.9761 16.5732 19.9961C16.3698 20.0161 16.1669 19.9524 16.0117 19.8193L14.2617 18.3193C13.9474 18.0497 13.9111 17.5762 14.1807 17.2617C14.4503 16.9474 14.9238 16.9111 15.2383 17.1807L16.3936 18.1709L18.6602 15.2871ZM6.75 5.5C6.05964 5.5 5.5 6.05964 5.5 6.75V7H12.373L11.9102 6.15137C11.6911 5.74981 11.2699 5.5 10.8125 5.5H6.75Z" fill="black"/>
</svg>
