<svg width="24" height="24" viewBox="0 0 24 24" fill="none" xmlns="http://www.w3.org/2000/svg">
<path fill-rule="evenodd" clip-rule="evenodd" d="M18.6297 4.32687C18.8629 3.98494 19.3305 3.89672 19.6726 4.1296C20.0148 4.36292 20.1031 4.83036 19.8699 5.17257C17.7342 8.30487 14.4513 8.0636 11.8211 8.09347C11.1581 8.10101 10.5304 8.12324 9.93827 8.19405C10.0404 9.10415 10.2163 10.0643 10.3943 11.0525C10.5195 11.7473 10.6434 12.4571 10.7381 13.1511L13.7937 12.279C14.192 12.1653 14.6077 12.3964 14.7215 12.7946C14.8349 13.1927 14.6039 13.6076 14.2058 13.7214L10.8836 14.6696C10.927 15.6157 10.8622 16.5462 10.5564 17.364C10.1663 18.4072 9.40547 19.2194 8.16385 19.6501C7.29191 19.9526 6.34386 19.8066 5.63456 19.3552C4.9117 18.895 4.38222 18.0709 4.52323 17.0495C4.64746 16.1503 5.14422 15.2636 6.19217 14.5964C6.54323 14.3729 6.91832 14.2433 7.241 14.1511L9.28006 13.5681C9.18958 12.8529 9.05822 12.0989 8.91776 11.3191C8.75213 10.3995 8.57839 9.44157 8.46756 8.51827C8.36153 8.55541 8.25624 8.59443 8.15311 8.63839C7.12644 9.07608 6.17808 9.89753 5.43436 11.5564C5.26495 11.9343 4.82108 12.1036 4.44315 11.9343C4.0656 11.7647 3.89601 11.3208 4.06522 10.9431C4.94638 8.97754 6.15469 7.86082 7.56522 7.25948C8.93427 6.67588 10.4293 6.6091 11.8035 6.59347C14.6733 6.56086 17.0154 6.69443 18.6297 4.32687ZM7.65311 15.5935C7.38136 15.6711 7.16833 15.7525 6.99784 15.861C6.31247 16.2973 6.07221 16.8014 6.00956 17.2546C5.96359 17.5876 6.11376 17.8818 6.44022 18.0896C6.78033 18.306 7.25175 18.3786 7.67166 18.2331C8.48521 17.9509 8.91522 17.4695 9.15116 16.8386C9.32954 16.3614 9.40139 15.7778 9.3953 15.0954L7.65311 15.5935Z" fill="black"/>
</svg>
