<svg width="24" height="24" viewBox="0 0 24 24" fill="none" xmlns="http://www.w3.org/2000/svg">
<path fill-rule="evenodd" clip-rule="evenodd" d="M8.99981 6C9.32095 6 9.60636 6.20475 9.70977 6.50879L13.9598 19.0088C14.093 19.4009 13.8831 19.8266 13.491 19.96C13.0989 20.0931 12.6731 19.8833 12.5398 19.4912L11.0125 15H6.98711L5.45977 19.4912C5.32642 19.8833 4.9007 20.0932 4.50859 19.96C4.11662 19.8266 3.90668 19.4008 4.03984 19.0088L8.28984 6.50879L8.33672 6.39941C8.46499 6.15662 8.71886 6.00008 8.99981 6ZM16.9998 4C17.2124 4 17.4152 4.09011 17.5574 4.24805L19.8074 6.74805C20.0845 7.05591 20.0596 7.53052 19.7518 7.80762C19.4439 8.08459 18.9693 8.05975 18.6922 7.75195L17.7498 6.7041V14.2939L18.6922 13.248C18.9693 12.9403 19.4439 12.9154 19.7518 13.1924C20.0596 13.4695 20.0845 13.9441 19.8074 14.252L17.5574 16.752C17.4152 16.9099 17.2124 17 16.9998 17C16.7873 16.9999 16.5844 16.9099 16.4422 16.752L14.1922 14.252C13.9152 13.9441 13.9402 13.4695 14.2479 13.1924C14.5557 12.9153 15.0303 12.9403 15.3074 13.248L16.2498 14.2939V6.7041L15.3074 7.75195C15.0303 8.05969 14.5557 8.08466 14.2479 7.80762C13.9402 7.53053 13.9152 7.05588 14.1922 6.74805L16.4422 4.24805L16.4988 4.19238C16.6357 4.06937 16.8139 4.00005 16.9998 4ZM7.49688 13.5H10.5027L8.99981 9.0791L7.49688 13.5Z" fill="black"/>
</svg>
