<svg width="24" height="24" viewBox="0 0 24 24" fill="none" xmlns="http://www.w3.org/2000/svg">
<path d="M12 4C13.7891 4 15.4419 4.25963 16.6738 4.70312C17.2865 4.9237 17.8353 5.20396 18.2451 5.55273C18.652 5.89902 19 6.38542 19 7V17C19 17.6146 18.652 18.101 18.2451 18.4473C17.8353 18.796 17.2865 19.0763 16.6738 19.2969C15.4419 19.7404 13.7891 20 12 20C10.2109 20 8.5581 19.7404 7.32617 19.2969C6.71353 19.0763 6.16468 18.796 5.75488 18.4473C5.34803 18.101 5 17.6146 5 17V7C5 6.38542 5.34803 5.89902 5.75488 5.55273C6.16468 5.20396 6.71353 4.9237 7.32617 4.70312C8.5581 4.25963 10.2109 4 12 4ZM17.5 8.9375C17.2445 9.0712 16.9667 9.19142 16.6738 9.29688C15.4419 9.74037 13.7891 10 12 10C10.2109 10 8.5581 9.74037 7.32617 9.29688C7.03326 9.19142 6.75549 9.0712 6.5 8.9375V17C6.5 17.0067 6.50186 17.1126 6.72754 17.3047C6.95023 17.4942 7.31684 17.6992 7.83496 17.8857C8.86507 18.2565 10.3376 18.5 12 18.5C13.6624 18.5 15.1349 18.2565 16.165 17.8857C16.6832 17.6992 17.0498 17.4942 17.2725 17.3047C17.4981 17.1126 17.5 17.0067 17.5 17V8.9375ZM14.25 12C14.6642 12 15 12.3358 15 12.75V16.25C15 16.6642 14.6642 17 14.25 17H9.75C9.33579 17 9 16.6642 9 16.25V12.75C9 12.3358 9.33579 12 9.75 12H14.25ZM10.5 15.5H13.5V13.5H10.5V15.5ZM12 5.5C10.3376 5.5 8.86507 5.7435 7.83496 6.11426C7.31684 6.30078 6.95023 6.50583 6.72754 6.69531C6.50186 6.8874 6.5 6.99326 6.5 7C6.5 7.00674 6.50186 7.1126 6.72754 7.30469C6.95023 7.49417 7.31684 7.69922 7.83496 7.88574C8.86507 8.2565 10.3376 8.5 12 8.5C13.6624 8.5 15.1349 8.2565 16.165 7.88574C16.6832 7.69922 17.0498 7.49417 17.2725 7.30469C17.4981 7.1126 17.5 7.00674 17.5 7C17.5 6.99326 17.4981 6.8874 17.2725 6.69531C17.0498 6.50583 16.6832 6.30078 16.165 6.11426C15.1349 5.7435 13.6624 5.5 12 5.5Z" fill="black"/>
</svg>
