<svg width="24" height="24" viewBox="0 0 24 24" fill="none" xmlns="http://www.w3.org/2000/svg">
<path d="M12 4C16.4183 4 20 7.58172 20 12C20 16.4183 16.4183 20 12 20C7.58172 20 4 16.4183 4 12C4 7.58172 7.58172 4 12 4ZM6.90527 7.96582C6.02629 9.07439 5.5 10.4754 5.5 12C5.5 15.5899 8.41015 18.5 12 18.5C13.5246 18.5 14.9247 17.9727 16.0332 17.0938L6.90527 7.96582ZM12 5.5C10.4754 5.5 9.07439 6.02629 7.96582 6.90527L17.0938 16.0332C17.9727 14.9247 18.5 13.5246 18.5 12C18.5 8.41015 15.5899 5.5 12 5.5Z" fill="black"/>
</svg>
