<svg width="24" height="24" viewBox="0 0 24 24" fill="none" xmlns="http://www.w3.org/2000/svg">
<path d="M12 4C16.4183 4 20 7.58172 20 12C20 16.4183 16.4183 20 12 20C7.58172 20 4 16.4183 4 12C4 7.58172 7.58172 4 12 4ZM7.96582 17.0938C9.07446 17.973 10.4751 18.5 12 18.5C15.5899 18.5 18.5 15.5899 18.5 12C18.5 10.4751 17.973 9.07446 17.0938 7.96582L7.96582 17.0938ZM12 5.5C8.41015 5.5 5.5 8.41015 5.5 12C5.5 13.5244 6.02657 14.9247 6.90527 16.0332L16.0332 6.90527C14.9247 6.02657 13.5244 5.5 12 5.5Z" fill="black"/>
</svg>
