<svg width="24" height="24" viewBox="0 0 24 24" fill="none" xmlns="http://www.w3.org/2000/svg">
<path fill-rule="evenodd" clip-rule="evenodd" d="M8.46967 4.21967C8.76256 3.92678 9.23732 3.92678 9.53022 4.21967L12.1943 6.88373C12.6851 7.37455 13.071 8.12818 12.9062 8.96772C12.8993 9.00286 12.8897 9.03744 12.8779 9.07123L12.6328 9.76654L19.4062 16.54C20.1977 17.3316 20.1977 18.6147 19.4062 19.4062C18.6147 20.1977 17.3316 20.1977 16.54 19.4062L9.76654 12.6328L9.07123 12.8779C9.03744 12.8897 9.00286 12.8993 8.96772 12.9062C8.12818 13.071 7.37455 12.6851 6.88373 12.1943L4.21967 9.53022C3.92678 9.23732 3.92678 8.76256 4.21967 8.46967C4.51256 8.17678 4.98732 8.17678 5.28022 8.46967L6.10541 9.29487C6.68373 8.62546 6.79765 8.26684 6.80268 8.09662C6.8073 7.93774 6.73051 7.79107 6.30561 7.36615L6.21967 7.28022C5.92678 6.98732 5.92678 6.51256 6.21967 6.21967C6.51256 5.92678 6.98732 5.92678 7.28022 6.21967L7.36615 6.30561L7.46088 6.39154C7.95179 6.79186 8.67611 6.76308 9.13373 6.30561L9.3144 6.12494L8.46967 5.28022C8.17678 4.98732 8.17678 4.51256 8.46967 4.21967ZM10.1943 7.36615C9.67001 7.89035 8.98676 8.15651 8.29975 8.16889C8.26978 8.85266 7.87826 9.55478 7.16791 10.3574L7.94428 11.1337C8.18926 11.3787 8.44688 11.4621 8.64447 11.4374L9.71576 11.0624L9.81928 11.0341C10.062 10.9863 10.3158 11.0611 10.4941 11.2392L17.6005 18.3456C17.8063 18.5513 18.1399 18.5514 18.3456 18.3456C18.5514 18.1399 18.5513 17.8063 18.3456 17.6005L11.2392 10.4941C11.0355 10.2902 10.967 9.98769 11.0624 9.71576L11.4374 8.64447C11.4621 8.44688 11.3787 8.18927 11.1337 7.94428L10.3749 7.18549L10.1943 7.36615Z" fill="black"/>
</svg>
