<svg width="24" height="24" viewBox="0 0 24 24" fill="none" xmlns="http://www.w3.org/2000/svg">
<path d="M15.25 4C15.6642 4 16 4.33579 16 4.75V7.5C16 9.45272 14.6005 11.0776 12.75 11.4287V19.25C12.75 19.6642 12.4142 20 12 20C11.5858 20 11.25 19.6642 11.25 19.25V11.4287C9.39945 11.0776 8 9.45272 8 7.5V4.75C8 4.33579 8.33579 4 8.75 4C9.16421 4 9.5 4.33579 9.5 4.75V7.5C9.5 8.61933 10.2358 9.56613 11.25 9.88477V4.75C11.25 4.33579 11.5858 4 12 4C12.4142 4 12.75 4.33579 12.75 4.75V9.88477C13.7642 9.56613 14.5 8.61933 14.5 7.5V4.75C14.5 4.33579 14.8358 4 15.25 4Z" fill="black"/>
</svg>
