<svg width="24" height="24" viewBox="0 0 24 24" fill="none" xmlns="http://www.w3.org/2000/svg">
<path fill-rule="evenodd" clip-rule="evenodd" d="M12.4561 5.05955C12.7325 4.94193 13.0528 5.00099 13.2695 5.20896L19.7695 11.459C19.9165 11.6003 19.9999 11.7961 20 12C20 12.2039 19.9165 12.3996 19.7695 12.541L13.2695 18.791C13.0528 18.9991 12.7325 19.0581 12.4561 18.9404C12.1795 18.8226 12 18.5506 12 18.25V15H5.75C4.7835 15 4 14.2165 4 13.25V10.75C4.00017 9.78363 4.78361 8.99998 5.75 8.99998H12V5.74998C12.0001 5.44943 12.1795 5.17729 12.4561 5.05955ZM13.5 9.74998C13.5 10.1642 13.1642 10.5 12.75 10.5H5.75C5.61203 10.5 5.50017 10.6121 5.5 10.75V13.25C5.5 13.3881 5.61193 13.5 5.75 13.5H12.75C13.1641 13.5 13.4998 13.8359 13.5 14.25V16.4883L18.167 12L13.5 7.5117V9.74998Z" fill="black"/>
</svg>
