<svg width="24" height="24" viewBox="0 0 24 24" fill="none" xmlns="http://www.w3.org/2000/svg">
<path fill-rule="evenodd" clip-rule="evenodd" d="M14.5391 4.69034C15.8949 3.66429 17.8006 3.79467 19.0029 4.99698C20.2052 6.1993 20.3356 8.10499 19.3096 9.46085C19.3002 9.47321 19.2904 9.48522 19.2803 9.49698L14.0059 15.622C13.4514 16.2658 12.7102 16.7066 11.8975 16.8954C11.4907 18.6732 9.90113 19.9999 8 19.9999H4.75C4.33579 19.9999 4 19.6641 4 19.2499V15.9999C4 14.099 5.32609 12.5085 7.10352 12.1015C7.29243 11.289 7.73434 10.5483 8.37793 9.99405L14.5029 4.71964L14.5391 4.69034ZM8.5 13.7499H7V13.7089C6.11724 14.0948 5.5 14.9749 5.5 15.9999V17.4394L6.71973 16.2196C7.01262 15.9268 7.48738 15.9268 7.78027 16.2196C8.07317 16.5125 8.07316 16.9873 7.78027 17.2802L6.56055 18.4999H8C9.02489 18.4999 9.9041 17.8825 10.29 16.9999H10.25V15.4999H10.4502C10.2514 14.5203 9.4796 13.7485 8.5 13.5497V13.7499ZM17.9414 6.0585C17.273 5.39005 16.2167 5.31265 15.459 5.87491L9.35645 11.1308C9.0601 11.386 8.8353 11.706 8.68945 12.0595C10.3456 12.3472 11.6512 13.6535 11.9395 15.3095C12.2931 15.1636 12.6138 14.9399 12.8691 14.6435L18.124 8.53995C18.6862 7.78228 18.6098 6.72691 17.9414 6.0585Z" fill="black"/>
</svg>
