<svg width="24" height="24" viewBox="0 0 24 24" fill="none" xmlns="http://www.w3.org/2000/svg">
<path d="M18.25 4C18.6642 4 19 4.33579 19 4.75V9.25C19 9.66421 18.6642 10 18.25 10H14.3887L17.7188 12.6641C17.9674 12.863 18.0633 13.1976 17.958 13.498C17.8526 13.7986 17.5685 14 17.25 14H11V19.25C11 19.5453 10.8269 19.8135 10.5576 19.9346C10.2882 20.0555 9.97269 20.0067 9.75195 19.8105L5.25195 15.8105C5.09184 15.6682 5 15.4642 5 15.25V9.25C5 8.83579 5.33579 8.5 5.75 8.5H9.79492L6.24805 5.30762C6.0173 5.0999 5.93863 4.77132 6.0498 4.48145C6.16106 4.19152 6.43946 4 6.75 4H18.25ZM6.5 14.9131L9.5 17.5801V13.25C9.5 12.8358 9.83579 12.5 10.25 12.5H15.1113L11.9863 10H6.5V14.9131ZM12.0381 8.5H17.5V5.5H8.70508L12.0381 8.5Z" fill="black"/>
</svg>
