<svg width="24" height="24" viewBox="0 0 24 24" fill="none" xmlns="http://www.w3.org/2000/svg">
<path d="M10.5 4C14.0899 4 17 6.91015 17 10.5C17 11.5078 16.7707 12.4621 16.3613 13.3135L19.6504 17.4805C20.1358 18.0954 20.0843 18.9762 19.5303 19.5303C18.9762 20.0843 18.0954 20.1358 17.4805 19.6504L13.3135 16.3613C12.4621 16.7707 11.5078 17 10.5 17C6.91015 17 4 14.0899 4 10.5C4 6.91015 6.91015 4 10.5 4ZM15.5029 14.6484C15.2451 14.959 14.959 15.2451 14.6484 15.5029L18.4102 18.4736C18.4281 18.4874 18.4537 18.4858 18.4697 18.4697C18.4858 18.4537 18.4874 18.4281 18.4736 18.4102L15.5029 14.6484ZM10.5 5.5C7.73858 5.5 5.5 7.73858 5.5 10.5C5.5 13.2614 7.73858 15.5 10.5 15.5C13.2614 15.5 15.5 13.2614 15.5 10.5C15.5 7.73858 13.2614 5.5 10.5 5.5Z" fill="black"/>
</svg>
