<svg width="24" height="24" viewBox="0 0 24 24" fill="none" xmlns="http://www.w3.org/2000/svg">
<path d="M17.25 4C18.7688 4 20 5.23122 20 6.75V17.25C20 18.7688 18.7688 20 17.25 20H6.75C5.23122 20 4 18.7688 4 17.25V6.75C4 5.23122 5.23122 4 6.75 4H17.25ZM6.75 5.5C6.05964 5.5 5.5 6.05964 5.5 6.75V17.25C5.5 17.9404 6.05964 18.5 6.75 18.5H17.25C17.9404 18.5 18.5 17.9404 18.5 17.25V6.75C18.5 6.05964 17.9404 5.5 17.25 5.5H6.75ZM16.25 7C16.295 7 16.339 7.00413 16.3818 7.01172C16.3874 7.0127 16.3929 7.01354 16.3984 7.01465C16.4118 7.01733 16.4244 7.02298 16.4375 7.02637C16.4707 7.03495 16.5041 7.04344 16.5361 7.05664C16.5653 7.06868 16.592 7.08512 16.6191 7.10059C16.6763 7.1331 16.7316 7.171 16.7803 7.21973C16.8287 7.26812 16.866 7.3232 16.8984 7.37988C16.914 7.40703 16.9303 7.43375 16.9424 7.46289C16.9631 7.51289 16.9779 7.56459 16.9873 7.61719C16.995 7.66035 17 7.70462 17 7.75V11.25C17 11.6642 16.6642 12 16.25 12C15.8358 12 15.5 11.6642 15.5 11.25V9.56055L9.56055 15.5H11.25C11.6642 15.5 12 15.8358 12 16.25C12 16.6642 11.6642 17 11.25 17H7.75C7.70462 17 7.66035 16.995 7.61719 16.9873C7.61165 16.9863 7.6061 16.9855 7.60059 16.9844C7.5872 16.9817 7.57464 16.9761 7.56152 16.9727C7.52828 16.964 7.49492 16.9557 7.46289 16.9424C7.43375 16.9303 7.40703 16.914 7.37988 16.8984C7.3232 16.866 7.26812 16.8287 7.21973 16.7803C7.171 16.7316 7.1331 16.6763 7.10059 16.6191C7.08512 16.592 7.06868 16.5653 7.05664 16.5361C7.03603 16.4861 7.02106 16.4344 7.01172 16.3818C7.00413 16.339 7 16.295 7 16.25V12.75C7 12.3358 7.33579 12 7.75 12C8.16421 12 8.5 12.3358 8.5 12.75V14.4395L14.4395 8.5H12.75C12.3358 8.5 12 8.16421 12 7.75C12 7.33579 12.3358 7 12.75 7H16.25Z" fill="black"/>
</svg>
