<svg width="24" height="24" viewBox="0 0 24 24" fill="none" xmlns="http://www.w3.org/2000/svg">
<path d="M17.25 5C18.7688 5 20 6.23122 20 7.75V16.25C20 17.7688 18.7688 19 17.25 19H12.75C11.8961 19 11.1333 18.6107 10.6289 18H9.75C8.89611 18 8.1333 17.6107 7.62891 17H6.75C5.23122 17 4 15.7688 4 14.25V10.75C4 9.23122 5.23122 8 6.75 8H7.62891C8.1333 7.38934 8.89611 7 9.75 7H10.1064C10.4332 5.84614 11.4915 5 12.75 5H17.25ZM12.75 6.5C12.0596 6.5 11.5 7.05964 11.5 7.75V16.25C11.5 16.9404 12.0596 17.5 12.75 17.5H17.25C17.9404 17.5 18.5 16.9404 18.5 16.25V7.75C18.5 7.05964 17.9404 6.5 17.25 6.5H12.75ZM9.75 8.5C9.05964 8.5 8.5 9.05964 8.5 9.75V15.25C8.5 15.9404 9.05964 16.5 9.75 16.5H10.0127C10.0053 16.4176 10 16.3343 10 16.25V8.5H9.75ZM6.75 9.5C6.05964 9.5 5.5 10.0596 5.5 10.75V14.25C5.5 14.9404 6.05964 15.5 6.75 15.5H7.0127C7.00527 15.4176 7 15.3343 7 15.25V9.75C7 9.66568 7.00527 9.58238 7.0127 9.5H6.75Z" fill="black"/>
</svg>
