<svg width="24" height="24" viewBox="0 0 24 24" fill="none" xmlns="http://www.w3.org/2000/svg">
<path fill-rule="evenodd" clip-rule="evenodd" d="M12.0005 4C12.4145 4.00024 12.7505 4.33593 12.7505 4.75V7H15.0014C16.4065 7.00022 17.6414 7.72653 18.353 8.82031C18.7092 9.30024 18.9588 9.87696 19.0571 10.5293L19.9673 16.5723C20.1376 17.7048 19.6444 18.8355 18.6987 19.4814C17.0994 20.5735 15.2401 19.808 14.3364 18.3145V18.3135L12.9946 16.1191C12.9492 16.0451 12.8675 16.0002 12.7807 16H11.2163C11.1297 16.0001 11.0489 16.0455 11.0034 16.1191L9.63913 18.333L9.63815 18.332C8.74041 19.8618 6.88674 20.5517 5.31589 19.4961C4.3608 18.8541 3.86214 17.7189 4.03464 16.5811L4.95358 10.5205C5.05507 9.85129 5.31445 9.26125 5.686 8.77441C6.40218 7.70661 7.62116 7 9.00632 7H11.2505V4.75C11.2505 4.33579 11.5862 4 12.0005 4ZM9.00632 8.5C8.12996 8.5 7.35743 8.95172 6.91061 9.63867C6.90046 9.65427 6.88967 9.66977 6.87839 9.68457C6.65879 9.97231 6.49947 10.3267 6.436 10.7451L5.51706 16.8057C5.43146 17.3702 5.67959 17.9339 6.1528 18.252C6.86206 18.7281 7.79899 18.5172 8.35202 17.5635L8.36276 17.5459L9.72702 15.332C10.0456 14.8152 10.6092 14.5001 11.2163 14.5H12.7807C13.39 14.5002 13.956 14.8172 14.2739 15.3369L15.6186 17.5352L15.6206 17.5381C16.2053 18.5041 17.1518 18.7218 17.853 18.2432C18.323 17.922 18.5687 17.3587 18.4839 16.7949L17.5737 10.7529C17.5111 10.3372 17.3542 9.98413 17.1372 9.69727C17.1257 9.68212 17.1143 9.66636 17.104 9.65039C16.6585 8.95697 15.8825 8.50022 15.0014 8.5H9.00632ZM9.00046 11C9.55254 11.0002 10.0005 11.4479 10.0005 12C10.0005 12.5521 9.55254 12.9998 9.00046 13C8.44817 13 8.00046 12.5523 8.00046 12C8.00046 11.4477 8.44817 11 9.00046 11ZM15.0005 11C15.5525 11.0002 16.0005 11.4479 16.0005 12C16.0005 12.5521 15.5525 12.9998 15.0005 13C14.4482 13 14.0005 12.5523 14.0005 12C14.0005 11.4477 14.4482 11 15.0005 11Z" fill="black"/>
</svg>
