<svg width="24" height="24" viewBox="0 0 24 24" fill="none" xmlns="http://www.w3.org/2000/svg">
<path fill-rule="evenodd" clip-rule="evenodd" d="M11.7529 4.04205C11.9396 3.97689 12.146 3.98732 12.3262 4.07428L18.4453 7.02936C19.3956 7.48812 19.9998 8.44973 20 9.50495V19.2501C20 19.6643 19.6642 20.0001 19.25 20.0001C18.8358 20.0001 18.5 19.6643 18.5 19.2501V9.50495C18.4998 9.0254 18.2248 8.58844 17.793 8.37995L12 5.58307L6.20703 8.37995C5.77515 8.58844 5.50018 9.0254 5.5 9.50495V19.2501C5.5 19.6643 5.16421 20.0001 4.75 20.0001C4.33579 20.0001 4 19.6643 4 19.2501V9.50495C4.00018 8.44973 4.60439 7.48812 5.55469 7.02936L11.6738 4.07428L11.7529 4.04205ZM15.25 12.0001C16.2165 12.0001 17 12.7836 17 13.7501V19.2501C17 19.6643 16.6642 20.0001 16.25 20.0001H7.75C7.33579 20.0001 7 19.6643 7 19.2501V13.7501C7 12.7836 7.7835 12.0001 8.75 12.0001H15.25ZM8.75 13.5001C8.61193 13.5001 8.5 13.612 8.5 13.7501V18.5001H15.5V13.7501C15.5 13.612 15.3881 13.5001 15.25 13.5001H8.75Z" fill="black"/>
</svg>
