<svg width="24" height="24" viewBox="0 0 24 24" fill="none" xmlns="http://www.w3.org/2000/svg">
<path d="M14.25 4C14.6642 4 15 4.33579 15 4.75V5.07129L19.3242 5.50391C19.7076 5.54225 20 5.86469 20 6.25V7.75C20 8.13531 19.7076 8.45775 19.3242 8.49609L15 8.92773V9.25C15 9.66421 14.6642 10 14.25 10H11C9.60239 10 8.43095 9.04353 8.09766 7.75H7.75C6.50736 7.75 5.5 8.75736 5.5 10V10.25C5.5 11.4926 6.50736 12.5 7.75 12.5H16.25C18.3211 12.5 20 14.1789 20 16.25C20 18.3211 18.3211 20 16.25 20H4.75C4.33579 20 4 19.6642 4 19.25C4 18.8358 4.33579 18.5 4.75 18.5H16.25C17.4926 18.5 18.5 17.4926 18.5 16.25C18.5 15.0074 17.4926 14 16.25 14H7.75C5.67893 14 4 12.3211 4 10.25V10C4 7.92893 5.67893 6.25 7.75 6.25H8.09766C8.43095 4.95647 9.60239 4 11 4H14.25ZM11 5.5C10.1716 5.5 9.5 6.17157 9.5 7C9.5 7.82843 10.1716 8.5 11 8.5H13.5V5.5H11ZM15 7.4209L18.5 7.07129V6.92773L15 6.57812V7.4209Z" fill="#141414"/>
</svg>
