<svg width="24" height="24" viewBox="0 0 24 24" fill="none" xmlns="http://www.w3.org/2000/svg">
<path d="M8.39941 11.0869C8.76543 10.8934 9.21934 11.0335 9.41309 11.3994L11.373 15.1016C11.5704 15.0364 11.7809 15 12 15C13.1046 15 14 15.8954 14 17C14 18.1046 13.1046 19 12 19C10.8954 19 10 18.1046 10 17C10 16.6801 10.0764 16.3785 10.21 16.1104L8.08691 12.1006C7.89339 11.7346 8.03346 11.2807 8.39941 11.0869ZM17.25 6C18.7688 6 20 7.23122 20 8.75V15.25C20 16.7688 18.7688 18 17.25 18H16V16.5H17.25C17.9404 16.5 18.5 15.9404 18.5 15.25V8.75C18.5 8.05964 17.9404 7.5 17.25 7.5H6.75C6.05964 7.5 5.5 8.05964 5.5 8.75V15.25C5.5 15.9404 6.05964 16.5 6.75 16.5H8V18H6.75C5.23122 18 4 16.7688 4 15.25V8.75C4 7.23122 5.23122 6 6.75 6H17.25ZM12 16.5C11.7239 16.5 11.5 16.7239 11.5 17C11.5 17.2761 11.7239 17.5 12 17.5C12.2761 17.5 12.5 17.2761 12.5 17C12.5 16.7239 12.2761 16.5 12 16.5ZM14.9756 10.3467C15.1827 9.988 15.6413 9.86517 16 10.0723C16.3586 10.2794 16.4815 10.738 16.2744 11.0967L16.0244 11.5293C15.8173 11.8877 15.3586 12.0114 15 11.8047C14.6414 11.5976 14.5187 11.138 14.7256 10.7793L14.9756 10.3467ZM12 9C12.4142 9 12.75 9.33579 12.75 9.75V10.25C12.75 10.6642 12.4142 11 12 11C11.5858 11 11.25 10.6642 11.25 10.25V9.75C11.25 9.33579 11.5858 9 12 9Z" fill="black"/>
</svg>
