<svg width="24" height="24" viewBox="0 0 24 24" fill="none" xmlns="http://www.w3.org/2000/svg">
<path fill-rule="evenodd" clip-rule="evenodd" d="M11.25 16.0001C12.7688 16.0001 14 17.2313 14 18.7501V19.2501C14 19.6643 13.6642 20.0001 13.25 20.0001H4.75C4.33579 20.0001 4 19.6643 4 19.2501V18.7501C4 17.2313 5.23122 16.0001 6.75 16.0001H11.25ZM10.5264 4.16809C10.8209 3.92778 11.2557 3.94524 11.5303 4.21984L15.7803 8.46984C16.0732 8.76274 16.0732 9.2375 15.7803 9.53039L14.5303 10.7804C14.2474 11.0633 13.7955 11.0723 13.501 10.8087L12.6846 11.6241L19.7803 18.7198C20.0732 19.0127 20.0732 19.4875 19.7803 19.7804C19.4874 20.0733 19.0126 20.0733 18.7197 19.7804L11.9941 13.0548C11.9817 13.228 11.9128 13.3979 11.7803 13.5304L10.5303 14.7804C10.2374 15.0733 9.76262 15.0733 9.46973 14.7804L5.21973 10.5304C4.92683 10.2375 4.92683 9.76274 5.21973 9.46984L6.46973 8.21984L6.52637 8.16809C6.80986 7.93682 7.2226 7.94494 7.49805 8.19055L8.94043 6.74816C8.67782 6.45365 8.68717 6.0024 8.96973 5.71984L10.4697 4.21984L10.5264 4.16809ZM6.75 17.5001C6.14529 17.5001 5.64124 17.9296 5.52539 18.5001H12.4746C12.3588 17.9296 11.8547 17.5001 11.25 17.5001H6.75ZM8.03027 9.78039C7.74739 10.0633 7.29546 10.0723 7.00098 9.80871L6.81055 10.0001L10 13.1896L10.1904 12.9982C9.92782 12.7037 9.93717 12.2524 10.2197 11.9698L11.0645 11.1251L8.875 8.93566L8.03027 9.78039ZM10.5586 6.25109C10.8221 6.54558 10.8132 6.99751 10.5303 7.28039L9.93555 7.87512L12.125 10.0646L12.9697 9.21984L13.0264 9.16809C13.3099 8.93682 13.7226 8.94494 13.998 9.19055L14.1895 9.00012L11 5.81066L10.5586 6.25109Z" fill="black"/>
</svg>
