<svg width="24" height="24" viewBox="0 0 24 24" fill="none" xmlns="http://www.w3.org/2000/svg">
<path fill-rule="evenodd" clip-rule="evenodd" d="M15.2496 4C16.7684 4 17.9996 5.23122 17.9996 6.75V8.25C17.9996 8.66421 17.6638 9 17.2496 9C16.8356 8.99978 16.4996 8.66408 16.4996 8.25V6.75C16.4996 6.05964 15.94 5.5 15.2496 5.5H11.7496C11.0584 5.50022 10.4996 6.05883 10.4996 6.74805V11H13.9996V12.5H10.4996V14C10.4996 15.746 9.63231 17.2228 8.83556 18.2188C8.75709 18.3168 8.67686 18.4098 8.59923 18.5H15.2496C15.94 18.5 16.4996 17.9404 16.4996 17.25V16.75C16.4996 16.3359 16.8356 16.0002 17.2496 16C17.6638 16 17.9996 16.3358 17.9996 16.75V17.25C17.9996 18.7688 16.7684 20 15.2496 20H6.74962C6.42696 19.9998 6.13975 19.7934 6.03771 19.4873C5.93576 19.1813 6.04162 18.8441 6.29942 18.6504H6.29845C6.29885 18.6501 6.30066 18.6496 6.30235 18.6484C6.30591 18.6457 6.31225 18.6406 6.32091 18.6338C6.33851 18.62 6.36674 18.5981 6.40294 18.5684C6.47558 18.5087 6.58213 18.4174 6.71153 18.2988C6.97155 18.0605 7.31824 17.713 7.66368 17.2812C8.36693 16.4022 8.99962 15.254 8.99962 14V12.5H5.99962V11H8.99962V6.74805C8.99962 5.2284 10.232 4.00022 11.7496 4H15.2496Z" fill="black"/>
</svg>
