<svg width="24" height="24" viewBox="0 0 24 24" fill="none" xmlns="http://www.w3.org/2000/svg">
<path d="M12 4C15.866 4 19 7.13401 19 11V18.667C19 19.8293 17.614 20.432 16.7637 19.6396L16.0576 18.9824C15.6598 18.6118 15.0677 18.541 14.5938 18.8076L12.8584 19.7842C12.3257 20.0838 11.6743 20.0838 11.1416 19.7842L9.40625 18.8076C8.93234 18.541 8.34023 18.6118 7.94238 18.9824L7.23633 19.6396C6.38598 20.432 5 19.8293 5 18.667V11C5 7.13401 8.13401 4 12 4ZM12 5.5C8.96243 5.5 6.5 7.96243 6.5 11V18.2754L6.91992 17.8848C7.79557 17.0691 9.09855 16.9133 10.1416 17.5L11.877 18.4766C11.9531 18.5194 12.0469 18.5194 12.123 18.4766L13.8584 17.5C14.9014 16.9133 16.2044 17.0691 17.0801 17.8848L17.5 18.2754V11C17.5 7.96243 15.0376 5.5 12 5.5ZM10 9C10.5523 9 11 9.44772 11 10C11 10.5523 10.5523 11 10 11C9.44772 11 9 10.5523 9 10C9 9.44772 9.44772 9 10 9ZM14 9C14.5523 9 15 9.44772 15 10C15 10.5523 14.5523 11 14 11C13.4477 11 13 10.5523 13 10C13 9.44772 13.4477 9 14 9Z" fill="black"/>
</svg>
