<svg width="24" height="24" viewBox="0 0 24 24" fill="none" xmlns="http://www.w3.org/2000/svg">
<path d="M9.25 8C9.66421 8 10 8.33579 10 8.75C10 9.16421 9.66421 9.5 9.25 9.5H7.75C7.05964 9.5 6.5 10.0596 6.5 10.75V13.25C6.5 13.9404 7.05964 14.5 7.75 14.5H8.5V13H7.75C7.33579 13 7 12.6642 7 12.25C7 11.8358 7.33579 11.5 7.75 11.5H9.25C9.66421 11.5 10 11.8358 10 12.25V15.25C10 15.6642 9.66421 16 9.25 16H7.75C6.23122 16 5 14.7688 5 13.25V10.75C5 9.23122 6.23122 8 7.75 8H9.25ZM11.75 8C12.1642 8 12.5 8.33579 12.5 8.75V15.25C12.5 15.6642 12.1642 16 11.75 16C11.3358 16 11 15.6642 11 15.25V8.75C11 8.33579 11.3358 8 11.75 8ZM18.25 8C18.6642 8 19 8.33579 19 8.75C19 9.16421 18.6642 9.5 18.25 9.5H15.75C15.6119 9.5 15.5 9.61193 15.5 9.75V11H18.25C18.6642 11 19 11.3358 19 11.75C19 12.1642 18.6642 12.5 18.25 12.5H15.5V15.25C15.5 15.6642 15.1642 16 14.75 16C14.3358 16 14 15.6642 14 15.25V9.75C14 8.7835 14.7835 8 15.75 8H18.25Z" fill="black"/>
</svg>
