<svg width="24" height="24" viewBox="0 0 24 24" fill="none" xmlns="http://www.w3.org/2000/svg">
<path fill-rule="evenodd" clip-rule="evenodd" d="M14.7197 4.21967C15.0126 3.92678 15.4874 3.92678 15.7803 4.21967C16.0732 4.51256 16.0732 4.98732 15.7803 5.28022L14.0605 6.99994H19.25C19.6642 6.99994 20 7.33573 20 7.74994V11.2499C20 11.6642 19.6642 11.9999 19.25 11.9999H19V17.2499C19 18.7687 17.7688 19.9999 16.25 19.9999H7.75C6.23122 19.9999 5 18.7687 5 17.2499V11.9999H4.75C4.33579 11.9999 4 11.6642 4 11.2499V7.74994C4 7.33573 4.33579 6.99994 4.75 6.99994H9.93945L8.21973 5.28022C7.92683 4.98732 7.92683 4.51256 8.21973 4.21967C8.51262 3.92678 8.98738 3.92678 9.28027 4.21967L12 6.9394L14.7197 4.21967ZM6.5 17.2499C6.5 17.9403 7.05964 18.4999 7.75 18.4999H11.25V11.9999H6.5V17.2499ZM12.75 18.4999H16.25C16.9404 18.4999 17.5 17.9403 17.5 17.2499V11.9999H12.75V18.4999ZM5.5 10.4999H18.5V8.49994H5.5V10.4999Z" fill="black"/>
</svg>
