<svg width="24" height="24" viewBox="0 0 24 24" fill="none" xmlns="http://www.w3.org/2000/svg">
<path d="M17 4C18.6569 4 20 5.34315 20 7C20 8.30574 19.1645 9.41299 18 9.8252V10.25C18 11.7688 16.7688 13 15.25 13H12.75V14.0977C14.0435 14.431 15 15.6024 15 17C15 18.6569 13.6569 20 12 20C10.3431 20 9 18.6569 9 17C9 15.6024 9.95646 14.431 11.25 14.0977V13H8.75C7.23122 13 6 11.7688 6 10.25V9.8252C4.83548 9.41299 4 8.30574 4 7C4 5.34315 5.34315 4 7 4C8.65685 4 10 5.34315 10 7C10 8.48647 8.91882 9.71993 7.5 9.95801V10.25C7.5 10.9404 8.05964 11.5 8.75 11.5H15.25C15.9404 11.5 16.5 10.9404 16.5 10.25V9.95801C15.0812 9.71993 14 8.48647 14 7C14 5.34315 15.3431 4 17 4ZM12 15.5C11.1716 15.5 10.5 16.1716 10.5 17C10.5 17.8284 11.1716 18.5 12 18.5C12.8284 18.5 13.5 17.8284 13.5 17C13.5 16.1716 12.8284 15.5 12 15.5ZM7 5.5C6.17157 5.5 5.5 6.17157 5.5 7C5.5 7.82843 6.17157 8.5 7 8.5C7.82843 8.5 8.5 7.82843 8.5 7C8.5 6.17157 7.82843 5.5 7 5.5ZM17 5.5C16.1716 5.5 15.5 6.17157 15.5 7C15.5 7.82843 16.1716 8.5 17 8.5C17.8284 8.5 18.5 7.82843 18.5 7C18.5 6.17157 17.8284 5.5 17 5.5Z" fill="black"/>
</svg>
