<svg width="24" height="24" viewBox="0 0 24 24" fill="none" xmlns="http://www.w3.org/2000/svg">
<path d="M7 4C8.65685 4 10 5.34315 10 7C10 8.48647 8.91882 9.71993 7.5 9.95801V14.041C8.91889 14.279 10 15.5135 10 17C10 18.6569 8.65685 20 7 20C5.34315 20 4 18.6569 4 17C4 15.6941 4.83532 14.5859 6 14.1738V9.8252C4.83548 9.41299 4 8.30574 4 7C4 5.34315 5.34315 4 7 4ZM17.25 4C17.6642 4 18 4.33579 18 4.75C18 5.16421 17.6642 5.5 17.25 5.5H15.2871L17.29 8.27441C17.7515 8.91338 17.9999 9.68155 18 10.4697V14.1738C19.1647 14.5859 20 15.6941 20 17C20 18.6569 18.6569 20 17 20C15.3431 20 14 18.6569 14 17C14 15.5135 15.0811 14.279 16.5 14.041V10.4697C16.4999 9.99687 16.3511 9.53568 16.0742 9.15234L14.5 6.97266V8.25C14.5 8.66421 14.1642 9 13.75 9C13.3358 9 13 8.66421 13 8.25V4.75C13 4.33579 13.3358 4 13.75 4H17.25ZM7 15.5C6.17157 15.5 5.5 16.1716 5.5 17C5.5 17.8284 6.17157 18.5 7 18.5C7.82843 18.5 8.5 17.8284 8.5 17C8.5 16.1716 7.82843 15.5 7 15.5ZM17 15.5C16.1716 15.5 15.5 16.1716 15.5 17C15.5 17.8284 16.1716 18.5 17 18.5C17.8284 18.5 18.5 17.8284 18.5 17C18.5 16.1716 17.8284 15.5 17 15.5ZM7 5.5C6.17157 5.5 5.5 6.17157 5.5 7C5.5 7.82843 6.17157 8.5 7 8.5C7.82843 8.5 8.5 7.82843 8.5 7C8.5 6.17157 7.82843 5.5 7 5.5Z" fill="black"/>
</svg>
