<svg width="24" height="24" viewBox="0 0 24 24" fill="none" xmlns="http://www.w3.org/2000/svg">
<path d="M7 4C8.65685 4 10 5.34315 10 7C10 8.48647 8.91882 9.71993 7.5 9.95801V14.041C8.91889 14.279 10 15.5135 10 17C10 18.6569 8.65685 20 7 20C5.34315 20 4 18.6569 4 17C4 15.6941 4.83532 14.5859 6 14.1738V9.8252C4.83548 9.41299 4 8.30574 4 7C4 5.34315 5.34315 4 7 4ZM7 15.5C6.17157 15.5 5.5 16.1716 5.5 17C5.5 17.8284 6.17157 18.5 7 18.5C7.82843 18.5 8.5 17.8284 8.5 17C8.5 16.1716 7.82843 15.5 7 15.5ZM17 4C18.6569 4 20 5.34315 20 7C20 8.30574 19.1645 9.41299 18 9.8252V10.25C18 11.7688 16.7688 13 15.25 13H10.75C10.3358 13 10 12.6642 10 12.25C10 11.8358 10.3358 11.5 10.75 11.5H15.25C15.9404 11.5 16.5 10.9404 16.5 10.25V9.95801C15.0812 9.71993 14 8.48647 14 7C14 5.34315 15.3431 4 17 4ZM7 5.5C6.17157 5.5 5.5 6.17157 5.5 7C5.5 7.82843 6.17157 8.5 7 8.5C7.82843 8.5 8.5 7.82843 8.5 7C8.5 6.17157 7.82843 5.5 7 5.5ZM17 5.5C16.1716 5.5 15.5 6.17157 15.5 7C15.5 7.82843 16.1716 8.5 17 8.5C17.8284 8.5 18.5 7.82843 18.5 7C18.5 6.17157 17.8284 5.5 17 5.5Z" fill="black"/>
</svg>
