<svg width="24" height="24" viewBox="0 0 24 24" fill="none" xmlns="http://www.w3.org/2000/svg">
<path d="M7 4C8.65685 4 10 5.34315 10 7C10 8.48647 8.91882 9.71993 7.5 9.95801V14.041C8.91889 14.279 10 15.5135 10 17C10 18.6569 8.65685 20 7 20C5.34315 20 4 18.6569 4 17C4 15.6941 4.83532 14.5859 6 14.1738V9.8252C4.83548 9.41299 4 8.30574 4 7C4 5.34315 5.34315 4 7 4ZM7 15.5C6.17157 15.5 5.5 16.1716 5.5 17C5.5 17.8284 6.17157 18.5 7 18.5C7.82843 18.5 8.5 17.8284 8.5 17C8.5 16.1716 7.82843 15.5 7 15.5ZM17 9C18.6569 9 20 10.3431 20 12C20 13.6569 18.6569 15 17 15C15.5135 15 14.2801 13.9188 14.042 12.5H9.75C9.33579 12.5 9 12.1642 9 11.75C9 11.3358 9.33579 11 9.75 11H14.1738C14.5859 9.83532 15.6941 9 17 9ZM17 10.5C16.1716 10.5 15.5 11.1716 15.5 12C15.5 12.8284 16.1716 13.5 17 13.5C17.8284 13.5 18.5 12.8284 18.5 12C18.5 11.1716 17.8284 10.5 17 10.5ZM7 5.5C6.17157 5.5 5.5 6.17157 5.5 7C5.5 7.82843 6.17157 8.5 7 8.5C7.82843 8.5 8.5 7.82843 8.5 7C8.5 6.17157 7.82843 5.5 7 5.5Z" fill="black"/>
</svg>
