<svg width="24" height="24" viewBox="0 0 24 24" fill="none" xmlns="http://www.w3.org/2000/svg">
<path d="M12 4C13.4369 4 14.7865 4.38055 15.9531 5.04492L17.3955 4.2373C18.7721 3.46569 20.3865 4.76647 19.9248 6.27539L19.2227 8.56445C19.7191 9.60652 20 10.771 20 12C20 16.4183 16.4183 20 12 20C7.58172 20 4 16.4183 4 12C4 10.7693 4.28055 9.60274 4.77832 8.55957L4.08398 6.27148C3.62596 4.76243 5.24131 3.4646 6.61621 4.2373L8.04883 5.04297C9.21494 4.37941 10.564 4 12 4ZM12 5.5C10.6975 5.5 9.48668 5.88269 8.4707 6.54102C8.23694 6.69245 7.93816 6.70182 7.69531 6.56543L5.88086 5.54492C5.68448 5.43478 5.45408 5.62041 5.51953 5.83594L6.2998 8.40625C6.35715 8.59505 6.33797 8.79903 6.24609 8.97363C5.77015 9.87662 5.5 10.9059 5.5 12C5.5 15.5899 8.41015 18.5 12 18.5C15.5899 18.5 18.5 15.5899 18.5 12C18.5 10.9074 18.2306 9.87965 17.7559 8.97754C17.6638 8.80254 17.6453 8.59826 17.7031 8.40918L18.4902 5.83691C18.5562 5.62135 18.3256 5.43474 18.1289 5.54492L16.3066 6.56738C16.0638 6.70352 15.7649 6.69349 15.5312 6.54199C14.5149 5.88291 13.3033 5.5 12 5.5Z" fill="black"/>
</svg>
