<svg width="24" height="24" viewBox="0 0 24 24" fill="none" xmlns="http://www.w3.org/2000/svg">
<path fill-rule="evenodd" clip-rule="evenodd" d="M13.25 11.0005C13.6642 11.0005 14 11.3363 14 11.7505V12.2505H19.25C19.6642 12.2505 20 12.5863 20 13.0005V14.7505C19.9999 14.9584 19.9132 15.1557 19.7637 15.2964L19.6953 15.354L19.6934 15.355C19.6923 15.3559 19.6911 15.3577 19.6895 15.3589C19.6858 15.3616 19.6801 15.3651 19.6738 15.3696C19.661 15.3789 19.6425 15.392 19.6191 15.4087C19.5718 15.4424 19.5029 15.4915 19.4141 15.5523C19.236 15.674 18.9765 15.846 18.6465 16.0513C17.9864 16.4618 17.0384 17.0075 15.8828 17.5532C13.768 18.5519 10.9144 19.5661 7.8252 19.7251C7.68763 19.8915 7.48273 20.0005 7.25 20.0005H4.75C4.33595 20.0005 4.00026 19.6645 4 19.2505V12.7505C4 12.3363 4.33579 12.0005 4.75 12.0005H7.25C7.66421 12.0005 8 12.3363 8 12.7505V12.7876L9.60645 11.7554C10.3726 11.2628 11.264 11.0005 12.1748 11.0005H13.25ZM5.5 18.5005H6.44434C6.46211 18.4807 6.48024 18.4616 6.5 18.4439V13.5005H5.5V18.5005ZM12.1748 12.5005C11.5516 12.5005 10.9412 12.6801 10.417 13.0171L8 14.5698V18.2134C10.7257 18.0277 13.2823 17.1232 15.2422 16.1978C16.336 15.6812 17.2324 15.1641 17.8535 14.7778C18.1239 14.6097 18.3415 14.4652 18.5 14.3579V13.7505H14V14.0005C13.9998 14.2844 13.8389 14.5444 13.585 14.6714L11.085 15.9214C10.7147 16.1061 10.2644 15.9555 10.0791 15.5855C9.89419 15.2151 10.0448 14.7648 10.415 14.5796L12.5 13.5366V12.5005H12.1748ZM16.5 4.53566C17.3422 3.77682 18.6142 3.82548 19.4004 4.68312C20.1998 5.55561 20.1999 6.94549 19.4004 7.81788L18.0254 9.31788C17.1912 10.2276 15.8088 10.2276 14.9746 9.31788L13.5996 7.81788C12.8001 6.94549 12.8002 5.55561 13.5996 4.68312C14.3858 3.82548 15.6578 3.77682 16.5 4.53566ZM18.2939 5.69679C18.0543 5.43547 17.6957 5.43547 17.4561 5.69679L17.0527 6.13624C16.9107 6.29092 16.71 6.37941 16.5 6.37941C16.29 6.37941 16.0893 6.29092 15.9473 6.13624L15.5439 5.69679C15.3043 5.43547 14.9457 5.43547 14.7061 5.69679C14.4322 5.99587 14.432 6.50525 14.7061 6.80421L16.0811 8.30421C16.3206 8.56518 16.6794 8.56518 16.9189 8.30421L18.2939 6.80421C18.568 6.50525 18.5678 5.99587 18.2939 5.69679Z" fill="black"/>
</svg>
