<svg width="24" height="24" viewBox="0 0 24 24" fill="none" xmlns="http://www.w3.org/2000/svg">
<path d="M7.25 12C7.66421 12 8 12.3358 8 12.75V13.5L10.4268 12.2061C10.6802 12.0709 10.9628 12 11.25 12H12.25C12.9477 12 13.548 12.4093 13.8291 13H19.25C19.6642 13 20 13.3358 20 13.75V16C20 16.2273 19.8973 16.4407 19.7236 16.582L19.6445 16.6377L19.6426 16.6396C19.6415 16.6403 19.6394 16.6405 19.6377 16.6416C19.6343 16.6437 19.6298 16.6469 19.624 16.6504C19.6119 16.6577 19.5944 16.6685 19.5723 16.6816C19.528 16.7079 19.4637 16.745 19.3809 16.792C19.2152 16.8859 18.9742 17.0182 18.665 17.1758C18.0466 17.4911 17.1538 17.9097 16.0459 18.3271C13.8339 19.1606 10.7417 20 7.25 20H4.75C4.33579 20 4 19.6642 4 19.25V12.75C4 12.3358 4.33579 12 4.75 12H7.25ZM5.5 18.5H6.5V13.5H5.5V18.5ZM11.25 13.5C11.2091 13.5 11.1689 13.5101 11.1328 13.5293L8 15.1992V18.4844C10.9535 18.3765 13.5786 17.6531 15.5166 16.9229C16.5648 16.5279 17.4066 16.1339 17.9834 15.8398C18.1914 15.7338 18.3641 15.6394 18.5 15.5645V14.5H14V15C14 15.2841 13.839 15.5439 13.585 15.6709L11.085 16.9209C10.7146 17.1058 10.2643 16.9553 10.0791 16.585C9.89416 16.2146 10.0447 15.7643 10.415 15.5791L12.5 14.5361V13.75C12.5 13.6119 12.3881 13.5 12.25 13.5H11.25ZM18 4C18.4142 4 18.75 4.33579 18.75 4.75V5H19.25C19.6642 5 20 5.33579 20 5.75C20 6.16421 19.6642 6.5 19.25 6.5H17.875C17.6679 6.5 17.5 6.66789 17.5 6.875C17.5 7.08211 17.6679 7.25 17.875 7.25H18.125C19.1605 7.25 20 8.08947 20 9.125C20 9.94107 19.4778 10.633 18.75 10.8906V11.25C18.75 11.6642 18.4142 12 18 12C17.5858 12 17.25 11.6642 17.25 11.25V11H16.75C16.3358 11 16 10.6642 16 10.25C16 9.83579 16.3358 9.5 16.75 9.5H18.125C18.3321 9.5 18.5 9.33211 18.5 9.125C18.5 8.91789 18.3321 8.75 18.125 8.75H17.875C16.8395 8.75 16 7.91053 16 6.875C16 6.05881 16.522 5.36595 17.25 5.1084V4.75C17.25 4.33579 17.5858 4 18 4Z" fill="black"/>
</svg>
