<svg width="24" height="24" viewBox="0 0 24 24" fill="none" xmlns="http://www.w3.org/2000/svg">
<path fill-rule="evenodd" clip-rule="evenodd" d="M18 14.9999C18.2124 14.9999 18.4154 15.0902 18.5576 15.248V15.249L18.5596 15.2499C18.5604 15.2509 18.5612 15.2524 18.5625 15.2538C18.5655 15.2572 18.57 15.2626 18.5752 15.2685C18.5859 15.2805 18.6014 15.2977 18.6201 15.3193C18.6577 15.3626 18.7106 15.4249 18.7734 15.5009C18.8985 15.6522 19.0674 15.8638 19.2373 16.1034C19.4054 16.3405 19.5855 16.6195 19.7266 16.9032C19.858 17.1676 19.9999 17.5231 20 17.8886C20 18.9931 19.1634 19.9999 18 19.9999C16.8366 19.9999 16 18.9931 16 17.8886C16.0001 17.5231 16.142 17.1676 16.2734 16.9032C16.4145 16.6195 16.5946 16.3405 16.7627 16.1034C16.9326 15.8638 17.1015 15.6522 17.2266 15.5009C17.2894 15.4248 17.3423 15.3626 17.3799 15.3193C17.3986 15.2977 17.4141 15.2805 17.4248 15.2685C17.43 15.2626 17.4345 15.2573 17.4375 15.2538C17.4388 15.2524 17.4396 15.2509 17.4404 15.2499L17.4424 15.249V15.248L17.499 15.1923C17.636 15.0693 17.8141 14.9999 18 14.9999ZM17.9873 16.9716C17.843 17.1752 17.7105 17.3836 17.6172 17.5712C17.5709 17.6643 17.5387 17.7421 17.5195 17.8036C17.5031 17.8564 17.5005 17.8835 17.5 17.8886C17.5 18.2875 17.7827 18.4999 18 18.4999C18.2173 18.4999 18.5 18.2875 18.5 17.8886C18.4995 17.8835 18.4969 17.8564 18.4805 17.8036C18.4613 17.7421 18.4291 17.6643 18.3828 17.5712C18.2895 17.3836 18.157 17.1751 18.0127 16.9716C18.0085 16.9657 18.0042 16.9599 18 16.954C17.9958 16.9599 17.9915 16.9657 17.9873 16.9716ZM4.72461 5.58294C5.27047 4.41312 6.55852 3.78268 7.81739 4.06829L15.0732 5.7138C15.2971 5.72809 15.5218 5.78102 15.7422 5.88372C16.6621 6.31251 16.9725 7.3438 16.9981 8.27922C17.0249 9.26465 16.7595 10.4269 16.2324 11.5566C15.7053 12.6863 14.9855 13.6372 14.2129 14.2499C13.4796 14.8315 12.4901 15.2556 11.5703 14.8271C11.3491 14.724 11.164 14.5848 11.0088 14.4218L5.08497 9.92669C4.05663 9.14631 3.71122 7.75482 4.25684 6.58489L4.72461 5.58294ZM14.9111 7.21575C14.7243 7.22577 14.4317 7.31905 14.0313 7.63665C13.477 8.07632 12.8884 8.82473 12.4385 9.78899C11.9887 10.7532 11.7942 11.6848 11.8135 12.3915C11.8274 12.9001 11.9428 13.1832 12.0547 13.3329L12.2529 13.4833C12.4107 13.524 12.7502 13.4945 13.2803 13.0741C13.8345 12.6346 14.4231 11.887 14.8731 10.9228C15.3229 9.95853 15.5183 9.02704 15.499 8.32024C15.4806 7.64651 15.2867 7.36578 15.1543 7.27044L14.9111 7.21575ZM7.48536 5.53118C6.9147 5.40177 6.33124 5.68737 6.08399 6.21673L5.61622 7.21868C5.36916 7.74823 5.52534 8.37878 5.99122 8.73235L10.3193 12.0165C10.3649 11.1279 10.6244 10.1288 11.0791 9.15422C11.5338 8.17965 12.1333 7.33933 12.7852 6.73333L7.48536 5.53118Z" fill="black"/>
</svg>
