<svg width="24" height="24" viewBox="0 0 24 24" fill="none" xmlns="http://www.w3.org/2000/svg">
<path d="M12 4C16.4183 4 20 7.58172 20 12C20 16.4183 16.4183 20 12 20C7.58172 20 4 16.4183 4 12C4 7.58172 7.58172 4 12 4ZM9.52051 12.75C9.61686 14.5391 10.0499 15.9685 10.5732 16.9639C10.8714 17.5308 11.1885 17.9381 11.4707 18.1934C11.7684 18.4625 11.9541 18.5 12 18.5C12.0459 18.5 12.2316 18.4625 12.5293 18.1934C12.8115 17.9381 13.1286 17.5308 13.4268 16.9639C13.9501 15.9685 14.3831 14.5391 14.4795 12.75H9.52051ZM5.54395 12.75C5.81338 15.0948 7.32992 17.0589 9.41406 17.9639C9.35681 17.8657 9.29977 17.7651 9.24512 17.6611C8.60324 16.4401 8.11745 14.7695 8.01953 12.75H5.54395ZM15.9805 12.75C15.8826 14.7695 15.3968 16.4401 14.7549 17.6611C14.7001 17.7652 14.6423 17.8655 14.585 17.9639C16.6695 17.0591 18.1866 15.0951 18.4561 12.75H15.9805ZM9.41406 6.03516C7.32973 6.94002 5.8134 8.90509 5.54395 11.25H8.01953C8.11745 9.23053 8.60324 7.55991 9.24512 6.33887C9.29991 6.23465 9.35666 6.1336 9.41406 6.03516ZM12 5.5C11.9541 5.5 11.7684 5.53753 11.4707 5.80664C11.1885 6.06189 10.8714 6.46918 10.5732 7.03613C10.0499 8.03153 9.61686 9.46091 9.52051 11.25H14.4795C14.3831 9.46091 13.9501 8.03153 13.4268 7.03613C13.1286 6.46918 12.8115 6.06189 12.5293 5.80664C12.2316 5.53753 12.0459 5.5 12 5.5ZM14.585 6.03516C14.6424 6.13373 14.7 6.2345 14.7549 6.33887C15.3968 7.55991 15.8826 9.23053 15.9805 11.25H18.4561C18.1866 8.90478 16.6697 6.93986 14.585 6.03516Z" fill="black"/>
</svg>
