<svg width="24" height="24" viewBox="0 0 24 24" fill="none" xmlns="http://www.w3.org/2000/svg">
<path d="M8.25 4C8.31068 4 8.36928 4.00886 8.42578 4.02246C8.45135 4.02861 8.4761 4.03707 8.50098 4.0459C8.52358 4.05396 8.54584 4.06216 8.56738 4.07227C8.58955 4.08262 8.61062 4.09483 8.63184 4.10742C8.65134 4.11904 8.67017 4.13125 8.68848 4.14453C8.73788 4.18034 8.78532 4.22054 8.82617 4.26953L12 8.07812L15.1738 4.26953C15.2145 4.22075 15.2614 4.18024 15.3105 4.14453C15.3288 4.13124 15.3477 4.11905 15.3672 4.10742C15.3884 4.09481 15.4095 4.08264 15.4316 4.07227C15.4532 4.06214 15.4755 4.05398 15.498 4.0459C15.5229 4.03704 15.5477 4.02864 15.5732 4.02246C15.63 4.00871 15.689 4 15.75 4H17.25C18.7688 4 20 5.23123 20 6.75V17.25C20 18.7688 18.7688 20 17.25 20H15.75C15.3358 20 15 19.6642 15 19.25V13.3105L12.5303 15.7803C12.2374 16.0732 11.7626 16.0732 11.4697 15.7803L9 13.3105V19.25C9 19.6642 8.66421 20 8.25 20H6.75C5.23122 20 4 18.7688 4 17.25V6.75C4.00001 5.23123 5.23122 4 6.75 4H8.25ZM5.5 17.25C5.5 17.9404 6.05964 18.5 6.75 18.5H7.5V11.8105L5.5 9.81055V17.25ZM16.5 11.8105V18.5H17.25C17.9404 18.5 18.5 17.9404 18.5 17.25V9.81055L16.5 11.8105ZM12.5762 9.73047C12.4337 9.90134 12.2225 10 12 10C11.7775 10 11.5663 9.90135 11.4238 9.73047L9 6.82129V11.1895L12 14.1895L15 11.1895V6.82129L12.5762 9.73047ZM6.75 5.5C6.05965 5.5 5.50001 6.05965 5.5 6.75V7.69141C5.51023 7.70058 5.52044 7.70989 5.53027 7.71973L7.5 9.68945V5.5H6.75ZM16.5 9.68945L18.4697 7.71973C18.4796 7.70989 18.4898 7.70058 18.5 7.69141V6.75C18.5 6.05965 17.9403 5.5 17.25 5.5H16.5V9.68945Z" fill="black"/>
</svg>
