<svg width="24" height="24" viewBox="0 0 24 24" fill="none" xmlns="http://www.w3.org/2000/svg">
<path fill-rule="evenodd" clip-rule="evenodd" d="M15.9999 4C16.4141 4 16.7499 4.33579 16.7499 4.75C16.7499 7.61105 17.5218 9.03601 18.1747 9.73926C18.3914 9.97266 18.6061 10.1347 18.7909 10.25H18.9999V10.3672C19.0198 10.3771 19.0379 10.3888 19.0566 10.3975C19.1704 10.45 19.2609 10.4802 19.3163 10.4961C19.3435 10.5039 19.3623 10.5079 19.371 10.5098H19.3691L19.3661 10.5088H19.3642C19.7734 10.5719 20.0541 10.9549 19.9911 11.3643C19.928 11.7735 19.545 12.0542 19.1357 11.9912L19.2499 11.25C19.1391 11.9703 19.1354 11.9907 19.1347 11.9912H19.1327L19.1298 11.9902C19.1277 11.9899 19.1254 11.9897 19.123 11.9893C19.1179 11.9884 19.1119 11.9875 19.1054 11.9863C19.092 11.9839 19.075 11.9807 19.0556 11.9766C19.039 11.973 19.0206 11.9672 18.9999 11.9619V15.5H19.9999V17H15.9999V20H14.4999V17H9.49991V20H7.99991V17H3.99991V15.5H4.99991V11.9619C4.97922 11.9671 4.96079 11.973 4.94425 11.9766C4.9248 11.9807 4.90784 11.9839 4.89444 11.9863C4.88787 11.9875 4.8819 11.9884 4.87687 11.9893C4.87445 11.9897 4.87208 11.9899 4.87003 11.9902L4.8671 11.9912H4.86515C4.86429 11.9899 4.8589 11.9584 4.74991 11.25L4.86417 11.9912C4.45489 12.0541 4.07178 11.7735 4.0087 11.3643C3.94574 10.955 4.22644 10.5719 4.63565 10.5088H4.6337L4.63077 10.5098H4.62882C4.63743 10.5079 4.65625 10.5039 4.68351 10.4961C4.73895 10.4803 4.8294 10.45 4.94327 10.3975C4.96191 10.3889 4.98002 10.3771 4.99991 10.3672V10.25H5.2089C5.39378 10.1347 5.60833 9.9727 5.82511 9.73926C6.47805 9.03602 7.24991 7.61112 7.24991 4.75C7.24991 4.33582 7.58575 4.00006 7.99991 4C8.41413 4 8.74991 4.33579 8.74991 4.75C8.74991 6.47849 8.98876 7.67273 9.31827 8.5H9.49991V8.9043C9.67988 9.25772 9.87532 9.52634 10.0712 9.72949C10.714 10.396 11.473 10.5 11.9999 10.5C12.5268 10.5 13.2858 10.396 13.9286 9.72949C14.1244 9.5265 14.32 9.25831 14.4999 8.90527V8.5H14.6825C15.012 7.67274 15.2499 6.4783 15.2499 4.75C15.2499 4.33582 15.5857 4.00006 15.9999 4ZM7.96183 9.14941C7.66253 9.82546 7.30355 10.3528 6.92472 10.7607C6.78328 10.913 6.63997 11.0456 6.49991 11.1631V15.5H7.99991V9.23535C7.98757 9.20678 7.97391 9.17852 7.96183 9.14941ZM9.49991 15.5H11.2499V11.9404C10.72 11.8562 10.0978 11.6587 9.49991 11.2158V15.5ZM15.9999 9.2334V15.5H17.4999V11.1631C17.3599 11.0456 17.2165 10.913 17.0751 10.7607C16.6962 10.3527 16.3363 9.82562 16.037 9.14941C16.0252 9.17785 16.012 9.20547 15.9999 9.2334ZM14.4999 11.2158C13.902 11.6587 13.2798 11.8562 12.7499 11.9404V15.5H14.4999V11.2158Z" fill="black"/>
</svg>
