<svg width="24" height="24" viewBox="0 0 24 24" fill="none" xmlns="http://www.w3.org/2000/svg">
<path fill-rule="evenodd" clip-rule="evenodd" d="M11.3318 4.12714C11.5393 3.98798 11.8028 3.96127 12.034 4.05586L17.534 6.30586C17.8158 6.42119 17.9998 6.69569 17.9998 7.00019C17.9998 7.30469 17.8158 7.57919 17.534 7.69453L12.4998 9.75312V14.01C14.9049 14.1092 16.5761 14.9228 17.741 15.9338C18.9666 16.9975 19.5843 18.2425 19.9207 18.9152C20.0367 19.1476 20.0241 19.4237 19.8875 19.6447C19.7508 19.8657 19.5096 20.0002 19.2498 20.0002H4.74981C4.48999 20.0002 4.2488 19.8657 4.11211 19.6447C3.97553 19.4237 3.96287 19.1476 4.07891 18.9152C4.41529 18.2425 5.03305 16.9975 6.2586 15.9338C7.34102 14.9944 8.86056 14.226 10.9998 14.0422V4.75019C10.9998 4.50029 11.1244 4.26644 11.3318 4.12714ZM12.4998 16.2502C12.4998 16.6644 12.164 17.0002 11.7498 17.0002C11.3356 17.0002 10.9998 16.6644 10.9998 16.2502V15.55C9.2414 15.7256 8.05902 16.3566 7.24102 17.0666C6.7122 17.5256 6.32332 18.0304 6.02324 18.5002H17.9764C17.6763 18.0304 17.2874 17.5256 16.7586 17.0666C15.8653 16.2913 14.5377 15.6094 12.4998 15.5129V16.2502ZM12.4998 8.13203L15.2684 7.00019L12.4998 5.86738V8.13203Z" fill="black"/>
</svg>
