<svg width="24" height="24" viewBox="0 0 24 24" fill="none" xmlns="http://www.w3.org/2000/svg">
<path d="M14.6104 14.3574C14.8274 14.0047 15.2908 13.8942 15.6436 14.1113C15.996 14.3285 16.1057 14.7909 15.8887 15.1436L15.8877 15.1445L14 18.2119V19.25C14 19.6642 13.6642 20 13.25 20H10.75C10.3358 20 10 19.6642 10 19.25V18.2119L8.1123 15.1445L8.11133 15.1436C7.89432 14.7909 8.00398 14.3285 8.35645 14.1113C8.70921 13.8942 9.17256 14.0047 9.38965 14.3574C9.47169 14.4685 10.1269 15.25 12 15.25C13.8731 15.25 14.5283 14.4686 14.6104 14.3574ZM13.2002 16.6484C12.8433 16.7096 12.4451 16.75 12 16.75C11.5545 16.75 11.1559 16.7097 10.7988 16.6484L11.3887 17.6064C11.4614 17.7247 11.5 17.8612 11.5 18V18.5H12.5V18C12.5 17.8612 12.5386 17.7247 12.6113 17.6064L13.2002 16.6484ZM12 4C14.7614 4 17 6.23858 17 9C17 11.7614 14.7614 14 12 14C9.23858 14 7 11.7614 7 9C7 6.23858 9.23858 4 12 4ZM12 5.5C11.6307 5.5 11.2747 5.55705 10.9404 5.66309C10.9782 5.76848 11 5.88162 11 6C11 6.55228 10.5523 7 10 7C9.74078 7 9.50579 6.90006 9.32812 6.73828C8.97714 7.1525 8.72215 7.65002 8.59375 8.19629C8.83991 8.37845 9 8.67026 9 9C9 9.32954 8.83965 9.62055 8.59375 9.80273C8.72202 10.3491 8.97719 10.8464 9.32812 11.2607C9.50574 11.0992 9.74102 11 10 11C10.5523 11 11 11.4477 11 12C11 12.1181 10.978 12.2308 10.9404 12.3359C11.2747 12.442 11.6306 12.5 12 12.5C12.3691 12.5 12.7245 12.4418 13.0586 12.3359C13.0211 12.2309 13 12.1179 13 12C13 11.4477 13.4477 11 14 11C14.2587 11 14.4933 11.0995 14.6709 11.2607C15.022 10.8464 15.2769 10.3492 15.4053 9.80273C15.1597 9.62052 15 9.32925 15 9C15 8.67054 15.1595 8.37848 15.4053 8.19629C15.2768 7.64989 15.022 7.15255 14.6709 6.73828C14.4933 6.89977 14.259 7 14 7C13.4477 7 13 6.55228 13 6C13 5.88173 13.0209 5.76839 13.0586 5.66309C12.7246 5.55723 12.369 5.5 12 5.5ZM12 8C12.5523 8 13 8.44772 13 9C13 9.55228 12.5523 10 12 10C11.4477 10 11 9.55228 11 9C11 8.44772 11.4477 8 12 8Z" fill="black"/>
</svg>
