<svg width="24" height="24" viewBox="0 0 24 24" fill="none" xmlns="http://www.w3.org/2000/svg">
<path d="M11.999 4C13.997 4 15.8258 4.73308 17.2275 5.94434C17.3851 6.08048 17.4786 6.2763 17.4863 6.48438C17.4939 6.69243 17.4147 6.89468 17.2676 7.04199L15.1357 9.17383C14.8683 9.44086 14.4439 9.46733 14.1455 9.23535C13.5527 8.77432 12.8089 8.5 11.999 8.5C10.066 8.5 8.49902 10.067 8.49902 12C8.49902 13.933 10.066 15.5 11.999 15.5C13.1876 15.5 14.2383 14.9068 14.8711 14H12.75C12.3358 14 12 13.6642 12 13.25V10.75C12 10.3358 12.3358 10 12.75 10H19.1416C19.5063 10 19.8184 10.2628 19.8809 10.6221C19.9587 11.0702 19.999 11.5307 19.999 12C19.999 12.4693 19.9587 12.9298 19.8809 13.3779C19.2272 17.1394 15.9477 20 11.999 20C7.58075 20 3.99902 16.4183 3.99902 12C3.99902 7.58172 7.58075 4 11.999 4ZM11.999 5.5C8.40917 5.5 5.49902 8.41015 5.49902 12C5.49902 15.5899 8.40917 18.5 11.999 18.5C15.2058 18.5 17.8712 16.1771 18.4023 13.1221C18.4656 12.7582 18.499 12.383 18.499 12C18.499 11.8316 18.492 11.6649 18.4795 11.5H13.5V12.5H16.0625C16.3004 12.5001 16.5237 12.6134 16.665 12.8047C16.8064 12.9961 16.8492 13.2433 16.7793 13.4707C16.1514 15.5136 14.2497 17 11.999 17C9.2376 17 6.99902 14.7614 6.99902 12C6.99902 9.23858 9.2376 7 11.999 7C12.914 7 13.7724 7.24701 14.5107 7.67676L15.5996 6.58789C14.5688 5.90055 13.3314 5.5 11.999 5.5Z" fill="black"/>
</svg>
