<svg width="24" height="24" viewBox="0 0 24 24" fill="none" xmlns="http://www.w3.org/2000/svg">
<path fill-rule="evenodd" clip-rule="evenodd" d="M15 3.99976C15.3028 3.99986 15.5761 4.18214 15.6924 4.46167L19.9492 14.7117C20.0351 14.9184 20.0238 15.1535 19.919 15.3513L17.6621 19.6013C17.532 19.8463 17.2774 19.9997 17 19.9998H7.00001C6.97438 19.9998 6.94881 19.9984 6.92384 19.9958C6.92022 19.9955 6.91671 19.9943 6.9131 19.9939C6.87723 19.9898 6.84275 19.9814 6.80861 19.9724C6.78872 19.9671 6.7694 19.9607 6.75001 19.9539C6.72279 19.9442 6.69658 19.9333 6.67091 19.9207C6.65294 19.9119 6.63544 19.9026 6.61818 19.8923C6.59483 19.8784 6.57241 19.8637 6.55079 19.8474C6.53211 19.8334 6.5145 19.8183 6.49708 19.8025C6.48016 19.7871 6.46371 19.7715 6.44825 19.7546C6.40613 19.7086 6.36747 19.658 6.33693 19.6003L4.08693 15.3503C3.9825 15.1528 3.97204 14.9191 4.05763 14.7126L8.3047 4.46753C8.30833 4.4586 8.31246 4.44991 8.31642 4.44116C8.35403 4.35779 8.40587 4.28507 8.46681 4.22339C8.46794 4.22224 8.4686 4.22062 8.46974 4.21948L8.47364 4.21558C8.48239 4.20697 8.49284 4.20028 8.50197 4.19214C8.56351 4.13718 8.63273 4.09075 8.70997 4.05835C8.72917 4.05031 8.74974 4.04622 8.76954 4.03979C8.83954 4.01712 8.91292 4.00072 8.99025 3.99976H15ZM9.46974 15.9998L8.30958 18.4998H15.6904L14.5303 15.9998H9.46974ZM16.1846 15.9998L16.9736 17.7L17.876 15.9998H16.1846ZM6.12794 15.9998L7.02638 17.698L7.81446 15.9998H6.12794ZM5.76759 14.4998H8.51075L11.1719 8.76831L9.65529 5.49976H9.50001L5.76759 14.4998ZM10.167 14.4998H13.833L12 10.5505L10.167 14.4998ZM12.8272 8.76831L15.4883 14.4998H18.2363L14.499 5.49976H14.3447L12.8272 8.76831ZM12 6.98706L12.6904 5.49976H11.3096L12 6.98706Z" fill="black"/>
</svg>
