<svg width="24" height="24" viewBox="0 0 24 24" fill="none" xmlns="http://www.w3.org/2000/svg">
<path fill-rule="evenodd" clip-rule="evenodd" d="M19.1924 4.00151C19.6052 3.96976 19.9661 4.27915 19.998 4.69194C20.0298 5.1049 19.7206 5.46578 19.3076 5.4976C17.9749 5.60012 16.8297 6.48488 15.9697 7.46342C15.7981 7.65875 15.643 7.85456 15.5029 8.04057C15.6646 8.01362 15.8307 7.99955 16 7.99955C17.6567 7.99955 18.9998 9.34285 19 10.9996C19 12.354 18.102 13.4979 16.8691 13.8706C16.4956 15.1022 15.3543 15.9996 14 15.9996C13.6467 15.9996 13.3089 15.935 12.9941 15.8228C12.9975 15.8812 13 15.9403 13 15.9996C13 17.6564 11.6569 18.9996 10 18.9996C9.76107 18.9996 9.52944 18.9683 9.30664 18.9156C8.75718 19.5763 7.92862 19.9996 7 19.9996C5.34315 19.9996 4 18.6564 4 16.9996C4.00008 16.2299 4.29095 15.5281 4.7666 14.9976C4.29152 14.4668 4 13.7679 4 12.9996C4.00018 11.3429 5.34325 9.99955 7 9.99955C7.05731 9.99955 7.11426 10.0022 7.1709 10.0054C7.47354 9.14442 8.1566 8.46407 9.01953 8.16557C9.00747 8.11219 9 8.05658 9 7.99955C9.00018 6.34285 10.3433 4.99955 12 4.99955C13.1761 4.99955 14.1908 5.67828 14.6826 6.66362C14.7351 6.60102 14.7873 6.53626 14.8428 6.47319C15.7953 5.38937 17.2754 4.149 19.1924 4.00151ZM6.04785 15.8423C5.71275 16.1184 5.5001 16.5338 5.5 16.9996C5.5 17.828 6.17157 18.4996 7 18.4996C7.35335 18.4996 7.67677 18.3756 7.93359 18.1705C7.35977 17.624 7 16.8545 7 15.9996C6.66684 15.9996 6.34727 15.9426 6.04785 15.8423ZM10 14.4996C9.88442 14.4996 9.7727 14.5125 9.66602 14.5367C9.63182 14.5444 9.59745 14.5484 9.56348 14.5513C9.31226 14.9655 8.966 15.3149 8.55176 15.566C8.54879 15.5989 8.5446 15.6324 8.53711 15.6656C8.51292 15.7722 8.50002 15.8841 8.5 15.9996C8.5 16.828 9.17157 17.4996 10 17.4996C10.8284 17.4996 11.5 16.828 11.5 15.9996C11.4998 15.1713 10.8283 14.4996 10 14.4996ZM7 11.4996C6.17168 11.4996 5.50018 12.1713 5.5 12.9996C5.5 13.828 6.17157 14.4996 7 14.4996C7.63963 14.4996 8.18399 14.0978 8.39941 13.5337C7.69378 13.0871 7.18591 12.3565 7.04199 11.5005C7.02806 11.5002 7.01406 11.4996 7 11.4996ZM12.9941 10.8277C12.9973 10.8845 13 10.942 13 10.9996C13 11.612 12.8151 12.1811 12.5 12.6558V12.9996C12.5 13.828 13.1716 14.4996 14 14.4996C14.4942 14.4996 14.9326 14.2596 15.2061 13.8902C13.9349 13.5418 13 12.3812 13 10.9996C13 10.9407 13.0015 10.8818 13.0049 10.8238C13.0013 10.825 12.9977 10.8264 12.9941 10.8277ZM10 9.49955C9.17168 9.49955 8.50018 10.1713 8.5 10.9996C8.5 11.828 9.17157 12.4996 10 12.4996C10.8284 12.4996 11.5 11.828 11.5 10.9996C11.4998 10.1713 10.8283 9.49955 10 9.49955ZM16 9.49955C15.1717 9.49955 14.5002 10.1713 14.5 10.9996C14.5 11.828 15.1716 12.4996 16 12.4996C16.8284 12.4996 17.5 11.828 17.5 10.9996C17.4998 10.1713 16.8283 9.49955 16 9.49955ZM12 6.49955C11.1717 6.49955 10.5002 7.17128 10.5 7.99955C10.5 8.01324 10.4978 8.02707 10.4971 8.04057C11.355 8.18363 12.0869 8.6929 12.5342 9.39995C12.8505 9.27919 13.1153 9.05526 13.2871 8.76811C13.2985 8.73325 13.3122 8.69838 13.3291 8.66459L13.3408 8.67045V8.66948L13.3291 8.66362H13.3301V8.66166C13.3306 8.66067 13.3313 8.65915 13.332 8.65776C13.3336 8.65477 13.3364 8.65082 13.3389 8.64604C13.3439 8.6362 13.3505 8.62188 13.3594 8.60502C13.3719 8.5813 13.3883 8.55067 13.4082 8.5142C13.4669 8.35363 13.5 8.18033 13.5 7.99955C13.4998 7.17128 12.8283 6.49955 12 6.49955Z" fill="black"/>
</svg>
