<svg width="24" height="24" viewBox="0 0 24 24" fill="none" xmlns="http://www.w3.org/2000/svg">
<path d="M15 5C15.4142 5 15.75 5.33579 15.75 5.75V6.75C15.75 7.44036 16.3096 8 17 8H17.25C17.6642 8 18 8.33579 18 8.75V17.5H19.25C19.6642 17.5 20 17.8358 20 18.25C20 18.6642 19.6642 19 19.25 19H4.75C4.33579 19 4 18.6642 4 18.25C4 17.8358 4.33579 17.5 4.75 17.5H6V8.75C6 8.33579 6.33579 8 6.75 8H7C7.69036 8 8.25 7.44036 8.25 6.75V5.75C8.25 5.33579 8.58579 5 9 5H15ZM9.75 6.75C9.75 8.09788 8.77984 9.21684 7.5 9.45215V17.5H16.5V9.45215C15.2202 9.21684 14.25 8.09788 14.25 6.75V6.5H9.75V6.75ZM12 9C12.4142 9 12.75 9.33579 12.75 9.75V11H14.25C14.6642 11 15 11.3358 15 11.75C15 12.1642 14.6642 12.5 14.25 12.5H12.75V15.25C12.75 15.6642 12.4142 16 12 16C11.5858 16 11.25 15.6642 11.25 15.25V12.5H9.75C9.33579 12.5 9 12.1642 9 11.75C9 11.3358 9.33579 11 9.75 11H11.25V9.75C11.25 9.33579 11.5858 9 12 9Z" fill="black"/>
</svg>
