<svg width="24" height="24" viewBox="0 0 24 24" fill="none" xmlns="http://www.w3.org/2000/svg">
<g clip-path="url(#clip0_4152_3239)">
<path d="M15.75 4C16.1642 4 16.5 4.33579 16.5 4.75V7.5H19.25C19.6642 7.5 20 7.83579 20 8.25C20 8.66421 19.6642 9 19.25 9H16.5V15H19.25C19.6642 15 20 15.3358 20 15.75C20 16.1642 19.6642 16.5 19.25 16.5H16.5V19.25C16.5 19.6642 16.1642 20 15.75 20C15.3358 20 15 19.6642 15 19.25V16.5H9V19.25C9 19.6642 8.66421 20 8.25 20C7.83579 20 7.5 19.6642 7.5 19.25V16.5H4.75C4.33579 16.5 4 16.1642 4 15.75C4 15.3358 4.33579 15 4.75 15H7.5V9H4.75C4.33579 9 4 8.66421 4 8.25C4 7.83579 4.33579 7.5 4.75 7.5H7.5V4.75C7.5 4.33579 7.83579 4 8.25 4C8.66421 4 9 4.33579 9 4.75V7.5H15V4.75C15 4.33579 15.3358 4 15.75 4ZM34.25 15.5C34.6642 15.5 35 15.8358 35 16.25C35 16.6642 34.6642 17 34.25 17H25.75C25.3358 17 25 16.6642 25 16.25C25 15.8358 25.3358 15.5 25.75 15.5H34.25ZM9 9V15H15V9H9Z" fill="black"/>
</g>
<defs>
<clipPath id="clip0_4152_3239">
<rect width="24" height="24" fill="white"/>
</clipPath>
</defs>
</svg>
