<svg width="24" height="24" viewBox="0 0 24 24" fill="none" xmlns="http://www.w3.org/2000/svg">
<path fill-rule="evenodd" clip-rule="evenodd" d="M18.6255 4.22289C18.9169 3.92873 19.3917 3.92597 19.6861 4.21703C19.9802 4.50837 19.983 4.98324 19.6919 5.27757L14.6675 10.3498C15.6041 11.5373 15.8995 12.8207 15.9898 13.6243C16.097 14.5801 15.3499 15.1586 14.6558 15.2649C14.4591 15.295 14.2627 15.3364 14.0992 15.3918C14.0184 15.4192 13.954 15.4474 13.9068 15.4729C13.8843 15.4851 13.8674 15.496 13.856 15.5041C13.845 15.512 13.8394 15.5168 13.8394 15.5168C13.8388 15.5177 13.8372 15.5205 13.8345 15.5237C13.8307 15.5281 13.8244 15.5345 13.8179 15.5432C13.8044 15.5615 13.7869 15.5872 13.7662 15.6213C13.7233 15.6919 13.6744 15.7851 13.6167 15.9045C13.4902 16.1667 13.3819 16.4264 13.2085 16.8C12.891 17.4842 12.4473 18.3415 11.7466 19.0422C10.9429 19.8456 9.82409 20.1079 8.73295 19.9612C7.64241 19.8143 6.53383 19.2591 5.63724 18.3625C4.74066 17.4659 4.18539 16.3574 4.03861 15.2668C3.89192 14.1757 4.15414 13.0568 4.95756 12.2532C5.65822 11.5525 6.51555 11.1088 7.19974 10.7912C7.57335 10.6179 7.83312 10.5096 8.09525 10.383C8.21467 10.3254 8.30791 10.2765 8.37846 10.2336C8.41256 10.2129 8.43832 10.1954 8.45658 10.1819C8.46526 10.1754 8.47168 10.1691 8.47611 10.1653C8.47928 10.1626 8.48201 10.161 8.48295 10.1604C8.48295 10.1604 8.48773 10.1548 8.49564 10.1438C8.50381 10.1323 8.51468 10.1155 8.52689 10.093C8.55243 10.0458 8.58053 9.98142 8.60795 9.90062C8.6634 9.73702 8.70473 9.54076 8.7349 9.34398C8.83456 8.69321 9.34927 7.9955 10.2007 7.99925L10.3755 8.01L10.7515 8.06273C11.5346 8.19621 12.5991 8.52026 13.6011 9.29418L18.6255 4.22289ZM10.2183 9.57054C10.1807 9.8161 10.1216 10.1057 10.0279 10.3821C9.93874 10.6449 9.79408 10.9704 9.54349 11.2209C9.31893 11.4453 9.00391 11.6099 8.7476 11.7336C8.49075 11.8576 8.12555 12.0152 7.83158 12.1516C7.17997 12.454 6.52377 12.808 6.0181 13.3137C5.61554 13.7165 5.42596 14.3319 5.52494 15.0676C5.62416 15.8042 6.01285 16.617 6.69779 17.302C7.38273 17.9869 8.19562 18.3756 8.93217 18.4748C9.66786 18.5738 10.2832 18.3842 10.6861 17.9817C11.1918 17.476 11.5458 16.8198 11.8482 16.1682C11.9846 15.8742 12.1421 15.509 12.2662 15.2522C12.3899 14.9959 12.5545 14.6808 12.7788 14.4563C13.0294 14.2057 13.3549 14.061 13.6177 13.9719C13.8941 13.8782 14.1837 13.8191 14.4292 13.7815C14.4577 13.7771 14.4794 13.768 14.4947 13.761C14.4233 13.159 14.2101 12.2671 13.6011 11.427L10.2828 14.7776C9.99137 15.0714 9.51641 15.0744 9.22221 14.7834C8.92824 14.4922 8.92563 14.0172 9.21635 13.7229L12.5347 10.3713C11.7054 9.7828 10.8307 9.57425 10.2378 9.50414C10.2308 9.51947 10.2227 9.54172 10.2183 9.57054Z" fill="black"/>
</svg>
