<svg width="24" height="24" viewBox="0 0 24 24" fill="none" xmlns="http://www.w3.org/2000/svg">
<path d="M19.25 5C19.6642 5 20 5.33579 20 5.75V8C20 8.19891 19.9209 8.38962 19.7803 8.53027L17.8398 10.4697L19.2568 15.5059C19.75 17.2599 18.4323 18.9997 16.6104 19H15C14.6558 19 14.3559 18.7655 14.2725 18.4316L13.165 14H11.1504C9.99419 13.9998 8.96154 13.2761 8.56641 12.1895L8.13379 11H6C5.80109 11 5.61038 10.9209 5.46973 10.7803L4.21973 9.53027C4.07907 9.38962 4 9.19891 4 9V7C4 6.80109 4.07907 6.61038 4.21973 6.46973L5.46973 5.21973L5.58398 5.12598C5.70628 5.04445 5.85085 5 6 5H19.25ZM5.5 7.31055V8.68945L6.31055 9.5H13C13.3442 9.5 13.6441 9.73448 13.7275 10.0684L15.585 17.5H16.6104C17.4384 17.4997 18.0377 16.7084 17.8135 15.9111L16.2783 10.4531C16.2049 10.192 16.2779 9.91154 16.4697 9.71973L18.5 7.68945V6.5H6.31055L5.5 7.31055ZM9.97656 11.6768C10.1561 12.1706 10.6249 12.4998 11.1504 12.5H12.79L12.415 11H9.73047L9.97656 11.6768Z" fill="black"/>
</svg>
