<svg width="24" height="24" viewBox="0 0 24 24" fill="none" xmlns="http://www.w3.org/2000/svg">
<path d="M15.25 4C15.6642 4 16 4.33579 16 4.75V6H16.25C16.6642 6 17 6.33579 17 6.75V8.75C17 10.7076 16.6611 12.2939 16.3857 13.2617C16.2099 13.8796 16.0908 14.4691 16.0908 15.042V15.9082C16.0908 18.1674 14.2595 20 12 20C9.74068 20 7.90923 18.1685 7.90918 15.9092V15.042C7.90913 14.4692 7.79006 13.8794 7.61426 13.2617C7.33886 12.2939 7 10.7076 7 8.75V6.75C7 6.33579 7.33579 6 7.75 6H8V4.75C8 4.33579 8.33579 4 8.75 4C9.16421 4 9.5 4.33579 9.5 4.75V6H10V4.75C10 4.33579 10.3358 4 10.75 4C11.1642 4 11.5 4.33579 11.5 4.75V6H12.5V4.75C12.5 4.33579 12.8358 4 13.25 4C13.6642 4 14 4.33579 14 4.75V6H14.5V4.75C14.5 4.33579 14.8358 4 15.25 4ZM15.4541 9.91211C14.6908 10.5446 13.5824 11 12 11C10.4172 11 9.30825 10.5449 8.54492 9.91211C8.6388 11.1646 8.86576 12.1809 9.05664 12.8516C9.24911 13.5278 9.40913 14.2694 9.40918 15.042V15.9092C9.40923 17.3401 10.5691 18.5 12 18.5C13.4307 18.5 14.5908 17.3393 14.5908 15.9082V15.042C14.5908 14.2693 14.7509 13.5279 14.9434 12.8516C15.1342 12.1809 15.3602 11.1646 15.4541 9.91211ZM12 13C12.4142 13 12.75 13.3358 12.75 13.75V15.25C12.75 15.6642 12.4142 16 12 16C11.5858 16 11.25 15.6642 11.25 15.25V13.75C11.25 13.3358 11.5858 13 12 13ZM8.6582 7.5C8.72309 7.6917 8.8117 7.90093 8.93848 8.10742C9.33551 8.75405 10.1524 9.5 12 9.5C13.8476 9.5 14.6645 8.75405 15.0615 8.10742C15.1883 7.90093 15.2769 7.6917 15.3418 7.5H8.6582Z" fill="#141414"/>
</svg>
