<svg width="24" height="24" viewBox="0 0 24 24" fill="none" xmlns="http://www.w3.org/2000/svg">
<path fill-rule="evenodd" clip-rule="evenodd" d="M15.7393 4.03503C17.9789 3.7309 19.9997 5.44484 20 7.70398V9.29578C19.9999 10.2785 19.6165 11.1572 19 11.8124V18.2499C19 19.2164 18.2165 19.9999 17.25 19.9999H15.6211C14.7472 19.9997 14.0072 19.3548 13.8877 18.4891V18.4882L13.0195 12.4589L7.6123 11.453C7.25742 11.3868 7.00014 11.0767 7 10.7157V6.28406C7.00013 5.92303 7.25741 5.613 7.6123 5.54675L15.7031 4.04089L15.7393 4.03503ZM15.373 18.2802L15.374 18.2841C15.3911 18.4076 15.4964 18.4997 15.6211 18.4999H17.25C17.3881 18.4999 17.5 18.3879 17.5 18.2499V12.787C16.9545 12.9781 16.3554 13.0484 15.7393 12.9647C15.7272 12.9631 15.7151 12.9611 15.7031 12.9589L14.5771 12.7489L15.373 18.2802ZM5.25 9.99988C5.66421 9.99988 6 10.3357 6 10.7499C6 11.1641 5.66421 11.4999 5.25 11.4999H4.75C4.33579 11.4999 4 11.1641 4 10.7499C4 10.3357 4.33579 9.99988 4.75 9.99988H5.25ZM16.5 11.4843C17.6163 11.3643 18.4998 10.4351 18.5 9.29578V7.70398C18.4998 6.56463 17.6163 5.63442 16.5 5.51453V11.4843ZM8.5 6.9071V10.0917L15 11.3016V5.69714L8.5 6.9071ZM5.25 6.99988C5.66421 6.99988 6 7.33566 6 7.74988C6 8.16409 5.66421 8.49988 5.25 8.49988H4.75C4.33579 8.49988 4 8.16409 4 7.74988C4 7.33566 4.33579 6.99988 4.75 6.99988H5.25Z" fill="black"/>
</svg>
