<svg width="24" height="24" viewBox="0 0 24 24" fill="none" xmlns="http://www.w3.org/2000/svg">
<path fill-rule="evenodd" clip-rule="evenodd" d="M15.7228 4.2167C16.0173 3.92551 16.4921 3.9281 16.7833 4.22256C17.0745 4.51709 17.0719 4.99188 16.7775 5.28311L5.92394 16.0136C5.35765 16.5833 5.35844 17.5047 5.92687 18.0731C6.49627 18.6426 7.41985 18.6424 7.98937 18.0731L8.02355 18.0409L9.50011 16.7382V14.2499C9.50011 13.8357 9.8359 13.4999 10.2501 13.4999H12.8819L13.5001 12.703V10.7499C13.5001 10.3357 13.8359 9.99991 14.2501 9.99991H15.9122L18.7228 7.2167C19.0171 6.92559 19.492 6.92838 19.7833 7.22256C20.0744 7.5169 20.0716 7.99176 19.7775 8.28311L16.7491 11.2831C16.6087 11.4222 16.4185 11.4999 16.2208 11.4999H15.0001V12.9608C15 13.127 14.9447 13.2885 14.8429 13.4198L13.8429 14.7099C13.7008 14.893 13.4819 14.9999 13.2501 14.9999H11.0001V17.0771C11.0001 17.2923 10.9076 17.4972 10.7462 17.6396L9.01574 19.1659C7.858 20.2879 6.01042 20.2778 4.86632 19.1337C3.71113 17.9785 3.71132 16.1054 4.86632 14.9501L4.86925 14.9472L15.7228 4.2167Z" fill="black"/>
</svg>
