<svg width="24" height="24" viewBox="0 0 24 24" fill="none" xmlns="http://www.w3.org/2000/svg">
<path d="M7.25 4C8.2165 4 9 4.7835 9 5.75V6H15.0254C15.0378 6.00021 15.0542 6.00125 15.0742 6.00195C15.1147 6.00338 15.1705 6.00554 15.2393 6.01074C15.3765 6.02112 15.5672 6.04203 15.7939 6.08203C16.2445 6.16154 16.8561 6.32151 17.4756 6.64941C18.099 6.97945 18.7392 7.48435 19.2207 8.24902C19.7038 9.01634 20 10.0023 20 11.25C20 11.5039 19.8711 11.7406 19.6582 11.8789C19.4454 12.017 19.1772 12.0386 18.9453 11.9355H18.9463C18.946 11.9354 18.9447 11.9352 18.9434 11.9346C18.9407 11.9334 18.9361 11.9314 18.9297 11.9287C18.916 11.9229 18.8939 11.9135 18.8643 11.9014C18.8048 11.8771 18.7141 11.8406 18.5957 11.7969C18.3588 11.7094 18.0119 11.5912 17.582 11.4727C16.8895 11.2816 15.9925 11.0946 15 11.0273V19.25C15 19.6642 14.6642 20 14.25 20C13.8358 20 13.5 19.6642 13.5 19.25V14H11.5V19.25C11.5 19.6642 11.1642 20 10.75 20C10.3358 20 10 19.6642 10 19.25V11H9V11.25C9 12.2165 8.2165 13 7.25 13H5.75C4.7835 13 4 12.2165 4 11.25V5.75C4 4.7835 4.7835 4 5.75 4H7.25ZM5.75 5.5C5.61193 5.5 5.5 5.61193 5.5 5.75V11.25C5.5 11.3881 5.61193 11.5 5.75 11.5H7.25C7.38807 11.5 7.5 11.3881 7.5 11.25V10.25C7.5 9.83579 7.83579 9.5 8.25 9.5H10.75C11.1642 9.5 11.5 9.83579 11.5 10.25V12.5H13.5V10.25C13.5 9.83579 13.8358 9.5 14.25 9.5C15.7119 9.5 17.0313 9.76551 17.9805 10.0273C18.1238 10.0669 18.2592 10.1068 18.3857 10.1455C18.2873 9.69809 18.1339 9.33811 17.9512 9.04785C17.6359 8.54713 17.2133 8.20802 16.7744 7.97559C16.3317 7.74121 15.8804 7.61972 15.5342 7.55859C15.3627 7.52834 15.2211 7.51403 15.126 7.50684C15.0787 7.50326 15.0433 7.50175 15.0215 7.50098C15.0106 7.50059 15.0027 7.50006 14.999 7.5H8.25C7.83579 7.5 7.5 7.16421 7.5 6.75V5.75C7.5 5.61193 7.38807 5.5 7.25 5.5H5.75Z" fill="black"/>
</svg>
