<svg width="24" height="24" viewBox="0 0 24 24" fill="none" xmlns="http://www.w3.org/2000/svg">
<path d="M13.25 11C13.6642 11 14 11.3358 14 11.75V12.25H19.25C19.6642 12.25 20 12.5858 20 13V14.75C20 14.9749 19.8987 15.1876 19.7246 15.3301L19.25 14.75C19.7249 15.3305 19.7248 15.3309 19.7246 15.3311H19.7236L19.7227 15.332L19.7031 15.3477C19.6907 15.3576 19.6731 15.3718 19.6504 15.3896C19.6047 15.4256 19.5388 15.4774 19.4531 15.542C19.2816 15.6714 19.031 15.8542 18.7119 16.0723C18.0743 16.5081 17.1567 17.0877 16.0303 17.667C13.7865 18.8209 10.6649 20 7.25 20H4.75C4.33579 20 4 19.6642 4 19.25V12.75C4 12.3358 4.33579 12 4.75 12H7.25C7.64514 12 7.96809 12.3056 7.99707 12.6934L9.63281 11.7383V11.7393C10.3932 11.2573 11.2742 11 12.1748 11H13.25ZM5.5 18.5H6.5V13.5H5.5V18.5ZM12.1748 12.5C11.5516 12.5 10.9412 12.6796 10.417 13.0166C10.4083 13.0222 10.3996 13.028 10.3906 13.0332L8 14.4297V18.4766C10.7992 18.3226 13.3873 17.3397 15.3447 16.333C16.4055 15.7874 17.2695 15.2419 17.8662 14.834C18.1345 14.6506 18.3473 14.4941 18.5 14.3799V13.75H14V14C14 14.2841 13.839 14.5439 13.585 14.6709L11.085 15.9209C10.7146 16.1058 10.2643 15.9553 10.0791 15.585C9.89416 15.2146 10.0447 14.7643 10.415 14.5791L12.5 13.5361V12.5H12.1748ZM17.25 4C18.2165 4 19 4.7835 19 5.75V6H19.25C19.6642 6 20 6.33579 20 6.75V9.25C20 10.2165 19.2165 11 18.25 11H15.75C14.7835 11 14 10.2165 14 9.25V6.75C14 6.33579 14.3358 6 14.75 6H15V5.75C15 4.7835 15.7835 4 16.75 4H17.25ZM15.5 9.25C15.5 9.38807 15.6119 9.5 15.75 9.5H18.25C18.3881 9.5 18.5 9.38807 18.5 9.25V7.5H15.5V9.25ZM16.75 5.5C16.6119 5.5 16.5 5.61193 16.5 5.75V6H17.5V5.75C17.5 5.61193 17.3881 5.5 17.25 5.5H16.75Z" fill="black"/>
</svg>
