<svg width="24" height="24" viewBox="0 0 24 24" fill="none" xmlns="http://www.w3.org/2000/svg">
<path d="M13.25 11C13.6642 11 14 11.3358 14 11.75V12H19.25C19.6642 12 20 12.3358 20 12.75V14.75C20 14.9743 19.8995 15.1848 19.7295 15.3262L19.6523 15.3828L19.6504 15.3838C19.6493 15.3845 19.6473 15.3856 19.6455 15.3867C19.642 15.389 19.637 15.3927 19.6309 15.3965C19.6184 15.4042 19.6007 15.4149 19.5781 15.4287C19.5325 15.4567 19.4664 15.4967 19.3809 15.5469C19.2095 15.6474 18.96 15.7897 18.6416 15.959C18.0048 16.2975 17.0888 16.7471 15.9658 17.1963C13.8931 18.0254 11.0848 18.8629 8 18.9834V19.25C8 19.6642 7.66421 20 7.25 20H4.75C4.33579 20 4 19.6642 4 19.25V12.75C4 12.3358 4.33579 12 4.75 12H7.25C7.63949 12 7.95926 12.2969 7.99609 12.6768L9.66406 11.6768C10.4023 11.2338 11.2475 11 12.1084 11H13.25ZM5.5 18.5H6.5V13.5H5.5V18.5ZM12.1084 12.5C11.5194 12.5 10.9406 12.6598 10.4355 12.9629L8 14.4248V17.4814C10.8344 17.3616 13.4459 16.589 15.4092 15.8037C16.4734 15.378 17.339 14.9524 17.9365 14.6348C18.1652 14.5132 18.3545 14.4068 18.5 14.3232V13.5H14V14C14 14.2841 13.839 14.5439 13.585 14.6709L11.085 15.9209C10.7146 16.1058 10.2643 15.9553 10.0791 15.585C9.89416 15.2146 10.0447 14.7643 10.415 14.5791L12.5 13.5361V12.5H12.1084ZM19 8C19.5523 8 20 8.44772 20 9C20 9.55228 19.5523 10 19 10C18.4477 10 18 9.55228 18 9C18 8.44772 18.4477 8 19 8ZM20 7H18V4H20V7Z" fill="black"/>
</svg>
