<svg width="24" height="24" viewBox="0 0 24 24" fill="none" xmlns="http://www.w3.org/2000/svg">
<path fill-rule="evenodd" clip-rule="evenodd" d="M12.4997 4C13.2914 4 13.9734 4.46146 14.2975 5.12891C14.5162 5.0468 14.7523 5.00002 14.9997 5C16.1042 5 16.9997 5.8954 16.9997 7V7.06543C17.1597 7.02419 17.3268 7.00001 17.4997 7C18.6042 7 19.4997 7.8954 19.4997 9V15.25C19.4997 16.4943 19.1363 17.6737 18.4059 18.5566C17.6637 19.4537 16.5761 20 15.2497 20H11.3659C9.02595 20 6.91945 18.5819 6.03875 16.4141L4.05925 11.543C4.06099 11.5473 4.06461 11.5519 4.06707 11.5576C4.03959 11.4938 4.02229 11.4395 4.01531 11.4033C3.99334 11.2891 4.00146 11.1899 4.01531 11.1182C4.02915 11.0465 4.05845 10.9507 4.12175 10.8525C4.15015 10.8086 4.20655 10.734 4.29558 10.665C5.26523 9.74738 6.83821 9.78684 7.72234 10.8467L7.99968 11.1787V8C7.99968 6.89558 8.89532 6.00026 9.99968 6C10.1724 6 10.3398 6.02427 10.4997 6.06543V6C10.4997 4.8956 11.3953 4.00026 12.4997 4ZM12.4997 5.5C12.2237 5.50026 11.9997 5.724 11.9997 6V11.25C11.9997 11.6642 11.6639 12 11.2497 12C10.8357 11.9997 10.4997 11.6641 10.4997 11.25V8C10.4997 7.72388 10.2758 7.5 9.99968 7.5C9.72374 7.50026 9.49968 7.72402 9.49968 8V13.25C9.49968 13.5657 9.30236 13.8475 9.00554 13.9551C8.70881 14.0626 8.37671 13.9728 8.17449 13.7305L6.57 11.8076C6.3513 11.5456 5.99808 11.4522 5.68035 11.5459L7.4284 15.8496C8.07936 17.4519 9.63638 18.5 11.3659 18.5H15.2497C16.1322 18.5 16.7953 18.151 17.2507 17.6006C17.7179 17.0358 17.9997 16.2148 17.9997 15.25V9C17.9997 8.72388 17.7758 8.5 17.4997 8.5C17.2236 8.50007 16.9997 8.72388 16.9997 9V11.25C16.9997 11.6642 16.6639 12 16.2497 12C15.8355 11.9999 15.4997 11.6642 15.4997 11.25V7C15.4997 6.72388 15.2758 6.5 14.9997 6.5C14.7236 6.50007 14.4997 6.72388 14.4997 7V11.25C14.4997 11.6642 14.1639 12 13.7497 12C13.3357 11.9997 12.9997 11.6641 12.9997 11.25V6C12.9997 5.72388 12.7758 5.5 12.4997 5.5Z" fill="black"/>
</svg>
