<svg width="24" height="24" viewBox="0 0 24 24" fill="none" xmlns="http://www.w3.org/2000/svg">
<path d="M16.2715 4C17.0315 4.00019 17.7049 4.49127 17.9375 5.21484L19.916 11.3711C19.9246 11.3978 19.9312 11.4251 19.9385 11.4521C19.978 11.5435 20 11.6442 20 11.75V18.25C20 19.2165 19.2165 20 18.25 20H5.75C4.7835 20 4 19.2165 4 18.25V11.75C4 11.6443 4.02109 11.5434 4.06055 11.4521C4.06785 11.425 4.07537 11.3979 4.08398 11.3711L6.0625 5.21484C6.29508 4.49127 6.96851 4.00019 7.72852 4H16.2715ZM5.5 18.25C5.5 18.3881 5.61193 18.5 5.75 18.5H18.25C18.3881 18.5 18.5 18.3881 18.5 18.25V12.5H5.5V18.25ZM10 16H7V14.5H10V16ZM17 16H12V14.5H17V16ZM7.72852 5.5C7.6201 5.50019 7.5244 5.57058 7.49121 5.67383L5.77832 11H18.2217L16.5088 5.67383C16.4756 5.57058 16.3799 5.50019 16.2715 5.5H7.72852Z" fill="black"/>
</svg>
