<svg width="24" height="24" viewBox="0 0 24 24" fill="none" xmlns="http://www.w3.org/2000/svg">
<path d="M15.4609 4C16.7084 4.00018 17.7998 4.83999 18.1191 6.0459L19.709 12.0518C19.9024 12.7824 20 13.5352 20 14.291V16C20 18.2091 18.2091 20 16 20H8C5.79086 20 4 18.2091 4 16V14.291C4 13.5352 4.09761 12.7824 4.29102 12.0518L5.88086 6.0459C6.20023 4.83999 7.29158 4.00018 8.53906 4H15.4609ZM8 13.5C6.61929 13.5 5.5 14.6193 5.5 16C5.5 17.3807 6.61929 18.5 8 18.5H16C17.3807 18.5 18.5 17.3807 18.5 16C18.5 14.6193 17.3807 13.5 16 13.5H8ZM8 15C8.55228 15 9 15.4477 9 16C9 16.5523 8.55228 17 8 17C7.44772 17 7 16.5523 7 16C7 15.4477 7.44772 15 8 15ZM16.25 15.25C16.6642 15.25 17 15.5858 17 16C17 16.4142 16.6642 16.75 16.25 16.75H12.75C12.3358 16.75 12 16.4142 12 16C12 15.5858 12.3358 15.25 12.75 15.25H16.25ZM8.53906 5.5C7.97221 5.50018 7.47629 5.88176 7.33105 6.42969L5.74121 12.4355C5.71335 12.5408 5.6881 12.6466 5.66504 12.7529C6.32217 12.2796 7.12827 12 8 12H16C16.8714 12 17.677 12.2798 18.334 12.7529C18.3109 12.6467 18.2866 12.5407 18.2588 12.4355L16.6689 6.42969C16.5237 5.88176 16.0278 5.50018 15.4609 5.5H8.53906Z" fill="black"/>
</svg>
