<svg width="24" height="24" viewBox="0 0 24 24" fill="none" xmlns="http://www.w3.org/2000/svg">
<path d="M12 4C14.2587 4 16.3001 4.93683 17.7539 6.44141C19.1439 7.87995 20 9.84086 20 12C20 16.4183 16.4183 20 12 20C7.58172 20 4 16.4183 4 12C4 7.58172 7.58172 4 12 4ZM11.25 5.54395C8.01348 5.91585 5.5 8.66385 5.5 12C5.5 15.5899 8.41015 18.5 12 18.5C15.5899 18.5 18.5 15.5899 18.5 12C18.5 10.5202 18.0046 9.1581 17.1719 8.06543L14.6455 10.5908C14.8699 11.0114 15 11.4905 15 12C15 13.6569 13.6569 15 12 15C10.3431 15 9 13.6569 9 12C9 10.6024 9.95647 9.43095 11.25 9.09766V5.54395ZM12 10.5C11.1716 10.5 10.5 11.1716 10.5 12C10.5 12.8284 11.1716 13.5 12 13.5C12.8284 13.5 13.5 12.8284 13.5 12C13.5 11.6153 13.3561 11.2659 13.1182 11C12.8424 10.692 12.4441 10.5 12 10.5ZM12.75 9.09473C13.0676 9.17655 13.3652 9.30856 13.6328 9.48242L16.1318 6.9834C15.1898 6.20642 14.0266 5.69052 12.75 5.54395V9.09473Z" fill="black"/>
</svg>
