<svg width="24" height="24" viewBox="0 0 24 24" fill="none" xmlns="http://www.w3.org/2000/svg">
<path fill-rule="evenodd" clip-rule="evenodd" d="M15.5107 4.62322C15.5811 4.21527 15.969 3.94086 16.377 4.01092C16.7849 4.08126 17.0593 4.46916 16.9893 4.87713L16.4512 8.00018H19.25C19.6642 8.00018 19.9999 8.33602 20 8.75018C20 9.16439 19.6642 9.50018 19.25 9.50018H16.1924L15.3301 14.5002H18.25C18.6642 14.5002 18.9999 14.836 19 15.2502C19 15.6644 18.6642 16.0002 18.25 16.0002H15.0713L14.4893 19.3771C14.4189 19.7852 14.0311 20.0595 13.623 19.9894C13.215 19.9191 12.9407 19.5312 13.0107 19.1232L13.5488 16.0002H9.07129L8.48926 19.3771C8.41891 19.7852 8.03106 20.0595 7.62305 19.9894C7.21503 19.9191 6.94067 19.5312 7.01074 19.1232L7.54883 16.0002H4.75C4.33579 16.0002 4 15.6644 4 15.2502C4.00007 14.836 4.33583 14.5002 4.75 14.5002H7.80762L8.66992 9.50018H5.75C5.33579 9.50018 5 9.16439 5 8.75018C5.00007 8.33602 5.33583 8.00018 5.75 8.00018H8.92871L9.51074 4.62322C9.58115 4.21527 9.96899 3.94086 10.377 4.01092C10.7849 4.08126 11.0593 4.46916 10.9893 4.87713L10.4512 8.00018H14.9287L15.5107 4.62322ZM9.33008 14.5002H13.8076L14.6699 9.50018H10.1924L9.33008 14.5002Z" fill="black"/>
</svg>
