<svg width="24" height="24" viewBox="0 0 24 24" fill="none" xmlns="http://www.w3.org/2000/svg">
<path d="M15.25 4C16.7688 4 18 5.23122 18 6.75V14.1133C18.4913 14.3476 18.9256 14.6234 19.2627 14.9463C19.6815 15.3476 20 15.8722 20 16.5C20 17.1678 19.6401 17.7169 19.1807 18.1289C18.7209 18.5411 18.0981 18.8779 17.3926 19.1455C15.9758 19.6829 14.069 20 12 20C9.93101 20 8.02421 19.6829 6.60742 19.1455C5.90186 18.8779 5.27906 18.5411 4.81934 18.1289C4.35992 17.7169 4 17.1678 4 16.5C4 15.8722 4.31846 15.3476 4.7373 14.9463C5.07435 14.6234 5.50868 14.3476 6 14.1133V6.75C6 5.23122 7.23122 4 8.75 4H15.25ZM17.665 15.6338C17.603 15.6847 17.517 15.749 17.4053 15.8223C17.1814 15.9691 16.8537 16.1501 16.3994 16.3252C15.4903 16.6755 14.0844 17 12 17C9.91559 17 8.50975 16.6755 7.60059 16.3252C7.14632 16.1501 6.81865 15.9691 6.59473 15.8223C6.48296 15.749 6.39703 15.6847 6.33496 15.6338L6.33301 15.6318C6.09789 15.7658 5.91167 15.8988 5.77539 16.0293C5.5405 16.2543 5.5 16.4132 5.5 16.5C5.5 16.5916 5.54623 16.7658 5.82031 17.0117C6.09427 17.2574 6.5334 17.5132 7.13965 17.7432C8.34684 18.201 10.065 18.5 12 18.5C13.935 18.5 15.6532 18.201 16.8604 17.7432C17.4666 17.5132 17.9057 17.2574 18.1797 17.0117C18.4538 16.7658 18.5 16.5916 18.5 16.5C18.5 16.4132 18.4595 16.2543 18.2246 16.0293C18.0882 15.8986 17.9015 15.7659 17.666 15.6318L17.665 15.6338ZM16.3994 13.3252C15.4903 13.6755 14.0844 14 12 14C9.91559 14 8.50975 13.6755 7.60059 13.3252C7.56612 13.3119 7.53302 13.2965 7.5 13.2832V14.6191C7.63928 14.7029 7.84771 14.8123 8.13965 14.9248C8.85231 15.1994 10.0718 15.5 12 15.5C13.9282 15.5 15.1477 15.1994 15.8604 14.9248C16.1523 14.8123 16.3607 14.7029 16.5 14.6191V13.2832C16.467 13.2965 16.4339 13.3119 16.3994 13.3252ZM8.75 5.5C8.05964 5.5 7.5 6.05964 7.5 6.75V11.6191C7.63928 11.7029 7.84771 11.8123 8.13965 11.9248C8.85231 12.1994 10.0718 12.5 12 12.5C13.9282 12.5 15.1477 12.1994 15.8604 11.9248C16.1523 11.8123 16.3607 11.7029 16.5 11.6191V6.75C16.5 6.05964 15.9404 5.5 15.25 5.5H8.75Z" fill="black"/>
</svg>
