<svg width="24" height="24" viewBox="0 0 24 24" fill="none" xmlns="http://www.w3.org/2000/svg">
<path d="M12 4.25C16.4183 4.25 20 7.83172 20 12.25V16.5498C20 18.4552 18.4552 20 16.5498 20C15.1416 19.9999 14.0001 18.8584 14 17.4502V14.5498C14.0001 13.1416 15.1416 12.0001 16.5498 12C17.2735 12 17.9452 12.2227 18.5 12.6035V12.25C18.5 8.66015 15.5899 5.75 12 5.75C8.41015 5.75 5.5 8.66015 5.5 12.25V12.6035C6.05477 12.2227 6.72652 12 7.4502 12C8.85837 12.0001 9.99989 13.1416 10 14.5498V17.4502C9.99989 18.8584 8.85837 19.9999 7.4502 20C5.54481 20 4 18.4552 4 16.5498V12.25C4 7.83172 7.58172 4.25 12 4.25ZM7.4502 13.5C6.37324 13.5 5.5 14.3732 5.5 15.4502V16.5498C5.5 17.6268 6.37324 18.5 7.4502 18.5C8.02994 18.4999 8.49989 18.0299 8.5 17.4502V14.5498C8.49989 13.9701 8.02994 13.5001 7.4502 13.5ZM16.5498 13.5C15.9701 13.5001 15.5001 13.9701 15.5 14.5498V17.4502C15.5001 18.0299 15.9701 18.4999 16.5498 18.5C17.6268 18.5 18.5 17.6268 18.5 16.5498V15.4502C18.5 14.3732 17.6268 13.5 16.5498 13.5Z" fill="black"/>
</svg>
