<svg width="24" height="24" viewBox="0 0 24 24" fill="none" xmlns="http://www.w3.org/2000/svg">
<path d="M8.25 5C8.66421 5 9 5.33579 9 5.75C9 6.16421 8.66421 6.5 8.25 6.5H8V11H16V6.5H15.75C15.3358 6.5 15 6.16421 15 5.75C15 5.33579 15.3358 5 15.75 5H18.25C18.6642 5 19 5.33579 19 5.75C19 6.16421 18.6642 6.5 18.25 6.5H17.5V17.5H18.25C18.6642 17.5 19 17.8358 19 18.25C19 18.6642 18.6642 19 18.25 19H15.75C15.3358 19 15 18.6642 15 18.25C15 17.8358 15.3358 17.5 15.75 17.5H16V12.5H8V17.5H8.25C8.66421 17.5 9 17.8358 9 18.25C9 18.6642 8.66421 19 8.25 19H5.75C5.33579 19 5 18.6642 5 18.25C5 17.8358 5.33579 17.5 5.75 17.5H6.5V6.5H5.75C5.33579 6.5 5 6.16421 5 5.75C5 5.33579 5.33579 5 5.75 5H8.25Z" fill="black"/>
</svg>
