<svg width="24" height="24" viewBox="0 0 24 24" fill="none" xmlns="http://www.w3.org/2000/svg">
<path fill-rule="evenodd" clip-rule="evenodd" d="M11.9999 4C16.6625 4.00003 20.4413 7.71616 19.9588 12.1445C19.9575 12.1567 19.9559 12.1696 19.954 12.1816L19.6063 14.3672C19.6026 14.3906 19.5974 14.414 19.5917 14.4365C19.9781 15.0417 20.1189 15.791 19.8944 16.5537L19.4715 17.9912C19.0321 19.4837 17.4044 20.2756 15.9061 19.9102L15.3797 19.7822C14.4438 19.5538 13.7747 18.6245 14.0682 17.627L15.0545 14.2734C15.3382 13.31 16.3688 12.8319 17.286 13.0557L17.8124 13.1836C17.9646 13.2207 18.1107 13.2718 18.2518 13.3301L18.4676 11.9707C18.8307 8.57229 15.9104 5.50003 11.9999 5.5C8.08938 5.5 5.1681 8.57232 5.53111 11.9707L5.74693 13.3301C5.88832 13.2716 6.03483 13.2208 6.18736 13.1836L6.71373 13.0557C7.63096 12.8319 8.66152 13.31 8.94517 14.2734L9.9315 17.627C10.2251 18.6245 9.55594 19.5538 8.61998 19.7822L8.09361 19.9102C6.59527 20.2757 4.96761 19.4837 4.52818 17.9912L4.10533 16.5537C3.88086 15.791 4.02165 15.0417 4.40807 14.4365C4.4023 14.414 4.39714 14.3906 4.39342 14.3672L4.04576 12.1816C4.04384 12.1696 4.0422 12.1567 4.04088 12.1445C3.55841 7.71614 7.33717 4 11.9999 4ZM7.0692 14.5127L6.54283 14.6406C5.73567 14.8376 5.37055 15.5401 5.54381 16.1299L5.96666 17.5674C6.15024 18.1912 6.91204 18.6546 7.73814 18.4531L8.26451 18.3252C8.3723 18.2989 8.43816 18.2406 8.47057 18.1895C8.50127 18.1408 8.50597 18.0951 8.49303 18.0508L7.50572 14.6973C7.49151 14.649 7.45189 14.5905 7.369 14.5469C7.28583 14.5032 7.17821 14.4861 7.0692 14.5127ZM16.9305 14.5127C16.8215 14.4861 16.7139 14.5032 16.6307 14.5469C16.5478 14.5905 16.5082 14.649 16.494 14.6973L15.5067 18.0508C15.4937 18.0951 15.4984 18.1408 15.5292 18.1895C15.5616 18.2406 15.6274 18.2989 15.7352 18.3252L16.2616 18.4531C17.0877 18.6546 17.8495 18.1912 18.0331 17.5674L18.4559 16.1299C18.6292 15.5402 18.264 14.8376 17.4569 14.6406L16.9305 14.5127Z" fill="black"/>
</svg>
