<svg width="24" height="24" viewBox="0 0 24 24" fill="none" xmlns="http://www.w3.org/2000/svg">
<path d="M12 4C14.1346 4 16.1256 4.59771 17.5986 5.79004C19.0886 6.99606 20 8.77425 20 11V13.25C20 13.6642 19.6642 14 19.25 14C18.8358 14 18.5 13.6642 18.5 13.25V11C18.5 9.22169 17.7884 7.87402 16.6543 6.95605C15.6602 6.15151 14.3054 5.65086 12.75 5.5293V9.09766C14.0435 9.43095 15 10.6024 15 12C15 12.4853 14.8814 12.942 14.6768 13.3477L19.5605 15.5674C19.9375 15.7389 20.104 16.1835 19.9326 16.5605C19.7611 16.9375 19.3165 17.104 18.9395 16.9326L13.627 14.5176C13.158 14.8213 12.6003 15 12 15C10.3431 15 9 13.6569 9 12C9 10.6024 9.95646 9.43095 11.25 9.09766V5.5293C9.69476 5.65112 8.33999 6.15285 7.3457 6.95801C6.21137 7.87662 5.49994 9.22392 5.5 11C5.50003 11.999 5.51261 12.8465 5.57227 13.5625C5.63231 14.283 5.73695 14.8228 5.89648 15.2217C6.04973 15.6047 6.244 15.8352 6.48828 15.9834C6.74481 16.1389 7.1333 16.25 7.75 16.25C8.16421 16.25 8.5 16.5858 8.5 17V19.25C8.5 19.6642 8.16421 20 7.75 20C7.33579 20 7 19.6642 7 19.25V17.6982C6.52227 17.6315 6.08989 17.4963 5.71094 17.2666C5.13058 16.9148 4.75051 16.3949 4.50391 15.7783C4.26351 15.1773 4.14309 14.4669 4.07812 13.6875C4.01279 12.9036 4.00003 12.0009 4 11C3.99993 8.7761 4.91169 6.99837 6.40137 5.79199C7.87431 4.59918 9.86508 4 12 4ZM15.25 16.5C15.6642 16.5 16 16.8358 16 17.25C16 17.5762 15.7908 17.8509 15.5 17.9541V19.25C15.5 19.6642 15.1642 20 14.75 20C14.3358 20 14 19.6642 14 19.25V17.25C14 16.8358 14.3358 16.5 14.75 16.5H15.25ZM12 10.5C11.1716 10.5 10.5 11.1716 10.5 12C10.5 12.8284 11.1716 13.5 12 13.5C12.8284 13.5 13.5 12.8284 13.5 12C13.5 11.1716 12.8284 10.5 12 10.5Z" fill="#141414"/>
</svg>
