<svg width="24" height="24" viewBox="0 0 24 24" fill="none" xmlns="http://www.w3.org/2000/svg">
<path d="M16.25 4C18.3211 4 20 5.67893 20 7.75V16.25C20 18.3211 18.3211 20 16.25 20H7.75C5.67893 20 4 18.3211 4 16.25V7.75C4 5.67893 5.67893 4 7.75 4H16.25ZM7.75 5.5C6.50736 5.5 5.5 6.50736 5.5 7.75V16.25C5.5 17.4926 6.50736 18.5 7.75 18.5H16.25C17.4926 18.5 18.5 17.4926 18.5 16.25V7.75C18.5 6.50736 17.4926 5.5 16.25 5.5H7.75ZM13.25 7C13.6642 7 14 7.33579 14 7.75V10H16.25C16.6642 10 17 10.3358 17 10.75V13.25C17 13.6642 16.6642 14 16.25 14H14V16.25C14 16.6642 13.6642 17 13.25 17H10.75C10.3358 17 10 16.6642 10 16.25V14H7.75C7.33579 14 7 13.6642 7 13.25V10.75C7 10.3358 7.33579 10 7.75 10H10V7.75C10 7.33579 10.3358 7 10.75 7H13.25ZM11.5 10.75C11.5 11.1642 11.1642 11.5 10.75 11.5H8.5V12.5H10.75C11.1642 12.5 11.5 12.8358 11.5 13.25V15.5H12.5V13.25C12.5 12.8358 12.8358 12.5 13.25 12.5H15.5V11.5H13.25C12.8358 11.5 12.5 11.1642 12.5 10.75V8.5H11.5V10.75Z" fill="black"/>
</svg>
