<svg width="24" height="24" viewBox="0 0 24 24" fill="none" xmlns="http://www.w3.org/2000/svg">
<path fill-rule="evenodd" clip-rule="evenodd" d="M19.2497 16.5002C19.6639 16.5002 19.9997 16.836 19.9997 17.2502C19.9996 17.6644 19.6639 18.0002 19.2497 18.0002H15.7497C15.3357 18.0001 14.9998 17.6643 14.9997 17.2502C14.9997 16.8361 15.3356 16.5004 15.7497 16.5002H19.2497ZM5.83663 6.07934C7.78531 4.48452 10.29 4.76968 11.9939 6.1936C13.6958 4.76863 16.1749 4.50499 18.1452 6.07348C19.801 7.39201 20.2504 9.65677 19.7194 11.4622C19.6024 11.8593 19.185 12.0868 18.7878 11.97C18.3908 11.8529 18.1633 11.4355 18.28 11.0383C18.6716 9.70664 18.3045 8.11715 17.2106 7.24633C15.7145 6.05544 13.7744 6.36681 12.5544 7.73266C12.4121 7.89183 12.2083 7.9836 11.9948 7.98363C11.7813 7.98355 11.5775 7.89193 11.4353 7.73266C10.2098 6.36059 8.2439 6.04798 6.78682 7.24047C5.29584 8.46096 5.09406 10.4508 6.21846 11.8772L11.5046 16.6955C11.8106 16.9745 11.8331 17.449 11.5544 17.7551C11.2755 18.0609 10.8009 18.0835 10.4948 17.8049L5.16085 12.9436C5.1332 12.9184 5.10727 12.8906 5.0837 12.8616C3.39096 10.7747 3.70959 7.82035 5.83663 6.07934Z" fill="black"/>
</svg>
