<svg width="24" height="24" viewBox="0 0 24 24" fill="none" xmlns="http://www.w3.org/2000/svg">
<path fill-rule="evenodd" clip-rule="evenodd" d="M8.34082 5.2963C9.38883 4.78476 10.4839 5.00109 11.374 5.44962C11.9789 5.75446 12.534 6.18792 13 6.65762C13.466 6.18792 14.0211 5.75446 14.626 5.44962C15.5161 5.00109 16.6112 4.78476 17.6592 5.2963C19.7419 6.31301 20.6034 8.80255 19.5498 10.8598C19.3035 11.3405 18.793 12.0803 18.2061 12.8773C17.6071 13.6906 16.892 14.6121 16.208 15.477C15.5234 16.3425 14.8659 17.1554 14.3799 17.7514C14.137 18.0492 13.9366 18.2936 13.7969 18.4633C13.7272 18.548 13.672 18.6145 13.6348 18.6596C13.6162 18.6821 13.6014 18.6997 13.5918 18.7113C13.5871 18.717 13.5835 18.7221 13.5811 18.725L13.5771 18.7289C13.4349 18.9003 13.2237 19.0001 13.001 19.0004C12.7783 19.0007 12.5665 18.9019 12.4238 18.7309L11.1738 17.2309C10.9088 16.9128 10.9516 16.4395 11.2695 16.1742C11.5877 15.9091 12.061 15.9519 12.3262 16.2699L12.9961 17.0736C13.0648 16.9897 13.1396 16.9 13.2178 16.8041C13.7007 16.2119 14.3526 15.4043 15.0312 14.5463C15.7105 13.6875 16.4137 12.7811 16.998 11.9877C17.5939 11.1786 18.0322 10.5326 18.2148 10.1762C18.8762 8.88498 18.348 7.30255 17.001 6.64493C16.524 6.41208 15.9476 6.46255 15.3008 6.78848C14.6534 7.11476 14.0347 7.67368 13.5947 8.24747C13.4528 8.43232 13.2331 8.54141 13 8.54141C12.7669 8.54141 12.5472 8.43232 12.4053 8.24747C11.9653 7.67368 11.3466 7.11476 10.6992 6.78848C10.0524 6.46255 9.47605 6.41208 8.99902 6.64493C7.86415 7.19897 7.31048 8.41057 7.55859 9.54727L7.61914 9.77383V9.77481L7.69922 10.0287C7.82367 10.4236 7.60483 10.8445 7.20996 10.9691C6.81512 11.0937 6.39433 10.8746 6.26953 10.4799L6.18945 10.227L6.13672 10.0473C5.63868 8.18281 6.52703 6.18171 8.34082 5.2963ZM10.8379 10.018C11.088 9.96261 11.3491 10.039 11.5303 10.2201L13.3105 12.0004H14.25C14.6642 12.0004 15 12.3362 15 12.7504C14.9998 13.1645 14.6641 13.5004 14.25 13.5004H13C12.8012 13.5004 12.6104 13.4212 12.4697 13.2807L11.3018 12.1127L9.70508 16.5063C9.59391 16.8116 9.2984 17.0118 8.97363 17.0004C8.64888 16.9889 8.36873 16.7688 8.2793 16.4565L7.43457 13.5004H4.75C4.33589 13.5004 4.00016 13.1645 4 12.7504C4 12.3362 4.33579 12.0004 4.75 12.0004H8C8.33482 12.0004 8.62867 12.2224 8.7207 12.5443L9.08496 13.8207L10.2949 10.4945L10.333 10.4066C10.4343 10.2101 10.6189 10.0666 10.8379 10.018Z" fill="black"/>
</svg>
