<svg width="24" height="24" viewBox="0 0 24 24" fill="none" xmlns="http://www.w3.org/2000/svg">
<path fill-rule="evenodd" clip-rule="evenodd" d="M7.34105 5.29628C8.38903 4.78479 9.48418 5.00108 10.3743 5.44961C10.9791 5.75444 11.5343 6.18796 12.0002 6.65761C12.4663 6.18788 13.0213 5.75445 13.6262 5.44961C14.5163 5.00109 15.6114 4.78476 16.6594 5.29628C18.742 6.31306 19.6036 8.80261 18.55 10.8598C18.3037 11.3405 17.7933 12.0803 17.2063 12.8773C16.6073 13.6906 15.8923 14.6121 15.2082 15.4769C14.5236 16.3426 13.8661 17.1554 13.3801 17.7514C13.1372 18.0493 12.9368 18.2936 12.7971 18.4633C12.7273 18.548 12.6723 18.6145 12.635 18.6596C12.6164 18.6821 12.6017 18.6997 12.592 18.7113C12.5873 18.717 12.5837 18.722 12.5813 18.725L12.5774 18.7289C12.4349 18.9006 12.2233 19.0003 12.0002 19.0004C11.8052 19.0004 11.6187 18.9242 11.4797 18.7904L11.4231 18.7289L11.4192 18.725C11.4168 18.7221 11.4131 18.717 11.4084 18.7113C11.3988 18.6997 11.384 18.682 11.3655 18.6596C11.3282 18.6145 11.273 18.5479 11.2034 18.4633C11.0637 18.2936 10.8632 18.0491 10.6203 17.7514C10.1344 17.1555 9.47682 16.3425 8.79222 15.4769C8.10821 14.6122 7.39309 13.6905 6.79417 12.8773C6.20722 12.0804 5.69675 11.3405 5.45042 10.8598C4.39676 8.8025 5.25821 6.31296 7.34105 5.29628ZM16.0012 6.64492C15.5242 6.41208 14.9478 6.46256 14.301 6.78847C13.6536 7.11474 13.0349 7.67363 12.595 8.24746C12.4531 8.43231 12.2333 8.54133 12.0002 8.5414C11.7672 8.5414 11.5474 8.43223 11.4055 8.24746C10.9656 7.67372 10.3468 7.11476 9.69945 6.78847C9.05262 6.46255 8.47626 6.41211 7.99925 6.64492C6.65212 7.3025 6.12406 8.88494 6.78538 10.1762C6.9681 10.5327 7.40634 11.1787 8.00218 11.9877C8.58651 12.7811 9.28974 13.6875 9.96898 14.5463C10.6476 15.4043 11.2995 16.2119 11.7825 16.8041C11.8591 16.8981 11.9327 16.9862 12.0002 17.0687C12.0678 16.9862 12.1413 16.8982 12.218 16.8041C12.701 16.2119 13.3528 15.4044 14.0315 14.5463C14.7108 13.6874 15.4139 12.7811 15.9983 11.9877C16.5942 11.1785 17.0324 10.5326 17.2151 10.1762C17.8763 8.88504 17.3481 7.3026 16.0012 6.64492Z" fill="black"/>
</svg>
