<svg width="24" height="24" viewBox="0 0 24 24" fill="none" xmlns="http://www.w3.org/2000/svg">
<path fill-rule="evenodd" clip-rule="evenodd" d="M5.83663 6.07933C7.78531 4.48451 10.2899 4.76969 11.9939 6.19359C13.6958 4.76861 16.1749 4.50498 18.1452 6.07347C20.3217 7.80655 20.5917 10.7834 18.906 12.8616C18.8836 12.8891 18.8587 12.9156 18.8327 12.9397L12.5046 18.8C12.217 19.0661 11.7725 19.0663 11.4851 18.8L5.15695 12.9397C5.1309 12.9156 5.10607 12.8891 5.0837 12.8616C3.39094 10.7747 3.70961 7.82034 5.83663 6.07933ZM11.4353 7.73265C10.2098 6.36059 8.24389 6.04799 6.78683 7.24046C5.29467 8.46193 5.09304 10.4546 6.22042 11.8811L11.9939 17.2278L17.7702 11.8772C18.9024 10.4422 18.7149 8.44389 17.2107 7.24632C15.7145 6.05543 13.7744 6.3668 12.5544 7.73265C12.4121 7.89184 12.2083 7.98361 11.9948 7.98363C11.7813 7.98354 11.5775 7.89192 11.4353 7.73265Z" fill="black"/>
</svg>
