<svg width="24" height="24" viewBox="0 0 24 24" fill="none" xmlns="http://www.w3.org/2000/svg">
<path fill-rule="evenodd" clip-rule="evenodd" d="M16.9997 14.0002C17.4139 14.0002 17.7497 14.336 17.7497 14.7502V16.2502H19.2497C19.6639 16.2502 19.9997 16.586 19.9997 17.0002C19.9996 17.4144 19.6639 17.7502 19.2497 17.7502H17.7497V19.2502C17.7496 19.6644 17.4139 20.0002 16.9997 20.0002C16.5857 20.0001 16.2498 19.6643 16.2497 19.2502V17.7502H14.7497C14.3357 17.7501 13.9998 17.4143 13.9997 17.0002C13.9997 16.5861 14.3356 16.2504 14.7497 16.2502H16.2497V14.7502C16.2497 14.3361 16.5856 14.0004 16.9997 14.0002ZM5.83663 6.07934C7.78531 4.48452 10.29 4.76968 11.9939 6.1936C13.6958 4.76863 16.1749 4.50499 18.1452 6.07348C19.7939 7.38635 20.2531 9.54555 19.7194 11.3606C19.6025 11.7579 19.1851 11.9853 18.7878 11.8684C18.3909 11.7513 18.1634 11.3348 18.28 10.9377C18.6688 9.61574 18.3115 8.12275 17.2106 7.24633C15.7145 6.05544 13.7744 6.36681 12.5544 7.73266C12.4121 7.89183 12.2083 7.9836 11.9948 7.98363C11.7813 7.98355 11.5775 7.89193 11.4353 7.73266C10.2098 6.36059 8.2439 6.04798 6.78682 7.24047C5.29467 8.46192 5.09304 10.4545 6.22042 11.8811L11.5095 16.7786C11.8133 17.06 11.8309 17.5343 11.5495 17.8381C11.268 18.1417 10.7938 18.1605 10.4899 17.8791L5.15694 12.9397C5.13089 12.9156 5.10607 12.8891 5.0837 12.8616C3.39096 10.7747 3.70959 7.82035 5.83663 6.07934Z" fill="black"/>
</svg>
