<svg width="24" height="24" viewBox="0 0 24 24" fill="none" xmlns="http://www.w3.org/2000/svg">
<path d="M19.25 18.5C19.6642 18.5 20 18.8358 20 19.25C20 19.6642 19.6642 20 19.25 20H4.75C4.33579 20 4 19.6642 4 19.25C4 18.8358 4.33579 18.5 4.75 18.5H19.25ZM13.6924 14.248C13.9695 13.9402 14.4441 13.9153 14.752 14.1924C15.0598 14.4695 15.0847 14.9441 14.8076 15.252L12.5576 17.752C12.4154 17.91 12.2126 18 12 18C11.7874 18 11.5846 17.91 11.4424 17.752L9.19238 15.252C8.9153 14.9441 8.94022 14.4695 9.24805 14.1924C9.55591 13.9153 10.0305 13.9402 10.3076 14.248L12 16.1279L13.6924 14.248ZM12 6C12.2126 6 12.4154 6.09004 12.5576 6.24805L14.8076 8.74805C15.0847 9.05591 15.0598 9.53052 14.752 9.80762C14.4441 10.0847 13.9695 10.0598 13.6924 9.75195L12 7.87109L10.3076 9.75195C10.0305 10.0598 9.55591 10.0847 9.24805 9.80762C8.94022 9.53052 8.9153 9.05591 9.19238 8.74805L11.4424 6.24805L11.499 6.19238C11.636 6.06933 11.814 6 12 6ZM19.25 4C19.6642 4 20 4.33579 20 4.75C20 5.16421 19.6642 5.5 19.25 5.5H4.75C4.33579 5.5 4 5.16421 4 4.75C4 4.33579 4.33579 4 4.75 4H19.25Z" fill="black"/>
</svg>
