<svg width="24" height="24" viewBox="0 0 24 24" fill="none" xmlns="http://www.w3.org/2000/svg">
<path d="M16 4C16.4142 4 16.75 4.33579 16.75 4.75C16.75 5.16421 16.4142 5.5 16 5.5H12.75V7H17.25C18.7688 7 20 8.23122 20 9.75V14.25C20 15.7688 18.7688 17 17.25 17H14.75V18.5H16.25C16.6642 18.5 17 18.8358 17 19.25C17 19.6642 16.6642 20 16.25 20H10.75C8.12665 20 6 17.8734 6 15.25V14.75C6 14.3358 6.33579 14 6.75 14C7.16421 14 7.5 14.3358 7.5 14.75V15.25C7.5 17.0449 8.95507 18.5 10.75 18.5H13.25V17H12.75C11.2312 17 10 15.7688 10 14.25V11.9561C9.99816 11.9554 9.99598 11.9557 9.99414 11.9551L4.49414 9.95508C4.19775 9.8473 4 9.56538 4 9.25V7.75C4 7.33579 4.33579 7 4.75 7H11.25V5.5H8C7.58579 5.5 7.25 5.16421 7.25 4.75C7.25 4.33579 7.58579 4 8 4H16ZM11.5 14.25C11.5 14.9404 12.0596 15.5 12.75 15.5H17.25C17.9404 15.5 18.5 14.9404 18.5 14.25V9.75C18.5 9.05964 17.9404 8.5 17.25 8.5H11.5V14.25ZM5.5 8.72461L10 10.3604V8.5H5.5V8.72461Z" fill="black"/>
</svg>
