<svg width="24" height="24" viewBox="0 0 24 24" fill="none" xmlns="http://www.w3.org/2000/svg">
<path d="M12 4C16.4183 4 20 7.58172 20 12C20 16.4183 16.4183 20 12 20C7.58172 20 4 16.4183 4 12C4 7.58172 7.58172 4 12 4ZM12 5.5C8.41015 5.5 5.5 8.41015 5.5 12C5.5 15.5899 8.41015 18.5 12 18.5C15.5899 18.5 18.5 15.5899 18.5 12C18.5 8.41015 15.5899 5.5 12 5.5ZM12 15C12.5523 15 13 15.4477 13 16C13 16.5523 12.5523 17 12 17C11.4477 17 11 16.5523 11 16C11 15.4477 11.4477 15 12 15ZM12 7C13.1655 7 13.9927 7.3748 14.4854 8.06445C14.9404 8.70173 15 9.46648 15 10C15 11.0362 14.4086 12.0816 13.25 12.5293C13.0796 12.5952 12.9395 12.6904 12.8516 12.7871C12.7685 12.8785 12.75 12.9484 12.75 13V13.25C12.75 13.6642 12.4142 14 12 14C11.5858 14 11.25 13.6642 11.25 13.25V13C11.25 11.989 12.0754 11.3751 12.71 11.1299C13.2446 10.9231 13.5 10.4664 13.5 10C13.5 9.5336 13.4344 9.17322 13.2646 8.93555C13.1322 8.75023 12.834 8.5 12 8.5C11.3525 8.5 11.0046 8.8355 10.7803 9.23926C10.6636 9.44937 10.5899 9.6673 10.5459 9.83691C10.5244 9.91998 10.5117 9.98785 10.5039 10.0322C10.5001 10.0542 10.4973 10.0702 10.4961 10.0791C10.4955 10.0835 10.4952 10.0863 10.4951 10.0869V10.083C10.4493 10.4946 10.0786 10.7909 9.66699 10.7451C9.25542 10.6993 8.95915 10.3286 9.00488 9.91699V9.91016C9.00521 9.90739 9.00636 9.90419 9.00684 9.90039C9.00782 9.89252 9.00904 9.88219 9.01074 9.87012C9.01413 9.84603 9.01853 9.81369 9.02539 9.77441C9.03912 9.6958 9.06164 9.58757 9.09473 9.45996C9.16013 9.20777 9.27407 8.86292 9.46973 8.51074C9.87044 7.78955 10.6477 7 12 7Z" fill="black"/>
</svg>
