<svg width="24" height="24" viewBox="0 0 24 24" fill="none" xmlns="http://www.w3.org/2000/svg">
<path d="M12 4C16.4183 4 20 7.58172 20 12C20 16.4183 16.4183 20 12 20C7.58172 20 4 16.4183 4 12C4 7.58172 7.58172 4 12 4ZM14.2471 15.3076C13.6064 15.7437 12.8334 16 12 16C11.1663 16 10.3928 15.744 9.75195 15.3076L7.96582 17.0938C9.07446 17.973 10.4751 18.5 12 18.5C13.5246 18.5 14.9247 17.9727 16.0332 17.0938L14.2471 15.3076ZM6.90527 7.96582C6.02629 9.07439 5.5 10.4754 5.5 12C5.5 13.5244 6.02657 14.9247 6.90527 16.0332L8.69141 14.2471C8.2555 13.6065 8 12.8332 8 12C8 11.1665 8.25523 10.3927 8.69141 9.75195L6.90527 7.96582ZM15.3076 9.75195C15.744 10.3928 16 11.1663 16 12C16 12.8334 15.7437 13.6064 15.3076 14.2471L17.0938 16.0332C17.9727 14.9247 18.5 13.5246 18.5 12C18.5 10.4751 17.973 9.07446 17.0938 7.96582L15.3076 9.75195ZM12 9.5C10.6193 9.5 9.5 10.6193 9.5 12C9.5 13.3807 10.6193 14.5 12 14.5C13.3807 14.5 14.5 13.3807 14.5 12C14.5 10.6193 13.3807 9.5 12 9.5ZM12 5.5C10.4754 5.5 9.07439 6.02629 7.96582 6.90527L9.75195 8.69141C10.3927 8.25523 11.1665 8 12 8C12.8332 8 13.6065 8.2555 14.2471 8.69141L16.0332 6.90527C14.9247 6.02657 13.5244 5.5 12 5.5Z" fill="black"/>
</svg>
