<svg width="24" height="24" viewBox="0 0 24 24" fill="none" xmlns="http://www.w3.org/2000/svg">
<path fill-rule="evenodd" clip-rule="evenodd" d="M15.7666 4.17698C16.0644 3.92617 16.5049 3.94462 16.7803 4.21995L19.7803 7.21995C20.0555 7.4953 20.074 7.93583 19.8232 8.23362L11.8232 17.7336C11.7305 17.8435 11.6081 17.9247 11.4707 17.967L9.73827 18.5002H19.25C19.6642 18.5002 20 18.836 20 19.2502C19.9998 19.6643 19.6641 20.0002 19.25 20.0002H4.74999C4.51205 20.0002 4.28788 19.8869 4.14647 19.6955C4.00528 19.5042 3.96333 19.2568 4.03319 19.0295L6.03319 12.5295L6.07225 12.4299C6.11803 12.3331 6.18408 12.2466 6.26659 12.177L15.7666 4.17698ZM5.8828 18.1164L9.83886 16.8996L7.0996 14.1604L5.8828 18.1164ZM7.85741 12.7971L11.2021 16.1418L18.2324 7.79319L16.206 5.76683L7.85741 12.7971Z" fill="black"/>
</svg>
