<svg width="24" height="24" viewBox="0 0 24 24" fill="none" xmlns="http://www.w3.org/2000/svg">
<path fill-rule="evenodd" clip-rule="evenodd" d="M11.698 4.06347C11.9221 3.96494 12.1835 3.98106 12.3953 4.1123L18.6453 7.99218L19.6453 8.6123C19.9972 8.8307 20.1058 9.2936 19.8875 9.6455C19.698 9.95062 19.325 10.0715 18.9998 9.95605V18.25C18.9998 19.2165 18.2163 20 17.2498 20H6.7498C5.78348 19.9998 4.9998 19.2164 4.9998 18.25V9.95605C4.67464 10.0714 4.30149 9.95062 4.1121 9.6455C3.89408 9.29371 4.00271 8.83072 4.35429 8.6123L5.35429 7.99218L11.6043 4.1123L11.698 4.06347ZM6.4998 9.04589V18.25C6.4998 18.3879 6.61191 18.4998 6.7498 18.5H17.2498C17.3879 18.5 17.4998 18.3881 17.4998 18.25V9.04589L11.9998 5.63281L6.4998 9.04589ZM10.0535 15.7432C11.12 14.5781 12.8795 14.5783 13.9461 15.7432C14.2257 16.0487 14.2048 16.524 13.8992 16.8037C13.5938 17.083 13.1193 17.0619 12.8396 16.7568C12.3677 16.2414 11.6318 16.2413 11.16 16.7568C10.8803 17.0618 10.4058 17.0831 10.1004 16.8037C9.79512 16.5241 9.77409 16.0486 10.0535 15.7432ZM8.19609 13.7148C10.2883 11.4289 13.7113 11.4291 15.8035 13.7148C16.0827 14.0204 16.0619 14.4949 15.7566 14.7744C15.4511 15.0539 14.9757 15.033 14.6961 14.7275C13.1985 13.0915 10.801 13.0914 9.30351 14.7275C9.02383 15.0329 8.54846 15.054 8.24296 14.7744C7.93794 14.4949 7.9171 14.0203 8.19609 13.7148Z" fill="black"/>
</svg>
