<svg width="24" height="24" viewBox="0 0 24 24" fill="none" xmlns="http://www.w3.org/2000/svg">
<path fill-rule="evenodd" clip-rule="evenodd" d="M11.6741 4.07432C11.9142 3.95836 12.2018 3.97825 12.426 4.13292L19.676 9.13292C19.879 9.27292 20.0002 9.50355 20.0002 9.7501V17.2501C20.0002 18.7689 18.769 20.0001 17.2502 20.0001H6.75024C5.23146 20.0001 4.00024 18.7689 4.00024 17.2501V9.7501C4.00024 9.50356 4.12153 9.27292 4.32446 9.13292L11.5745 4.13292L11.6741 4.07432ZM5.50024 10.1437V17.2501C5.50024 17.9405 6.05989 18.5001 6.75024 18.5001H8.99927V15.7491C8.99927 14.2304 10.2306 12.9993 11.7493 12.9991H12.2493C13.7681 12.9991 14.9993 14.2303 14.9993 15.7491V18.5001H17.2502C17.9406 18.5001 18.5002 17.9405 18.5002 17.2501V10.1437L12.0002 5.66026L5.50024 10.1437ZM11.7493 14.4991C11.059 14.4993 10.4993 15.0589 10.4993 15.7491V18.4991H13.4993V15.7491C13.4993 15.0588 12.9396 14.4991 12.2493 14.4991H11.7493Z" fill="black"/>
</svg>
