<svg width="24" height="24" viewBox="0 0 24 24" fill="none" xmlns="http://www.w3.org/2000/svg">
<path d="M12 4C13.1046 4 14 4.89543 14 6C14 6.83907 13.4826 7.55567 12.75 7.85254V8C12.75 8.83069 12.3808 9.5383 11.9375 10.1328C11.4998 10.7199 10.9199 11.2841 10.4082 11.8018C9.30841 12.9145 8.5 13.8538 8.5 15C8.5 16.3336 8.91719 17.1738 9.49512 17.6904C10.0877 18.2201 10.9507 18.5 12 18.5C13.933 18.5 15.5 16.933 15.5 15C15.5 14.5858 15.8358 14.25 16.25 14.25C16.6642 14.25 17 14.5858 17 15C17 17.7614 14.7614 20 12 20C10.7023 20 9.44074 19.6547 8.49512 18.8096C7.53485 17.9512 7 16.6664 7 15C7 13.1462 8.31659 11.7853 9.3418 10.748C9.89247 10.1909 10.3753 9.71783 10.7344 9.23633C11.088 8.76211 11.25 8.36928 11.25 8V7.85254C10.5174 7.55567 10 6.83907 10 6C10 4.89543 10.8954 4 12 4ZM12 5.5C11.7239 5.5 11.5 5.72386 11.5 6C11.5 6.27614 11.7239 6.5 12 6.5C12.2761 6.5 12.5 6.27614 12.5 6C12.5 5.72386 12.2761 5.5 12 5.5Z" fill="black"/>
</svg>
