<svg width="24" height="24" viewBox="0 0 24 24" fill="none" xmlns="http://www.w3.org/2000/svg">
<path d="M18.25 4C18.6642 4 19 4.33579 19 4.75C19 5.16421 18.6642 5.5 18.25 5.5H18V6C18 8.71768 16.1928 11.0121 13.7148 11.75C16.1928 12.4879 18 14.7823 18 17.5V18.5H18.25C18.6642 18.5 19 18.8358 19 19.25C19 19.6642 18.6642 20 18.25 20H5.75C5.33579 20 5 19.6642 5 19.25C5 18.8358 5.33579 18.5 5.75 18.5H6V17.5C6 14.7827 7.8067 12.4882 10.2842 11.75C7.8067 11.0118 6 8.71735 6 6V5.5H5.75C5.33579 5.5 5 5.16421 5 4.75C5 4.33579 5.33579 4 5.75 4H18.25ZM12 13C9.51472 13 7.5 15.0147 7.5 17.5V18.5H16.5V17.5C16.5 15.0147 14.4853 13 12 13ZM7.5 6C7.5 7.28214 8.03705 8.43817 8.89746 9.25781C8.93102 9.25322 8.96518 9.25 9 9.25H15C15.0345 9.25 15.0683 9.2533 15.1016 9.25781C15.9623 8.43814 16.5 7.2824 16.5 6V5.5H7.5V6Z" fill="black"/>
</svg>
