<svg width="24" height="24" viewBox="0 0 24 24" fill="none" xmlns="http://www.w3.org/2000/svg">
<path d="M12 4C12.8284 4 13.5 4.67157 13.5 5.5C13.5 6.05495 13.198 6.5384 12.75 6.79785V8.07031C14.6006 8.42138 16 10.0472 16 12C16 14.2091 14.2091 16 12 16C11.1663 16 10.3928 15.744 9.75195 15.3076L6.94727 18.1123C6.98035 18.2361 7 18.3657 7 18.5C7 19.3284 6.32843 20 5.5 20C4.67157 20 4 19.3284 4 18.5C4 17.6716 4.67157 17 5.5 17C5.63384 17 5.76323 17.0189 5.88672 17.0518L8.69141 14.2471C8.2555 13.6065 8 12.8332 8 12C8 11.1665 8.25523 10.3927 8.69141 9.75195L5.88672 6.94727C5.76316 6.9802 5.63393 7 5.5 7C4.67157 7 4 6.32843 4 5.5C4 4.67157 4.67157 4 5.5 4C6.32843 4 7 4.67157 7 5.5C7 5.63393 6.9802 5.76316 6.94727 5.88672L9.75195 8.69141C10.1956 8.38937 10.703 8.17408 11.25 8.07031V6.79785C10.802 6.5384 10.5 6.05495 10.5 5.5C10.5 4.67157 11.1716 4 12 4ZM12 9.5C10.6193 9.5 9.5 10.6193 9.5 12C9.5 13.3807 10.6193 14.5 12 14.5C13.3807 14.5 14.5 13.3807 14.5 12C14.5 10.6193 13.3807 9.5 12 9.5Z" fill="black"/>
</svg>
