<svg width="24" height="24" viewBox="0 0 24 24" fill="none" xmlns="http://www.w3.org/2000/svg">
<path fill-rule="evenodd" clip-rule="evenodd" d="M17.0001 11.0005C17.2635 11.0005 17.5081 11.1388 17.6436 11.3647V11.3657C17.644 11.3664 17.645 11.3677 17.6456 11.3686C17.6468 11.3707 17.6484 11.3739 17.6505 11.3774C17.6551 11.3852 17.6624 11.3962 17.671 11.4106C17.6882 11.4397 17.7127 11.4826 17.7442 11.5366C17.8074 11.6449 17.8975 11.8007 18.0049 11.9917C18.2198 12.3737 18.5078 12.9016 18.796 13.478C19.083 14.0521 19.377 14.6872 19.6006 15.2837C19.8155 15.8566 20.0001 16.4811 20.0001 17.0005C19.9999 18.6572 18.6568 20.0005 17.0001 20.0005C15.3433 20.0005 14.0002 18.6572 14.0001 17.0005C14.0001 16.4811 14.1846 15.8566 14.3995 15.2837C14.6232 14.6872 14.9171 14.0521 15.2042 13.478C15.4924 12.9016 15.7803 12.3737 15.9952 11.9917C16.1026 11.8007 16.1927 11.6449 16.2559 11.5366C16.2874 11.4826 16.3119 11.4397 16.3292 11.4106C16.3377 11.3962 16.345 11.3852 16.3497 11.3774C16.3518 11.3739 16.3533 11.3707 16.3546 11.3686C16.3551 11.3677 16.3561 11.3664 16.3565 11.3657V11.3647C16.492 11.1388 16.7366 11.0005 17.0001 11.0005ZM11.5401 17.4077C11.8674 17.1538 12.3389 17.2133 12.5928 17.5405C12.8466 17.8678 12.7872 18.3394 12.46 18.5932C10.4229 20.1736 8.35637 20.1768 6.82819 19.7817C6.07266 19.5863 5.44652 19.2942 5.00983 19.0522C4.79066 18.9308 4.61599 18.8197 4.4942 18.7378C4.43348 18.6969 4.38484 18.663 4.35065 18.6382C4.33377 18.6259 4.31971 18.6155 4.30963 18.6079C4.30482 18.6043 4.30109 18.6006 4.29792 18.5981C4.29632 18.5969 4.29425 18.5961 4.29303 18.5952L4.29108 18.5932C4.29309 18.5901 4.32424 18.5493 4.75006 18.0005L4.2901 18.5932C3.96294 18.3394 3.90359 17.8678 4.15729 17.5405C4.41118 17.2133 4.8818 17.1549 5.20905 17.4087H5.211C5.21482 17.4115 5.22231 17.4169 5.23249 17.4243C5.25309 17.4393 5.28614 17.4634 5.33112 17.4936C5.42168 17.5545 5.55939 17.6416 5.73639 17.7397C6.09257 17.9371 6.59982 18.1725 7.20319 18.3286C8.39361 18.6365 9.95253 18.6393 11.5401 17.4077ZM17.0001 13.2778C16.8571 13.5428 16.7008 13.8382 16.546 14.1479C16.2707 14.6985 16.0018 15.2829 15.8038 15.811C15.597 16.3626 15.5001 16.7701 15.5001 17.0005C15.5002 17.8287 16.1718 18.5005 17.0001 18.5005C17.8284 18.5005 18.4999 17.8287 18.5001 17.0005C18.5001 16.7701 18.4032 16.3627 18.1964 15.811C17.9983 15.2829 17.7294 14.6985 17.4542 14.1479C17.2993 13.8382 17.1431 13.5428 17.0001 13.2778ZM11.5401 11.4077C11.8674 11.1538 12.3389 11.2133 12.5928 11.5405C12.8466 11.8678 12.7872 12.3394 12.46 12.5932C10.4229 14.1736 8.35637 14.1768 6.82819 13.7817C6.07266 13.5863 5.44652 13.2942 5.00983 13.0522C4.79066 12.9308 4.61599 12.8197 4.4942 12.7378C4.43348 12.6969 4.38484 12.663 4.35065 12.6382C4.33377 12.6259 4.31971 12.6155 4.30963 12.6079C4.30482 12.6043 4.30109 12.6006 4.29792 12.5981C4.29632 12.5969 4.29425 12.5961 4.29303 12.5952L4.29108 12.5932C4.29309 12.5901 4.32424 12.5493 4.75006 12.0005L4.2901 12.5932C3.96294 12.3394 3.90359 11.8678 4.15729 11.5405C4.41118 11.2133 4.8818 11.1549 5.20905 11.4087H5.211C5.21482 11.4115 5.22231 11.4169 5.23249 11.4243C5.25309 11.4393 5.28614 11.4634 5.33112 11.4936C5.42168 11.5545 5.55939 11.6416 5.73639 11.7397C6.09257 11.9371 6.59982 12.1725 7.20319 12.3286C8.39361 12.6365 9.95253 12.6393 11.5401 11.4077ZM11.5401 5.4077C13.5773 3.82714 15.6437 3.82408 17.1719 4.21922C17.9275 4.41463 18.5536 4.70673 18.9903 4.94871C19.2095 5.07019 19.3841 5.18128 19.5059 5.26317C19.5667 5.30402 19.6153 5.33797 19.6495 5.36277C19.6664 5.37504 19.6804 5.38549 19.6905 5.39305C19.6953 5.39669 19.699 5.40039 19.7022 5.40281C19.7038 5.40401 19.7059 5.40484 19.7071 5.40574L19.709 5.4077C19.7058 5.41245 19.6687 5.46141 19.2686 5.97703L19.71 5.4077C20.0371 5.66164 20.0967 6.13322 19.8428 6.46043C19.5889 6.78742 19.1173 6.84599 18.7901 6.59227H18.7891C18.7854 6.58944 18.7779 6.58406 18.7676 6.57664C18.7471 6.56171 18.714 6.53758 18.669 6.50731C18.5785 6.44643 18.4408 6.35934 18.2637 6.26121C17.9076 6.06383 17.4004 5.82845 16.7969 5.67235C15.6065 5.36446 14.0477 5.36146 12.46 6.59324C10.4229 8.17364 8.35637 8.17684 6.82819 7.78172C6.07266 7.58632 5.44652 7.2942 5.00983 7.05223C4.79066 6.93077 4.61599 6.81966 4.4942 6.73777C4.43348 6.69694 4.38484 6.66298 4.35065 6.63817C4.33377 6.62591 4.31971 6.61546 4.30963 6.60789C4.30482 6.60427 4.30109 6.60058 4.29792 6.59813C4.29632 6.59691 4.29425 6.59608 4.29303 6.5952L4.29108 6.59324C4.29309 6.59006 4.32424 6.54931 4.75006 6.00047L4.2901 6.59324C3.96294 6.33938 3.90359 5.86775 4.15729 5.54051C4.41106 5.21347 4.88182 5.15431 5.20905 5.4077L5.211 5.40867C5.21482 5.41153 5.22231 5.41692 5.23249 5.4243C5.25309 5.43925 5.28614 5.46339 5.33112 5.49363C5.42168 5.55452 5.55939 5.64162 5.73639 5.73973C6.09257 5.93711 6.59982 6.17251 7.20319 6.3286C8.39361 6.63645 9.95253 6.63933 11.5401 5.4077Z" fill="black"/>
</svg>
