<svg width="24" height="24" viewBox="0 0 24 24" fill="none" xmlns="http://www.w3.org/2000/svg">
<path d="M7 11C7.27117 11 7.52154 11.1464 7.6543 11.3828V11.3838C7.65463 11.3844 7.65564 11.3856 7.65625 11.3867L7.68066 11.4307C7.69769 11.4613 7.72254 11.5064 7.75391 11.5635C7.81662 11.6776 7.90576 11.8417 8.0127 12.042C8.22651 12.4425 8.51316 12.9914 8.7998 13.5811C9.08532 14.1684 9.37669 14.8076 9.59863 15.3867C9.80701 15.9305 10 16.5339 10 17C10 18.6569 8.65685 20 7 20C5.34315 20 4 18.6569 4 17C4 16.5339 4.19299 15.9305 4.40137 15.3867C4.62331 14.8076 4.91468 14.1684 5.2002 13.5811C5.48684 12.9914 5.77349 12.4425 5.9873 12.042C6.09424 11.8417 6.18338 11.6776 6.24609 11.5635C6.27746 11.5064 6.3023 11.4613 6.31934 11.4307L6.34375 11.3867C6.34436 11.3856 6.34537 11.3844 6.3457 11.3838V11.3828C6.47846 11.1464 6.72883 11 7 11ZM6.5498 14.2373C6.27292 14.8069 6.00164 15.4022 5.80176 15.9238C5.58827 16.4809 5.5 16.8448 5.5 17C5.5 17.8284 6.17157 18.5 7 18.5C7.82843 18.5 8.5 17.8284 8.5 17C8.5 16.8448 8.41173 16.4809 8.19824 15.9238C7.99836 15.4022 7.72708 14.8069 7.4502 14.2373C7.29635 13.9208 7.14229 13.6154 7 13.3398C6.85771 13.6154 6.70365 13.9208 6.5498 14.2373ZM8.75 4C9.16421 4 9.5 4.33579 9.5 4.75V5C9.5 10.2467 13.7533 14.5 19 14.5H19.25C19.6642 14.5 20 14.8358 20 15.25C20 15.6642 19.6642 16 19.25 16H19C12.9249 16 8 11.0751 8 5V4.75C8 4.33579 8.33579 4 8.75 4ZM12.75 4C13.1642 4 13.5 4.33579 13.5 4.75V5C13.5 8.03757 15.9624 10.5 19 10.5H19.25C19.6642 10.5 20 10.8358 20 11.25C20 11.6642 19.6642 12 19.25 12H19C15.134 12 12 8.86599 12 5V4.75C12 4.33579 12.3358 4 12.75 4ZM16.75 4C17.1642 4 17.5 4.33579 17.5 4.75V5C17.5 5.82843 18.1716 6.5 19 6.5H19.25C19.6642 6.5 20 6.83579 20 7.25C20 7.66421 19.6642 8 19.25 8H19C17.3431 8 16 6.65685 16 5V4.75C16 4.33579 16.3358 4 16.75 4Z" fill="black"/>
</svg>
