<svg width="24" height="24" viewBox="0 0 24 24" fill="none" xmlns="http://www.w3.org/2000/svg">
<path d="M12.3145 4.00977C12.5607 4.0251 12.7841 4.16058 12.9111 4.37207C13.0382 4.58368 13.0534 4.84471 12.9512 5.06934C12.8225 5.35207 12.75 5.66651 12.75 6C12.75 7.24264 13.7574 8.25 15 8.25C15.3335 8.25 15.6479 8.17753 15.9307 8.04883C16.1553 7.94656 16.4163 7.96183 16.6279 8.08887C16.8394 8.21593 16.9749 8.43929 16.9902 8.68555C16.9967 8.7896 17 8.89445 17 9V15.25C17 16.2165 16.2165 17 15.25 17H12.75V19.25C12.75 19.6642 12.4142 20 12 20C11.5858 20 11.25 19.6642 11.25 19.25V17H8.75C7.7835 17 7 16.2165 7 15.25V9C7 6.23858 9.23858 4 12 4C12.1055 4 12.2104 4.00329 12.3145 4.00977ZM11.2744 5.5752C9.6896 5.90929 8.5 7.31577 8.5 9V15.25C8.5 15.3881 8.61193 15.5 8.75 15.5H15.25C15.3881 15.5 15.5 15.3881 15.5 15.25V9.71484C15.3362 9.73672 15.1695 9.75 15 9.75C12.9289 9.75 11.25 8.07107 11.25 6C11.25 5.85647 11.2586 5.71476 11.2744 5.5752Z" fill="black"/>
</svg>
