<svg width="24" height="24" viewBox="0 0 24 24" fill="none" xmlns="http://www.w3.org/2000/svg">
<path fill-rule="evenodd" clip-rule="evenodd" d="M13.7199 4.21967C14.0128 3.92678 14.4875 3.92678 14.7804 4.21967C15.0733 4.51256 15.0733 4.98732 14.7804 5.28022L12.7502 7.31049V10.1894L15.7199 7.21967C16.0128 6.92689 16.4876 6.92681 16.7804 7.21967C17.0732 7.51253 17.0732 7.98735 16.7804 8.28022L13.8107 11.2499H16.6896L18.7199 9.21967C19.0128 8.92678 19.4875 8.92678 19.7804 9.21967C20.0733 9.51256 20.0733 9.98732 19.7804 10.2802L18.0607 11.9999L19.7804 13.7197C20.0733 14.0126 20.0733 14.4873 19.7804 14.7802C19.4875 15.0731 19.0128 15.0731 18.7199 14.7802L16.6896 12.7499H13.8107L16.7804 15.7197C17.0732 16.0125 17.0732 16.4874 16.7804 16.7802C16.4876 17.0731 16.0128 17.073 15.7199 16.7802L12.7502 13.8105V16.4609L14.8078 18.748C15.0849 19.0559 15.0599 19.5305 14.7521 19.8076C14.4443 20.0846 13.9696 20.0597 13.6925 19.7519L12.0002 17.871L10.3078 19.7519C10.0307 20.0597 9.55607 20.0846 9.24821 19.8076C8.94038 19.5305 8.91547 19.0559 9.19255 18.748L11.2502 16.4609V13.8105L8.28044 16.7802C7.98758 17.0731 7.51279 17.073 7.21989 16.7802C6.927 16.4873 6.927 16.0126 7.21989 15.7197L10.1896 12.7499H7.53825L5.25212 14.8076C4.94425 15.0846 4.46965 15.0597 4.19255 14.7519C3.91547 14.444 3.94038 13.9694 4.24821 13.6923L6.12809 11.9999L4.24821 10.3076C3.94038 10.0305 3.91547 9.55585 4.19255 9.24799C4.46965 8.94016 4.94425 8.91525 5.25212 9.19232L7.53825 11.2499H10.1896L7.21989 8.28022C6.927 7.98732 6.927 7.51256 7.21989 7.21967C7.51279 6.92689 7.98758 6.92681 8.28044 7.21967L11.2502 10.1894V7.31049L9.21989 5.28022C8.927 4.98732 8.927 4.51256 9.21989 4.21967C9.51278 3.92678 9.98754 3.92678 10.2804 4.21967L12.0002 5.93939L13.7199 4.21967Z" fill="black"/>
</svg>
