<svg width="24" height="24" viewBox="0 0 24 24" fill="none" xmlns="http://www.w3.org/2000/svg">
<path d="M15.25 4C15.6642 4 16 4.33579 16 4.75C16 6.12303 15.0921 7.25197 14.2891 8H18.25C19.2165 8 20 8.7835 20 9.75V18.25C20 19.2165 19.2165 20 18.25 20H5.75C4.7835 20 4 19.2165 4 18.25V9.75C4 8.7835 4.7835 8 5.75 8H9.71094C8.9079 7.25197 8 6.12303 8 4.75C8 4.33579 8.33579 4 8.75 4C9.16421 4 9.5 4.33579 9.5 4.75C9.5 5.52952 10.086 6.33687 10.8721 7.03223C11.2435 7.36081 11.6186 7.62791 11.9023 7.81348C11.9359 7.83539 11.9694 7.85455 12 7.87402C12.0306 7.85455 12.0641 7.83539 12.0977 7.81348C12.3814 7.62791 12.7565 7.36081 13.1279 7.03223C13.914 6.33687 14.5 5.52952 14.5 4.75C14.5 4.33579 14.8358 4 15.25 4ZM5.75 9.5C5.61193 9.5 5.5 9.61193 5.5 9.75V18.25C5.5 18.3881 5.61193 18.5 5.75 18.5H6.36621C6.60158 17.7669 6.94695 16.9991 7.37988 16.376C7.57407 16.0965 7.81328 15.8085 8.0957 15.5684C7.43443 15.1185 7 14.3601 7 13.5C7 12.1193 8.11929 11 9.5 11C10.8807 11 12 12.1193 12 13.5C12 14.3604 11.565 15.1186 10.9033 15.5684C11.186 15.8086 11.4258 16.0963 11.6201 16.376C12.0531 16.9991 12.3984 17.7669 12.6338 18.5H18.25C18.3881 18.5 18.5 18.3881 18.5 18.25V9.75C18.5 9.61193 18.3881 9.5 18.25 9.5H5.75ZM9.5 16.5C9.33652 16.5 9.01525 16.651 8.61133 17.2324C8.36272 17.5903 8.14016 18.035 7.95898 18.5H11.041C10.8598 18.035 10.6373 17.5903 10.3887 17.2324C9.98478 16.6511 9.66349 16.5 9.5 16.5ZM16.25 15C16.6642 15 17 15.3358 17 15.75C17 16.1642 16.6642 16.5 16.25 16.5H14.75C14.3358 16.5 14 16.1642 14 15.75C14 15.3358 14.3358 15 14.75 15H16.25ZM9.5 12.5C8.94772 12.5 8.5 12.9477 8.5 13.5C8.5 14.0523 8.94772 14.5 9.5 14.5C10.0523 14.5 10.5 14.0523 10.5 13.5C10.5 12.9477 10.0523 12.5 9.5 12.5ZM16.25 12C16.6642 12 17 12.3358 17 12.75C17 13.1642 16.6642 13.5 16.25 13.5H14.75C14.3358 13.5 14 13.1642 14 12.75C14 12.3358 14.3358 12 14.75 12H16.25Z" fill="black"/>
</svg>
