<svg width="24" height="24" viewBox="0 0 24 24" fill="none" xmlns="http://www.w3.org/2000/svg">
<path d="M15.741 5C16.9546 5 18.0216 5.79568 18.3719 6.9541H18.3729L19.9578 11.5029C19.9673 11.53 19.9741 11.5576 19.9803 11.585C19.9923 11.6382 19.9998 11.6932 19.9998 11.75V16.25C19.9998 17.7688 18.7686 19 17.2498 19H6.74982C5.23113 18.9999 3.99982 17.7687 3.99982 16.25V11.75C3.99982 11.7179 4.00177 11.6863 4.00568 11.6553C4.00689 11.6458 4.00897 11.6364 4.01056 11.627C4.01245 11.6155 4.01402 11.604 4.01642 11.5928C4.02289 11.5627 4.03143 11.5327 4.04181 11.5029L5.62677 6.9541C5.97697 5.79557 7.04499 5.00009 8.25861 5H15.741ZM5.49982 16.25C5.49982 16.9403 6.05955 17.4999 6.74982 17.5H17.2498C17.9402 17.5 18.4998 16.9404 18.4998 16.25V12.5H14.8289C14.7491 12.5001 14.5815 12.5638 14.3807 12.8252C13.8336 13.5378 12.9703 14 11.9998 14C11.0293 13.9999 10.166 13.5378 9.61896 12.8252C9.41802 12.5636 9.25046 12.5 9.17072 12.5H5.49982V16.25ZM8.25861 6.5C7.7007 6.50009 7.20986 6.86985 7.05646 7.40625C7.05256 7.41989 7.04843 7.43387 7.04376 7.44727L5.80548 11H9.17072C9.93849 11 10.4943 11.5018 10.8094 11.9121C11.0848 12.2708 11.5154 12.4999 11.9998 12.5C12.4843 12.5 12.9148 12.2708 13.1902 11.9121C13.5053 11.5018 14.0612 11.0001 14.8289 11H18.1942L16.9559 7.44727C16.9512 7.43387 16.9471 7.41989 16.9432 7.40625C16.7897 6.86982 16.299 6.5 15.741 6.5H8.25861Z" fill="black"/>
</svg>
