<svg width="24" height="24" viewBox="0 0 24 24" fill="none" xmlns="http://www.w3.org/2000/svg">
<path fill-rule="evenodd" clip-rule="evenodd" d="M15.9998 14C17.6566 14 18.9998 15.3431 18.9998 17C18.9998 18.6569 17.6566 20 15.9998 20C14.5133 20 13.2799 18.9188 13.0418 17.5H10.9578C10.7197 18.9188 9.48626 20 7.9998 20C6.34295 20 4.9998 18.6569 4.9998 17C4.9998 15.3431 6.34295 14 7.9998 14C9.30565 14 10.4139 14.8353 10.826 16H13.1736C13.5857 14.8353 14.6939 14 15.9998 14ZM7.9998 15.5C7.17137 15.5 6.4998 16.1716 6.4998 17C6.4998 17.8284 7.17137 18.5 7.9998 18.5C8.82822 18.5 9.49979 17.8284 9.49979 17C9.49979 16.1716 8.82822 15.5 7.9998 15.5ZM15.9998 15.5C15.1714 15.5 14.4998 16.1716 14.4998 17C14.4998 17.8284 15.1714 18.5 15.9998 18.5C16.8282 18.5 17.4998 17.8284 17.4998 17C17.4998 16.1716 16.8282 15.5 15.9998 15.5ZM15.4461 4C16.8551 4 18.0362 5.06528 18.1814 6.4668L18.7039 11.5059C18.9763 11.6535 19.1946 11.7886 19.3592 11.8994C19.4763 11.9783 19.5663 12.045 19.6297 12.0938C19.6614 12.1181 19.6865 12.1383 19.7049 12.1533C19.714 12.1607 19.7215 12.1669 19.7273 12.1719C19.7303 12.1744 19.733 12.1769 19.7351 12.1787C19.7361 12.1795 19.7373 12.18 19.7381 12.1807L19.74 12.1826L19.7957 12.2354C20.0568 12.5117 20.0711 12.9464 19.8172 13.2402C19.5632 13.5339 19.1313 13.5825 18.8201 13.3643L18.7625 13.3193C18.7617 13.3187 18.7594 13.3177 18.7566 13.3154C18.7494 13.3095 18.7354 13.2984 18.7156 13.2832C18.6761 13.2528 18.6114 13.2052 18.5213 13.1445C18.3409 13.0231 18.0586 12.8497 17.6717 12.6611C16.6074 12.1425 14.7389 11.5 11.9998 11.5C9.26064 11.5 7.39219 12.1425 6.32792 12.6611C5.94101 12.8497 5.65869 13.0231 5.47831 13.1445C5.38823 13.2052 5.32351 13.2528 5.28397 13.2832C5.2642 13.2984 5.25019 13.3095 5.24296 13.3154C5.23961 13.3182 5.23757 13.3199 5.2371 13.3203L5.23808 13.3184C4.92474 13.5876 4.45281 13.5529 4.18241 13.2402C3.9117 12.9269 3.94632 12.4535 4.25956 12.1826L4.26151 12.1807C4.26231 12.18 4.26347 12.1795 4.26444 12.1787C4.26657 12.1769 4.2693 12.1744 4.27226 12.1719C4.27812 12.1669 4.28562 12.1607 4.29472 12.1533C4.31313 12.1383 4.33823 12.1181 4.36991 12.0938C4.43331 12.045 4.52329 11.9783 4.64042 11.8994C4.8048 11.7887 5.02271 11.6534 5.29472 11.5059L5.81815 6.4668C5.96341 5.06528 7.14449 4.00001 8.55351 4H15.4461ZM8.55351 5.5C7.91308 5.50001 7.37641 5.98409 7.31034 6.62109L6.8748 10.8125C8.12293 10.3735 9.82421 10 11.9998 10C14.1749 10 15.8758 10.3736 17.1238 10.8125L16.6892 6.62109C16.6232 5.98409 16.0865 5.5 15.4461 5.5H8.55351Z" fill="black"/>
</svg>
