<svg width="24" height="24" viewBox="0 0 24 24" fill="none" xmlns="http://www.w3.org/2000/svg">
<path d="M13.25 17.5C13.6642 17.5 14 17.8358 14 18.25C14 18.6642 13.6642 19 13.25 19H4.75C4.33579 19 4 18.6642 4 18.25C4 17.8358 4.33579 17.5 4.75 17.5H13.25ZM18.7393 8.2002C19.0428 7.91838 19.5179 7.93583 19.7998 8.23926C20.0816 8.54275 20.0642 9.01794 19.7607 9.2998L16.8525 12L19.7607 14.7002C20.0642 14.9821 20.0816 15.4572 19.7998 15.7607C19.5179 16.0642 19.0428 16.0816 18.7393 15.7998L15.2393 12.5498C15.0865 12.4079 15 12.2085 15 12C15 11.7915 15.0865 11.5921 15.2393 11.4502L18.7393 8.2002ZM10.25 13.5C10.6642 13.5 11 13.8358 11 14.25C11 14.6642 10.6642 15 10.25 15H4.75C4.33579 15 4 14.6642 4 14.25C4 13.8358 4.33579 13.5 4.75 13.5H10.25ZM10.25 9C10.6642 9 11 9.33579 11 9.75C11 10.1642 10.6642 10.5 10.25 10.5H4.75C4.33579 10.5 4 10.1642 4 9.75C4 9.33579 4.33579 9 4.75 9H10.25ZM13.25 5C13.6642 5 14 5.33579 14 5.75C14 6.16421 13.6642 6.5 13.25 6.5H4.75C4.33579 6.5 4 6.16421 4 5.75C4 5.33579 4.33579 5 4.75 5H13.25Z" fill="black"/>
</svg>
