<svg width="24" height="24" viewBox="0 0 24 24" fill="none" xmlns="http://www.w3.org/2000/svg">
<path fill-rule="evenodd" clip-rule="evenodd" d="M19.2499 17.5C19.6641 17.5 19.9999 17.8358 19.9999 18.25C19.9999 18.6642 19.6641 19 19.2499 19H10.7499C10.3358 18.9999 9.99988 18.6641 9.99988 18.25C9.99988 17.8359 10.3358 17.5001 10.7499 17.5H19.2499ZM4.20008 8.23926C4.4819 7.93588 4.95712 7.91851 5.26062 8.2002L8.76062 11.4502C8.91338 11.5921 8.99988 11.7915 8.99988 12C8.99988 12.2085 8.91338 12.4079 8.76062 12.5498L5.26062 15.7998C4.95712 16.0815 4.4819 16.0641 4.20008 15.7607C3.91842 15.4573 3.93589 14.982 4.23914 14.7002L7.14637 12L4.23914 9.2998C3.93589 9.01796 3.91842 8.54271 4.20008 8.23926ZM19.2499 13.5C19.6641 13.5 19.9999 13.8358 19.9999 14.25C19.9999 14.6642 19.6641 15 19.2499 15H13.7499C13.3358 14.9999 12.9999 14.6641 12.9999 14.25C12.9999 13.8359 13.3358 13.5001 13.7499 13.5H19.2499ZM19.2499 9C19.6641 9 19.9999 9.33579 19.9999 9.75C19.9999 10.1642 19.6641 10.5 19.2499 10.5H13.7499C13.3358 10.4999 12.9999 10.1641 12.9999 9.75C12.9999 9.33587 13.3358 9.00014 13.7499 9H19.2499ZM19.2499 5C19.6641 5 19.9999 5.33579 19.9999 5.75C19.9999 6.16421 19.6641 6.5 19.2499 6.5H10.7499C10.3358 6.49986 9.99988 6.16413 9.99988 5.75C9.99988 5.33587 10.3358 5.00014 10.7499 5H19.2499Z" fill="black"/>
</svg>
