<svg width="24" height="24" viewBox="0 0 24 24" fill="none" xmlns="http://www.w3.org/2000/svg">
<path d="M19.25 11C19.6642 11 20 11.3358 20 11.75V11.7734C19.9998 11.7855 19.9996 11.8021 19.999 11.8223C19.9978 11.8625 19.9947 11.9184 19.9902 11.9883C19.9813 12.1284 19.9641 12.3255 19.9297 12.5645C19.8612 13.0409 19.7244 13.6945 19.4492 14.4043C18.937 15.7253 17.9327 17.2629 16 18.1846V19.25C16 19.6642 15.6642 20 15.25 20H8.75C8.33579 20 8 19.6642 8 19.25V18.1846C6.06731 17.2629 5.063 15.7253 4.55078 14.4043C4.27562 13.6945 4.13885 13.0409 4.07031 12.5645C4.03594 12.3255 4.01869 12.1284 4.00977 11.9883C4.00532 11.9184 4.00219 11.8625 4.00098 11.8223C4.00037 11.8021 4.00018 11.7855 4 11.7734V11.751C4 11.7506 4 11.75 4.75 11.75H4C4 11.3358 4.33579 11 4.75 11H19.25ZM5.58008 12.5C5.64248 12.8745 5.75179 13.352 5.94922 13.8613C6.39652 15.0151 7.27184 16.3081 9.02441 16.9971C9.31133 17.1099 9.5 17.387 9.5 17.6953V18.5H14.5V17.6953C14.5 17.387 14.6887 17.1099 14.9756 16.9971C16.7282 16.3081 17.6035 15.0151 18.0508 13.8613C18.2482 13.352 18.3575 12.8745 18.4199 12.5H5.58008ZM16 7.5C16.4142 7.5 16.75 7.83579 16.75 8.25V8.25977C16.75 8.67398 16.4142 9.00977 16 9.00977C15.5858 9.00977 15.25 8.67398 15.25 8.25977V8.25C15.25 7.83579 15.5858 7.5 16 7.5ZM12.75 5.5C13.1642 5.5 13.5 5.83579 13.5 6.25V6.25977C13.5 6.67398 13.1642 7.00977 12.75 7.00977C12.3358 7.00977 12 6.67398 12 6.25977V6.25C12 5.83579 12.3358 5.5 12.75 5.5ZM19.25 5.5C19.6642 5.5 20 5.83579 20 6.25V6.25977C20 6.67398 19.6642 7.00977 19.25 7.00977C18.8358 7.00977 18.5 6.67398 18.5 6.25977V6.25C18.5 5.83579 18.8358 5.5 19.25 5.5ZM16 4C16.4142 4 16.75 4.33579 16.75 4.75V4.75977C16.75 5.17398 16.4142 5.50977 16 5.50977C15.5858 5.50977 15.25 5.17398 15.25 4.75977V4.75C15.25 4.33579 15.5858 4 16 4Z" fill="black"/>
</svg>
