<svg width="24" height="24" viewBox="0 0 24 24" fill="none" xmlns="http://www.w3.org/2000/svg">
<path d="M13.25 4C13.6642 4 14 4.33579 14 4.75C14 5.16421 13.6642 5.5 13.25 5.5H12.75V18.5H13.25C13.6642 18.5 14 18.8358 14 19.25C14 19.6642 13.6642 20 13.25 20H10.75C10.3358 20 10 19.6642 10 19.25C10 18.8358 10.3358 18.5 10.75 18.5H11.25V5.5H10.75C10.3358 5.5 10 5.16421 10 4.75C10 4.33579 10.3358 4 10.75 4H13.25ZM9 8.5H6.75C6.05964 8.5 5.5 9.05964 5.5 9.75V14.25C5.5 14.9404 6.05964 15.5 6.75 15.5H9V17H6.75C5.23122 17 4 15.7688 4 14.25V9.75C4 8.23122 5.23122 7 6.75 7H9V8.5ZM17.25 7C18.7688 7 20 8.23122 20 9.75V14.25C20 15.7688 18.7688 17 17.25 17H15V15.5H17.25C17.9404 15.5 18.5 14.9404 18.5 14.25V9.75C18.5 9.05964 17.9404 8.5 17.25 8.5H15V7H17.25Z" fill="black"/>
</svg>
