<svg width="24" height="24" viewBox="0 0 24 24" fill="none" xmlns="http://www.w3.org/2000/svg">
<path d="M16.25 4C17.7688 4 19 5.23122 19 6.75V19.25C19 19.6642 18.6642 20 18.25 20C17.8358 20 17.5 19.6642 17.5 19.25V6.75C17.5 6.05964 16.9404 5.5 16.25 5.5H7.75C7.05964 5.5 6.5 6.05964 6.5 6.75V19.25C6.5 19.6642 6.16421 20 5.75 20C5.33579 20 5 19.6642 5 19.25V6.75C5 5.23122 6.23122 4 7.75 4H16.25ZM13.25 7C13.6642 7 14 7.33579 14 7.75C14 8.16421 13.6642 8.5 13.25 8.5H10.75C10.3358 8.5 10 8.16421 10 7.75C10 7.33579 10.3358 7 10.75 7H13.25Z" fill="black"/>
</svg>
