<svg width="24" height="24" viewBox="0 0 24 24" fill="none" xmlns="http://www.w3.org/2000/svg">
<path d="M19.25 4C19.6642 4 20 4.33579 20 4.75C20 5.16421 19.6642 5.5 19.25 5.5H10.75C7.85051 5.5 5.5 7.85051 5.5 10.75V19.25C5.5 19.6642 5.16421 20 4.75 20C4.33579 20 4 19.6642 4 19.25V10.75C4 7.02208 7.02208 4 10.75 4H19.25ZM16.25 7C18.3211 7 20 8.67893 20 10.75V16.25C20 18.3211 18.3211 20 16.25 20H10.75C8.67893 20 7 18.3211 7 16.25V10.75C7 8.67893 8.67893 7 10.75 7H16.25ZM10.75 8.5C9.50736 8.5 8.5 9.50736 8.5 10.75V16.25C8.5 17.4926 9.50736 18.5 10.75 18.5H16.25C17.4926 18.5 18.5 17.4926 18.5 16.25V10.75C18.5 9.50736 17.4926 8.5 16.25 8.5H10.75ZM11 15C11.5522 15 12 15.4477 12 16C12 16.5522 11.5522 17 11 17C10.4478 17 10 16.5522 10 16C10 15.4477 10.4478 15 11 15ZM15.5 14C16.3284 14 17 14.6716 17 15.5C17 16.3284 16.3284 17 15.5 17C14.6716 17 14 16.3284 14 15.5C14 14.6716 14.6716 14 15.5 14ZM11.5 10C12.3284 10 13 10.6716 13 11.5C13 12.3284 12.3284 13 11.5 13C10.6716 13 10 12.3284 10 11.5C10 10.6716 10.6716 10 11.5 10ZM16 10C16.5522 10 17 10.4477 17 11C17 11.5522 16.5522 12 16 12C15.4478 12 15 11.5522 15 11C15 10.4477 15.4478 10 16 10Z" fill="black"/>
</svg>
