<svg width="24" height="24" viewBox="0 0 24 24" fill="none" xmlns="http://www.w3.org/2000/svg">
<path d="M15.25 4C16.7688 4 18 5.23122 18 6.75V17.25C18 18.7688 16.7688 20 15.25 20H8.75C7.23122 20 6 18.7688 6 17.25V6.75C6 5.23122 7.23122 4 8.75 4H15.25ZM8.75 5.5C8.05964 5.5 7.5 6.05964 7.5 6.75V17.25C7.5 17.9404 8.05964 18.5 8.75 18.5H15.25C15.9404 18.5 16.5 17.9404 16.5 17.25V6.75C16.5 6.05964 15.9404 5.5 15.25 5.5H8.75ZM10 11C10.5522 11 11 11.4477 11 12C11 12.5522 10.5522 13 10 13C9.44776 13 9 12.5522 9 12C9 11.4477 9.44778 11 10 11ZM12 9C12.5522 9 13 9.44769 13 10C13 10.5522 12.5522 11 12 11C11.4478 11 11 10.5522 11 10C11 9.44769 11.4478 9 12 9ZM10 7C10.5522 7 11 7.44769 11 8C11 8.55224 10.5522 9 10 9C9.44776 9 9 8.55224 9 8C9 7.44769 9.44778 7 10 7Z" fill="black"/>
</svg>
