<svg width="24" height="24" viewBox="0 0 24 24" fill="none" xmlns="http://www.w3.org/2000/svg">
<path fill-rule="evenodd" clip-rule="evenodd" d="M9.66541 4.0778C9.87554 3.97333 10.1232 3.97351 10.3334 4.0778L9.99939 4.74967C10.3116 4.12161 10.3325 4.08114 10.3344 4.07877H10.3353C10.336 4.07912 10.3374 4.0802 10.3383 4.08073C10.3401 4.08167 10.3427 4.08336 10.3451 4.08463C10.3502 4.08726 10.3572 4.09049 10.3646 4.0944C10.3798 4.10241 10.4002 4.1131 10.4242 4.12662C10.4727 4.15399 10.5395 4.19303 10.6205 4.24479C10.7826 4.34846 11.0048 4.50424 11.267 4.72135C11.7924 5.15655 12.4776 5.83994 13.1625 6.85123C14.5216 8.85851 15.8517 12.1211 15.9857 17.237C16.5904 16.893 16.9994 16.2451 16.9994 15.4997V14.7497C16.9995 13.7835 17.7832 12.9999 18.7494 12.9997H19.2494C19.6635 12.9997 19.9993 13.3356 19.9994 13.7497C19.9994 14.1639 19.6636 14.4997 19.2494 14.4997H18.7494C18.6116 14.4999 18.4995 14.6119 18.4994 14.7497V15.4997C18.4994 17.4327 16.9324 18.9997 14.9994 18.9997C14.988 18.9996 14.9764 18.9982 14.9652 18.9977C14.9378 19.0092 14.9105 19.0218 14.8822 19.0319C13.911 19.3775 11.9086 19.9997 9.99939 19.9997C8.09044 19.9996 6.08873 19.3775 5.11756 19.0319C4.42012 18.7835 3.99142 18.1141 4.00623 17.4049C4.1152 12.1924 5.46237 8.88042 6.83631 6.85123C7.52118 5.83981 8.20634 5.1566 8.73182 4.72135C8.99414 4.50409 9.21711 4.34852 9.37928 4.24479C9.46007 4.19313 9.52609 4.15397 9.57459 4.12662C9.59875 4.11301 9.61894 4.10246 9.63416 4.0944C9.64168 4.09042 9.64847 4.0873 9.65369 4.08463C9.65624 4.08333 9.65856 4.08174 9.66053 4.08073C9.66147 4.08025 9.66263 4.07924 9.66346 4.07877H9.66443C9.66499 4.07849 9.66603 4.07834 9.98572 4.72135L9.66541 4.0778ZM9.68885 5.87662C9.26445 6.22815 8.67777 6.80705 8.0785 7.69205C6.88417 9.4559 5.60978 12.4803 5.50623 17.4372C5.50443 17.5315 5.56074 17.5973 5.62049 17.6188C6.55501 17.9514 8.3572 18.4996 9.99939 18.4997C11.6419 18.4997 13.4447 17.9514 14.3793 17.6188C14.4391 17.5974 14.4944 17.5316 14.4926 17.4372C14.389 12.4802 13.1146 9.45588 11.9203 7.69205C11.3211 6.80725 10.7353 6.2281 10.3109 5.87662C10.1942 5.77999 10.0888 5.70055 9.99939 5.63639C9.91005 5.70051 9.80541 5.78009 9.68885 5.87662ZM8.00037 14.9997C8.5524 14.9999 9.00023 15.4476 9.00037 15.9997C9.00037 16.5518 8.55249 16.9995 8.00037 16.9997C7.44809 16.9997 7.00037 16.552 7.00037 15.9997C7.00051 15.4475 7.44817 14.9997 8.00037 14.9997ZM12.0004 14.9997C12.5524 14.9999 13.0002 15.4476 13.0004 15.9997C13.0004 16.5518 12.5525 16.9995 12.0004 16.9997C11.4481 16.9997 11.0004 16.552 11.0004 15.9997C11.0005 15.4475 11.4482 14.9997 12.0004 14.9997ZM8.00037 11.9997C8.5524 11.9999 9.00023 12.4476 9.00037 12.9997C9.00037 13.5518 8.55249 13.9995 8.00037 13.9997C7.44809 13.9997 7.00037 13.552 7.00037 12.9997C7.00051 12.4475 7.44817 11.9997 8.00037 11.9997ZM12.0004 11.9997C12.5524 11.9999 13.0002 12.4476 13.0004 12.9997C13.0004 13.5518 12.5525 13.9995 12.0004 13.9997C11.4481 13.9997 11.0004 13.552 11.0004 12.9997C11.0005 12.4475 11.4482 11.9997 12.0004 11.9997ZM10.0004 8.99967C10.5524 8.99987 11.0002 9.44763 11.0004 9.99967C11.0004 10.5518 10.5525 10.9995 10.0004 10.9997C9.44809 10.9997 9.00037 10.552 9.00037 9.99967C9.00051 9.4475 9.44817 8.99967 10.0004 8.99967ZM9.66248 5.41959L9.66346 5.42057H9.66443V5.41959H9.66346C9.66207 5.41894 9.66053 5.41862 9.66053 5.41862L9.66248 5.41959Z" fill="black"/>
</svg>
