<svg width="24" height="24" viewBox="0 0 24 24" fill="none" xmlns="http://www.w3.org/2000/svg">
<path fill-rule="evenodd" clip-rule="evenodd" d="M19.2498 16.0002C19.664 16.0002 19.9998 16.336 19.9998 16.7502C19.9998 18.1194 18.7135 19.0002 17.4373 19.0002C16.7749 19.0002 16.1114 18.7608 15.6248 18.341C15.1382 18.7608 14.4747 19.0002 13.8123 19.0002C13.1499 19.0002 12.4864 18.7608 11.9998 18.341C11.5132 18.7608 10.8497 19.0002 10.1873 19.0002C9.52494 19.0002 8.86137 18.7608 8.37483 18.341C7.88825 18.7608 7.22474 19.0002 6.56233 19.0002C5.28624 19.0001 3.99983 18.1194 3.99983 16.7502C3.99984 16.3361 4.33571 16.0003 4.74983 16.0002C5.16403 16.0002 5.49981 16.336 5.49983 16.7502C5.49983 17.0378 5.83658 17.5001 6.56233 17.5002C7.28821 17.5002 7.62483 17.0379 7.62483 16.7502C7.62484 16.3361 7.96071 16.0003 8.37483 16.0002C8.78903 16.0002 9.12481 16.336 9.12483 16.7502C9.12483 17.0378 9.46158 17.5001 10.1873 17.5002C10.9132 17.5002 11.2498 17.0379 11.2498 16.7502C11.2498 16.3361 11.5857 16.0003 11.9998 16.0002C12.414 16.0002 12.7498 16.336 12.7498 16.7502C12.7498 17.0378 13.0866 17.5001 13.8123 17.5002C14.5382 17.5002 14.8748 17.0379 14.8748 16.7502C14.8748 16.3361 15.2107 16.0003 15.6248 16.0002C16.039 16.0002 16.3748 16.336 16.3748 16.7502C16.3748 17.0378 16.7116 17.5001 17.4373 17.5002C18.1632 17.5002 18.4998 17.0379 18.4998 16.7502C18.4998 16.3361 18.8357 16.0003 19.2498 16.0002ZM11.1639 5.28148C11.4226 4.95807 11.8951 4.90565 12.2186 5.16429L13.2713 6.00608C15.9558 6.07331 17.639 7.13171 18.6492 8.24632C19.1622 8.81239 19.4897 9.37909 19.6903 9.80687C19.7907 10.0211 19.8608 10.2024 19.9061 10.3342C19.9287 10.4002 19.9452 10.4548 19.9569 10.4944C19.9626 10.5138 19.9672 10.5299 19.9705 10.5422C19.9721 10.5482 19.9733 10.5536 19.9744 10.5578L19.9774 10.5666V10.5676C19.9747 10.5687 19.9314 10.5798 19.2498 10.7502L19.9774 10.5686C20.0155 10.7214 20.0046 10.8823 19.9461 11.0285L18.9461 13.5285C18.7923 13.913 18.356 14.1002 17.9715 13.9465C17.5871 13.7926 17.3999 13.3564 17.5535 12.9719L18.1424 11.5002H7.78108C6.86126 11.5003 6.03397 12.0603 5.69221 12.9143L5.44612 13.5285C5.29229 13.913 4.85604 14.1002 4.47151 13.9465C4.08711 13.7926 3.89988 13.3564 4.05354 12.9719L4.29866 12.3576C4.86812 10.934 6.24776 10.0003 7.78108 10.0002H12.2498V7.11058L11.2811 6.33616C10.9578 6.0774 10.9052 5.60487 11.1639 5.28148ZM13.7498 10.0002H18.0916C17.9501 9.76726 17.7698 9.51007 17.5379 9.25413C16.853 8.49844 15.6961 7.69908 13.7498 7.53343V10.0002Z" fill="black"/>
</svg>
