<svg width="24" height="24" viewBox="0 0 24 24" fill="none" xmlns="http://www.w3.org/2000/svg">
<path d="M8.25 8C8.66421 8 9 8.33579 9 8.75V13.5C9 14.8807 7.88071 16 6.5 16C5.11929 16 4 14.8807 4 13.5V12.75C4 12.3358 4.33579 12 4.75 12C5.16421 12 5.5 12.3358 5.5 12.75V13.5C5.5 14.0523 5.94772 14.5 6.5 14.5C7.05228 14.5 7.5 14.0523 7.5 13.5V8.75C7.5 8.33579 7.83579 8 8.25 8ZM12.25 8C13.2165 8 14 8.7835 14 9.75V11.25C14 12.2165 13.2165 13 12.25 13H11.5V15.25C11.5 15.6642 11.1642 16 10.75 16C10.3358 16 10 15.6642 10 15.25V8.75C10 8.33579 10.3358 8 10.75 8H12.25ZM19.25 8C19.6642 8 20 8.33579 20 8.75C20 9.16421 19.6642 9.5 19.25 9.5H17.75C17.0596 9.5 16.5 10.0596 16.5 10.75V13.25C16.5 13.9404 17.0596 14.5 17.75 14.5H18.5V13H17.75C17.3358 13 17 12.6642 17 12.25C17 11.8358 17.3358 11.5 17.75 11.5H19.25C19.6642 11.5 20 11.8358 20 12.25V15.25C20 15.6642 19.6642 16 19.25 16H17.75C16.2312 16 15 14.7688 15 13.25V10.75C15 9.23122 16.2312 8 17.75 8H19.25ZM11.5 11.5H12.25C12.3881 11.5 12.5 11.3881 12.5 11.25V9.75C12.5 9.61193 12.3881 9.5 12.25 9.5H11.5V11.5Z" fill="black"/>
</svg>
