<svg width="24" height="24" viewBox="0 0 24 24" fill="none" xmlns="http://www.w3.org/2000/svg">
<path d="M4.75 4C5.16421 4 5.5 4.33579 5.5 4.75V19.25C5.5 19.6642 5.16421 20 4.75 20C4.33579 20 4 19.6642 4 19.25V4.75C4 4.33579 4.33579 4 4.75 4ZM19.25 4C19.6642 4 20 4.33579 20 4.75V19.25C20 19.6642 19.6642 20 19.25 20C18.8358 20 18.5 19.6642 18.5 19.25V4.75C18.5 4.33579 18.8358 4 19.25 4ZM12 7C12.2841 7 12.5439 7.16095 12.6709 7.41504L16.9209 15.915C17.1058 16.2854 16.9553 16.7357 16.585 16.9209C16.2146 17.1058 15.7643 16.9553 15.5791 16.585L14.2861 14H9.71387L8.4209 16.585C8.23572 16.9553 7.78545 17.1058 7.41504 16.9209C7.04469 16.7357 6.89416 16.2854 7.0791 15.915L11.3291 7.41504L11.3828 7.32422C11.5215 7.12312 11.7513 7 12 7ZM10.4639 12.5H13.5361L12 9.42676L10.4639 12.5Z" fill="black"/>
</svg>
