<svg width="24" height="24" viewBox="0 0 24 24" fill="none" xmlns="http://www.w3.org/2000/svg">
<path d="M19.25 18.5C19.6642 18.5 20 18.8358 20 19.25C20 19.6642 19.6642 20 19.25 20H7.75C7.33579 20 7 19.6642 7 19.25C7 18.8358 7.33579 18.5 7.75 18.5H19.25ZM19.25 4C19.5215 4 19.7717 4.14686 19.9043 4.38379C20.0368 4.62098 20.0311 4.91215 19.8887 5.14355L18.0371 8.15234C18.013 8.19169 18 8.23703 18 8.2832V15.25C18 16.2165 17.2165 17 16.25 17H8.75C7.7835 17 7 16.2165 7 15.25V14H5.75C4.7835 14 4 13.2165 4 12.25V7.77539C4 6.80889 4.7835 6.02539 5.75 6.02539H7V5.75C7 4.7835 7.7835 4 8.75 4H19.25ZM8.75 5.5C8.61193 5.5 8.5 5.61193 8.5 5.75V15.25C8.5 15.3881 8.61193 15.5 8.75 15.5H16.25C16.3881 15.5 16.5 15.3881 16.5 15.25V8.2832C16.5 7.95942 16.5901 7.64198 16.7598 7.36621L17.9082 5.5H8.75ZM5.75 7.52539C5.61193 7.52539 5.5 7.63732 5.5 7.77539V12.25C5.5 12.3881 5.61193 12.5 5.75 12.5H7V7.52539H5.75Z" fill="black"/>
</svg>
