<svg width="24" height="24" viewBox="0 0 24 24" fill="none" xmlns="http://www.w3.org/2000/svg">
<path d="M10 4C12.7614 4 15 6.23858 15 9V9.2002C15.3344 9.46992 15.6108 9.78064 15.8389 10.126L16.6455 9.31348L16.7607 9.21875C16.8835 9.13633 17.0287 9.09082 17.1787 9.09082C17.3788 9.09086 17.5701 9.17134 17.7109 9.31348L19.7832 11.4043C20.0724 11.6966 20.0726 12.1678 19.7832 12.46L17.5449 14.7188C17.1275 15.1401 16.8926 15.7096 16.8926 16.3027V19.25C16.8926 19.6642 16.5568 20 16.1426 20H4.75C4.33579 20 4 19.6642 4 19.25V14.0225H4.75C4 14.0225 4 14.0219 4 14.0215V13.9941C4.00025 13.9797 4.00109 13.9604 4.00195 13.9365C4.00369 13.8884 4.00727 13.8213 4.01367 13.7383C4.02646 13.5727 4.05107 13.3415 4.10059 13.0664C4.19917 12.5189 4.39775 11.7783 4.80176 11.0303C4.86793 10.9078 4.94067 10.7855 5.01855 10.6631C5.00689 10.6105 5 10.5561 5 10.5V9C5 6.23858 7.23858 4 10 4ZM10.4463 9.5C9.14216 9.50001 8.2142 9.80012 7.54688 10.2119C6.87754 10.625 6.42777 11.1772 6.12207 11.7432C5.81427 12.3131 5.65655 12.8911 5.57715 13.332C5.5378 13.5506 5.51826 13.7309 5.50879 13.8535C5.50408 13.9145 5.50203 13.9612 5.50098 13.9902C5.50046 14.0046 5.5001 14.015 5.5 14.0205V18.5H15.3926V16.3027C15.3926 15.3143 15.7828 14.3653 16.4785 13.6631L18.1934 11.9316L17.1777 10.9062L16.1709 11.9229C15.9902 12.1052 15.7293 12.1827 15.4785 12.1279C15.2277 12.0731 15.0217 11.8936 14.9336 11.6523C14.6732 10.9394 14.2753 10.4347 13.6348 10.0879C12.9648 9.72519 11.9648 9.5 10.4463 9.5ZM10 5.5C8.067 5.5 6.5 7.067 6.5 9V9.10938C6.58422 9.05048 6.66979 8.99107 6.75977 8.93555C7.69447 8.35886 8.90252 8.00001 10.4463 8C11.6229 8 12.616 8.12322 13.4453 8.38867C13.156 6.74726 11.7244 5.5 10 5.5Z" fill="black"/>
</svg>
