<svg width="24" height="24" viewBox="0 0 24 24" fill="none" xmlns="http://www.w3.org/2000/svg">
<path d="M15 4C17.7614 4 20 6.23858 20 9C20 11.7614 17.7614 14 15 14C14.7811 14 14.5655 13.9835 14.3535 13.9561L14.0303 14.2803C13.8896 14.4209 13.6989 14.5 13.5 14.5H12.5V15.5C12.5 15.6989 12.4209 15.8896 12.2803 16.0303L11.0303 17.2803C10.8896 17.4209 10.6989 17.5 10.5 17.5H9.5V18.5C9.5 18.6989 9.42093 18.8896 9.28027 19.0303L8.53027 19.7803C8.38962 19.9209 8.19891 20 8 20H4.75C4.33579 20 4 19.6642 4 19.25V16C4 15.8011 4.07907 15.6104 4.21973 15.4697L10.043 9.64551C10.0156 9.43386 10 9.21852 10 9C10 6.23858 12.2386 4 15 4ZM15 5.5C13.067 5.5 11.5 7.067 11.5 9C11.5 9.25642 11.5273 9.50571 11.5791 9.74512C11.633 9.99412 11.5569 10.2533 11.377 10.4336L5.5 16.3105V18.5H7.68945L8 18.1895V16.75C8 16.3358 8.33579 16 8.75 16H10.1895L11 15.1895V13.75C11 13.3358 11.3358 13 11.75 13H13.1895L13.5664 12.623L13.6367 12.5605C13.8106 12.4258 14.0368 12.3737 14.2549 12.4209C14.4943 12.4727 14.7436 12.5 15 12.5C16.933 12.5 18.5 10.933 18.5 9C18.5 7.067 16.933 5.5 15 5.5ZM16 7C16.5523 7 17 7.44772 17 8C17 8.55228 16.5523 9 16 9C15.4477 9 15 8.55228 15 8C15 7.44772 15.4477 7 16 7Z" fill="black"/>
</svg>
