<svg width="24" height="24" viewBox="0 0 24 24" fill="none" xmlns="http://www.w3.org/2000/svg">
<path d="M19 6.25C19 7.2165 18.2165 8 17.25 8H12.75C12.6119 8 12.5 8.11193 12.5 8.25V9H17.25C18.7688 9 20 10.2312 20 11.75V17.25C20 18.7688 18.7688 20 17.25 20H6.75C5.23122 20 4 18.7688 4 17.25V11.75C4 10.2312 5.23122 9 6.75 9H11V8.25C11 7.2835 11.7835 6.5 12.75 6.5H17.25C17.3881 6.5 17.5 6.38807 17.5 6.25V4H19V6.25ZM6.75 10.5C6.05964 10.5 5.5 11.0596 5.5 11.75V17.25C5.5 17.9404 6.05964 18.5 6.75 18.5H17.25C17.9404 18.5 18.5 17.9404 18.5 17.25V11.75C18.5 11.0596 17.9404 10.5 17.25 10.5H6.75ZM17 17H7V15.5H17V17ZM17 13.5H7V12H17V13.5Z" fill="black"/>
</svg>
