<svg width="24" height="24" viewBox="0 0 24 24" fill="none" xmlns="http://www.w3.org/2000/svg">
<path fill-rule="evenodd" clip-rule="evenodd" d="M12 4C14.7614 4 17 6.23858 17 9C17 10.2316 16.4642 11.2034 15.874 11.9365C15.4969 12.405 15.0404 12.8326 14.6904 13.1553L17.9043 18.8828C18.0345 19.115 18.0319 19.3992 17.8975 19.6289C17.7629 19.8587 17.5163 20 17.25 20H6.74999C6.4838 20 6.23714 19.8586 6.10253 19.6289C5.96821 19.3994 5.9658 19.1159 6.0957 18.8838L9.30859 13.1455C8.95886 12.824 8.50262 12.3974 8.12695 11.9326C7.53622 11.2017 6.99999 10.2321 6.99999 9C6.99999 6.23858 9.23857 4 12 4ZM12 5.5C10.067 5.5 8.49999 7.067 8.49999 9C8.49999 9.76777 8.82779 10.4135 9.29394 10.9902C9.79324 11.6079 10.31 12.0011 10.7793 12.4688C11.0174 12.7061 11.0685 13.0728 10.9043 13.3662L8.02929 18.5H15.9687L13.0957 13.377C12.9313 13.0836 12.9825 12.7169 13.2207 12.4795C13.6873 12.0145 14.2069 11.6149 14.7051 10.9961C15.1718 10.4164 15.5 9.76821 15.5 9C15.5 7.067 13.933 5.5 12 5.5Z" fill="black"/>
</svg>
