<svg width="24" height="24" viewBox="0 0 24 24" fill="none" xmlns="http://www.w3.org/2000/svg">
<path d="M9 4C11.7376 4 13.9599 6.20016 13.998 8.92871L19.0215 12.1699L19.0205 12.1709C19.9682 12.7529 20.272 13.9944 19.7334 14.959C19.1828 15.9446 17.9414 16.3029 16.9609 15.7178V15.7168L12.0957 12.9199C11.7615 13.184 11.3952 13.4093 11 13.582V18C11 19.1046 10.1046 20 9 20C7.89543 20 7 19.1046 7 18V13.582C5.23499 12.8105 4 11.0509 4 9C4 6.23858 6.23858 4 9 4ZM9 5.5C7.067 5.5 5.5 7.067 5.5 9C5.5 10.5736 6.53948 11.9069 7.9707 12.3467C8.28527 12.4436 8.5 12.7343 8.5 13.0635V18C8.5 18.2761 8.72386 18.5 9 18.5C9.27614 18.5 9.5 18.2761 9.5 18V13.0635C9.5 12.7343 9.71473 12.4436 10.0293 12.3467C10.5547 12.1852 11.0263 11.9022 11.4141 11.5322C11.4443 11.4943 11.4787 11.4613 11.5146 11.4307C12.1236 10.8006 12.5 9.94451 12.5 9L12.4951 8.82031C12.4016 6.97083 10.8727 5.5 9 5.5ZM13.751 10.5537C13.6059 10.9974 13.4018 11.4138 13.1455 11.793L17.7188 14.4238L17.7295 14.4297C17.963 14.5691 18.2733 14.4969 18.4238 14.2275C18.582 13.9443 18.4793 13.5931 18.2305 13.4443C18.223 13.4399 18.2153 13.4354 18.208 13.4307L13.751 10.5537ZM9 7.25C9.41421 7.25 9.75 7.58579 9.75 8V8.00977C9.75 8.42398 9.41421 8.75977 9 8.75977C8.58579 8.75977 8.25 8.42398 8.25 8.00977V8C8.25 7.58579 8.58579 7.25 9 7.25Z" fill="black"/>
</svg>
