<svg width="24" height="24" viewBox="0 0 24 24" fill="none" xmlns="http://www.w3.org/2000/svg">
<path d="M18 4C18.3103 4 18.5887 4.19093 18.7002 4.48047L19.9502 7.73047C19.9832 7.81639 20 7.90795 20 8V9C20 9.73975 19.5971 10.3835 19 10.7295V14.5H19.25C19.6642 14.5 20 14.8358 20 15.25C20 15.6642 19.6642 16 19.25 16H18V19.25C18 19.6642 17.6642 20 17.25 20H6.75C6.33579 20 6 19.6642 6 19.25V16H4.75C4.33579 16 4 15.6642 4 15.25C4 14.8358 4.33579 14.5 4.75 14.5H5V10.7295C4.4029 10.3835 4 9.73976 4 9V8C4 7.90795 4.01676 7.81639 4.0498 7.73047L5.2998 4.48047L5.34961 4.37695C5.48176 4.1464 5.72851 4 6 4H18ZM7.5 18.5H16.5V16H7.5V18.5ZM16.4717 10.4746C16.0666 10.792 15.5317 11 15 11C14.4683 11 13.9334 10.792 13.5283 10.4746C13.5186 10.467 13.5097 10.4581 13.5 10.4502C13.4903 10.4581 13.4814 10.467 13.4717 10.4746C13.0666 10.792 12.5317 11 12 11C11.4683 11 10.9334 10.792 10.5283 10.4746C10.5186 10.467 10.5097 10.4581 10.5 10.4502C10.4903 10.4581 10.4814 10.467 10.4717 10.4746C10.0666 10.792 9.53166 11 9 11C8.46834 11 7.93343 10.792 7.52832 10.4746C7.51857 10.467 7.50971 10.4581 7.5 10.4502C7.49029 10.4581 7.48143 10.467 7.47168 10.4746C7.19454 10.6917 6.85597 10.8552 6.5 10.9385V14.5H17.5V10.9385C17.144 10.8552 16.8055 10.6917 16.5283 10.4746C16.5186 10.467 16.5097 10.4581 16.5 10.4502C16.4903 10.4581 16.4814 10.467 16.4717 10.4746ZM5.5 8.13965V9C5.5 9.27614 5.72386 9.5 6 9.5C6.15854 9.5 6.37368 9.42871 6.5459 9.29395C6.72106 9.15671 6.75 9.04034 6.75 9C6.75 8.58579 7.08579 8.25 7.5 8.25C7.91421 8.25 8.25 8.58579 8.25 9C8.25 9.04034 8.27894 9.15671 8.4541 9.29395C8.62632 9.42871 8.84146 9.5 9 9.5C9.15854 9.5 9.37368 9.42871 9.5459 9.29395C9.72106 9.15671 9.75 9.04034 9.75 9C9.75 8.58579 10.0858 8.25 10.5 8.25C10.9142 8.25 11.25 8.58579 11.25 9C11.25 9.04034 11.2789 9.15671 11.4541 9.29395C11.6263 9.42871 11.8415 9.5 12 9.5C12.1585 9.5 12.3737 9.42871 12.5459 9.29395C12.7211 9.15671 12.75 9.04034 12.75 9C12.75 8.58579 13.0858 8.25 13.5 8.25C13.9142 8.25 14.25 8.58579 14.25 9C14.25 9.04034 14.2789 9.15671 14.4541 9.29395C14.6263 9.42871 14.8415 9.5 15 9.5C15.1585 9.5 15.3737 9.42871 15.5459 9.29395C15.7211 9.15671 15.75 9.04034 15.75 9C15.75 8.58579 16.0858 8.25 16.5 8.25C16.9142 8.25 17.25 8.58579 17.25 9C17.25 9.04034 17.2789 9.15671 17.4541 9.29395C17.6263 9.42871 17.8415 9.5 18 9.5C18.0334 9.5 18.0661 9.49649 18.0977 9.49023C18.0993 9.4899 18.1009 9.48958 18.1025 9.48926C18.3295 9.44194 18.5 9.24098 18.5 9V8.13965L17.4844 5.5H6.51562L5.5 8.13965Z" fill="black"/>
</svg>
