<svg width="24" height="24" viewBox="0 0 24 24" fill="none" xmlns="http://www.w3.org/2000/svg">
<path fill-rule="evenodd" clip-rule="evenodd" d="M5.71005 4.0049C5.9299 3.97959 6.14971 4.05319 6.31064 4.2051L19.3585 16.5205L19.5089 16.6758C20.2108 17.4784 20.1609 18.6802 19.3585 19.4258C18.5341 20.1918 17.2182 20.1915 16.3936 19.4258L16.3907 19.4229L11.1485 14.5H10.9317C9.00867 14.4999 7.18225 13.6524 6.01767 12.1885L5.21689 11.1826C3.71089 9.28936 3.59092 6.72003 4.92294 4.709L5.17099 4.33596L5.21982 4.26955C5.34247 4.12248 5.51774 4.02706 5.71005 4.0049ZM5.94833 5.92482C5.22697 7.31948 5.38102 8.97976 6.39072 10.249L7.1915 11.2549C8.05625 12.3418 9.44073 12.9999 10.9317 13H11.4464C11.6371 13 11.821 13.0726 11.9601 13.2031L17.4142 18.3262C17.6631 18.5575 18.088 18.5575 18.337 18.3262C18.5543 18.1242 18.5544 17.8211 18.337 17.6192L18.3331 17.6153L5.94833 5.92482Z" fill="#141414"/>
</svg>
