<svg width="24" height="24" viewBox="0 0 24 24" fill="none" xmlns="http://www.w3.org/2000/svg">
<path fill-rule="evenodd" clip-rule="evenodd" d="M7.18661 4C7.38574 4 7.57717 4.07881 7.71786 4.21973L16.1622 12.6787L19.7813 16.3037C20.0732 16.5965 20.0733 17.0706 19.7813 17.3633L17.3683 19.7803C17.2276 19.9211 17.0361 20 16.837 20C16.6381 19.9999 16.4473 19.921 16.3067 19.7803L13.2179 16.6865L11.336 18.5713C11.1954 18.7121 11.0048 18.792 10.8058 18.792C10.6066 18.792 10.4152 18.7122 10.2745 18.5713L5.91318 14.2031C3.36228 11.648 3.36227 7.51898 5.91318 4.96387L6.65634 4.21973L6.7706 4.12598C6.89288 4.04444 7.03746 4.00001 7.18661 4ZM14.2784 15.625L16.837 18.1875L18.1895 16.833L15.6309 14.2695L14.2784 15.625ZM6.9747 6.02344C5.00849 7.9929 5.00863 11.173 6.9747 13.1426L10.8048 16.9795L12.6876 15.0947L14.5714 13.208L7.18661 5.81055L6.9747 6.02344Z" fill="black"/>
</svg>
