<svg width="24" height="24" viewBox="0 0 24 24" fill="none" xmlns="http://www.w3.org/2000/svg">
<path fill-rule="evenodd" clip-rule="evenodd" d="M12.3965 4C13.7613 4 14.9203 5.00123 15.1182 6.35156L15.3799 8.1416L16.9922 19.1416C17.0521 19.5513 16.7681 19.9321 16.3584 19.9922C15.9488 20.052 15.5679 19.7681 15.5078 19.3584L15.1621 17H8.83791L8.49221 19.3584C8.43216 19.7681 8.05132 20.052 7.64163 19.9922C7.23197 19.9321 6.94801 19.5513 7.00784 19.1416L8.62014 8.1416L8.88186 6.35156C9.07975 5.00126 10.2388 4.00005 11.6035 4H12.3965ZM9.05764 15.5H14.9424L14.5762 13H9.42385L9.05764 15.5ZM9.64358 11.5H14.3565L13.9893 9H10.0108L9.64358 11.5ZM11.6035 5.5C10.9834 5.50005 10.4563 5.95478 10.3662 6.56836L10.2305 7.5H13.7696L13.6338 6.56836C13.5437 5.95475 13.0167 5.5 12.3965 5.5H11.6035Z" fill="black"/>
</svg>
