<svg width="24" height="24" viewBox="0 0 24 24" fill="none" xmlns="http://www.w3.org/2000/svg">
<path fill-rule="evenodd" clip-rule="evenodd" d="M10.5342 4.52759C10.6572 4.13228 11.0772 3.9117 11.4727 4.03442C11.8679 4.15742 12.0886 4.57749 11.9659 4.9729L11.4922 6.50024H15.9219L16.5342 4.52759C16.6572 4.13228 17.0772 3.9117 17.4727 4.03442C17.8679 4.15742 18.0886 4.57749 17.9659 4.9729L13.4659 19.4729C13.3429 19.8681 12.9228 20.0887 12.5274 19.9661C12.1321 19.8431 11.9116 19.423 12.0342 19.0276L12.6631 17.0002H8.23343L7.46586 19.4729C7.34287 19.8681 6.92277 20.0887 6.52738 19.9661C6.1321 19.8431 5.91155 19.423 6.03422 19.0276L10.5342 4.52759ZM9.1641 14.0002L8.69828 15.5002H13C13.0427 15.5002 13.0844 15.5042 13.125 15.511L13.5948 14.0002H9.1641ZM10.0957 11.0002L9.62992 12.5002H14C14.0198 12.5002 14.0393 12.5017 14.0586 12.5032L14.5254 11.0002H10.0957ZM11.0264 8.00024L10.5606 9.50024H14.9912L15.4561 8.00024H11.0264Z" fill="black"/>
</svg>
