<svg width="24" height="24" viewBox="0 0 24 24" fill="none" xmlns="http://www.w3.org/2000/svg">
<path fill-rule="evenodd" clip-rule="evenodd" d="M15.0001 4C15.2701 4 15.5193 4.14509 15.6525 4.37988L19.9025 11.8799C20.034 12.1121 20.0329 12.3974 19.8986 12.6279C19.7642 12.8585 19.517 13 19.2501 13H12.7501V18.5H15.2501C15.6643 18.5 16.0001 18.8358 16.0001 19.25C16.0001 19.6642 15.6643 20 15.2501 20H8.75013C8.33591 20 8.00013 19.6642 8.00013 19.25C8.00013 18.8358 8.33591 18.5 8.75013 18.5H11.2501V13H4.75013C4.48327 13 4.23606 12.8585 4.10169 12.6279C3.96732 12.3974 3.96621 12.1121 4.09778 11.8799L8.34778 4.37988L8.40247 4.29688C8.54306 4.11138 8.76359 4 9.00013 4H15.0001ZM6.03723 11.5H17.963L14.5626 5.5H9.43763L6.03723 11.5Z" fill="black"/>
</svg>
