<svg width="24" height="24" viewBox="0 0 24 24" fill="none" xmlns="http://www.w3.org/2000/svg">
<path d="M17.25 4C18.7688 4 20 5.23122 20 6.75V14.25C20 15.7688 18.7688 17 17.25 17H16.1641C15.8779 17 15.6004 17.0984 15.3779 17.2783L12.2217 19.833C11.997 20.0148 11.6876 20.0512 11.4268 19.9268C11.166 19.8022 11 19.539 11 19.25V17.25C11 17.1119 10.8881 17 10.75 17H6.75C5.23122 17 4 15.7688 4 14.25V6.75C4 5.23122 5.23122 4 6.75 4H17.25ZM6.75 5.5C6.05964 5.5 5.5 6.05964 5.5 6.75V14.25C5.5 14.9404 6.05964 15.5 6.75 15.5H10.75C11.7165 15.5 12.5 16.2835 12.5 17.25V17.6777L14.4336 16.1123C14.9232 15.716 15.5342 15.5 16.1641 15.5H17.25C17.9404 15.5 18.5 14.9404 18.5 14.25V6.75C18.5 6.05964 17.9404 5.5 17.25 5.5H6.75ZM12 7C12.3045 7 12.579 7.18402 12.6943 7.46582L14.9443 12.9658C15.1012 13.3492 14.9175 13.7875 14.5342 13.9443C14.1508 14.1012 13.7125 13.9175 13.5557 13.5342L12.9277 12H11.0723L10.4443 13.5342C10.2875 13.9175 9.84916 14.1012 9.46582 13.9443C9.08252 13.7875 8.89884 13.3492 9.05566 12.9658L11.3057 7.46582L11.3564 7.36523C11.4904 7.14113 11.7335 7 12 7ZM11.6855 10.5H12.3145L12 9.73145L11.6855 10.5Z" fill="black"/>
</svg>
