<svg width="24" height="24" viewBox="0 0 24 24" fill="none" xmlns="http://www.w3.org/2000/svg">
<path d="M16 12C16.2841 12 16.5439 12.161 16.6709 12.415L19.9209 18.915C20.1058 19.2854 19.9553 19.7357 19.585 19.9209C19.2146 20.1058 18.7643 19.9553 18.5791 19.585L17.7861 18H14.2139L13.4209 19.585C13.2357 19.9553 12.7854 20.1058 12.415 19.9209C12.0447 19.7357 11.8942 19.2854 12.0791 18.915L15.3291 12.415C15.4561 12.161 15.7159 12 16 12ZM14.9639 16.5H17.0361L16 14.4268L14.9639 16.5ZM9 4C9.41421 4 9.75 4.33579 9.75 4.75V6H13.25C13.6642 6 14 6.33579 14 6.75C14 7.16421 13.6642 7.5 13.25 7.5H11.9316C11.8906 7.76641 11.8247 8.09212 11.7207 8.45605C11.4455 9.41929 10.8926 10.6679 9.78027 11.7803C9.77343 11.7871 9.76564 11.793 9.75879 11.7998C10.1826 12.021 10.5917 12.1752 10.9561 12.2793C11.3487 12.3915 11.6837 12.4463 11.916 12.4736C12.0315 12.4872 12.121 12.4939 12.1787 12.4971C12.2076 12.4986 12.2291 12.4997 12.2412 12.5H12.25C12.6642 12.5 13 12.8358 13 13.25C13 13.6642 12.6642 14 12.25 14V13.25L12.249 14H12.2334C12.2254 13.9999 12.2148 13.9994 12.2021 13.999C12.1767 13.9984 12.1418 13.9974 12.0986 13.9951C12.0119 13.9904 11.8899 13.9815 11.7402 13.9639C11.4413 13.9287 11.0261 13.8585 10.5439 13.7207C9.94006 13.5482 9.22433 13.2659 8.5 12.8057C7.77567 13.2659 7.05994 13.5482 6.45605 13.7207C5.97387 13.8585 5.55866 13.9287 5.25977 13.9639C5.11007 13.9815 4.98812 13.9904 4.90137 13.9951C4.85818 13.9974 4.8233 13.9984 4.79785 13.999C4.78517 13.9994 4.7746 13.9999 4.7666 14H4.75098C4.75066 14 4.75 14 4.75 13.25V14C4.33579 14 4 13.6642 4 13.25C4 12.8358 4.33579 12.5 4.75 12.5C4.75199 12.5 4.75493 12.5001 4.75879 12.5C4.77086 12.4997 4.79242 12.4986 4.82129 12.4971C4.87905 12.4939 4.96847 12.4872 5.08398 12.4736C5.3163 12.4463 5.6513 12.3915 6.04395 12.2793C6.40808 12.1753 6.8167 12.0207 7.24023 11.7998C7.23354 11.7932 7.22641 11.787 7.21973 11.7803C6.94667 11.5072 6.65462 11.0595 6.45898 10.7412C6.35389 10.5702 6.26327 10.4129 6.19824 10.2988C6.16572 10.2418 6.13936 10.195 6.12109 10.1621C6.11195 10.1456 6.10461 10.1322 6.09961 10.123C6.09716 10.1186 6.09513 10.1148 6.09375 10.1123C6.09311 10.1111 6.09218 10.1101 6.0918 10.1094V10.1084H6.09082C5.89301 9.7445 6.02772 9.28866 6.3916 9.09082C6.7555 8.89301 7.21134 9.02772 7.40918 9.3916L7.41406 9.40137C7.41796 9.40846 7.42379 9.41946 7.43164 9.43359C7.44749 9.46213 7.47152 9.50398 7.50098 9.55566C7.56019 9.65954 7.6431 9.80182 7.7373 9.95508C7.94055 10.2857 8.14884 10.5883 8.28027 10.7197C8.35251 10.792 8.42644 10.8602 8.5 10.9268C8.57356 10.8602 8.64749 10.792 8.71973 10.7197C9.60735 9.8321 10.0545 8.83069 10.2793 8.04395C10.3358 7.84606 10.378 7.66284 10.4092 7.5H4.75C4.33579 7.5 4 7.16421 4 6.75C4 6.33579 4.33579 6 4.75 6H8.25V4.75C8.25 4.33579 8.58579 4 9 4Z" fill="black"/>
</svg>
