<svg width="24" height="24" viewBox="0 0 24 24" fill="none" xmlns="http://www.w3.org/2000/svg">
<path d="M15.25 4C17.8734 4 20 6.12665 20 8.75V15.25C20 17.8734 17.8734 20 15.25 20H8.75C6.12665 20 4 17.8734 4 15.25V8.75C4 6.12665 6.12665 4 8.75 4H15.25ZM8.75 5.5C6.95508 5.5 5.5 6.95507 5.5 8.75V15.25C5.5 17.0449 6.95507 18.5 8.75 18.5H15.25C17.0449 18.5 18.5 17.0449 18.5 15.25V8.75C18.5 6.95508 17.0449 5.5 15.25 5.5H8.75ZM10.25 8C10.6642 8 11 8.33579 11 8.75C11 9.16421 10.6642 9.5 10.25 9.5H8.75C8.61193 9.5 8.5 9.61193 8.5 9.75V11.25H10.25C10.6642 11.25 11 11.5858 11 12C11 12.4142 10.6642 12.75 10.25 12.75H8.5V14.25C8.5 14.3881 8.61193 14.5 8.75 14.5H10.25C10.6642 14.5 11 14.8358 11 15.25C11 15.6642 10.6642 16 10.25 16H8.75C7.7835 16 7 15.2165 7 14.25V9.75C7 8.7835 7.7835 8 8.75 8H10.25ZM16.25 8C16.6642 8 17 8.33579 17 8.75V15.25C17 15.5935 16.7667 15.8935 16.4336 15.9775C16.1004 16.0615 15.7527 15.908 15.5898 15.6055L13.5 11.7236V15.25C13.5 15.6642 13.1642 16 12.75 16C12.3358 16 12 15.6642 12 15.25V8.75C12 8.40646 12.2333 8.10651 12.5664 8.02246C12.8996 7.93846 13.2473 8.09201 13.4102 8.39453L15.5 12.2754V8.75C15.5 8.33579 15.8358 8 16.25 8Z" fill="black"/>
</svg>
