<svg width="24" height="24" viewBox="0 0 24 24" fill="none" xmlns="http://www.w3.org/2000/svg">
<path fill-rule="evenodd" clip-rule="evenodd" d="M11.25 4.99982C11.6642 4.99982 11.9999 5.33567 12 5.74982C12 6.16403 11.6642 6.49982 11.25 6.49982H6.75C6.61197 6.49982 6.50007 6.61181 6.5 6.74982V13.9998H10C10.3198 13.9998 10.6045 14.2026 10.709 14.5047V14.5037L10.708 14.5018C10.7077 14.5008 10.7074 14.4997 10.707 14.4988C10.7062 14.4966 10.7048 14.4939 10.7041 14.492C10.7028 14.4885 10.702 14.4854 10.7012 14.4832C10.7002 14.4809 10.6995 14.4791 10.6992 14.4783C10.7005 14.481 10.7058 14.4928 10.7168 14.5106C10.7399 14.5478 10.7866 14.6116 10.8662 14.6795C11.013 14.8046 11.3364 14.9998 12 14.9998C12.6636 14.9998 12.987 14.8046 13.1338 14.6795C13.2134 14.6116 13.2601 14.5478 13.2832 14.5106C13.2942 14.4928 13.2995 14.481 13.3008 14.4783C13.3005 14.4791 13.2998 14.4809 13.2988 14.4832C13.298 14.4854 13.2972 14.4885 13.2959 14.492C13.2952 14.4939 13.2938 14.4966 13.293 14.4988C13.2926 14.4997 13.2923 14.5008 13.292 14.5018L13.291 14.5037V14.5047C13.3955 14.2026 13.6802 13.9998 14 13.9998H17.5V11.7498C17.5001 11.3357 17.8358 10.9998 18.25 10.9998C18.6642 10.9998 18.9999 11.3357 19 11.7498V13.9998H19.25C19.6642 13.9998 19.9999 14.3357 20 14.7498V16.2498C20 17.7686 18.7688 18.9998 17.25 18.9998H6.75C5.23122 18.9998 4 17.7686 4 16.2498V14.7498C4.00007 14.3357 4.33583 13.9998 4.75 13.9998H5V6.74982C5.00007 5.78338 5.78355 4.99982 6.75 4.99982H11.25ZM5.5 16.2498C5.5 16.9402 6.05964 17.4998 6.75 17.4998H17.25C17.9404 17.4998 18.5 16.9402 18.5 16.2498V15.4998H14.416C14.3348 15.6022 14.2344 15.7126 14.1084 15.8201C13.6691 16.195 12.9921 16.4998 12 16.4998C11.0079 16.4998 10.3309 16.195 9.8916 15.8201C9.76561 15.7126 9.66524 15.6022 9.58398 15.4998H5.5V16.2498ZM18.9551 4.06037C19.3042 3.91057 19.7167 4.04643 19.9053 4.38556C20.1064 4.74758 19.9762 5.20387 19.6143 5.40509C19.6122 5.40627 19.6076 5.4094 19.6016 5.41291C19.5895 5.41993 19.5699 5.43121 19.5439 5.44709C19.4908 5.47965 19.4104 5.5311 19.3105 5.59943C19.1101 5.73661 18.8324 5.94194 18.5342 6.21173C17.93 6.75834 17.2808 7.53048 16.9619 8.48713C16.8797 8.73371 16.6748 8.91959 16.4219 8.97931C16.169 9.0389 15.9034 8.96382 15.7197 8.78009L14.2197 7.28009C13.9269 6.9872 13.9269 6.51242 14.2197 6.21955C14.5126 5.92675 14.9874 5.92675 15.2803 6.21955L16.0137 6.95295C16.4576 6.17258 17.0285 5.55261 17.5283 5.10041C17.8862 4.77662 18.2181 4.52862 18.4629 4.36115C18.5853 4.27741 18.687 4.21331 18.7598 4.16877C18.796 4.14655 18.8255 4.12838 18.8467 4.11603C18.8573 4.10987 18.8666 4.10506 18.873 4.10138C18.8762 4.09961 18.8788 4.09768 18.8809 4.0965C18.8818 4.09597 18.883 4.09594 18.8838 4.09552L18.8848 4.09455H18.8857L18.9551 4.06037Z" fill="black"/>
</svg>
