<svg width="24" height="24" viewBox="0 0 24 24" fill="none" xmlns="http://www.w3.org/2000/svg">
<path d="M15.25 5C15.6642 5 16 5.33579 16 5.75C16 6.16421 15.6642 6.5 15.25 6.5H6.75C6.61193 6.5 6.5 6.61193 6.5 6.75V14H10C10.3198 14 10.6045 14.2027 10.709 14.5049V14.5039L10.708 14.502C10.7077 14.5009 10.7074 14.5 10.707 14.499C10.7062 14.4967 10.7048 14.4941 10.7041 14.4922C10.7028 14.4886 10.702 14.4856 10.7012 14.4834C10.7002 14.481 10.6995 14.4793 10.6992 14.4785C10.7005 14.4812 10.7058 14.4929 10.7168 14.5107C10.7399 14.548 10.7866 14.6117 10.8662 14.6797C11.013 14.8048 11.3364 15 12 15C12.6636 15 12.987 14.8048 13.1338 14.6797C13.2134 14.6117 13.2601 14.548 13.2832 14.5107C13.2942 14.4929 13.2995 14.4812 13.3008 14.4785C13.3005 14.4793 13.2998 14.481 13.2988 14.4834C13.298 14.4856 13.2972 14.4886 13.2959 14.4922C13.2952 14.4941 13.2938 14.4967 13.293 14.499C13.2926 14.5 13.2923 14.5009 13.292 14.502L13.291 14.5039V14.5049C13.3955 14.2027 13.6802 14 14 14H17.5V12.75C17.5 12.3358 17.8358 12 18.25 12C18.6642 12 19 12.3358 19 12.75V14H19.25C19.6642 14 20 14.3358 20 14.75V16.25C20 17.7688 18.7688 19 17.25 19H6.75C5.23122 19 4 17.7688 4 16.25V14.75C4 14.3358 4.33579 14 4.75 14H5V6.75C5 5.7835 5.7835 5 6.75 5H15.25ZM5.5 16.25C5.5 16.9404 6.05964 17.5 6.75 17.5H17.25C17.9404 17.5 18.5 16.9404 18.5 16.25V15.5H14.416C14.3347 15.6024 14.2344 15.7127 14.1084 15.8203C13.6691 16.1952 12.9921 16.5 12 16.5C11.0079 16.5 10.3309 16.1952 9.8916 15.8203C9.76558 15.7127 9.66526 15.6024 9.58398 15.5H5.5V16.25ZM19.25 8.25C19.6642 8.25 20 8.58579 20 9V9.25C20 9.66421 19.6642 10 19.25 10C18.8358 10 18.5 9.66421 18.5 9.25V9C18.5 8.58579 18.8358 8.25 19.25 8.25ZM19.25 4C19.6642 4 20 4.33579 20 4.75V6.25C20 6.66421 19.6642 7 19.25 7C18.8358 7 18.5 6.66421 18.5 6.25V4.75C18.5 4.33579 18.8358 4 19.25 4Z" fill="black"/>
</svg>
