<svg width="24" height="24" viewBox="0 0 24 24" fill="none" xmlns="http://www.w3.org/2000/svg">
<path d="M17.2498 9C18.7685 9 19.9998 10.2312 19.9998 11.75V17.25C19.9998 18.7688 18.7685 20 17.2498 20H14.7498C13.2311 19.9999 11.9998 18.7687 11.9998 17.25V11.75C11.9998 10.2313 13.2311 9.00013 14.7498 9H17.2498ZM17.2498 4C18.7685 4 19.9998 5.23122 19.9998 6.75V8H18.4998V6.75C18.4998 6.05964 17.9401 5.5 17.2498 5.5H7.74976C7.05947 5.50008 6.49976 6.0597 6.49976 6.75V14.5H10.9998V16H5.53491C5.53491 16.8284 6.20649 17.5 7.03491 17.5H10.9998V19H7.03491C5.37806 19 4.03491 17.6569 4.03491 16C4.03491 15.3603 4.43583 14.8152 4.99976 14.5996V6.75C4.99976 5.23127 6.23104 4.00008 7.74976 4H17.2498ZM14.7498 10.5C14.0595 10.5001 13.4998 11.0597 13.4998 11.75V17.25C13.4998 17.9403 14.0595 18.4999 14.7498 18.5H17.2498C17.9401 18.5 18.4998 17.9404 18.4998 17.25V11.75C18.4998 11.0596 17.9401 10.5 17.2498 10.5H14.7498ZM16.7595 17.75H15.2498V16.25H16.7595V17.75Z" fill="black"/>
</svg>
