<svg width="24" height="24" viewBox="0 0 24 24" fill="none" xmlns="http://www.w3.org/2000/svg">
<path fill-rule="evenodd" clip-rule="evenodd" d="M17.2505 4C18.2168 4.00025 19.0005 4.78365 19.0005 5.75V14.25C19.0005 14.2916 18.9953 14.3323 18.9888 14.3721L19.73 17.8896C19.9588 18.9773 19.1286 20 18.0171 20H5.98193C4.87077 19.9996 4.0412 18.9771 4.27002 17.8896L5.01025 14.3721C5.00374 14.3323 5.00049 14.2916 5.00049 14.25V5.75C5.00049 4.7835 5.78399 4 6.75049 4H17.2505ZM6.41064 15L5.73779 18.1982C5.70516 18.3534 5.82349 18.4996 5.98193 18.5H18.0171C18.1759 18.5 18.2949 18.3536 18.2622 18.1982L17.5894 15H6.41064ZM6.75049 5.5C6.61242 5.5 6.50049 5.61193 6.50049 5.75V13.5H17.5005V5.75C17.5005 5.61208 17.3884 5.50025 17.2505 5.5H6.75049Z" fill="black"/>
</svg>
