<svg width="24" height="24" viewBox="0 0 24 24" fill="none" xmlns="http://www.w3.org/2000/svg">
<path fill-rule="evenodd" clip-rule="evenodd" d="M11.7109 10.0578C11.9264 9.96785 12.1741 9.9829 12.3789 10.1028L19.6289 14.3528C19.8585 14.4874 20 14.734 20 15.0002C20 15.2664 19.8585 15.5131 19.6289 15.6477L12.3789 19.8977C12.1449 20.0346 11.8551 20.0346 11.6211 19.8977L4.37109 15.6477C4.14146 15.5131 4 15.2664 4 15.0002C4 14.734 4.14146 14.4874 4.37109 14.3528L11.6211 10.1028L11.7109 10.0578ZM6.2334 15.0002L12 18.3801L17.7666 15.0002L12 11.6194L6.2334 15.0002Z" fill="black"/>
</svg>
