<svg width="24" height="24" viewBox="0 0 24 24" fill="none" xmlns="http://www.w3.org/2000/svg">
<path fill-rule="evenodd" clip-rule="evenodd" d="M11.7106 4.05728C11.926 3.96734 12.1738 3.98251 12.3786 4.1022L19.6286 8.3522C19.8582 8.48677 19.9996 8.73357 19.9997 8.99966C19.9997 9.26584 19.8582 9.51251 19.6286 9.64712L15.8386 11.8678L19.6608 14.3727C19.8777 14.5149 20.006 14.759 19.9997 15.0182C19.9932 15.2776 19.8525 15.5159 19.6286 15.6471L12.3786 19.8971C12.1446 20.034 11.8547 20.034 11.6208 19.8971L4.37078 15.6471C4.148 15.5164 4.00715 15.2794 3.99969 15.0211C3.99239 14.763 4.11882 14.5189 4.33367 14.3756L8.12469 11.8473L4.37078 9.64712C4.14134 9.51247 3.99969 9.26571 3.99969 8.99966C3.99977 8.73362 4.14129 8.48679 4.37078 8.3522L11.6208 4.1022L11.7106 4.05728ZM6.16278 14.9586L11.9997 18.3795L17.8268 14.9635L14.3952 12.7145L12.3786 13.8971C12.1446 14.034 11.8547 14.034 11.6208 13.8971L9.56317 12.6911L6.16278 14.9586ZM6.23309 8.99966L11.9997 12.3795L17.7663 8.99966L11.9997 5.6188L6.23309 8.99966Z" fill="black"/>
</svg>
