<svg width="24" height="24" viewBox="0 0 24 24" fill="none" xmlns="http://www.w3.org/2000/svg">
<path fill-rule="evenodd" clip-rule="evenodd" d="M11.7109 6.05784C11.9264 5.96785 12.1741 5.9829 12.3789 6.10276L19.6289 10.3528C19.8585 10.4874 20 10.734 20 11.0002C20 11.2664 19.8585 11.5131 19.6289 11.6477L17.3213 13.0002L19.6289 14.3537C19.8584 14.4884 20 14.7351 20 15.0012C19.9997 15.267 19.8583 15.5132 19.6289 15.6477L12.3789 19.8977C12.1449 20.0346 11.8551 20.0346 11.6211 19.8977L4.37109 15.6477C4.14173 15.5132 4.00033 15.267 4 15.0012C4 14.7351 4.14159 14.4884 4.37109 14.3537L6.67773 13.0002L4.37109 11.6477C4.14146 11.5131 4 11.2664 4 11.0002C4 10.734 4.14146 10.4874 4.37109 10.3528L11.6211 6.10276L11.7109 6.05784ZM12.3789 15.8977C12.1449 16.0346 11.8551 16.0346 11.6211 15.8977L8.16211 13.8694L6.23242 15.0002L12 18.3811L17.7666 15.0002L15.8369 13.8694L12.3789 15.8977ZM6.2334 11.0002L12 14.3801L17.7666 11.0002L12 7.61936L6.2334 11.0002Z" fill="black"/>
</svg>
