<svg width="24" height="24" viewBox="0 0 24 24" fill="none" xmlns="http://www.w3.org/2000/svg">
<path fill-rule="evenodd" clip-rule="evenodd" d="M11.7109 4.05784C11.9264 3.96785 12.1741 3.9829 12.3789 4.10276L19.6289 8.35276C19.8585 8.48737 20 8.73405 20 9.00022C20 9.2664 19.8585 9.51307 19.6289 9.64768L18.1738 10.5002L19.6289 11.3537C19.8585 11.4883 19.9999 11.7341 20 12.0002C20 12.2664 19.8585 12.5131 19.6289 12.6477L18.1738 13.5002L19.6289 14.3537C19.8585 14.4883 19.9999 14.7341 20 15.0002C20 15.2664 19.8585 15.5131 19.6289 15.6477L12.3789 19.8977C12.1449 20.0347 11.8551 20.0347 11.6211 19.8977L4.37109 15.6477C4.14146 15.5131 4 15.2664 4 15.0002C4.00007 14.7341 4.14152 14.4883 4.37109 14.3537L5.8252 13.5002L4.37109 12.6477C4.14146 12.5131 4 12.2664 4 12.0002C4.00007 11.7341 4.14152 11.4883 4.37109 11.3537L5.8252 10.5002L4.37109 9.64768C4.14146 9.51307 4 9.2664 4 9.00022C4 8.73405 4.14146 8.48737 4.37109 8.35276L11.6211 4.10276L11.7109 4.05784ZM12.3789 16.8977C12.1449 17.0347 11.8551 17.0347 11.6211 16.8977L7.30859 14.3694L6.23242 15.0002L12 18.3811L17.7666 15.0002L16.6904 14.3694L12.3789 16.8977ZM12.3789 13.8977C12.1449 14.0346 11.8551 14.0346 11.6211 13.8977L7.30859 11.3694L6.23242 12.0002L12 15.3811L17.7666 12.0002L16.6904 11.3694L12.3789 13.8977ZM6.2334 9.00022L12 12.3801L17.7666 9.00022L12 5.61936L6.2334 9.00022Z" fill="black"/>
</svg>
