<svg width="24" height="24" viewBox="0 0 24 24" fill="none" xmlns="http://www.w3.org/2000/svg">
<path d="M19.25 18.5C19.6642 18.5 20 18.8358 20 19.25C20 19.6642 19.6642 20 19.25 20H4.75C4.33579 20 4 19.6642 4 19.25C4 18.8358 4.33579 18.5 4.75 18.5H19.25ZM6.25 8C7.2165 8 8 8.7835 8 9.75V15.25C8 16.2165 7.2165 17 6.25 17H5.75C4.7835 17 4 16.2165 4 15.25V9.75C4 8.7835 4.7835 8 5.75 8H6.25ZM12.25 4C13.2165 4 14 4.7835 14 5.75V15.25C14 16.2165 13.2165 17 12.25 17H11.75C10.7835 17 10 16.2165 10 15.25V5.75C10 4.7835 10.7835 4 11.75 4H12.25ZM18.25 8C19.2165 8 20 8.7835 20 9.75V15.25C20 16.2165 19.2165 17 18.25 17H17.75C16.7835 17 16 16.2165 16 15.25V9.75C16 8.7835 16.7835 8 17.75 8H18.25ZM5.75 9.5C5.61193 9.5 5.5 9.61193 5.5 9.75V15.25C5.5 15.3881 5.61193 15.5 5.75 15.5H6.25C6.38807 15.5 6.5 15.3881 6.5 15.25V9.75C6.5 9.61193 6.38807 9.5 6.25 9.5H5.75ZM11.75 5.5C11.6119 5.5 11.5 5.61193 11.5 5.75V15.25C11.5 15.3881 11.6119 15.5 11.75 15.5H12.25C12.3881 15.5 12.5 15.3881 12.5 15.25V5.75C12.5 5.61193 12.3881 5.5 12.25 5.5H11.75ZM17.75 9.5C17.6119 9.5 17.5 9.61193 17.5 9.75V15.25C17.5 15.3881 17.6119 15.5 17.75 15.5H18.25C18.3881 15.5 18.5 15.3881 18.5 15.25V9.75C18.5 9.61193 18.3881 9.5 18.25 9.5H17.75Z" fill="black"/>
</svg>
