<svg width="24" height="24" viewBox="0 0 24 24" fill="none" xmlns="http://www.w3.org/2000/svg">
<path fill-rule="evenodd" clip-rule="evenodd" d="M19.2499 4C19.6642 4 19.9999 4.33579 19.9999 4.75V7.58105C19.9998 10.6095 18.7967 13.5138 16.6552 15.6553C14.5138 17.7967 11.6094 18.9999 8.581 19H6.06049L5.28022 19.7803C4.98732 20.0732 4.51256 20.0732 4.21967 19.7803C3.92678 19.4874 3.92678 19.0126 4.21967 18.7197L4.99994 17.9395V16.2549C5.00006 12.7048 6.60538 9.34491 9.36713 7.11426L11.7783 5.16699C12.003 4.98546 12.3125 4.94872 12.5732 5.07324C12.8339 5.1978 12.9999 5.46106 12.9999 5.75V8.31152C13.2352 8.22961 13.5 8.11628 13.7646 7.9541C14.5408 7.47827 15.3914 6.56696 15.5009 4.70605C15.5242 4.30963 15.8528 4 16.2499 4H19.2499ZM16.9208 5.5C16.6177 7.45193 15.5892 8.59513 14.5478 9.2334C13.9834 9.57928 13.432 9.76879 13.0234 9.87207C12.8181 9.92395 12.6453 9.95432 12.5205 9.97266C12.4581 9.98182 12.4074 9.9883 12.3701 9.99219C12.3514 9.99413 12.3359 9.9951 12.3242 9.99609C12.3184 9.99658 12.3135 9.99774 12.3095 9.99805H12.2997C12.0927 10.0118 11.8888 9.93965 11.7372 9.79785C11.5857 9.65604 11.4999 9.45754 11.4999 9.25V7.31934L10.3095 8.28125C7.90034 10.2271 6.50006 13.158 6.49994 16.2549V16.4395L10.7197 12.2197C11.0126 11.9268 11.4873 11.9268 11.7802 12.2197C12.0731 12.5126 12.0731 12.9874 11.7802 13.2803L7.56049 17.5H8.581C11.2116 17.4999 13.7345 16.4549 15.5947 14.5947C17.4548 12.7346 18.4998 10.2117 18.4999 7.58105V5.5H16.9208Z" fill="black"/>
</svg>
