<svg width="24" height="24" viewBox="0 0 24 24" fill="none" xmlns="http://www.w3.org/2000/svg">
<path fill-rule="evenodd" clip-rule="evenodd" d="M10.7501 9C11.4111 9 11.9568 9.16677 12.3917 9.45508C12.8219 9.7404 13.0999 10.1156 13.2774 10.4688C13.3948 10.7023 13.4693 10.9324 13.5196 11.1328C15.0722 11.2356 16.2892 11.7091 17.2286 12.416C18.2874 13.2129 18.9399 14.2651 19.3409 15.2803C19.741 16.2932 19.901 17.2943 19.963 18.0332C19.9941 18.4047 20.0012 18.7158 20.0001 18.9365C19.9995 19.0468 19.9967 19.1349 19.9942 19.1973C19.9929 19.2285 19.9913 19.2536 19.9903 19.2715C19.9898 19.2803 19.9897 19.2876 19.9893 19.293C19.9891 19.2956 19.9894 19.298 19.9893 19.2998L19.9883 19.3018V19.3027C19.9838 19.3028 19.9275 19.2994 19.2403 19.25L19.9883 19.3037C19.9602 19.6961 19.6337 20 19.2403 20H17.1837C12.8852 19.9997 10.1485 15.4652 12.1055 11.707C12.1032 11.6908 12.1027 11.6733 12.0997 11.6553C12.0748 11.5068 12.0268 11.3201 11.9376 11.1426C11.8498 10.968 11.7292 10.8156 11.5626 10.7051C11.4004 10.5976 11.1503 10.5 10.7501 10.5C10.3358 10.5 10.0001 10.1642 10.0001 9.75C10.0001 9.33579 10.3358 9 10.7501 9ZM5.75006 15C6.16427 15 6.50006 15.3358 6.50006 15.75C6.50006 16.7165 7.28356 17.5 8.25006 17.5C8.66427 17.5 9.00006 17.8358 9.00006 18.25C9.00006 18.6642 8.66427 19 8.25006 19C6.45513 19 5.00006 17.5449 5.00006 15.75C5.00006 15.3358 5.33585 15 5.75006 15ZM14.1524 12.8125C14.5422 13.5044 15.0657 14.2257 15.6661 14.626C16.0107 14.8557 16.1038 15.3214 15.8741 15.666C15.6443 16.0107 15.1787 16.1038 14.834 15.874C14.0333 15.3402 13.4186 14.5103 12.9942 13.8037C12.7001 16.1746 14.5324 18.4998 17.1837 18.5H18.4883C18.4835 18.3951 18.4791 18.2806 18.4688 18.1582C18.4146 17.5117 18.2759 16.6653 17.9463 15.8311C17.6177 14.9991 17.109 14.2037 16.3272 13.6152C15.7704 13.1961 15.0466 12.8614 14.0958 12.7061C14.1148 12.7408 14.1324 12.777 14.1524 12.8125ZM9.25006 4C9.66427 4 10.0001 4.33579 10.0001 4.75C10.0001 5.16421 9.66427 5.5 9.25006 5.5C9.11495 5.5 9.06107 5.53343 9.04108 5.54785C9.01351 5.56784 8.98005 5.60574 8.9483 5.6748C8.92398 5.7278 8.90717 5.78641 8.89557 5.8418C9.91167 8.12422 8.44434 11 5.84381 11H4.75494C4.40925 10.9999 4.11573 10.7652 4.03033 10.4424L4.0069 10.2988V10.2959C4.00681 10.2945 4.00603 10.2929 4.00592 10.291C4.0057 10.2872 4.00524 10.2822 4.00494 10.2764C4.00434 10.2648 4.00371 10.2488 4.00299 10.2295C4.00155 10.1906 4.00037 10.1363 4.00006 10.0693C3.99944 9.9353 4.00345 9.74786 4.02057 9.52441C4.0545 9.0815 4.14192 8.47495 4.36529 7.85645C4.58868 7.23799 4.96052 6.57313 5.58209 6.06152C6.08672 5.64618 6.72258 5.35995 7.50201 5.26074C7.52524 5.19194 7.55179 5.12015 7.58502 5.04785C7.69373 4.81137 7.87175 4.54316 8.16022 4.33398C8.45661 4.11907 8.82426 4 9.25006 4ZM7.63971 6.75684C7.14925 6.82792 6.79693 7.00432 6.53522 7.21973C6.18237 7.51019 5.9393 7.91528 5.77643 8.36621C5.63396 8.76074 5.56341 9.16466 5.52936 9.5H5.84381C7.06661 9.5 8.04473 8.12795 7.63971 6.75684ZM15.7501 4C18.0973 4 20.0001 5.90279 20.0001 8.25C20.0001 8.66421 19.6643 9 19.2501 9C18.8358 9 18.5001 8.66421 18.5001 8.25C18.5001 6.73122 17.2688 5.5 15.7501 5.5C15.3358 5.5 15.0001 5.16421 15.0001 4.75C15.0001 4.33579 15.3358 4 15.7501 4Z" fill="black"/>
</svg>
