<svg width="24" height="24" viewBox="0 0 24 24" fill="none" xmlns="http://www.w3.org/2000/svg">
<path fill-rule="evenodd" clip-rule="evenodd" d="M19.1151 4.01307C19.3428 3.97145 19.5772 4.03655 19.7499 4.1908C19.901 4.32593 19.9898 4.51607 19.9989 4.7162L19.9979 4.80213V4.80604C19.9977 4.80813 19.9972 4.81131 19.9969 4.81483C19.9964 4.82266 19.9961 4.83464 19.995 4.84901C19.9928 4.8782 19.9888 4.92136 19.9843 4.97596C19.9751 5.08587 19.9614 5.24573 19.9413 5.44764C19.9009 5.85261 19.8354 6.42958 19.7382 7.12049C19.5439 8.4999 19.2184 10.349 18.6903 12.2055C18.1651 14.0516 17.4254 15.9599 16.3798 17.4213C15.3303 18.8878 13.8965 20.0004 11.9999 20.0004C9.86701 20.0004 7.87646 19.4009 6.4032 18.2084C6.39964 18.2055 6.396 18.2025 6.39246 18.1996C6.22065 18.4301 6.06793 18.641 5.93738 18.8265C5.75699 19.0829 5.61743 19.2902 5.52429 19.432C5.47786 19.5027 5.4428 19.558 5.4198 19.5941C5.40849 19.6119 5.39977 19.6256 5.39441 19.6342C5.39193 19.6381 5.38968 19.6411 5.38855 19.643L5.38757 19.6449C5.16952 19.9968 4.7074 20.1058 4.35535 19.8881C4.00332 19.6701 3.89457 19.208 4.11218 18.8558L4.74988 19.2504C4.14878 18.8783 4.11409 18.8563 4.11218 18.8549L4.11316 18.8539C4.11372 18.853 4.11512 18.8514 4.11609 18.85C4.11804 18.8468 4.12046 18.8418 4.1239 18.8363C4.13099 18.825 4.14194 18.8082 4.15515 18.7875C4.18174 18.7457 4.22107 18.6854 4.27136 18.6088C4.37247 18.4548 4.52039 18.2339 4.71082 17.9633C4.88403 17.7171 5.09297 17.4286 5.33386 17.1107C4.48972 16.0111 3.99996 14.6257 3.99988 13.0004C3.99988 11.2511 5.13185 9.84115 6.56042 8.75233C8.00445 7.65188 9.89604 6.76528 11.7362 6.07362C13.5852 5.37867 15.4281 4.86397 16.8046 4.52381C17.4937 4.35351 18.0688 4.22592 18.4725 4.141C18.6743 4.09856 18.8338 4.0667 18.9432 4.0453C18.9977 4.03463 19.0403 4.02635 19.0692 4.02088C19.0835 4.01819 19.0948 4.01644 19.1024 4.01502C19.1061 4.01434 19.1091 4.01347 19.1112 4.01307H19.1151ZM18.4052 5.6908C18.0621 5.7662 17.6412 5.86192 17.1639 5.97987C15.8217 6.31158 14.0393 6.8095 12.2635 7.47694C10.4789 8.14772 8.74518 8.97439 7.47058 9.94569C6.18084 10.9286 5.49988 11.95 5.49988 13.0004C5.49994 14.1414 5.79526 15.1047 6.30652 15.892C6.31527 15.8816 6.32409 15.8712 6.33289 15.8607C7.69981 14.2395 9.64888 12.2787 11.8993 11.0873C12.2653 10.8938 12.7192 11.0338 12.913 11.3998C13.1063 11.7658 12.9663 12.2198 12.6005 12.4135C10.6012 13.472 8.79976 15.2615 7.47937 16.8275C7.42511 16.8919 7.37266 16.9566 7.32019 17.0199C7.32907 17.0272 7.33763 17.0351 7.34656 17.0424C8.49822 17.9746 10.133 18.5004 11.9999 18.5004C13.2279 18.5004 14.2633 17.8 15.1591 16.5482C16.0585 15.2911 16.741 13.5738 17.2469 11.7953C17.7499 10.0272 18.0652 8.25071 18.2538 6.91151C18.3197 6.44344 18.3676 6.02964 18.4052 5.6908Z" fill="black"/>
</svg>
