<svg width="24" height="24" viewBox="0 0 24 24" fill="none" xmlns="http://www.w3.org/2000/svg">
<path d="M10.25 11C10.6642 11 11 11.3358 11 11.75V13H13V11.75C13 11.3358 13.3358 11 13.75 11H17.25C17.6642 11 18 11.3358 18 11.75V13H18.25C19.2165 13 20 13.7835 20 14.75V18.25C20 19.2165 19.2165 20 18.25 20H5.75C4.7835 20 4 19.2165 4 18.25V14.75C4 13.7835 4.7835 13 5.75 13H6V11.75C6 11.3358 6.33579 11 6.75 11H10.25ZM7.5 13.75C7.5 14.1642 7.16421 14.5 6.75 14.5H5.75C5.61193 14.5 5.5 14.6119 5.5 14.75V18.25C5.5 18.3881 5.61193 18.5 5.75 18.5H18.25C18.3881 18.5 18.5 18.3881 18.5 18.25V14.75C18.5 14.6119 18.3881 14.5 18.25 14.5H17.25C16.8358 14.5 16.5 14.1642 16.5 13.75V12.5H14.5V13.75C14.5 14.1642 14.1642 14.5 13.75 14.5H10.25C9.83579 14.5 9.5 14.1642 9.5 13.75V12.5H7.5V13.75Z" fill="black"/>
</svg>
