<svg width="24" height="24" viewBox="0 0 24 24" fill="none" xmlns="http://www.w3.org/2000/svg">
<path d="M12 4C14.2091 4 16 5.79086 16 8C16 8.0127 15.9997 8.0254 15.999 8.03809L15.541 16.9629C15.523 17.3144 15.6327 17.6613 15.8496 17.9385C16.4344 18.6857 17.5656 18.6857 18.1504 17.9385L18.6592 17.2881C18.9144 16.962 19.3857 16.9042 19.7119 17.1592C20.038 17.4144 20.0958 17.8857 19.8408 18.2119L19.3311 18.8633C18.1457 20.3772 15.8543 20.3772 14.6689 18.8633C14.2292 18.3014 14.0065 17.5992 14.043 16.8867L14.499 7.99023C14.4938 6.61402 13.3775 5.5 12 5.5C10.6193 5.5 9.5 6.61929 9.5 8C9.5 8.83828 9.61042 9.69058 9.72363 10.3418C9.77984 10.6651 9.83616 10.9341 9.87793 11.1211C9.89879 11.2145 9.91595 11.2875 9.92773 11.3359C9.93357 11.3599 9.93751 11.3781 9.94043 11.3896C9.9419 11.3955 9.94369 11.3998 9.94434 11.4023V11.4043C9.95767 11.4555 9.96431 11.5068 9.9668 11.5576C9.98814 11.702 10 11.8497 10 12C10 13.6569 8.65685 15 7 15C5.34315 15 4 13.6569 4 12C4 10.3431 5.34315 9 7 9C7.37271 9 7.72837 9.07109 8.05762 9.19531C8.02257 8.81107 8 8.40659 8 8C8 5.79086 9.79086 4 12 4ZM7 10.5C6.17157 10.5 5.5 11.1716 5.5 12C5.5 12.8284 6.17157 13.5 7 13.5C7.82843 13.5 8.5 12.8284 8.5 12C8.5 11.1716 7.82843 10.5 7 10.5Z" fill="black"/>
</svg>
