<svg width="24" height="24" viewBox="0 0 24 24" fill="none" xmlns="http://www.w3.org/2000/svg">
<path d="M12 4C16.4183 4 20 7.58172 20 12C20 16.4183 16.4183 20 12 20C7.58172 20 4 16.4183 4 12C4 7.58172 7.58172 4 12 4ZM12 5.5C8.41015 5.5 5.5 8.41015 5.5 12C5.5 15.5899 8.41015 18.5 12 18.5C15.5899 18.5 18.5 15.5899 18.5 12C18.5 8.41015 15.5899 5.5 12 5.5ZM14.25 8.25C14.6642 8.25 15 8.58579 15 9C15 9.41421 14.6642 9.75 14.25 9.75H11.75C10.5074 9.75 9.5 10.7574 9.5 12C9.5 13.2426 10.5074 14.25 11.75 14.25H14.25C14.6642 14.25 15 14.5858 15 15C15 15.4142 14.6642 15.75 14.25 15.75H11.75C9.67893 15.75 8 14.0711 8 12C8 9.92893 9.67893 8.25 11.75 8.25H14.25Z" fill="black"/>
</svg>
