<svg width="24" height="24" viewBox="0 0 24 24" fill="none" xmlns="http://www.w3.org/2000/svg">
<path d="M17.1736 16.2695C17.4388 15.9515 17.9121 15.9088 18.2303 16.1738L19.7303 17.4238C19.9012 17.5663 19.9998 17.7775 19.9998 18C19.9998 18.2225 19.9012 18.4337 19.7303 18.5762L18.2303 19.8262C17.9121 20.0912 17.4388 20.0485 17.1736 19.7305C16.9323 19.4408 16.9467 19.0227 17.1912 18.75H6.80841C7.05313 19.0227 7.06747 19.4407 6.82599 19.7305C6.56077 20.0484 6.08746 20.0913 5.76935 19.8262L4.26935 18.5762C4.09855 18.4337 3.99982 18.2224 3.99982 18C3.99982 17.7776 4.09855 17.5663 4.26935 17.4238L5.76935 16.1738C6.08746 15.9087 6.56077 15.9516 6.82599 16.2695C7.06747 16.5593 7.05313 16.9773 6.80841 17.25H17.1912C16.9467 16.9773 16.9323 16.5592 17.1736 16.2695ZM13.7498 4C14.164 4 14.4998 4.33579 14.4998 4.75V8.4043C14.9413 8.14856 15.4529 8.00004 15.9998 8C17.6567 8 18.9998 9.34315 18.9998 11C18.9998 12.6569 17.6567 14 15.9998 14C15.4249 14 14.8897 13.8351 14.4334 13.5547C14.3164 13.8166 14.0552 14 13.7498 14C13.3357 13.9999 12.9998 13.6641 12.9998 13.25V4.75C12.9998 4.33585 13.3357 4.00011 13.7498 4ZM7.99982 4C8.31066 4 8.58897 4.19209 8.70001 4.48242L11.95 12.9824C12.0979 13.3693 11.9043 13.8023 11.5174 13.9502C11.1306 14.0979 10.6975 13.9044 10.5496 13.5176L9.58673 11H6.4129L5.45001 13.5176C5.30207 13.9044 4.86908 14.098 4.48224 13.9502C4.09552 13.8022 3.90185 13.3692 4.04962 12.9824L7.29962 4.48242L7.34845 4.37793C7.48039 4.1468 7.72792 4.00007 7.99982 4ZM15.9998 9.5C15.1715 9.50011 14.4998 10.1716 14.4998 11C14.4998 11.8284 15.1715 12.4999 15.9998 12.5C16.8282 12.5 17.4998 11.8284 17.4998 11C17.4998 10.1716 16.8282 9.5 15.9998 9.5ZM6.98615 9.5H9.01349L7.99982 6.84863L6.98615 9.5Z" fill="black"/>
</svg>
