<svg width="24" height="24" viewBox="0 0 24 24" fill="none" xmlns="http://www.w3.org/2000/svg">
<path d="M12 4C16.4183 4 20 7.58172 20 12C20 16.4183 16.4183 20 12 20C7.58172 20 4 16.4183 4 12C4 7.58172 7.58172 4 12 4ZM12 5.5C8.41015 5.5 5.5 8.41015 5.5 12C5.5 15.5899 8.41015 18.5 12 18.5C15.5899 18.5 18.5 15.5899 18.5 12C18.5 8.41015 15.5899 5.5 12 5.5ZM12 8C12.2841 8 12.5439 8.16095 12.6709 8.41504L15.9209 14.915C16.1058 15.2854 15.9553 15.7357 15.585 15.9209C15.2146 16.1058 14.7643 15.9553 14.5791 15.585L13.7861 14H10.2139L9.4209 15.585C9.23572 15.9553 8.78545 16.1058 8.41504 15.9209C8.04469 15.7357 7.89416 15.2854 8.0791 14.915L11.3291 8.41504C11.4561 8.16095 11.7159 8 12 8ZM10.9639 12.5H13.0361L12 10.4268L10.9639 12.5Z" fill="black"/>
</svg>
