<svg width="24" height="24" viewBox="0 0 24 24" fill="none" xmlns="http://www.w3.org/2000/svg">
<path d="M12 4C16.4183 4 20 7.58172 20 12C20 16.4183 16.4183 20 12 20C7.58172 20 4 16.4183 4 12C4 7.58172 7.58172 4 12 4ZM12 5.5C8.41015 5.5 5.5 8.41015 5.5 12C5.5 15.5899 8.41015 18.5 12 18.5C15.5899 18.5 18.5 15.5899 18.5 12C18.5 8.41015 15.5899 5.5 12 5.5ZM12.625 8C13.9367 8 15 9.06332 15 10.375C15 11.0045 14.7532 11.575 14.3535 12C14.7532 12.425 15 12.9955 15 13.625C15 14.9367 13.9367 16 12.625 16H9.75C9.33579 16 9 15.6642 9 15.25V8.75C9 8.33579 9.33579 8 9.75 8H12.625ZM10.5 14.5H12.625C13.1082 14.5 13.5 14.1082 13.5 13.625C13.5 13.1418 13.1082 12.75 12.625 12.75H10.5V14.5ZM10.5 11.25H12.625C13.1082 11.25 13.5 10.8582 13.5 10.375C13.5 9.89175 13.1082 9.5 12.625 9.5H10.5V11.25Z" fill="black"/>
</svg>
