<svg width="24" height="24" viewBox="0 0 24 24" fill="none" xmlns="http://www.w3.org/2000/svg">
<path d="M19.25 17.5C19.6642 17.5 20 17.8358 20 18.25C20 18.6642 19.6642 19 19.25 19H4.75C4.33579 19 4 18.6642 4 18.25C4 17.8358 4.33579 17.5 4.75 17.5H19.25ZM12 5C14.7614 5 17 7.23858 17 10C17 10.9014 16.7446 11.7602 16.3184 12.5H19.25C19.6642 12.5 20 12.8358 20 13.25C20 13.6642 19.6642 14 19.25 14H14.75C14.7355 14 14.7213 13.9979 14.707 13.9971C14.7025 13.9968 14.6979 13.9974 14.6934 13.9971C14.6535 13.9941 14.615 13.9865 14.5771 13.9775C14.5566 13.9727 14.5368 13.9656 14.5166 13.959C14.4882 13.9496 14.4604 13.9403 14.4336 13.9277C14.4175 13.9202 14.4023 13.911 14.3867 13.9023C14.3601 13.8875 14.3341 13.8724 14.3096 13.8545C14.2811 13.8337 14.2534 13.8114 14.2275 13.7861C14.2216 13.7803 14.2157 13.7745 14.21 13.7686C14.2019 13.7601 14.1933 13.7521 14.1855 13.7432C14.1662 13.7211 14.1481 13.6984 14.1318 13.6748C14.1275 13.6686 14.1242 13.6617 14.1201 13.6553C14.1063 13.6339 14.0954 13.6112 14.084 13.5889C14.0701 13.5616 14.0574 13.5339 14.0469 13.5049C14.0399 13.4856 14.0346 13.466 14.0293 13.4463C14.0209 13.4155 14.0122 13.3847 14.0078 13.3525C14.0071 13.3476 14.0055 13.3428 14.0049 13.3379C14.0015 13.3091 14 13.2797 14 13.25C14 13.2356 14.0011 13.2213 14.002 13.207C14.0022 13.2025 14.0016 13.1979 14.002 13.1934C14.0049 13.1536 14.0125 13.115 14.0215 13.0771C14.0263 13.0566 14.0334 13.0367 14.04 13.0166C14.0494 12.9883 14.0588 12.9603 14.0713 12.9336C14.0782 12.9188 14.0868 12.905 14.0947 12.8906C14.1101 12.8627 14.1258 12.8352 14.1445 12.8096C14.1653 12.7811 14.1877 12.7534 14.2129 12.7275C14.2187 12.7216 14.2245 12.7157 14.2305 12.71C14.2391 12.7017 14.2478 12.6935 14.2568 12.6855C14.9998 12.0368 15.5 11.0432 15.5 10C15.5 8.067 13.933 6.5 12 6.5C10.067 6.5 8.5 8.067 8.5 10C8.5 11.0432 9.00025 12.0368 9.74316 12.6855C9.75206 12.6933 9.76012 12.7019 9.76855 12.71C9.77454 12.7157 9.78034 12.7216 9.78613 12.7275C9.81139 12.7534 9.83368 12.7811 9.85449 12.8096C9.87322 12.8352 9.88889 12.8626 9.9043 12.8906C9.9122 12.905 9.92084 12.9188 9.92773 12.9336C9.94025 12.9604 9.94965 12.9882 9.95898 13.0166C9.9656 13.0368 9.97267 13.0566 9.97754 13.0771C9.9865 13.115 9.99409 13.1535 9.99707 13.1934C9.99741 13.1979 9.99681 13.2025 9.99707 13.207C9.99788 13.2213 10 13.2355 10 13.25C10 13.2798 9.99751 13.309 9.99414 13.3379C9.99356 13.3428 9.99189 13.3476 9.99121 13.3525C9.98679 13.3848 9.9781 13.4155 9.96973 13.4463C9.96436 13.466 9.95916 13.4856 9.95215 13.5049C9.94159 13.534 9.92897 13.5616 9.91504 13.5889C9.90363 13.6112 9.89274 13.6339 9.87891 13.6553C9.87478 13.6617 9.8715 13.6686 9.86719 13.6748C9.85102 13.6982 9.83363 13.7212 9.81445 13.7432C9.80653 13.7522 9.79731 13.76 9.78906 13.7686C9.7833 13.7745 9.77744 13.7803 9.77148 13.7861C9.74558 13.8114 9.71799 13.8337 9.68945 13.8545C9.66516 13.8722 9.63966 13.8876 9.61328 13.9023C9.59739 13.9112 9.58181 13.9201 9.56543 13.9277C9.53864 13.9402 9.51082 13.9497 9.48242 13.959C9.46224 13.9656 9.44247 13.9727 9.42188 13.9775C9.38399 13.9865 9.34552 13.9941 9.30566 13.9971C9.30112 13.9974 9.29654 13.9968 9.29199 13.9971C9.27806 13.9978 9.26412 14 9.25 14H4.75C4.33579 14 4 13.6642 4 13.25C4 12.8358 4.33579 12.5 4.75 12.5H7.68164C7.25542 11.7602 7 10.9014 7 10C7 7.23858 9.23858 5 12 5Z" fill="black"/>
</svg>
