<svg width="24" height="24" viewBox="0 0 24 24" fill="none" xmlns="http://www.w3.org/2000/svg">
<path fill-rule="evenodd" clip-rule="evenodd" d="M5.26053 4.18164C5.57426 3.91157 6.0478 3.94716 6.31815 4.26074L18.8181 18.7607C19.0882 19.0745 19.0526 19.548 18.739 19.8184C18.4253 20.0884 17.9518 20.0529 17.6814 19.7393L14.9998 16.6279V18.25C14.9998 19.217 14.2158 20 13.2498 20H10.7498C9.78377 20 8.99979 19.217 8.99979 18.25V16C8.99978 15.9004 8.95911 15.7625 8.71756 15.4873C8.59824 15.3514 8.45419 15.2083 8.27518 15.0322C8.10204 14.862 7.90093 14.665 7.69901 14.4463C6.85619 13.5332 5.99979 12.2345 5.99979 10C5.99979 9.00112 6.24694 7.96977 6.74002 7.04688L5.18143 5.23926C4.91136 4.92553 4.94694 4.45198 5.26053 4.18164ZM10.4998 18.25C10.4998 18.3876 10.6113 18.5 10.7498 18.5H13.2498C13.3883 18.5 13.4998 18.3876 13.4998 18.25V17.5H10.4998V18.25ZM7.81619 8.29492C7.60659 8.84629 7.49979 9.43092 7.49979 10C7.49979 11.7653 8.14346 12.7168 8.80057 13.4287C8.97343 13.616 9.14775 13.7867 9.32596 13.9619C9.49823 14.1313 9.68273 14.3128 9.84451 14.4971C10.1653 14.8624 10.4998 15.3496 10.4998 16H13.4998C13.4998 15.6746 13.5862 15.3883 13.7127 15.1357L7.81619 8.29492ZM11.9998 4C16.0049 4 17.9998 7.18299 17.9998 10C17.9998 11.4687 17.6298 12.5486 17.1131 13.3896C16.8962 13.7426 16.4338 13.8526 16.0808 13.6357C15.7282 13.4188 15.618 12.9573 15.8347 12.6045C16.205 12.0019 16.4998 11.1943 16.4998 10C16.4998 7.81701 14.9946 5.5 11.9998 5.5C11.2432 5.5 10.5965 5.64506 10.0515 5.88477C9.67251 6.05127 9.23004 5.87893 9.06326 5.5C8.89651 5.12085 9.06888 4.67848 9.44803 4.51172C10.1945 4.18339 11.0479 4 11.9998 4Z" fill="black"/>
</svg>
