<svg width="24" height="24" viewBox="0 0 24 24" fill="none" xmlns="http://www.w3.org/2000/svg">
<path d="M12 17C12.4142 17 12.75 17.3358 12.75 17.75V19.25C12.75 19.6642 12.4142 20 12 20C11.5858 20 11.25 19.6642 11.25 19.25V17.75C11.25 17.3358 11.5858 17 12 17ZM7.53809 17.5127C7.66907 17.1197 8.09435 16.9071 8.4873 17.0381C8.88026 17.1691 9.0929 17.5943 8.96191 17.9873L8.46191 19.4873C8.33093 19.8803 7.90565 20.0929 7.5127 19.9619C7.11974 19.8309 6.9071 19.4057 7.03809 19.0127L7.53809 17.5127ZM15.5127 17.0381C15.9057 16.9071 16.3309 17.1197 16.4619 17.5127L16.9619 19.0127C17.0929 19.4057 16.8803 19.8309 16.4873 19.9619C16.0943 20.0929 15.6691 19.8803 15.5381 19.4873L15.0381 17.9873C14.9071 17.5943 15.1197 17.1691 15.5127 17.0381ZM12 4C12.4142 4 12.75 4.33579 12.75 4.75V8.02344C15.2763 8.17466 17.0694 9.09243 18.2471 10.4141C19.5216 11.8445 20 13.6616 20 15.25C20 15.6642 19.6642 16 19.25 16H4.75C4.33579 16 4 15.6642 4 15.25C4 13.6616 4.47837 11.8445 5.75293 10.4141C6.93056 9.09245 8.72367 8.1747 11.25 8.02344V4.75C11.25 4.33579 11.5858 4 12 4ZM12 9.5C9.42552 9.50003 7.83107 10.3358 6.87207 11.4121C6.08043 12.3008 5.66946 13.4119 5.54297 14.5H18.457C18.3305 13.4117 17.9198 12.2999 17.1279 11.4111C16.1689 10.3349 14.5744 9.49997 12 9.5Z" fill="black"/>
</svg>
