<svg width="24" height="24" viewBox="0 0 24 24" fill="none" xmlns="http://www.w3.org/2000/svg">
<path d="M17.25 4C18.7688 4 20 5.23122 20 6.75V17.25C20 18.7688 18.7688 20 17.25 20H6.75C5.23122 20 4 18.7688 4 17.25V6.75C4 5.23122 5.23122 4 6.75 4H17.25ZM6.75 5.5C6.05964 5.5 5.5 6.05964 5.5 6.75V17.25C5.5 17.9404 6.05964 18.5 6.75 18.5H17.25C17.9404 18.5 18.5 17.9404 18.5 17.25V6.75C18.5 6.05964 17.9404 5.5 17.25 5.5H6.75ZM13.25 8C14.2165 8 15 8.7835 15 9.75V14.25C15 15.2165 14.2165 16 13.25 16H10.75C9.7835 16 9 15.2165 9 14.25V9.75C9 8.7835 9.7835 8 10.75 8H13.25ZM10.75 9.5C10.6119 9.5 10.5 9.61193 10.5 9.75V14.25C10.5 14.3881 10.6119 14.5 10.75 14.5H13.25C13.3881 14.5 13.5 14.3881 13.5 14.25V9.75C13.5 9.61193 13.3881 9.5 13.25 9.5H10.75ZM12.0098 12.25C12.424 12.25 12.7598 12.5858 12.7598 13C12.7598 13.4142 12.424 13.75 12.0098 13.75H12C11.5858 13.75 11.25 13.4142 11.25 13C11.25 12.5858 11.5858 12.25 12 12.25H12.0098Z" fill="black"/>
</svg>
