<svg width="24" height="24" viewBox="0 0 24 24" fill="none" xmlns="http://www.w3.org/2000/svg">
<path d="M12 4C16.0052 4 18 7.18299 18 10C18 12.2346 17.1436 13.5332 16.3008 14.4463C16.0989 14.665 15.8978 14.862 15.7246 15.0322C15.5456 15.2083 15.4016 15.3514 15.2822 15.4873C15.0407 15.7625 15 15.9004 15 16V18.25C15 19.217 14.216 20 13.25 20H10.75C9.78397 20 9 19.217 9 18.25V16C9 15.9004 8.95934 15.7625 8.71777 15.4873C8.59845 15.3514 8.45441 15.2083 8.27539 15.0322C8.10225 14.862 7.90115 14.665 7.69922 14.4463C6.8564 13.5332 6 12.2346 6 10C6 7.18299 7.99485 4 12 4ZM10.5 17.5V18.25C10.5 18.3876 10.6115 18.5 10.75 18.5H13.25C13.3885 18.5 13.5 18.3876 13.5 18.25V17.5H10.5ZM12 5.5C9.00515 5.5 7.5 7.81701 7.5 10C7.5 11.7653 8.14367 12.7168 8.80078 13.4287C8.97365 13.616 9.14796 13.7867 9.32617 13.9619C9.49845 14.1313 9.68294 14.3128 9.84473 14.4971C10.1655 14.8624 10.5 15.3496 10.5 16H13.5C13.5 15.3496 13.8345 14.8624 14.1553 14.4971C14.3171 14.3128 14.5015 14.1313 14.6738 13.9619C14.852 13.7867 15.0264 13.616 15.1992 13.4287C15.8563 12.7168 16.5 11.7653 16.5 10C16.5 7.81701 14.9948 5.5 12 5.5Z" fill="black"/>
</svg>
