<svg width="24" height="24" viewBox="0 0 24 24" fill="none" xmlns="http://www.w3.org/2000/svg">
<path d="M11.5605 12.4541C11.7238 12.0736 12.1653 11.8974 12.5459 12.0605C12.9264 12.2238 13.1026 12.6653 12.9395 13.0459L11.8877 15.5H13.25C13.5098 15.5 13.751 15.6345 13.8877 15.8555C14.0243 16.0765 14.0369 16.3526 13.9209 16.585L12.4209 19.585C12.2357 19.9553 11.7854 20.1058 11.415 19.9209C11.0447 19.7357 10.8942 19.2854 11.0791 18.915L12.0361 17H10.75C10.498 17 10.2628 16.8734 10.124 16.6631C9.98524 16.4526 9.96124 16.1858 10.0605 15.9541L11.5605 12.4541ZM12 4C14.4564 4 16.4974 5.77124 16.9189 8.10645C18.6854 8.52187 20 10.107 20 12C20 13.069 19.6291 14.0461 19.0557 14.7656C18.4907 15.4745 17.6682 16 16.75 16C16.3358 16 16 15.6642 16 15.25C16 14.8358 16.3358 14.5 16.75 14.5C17.0817 14.5 17.5094 14.2981 17.8818 13.8311C18.2458 13.3744 18.5 12.7259 18.5 12C18.5 10.6826 17.4801 9.60249 16.1875 9.50684C15.812 9.47883 15.5152 9.17676 15.4941 8.80078C15.3912 6.96083 13.8661 5.5 12 5.5C10.1339 5.5 8.60876 6.96083 8.50586 8.80078C8.48484 9.17676 8.18798 9.47883 7.8125 9.50684C6.51995 9.60249 5.5 10.6826 5.5 12C5.5 12.7259 5.75417 13.3744 6.11816 13.8311C6.4906 14.2981 6.91833 14.5 7.25 14.5C7.66421 14.5 8 14.8358 8 15.25C8 15.6642 7.66421 16 7.25 16C6.33178 16 5.50931 15.4745 4.94434 14.7656C4.3709 14.0461 4 13.069 4 12C4 10.1073 5.31411 8.52221 7.08008 8.10645C7.50158 5.77115 9.54355 4 12 4Z" fill="black"/>
</svg>
