<svg width="24" height="24" viewBox="0 0 24 24" fill="none" xmlns="http://www.w3.org/2000/svg">
<path fill-rule="evenodd" clip-rule="evenodd" d="M8.00016 4C8.21275 4 8.41555 4.09005 8.55778 4.24805L10.8078 6.74805C11.0849 7.05591 11.0599 7.53052 10.7521 7.80762C10.4443 8.08469 9.96965 8.05978 9.69255 7.75195L8.75016 6.7041V17.2939L9.69255 16.248C9.96965 15.9402 10.4443 15.9153 10.7521 16.1924C11.0599 16.4695 11.0849 16.9441 10.8078 17.252L8.55778 19.752C8.41555 19.91 8.21275 20 8.00016 20C7.78757 20 7.58477 19.91 7.44255 19.752L5.19255 17.252C4.91547 16.9441 4.94038 16.4695 5.24821 16.1924C5.55607 15.9153 6.03068 15.9402 6.30778 16.248L7.25016 17.2939V6.7041L6.30778 7.75195C6.03068 8.05978 5.55607 8.08469 5.24821 7.80762C4.94038 7.53052 4.91547 7.05591 5.19255 6.74805L7.44255 4.24805L7.49919 4.19238C7.63614 4.06933 7.8142 4 8.00016 4ZM19.2502 16.5C19.6644 16.5 20.0002 16.8358 20.0002 17.25C20.0002 17.6642 19.6644 18 19.2502 18H13.7502C13.336 18 13.0002 17.6642 13.0002 17.25C13.0002 16.8358 13.336 16.5 13.7502 16.5H19.2502ZM19.2502 11.25C19.6644 11.25 20.0002 11.5858 20.0002 12C20.0002 12.4142 19.6644 12.75 19.2502 12.75H13.7502C13.336 12.75 13.0002 12.4142 13.0002 12C13.0002 11.5858 13.336 11.25 13.7502 11.25H19.2502ZM19.2502 6C19.6644 6 20.0002 6.33579 20.0002 6.75C20.0002 7.16421 19.6644 7.5 19.2502 7.5H13.7502C13.336 7.5 13.0002 7.16421 13.0002 6.75C13.0002 6.33579 13.336 6 13.7502 6H19.2502Z" fill="black"/>
</svg>
