<svg width="24" height="24" viewBox="0 0 24 24" fill="none" xmlns="http://www.w3.org/2000/svg">
<path d="M13.75 10.5H11.5C9.29086 10.5 7.5 12.2909 7.5 14.5C7.5 16.7091 9.29086 18.5 11.5 18.5H15C16.933 18.5 18.5 16.933 18.5 15V13H20V15C20 17.7614 17.7614 20 15 20H11.5C8.46243 20 6 17.5376 6 14.5C6 11.4624 8.46243 9 11.5 9H13.75V10.5ZM12.5 4C15.5376 4 18 6.46243 18 9.5C18 12.5376 15.5376 15 12.5 15H10.25V13.5H12.5C14.7091 13.5 16.5 11.7091 16.5 9.5C16.5 7.29086 14.7091 5.5 12.5 5.5H9C7.067 5.5 5.5 7.067 5.5 9V11H4V9C4 6.23858 6.23858 4 9 4H12.5Z" fill="black"/>
</svg>
