<svg width="24" height="24" viewBox="0 0 24 24" fill="none" xmlns="http://www.w3.org/2000/svg">
<path d="M16.25 4C18.3211 4 20 5.67893 20 7.75V16.25C20 18.3211 18.3211 20 16.25 20H7.75C5.67893 20 4 18.3211 4 16.25V7.75C4 5.67893 5.67893 4 7.75 4H16.25ZM7.75 5.5C6.50736 5.5 5.5 6.50736 5.5 7.75V16.25C5.5 17.4926 6.50736 18.5 7.75 18.5H16.25C17.4926 18.5 18.5 17.4926 18.5 16.25V7.75C18.5 6.50736 17.4926 5.5 16.25 5.5H7.75ZM7.75 11C8.16421 11 8.5 11.3358 8.5 11.75V16.25C8.5 16.6642 8.16421 17 7.75 17C7.33579 17 7 16.6642 7 16.25V11.75C7 11.3358 7.33579 11 7.75 11ZM13 11C14.6569 11 16 12.3431 16 14V16.25C16 16.6642 15.6642 17 15.25 17C14.8358 17 14.5 16.6642 14.5 16.25V14C14.5 13.1716 13.8284 12.5 13 12.5C12.1716 12.5 11.5 13.1716 11.5 14V16.25C11.5 16.6642 11.1642 17 10.75 17C10.3358 17 10 16.6642 10 16.25V11.75C10 11.3358 10.3358 11 10.75 11C11.0551 11 11.3165 11.1828 11.4336 11.4443C11.8899 11.1641 12.4253 11 13 11ZM7.75 8C8.16421 8 8.5 8.33579 8.5 8.75V9.25C8.5 9.66421 8.16421 10 7.75 10C7.33579 10 7 9.66421 7 9.25V8.75C7 8.33579 7.33579 8 7.75 8Z" fill="black"/>
</svg>
