<svg width="24" height="24" viewBox="0 0 24 24" fill="none" xmlns="http://www.w3.org/2000/svg">
<path fill-rule="evenodd" clip-rule="evenodd" d="M6.71929 10.2193C7.01213 9.9267 7.48798 9.9267 7.78082 10.2193C8.07329 10.512 8.07313 10.987 7.78082 11.2798L6.53082 12.5298C5.16693 13.8937 5.16709 16.1053 6.53082 17.4693C7.89472 18.8329 10.1054 18.8329 11.4693 17.4693L12.7193 16.2193C13.0121 15.9267 13.488 15.9267 13.7808 16.2193C14.0733 16.512 14.0731 16.987 13.7808 17.2798L12.5308 18.5298C10.5811 20.4796 7.41904 20.4796 5.46929 18.5298C3.52008 16.5801 3.51992 13.4189 5.46929 11.4693L6.71929 10.2193ZM13.7203 9.21929C14.0132 8.92687 14.4881 8.92655 14.7808 9.21929C15.0735 9.51202 15.0732 9.98691 14.7808 10.2798L10.2808 14.7798C9.98793 15.0727 9.51316 15.0727 9.22027 14.7798C8.92738 14.4869 8.92738 14.0122 9.22027 13.7193L13.7203 9.21929ZM11.4703 5.46929C13.42 3.52008 16.5812 3.51992 18.5308 5.46929C20.4802 7.41897 20.4802 10.5811 18.5308 12.5308L17.2808 13.7808C16.9881 14.0733 16.5131 14.0731 16.2203 13.7808C15.9274 13.4879 15.9274 13.0122 16.2203 12.7193L17.4703 11.4693C18.8336 10.1055 18.8336 7.89465 17.4703 6.53081C16.1064 5.16693 13.8948 5.16709 12.5308 6.53081L11.2808 7.78081C10.9881 8.07327 10.5131 8.07311 10.2203 7.78081C9.92738 7.48792 9.92738 7.01218 10.2203 6.71929L11.4703 5.46929Z" fill="black"/>
</svg>
