<svg width="24" height="24" viewBox="0 0 24 24" fill="none" xmlns="http://www.w3.org/2000/svg">
<path d="M15.75 17C16.1642 17 16.5 17.3358 16.5 17.75V19.25C16.5 19.6642 16.1642 20 15.75 20C15.3358 20 15 19.6642 15 19.25V17.75C15 17.3358 15.3358 17 15.75 17ZM5.71973 11.2197C6.01264 10.9271 6.48844 10.9269 6.78125 11.2197C7.07347 11.5125 7.07347 11.9875 6.78125 12.2803L6.53125 12.5303C5.16729 13.8942 5.16729 16.1058 6.53125 17.4697C7.89518 18.8331 10.1059 18.8333 11.4697 17.4697L11.7197 17.2197C12.0126 16.9271 12.4884 16.9269 12.7812 17.2197C13.0735 17.5125 13.0735 17.9875 12.7812 18.2803L12.5312 18.5303C10.5816 20.4799 7.41949 20.4798 5.46973 18.5303C3.52028 16.5806 3.52028 13.4194 5.46973 11.4697L5.71973 11.2197ZM19.25 15C19.6642 15 20 15.3358 20 15.75C20 16.1642 19.6642 16.5 19.25 16.5H17.75C17.3358 16.5 17 16.1642 17 15.75C17 15.3358 17.3358 15 17.75 15H19.25ZM11.4697 5.46973C13.4194 3.52028 16.5806 3.52028 18.5303 5.46973C20.4798 7.41949 20.4799 10.5816 18.5303 12.5312L18.2803 12.7812C17.9875 13.0735 17.5125 13.0735 17.2197 12.7812C16.9269 12.4884 16.9271 12.0126 17.2197 11.7197L17.4697 11.4697C18.8333 10.1059 18.8331 7.89517 17.4697 6.53125C16.1058 5.16729 13.8942 5.16729 12.5303 6.53125L12.2803 6.78125C11.9875 7.07349 11.5125 7.07349 11.2197 6.78125C10.9269 6.48843 10.9271 6.01264 11.2197 5.71973L11.4697 5.46973ZM6.25 7.5C6.66421 7.5 7 7.83579 7 8.25C7 8.66421 6.66421 9 6.25 9H4.75C4.33579 9 4 8.66421 4 8.25C4 7.83579 4.33579 7.5 4.75 7.5H6.25ZM8.25 4C8.66421 4 9 4.33579 9 4.75V6.25C9 6.66421 8.66421 7 8.25 7C7.83579 7 7.5 6.66421 7.5 6.25V4.75C7.5 4.33579 7.83579 4 8.25 4Z" fill="black"/>
</svg>
