<svg width="24" height="24" viewBox="0 0 24 24" fill="none" xmlns="http://www.w3.org/2000/svg">
<path fill-rule="evenodd" clip-rule="evenodd" d="M7.83594 5.12468C8.18117 4.896 8.64619 4.99046 8.875 5.33562C9.10372 5.68086 9.00926 6.14586 8.66406 6.37468C6.88244 7.55549 5.50006 9.76259 5.5 11.9997C5.5 14.2368 6.88242 16.4438 8.66406 17.6247C9.00927 17.8535 9.10367 18.3185 8.875 18.6637C8.6462 19.009 8.1812 19.1034 7.83594 18.8747C5.70058 17.4595 4 14.8137 4 11.9997C4.00006 9.18567 5.70058 6.53987 7.83594 5.12468ZM15.125 5.33562C15.3538 4.99044 15.8188 4.89599 16.1641 5.12468C18.2994 6.53988 20 9.18566 20 11.9997C20 14.8137 18.2994 17.4595 16.1641 18.8747C15.8188 19.1034 15.3538 19.009 15.125 18.6637C14.8963 18.3185 14.9907 17.8535 15.3359 17.6247C17.1176 16.4438 18.5 14.2368 18.5 11.9997C18.5 9.76257 17.1176 7.5555 15.3359 6.37468C14.9907 6.14587 14.8963 5.68086 15.125 5.33562ZM8.7207 8.21843C9.01409 7.92618 9.4889 7.92708 9.78125 8.22038C10.0736 8.51377 10.0726 8.98856 9.7793 9.28093C9.09788 9.96004 8.50006 11.0844 8.5 11.9997C8.5 12.915 9.09786 14.0393 9.7793 14.7184C10.0727 15.0108 10.0735 15.4856 9.78125 15.779C9.48888 16.0724 9.0141 16.0733 8.7207 15.7809C7.8579 14.9211 7 13.4368 7 11.9997C7.00005 10.5626 7.8579 9.07827 8.7207 8.21843ZM14.2188 8.22038C14.5111 7.92706 14.9859 7.92616 15.2793 8.21843C16.1421 9.07828 17 10.5626 17 11.9997C17 13.4368 16.1421 14.9211 15.2793 15.7809C14.9859 16.0733 14.5111 16.0724 14.2188 15.779C13.9265 15.4856 13.9273 15.0108 14.2207 14.7184C14.9021 14.0393 15.5 12.915 15.5 11.9997C15.5 11.0844 14.9021 9.96005 14.2207 9.28093C13.9274 8.98856 13.9264 8.51377 14.2188 8.22038ZM12 10.9997C12.5522 10.9997 12.9999 11.4474 13 11.9997C13 12.552 12.5523 12.9997 12 12.9997C11.4477 12.9997 11 12.552 11 11.9997C11.0001 11.4474 11.4478 10.9997 12 10.9997Z" fill="black"/>
</svg>
