<svg width="24" height="24" viewBox="0 0 24 24" fill="none" xmlns="http://www.w3.org/2000/svg">
<path d="M12.7502 20H11.2502V16H12.7502V20ZM9.70142 15.3584L9.17114 15.8896L6.87329 18.1875L5.81274 17.127L6.34302 16.5967L8.1106 14.8281L8.64087 14.2979L9.70142 15.3584ZM18.1868 17.126L17.1262 18.1865L14.2981 15.3584L15.3586 14.2979L18.1868 17.126ZM8.00024 12.75H4.00024V11.25H8.00024V12.75ZM19.9993 12.75H16.9993V11.25H19.9993V12.75ZM9.17114 8.11133L9.70239 8.6416L8.64087 9.70215L5.81274 6.87402L6.87329 5.81348L9.17114 8.11133ZM18.1868 6.87305L17.6565 7.4043L16.0002 9.06055L14.9397 8L16.5959 6.34375L17.1262 5.8125L18.1868 6.87305ZM12.7502 7H11.2502V4H12.7502V7Z" fill="black"/>
</svg>
