<svg width="24" height="24" viewBox="0 0 24 24" fill="none" xmlns="http://www.w3.org/2000/svg">
<path fill-rule="evenodd" clip-rule="evenodd" d="M18.9238 4.07416C19.2073 3.93732 19.5465 3.99268 19.7725 4.21186C19.9983 4.43139 20.0632 4.76913 19.9346 5.05658L13.4346 19.5566C13.3171 19.8187 13.0596 19.9912 12.7725 19.9999C12.4856 20.0085 12.2191 19.8519 12.0859 19.5976L9.45996 14.5839L4.4541 12.4394C4.18429 12.3235 4.00658 12.0602 4 11.7665C3.9936 11.4729 4.15931 11.2019 4.42382 11.0742L18.9238 4.07416ZM6.55957 11.7089L10.2959 13.3105L10.4092 13.371C10.5163 13.4407 10.6041 13.5379 10.6641 13.6523L12.6963 17.5331L17.7236 6.31928L6.55957 11.7089Z" fill="black"/>
</svg>
