<svg width="24" height="24" viewBox="0 0 24 24" fill="none" xmlns="http://www.w3.org/2000/svg">
<path d="M12 4C13.8088 4 15.0145 4.60567 15.79 5.40039C16.4871 6.11464 16.777 7.00294 16.9023 7.8584C17.007 8.57248 17.0022 9.3303 16.999 10H17.25C18.2165 10 19 10.7835 19 11.75V17.25C19 18.7688 17.7688 20 16.25 20H7.75C6.23122 20 5 18.7688 5 17.25V11.75C5 10.7835 5.7835 10 6.75 10H7.00098C6.99785 9.3303 6.99304 8.57248 7.09766 7.8584C7.22301 7.00296 7.51299 6.11463 8.20996 5.40039C8.9855 4.60568 10.1912 4.00002 12 4ZM6.75 11.5C6.61193 11.5 6.5 11.6119 6.5 11.75V17.25C6.5 17.9404 7.05964 18.5 7.75 18.5H16.25C16.9404 18.5 17.5 17.9404 17.5 17.25V11.75C17.5 11.6119 17.3881 11.5 17.25 11.5H6.75ZM12 5.5C10.5581 5.50002 9.75133 5.96766 9.2832 6.44727C8.88989 6.8503 8.68135 7.39106 8.58105 8.0752C8.49293 8.67657 8.49823 9.31552 8.50098 10H15.499C15.5018 9.31552 15.5071 8.67657 15.4189 8.0752C15.3187 7.39107 15.1101 6.85029 14.7168 6.44727C14.2487 5.96768 13.4419 5.5 12 5.5Z" fill="black"/>
</svg>
