<svg width="24" height="24" viewBox="0 0 24 24" fill="none" xmlns="http://www.w3.org/2000/svg">
<path d="M12 4C13.1916 4.00007 14.1477 4.44711 14.791 4.87598C15.1139 5.09125 15.3659 5.3067 15.5391 5.4707C15.6259 5.55294 15.6942 5.62316 15.7422 5.6748C15.7661 5.70054 15.7848 5.7223 15.7988 5.73828L15.8223 5.76562L15.8252 5.76855V5.76953C15.8214 5.77304 15.7761 5.81161 15.25 6.25L15.8262 5.76953C16.0913 6.08774 16.0477 6.561 15.7295 6.82617C15.4311 7.07452 14.9971 7.05219 14.7256 6.78613L14.6738 6.73047C14.6733 6.72974 14.6727 6.72849 14.6719 6.72754C14.6666 6.72158 14.6564 6.71118 14.6426 6.69629C14.6144 6.66599 14.5691 6.61859 14.5078 6.56055C14.3842 6.44341 14.1981 6.28348 13.959 6.12402C13.4774 5.80303 12.8079 5.50007 12 5.5C10.2902 5.50006 9.45965 6.15763 9.03027 6.74707C8.76903 7.10582 8.62843 7.54739 8.55957 8.08203C8.48917 8.62873 8.5 9.20478 8.5 9.84375V10H17.25C18.2165 10 19 10.7835 19 11.75V17.25C19 18.7688 17.7688 20 16.25 20H7.75C6.23122 20 5 18.7688 5 17.25V11.75C5 10.7835 5.7835 10 6.75 10H7V9.84375C7 9.25429 6.98545 8.5573 7.07129 7.89062C7.15868 7.21201 7.35558 6.49845 7.81738 5.86426C8.53694 4.87626 9.82399 4.00007 12 4ZM6.75 11.5C6.61193 11.5 6.5 11.6119 6.5 11.75V17.25C6.5 17.9404 7.05964 18.5 7.75 18.5H16.25C16.9404 18.5 17.5 17.9404 17.5 17.25V11.75C17.5 11.6119 17.3881 11.5 17.25 11.5H6.75Z" fill="black"/>
</svg>
