<svg width="24" height="24" viewBox="0 0 24 24" fill="none" xmlns="http://www.w3.org/2000/svg">
<path d="M15.25 4C15.6642 4 16 4.33579 16 4.75C16 5.16421 15.6642 5.5 15.25 5.5H6.75C6.05964 5.5 5.5 6.05964 5.5 6.75V17.25C5.5 17.9404 6.05964 18.5 6.75 18.5H15.25C15.6642 18.5 16 18.8358 16 19.25C16 19.6642 15.6642 20 15.25 20H6.75C5.23122 20 4 18.7688 4 17.25V6.75C4 5.23122 5.23122 4 6.75 4H15.25ZM15.2002 8.23926C15.4821 7.93583 15.9572 7.91838 16.2607 8.2002L19.7607 11.4502C19.9135 11.5921 20 11.7915 20 12C20 12.2085 19.9135 12.4079 19.7607 12.5498L16.2607 15.7998C15.9572 16.0816 15.4821 16.0642 15.2002 15.7607C14.9184 15.4572 14.9358 14.9821 15.2393 14.7002L17.3389 12.75H10.75C10.3358 12.75 10 12.4142 10 12C10 11.5858 10.3358 11.25 10.75 11.25H17.3389L15.2393 9.2998C14.9358 9.01794 14.9184 8.54275 15.2002 8.23926Z" fill="black"/>
</svg>
