<svg width="24" height="24" viewBox="0 0 24 24" fill="none" xmlns="http://www.w3.org/2000/svg">
<path d="M17.25 4C18.7688 4 20 5.23122 20 6.75V17.25C20 18.7688 18.7688 20 17.25 20H9.75C9.33579 20 9 19.6642 9 19.25C9 18.8358 9.33579 18.5 9.75 18.5H17.25C17.9404 18.5 18.5 17.9404 18.5 17.25V6.75C18.5 6.05964 17.9404 5.5 17.25 5.5H9.75C9.33579 5.5 9 5.16421 9 4.75C9 4.33579 9.33579 4 9.75 4H17.25ZM9.2002 8.23926C9.48206 7.93583 9.95725 7.91838 10.2607 8.2002L13.7607 11.4502C13.9135 11.5921 14 11.7915 14 12C14 12.2085 13.9135 12.4079 13.7607 12.5498L10.2607 15.7998C9.95725 16.0816 9.48206 16.0642 9.2002 15.7607C8.91838 15.4572 8.93583 14.9821 9.23926 14.7002L11.3389 12.75H4.75C4.33579 12.75 4 12.4142 4 12C4 11.5858 4.33579 11.25 4.75 11.25H11.3389L9.23926 9.2998C8.93583 9.01794 8.91838 8.54275 9.2002 8.23926Z" fill="black"/>
</svg>
