<svg width="24" height="24" viewBox="0 0 24 24" fill="none" xmlns="http://www.w3.org/2000/svg">
<path fill-rule="evenodd" clip-rule="evenodd" d="M9.99993 16.0003C12.02 16.0003 13.4847 16.6905 14.4462 17.3948C14.924 17.7448 15.2756 18.0969 15.5107 18.3655C15.6282 18.4999 15.7175 18.6146 15.7792 18.6985C15.81 18.7404 15.8341 18.7754 15.8515 18.8011C15.8601 18.8137 15.8676 18.8241 15.873 18.8323C15.8755 18.8362 15.878 18.8402 15.8798 18.8431C15.8807 18.8444 15.8821 18.8459 15.8827 18.847L15.8837 18.8489V18.8499C15.8796 18.8529 15.8341 18.8823 15.3447 19.1907L15.8847 18.8509C16.105 19.2013 15.9996 19.6644 15.6493 19.885C15.2991 20.1053 14.836 20.0005 14.6152 19.6507C14.6142 19.649 14.6131 19.6466 14.6113 19.6438C14.6039 19.633 14.5904 19.6133 14.5712 19.5872C14.5325 19.5345 14.4691 19.4536 14.3818 19.3538C14.2067 19.1537 13.9346 18.8806 13.5595 18.6058C12.8148 18.0602 11.6547 17.5003 9.99993 17.5003C8.34517 17.5003 7.18508 18.0602 6.44036 18.6058C6.06526 18.8806 5.79316 19.1537 5.6181 19.3538C5.53084 19.4535 5.46738 19.5345 5.42865 19.5872C5.4095 19.6133 5.39597 19.633 5.38861 19.6438C5.38528 19.6488 5.38353 19.6524 5.38275 19.6536V19.6526L5.38372 19.6517V19.6507C5.16277 20.0002 4.70059 20.1053 4.35052 19.885C4.00025 19.6644 3.89486 19.2013 4.11517 18.8509L4.65521 19.1907C4.16346 18.8809 4.11986 18.8527 4.11615 18.8499V18.8489L4.11712 18.847C4.11779 18.8459 4.11917 18.8444 4.12005 18.8431C4.12188 18.8402 4.12433 18.8362 4.12689 18.8323C4.13226 18.8241 4.13982 18.8136 4.14837 18.8011C4.16579 18.7754 4.18985 18.7404 4.22064 18.6985C4.28233 18.6146 4.37165 18.4999 4.48919 18.3655C4.72423 18.0969 5.07594 17.7448 5.55365 17.3948C6.51517 16.6905 7.97992 16.0003 9.99993 16.0003ZM9.99993 9.00028C11.6568 9.00028 12.9999 10.3434 12.9999 12.0003C12.9998 13.657 11.6567 15.0003 9.99993 15.0003C8.3432 15.0003 7.00009 13.657 6.99993 12.0003C6.99993 10.3434 8.3431 9.00031 9.99993 9.00028ZM9.99993 10.5003C9.17153 10.5003 8.49993 11.1719 8.49993 12.0003C8.50009 12.8286 9.17163 13.5003 9.99993 13.5003C10.8283 13.5003 11.4998 12.8286 11.4999 12.0003C11.4999 11.1719 10.8284 10.5003 9.99993 10.5003ZM15.58 4.02177C15.9132 4.07001 16.2222 4.1999 16.497 4.38603C16.771 4.20032 17.0798 4.07138 17.413 4.02372C18.0328 3.93512 18.6565 4.13305 19.162 4.59989C20.1542 5.51627 20.2559 7.03912 19.5126 8.10185C19.4928 8.13012 19.4707 8.15763 19.4472 8.1829L17.0468 10.761C16.9049 10.9133 16.7061 11.0003 16.498 11.0003C16.2898 11.0003 16.091 10.9133 15.9492 10.761L13.5488 8.1829C13.5252 8.1576 13.5032 8.13016 13.4833 8.10185C12.7344 7.03098 12.8623 5.52195 13.8261 4.60673C14.3297 4.12863 14.9587 3.93189 15.58 4.02177ZM15.3652 5.50614C15.2184 5.48491 15.0445 5.51886 14.8593 5.69462C14.4552 6.07843 14.3829 6.73437 14.6904 7.20829L16.498 9.1497L18.3046 7.20731C18.6176 6.72574 18.5443 6.07079 18.1445 5.70146C17.9494 5.5214 17.7702 5.4883 17.6249 5.50907C17.4651 5.5321 17.2673 5.63394 17.0927 5.86064C16.9507 6.04494 16.7306 6.15263 16.498 6.15263C16.2653 6.1526 16.0452 6.04494 15.9033 5.86064C15.729 5.63434 15.528 5.52974 15.3652 5.50614Z" fill="black"/>
</svg>
