<svg width="24" height="24" viewBox="0 0 24 24" fill="none" xmlns="http://www.w3.org/2000/svg">
<path d="M12.25 5C13.7688 5 15 6.23122 15 7.75V8H16.25C17.2165 8 18 8.7835 18 9.75V15.0498C19.1411 15.2814 20 16.2905 20 17.5C20 18.8807 18.8807 20 17.5 20H6.5C5.11929 20 4 18.8807 4 17.5C4 16.2905 4.85886 15.2814 6 15.0498V9.75C6 8.7835 6.7835 8 7.75 8H9V7.75C9 6.23122 10.2312 5 11.75 5H12.25ZM6.5 16.5C5.94772 16.5 5.5 16.9477 5.5 17.5C5.5 18.0523 5.94772 18.5 6.5 18.5H17.5C18.0523 18.5 18.5 18.0523 18.5 17.5C18.5 16.9477 18.0523 16.5 17.5 16.5H6.5ZM7.75 9.5C7.61193 9.5 7.5 9.61193 7.5 9.75V15H16.5V9.75C16.5 9.61193 16.3881 9.5 16.25 9.5H7.75ZM11.75 6.5C11.0596 6.5 10.5 7.05964 10.5 7.75V8H13.5V7.75C13.5 7.05964 12.9404 6.5 12.25 6.5H11.75Z" fill="black"/>
</svg>
