<svg width="24" height="24" viewBox="0 0 24 24" fill="none" xmlns="http://www.w3.org/2000/svg">
<path fill-rule="evenodd" clip-rule="evenodd" d="M11.9992 4C12.4134 4 12.7492 4.33579 12.7492 4.75C12.7492 8.66996 13.4247 10.5659 13.9992 11.459V6.75C13.9992 6.45191 14.1763 6.18186 14.4494 6.0625C14.7224 5.94328 15.0403 5.997 15.259 6.19922L14.7492 6.75C15.2434 6.21632 15.2592 6.20042 15.26 6.2002V6.20117L15.2619 6.20215C15.2631 6.20325 15.2651 6.20448 15.2668 6.20605C15.2701 6.20921 15.2742 6.21373 15.2795 6.21875C15.2901 6.22889 15.3045 6.24302 15.3225 6.26074C15.3585 6.29627 15.4091 6.34708 15.4719 6.41309C15.5974 6.54515 15.7728 6.7388 15.9816 6.99316C16.3993 7.50191 16.9534 8.25625 17.5158 9.25684C18.6421 11.2605 19.8015 14.2488 19.9767 18.2148C20.0207 19.2123 19.2102 19.9999 18.2502 20H16.5412C15.9563 20 15.2839 19.7424 14.7785 19.0801C14.286 18.4345 13.9992 17.47 13.9992 16.125V13.5146C13.9818 13.5052 13.9633 13.4966 13.9455 13.4863C13.578 13.2747 13.1495 12.9069 12.7453 12.2822C12.4771 11.8677 12.2217 11.3411 11.9992 10.6709C11.7767 11.3409 11.5222 11.8678 11.2541 12.2822C10.8499 12.9069 10.4214 13.2747 10.0539 13.4863C10.0358 13.4967 10.0169 13.505 9.99921 13.5146V16.125C9.99921 17.4701 9.71341 18.4345 9.22089 19.0801C8.7155 19.7424 8.04313 19.9999 7.45819 20H5.74921C4.78917 19.9999 3.97864 19.2124 4.02265 18.2148C4.19794 14.2488 5.35731 11.2606 6.48358 9.25684C7.04603 8.25622 7.60009 7.50192 8.01776 6.99316C8.22663 6.73877 8.402 6.54515 8.52753 6.41309C8.59029 6.34705 8.64087 6.29627 8.67694 6.26074C8.69496 6.243 8.70928 6.2289 8.71991 6.21875C8.72519 6.21371 8.72924 6.20922 8.73261 6.20605C8.73428 6.20448 8.7363 6.20325 8.73749 6.20215L8.73944 6.2002C8.73973 6.19993 8.73987 6.19992 9.24921 6.75L8.74042 6.19922C8.95913 5.99701 9.277 5.94326 9.54999 6.0625C9.82316 6.18185 9.99921 6.45189 9.99921 6.75V11.4609C10.5739 10.5686 11.2492 8.67259 11.2492 4.75C11.2492 4.33595 11.5852 4.00026 11.9992 4ZM8.49921 8.85449C8.27496 9.18231 8.03355 9.56104 7.7912 9.99219C6.76324 11.8211 5.68418 14.5824 5.52069 18.2812C5.51623 18.387 5.60499 18.4999 5.74921 18.5H7.45819C7.59541 18.4999 7.8188 18.4448 8.02851 18.1699C8.25124 17.8779 8.49921 17.2797 8.49921 16.125V8.85449ZM15.4992 16.125C15.4992 17.2798 15.7482 17.8779 15.9709 18.1699C16.1806 18.4448 16.404 18.5 16.5412 18.5H18.2502C18.3944 18.4999 18.4832 18.387 18.4787 18.2812C18.3152 14.5824 17.2361 11.8211 16.2082 9.99219C15.9654 9.56028 15.7238 9.18075 15.4992 8.85254V16.125Z" fill="#141414"/>
</svg>
