<svg width="24" height="24" viewBox="0 0 24 24" fill="none" xmlns="http://www.w3.org/2000/svg">
<path d="M12 4C15.3137 4 18 6.68629 18 10V14C18 17.3137 15.3137 20 12 20C8.68629 20 6 17.3137 6 14V10C6 6.68629 8.68629 4 12 4ZM12 5.5C9.51472 5.5 7.5 7.51472 7.5 10V14C7.5 16.4853 9.51472 18.5 12 18.5C14.4853 18.5 16.5 16.4853 16.5 14V10C16.5 7.51472 14.4853 5.5 12 5.5ZM12 8C12.4142 8 12.75 8.33579 12.75 8.75V10.25C12.75 10.6642 12.4142 11 12 11C11.5858 11 11.25 10.6642 11.25 10.25V8.75C11.25 8.33579 11.5858 8 12 8Z" fill="black"/>
</svg>
