<svg width="24" height="24" viewBox="0 0 24 24" fill="none" xmlns="http://www.w3.org/2000/svg">
<path fill-rule="evenodd" clip-rule="evenodd" d="M11.2505 6C11.6645 6.00025 12.0005 6.33594 12.0005 6.75C12.0005 7.16406 11.6645 7.49975 11.2505 7.5H8.75049C8.06013 7.5 7.50049 8.05964 7.50049 8.75V14.6152C8.71279 14.8186 10.2824 14.9873 12.0005 14.9873C13.7159 14.9873 15.2866 14.8191 16.5005 14.6162V12.75C16.5005 12.3358 16.8363 12 17.2505 12C17.6645 12.0003 18.0005 12.3359 18.0005 12.75V14.3096C18.5401 14.1758 19.1363 14.2654 19.5552 14.6221C19.7737 14.8083 19.9493 15.0769 19.9946 15.4102C20.04 15.7448 19.9433 16.0631 19.769 16.3301C18.7614 17.8737 16.2175 19.9998 12.0005 20C7.78258 20 5.24703 17.873 4.23975 16.3301C4.06545 16.063 3.96873 15.7449 4.01416 15.4102C4.0595 15.0769 4.23503 14.8083 4.45361 14.6221C4.8705 14.2673 5.46298 14.1766 6.00049 14.3076V8.75C6.00049 7.23122 7.23171 6 8.75049 6H11.2505ZM18.3237 15.7734C16.9854 16.1105 14.651 16.4873 12.0005 16.4873C9.34856 16.4873 7.02089 16.1106 5.68311 15.7734C6.56101 16.9205 8.59579 18.5 12.0005 18.5C15.4048 18.4999 17.4449 16.9199 18.3237 15.7734ZM17.0005 4C17.4145 4.00025 17.7505 4.33594 17.7505 4.75C17.7505 5.0863 17.918 5.46632 18.2261 5.77441C18.5341 6.08236 18.9143 6.25 19.2505 6.25C19.6645 6.25025 20.0005 6.58594 20.0005 7C20.0005 7.41406 19.6645 7.74975 19.2505 7.75C18.9143 7.75 18.5341 7.91764 18.2261 8.22559C17.918 8.53368 17.7505 8.9137 17.7505 9.25C17.7505 9.66406 17.4145 9.99975 17.0005 10C16.5863 10 16.2505 9.66421 16.2505 9.25C16.2505 8.91379 16.0829 8.53364 15.7749 8.22559C15.4669 7.91763 15.0867 7.75015 14.7505 7.75C14.3363 7.75 14.0005 7.41421 14.0005 7C14.0005 6.58579 14.3363 6.25 14.7505 6.25C15.0867 6.24985 15.4669 6.08237 15.7749 5.77441C16.0829 5.46636 16.2505 5.08621 16.2505 4.75C16.2505 4.33579 16.5863 4 17.0005 4ZM16.8364 6.83594C16.7795 6.89286 16.7184 6.94674 16.6567 7C16.7184 7.05326 16.7795 7.10714 16.8364 7.16406C16.8932 7.22082 16.9474 7.28128 17.0005 7.34277C17.0536 7.28128 17.1078 7.22082 17.1646 7.16406C17.2213 7.10732 17.2818 7.05311 17.3433 7C17.2818 6.94689 17.2213 6.89268 17.1646 6.83594C17.1076 6.77901 17.0538 6.71795 17.0005 6.65625C16.9472 6.71794 16.8933 6.779 16.8364 6.83594Z" fill="black"/>
</svg>
