<svg width="24" height="24" viewBox="0 0 24 24" fill="none" xmlns="http://www.w3.org/2000/svg">
<path d="M8.25 4C9.2165 4 10 4.7835 10 5.75V12.25C10 13.3546 10.8954 14.25 12 14.25C13.1046 14.25 14 13.3546 14 12.25V5.75C14 4.7835 14.7835 4 15.75 4H18.25C19.2165 4 20 4.7835 20 5.75V12C20 16.4183 16.4183 20 12 20C7.58172 20 4 16.4183 4 12V5.75C4 4.7835 4.7835 4 5.75 4H8.25ZM15.5 9.5V12.25C15.5 14.183 13.933 15.75 12 15.75C10.067 15.75 8.5 14.183 8.5 12.25V9.5H5.5V12C5.5 15.5899 8.41015 18.5 12 18.5C15.5899 18.5 18.5 15.5899 18.5 12V9.5H15.5ZM15.75 5.5C15.6119 5.5 15.5 5.61193 15.5 5.75V8H18.5V5.75C18.5 5.61193 18.3881 5.5 18.25 5.5H15.75ZM5.75 5.5C5.61193 5.5 5.5 5.61193 5.5 5.75V8H8.5V5.75C8.5 5.61193 8.38807 5.5 8.25 5.5H5.75Z" fill="black"/>
</svg>
