<svg width="24" height="24" viewBox="0 0 24 24" fill="none" xmlns="http://www.w3.org/2000/svg">
<path d="M7.25 4C8.76878 4 10 5.23122 10 6.75V12.25C10 13.3546 10.8954 14.25 12 14.25C13.1046 14.25 14 13.3546 14 12.25V6.75C14 5.23122 15.2312 4 16.75 4H17.25C18.7688 4 20 5.23122 20 6.75V8.75C20 9.16421 19.6642 9.5 19.25 9.5H15.5V12.25C15.5 14.183 13.933 15.75 12 15.75C10.067 15.75 8.5 14.183 8.5 12.25V9.5H5.5V12C5.5 15.5899 8.41015 18.5 12 18.5H13.25C13.6642 18.5 14 18.8358 14 19.25C14 19.6642 13.6642 20 13.25 20H12C7.58172 20 4 16.4183 4 12V6.75C4 5.23122 5.23122 4 6.75 4H7.25ZM17.6396 12.3145C17.8803 11.9775 18.3485 11.8991 18.6855 12.1396C19.0225 12.3803 19.1009 12.8485 18.8604 13.1855L17.207 15.5H19.25C19.5409 15.5 19.8052 15.6683 19.9287 15.9316C20.0521 16.1952 20.0125 16.5069 19.8262 16.7305L17.3262 19.7305C17.061 20.0485 16.5877 20.0913 16.2695 19.8262C15.9515 19.561 15.9087 19.0877 16.1738 18.7695L17.6484 17H15.75C15.4691 17 15.2116 16.8426 15.083 16.5928C14.9547 16.3431 14.9766 16.0429 15.1396 15.8145L17.6396 12.3145ZM6.75 5.5C6.05964 5.5 5.5 6.05964 5.5 6.75V8H8.5V6.75C8.5 6.05964 7.94036 5.5 7.25 5.5H6.75ZM16.75 5.5C16.0596 5.5 15.5 6.05964 15.5 6.75V8H18.5V6.75C18.5 6.05964 17.9404 5.5 17.25 5.5H16.75Z" fill="black"/>
</svg>
