<svg width="24" height="24" viewBox="0 0 24 24" fill="none" xmlns="http://www.w3.org/2000/svg">
<path fill-rule="evenodd" clip-rule="evenodd" d="M11.7246 4.05311C11.9311 3.97153 12.165 3.98528 12.3623 4.09413L19.6123 8.09413C19.8513 8.22613 20 8.47734 20 8.75038V11.2504C19.9998 11.6644 19.6641 12.0004 19.25 12.0004C18.8359 12.0004 18.5002 11.6644 18.5 11.2504V10.3021L13.6953 13.8539C13.5664 13.949 13.4102 14.0004 13.25 14.0004H10.75C10.5898 14.0004 10.4336 13.949 10.3047 13.8539L5.5 10.3021V17.2504C5.50019 17.9406 6.05976 18.5004 6.75 18.5004H11.25C11.6642 18.5004 12 18.8362 12 19.2504C11.9998 19.6644 11.6641 20.0004 11.25 20.0004H6.75C5.23134 20.0004 4.00019 18.769 4 17.2504V8.75038C4 8.47734 4.14871 8.22613 4.3877 8.09413L11.6377 4.09413L11.7246 4.05311ZM18.9551 15.0609C19.3042 14.9111 19.7167 15.0469 19.9053 15.3861C20.1062 15.7481 19.9761 16.2045 19.6143 16.4056C19.6121 16.4069 19.6075 16.41 19.6016 16.4135C19.5895 16.4205 19.5698 16.4318 19.5439 16.4476C19.4908 16.4802 19.4104 16.5317 19.3105 16.6C19.1101 16.7372 18.8323 16.9425 18.5342 17.2123C17.9301 17.7589 17.2808 18.5311 16.9619 19.4877C16.8796 19.7341 16.6747 19.9202 16.4219 19.9799C16.1691 20.0394 15.9034 19.9642 15.7197 19.7806L14.2197 18.2806C13.9269 17.9878 13.927 17.513 14.2197 17.2201C14.5126 16.9272 14.9874 16.9272 15.2803 17.2201L16.0137 17.9535C16.4576 17.1732 17.0285 16.5532 17.5283 16.101C17.8861 15.7772 18.2181 15.5292 18.4629 15.3617C18.5852 15.278 18.687 15.2139 18.7598 15.1693C18.796 15.1471 18.8255 15.1289 18.8467 15.1166C18.8572 15.1105 18.8666 15.1056 18.873 15.1019C18.8761 15.1002 18.8788 15.0982 18.8809 15.0971C18.8818 15.0965 18.883 15.0964 18.8838 15.0961L18.8848 15.0951H18.8857L18.9551 15.0609ZM6.08496 8.86952L10.9971 12.5004H13.0029L17.9141 8.86952L12 5.60584L6.08496 8.86952Z" fill="black"/>
</svg>
