<svg width="24" height="24" viewBox="0 0 24 24" fill="none" xmlns="http://www.w3.org/2000/svg">
<path d="M17.25 5C18.7396 5 20 6.1668 20 7.66992V15.8301C20 17.3332 18.7396 18.5 17.25 18.5H6.75C5.26039 18.5 4.00004 17.3332 4 15.8301V7.66992C4.00004 6.1668 5.26039 5 6.75 5H17.25ZM12.3896 12.8906C12.1505 13.0358 11.8495 13.0358 11.6104 12.8906L5.5 9.18066V15.8301C5.50004 16.4477 6.03052 17 6.75 17H17.25C17.9695 17 18.5 16.4477 18.5 15.8301V9.18066L12.3896 12.8906ZM6.75 6.5C6.12121 6.5 5.63658 6.92183 5.52441 7.44043L12 11.3721L18.4746 7.44043C18.3624 6.92192 17.8787 6.5 17.25 6.5H6.75Z" fill="black"/>
</svg>
