<svg width="24" height="24" viewBox="0 0 24 24" fill="none" xmlns="http://www.w3.org/2000/svg">
<path d="M15.25 4C17.8734 4 20 6.12665 20 8.75V15.25C20 16.2165 19.2165 17 18.25 17H16V19.25C16 19.6642 15.6642 20 15.25 20C14.8358 20 14.5 19.6642 14.5 19.25V17H5.75C4.7835 17 4 16.2165 4 15.25V8C4 5.79086 5.79086 4 8 4H15.25ZM8 5.5C6.61929 5.5 5.5 6.61929 5.5 8V15.25C5.5 15.3881 5.61193 15.5 5.75 15.5H10.25C10.3881 15.5 10.5 15.3881 10.5 15.25V8C10.5 6.61929 9.38071 5.5 8 5.5ZM11.1211 5.5C11.6704 6.18492 12 7.0537 12 8V15.25C12 15.335 11.9922 15.4183 11.9805 15.5H18.25C18.3881 15.5 18.5 15.3881 18.5 15.25V8.75C18.5 6.95507 17.0449 5.5 15.25 5.5H11.1211ZM8 8C8.55228 8 9 8.44772 9 9C9 9.55228 8.55228 10 8 10C7.44772 10 7 9.55228 7 9C7 8.44772 7.44772 8 8 8ZM16.25 8.25C16.6642 8.25 17 8.58579 17 9C17 9.41421 16.6642 9.75 16.25 9.75H14.75C14.3358 9.75 14 9.41421 14 9C14 8.58579 14.3358 8.25 14.75 8.25H16.25Z" fill="black"/>
</svg>
