<svg width="24" height="24" viewBox="0 0 24 24" fill="none" xmlns="http://www.w3.org/2000/svg">
<path fill-rule="evenodd" clip-rule="evenodd" d="M11.7246 4.05311C11.9311 3.97153 12.165 3.98528 12.3623 4.09413L19.6123 8.09413C19.8513 8.22613 20 8.47734 20 8.75038V11.2504C19.9998 11.6644 19.6641 12.0004 19.25 12.0004C18.8359 12.0004 18.5002 11.6644 18.5 11.2504V10.3021L13.6953 13.8539C13.5664 13.949 13.4102 14.0004 13.25 14.0004H10.75C10.5898 14.0004 10.4336 13.949 10.3047 13.8539L5.5 10.3021V17.2504C5.50019 17.9406 6.05976 18.5004 6.75 18.5004H11.25C11.6642 18.5004 12 18.8362 12 19.2504C11.9998 19.6644 11.6641 20.0004 11.25 20.0004H6.75C5.23134 20.0004 4.00019 18.769 4 17.2504V8.75038C4 8.47734 4.14871 8.22613 4.3877 8.09413L11.6377 4.09413L11.7246 4.05311ZM18.7197 15.2201C19.0126 14.9272 19.4874 14.9272 19.7803 15.2201C20.073 15.513 20.0731 15.9878 19.7803 16.2806L18.5605 17.5004L19.7803 18.7201C20.073 19.013 20.0731 19.4878 19.7803 19.7806C19.4874 20.0733 19.0126 20.0733 18.7197 19.7806L17.5 18.5609L16.2803 19.7806C15.9874 20.0733 15.5126 20.0733 15.2197 19.7806C14.9269 19.4878 14.927 19.013 15.2197 18.7201L16.4395 17.5004L15.2197 16.2806C14.9269 15.9878 14.927 15.513 15.2197 15.2201C15.5126 14.9272 15.9874 14.9272 16.2803 15.2201L17.5 16.4398L18.7197 15.2201ZM6.08496 8.86952L10.9971 12.5004H13.0029L17.9141 8.86952L12 5.60584L6.08496 8.86952Z" fill="black"/>
</svg>
