<svg width="24" height="24" viewBox="0 0 24 24" fill="none" xmlns="http://www.w3.org/2000/svg">
<path fill-rule="evenodd" clip-rule="evenodd" d="M11.7246 4.05311C11.9311 3.97153 12.165 3.98528 12.3623 4.09413L19.6123 8.09413C19.8513 8.22613 20 8.47734 20 8.75038V17.2504C19.9998 18.769 18.7687 20.0004 17.25 20.0004H6.75C5.23134 20.0004 4.00019 18.769 4 17.2504V8.75038C4 8.47734 4.14871 8.22613 4.3877 8.09413L11.6377 4.09413L11.7246 4.05311ZM13.6953 13.8539C13.5664 13.949 13.4102 14.0004 13.25 14.0004H10.75C10.5898 14.0004 10.4336 13.949 10.3047 13.8539L5.5 10.3021V17.2504C5.50019 17.9406 6.05976 18.5004 6.75 18.5004H17.25C17.9402 18.5004 18.4998 17.9406 18.5 17.2504V10.3021L13.6953 13.8539ZM6.08398 8.86854L10.9971 12.5004H13.0029L17.915 8.86854L12 5.60584L6.08398 8.86854Z" fill="black"/>
</svg>
