<svg width="24" height="24" viewBox="0 0 24 24" fill="none" xmlns="http://www.w3.org/2000/svg">
<path d="M19.25 4C19.6642 4 20 4.33579 20 4.75V10.25C20 10.6642 19.6642 11 19.25 11C18.8358 11 18.5 10.6642 18.5 10.25V6.56055L13.0254 12.0342C13.6378 12.8639 14 13.8896 14 15C14 17.7614 11.7614 20 9 20C6.23858 20 4 17.7614 4 15C4 12.2386 6.23858 10 9 10C10.1099 10 11.1353 10.3618 11.9648 10.9736L17.4395 5.5H13.75C13.3358 5.5 13 5.16421 13 4.75C13 4.33579 13.3358 4 13.75 4H19.25ZM9 11.5C7.067 11.5 5.5 13.067 5.5 15C5.5 16.933 7.067 18.5 9 18.5C10.933 18.5 12.5 16.933 12.5 15C12.5 14.0646 12.132 13.2158 11.5342 12.5879C11.5119 12.5702 11.4904 12.5509 11.4697 12.5303C11.4488 12.5093 11.4291 12.4875 11.4111 12.4648C10.7833 11.8676 9.93494 11.5 9 11.5Z" fill="black"/>
</svg>
