<svg width="24" height="24" viewBox="0 0 24 24" fill="none" xmlns="http://www.w3.org/2000/svg">
<path d="M11.999 4C13.6767 4.00009 14.9117 4.59499 15.7344 5.62793C16.5277 6.62418 16.8681 7.94136 16.9795 9.27344C17.1569 11.3958 16.1829 13.5351 14.7373 14.9365C14.6801 14.992 14.6209 15.0447 14.5615 15.0957C14.6779 15.4118 14.9499 15.6568 15.2949 15.7295L16.8164 16.0498C18.089 16.3177 19 17.4408 19 18.7412V19.25C19 19.6642 18.6642 20 18.25 20C17.8358 20 17.5 19.6642 17.5 19.25V18.7412C17.5 18.1502 17.0861 17.6394 16.5078 17.5176L14.9863 17.1973C14.2044 17.0327 13.5728 16.5135 13.2451 15.8291C12.4416 16.0807 11.5768 16.0502 10.7852 15.7598C10.4676 16.478 9.82156 17.0272 9.01367 17.1973L7.49219 17.5176C6.91386 17.6394 6.5 18.1502 6.5 18.7412V19.25C6.5 19.6642 6.16421 20 5.75 20C5.33579 20 5 19.6642 5 19.25V18.7412C5 17.4408 5.91105 16.3177 7.18359 16.0498L8.70508 15.7295C9.09621 15.6471 9.39055 15.3425 9.47363 14.9648C9.41848 14.9148 9.3644 14.8631 9.31152 14.8096C7.96462 13.446 6.84293 11.3747 7.01855 9.27344C7.12995 7.94128 7.47024 6.62419 8.26367 5.62793C9.08637 4.59499 10.3213 4 11.999 4ZM11.999 5.5C10.7136 5.5 9.93678 5.93436 9.43652 6.5625C8.90723 7.22721 8.61265 8.20299 8.5127 9.39844C8.38596 10.9148 9.21622 12.5798 10.3779 13.7559C11.1818 14.5697 12.3592 14.715 13.2578 14.1875C13.3135 14.1387 13.3749 14.0961 13.4434 14.0654C13.5294 14.0028 13.6146 13.9367 13.6934 13.8604C14.8687 12.7211 15.6187 11.005 15.4844 9.39844C15.3844 8.20293 15.0899 7.22721 14.5605 6.5625C14.0603 5.93442 13.2842 5.50008 11.999 5.5Z" fill="black"/>
</svg>
