<svg width="24" height="24" viewBox="0 0 24 24" fill="none" xmlns="http://www.w3.org/2000/svg">
<path d="M17 4C18.6569 4 20 5.34315 20 7V17C20 18.6569 18.6569 20 17 20H7C5.34315 20 4 18.6569 4 17V7C4 5.34315 5.34315 4 7 4C7.04261 4 7.08433 4.00392 7.125 4.01074C7.16567 4.00392 7.20739 4 7.25 4C7.66421 4 8 4.33579 8 4.75V6H16V4.75C16 4.33579 16.3358 4 16.75 4C16.7926 4 16.8343 4.00392 16.875 4.01074C16.9157 4.00392 16.9574 4 17 4ZM8 14.75C8 15.1642 7.66421 15.5 7.25 15.5C7.20733 15.5 7.16572 15.4951 7.125 15.4883C7.08428 15.4951 7.04267 15.5 7 15.5C6.17157 15.5 5.5 16.1716 5.5 17C5.5 17.8284 6.17157 18.5 7 18.5H17C17.8284 18.5 18.5 17.8284 18.5 17C18.5 16.1716 17.8284 15.5 17 15.5C16.9573 15.5 16.9157 15.4951 16.875 15.4883C16.8343 15.4951 16.7927 15.5 16.75 15.5C16.3358 15.5 16 15.1642 16 14.75V7.5H8V14.75ZM9.25 15.5C9.66421 15.5 10 15.8358 10 16.25C10 16.6642 9.66421 17 9.25 17H8.75C8.33579 17 8 16.6642 8 16.25C8 15.8358 8.33579 15.5 8.75 15.5H9.25ZM12.25 14C12.6642 14 13 14.3358 13 14.75V16.25C13 16.6642 12.6642 17 12.25 17H11.75C11.3358 17 11 16.6642 11 16.25C11 15.9237 11.2091 15.6481 11.5 15.5449V14.75C11.5 14.3358 11.8358 14 12.25 14ZM6.5 5.58691C5.91766 5.79297 5.5 6.34707 5.5 7V14.4043C5.80405 14.2282 6.14051 14.1013 6.5 14.041V5.58691ZM17.5 14.041C17.8595 14.1013 18.196 14.2282 18.5 14.4043V7C18.5 6.34707 18.0823 5.79297 17.5 5.58691V14.041ZM12.25 11C12.6642 11 13 11.3358 13 11.75V12.25C13 12.6642 12.6642 13 12.25 13C11.8358 13 11.5 12.6642 11.5 12.25V11.75C11.5 11.3358 11.8358 11 12.25 11ZM12.25 8C12.6642 8 13 8.33579 13 8.75V9.25C13 9.66421 12.6642 10 12.25 10C11.8358 10 11.5 9.66421 11.5 9.25V8.75C11.5 8.33579 11.8358 8 12.25 8Z" fill="black"/>
</svg>
