<svg width="24" height="24" viewBox="0 0 24 24" fill="none" xmlns="http://www.w3.org/2000/svg">
<path fill-rule="evenodd" clip-rule="evenodd" d="M9.27734 4.00102C9.2907 4.00152 9.30407 4.00176 9.31738 4.00297C9.33702 4.00474 9.35644 4.00843 9.37598 4.01176C9.38636 4.01354 9.39691 4.01443 9.40723 4.01665C9.42271 4.01996 9.43779 4.02502 9.45312 4.02934C9.46778 4.03348 9.48264 4.03699 9.49707 4.04204C9.49998 4.04305 9.50295 4.04391 9.50586 4.04497L14.7217 5.94145L18.9453 4.0645C19.1772 3.96145 19.4454 3.983 19.6582 4.12114C19.8711 4.25948 20 4.49617 20 4.75004V17.25C20 17.5464 19.8255 17.8152 19.5547 17.9356L15.0547 19.9356C15.049 19.9381 15.0428 19.9391 15.0371 19.9415C15.0242 19.9468 15.0112 19.9515 14.998 19.9561C14.9805 19.9622 14.9631 19.9679 14.9453 19.9727C14.9327 19.9761 14.92 19.9788 14.9072 19.9815C14.8919 19.9848 14.8767 19.988 14.8613 19.9903C14.8445 19.9928 14.8275 19.9938 14.8105 19.9952C14.7981 19.9962 14.7859 19.9977 14.7734 19.9981C14.7562 19.9986 14.739 19.9987 14.7217 19.9981C14.7083 19.9976 14.695 19.9974 14.6816 19.9961C14.662 19.9943 14.6426 19.9907 14.623 19.9873C14.6127 19.9855 14.6021 19.9847 14.5918 19.9825C14.5763 19.9791 14.5612 19.9741 14.5459 19.9698C14.5312 19.9656 14.5164 19.9621 14.502 19.9571C14.4994 19.9562 14.4967 19.956 14.4941 19.9551L9.27734 18.0577L5.05469 19.9356C4.82282 20.0386 4.55462 20.0171 4.3418 19.879C4.12892 19.7406 4 19.5039 4 19.25V6.75004C4 6.45365 4.17447 6.18487 4.44531 6.0645L8.94531 4.0645L8.97852 4.05083C8.98591 4.04796 8.9935 4.04564 9.00098 4.04301C9.01844 4.03686 9.03597 4.03122 9.05371 4.02641C9.0663 4.023 9.07906 4.02037 9.0918 4.01762C9.10707 4.01433 9.1223 4.01115 9.1377 4.00883C9.15453 4.00629 9.17151 4.00535 9.18848 4.00395C9.20087 4.00294 9.21318 4.00141 9.22559 4.00102C9.24283 4.00046 9.26007 4.00039 9.27734 4.00102ZM10 16.7247L14 18.1788V7.27543L10 5.82036V16.7247ZM5.5 7.23735V18.0957L8.5 16.7618V5.90434L5.5 7.23735ZM15.5 7.23735V18.0957L18.5 16.7618V5.90434L15.5 7.23735Z" fill="black"/>
</svg>
