<svg width="24" height="24" viewBox="0 0 24 24" fill="none" xmlns="http://www.w3.org/2000/svg">
<path fill-rule="evenodd" clip-rule="evenodd" d="M11.7578 7.04014C11.9409 6.97768 12.1424 6.98813 12.3193 7.07139L16.418 9.0001H17.25C18.7688 9.0001 20 10.2313 20 11.7501V15.2501C20 16.7689 18.7688 18.0001 17.25 18.0001H6.75C5.23122 18.0001 4 16.7689 4 15.2501V11.7501C4 10.2313 5.23122 9.0001 6.75 9.0001H7.58203L11.6807 7.07139L11.7578 7.04014ZM6.75 10.5001C6.05964 10.5001 5.5 11.0597 5.5 11.7501V15.2501C5.5 15.9405 6.05964 16.5001 6.75 16.5001H8.24414C7.9852 16.2111 7.78005 15.9045 7.61914 15.6017C7.30658 15.0133 7.15381 14.4333 7.07812 14.006C7.03999 13.7906 7.02065 13.6092 7.01074 13.4786C7.00578 13.4133 7.00332 13.3601 7.00195 13.3214C7.00127 13.3022 7.00021 13.2865 7 13.2745V10.5001H6.75ZM8.5 10.2257V13.2501C8.50007 13.2536 8.50067 13.26 8.50098 13.2687C8.50168 13.2886 8.50253 13.3215 8.50586 13.3653C8.51256 13.4535 8.52644 13.5847 8.55469 13.7442C8.61182 14.0669 8.72475 14.487 8.94336 14.8985C9.15989 15.3061 9.47583 15.6971 9.94141 15.9894C10.4047 16.28 11.0598 16.5001 12 16.5001C12.9402 16.5001 13.5953 16.28 14.0586 15.9894C14.5242 15.6971 14.8401 15.3061 15.0566 14.8985C15.2753 14.487 15.3882 14.0669 15.4453 13.7442C15.4736 13.5847 15.4874 13.4535 15.4941 13.3653C15.4975 13.3215 15.4983 13.2886 15.499 13.2687C15.4993 13.26 15.4999 13.2536 15.5 13.2501V10.2257L12 8.57823L8.5 10.2257ZM17 13.2745C16.9998 13.2865 16.9987 13.3022 16.998 13.3214C16.9967 13.3601 16.9942 13.4133 16.9893 13.4786C16.9793 13.6092 16.96 13.7906 16.9219 14.006C16.8462 14.4333 16.6934 15.0133 16.3809 15.6017C16.22 15.9045 16.0148 16.2111 15.7559 16.5001H17.25C17.9404 16.5001 18.5 15.9405 18.5 15.2501V11.7501C18.5 11.0597 17.9404 10.5001 17.25 10.5001H17V13.2745ZM12 11.0001C12.5082 11.0001 12.9494 11.1876 13.2314 11.3409C13.3786 11.4209 13.499 11.5008 13.584 11.5616C13.6266 11.5921 13.6611 11.6188 13.6865 11.6388C13.6992 11.6487 13.7097 11.6575 13.7178 11.6642C13.7218 11.6675 13.7256 11.6706 13.7285 11.673C13.7299 11.6741 13.7313 11.675 13.7324 11.6759L13.7344 11.6769V11.6778H13.7354C13.7355 11.678 13.7328 11.6815 13.25 12.2501L13.7354 11.6788C14.0509 11.9469 14.0893 12.4198 13.8213 12.7355C13.5532 13.051 13.0803 13.0894 12.7646 12.8214V12.8224L12.7598 12.8185C12.7504 12.8111 12.7336 12.7986 12.7109 12.7823C12.6649 12.7494 12.5971 12.7041 12.5146 12.6593C12.3369 12.5626 12.1529 12.5001 12 12.5001C11.8471 12.5001 11.6631 12.5626 11.4854 12.6593C11.4029 12.7041 11.3351 12.7494 11.2891 12.7823C11.2664 12.7986 11.2496 12.8111 11.2402 12.8185C11.2382 12.82 11.2357 12.8203 11.2344 12.8214C10.9187 13.0891 10.4467 13.0509 10.1787 12.7355C9.91069 12.4198 9.94906 11.9469 10.2646 11.6788L10.75 12.2501C10.2672 11.6814 10.2645 11.678 10.2646 11.6778H10.2656V11.6769L10.2676 11.6759C10.2687 11.675 10.2701 11.6741 10.2715 11.673C10.2744 11.6706 10.2782 11.6675 10.2822 11.6642C10.2903 11.6575 10.3008 11.6487 10.3135 11.6388C10.3389 11.6188 10.3734 11.5921 10.416 11.5616C10.501 11.5008 10.6214 11.4209 10.7686 11.3409C11.0506 11.1876 11.4918 11.0001 12 11.0001Z" fill="black"/>
</svg>
