<svg width="24" height="24" viewBox="0 0 24 24" fill="none" xmlns="http://www.w3.org/2000/svg">
<path d="M12 4C15.866 4 19 7.13401 19 11V14.25C19 15.7688 17.7688 17 16.25 17H15V19.25C15 19.6642 14.6642 20 14.25 20C13.8358 20 13.5 19.6642 13.5 19.25V16.8525C12.7674 16.5557 12.25 15.8391 12.25 15V12.2207L6.69629 9.53906C6.56861 10.0038 6.5 10.4935 6.5 11C6.5 11.7603 6.82442 12.5776 7.3584 13.377C7.88773 14.1693 8.58433 14.8851 9.23047 15.4238C9.40135 15.5663 9.5 15.7775 9.5 16V19.25C9.5 19.6642 9.16421 20 8.75 20C8.33579 20 8 19.6642 8 19.25V16.3447C7.3474 15.767 6.66082 15.0349 6.11035 14.2109C5.4881 13.2795 5 12.1699 5 11C5 10.006 5.20801 9.0586 5.58301 8.2002C6.6625 5.7295 9.12839 4 12 4ZM13.75 15C13.75 15.2761 13.9739 15.5 14.25 15.5H16.25C16.9404 15.5 17.5 14.9404 17.5 14.25V12.5H13.75V15ZM12 5.5C10.0032 5.5 8.25492 6.56491 7.29102 8.15918L13.1729 11H17.5C17.5 7.96243 15.0376 5.5 12 5.5ZM14 8C14.5522 8 15 8.44769 15 9C15 9.55224 14.5522 10 14 10C13.4478 10 13 9.55224 13 9C13 8.44769 13.4478 8 14 8Z" fill="black"/>
</svg>
