<svg width="24" height="24" viewBox="0 0 24 24" fill="none" xmlns="http://www.w3.org/2000/svg">
<path d="M11.3104 13.7499L6.56042 18.4999H9.24988C9.66405 18.4999 9.99982 18.8357 9.99988 19.2499C9.99988 19.6641 9.66409 19.9999 9.24988 19.9999H5.06042L4.99988 20.0604L4.93933 19.9999H4.74988C4.33572 19.9998 3.99988 19.6641 3.99988 19.2499V19.0604L3.93933 18.9999L3.99988 18.9393V14.7499C3.99994 14.3358 4.33575 13.9999 4.74988 13.9999C5.16405 13.9999 5.49982 14.3357 5.49988 14.7499V17.4393L10.2499 12.6893L11.3104 13.7499ZM19.0604 3.99988H19.2499C19.6641 3.99988 19.9998 4.33572 19.9999 4.74988V4.93933L20.0604 4.99988L19.9999 5.06042V9.24988C19.9999 9.66409 19.6641 9.99988 19.2499 9.99988C18.8357 9.99982 18.4999 9.66405 18.4999 9.24988V6.56042L13.7499 11.3104L12.6893 10.2499L17.4393 5.49988H14.7499C14.3357 5.49982 13.9999 5.16405 13.9999 4.74988C13.9999 4.33575 14.3358 3.99994 14.7499 3.99988H18.9393L18.9999 3.93933L19.0604 3.99988Z" fill="black"/>
</svg>
