<svg width="24" height="24" viewBox="0 0 24 24" fill="none" xmlns="http://www.w3.org/2000/svg">
<path d="M4.75 14C5.16421 14 5.5 14.3358 5.5 14.75V17.25C5.5 17.9404 6.05964 18.5 6.75 18.5H9.25C9.66421 18.5 10 18.8358 10 19.25C10 19.6642 9.66421 20 9.25 20H6.75C5.23122 20 4 18.7688 4 17.25V14.75C4 14.3358 4.33579 14 4.75 14ZM19.25 14C19.6642 14 20 14.3358 20 14.75V17.25C20 18.7688 18.7688 20 17.25 20H14.75C14.3358 20 14 19.6642 14 19.25C14 18.8358 14.3358 18.5 14.75 18.5H17.25C17.9404 18.5 18.5 17.9404 18.5 17.25V14.75C18.5 14.3358 18.8358 14 19.25 14ZM9.25 4C9.66421 4 10 4.33579 10 4.75C10 5.16421 9.66421 5.5 9.25 5.5H6.75C6.05964 5.5 5.5 6.05964 5.5 6.75V9.25C5.5 9.66421 5.16421 10 4.75 10C4.33579 10 4 9.66421 4 9.25V6.75C4 5.23122 5.23122 4 6.75 4H9.25ZM17.25 4C18.7688 4 20 5.23122 20 6.75V9.25C20 9.66421 19.6642 10 19.25 10C18.8358 10 18.5 9.66421 18.5 9.25V6.75C18.5 6.05964 17.9404 5.5 17.25 5.5H14.75C14.3358 5.5 14 5.16421 14 4.75C14 4.33579 14.3358 4 14.75 4H17.25Z" fill="black"/>
</svg>
