<svg width="24" height="24" viewBox="0 0 24 24" fill="none" xmlns="http://www.w3.org/2000/svg">
<path d="M13.25 4C14.2165 4 15 4.7835 15 5.75V7.25H17.25C18.7688 7.25 20 8.48122 20 10V17.25C20 18.7688 18.7688 20 17.25 20H6.75C5.23122 20 4 18.7688 4 17.25V10C4 8.48122 5.23122 7.25 6.75 7.25H9V5.75C9 4.7835 9.7835 4 10.75 4H13.25ZM6.75 8.75C6.05964 8.75 5.5 9.30964 5.5 10V17.25C5.5 17.9404 6.05964 18.5 6.75 18.5H17.25C17.9404 18.5 18.5 17.9404 18.5 17.25V10C18.5 9.30964 17.9404 8.75 17.25 8.75H6.75ZM12 10C12.4142 10 12.75 10.3358 12.75 10.75V12.75H15.25C15.6642 12.75 16 13.0858 16 13.5C16 13.9142 15.6642 14.25 15.25 14.25H12.75V16.25C12.75 16.6642 12.4142 17 12 17C11.5858 17 11.25 16.6642 11.25 16.25V14.25H8.75C8.33579 14.25 8 13.9142 8 13.5C8 13.0858 8.33579 12.75 8.75 12.75H11.25V10.75C11.25 10.3358 11.5858 10 12 10ZM10.75 5.5C10.6119 5.5 10.5 5.61193 10.5 5.75V7.25H13.5V5.75C13.5 5.61193 13.3881 5.5 13.25 5.5H10.75Z" fill="black"/>
</svg>
