<svg width="24" height="24" viewBox="0 0 24 24" fill="none" xmlns="http://www.w3.org/2000/svg">
<path d="M17.25 6C18.7688 6 20 7.23122 20 8.75V15.25C20 16.7688 18.7688 18 17.25 18H6.75C5.23122 18 4 16.7688 4 15.25V8.75C4 7.23122 5.23122 6 6.75 6H17.25ZM6.75 7.5C6.05964 7.5 5.5 8.05964 5.5 8.75V15.25C5.5 15.9404 6.05964 16.5 6.75 16.5H17.25C17.9404 16.5 18.5 15.9404 18.5 15.25V8.75C18.5 8.05964 17.9404 7.5 17.25 7.5H6.75ZM15.25 13.5C15.6642 13.5 16 13.8358 16 14.25C16 14.6642 15.6642 15 15.25 15H8.75C8.33579 15 8 14.6642 8 14.25C8 13.8358 8.33579 13.5 8.75 13.5H15.25ZM15.25 9C15.6642 9 16 9.33579 16 9.75C16 10.1642 15.6642 10.5 15.25 10.5H8.75C8.33579 10.5 8 10.1642 8 9.75C8 9.33579 8.33579 9 8.75 9H15.25Z" fill="black"/>
</svg>
