<svg width="24" height="24" viewBox="0 0 24 24" fill="none" xmlns="http://www.w3.org/2000/svg">
<path d="M12 5C13.8598 5 15.8412 5.46275 17.3789 6.58105C18.9474 7.72189 20 9.50965 20 12C20 14.4903 18.9474 16.2781 17.3789 17.4189C15.8412 18.5372 13.8598 19 12 19C11.4329 19 10.8579 18.9572 10.29 18.8672C10.1058 18.838 9.93534 18.8375 9.78223 18.8662L6.5752 19.4678C5.36554 19.6946 4.30542 18.6345 4.53223 17.4248L4.79395 16.0273C4.85085 15.7239 4.78618 15.3679 4.60938 14.9814C4.2156 14.1207 4 13.1271 4 12C4 9.50965 5.05258 7.72189 6.62109 6.58105C8.15876 5.46275 10.1402 5 12 5ZM12 6.5C10.3599 6.5 8.71622 6.91236 7.50391 7.79395C6.32255 8.65312 5.5 9.99047 5.5 12C5.5 12.9325 5.67774 13.7106 5.97363 14.3574C6.22663 14.9105 6.40207 15.5917 6.26855 16.3037L6.00684 17.7021C5.97474 17.8747 6.12531 18.0253 6.29785 17.9932L9.50586 17.3926C9.85683 17.3268 10.2032 17.3346 10.5254 17.3857C11.0119 17.4629 11.5079 17.5 12 17.5C13.6401 17.5 15.2838 17.0876 16.4961 16.2061C17.6775 15.3469 18.5 14.0095 18.5 12C18.5 9.99047 17.6775 8.65312 16.4961 7.79395C15.2838 6.91236 13.6401 6.5 12 6.5ZM9 11C9.55228 11 10 11.4477 10 12C10 12.5523 9.55228 13 9 13C8.44772 13 8 12.5523 8 12C8 11.4477 8.44772 11 9 11ZM12 11C12.5523 11 13 11.4477 13 12C13 12.5523 12.5523 13 12 13C11.4477 13 11 12.5523 11 12C11 11.4477 11.4477 11 12 11ZM15 11C15.5523 11 16 11.4477 16 12C16 12.5523 15.5523 13 15 13C14.4477 13 14 12.5523 14 12C14 11.4477 14.4477 11 15 11Z" fill="black"/>
</svg>
