<svg width="24" height="24" viewBox="0 0 24 24" fill="none" xmlns="http://www.w3.org/2000/svg">
<path fill-rule="evenodd" clip-rule="evenodd" d="M18.2919 12.001C18.7053 12.0241 19.0219 12.3785 18.999 12.792L18.2499 12.75C18.9988 12.7916 18.999 12.7924 18.999 12.793V12.7959C18.9988 12.7978 18.9981 12.8003 18.998 12.8027C18.9977 12.8075 18.9975 12.8134 18.997 12.8203C18.9959 12.8343 18.9943 12.8528 18.9921 12.875C18.9877 12.9196 18.9799 12.981 18.9687 13.0557C18.9462 13.2047 18.9074 13.4108 18.8398 13.6543C18.7047 14.1403 18.4531 14.789 17.9833 15.4395C17.0948 16.6697 15.5022 17.7992 12.7499 17.9736V19.25C12.7499 19.6642 12.4141 20 11.9999 20C11.5857 20 11.2499 19.6642 11.2499 19.25V17.9736C11.1523 17.9675 11.0557 17.9636 10.9609 17.9551C10.5485 17.9178 10.2441 17.553 10.2812 17.1406C10.3184 16.7281 10.6831 16.4237 11.0956 16.4609C11.378 16.4864 11.679 16.5 11.9999 16.5C14.7819 16.5 16.1079 15.4726 16.7665 14.5605C17.1091 14.0862 17.2951 13.6097 17.3945 13.252C17.4439 13.0741 17.4716 12.928 17.4863 12.8311C17.4935 12.7829 17.4968 12.7468 17.499 12.7256C17.5 12.7151 17.5007 12.7081 17.5009 12.7051V12.7041C17.5261 12.2926 17.8798 11.9781 18.2919 12.001ZM11.9999 4C13.8826 4 15.4601 5.30098 15.8857 7.05273L17.7197 5.21973C18.0125 4.92684 18.4873 4.92684 18.7802 5.21973C19.0731 5.51262 19.0731 5.98738 18.7802 6.28027L6.28021 18.7803C5.98731 19.0732 5.51255 19.0732 5.21966 18.7803C4.92678 18.4874 4.92678 18.0126 5.21966 17.7197L6.71087 16.2275C5.97107 15.5331 5.55029 14.7562 5.31341 14.125C5.17562 13.7577 5.09875 13.436 5.0556 13.2021C5.03398 13.085 5.02062 12.9888 5.01263 12.9189C5.00864 12.884 5.00563 12.8554 5.00384 12.834C5.00296 12.8235 5.00237 12.8146 5.00189 12.8076C5.00164 12.8041 5.00205 12.8005 5.00189 12.7979C5.00182 12.7968 5.00096 12.7958 5.00091 12.7949V12.7148C5.01827 12.3352 5.3204 12.0227 5.70794 12.001C6.12139 11.978 6.47578 12.2946 6.49896 12.708V12.709C6.49954 12.7159 6.50065 12.7297 6.50286 12.749C6.5073 12.7877 6.51534 12.8501 6.53021 12.9307C6.56014 13.0928 6.61683 13.3272 6.71868 13.5986C6.89723 14.0743 7.21305 14.653 7.77239 15.166L8.94622 13.9922C8.60435 13.6358 8.40375 13.1862 8.28704 12.8398C8.07467 12.2094 8.01871 11.58 8.00482 11.3672C8.00026 11.2974 7.99994 11.2337 7.99993 11.1807V8C7.99993 5.79087 9.7908 4.00001 11.9999 4ZM11.9999 5.5C10.6192 5.50001 9.49993 6.6193 9.49993 8V11.1807C9.49994 11.2202 9.50041 11.2469 9.50189 11.2695C9.51274 11.4357 9.5573 11.913 9.70794 12.3604C9.8034 12.6437 9.90935 12.8226 10.0077 12.9307L14.4999 8.43945V8C14.4999 6.61929 13.3806 5.5 11.9999 5.5Z" fill="black"/>
</svg>
