<svg width="24" height="24" viewBox="0 0 24 24" fill="none" xmlns="http://www.w3.org/2000/svg">
<path fill-rule="evenodd" clip-rule="evenodd" d="M15.5003 4C17.9855 4.00017 20.0003 6.01482 20.0003 8.5C20.0003 10.9852 17.9855 12.9998 15.5003 13C15.4142 13 15.3284 12.997 15.2435 12.9922C15.2325 13.0048 15.2223 13.0183 15.2103 13.0303L9.15561 19.085C9.15207 19.0885 9.14749 19.0913 9.1439 19.0947C9.13616 19.1032 9.12963 19.1129 9.12144 19.1211C7.94994 20.2926 6.05084 20.2924 4.87925 19.1211C3.70776 17.9495 3.7077 16.0505 4.87925 14.8789C4.89836 14.8598 4.91728 14.8408 4.93784 14.8242C4.95029 14.8097 4.96414 14.796 4.97788 14.7822L10.9701 8.79004C10.9822 8.7779 10.9944 8.76601 11.0072 8.75488C11.0025 8.67052 11.0003 8.58554 11.0003 8.5C11.0003 6.01472 13.0151 4 15.5003 4ZM6.03843 15.8428C6.0188 15.8624 5.99707 15.8795 5.97593 15.8965C5.9638 15.9106 5.95314 15.9261 5.93979 15.9395C5.35404 16.5252 5.35409 17.4748 5.93979 18.0605C6.5256 18.6461 7.47518 18.6462 8.06089 18.0605C8.06317 18.0583 8.06542 18.056 8.06772 18.0537C8.07657 18.0439 8.08561 18.0339 8.09507 18.0244L13.558 12.5605C12.6326 12.1172 11.882 11.3669 11.4388 10.4414L6.03843 15.8428ZM12.9173 6.97754C12.6535 7.42411 12.5003 7.94376 12.5003 8.5C12.5003 10.1569 13.8435 11.5 15.5003 11.5C16.0563 11.4999 16.5745 11.3446 17.0208 11.0811L12.9173 6.97754ZM15.5003 5.5C14.9443 5.5 14.4244 5.65331 13.9779 5.91699L18.0824 10.0215C18.346 9.57504 18.5003 9.05601 18.5003 8.5C18.5003 6.84325 17.1571 5.50017 15.5003 5.5Z" fill="black"/>
</svg>
