<svg width="24" height="24" viewBox="0 0 24 24" fill="none" xmlns="http://www.w3.org/2000/svg">
<path fill-rule="evenodd" clip-rule="evenodd" d="M5.70802 12.001C6.12017 11.9781 6.47387 12.2926 6.49904 12.7041V12.7051C6.49927 12.7081 6.49994 12.7151 6.50099 12.7256C6.50311 12.7468 6.50644 12.7829 6.51369 12.8311C6.5283 12.928 6.5561 13.0741 6.60548 13.252C6.70485 13.6097 6.89088 14.0862 7.23341 14.5605C7.89208 15.4725 9.21822 16.5 12 16.5C14.7818 16.5 16.1079 15.4725 16.7666 14.5605C17.1092 14.0862 17.2952 13.6097 17.3945 13.252C17.4439 13.0741 17.4717 12.928 17.4863 12.8311C17.4936 12.7829 17.4969 12.7468 17.499 12.7256C17.5001 12.7151 17.5008 12.7081 17.501 12.7051V12.7041C17.5262 12.2927 17.8799 11.9782 18.292 12.001C18.7054 12.0241 19.022 12.3785 18.999 12.792L18.25 12.75C18.9529 12.789 18.9964 12.7923 18.999 12.793V12.7959C18.9989 12.7978 18.9982 12.8003 18.9981 12.8027C18.9977 12.8075 18.9976 12.8134 18.9971 12.8203C18.996 12.8343 18.9944 12.8528 18.9922 12.875C18.9877 12.9196 18.98 12.981 18.9688 13.0557C18.9463 13.2047 18.9075 13.4108 18.8399 13.6543C18.7048 14.1403 18.4532 14.789 17.9834 15.4395C17.0949 16.6697 15.5023 17.7992 12.75 17.9736V19.25C12.75 19.6642 12.4142 20 12 20C11.5859 19.9999 11.25 19.6641 11.25 19.25V17.9736C8.49792 17.7991 6.90509 16.6696 6.01662 15.4395C5.54688 14.789 5.29519 14.1402 5.16017 13.6543C5.09254 13.4108 5.05375 13.2047 5.03126 13.0557C5.02001 12.981 5.01229 12.9196 5.00783 12.875C5.00561 12.8528 5.00402 12.8343 5.00294 12.8203C5.00241 12.8134 5.00228 12.8075 5.00197 12.8027C5.00181 12.8003 5.0011 12.7978 5.00099 12.7959V12.793C5.00097 12.7924 5.00429 12.7914 5.75001 12.75L5.00099 12.792C4.97803 12.3786 5.29473 12.0242 5.70802 12.001ZM12 4C14.2092 4 16 5.79086 16 8V11C16 13.2091 14.2092 15 12 15C9.79097 14.9999 8.00001 13.2091 8.00001 11V8C8.00001 5.79093 9.79097 4.00011 12 4ZM12 5.5C10.6194 5.50011 9.50001 6.61935 9.50001 8V11C9.50001 12.3806 10.6194 13.4999 12 13.5C13.3807 13.5 14.5 12.3807 14.5 11V8C14.5 6.61929 13.3807 5.5 12 5.5Z" fill="black"/>
</svg>
