<svg width="24" height="24" viewBox="0 0 24 24" fill="none" xmlns="http://www.w3.org/2000/svg">
<path d="M17.25 4C18.7688 4 20 5.23122 20 6.75V16.25C20 17.5084 19.1537 18.5658 18 18.8926V20H16.5V19H7.5V20H6V18.8926C4.84627 18.5658 4 17.5084 4 16.25V6.75C4 5.23122 5.23122 4 6.75 4H17.25ZM6.75 5.5C6.05964 5.5 5.5 6.05964 5.5 6.75V16.25C5.5 16.9404 6.05964 17.5 6.75 17.5H15V5.5H6.75ZM16.5 17.5H17.25C17.9404 17.5 18.5 16.9404 18.5 16.25V6.75C18.5 6.05964 17.9404 5.5 17.25 5.5H16.5V17.5ZM14.3105 7.75L7.75 14.3105L6.68945 13.25L13.25 6.68945L14.3105 7.75ZM10.3105 7.75L7.75 10.3105L6.68945 9.25L9.25 6.68945L10.3105 7.75Z" fill="black"/>
</svg>
