<svg width="24" height="24" viewBox="0 0 24 24" fill="none" xmlns="http://www.w3.org/2000/svg">
<path d="M12 4C12.4142 4 12.75 4.33579 12.75 4.75V5.35254L18.6719 9.37988C18.8772 9.51952 19 9.75167 19 10V17.25C19 18.7688 17.7688 20 16.25 20H7.75C6.23122 20 5 18.7688 5 17.25V10C5 9.75172 5.12286 9.51953 5.32812 9.37988L11.25 5.35254V4.75C11.25 4.33579 11.5858 4 12 4ZM6.5 17.25C6.5 17.9404 7.05964 18.5 7.75 18.5H16.25C16.9404 18.5 17.5 17.9404 17.5 17.25V11.5H6.5V17.25ZM7.08301 10H16.917L12 6.65625L7.08301 10Z" fill="black"/>
</svg>
