<svg width="24" height="24" viewBox="0 0 24 24" fill="none" xmlns="http://www.w3.org/2000/svg">
<path d="M17.25 4C18.7688 4 20 5.23122 20 6.75V17.25C20 18.7688 18.7688 20 17.25 20H6.75C5.23122 20 4 18.7688 4 17.25V6.75C4 5.23122 5.23122 4 6.75 4H17.25ZM6.75 5.5C6.05964 5.5 5.5 6.05964 5.5 6.75V17.25C5.5 17.9404 6.05964 18.5 6.75 18.5H17.25C17.9404 18.5 18.5 17.9404 18.5 17.25V6.75C18.5 6.05964 17.9404 5.5 17.25 5.5H6.75ZM9 7.25C9.30278 7.25 9.57593 7.43243 9.69238 7.71191L10.6348 9.97266C10.8759 10.5515 11 11.1727 11 11.7998V16.25C11 16.6642 10.6642 17 10.25 17H7.75C7.33579 17 7 16.6642 7 16.25V11.7998C7.00003 11.1727 7.12406 10.5515 7.36523 9.97266L8.30762 7.71191L8.3584 7.61133C8.49283 7.38929 8.7351 7.25 9 7.25ZM16.25 13C16.6642 13 17 13.3358 17 13.75V15.25C17 16.2165 16.2165 17 15.25 17H13.75C12.7835 17 12 16.2165 12 15.25V13.75C12 13.3358 12.3358 13 12.75 13H16.25ZM8.75 10.5498C8.58499 10.9458 8.50003 11.3708 8.5 11.7998V15.5H9.5V11.7998C9.49998 11.4246 9.43528 11.0525 9.30859 10.7002L9.25 10.5498L9 9.94922L8.75 10.5498ZM13.5 15.25C13.5 15.3881 13.6119 15.5 13.75 15.5H15.25C15.3881 15.5 15.5 15.3881 15.5 15.25V14.5H13.5V15.25ZM16.25 10C16.6642 10 17 10.3358 17 10.75C17 11.1642 16.6642 11.5 16.25 11.5H13.75C13.3358 11.5 13 11.1642 13 10.75C13 10.3358 13.3358 10 13.75 10H16.25Z" fill="black"/>
</svg>
