<svg width="24" height="24" viewBox="0 0 24 24" fill="none" xmlns="http://www.w3.org/2000/svg">
<path d="M11.3104 13.75L10.9999 14.0605V18.25C10.9999 18.6642 10.6641 19 10.2499 19C9.83572 18.9999 9.49988 18.6642 9.49988 18.25V15.5605L4.74988 20.3105L3.68933 19.25L8.43933 14.5H5.74988C5.33572 14.4999 4.99988 14.1642 4.99988 13.75C4.99994 13.3359 5.33575 13.0001 5.74988 13H9.93933L10.2499 12.6895L11.3104 13.75ZM20.3104 4.75L15.5604 9.5H18.2499C18.6641 9.5 18.9998 9.83584 18.9999 10.25C18.9999 10.6642 18.6641 11 18.2499 11H14.0604L13.7499 11.3105L12.6893 10.25L12.9999 9.93945V5.75C12.9999 5.33588 13.3358 5.00006 13.7499 5C14.1641 5 14.4998 5.33584 14.4999 5.75V8.43945L19.2499 3.68945L20.3104 4.75Z" fill="black"/>
</svg>
