<svg width="24" height="24" viewBox="0 0 24 24" fill="none" xmlns="http://www.w3.org/2000/svg">
<path d="M7.25 14C8.76878 14 10 15.2312 10 16.75V19.25C10 19.6642 9.66421 20 9.25 20C8.83579 20 8.5 19.6642 8.5 19.25V16.75C8.5 16.0596 7.94036 15.5 7.25 15.5H4.75C4.33579 15.5 4 15.1642 4 14.75C4 14.3358 4.33579 14 4.75 14H7.25ZM19.25 14C19.6642 14 20 14.3358 20 14.75C20 15.1642 19.6642 15.5 19.25 15.5H16.75C16.0596 15.5 15.5 16.0596 15.5 16.75V19.25C15.5 19.6642 15.1642 20 14.75 20C14.3358 20 14 19.6642 14 19.25V16.75C14 15.2312 15.2312 14 16.75 14H19.25ZM9.25 4C9.66421 4 10 4.33579 10 4.75V7.25C10 8.76878 8.76878 10 7.25 10H4.75C4.33579 10 4 9.66421 4 9.25C4 8.83579 4.33579 8.5 4.75 8.5H7.25C7.94036 8.5 8.5 7.94036 8.5 7.25V4.75C8.5 4.33579 8.83579 4 9.25 4ZM14.75 4C15.1642 4 15.5 4.33579 15.5 4.75V7.25C15.5 7.94036 16.0596 8.5 16.75 8.5H19.25C19.6642 8.5 20 8.83579 20 9.25C20 9.66421 19.6642 10 19.25 10H16.75C15.2312 10 14 8.76878 14 7.25V4.75C14 4.33579 14.3358 4 14.75 4Z" fill="black"/>
</svg>
