<svg width="24" height="24" viewBox="0 0 24 24" fill="none" xmlns="http://www.w3.org/2000/svg">
<path d="M5.5 17.25C5.5 17.9404 6.05964 18.5 6.75 18.5H17.25C17.9404 18.5 18.5 17.9404 18.5 17.25V14H20V17.25C20 18.7688 18.7688 20 17.25 20H6.75C5.23122 20 4 18.7688 4 17.25V14H5.5V17.25ZM20 12.75H4V11.25H20V12.75ZM17.25 4C18.7688 4 20 5.23122 20 6.75V10H18.5V6.75C18.5 6.05964 17.9404 5.5 17.25 5.5H6.75C6.05964 5.5 5.5 6.05964 5.5 6.75V10H4V6.75C4 5.23122 5.23122 4 6.75 4H17.25Z" fill="black"/>
</svg>
