<svg width="24" height="24" viewBox="0 0 24 24" fill="none" xmlns="http://www.w3.org/2000/svg">
<path d="M12.75 20H11.25V4H12.75V20ZM9 6.5H6.75C6.05964 6.5 5.5 7.05964 5.5 7.75V16.25C5.5 16.9404 6.05964 17.5 6.75 17.5H9V19H6.75C5.23122 19 4 17.7688 4 16.25V7.75C4 6.23122 5.23122 5 6.75 5H9V6.5ZM16 19H14V17.5H16V19ZM20 17.25C20 18.2165 19.2165 19 18.25 19H17V17.5H18.25C18.3881 17.5 18.5 17.3881 18.5 17.25V16H20V17.25ZM20 14H18.5V12H20V14ZM20 11H18.5V9H20V11ZM18.25 5C19.2165 5 20 5.7835 20 6.75V8H18.5V6.75C18.5 6.61193 18.3881 6.5 18.25 6.5H17V5H18.25ZM16 6.5H14V5H16V6.5Z" fill="black"/>
</svg>
