<svg width="24" height="24" viewBox="0 0 24 24" fill="none" xmlns="http://www.w3.org/2000/svg">
<path d="M14 3.99976C14.238 3.99976 14.4621 4.11299 14.6035 4.30444C14.7448 4.49586 14.7868 4.74308 14.7168 4.97046C14.5774 5.42346 14.5464 5.89275 14.6074 6.35425C14.636 6.33122 14.6648 6.30701 14.6943 6.28394C15.469 5.67774 16.6316 4.99976 18 4.99976C18.4141 4.99976 18.7499 5.33567 18.75 5.74976C18.75 6.16397 18.4142 6.49976 18 6.49976C17.1186 6.49976 16.281 6.94686 15.6182 7.46558C15.4469 7.59964 15.2928 7.73401 15.1592 7.85913C15.4582 8.33948 15.8614 8.77307 16.3525 9.11694C17.2656 9.75626 18.1607 10.7623 18.8271 11.8005C19.4796 12.8171 20 13.9992 20 14.9998C20 16.8388 18.9741 18.1273 17.4727 18.9138C16.0088 19.6806 14.0591 19.9998 12 19.9998C9.94087 19.9998 7.99124 19.6805 6.52734 18.9138C5.02588 18.1274 4 16.8388 4 14.9998C4.00009 13.9992 4.52041 12.817 5.17285 11.8005C5.8393 10.7623 6.7344 9.75626 7.64746 9.11694C9.03797 8.14339 9.74353 6.46678 9.2832 4.97046C9.21324 4.74308 9.25525 4.49586 9.39648 4.30444C9.53789 4.11299 9.76199 3.99976 10 3.99976H14ZM13.71 8.86011C13.3414 8.93381 12.791 8.99976 12 8.99976C11.209 8.99976 10.6586 8.93381 10.29 8.86011C10.1855 8.83918 10.0956 8.81663 10.0186 8.79565C9.61712 9.39761 9.10311 9.92867 8.50781 10.3455C7.79399 10.8452 7.02512 11.691 6.43457 12.6111C5.83019 13.5528 5.50011 14.4355 5.5 14.9998C5.5 16.1606 6.09923 16.9972 7.22266 17.5857C8.38375 18.1938 10.0592 18.4998 12 18.4998C13.9408 18.4998 15.6163 18.1939 16.7773 17.5857C17.9008 16.9972 18.5 16.1606 18.5 14.9998C18.5 14.4355 18.1698 13.5528 17.5654 12.6111C16.9749 11.691 16.206 10.8452 15.4922 10.3455C14.8967 9.92858 14.382 9.39778 13.9805 8.79565C13.9036 8.81655 13.8141 8.83926 13.71 8.86011ZM10.9062 5.49976C10.9642 6.15263 10.8841 6.7973 10.6914 7.40698C10.9591 7.4526 11.3804 7.49976 12 7.49976C12.6188 7.49976 13.0399 7.45255 13.3076 7.40698C13.115 6.79739 13.0358 6.15253 13.0938 5.49976H10.9062Z" fill="black"/>
</svg>
