<svg width="24" height="24" viewBox="0 0 24 24" fill="none" xmlns="http://www.w3.org/2000/svg">
<path d="M17.25 6C18.7688 6 20 7.23122 20 8.75V15.25C20 16.7688 18.7688 18 17.25 18H6.75C5.23122 18 4 16.7688 4 15.25V8.75C4 7.23122 5.23122 6 6.75 6H17.25ZM5.5 15.25C5.5 15.9404 6.05964 16.5 6.75 16.5H6.98047C6.87076 15.7338 6.26622 15.1292 5.5 15.0195V15.25ZM8.48926 7.5C8.36784 9.09552 7.09552 10.3678 5.5 10.4893V13.5098C7.09556 13.6312 8.36784 14.9045 8.48926 16.5H15.5107C15.6322 14.9045 16.9044 13.6312 18.5 13.5098V10.4893C16.9045 10.3678 15.6322 9.09552 15.5107 7.5H8.48926ZM18.5 15.0195C17.7338 15.1292 17.1292 15.7338 17.0195 16.5H17.25C17.9404 16.5 18.5 15.9404 18.5 15.25V15.0195ZM12 8C12.937 8 13.7057 8.54978 14.208 9.27539C14.7122 10.0039 15 10.9695 15 12C15 13.0305 14.7122 13.9961 14.208 14.7246C13.7057 15.4502 12.937 16 12 16C11.063 16 10.2943 15.4502 9.79199 14.7246C9.2878 13.9961 9 13.0305 9 12C9 10.9695 9.2878 10.0039 9.79199 9.27539C10.2943 8.54978 11.063 8 12 8ZM12 9.5C11.6944 9.5 11.3374 9.67825 11.0254 10.1289C10.7155 10.5766 10.5 11.2359 10.5 12C10.5 12.7641 10.7155 13.4234 11.0254 13.8711C11.3374 14.3218 11.6944 14.5 12 14.5C12.3056 14.5 12.6626 14.3218 12.9746 13.8711C13.2845 13.4234 13.5 12.7641 13.5 12C13.5 11.2359 13.2845 10.5766 12.9746 10.1289C12.6626 9.67825 12.3056 9.5 12 9.5ZM17.0195 7.5C17.1292 8.26617 17.7338 8.86973 18.5 8.97949V8.75C18.5 8.05964 17.9404 7.5 17.25 7.5H17.0195ZM6.75 7.5C6.05964 7.5 5.5 8.05964 5.5 8.75V8.97949C6.26615 8.86973 6.87076 8.26617 6.98047 7.5H6.75Z" fill="black"/>
</svg>
