<svg width="24" height="24" viewBox="0 0 24 24" fill="none" xmlns="http://www.w3.org/2000/svg">
<path d="M17.25 4C18.7688 4 20 5.23122 20 6.75V14.25C20 15.7688 18.7688 17 17.25 17H13.0254L15.6436 18.6113C15.996 18.8285 16.1057 19.2909 15.8887 19.6436C15.6715 19.996 15.2091 20.1057 14.8564 19.8887L12 18.1309L9.14355 19.8887C8.79091 20.1057 8.32851 19.996 8.11133 19.6436C7.89432 19.2909 8.00398 18.8285 8.35645 18.6113L10.9746 17H6.75C5.23122 17 4 15.7688 4 14.25V6.75C4 5.23122 5.23122 4 6.75 4H17.25ZM6.75 5.5C6.05964 5.5 5.5 6.05964 5.5 6.75V14.25C5.5 14.9404 6.05964 15.5 6.75 15.5H17.25C17.9404 15.5 18.5 14.9404 18.5 14.25V6.75C18.5 6.05964 17.9404 5.5 17.25 5.5H6.75Z" fill="black"/>
</svg>
