<svg width="24" height="24" viewBox="0 0 24 24" fill="none" xmlns="http://www.w3.org/2000/svg">
<path d="M17.25 4C18.7688 4 20 5.23122 20 6.75V13.25C20 14.7688 18.7688 16 17.25 16H15.0078C15.024 16.2145 15.0534 16.4611 15.1084 16.7178C15.2767 17.5033 15.6359 18.2294 16.335 18.5791C16.646 18.7346 16.8092 19.0834 16.7295 19.4219C16.6496 19.7604 16.3478 20 16 20H8C7.65217 20 7.35042 19.7604 7.27051 19.4219C7.19077 19.0834 7.35402 18.7346 7.66504 18.5791C8.3641 18.2294 8.72327 17.5033 8.8916 16.7178C8.94659 16.4611 8.97595 16.2145 8.99219 16H6.75C5.23122 16 4 14.7688 4 13.25V6.75C4 5.23122 5.23122 4 6.75 4H17.25ZM10.4961 16C10.4784 16.2943 10.44 16.6514 10.3584 17.0322C10.2612 17.4857 10.0939 18.0066 9.81055 18.5H14.1895C13.9061 18.0066 13.7388 17.4857 13.6416 17.0322C13.56 16.6514 13.5216 16.2943 13.5039 16H10.4961ZM6.75 5.5C6.05964 5.5 5.5 6.05964 5.5 6.75V13.25C5.5 13.9404 6.05964 14.5 6.75 14.5H17.25C17.9404 14.5 18.5 13.9404 18.5 13.25V6.75C18.5 6.05964 17.9404 5.5 17.25 5.5H6.75Z" fill="black"/>
</svg>
