<svg width="24" height="24" viewBox="0 0 24 24" fill="none" xmlns="http://www.w3.org/2000/svg">
<path d="M7.89746 5.08789C8.18866 4.93284 8.54699 4.98644 8.78027 5.21973C9.01356 5.45301 9.06716 5.81134 8.91211 6.10254C8.47745 6.91865 8.5 7.71336 8.5 9C8.5 12.5899 11.4101 15.5 15 15.5C16.2866 15.5 17.0813 15.5226 17.8975 15.0879C18.1887 14.9328 18.547 14.9864 18.7803 15.2197C19.0136 15.453 19.0672 15.8113 18.9121 16.1025C17.5443 18.6708 15.0093 20 12 20C7.58172 20 4 16.4183 4 12C4.00001 8.99073 5.32919 6.45573 7.89746 5.08789ZM7.0166 7.64453C6.02542 8.75009 5.50001 10.2405 5.5 12C5.5 15.5899 8.41015 18.5 12 18.5C13.7595 18.5 15.2489 17.9736 16.3545 16.9824C15.8985 17.0075 15.4462 17 15 17C10.5817 17 7 13.4183 7 9C7 8.55351 6.99144 8.10086 7.0166 7.64453ZM16 4C16.4142 4 16.75 4.33579 16.75 4.75C16.75 5.7507 16.9877 6.65327 17.416 7.28125C17.8251 7.88091 18.4148 8.25 19.25 8.25C19.6642 8.25 20 8.58579 20 9C20 9.41421 19.6642 9.75 19.25 9.75C18.4148 9.75 17.8251 10.1191 17.416 10.7188C16.9877 11.3467 16.75 12.2493 16.75 13.25C16.75 13.6642 16.4142 14 16 14C15.5858 14 15.25 13.6642 15.25 13.25C15.25 12.2493 15.0123 11.3467 14.584 10.7188C14.1749 10.1191 13.5852 9.75 12.75 9.75C12.3358 9.75 12 9.41421 12 9C12 8.58579 12.3358 8.25 12.75 8.25C13.5852 8.25 14.1749 7.88091 14.584 7.28125C15.0123 6.65327 15.25 5.7507 15.25 4.75C15.25 4.33579 15.5858 4 16 4ZM15.8232 8.12598C15.5951 8.46039 15.3215 8.75501 15.0068 9C15.3215 9.24499 15.5951 9.53961 15.8232 9.87402C15.886 9.96598 15.9441 10.0613 16 10.1582C16.0559 10.0613 16.114 9.96598 16.1768 9.87402C16.4047 9.53982 16.6778 9.2449 16.9922 9C16.6778 8.7551 16.4047 8.46018 16.1768 8.12598C16.1139 8.03379 16.0561 7.93803 16 7.84082C15.9439 7.93803 15.8861 8.03379 15.8232 8.12598Z" fill="black"/>
</svg>
