<svg width="24" height="24" viewBox="0 0 24 24" fill="none" xmlns="http://www.w3.org/2000/svg">
<path fill-rule="evenodd" clip-rule="evenodd" d="M10.1387 4.01869C10.4165 3.9554 10.7066 4.05569 10.8867 4.2765C11.0666 4.49722 11.1059 4.80038 10.9883 5.05971C10.6023 5.90975 10.3857 6.86127 10.3857 7.86732C10.3858 11.5292 13.2467 14.4532 16.7207 14.4533C17.1891 14.4533 17.6449 14.3997 18.083 14.2999C18.3609 14.2366 18.6509 14.3369 18.8311 14.5578C19.0111 14.7786 19.0504 15.0825 18.9326 15.3419C17.6884 18.082 14.987 20.0001 11.835 20.0001C7.48367 20.0001 4 16.355 4 11.9142C4.00014 8.06622 6.61072 4.82252 10.1387 4.01869ZM9.10449 5.97182C6.98173 7.02856 5.50012 9.28251 5.5 11.9142C5.5 15.5762 8.36085 18.5001 11.835 18.5001C13.8628 18.5001 15.6777 17.5068 16.8408 15.9494C16.8009 15.95 16.7608 15.9533 16.7207 15.9533C12.3695 15.9532 8.8858 12.308 8.88574 7.86732C8.88574 7.21507 8.96276 6.58043 9.10449 5.97182Z" fill="black"/>
</svg>
