<svg width="24" height="24" viewBox="0 0 24 24" fill="none" xmlns="http://www.w3.org/2000/svg">
<path fill-rule="evenodd" clip-rule="evenodd" d="M9.00002 16C10.7171 16 11.9518 16.7273 12.7442 17.4443C13.138 17.8008 13.4256 18.1567 13.6162 18.4258C13.7118 18.5607 13.7842 18.6751 13.834 18.7588C13.8589 18.8006 13.8786 18.8349 13.8926 18.8604C13.8995 18.8729 13.9049 18.8835 13.9092 18.8916C13.9114 18.8957 13.9136 18.8995 13.9151 18.9023C13.9158 18.9037 13.9164 18.9051 13.917 18.9062V18.9082H13.918C13.9182 18.9085 13.9181 18.9093 13.25 19.25L13.918 18.9092C14.1062 19.2781 13.9597 19.7297 13.5908 19.918C13.2228 20.1057 12.7721 19.9607 12.583 19.5938C12.5823 19.5924 12.5812 19.5885 12.5781 19.583C12.572 19.5718 12.5606 19.5527 12.5449 19.5264C12.5134 19.4733 12.4629 19.3922 12.3926 19.293C12.2512 19.0934 12.0339 18.824 11.7373 18.5557C11.1484 18.0228 10.2577 17.5 9.00002 17.5C7.74233 17.5 6.85162 18.0228 6.26271 18.5557C5.96615 18.824 5.74881 19.0934 5.60744 19.293C5.53715 19.3922 5.48664 19.4733 5.45509 19.5264C5.43942 19.5527 5.42803 19.5718 5.42189 19.583C5.41995 19.5865 5.418 19.589 5.41701 19.5908C5.22866 19.9594 4.77802 20.1061 4.4092 19.918C4.04031 19.7297 3.89389 19.2781 4.08205 18.9092L4.75002 19.25C4.08696 18.9118 4.08192 18.9086 4.08205 18.9082H4.08302V18.9062C4.0836 18.9051 4.08425 18.9037 4.08498 18.9023C4.08647 18.8995 4.08868 18.8957 4.09084 18.8916C4.09513 18.8835 4.10054 18.8729 4.10744 18.8604C4.12141 18.8349 4.14114 18.8006 4.16603 18.7588C4.2158 18.6751 4.28823 18.5607 4.38381 18.4258C4.5744 18.1567 4.86206 17.8008 5.25588 17.4443C6.04821 16.7273 7.2829 16 9.00002 16ZM9.00002 9C10.6569 9 12 10.3431 12 12C12 13.6569 10.6569 15 9.00002 15C7.34317 15 6.00002 13.6568 6.00002 12C6.00002 10.3432 7.34317 9.00001 9.00002 9ZM9.00002 10.5C8.1716 10.5 7.50002 11.1716 7.50002 12C7.50002 12.8284 8.1716 13.5 9.00002 13.5C9.82844 13.5 10.5 12.8284 10.5 12C10.5 11.1716 9.82844 10.5 9.00002 10.5ZM12.75 4C13.1642 4 13.5 4.33579 13.5 4.75V5C13.5 8.03756 15.9625 10.5 19 10.5H19.25C19.6642 10.5 20 10.8358 20 11.25C20 11.6642 19.6642 12 19.25 12H19C15.134 12 12 8.86598 12 5V4.75C12 4.33579 12.3358 4.00001 12.75 4ZM16.75 4C17.1642 4 17.5 4.33579 17.5 4.75V5C17.5 5.82842 18.1716 6.49999 19 6.5H19.25C19.6642 6.5 20 6.83579 20 7.25C20 7.66421 19.6642 8 19.25 8H19C17.3432 7.99999 16 6.65685 16 5V4.75C16 4.33579 16.3358 4.00001 16.75 4Z" fill="black"/>
</svg>
