<svg width="24" height="24" viewBox="0 0 24 24" fill="none" xmlns="http://www.w3.org/2000/svg">
<path fill-rule="evenodd" clip-rule="evenodd" d="M13.0156 4.00016C13.3092 4.00644 13.5722 4.18369 13.6885 4.45329L19.9385 18.9533C20.0384 19.185 20.0155 19.4515 19.877 19.6623C19.7383 19.8731 19.5024 20.0002 19.25 20.0002H4.75001C4.50078 20.0002 4.26738 19.8766 4.12794 19.6701C3.98862 19.4634 3.96133 19.2 4.0547 18.9689L6.45119 13.049C6.91334 11.9078 7.95032 11.3351 8.98927 11.3312L12.3242 4.42399L12.3789 4.32927C12.5201 4.1208 12.7591 3.99482 13.0156 4.00016ZM10.458 11.7404C10.9214 12.0265 11.3113 12.4625 11.5488 13.049L13.7559 18.5002H18.1104L12.961 6.55485L10.458 11.7404ZM10.1582 13.6125C9.73672 12.5711 8.26331 12.5711 7.84181 13.6125L5.86329 18.5002H12.1367L10.1582 13.6125Z" fill="black"/>
</svg>
