<svg width="24" height="24" viewBox="0 0 24 24" fill="none" xmlns="http://www.w3.org/2000/svg">
<path d="M13.75 4C15.8211 4 17.5 5.67893 17.5 7.75V17.25C17.5 17.9404 18.0596 18.5 18.75 18.5H19.25C19.6642 18.5 20 18.8358 20 19.25C20 19.6642 19.6642 20 19.25 20H18.75C17.2312 20 16 18.7688 16 17.25V7.75C16 6.50736 14.9926 5.5 13.75 5.5H12C11.0207 5.5 10.19 6.12657 9.88086 7H10.25C12.3211 7 14 8.67893 14 10.75V16.25C14 18.3211 12.3211 20 10.25 20H7.75C5.67893 20 4 18.3211 4 16.25V10.75C4 8.67893 5.67893 7 7.75 7H8.3252C8.67266 5.28834 10.1858 4 12 4H13.75ZM7.75 8.5C6.50736 8.5 5.5 9.50736 5.5 10.75V16.25C5.5 17.4926 6.50736 18.5 7.75 18.5H10.25C11.4926 18.5 12.5 17.4926 12.5 16.25V10.75C12.5 9.50736 11.4926 8.5 10.25 8.5H9.75V11.25C9.75 11.6642 9.41421 12 9 12C8.58579 12 8.25 11.6642 8.25 11.25V8.5H7.75Z" fill="black"/>
</svg>
