<svg width="24" height="24" viewBox="0 0 24 24" fill="none" xmlns="http://www.w3.org/2000/svg">
<path d="M12 4C12.2225 4 12.4337 4.09865 12.5762 4.26953L13.8262 5.76953C14.0125 5.99309 14.0521 6.30482 13.9287 6.56836C13.8052 6.83168 13.5409 7 13.25 7H12.75V11.25H17V10.75C17 10.4591 17.1683 10.1948 17.4316 10.0713C17.6952 9.94785 18.0069 9.98753 18.2305 10.1738L19.7305 11.4238C19.9013 11.5663 20 11.7775 20 12C20 12.2225 19.9013 12.4337 19.7305 12.5762L18.2305 13.8262C18.0069 14.0125 17.6952 14.0521 17.4316 13.9287C17.1683 13.8052 17 13.5409 17 13.25V12.75H12.75V17H13.25C13.5409 17 13.8052 17.1683 13.9287 17.4316C14.0521 17.6952 14.0125 18.0069 13.8262 18.2305L12.5762 19.7305C12.5634 19.7458 12.549 19.7593 12.5352 19.7734C12.5323 19.7764 12.5293 19.7793 12.5264 19.7822C12.496 19.8123 12.4634 19.8391 12.4287 19.8633C12.422 19.868 12.4151 19.8724 12.4082 19.877C12.3735 19.8995 12.3377 19.92 12.2998 19.9365C12.2927 19.9396 12.2855 19.9424 12.2783 19.9453C12.2388 19.9611 12.1981 19.9735 12.1562 19.9824C12.1058 19.9931 12.0537 20 12 20C11.946 20 11.8935 19.9933 11.8428 19.9824C11.8009 19.9735 11.7602 19.9611 11.7207 19.9453C11.7135 19.9424 11.7063 19.9396 11.6992 19.9365C11.6614 19.92 11.6255 19.8996 11.5908 19.877C11.5839 19.8724 11.577 19.868 11.5703 19.8633C11.5357 19.8391 11.503 19.8123 11.4727 19.7822C11.4697 19.7793 11.4668 19.7764 11.4639 19.7734C11.4502 19.7595 11.4364 19.7456 11.4238 19.7305L10.1738 18.2305C9.98753 18.0069 9.94785 17.6952 10.0713 17.4316C10.1948 17.1683 10.4591 17 10.75 17H11.25V12.75H7V13.25C7 13.5409 6.83168 13.8052 6.56836 13.9287C6.30482 14.0521 5.99309 14.0125 5.76953 13.8262L4.26953 12.5762C4.25406 12.5633 4.23985 12.5491 4.22559 12.5352C4.22262 12.5323 4.21971 12.5293 4.2168 12.5264C4.18683 12.496 4.15989 12.4633 4.13574 12.4287C4.13103 12.422 4.12656 12.4151 4.12207 12.4082C4.09954 12.3735 4.07899 12.3377 4.0625 12.2998C4.05941 12.2927 4.05659 12.2855 4.05371 12.2783C4.03796 12.2389 4.0255 12.1981 4.0166 12.1562C4.00591 12.1058 4 12.0536 4 12C4 11.9461 4.00578 11.8935 4.0166 11.8428C4.02554 11.801 4.03791 11.7601 4.05371 11.7207C4.0554 11.7165 4.05683 11.7122 4.05859 11.708L4.07031 11.6816C4.08508 11.6501 4.10302 11.6201 4.12207 11.5908C4.12657 11.5839 4.13103 11.577 4.13574 11.5703C4.17343 11.5164 4.21797 11.4668 4.26953 11.4238L5.76953 10.1738C5.99309 9.98753 6.30482 9.94785 6.56836 10.0713C6.83168 10.1948 7 10.4591 7 10.75V11.25H11.25V7H10.75C10.4591 7 10.1948 6.83168 10.0713 6.56836C9.94785 6.30482 9.98753 5.99309 10.1738 5.76953L11.4238 4.26953L11.4805 4.20898C11.6194 4.07559 11.8053 4 12 4Z" fill="black"/>
</svg>
