<svg width="24" height="24" viewBox="0 0 24 24" fill="none" xmlns="http://www.w3.org/2000/svg">
<path d="M19.25 5C19.6642 5 20 5.33579 20 5.75V16.25C20 17.7688 18.7688 19 17.25 19H9.75C8.23122 19 7 17.7688 7 16.25V16H6.75C5.23122 16 4 14.7688 4 13.25V10.75C4 9.23122 5.23122 8 6.75 8H7V5.75C7 5.33579 7.33579 5 7.75 5H19.25ZM8.5 16.25C8.5 16.9404 9.05964 17.5 9.75 17.5H17.25C17.9404 17.5 18.5 16.9404 18.5 16.25V6.5H8.5V16.25ZM6.75 9.5C6.05964 9.5 5.5 10.0596 5.5 10.75V13.25C5.5 13.9404 6.05964 14.5 6.75 14.5H7V9.5H6.75Z" fill="black"/>
</svg>
