<svg width="24" height="24" viewBox="0 0 24 24" fill="none" xmlns="http://www.w3.org/2000/svg">
<path d="M19.25 8C19.6642 8 20 8.33579 20 8.75V17.25C20 18.7688 18.7688 20 17.25 20H9.75C8.23122 20 7 18.7688 7 17.25V17H6.75C5.23122 17 4 15.7688 4 14.25V12.75C4 11.2312 5.23122 10 6.75 10H7V8.75C7 8.33579 7.33579 8 7.75 8H19.25ZM8.5 17.25C8.5 17.9404 9.05964 18.5 9.75 18.5H17.25C17.9404 18.5 18.5 17.9404 18.5 17.25V9.5H8.5V17.25ZM6.75 11.5C6.05964 11.5 5.5 12.0596 5.5 12.75V14.25C5.5 14.9404 6.05964 15.5 6.75 15.5H7V11.5H6.75ZM8.25 4.48438C8.25012 4.02085 8.25052 4.00086 8.25098 4H8.27148C8.2795 4.0002 8.28873 4.00047 8.29883 4.00098C8.31938 4.00201 8.34442 4.00377 8.37305 4.00684C8.43009 4.01295 8.50342 4.02479 8.58789 4.0459C8.75633 4.08801 8.9787 4.17177 9.2002 4.33789C9.67765 4.69614 10 5.31721 10 6.25V7H8.5V6.25C8.5 5.68299 8.32218 5.55389 8.2998 5.53711C8.27152 5.51598 8.24359 5.50575 8.22461 5.50098C8.22251 5.50045 8.22034 5.50034 8.21875 5.5H7.5V4H8.25V4.48438ZM14 7H12.5V4H14V7ZM18.25 4.48438V4H19V5.5H18.2812C18.2797 5.50034 18.2775 5.50045 18.2754 5.50098C18.2564 5.50575 18.2285 5.51598 18.2002 5.53711C18.1778 5.55389 18 5.68299 18 6.25V7H16.5V6.25C16.5 5.31721 16.8224 4.69614 17.2998 4.33789C17.5213 4.17177 17.7437 4.08801 17.9121 4.0459C17.9966 4.02479 18.0699 4.01295 18.127 4.00684C18.1556 4.00377 18.1806 4.00201 18.2012 4.00098C18.2113 4.00047 18.2205 4.0002 18.2285 4H18.249C18.2495 4.00086 18.2499 4.02085 18.25 4.48438Z" fill="black"/>
</svg>
