<svg width="24" height="24" viewBox="0 0 24 24" fill="none" xmlns="http://www.w3.org/2000/svg">
<path d="M19.25 18.5C19.6642 18.5 20 18.8358 20 19.25C20 19.6642 19.6642 20 19.25 20H4.75C4.33579 20 4 19.6642 4 19.25C4 18.8358 4.33579 18.5 4.75 18.5H19.25ZM19.25 4C19.6642 4 20 4.33579 20 4.75V14.25C20 15.7688 18.7688 17 17.25 17H9.75C8.23122 17 7 15.7688 7 14.25V14H6.75C5.23122 14 4 12.7688 4 11.25V8.75C4 7.23122 5.23122 6 6.75 6H7V4.75C7 4.33579 7.33579 4 7.75 4H19.25ZM8.5 14.25C8.5 14.9404 9.05964 15.5 9.75 15.5H17.25C17.9404 15.5 18.5 14.9404 18.5 14.25V5.5H8.5V14.25ZM6.75 7.5C6.05964 7.5 5.5 8.05964 5.5 8.75V11.25C5.5 11.9404 6.05964 12.5 6.75 12.5H7V7.5H6.75Z" fill="black"/>
</svg>
