<svg width="24" height="24" viewBox="0 0 24 24" fill="none" xmlns="http://www.w3.org/2000/svg">
<path d="M12.8125 4C13.8182 4 14.7434 4.54919 15.2256 5.43164L16.085 7H17.25C18.7688 7 20 8.23122 20 9.75V14.25C20 15.7688 18.7688 17 17.25 17H17V17.25C17 18.7688 15.7688 20 14.25 20H6.75C5.23122 20 4 18.7688 4 17.25V9.75C4 8.23122 5.23122 7 6.75 7H7V6.75C7 5.23122 8.23122 4 9.75 4H12.8125ZM5.5 17.25C5.5 17.9404 6.05964 18.5 6.75 18.5H14.25C14.9404 18.5 15.5 17.9404 15.5 17.25V12.75C15.5 12.0596 14.9404 11.5 14.25 11.5H5.5V17.25ZM9.75 5.5C9.05964 5.5 8.5 6.05964 8.5 6.75V7H9.8125C10.8182 7 11.7434 7.54919 12.2256 8.43164L13.085 10H14.25C15.7688 10 17 11.2312 17 12.75V15.5H17.25C17.9404 15.5 18.5 14.9404 18.5 14.25V9.75C18.5 9.05964 17.9404 8.5 17.25 8.5H15.6406C15.3666 8.5 15.114 8.35068 14.9824 8.11035L13.9111 6.15234L13.9102 6.15137C13.6911 5.74981 13.2699 5.5 12.8125 5.5H9.75ZM6.75 8.5C6.05964 8.5 5.5 9.05964 5.5 9.75V10H11.375L10.9111 9.15234L10.9102 9.15137C10.6911 8.74981 10.2699 8.5 9.8125 8.5H6.75Z" fill="black"/>
</svg>
