<svg width="24" height="24" viewBox="0 0 24 24" fill="none" xmlns="http://www.w3.org/2000/svg">
<path d="M11.25 4C13.1203 4 14.5732 4.43576 15.6914 5.12793C16.8075 5.81886 17.5476 6.73902 18.0352 7.64453C18.5205 8.54592 18.76 9.4391 18.8789 10.1016C18.9386 10.4344 18.9691 10.7139 18.9844 10.9131C18.992 11.0128 18.996 11.0933 18.998 11.1504C18.9991 11.1788 18.9997 11.202 19 11.2188V11.249C19 11.2495 19 11.25 18.25 11.25H19C19 11.6642 18.6642 12 18.25 12C17.8358 12 17.5 11.6642 17.5 11.25C17.5 11.2487 17.5 11.2466 17.5 11.2441C17.4999 11.2363 17.4997 11.2228 17.499 11.2041C17.4977 11.166 17.4943 11.1063 17.4883 11.0283C17.4763 10.8721 17.4519 10.6435 17.4023 10.3672C17.3025 9.81093 17.1044 9.07895 16.7148 8.35547C16.3275 7.63602 15.7549 6.93113 14.9023 6.40332C14.1884 5.96134 13.2476 5.62595 12 5.5293V16.5C12 18.433 10.433 20 8.5 20C6.567 20 5 18.433 5 16.5C5 14.567 6.567 13 8.5 13C9.24374 13 9.93303 13.2324 10.5 13.6279V4.75C10.5 4.33579 10.8358 4 11.25 4ZM8.5 14.5C7.39543 14.5 6.5 15.3954 6.5 16.5C6.5 17.6046 7.39543 18.5 8.5 18.5C9.60457 18.5 10.5 17.6046 10.5 16.5C10.5 15.3954 9.60457 14.5 8.5 14.5Z" fill="black"/>
</svg>
