<svg width="24" height="24" viewBox="0 0 24 24" fill="none" xmlns="http://www.w3.org/2000/svg">
<path fill-rule="evenodd" clip-rule="evenodd" d="M12.0002 4C12.2996 4.00009 12.5702 4.17825 12.6887 4.45312L18.9387 18.9531C19.0659 19.2482 18.9908 19.5914 18.7522 19.8066C18.5135 20.0218 18.1645 20.0612 17.884 19.9043L12.0002 16.6094L6.11645 19.9043C5.83605 20.0612 5.48701 20.0218 5.24829 19.8066C5.00959 19.5914 4.93454 19.2483 5.06177 18.9531L11.3118 4.45312L11.3625 4.35449C11.4979 4.13624 11.7383 4 12.0002 4ZM7.3147 17.5137L11.634 15.0957L11.7209 15.0537C11.9297 14.97 12.1672 14.9842 12.3665 15.0957L16.6848 17.5137L12.0002 6.64355L7.3147 17.5137Z" fill="black"/>
</svg>
