<svg width="24" height="24" viewBox="0 0 24 24" fill="none" xmlns="http://www.w3.org/2000/svg">
<path fill-rule="evenodd" clip-rule="evenodd" d="M16.7179 4.03149C17.6061 3.90738 18.4535 4.153 19.1505 4.84984C19.8474 5.54675 20.0929 6.39422 19.9688 7.28246C19.8511 8.12509 19.4086 8.96561 18.8233 9.75902C17.6496 11.3501 15.7084 13.0081 13.7003 14.4895C11.6782 15.9811 9.52919 17.3359 7.89071 18.3157C7.07045 18.8061 6.37524 19.2041 5.88485 19.4797C5.63985 19.6174 5.44591 19.725 5.31258 19.7981C5.2459 19.8346 5.19431 19.8631 5.15926 19.8821C5.14183 19.8915 5.12836 19.8986 5.11922 19.9036C5.11466 19.906 5.1109 19.9081 5.10848 19.9094C5.10736 19.91 5.10618 19.9101 5.10555 19.9104L5.10457 19.9114C4.81312 20.0676 4.45365 20.0143 4.21981 19.7805C3.98605 19.5467 3.9327 19.1872 4.08895 18.8957L4.08993 18.8948C4.09025 18.8941 4.0903 18.893 4.0909 18.8918C4.09221 18.8894 4.09431 18.8856 4.09676 18.8811C4.10169 18.8719 4.1088 18.8585 4.11825 18.8411C4.13724 18.806 4.16568 18.7544 4.20223 18.6877C4.27532 18.5544 4.3829 18.3605 4.52059 18.1155C4.79622 17.6251 5.19419 16.9299 5.68465 16.1096C6.66438 14.4711 8.0192 12.3222 9.51082 10.3C9.83491 9.8607 10.1695 9.42578 10.5079 9.00024H9.11532C7.44705 9.0002 5.90055 8.12497 5.04207 6.69457L4.10653 5.13598C3.89377 4.78086 4.00932 4.31972 4.36434 4.10668C4.71944 3.89383 5.18055 4.00951 5.39364 4.36449L6.32821 5.92211C6.91554 6.901 7.97376 7.5002 9.11532 7.50024H11.7696C12.5892 6.58712 13.4228 5.78009 14.2403 5.17699C15.0339 4.59162 15.8751 4.14928 16.7179 4.03149ZM16.7501 14.0002C17.1643 14.0002 17.5 14.3361 17.5001 14.7502V14.7737C17.5002 15.9783 18.0119 17.1269 18.9073 17.9329L19.752 18.6926C20.0599 18.9697 20.0848 19.4443 19.8077 19.7522C19.5306 20.06 19.056 20.0849 18.7481 19.8079L17.9034 19.0471C16.6921 17.9567 16.0002 16.4035 16.0001 14.7737V14.7502C16.0001 14.3361 16.336 14.0003 16.7501 14.0002ZM16.9249 5.51684C16.4367 5.58521 15.8337 5.86561 15.1309 6.38402C14.7117 6.69332 14.2801 7.07102 13.8409 7.50024H15.4395L15.7198 7.21996C16.0127 6.92711 16.4875 6.92718 16.7804 7.21996C17.0732 7.51286 17.0732 7.98762 16.7804 8.28051L16.2804 8.78051C16.1397 8.92116 15.949 9.00024 15.7501 9.00024H12.4493C11.8687 9.67917 11.2862 10.4193 10.7179 11.1897C9.26561 13.1584 7.93822 15.2628 6.97176 16.8791C6.89791 17.0027 6.82736 17.124 6.75789 17.2414C6.87542 17.1719 6.99755 17.1025 7.12118 17.0286C8.73752 16.0621 10.8419 14.7347 12.8106 13.2825C14.7934 11.8198 16.582 10.2705 17.6163 8.8684C18.1347 8.16556 18.4153 7.56258 18.4835 7.07445C18.5452 6.63192 18.4398 6.26022 18.0899 5.91039C17.74 5.56054 17.3676 5.45497 16.9249 5.51684Z" fill="black"/>
</svg>
