<svg width="24" height="24" viewBox="0 0 24 24" fill="none" xmlns="http://www.w3.org/2000/svg">
<path d="M12 16C13.1046 16 14 16.8954 14 18C14 19.1046 13.1046 20 12 20C10.8954 20 10 19.1046 10 18C10 16.8954 10.8954 16 12 16ZM12 17.5C11.7239 17.5 11.5 17.7239 11.5 18C11.5 18.2761 11.7239 18.5 12 18.5C12.2761 18.5 12.5 18.2761 12.5 18C12.5 17.7239 12.2761 17.5 12 17.5ZM8.00977 15.25C8.42398 15.25 8.75977 15.5858 8.75977 16C8.75977 16.4142 8.42398 16.75 8.00977 16.75H8C7.58579 16.75 7.25 16.4142 7.25 16C7.25 15.5858 7.58579 15.25 8 15.25H8.00977ZM16.0098 15.25C16.424 15.25 16.7598 15.5858 16.7598 16C16.7598 16.4142 16.424 16.75 16.0098 16.75H16C15.5858 16.75 15.25 16.4142 15.25 16C15.25 15.5858 15.5858 15.25 16 15.25H16.0098ZM6 10C7.10457 10 8 10.8954 8 12C8 13.1046 7.10457 14 6 14C4.89543 14 4 13.1046 4 12C4 10.8954 4.89543 10 6 10ZM12 10C13.1046 10 14 10.8954 14 12C14 13.1046 13.1046 14 12 14C10.8954 14 10 13.1046 10 12C10 10.8954 10.8954 10 12 10ZM18 10C19.1046 10 20 10.8954 20 12C20 13.1046 19.1046 14 18 14C16.8954 14 16 13.1046 16 12C16 10.8954 16.8954 10 18 10ZM6 11.5C5.72386 11.5 5.5 11.7239 5.5 12C5.5 12.2761 5.72386 12.5 6 12.5C6.27614 12.5 6.5 12.2761 6.5 12C6.5 11.7239 6.27614 11.5 6 11.5ZM12 11.5C11.7239 11.5 11.5 11.7239 11.5 12C11.5 12.2761 11.7239 12.5 12 12.5C12.2761 12.5 12.5 12.2761 12.5 12C12.5 11.7239 12.2761 11.5 12 11.5ZM18 11.5C17.7239 11.5 17.5 11.7239 17.5 12C17.5 12.2761 17.7239 12.5 18 12.5C18.2761 12.5 18.5 12.2761 18.5 12C18.5 11.7239 18.2761 11.5 18 11.5ZM8.00977 7.25C8.42398 7.25 8.75977 7.58579 8.75977 8C8.75977 8.41421 8.42398 8.75 8.00977 8.75H8C7.58579 8.75 7.25 8.41421 7.25 8C7.25 7.58579 7.58579 7.25 8 7.25H8.00977ZM16.0098 7.25C16.424 7.25 16.7598 7.58579 16.7598 8C16.7598 8.41421 16.424 8.75 16.0098 8.75H16C15.5858 8.75 15.25 8.41421 15.25 8C15.25 7.58579 15.5858 7.25 16 7.25H16.0098ZM12 4C13.1046 4 14 4.89543 14 6C14 7.10457 13.1046 8 12 8C10.8954 8 10 7.10457 10 6C10 4.89543 10.8954 4 12 4ZM12 5.5C11.7239 5.5 11.5 5.72386 11.5 6C11.5 6.27614 11.7239 6.5 12 6.5C12.2761 6.5 12.5 6.27614 12.5 6C12.5 5.72386 12.2761 5.5 12 5.5Z" fill="black"/>
</svg>
