<svg width="24" height="24" viewBox="0 0 24 24" fill="none" xmlns="http://www.w3.org/2000/svg">
<path d="M12 16C14.02 16 15.4848 16.6902 16.4463 17.3945C16.9241 17.7446 17.2757 18.0966 17.5107 18.3652C17.6284 18.4997 17.7176 18.6143 17.7793 18.6982C17.8102 18.7402 17.8341 18.7751 17.8516 18.8008C17.8602 18.8135 17.8676 18.8238 17.873 18.832C17.8757 18.836 17.878 18.8399 17.8799 18.8428C17.8808 18.8441 17.8821 18.8456 17.8828 18.8467L17.8838 18.8486V18.8496C17.8808 18.8519 17.8411 18.8777 17.3447 19.1904L17.8848 18.8506C18.1053 19.201 17.9998 19.664 17.6494 19.8848C17.2991 20.1052 16.836 20.0005 16.6152 19.6504C16.6143 19.6487 16.6132 19.6463 16.6113 19.6436C16.6039 19.6327 16.5905 19.6131 16.5713 19.5869C16.5325 19.5342 16.4692 19.4534 16.3818 19.3535C16.2067 19.1534 15.9348 18.8803 15.5596 18.6055C14.8148 18.0599 13.6548 17.5 12 17.5C10.3452 17.5 9.18515 18.0599 8.44043 18.6055C8.06524 18.8803 7.79325 19.1534 7.61816 19.3535C7.53089 19.4533 7.46845 19.5342 7.42969 19.5869C7.41033 19.6133 7.39609 19.6326 7.38867 19.6436C7.38524 19.6486 7.3836 19.6521 7.38281 19.6533V19.6523L7.38379 19.6514V19.6504C7.16287 20.0001 6.70074 20.1051 6.35059 19.8848C6.00024 19.6641 5.89474 19.201 6.11523 18.8506L6.65527 19.1904C6.15688 18.8764 6.11896 18.8518 6.11621 18.8496V18.8486L6.11719 18.8467C6.1179 18.8456 6.11923 18.8442 6.12012 18.8428C6.12198 18.8399 6.12434 18.836 6.12695 18.832C6.13236 18.8238 6.13982 18.8135 6.14844 18.8008C6.16589 18.7751 6.18983 18.7402 6.2207 18.6982C6.28242 18.6143 6.37163 18.4997 6.48926 18.3652C6.72433 18.0966 7.07592 17.7446 7.55371 17.3945C8.51524 16.6902 9.97997 16 12 16ZM5.7793 14.7256C6.13799 14.5185 6.59658 14.6413 6.80371 15C7.01081 15.3587 6.888 15.8173 6.5293 16.0244L6.09668 16.2744C5.73802 16.4815 5.27942 16.3586 5.07227 16C4.86516 15.6413 4.98796 15.1827 5.34668 14.9756L5.7793 14.7256ZM17.1963 15C17.4034 14.6413 17.862 14.5185 18.2207 14.7256L18.6533 14.9756C19.012 15.1827 19.1356 15.6413 18.9287 16C18.7216 16.3587 18.262 16.4815 17.9033 16.2744L17.4707 16.0244C17.112 15.8173 16.9892 15.3587 17.1963 15ZM12 9C13.6569 9 15 10.3431 15 12C15 13.6569 13.6569 15 12 15C10.3432 15 9 13.6568 9 12C9 10.3432 10.3432 9.00001 12 9ZM12 10.5C11.1716 10.5 10.5 11.1716 10.5 12C10.5 12.8284 11.1716 13.5 12 13.5C12.8284 13.5 13.5 12.8284 13.5 12C13.5 11.1716 12.8284 10.5 12 10.5ZM5.25 11.25C5.66421 11.25 6 11.5858 6 12C5.99999 12.4142 5.66421 12.75 5.25 12.75H4.75C4.33579 12.75 4.00001 12.4142 4 12C4 11.5858 4.33579 11.25 4.75 11.25H5.25ZM19.25 11.25C19.6642 11.25 20 11.5858 20 12C20 12.4142 19.6642 12.75 19.25 12.75H18.75C18.3358 12.7499 18 12.4142 18 12C18 11.5859 18.3359 11.2501 18.75 11.25H19.25ZM5.07227 8C5.27943 7.64143 5.73802 7.51852 6.09668 7.72559L6.5293 7.97559C6.88802 8.18269 7.01082 8.64128 6.80371 9C6.59658 9.35866 6.13799 9.48151 5.7793 9.27441L5.34668 9.02441C4.98796 8.81731 4.86516 8.35872 5.07227 8ZM17.9033 7.72559C18.262 7.51848 18.7216 7.64128 18.9287 8C19.1356 8.35868 19.012 8.81736 18.6533 9.02441L18.2207 9.27441C17.862 9.48147 17.4034 9.35863 17.1963 9C16.9892 8.64133 17.1121 8.18273 17.4707 7.97559L17.9033 7.72559ZM8 5.07227C8.35872 4.86516 8.81731 4.98796 9.02441 5.34668L9.27441 5.7793C9.4815 6.13799 9.35865 6.59658 9 6.80371C8.64128 7.01082 8.18269 6.88802 7.97559 6.5293L7.72559 6.09668C7.51851 5.73802 7.64141 5.27942 8 5.07227ZM14.9756 5.34668C15.1827 4.98796 15.6413 4.86516 16 5.07227C16.3586 5.27942 16.4815 5.73802 16.2744 6.09668L16.0244 6.5293C15.8173 6.88799 15.3587 7.01081 15 6.80371C14.6413 6.59658 14.5185 6.13799 14.7256 5.7793L14.9756 5.34668ZM12 4C12.4142 4 12.75 4.33579 12.75 4.75V5.25C12.75 5.66421 12.4142 6 12 6C11.5858 5.99999 11.25 5.6642 11.25 5.25V4.75C11.25 4.3358 11.5858 4.00001 12 4Z" fill="black"/>
</svg>
