<svg width="24" height="24" viewBox="0 0 24 24" fill="none" xmlns="http://www.w3.org/2000/svg">
<path d="M7.25 10C7.66419 10 7.99996 10.3358 8 10.75V15.25C8 15.5916 7.76907 15.8897 7.43848 15.9756C7.10771 16.0613 6.76073 15.9129 6.59473 15.6143L5.5 13.6436V15.25C5.5 15.6642 5.16421 16 4.75 16C4.33579 16 4 15.6642 4 15.25V10.75C4.00003 10.4084 4.23095 10.1103 4.56152 10.0244C4.89227 9.93872 5.23926 10.0871 5.40527 10.3857L6.5 12.3555V10.75C6.50004 10.3358 6.83581 10 7.25 10ZM12.25 10C12.6642 10 13 10.3358 13 10.75C13 11.1642 12.6642 11.5 12.25 11.5H10.5V12.25H12.25C12.6642 12.25 13 12.5858 13 13C13 13.4142 12.6642 13.75 12.25 13.75H10.5V14.5H12.25C12.6642 14.5 13 14.8358 13 15.25C13 15.6642 12.6642 16 12.25 16H9.75C9.33579 16 9 15.6642 9 15.25V10.75C9.00004 10.3358 9.33581 10 9.75 10H12.25ZM19.25 10C19.6642 10 20 10.3358 20 10.75V15.25C20 15.5605 19.8085 15.8389 19.5186 15.9502C19.2287 16.0614 18.9001 15.9827 18.6924 15.752L17 13.8711L15.3076 15.752C15.0999 15.9827 14.7713 16.0614 14.4814 15.9502C14.1915 15.8389 14 15.5605 14 15.25V10.75C14 10.3358 14.3358 10 14.75 10C15.1642 10 15.5 10.3358 15.5 10.75V13.2949L16.4424 12.248C16.5846 12.0901 16.7874 12 17 12C17.2126 12 17.4154 12.0901 17.5576 12.248L18.5 13.2949V10.75C18.5 10.3358 18.8358 10 19.25 10Z" fill="black"/>
</svg>
