<svg width="24" height="24" viewBox="0 0 24 24" fill="none" xmlns="http://www.w3.org/2000/svg">
<path d="M14.25 4C15.2165 4 16 4.7835 16 5.75V9H17.5225C18.8906 9 20 10.1094 20 11.4775V17.25C20 18.5084 19.1537 19.5658 18 19.8926V20H5.75C4.7835 20 4 19.2165 4 18.25V5.75C4 4.7835 4.7835 4 5.75 4H14.25ZM5.75 5.5C5.61193 5.5 5.5 5.61193 5.5 5.75V18.25C5.5 18.3881 5.61193 18.5 5.75 18.5H14.8027C14.6106 18.1247 14.5 17.7006 14.5 17.25V5.75C14.5 5.61193 14.3881 5.5 14.25 5.5H5.75ZM16 17.25C16 17.9404 16.5596 18.5 17.25 18.5C17.9404 18.5 18.5 17.9404 18.5 17.25V11.4775C18.5 10.9378 18.0622 10.5 17.5225 10.5H16V17.25ZM12 15.5C12.4142 15.5 12.75 15.8358 12.75 16.25C12.75 16.6642 12.4142 17 12 17H8C7.58579 17 7.25 16.6642 7.25 16.25C7.25 15.8358 7.58579 15.5 8 15.5H12ZM12 13C12.4142 13 12.75 13.3358 12.75 13.75C12.75 14.1642 12.4142 14.5 12 14.5H8C7.58579 14.5 7.25 14.1642 7.25 13.75C7.25 13.3358 7.58579 13 8 13H12ZM11.25 7C12.2165 7 13 7.7835 13 8.75V10.25C13 11.2165 12.2165 12 11.25 12H8.75C7.7835 12 7 11.2165 7 10.25V8.75C7 7.7835 7.7835 7 8.75 7H11.25ZM8.75 8.5C8.61193 8.5 8.5 8.61193 8.5 8.75V10.25C8.5 10.3881 8.61193 10.5 8.75 10.5H11.25C11.3881 10.5 11.5 10.3881 11.5 10.25V8.75C11.5 8.61193 11.3881 8.5 11.25 8.5H8.75Z" fill="black"/>
</svg>
