<svg width="24" height="24" viewBox="0 0 24 24" fill="none" xmlns="http://www.w3.org/2000/svg">
<path d="M4.71484 8.68945C4.88643 8.31245 5.33198 8.1458 5.70898 8.31738C6.08573 8.48909 6.25161 8.93367 6.08008 9.31055C5.70752 10.1291 5.5 11.0394 5.5 12C5.5 13.5661 6.054 15.0028 6.97656 16.125C8.00178 15.0688 9.35864 14.3337 10.8809 14.0889L10.9141 14.085L11.1641 14.0557C11.5755 14.0082 11.9477 14.3034 11.9951 14.7148C12.0425 15.1263 11.7474 15.4984 11.3359 15.5459L11.1162 15.5703C9.92606 15.7623 8.86257 16.3372 8.05664 17.166C9.15046 18.0022 10.5168 18.5 12 18.5C12.9606 18.5 13.8709 18.2925 14.6895 17.9199C15.0663 17.7484 15.5109 17.9143 15.6826 18.291C15.8542 18.668 15.6875 19.1136 15.3105 19.2852C14.3008 19.7447 13.1792 20 12 20C7.58172 20 4 16.4183 4 12C4 10.8208 4.25532 9.69921 4.71484 8.68945ZM12 4C16.4183 4 20 7.58172 20 12C20 13.9385 19.3083 15.7162 18.1611 17.1006L19.7803 18.7197C20.0732 19.0126 20.0732 19.4874 19.7803 19.7803C19.4874 20.0732 19.0126 20.0732 18.7197 19.7803L4.21973 5.28027C3.92683 4.98738 3.92683 4.51262 4.21973 4.21973C4.51262 3.92683 4.98738 3.92683 5.28027 4.21973L6.89844 5.83789C8.28283 4.69065 10.0614 4 12 4ZM12 5.5C10.4748 5.5 9.07372 6.02483 7.96484 6.9043L9.46094 8.40039C9.99193 7.55919 10.9303 7 12 7C13.6569 7 15 8.34315 15 10C15 11.07 14.4391 12.0062 13.5977 12.5371L17.0947 16.0342C17.9741 14.9253 18.5 13.5252 18.5 12C18.5 8.41015 15.5899 5.5 12 5.5ZM12 8.5C11.3444 8.5 10.7855 8.92112 10.582 9.50977C10.5811 9.51245 10.5791 9.51491 10.5781 9.51758L12.4824 11.4219C12.4899 11.4189 12.4973 11.4158 12.5049 11.4131C13.0858 11.2053 13.5 10.65 13.5 10C13.5 9.17157 12.8284 8.5 12 8.5Z" fill="black"/>
</svg>
