<svg width="24" height="24" viewBox="0 0 24 24" fill="none" xmlns="http://www.w3.org/2000/svg">
<path fill-rule="evenodd" clip-rule="evenodd" d="M4.74993 9C5.16415 9 5.49993 9.33579 5.49993 9.75V16.25C5.49993 16.9856 5.85444 17.6373 6.40032 18.0479C6.56719 17.7727 6.80069 17.4362 7.11322 17.0889C7.86452 16.2539 9.07644 15.3503 10.8896 15.0801L10.9228 15.0762L11.1689 15.0508C11.5808 15.0083 11.9495 15.3078 11.9921 15.7197C12.0346 16.1317 11.7351 16.5004 11.3232 16.543L11.1025 16.5654C9.70886 16.7753 8.79802 17.4598 8.22845 18.0928C8.1024 18.2329 7.99378 18.371 7.90032 18.5H15.2499C15.6641 18.5 15.9999 18.8358 15.9999 19.25C15.9999 19.6642 15.6641 20 15.2499 20H7.74993C5.67902 19.9998 3.99993 18.321 3.99993 16.25V9.75C3.99993 9.3359 4.33587 9.00018 4.74993 9ZM16.2499 4C18.321 4 19.9999 5.67893 19.9999 7.75V19.25C19.9999 19.5533 19.8173 19.8273 19.537 19.9434C19.2569 20.0592 18.9341 19.9947 18.7197 19.7803L4.21966 5.28027C4.00535 5.06582 3.94063 4.74303 4.05657 4.46289C4.17262 4.18274 4.44672 4.00013 4.74993 4H16.2499ZM9.46282 8.40234C9.99384 7.56065 10.9303 7.00012 11.9999 7C13.6568 7.00001 14.9999 8.34315 14.9999 10C14.9999 11.0698 14.4386 12.0051 13.5966 12.5361L18.4999 17.4395V7.75C18.4999 6.50736 17.4926 5.5 16.2499 5.5H6.56048L9.46282 8.40234ZM11.9999 8.5C11.3409 8.50014 10.7796 8.92603 10.579 9.51855L12.4804 11.4199C13.0733 11.2195 13.4999 10.6594 13.4999 10C13.4999 9.17158 12.8284 8.50001 11.9999 8.5Z" fill="black"/>
</svg>
