<svg width="24" height="24" viewBox="0 0 24 24" fill="none" xmlns="http://www.w3.org/2000/svg">
<path fill-rule="evenodd" clip-rule="evenodd" d="M5.26075 4.18158C5.5744 3.9116 6.048 3.94733 6.31837 4.26069L18.8184 18.7607C19.0884 19.0744 19.0528 19.548 18.7393 19.8183C18.4255 20.0884 17.952 20.0528 17.6816 19.7392L14.833 16.4355L13.4346 19.5576C13.317 19.8194 13.0594 19.9912 12.7725 19.9999C12.4857 20.0085 12.2192 19.8527 12.0859 19.5986L9.45899 14.5839L4.45411 12.4394C4.18444 12.3235 4.00675 12.061 4.00001 11.7675C3.99342 11.4738 4.15935 11.203 4.42383 11.0751L8.51075 9.10053L5.18165 5.2392C4.9118 4.92547 4.94724 4.45185 5.26075 4.18158ZM6.5586 11.7099L10.2959 13.3115L10.4092 13.371C10.5164 13.4407 10.604 13.5378 10.6641 13.6523L12.6973 17.5331L13.752 15.1806L9.5254 10.2773L6.5586 11.7099ZM18.9238 4.07416C19.2074 3.93732 19.5465 3.99268 19.7725 4.21186C19.9983 4.43139 20.0633 4.76913 19.9346 5.05658L16.6846 12.3066C16.5152 12.6845 16.0713 12.8538 15.6934 12.6845C15.3156 12.515 15.1462 12.0711 15.3154 11.6933L17.7236 6.31928L13.0762 8.56342C12.7032 8.74346 12.2543 8.58681 12.0742 8.21381C11.8946 7.84099 12.0512 7.39292 12.4238 7.21283L18.9238 4.07416Z" fill="black"/>
</svg>
