<svg width="24" height="24" viewBox="0 0 24 24" fill="none" xmlns="http://www.w3.org/2000/svg">
<path fill-rule="evenodd" clip-rule="evenodd" d="M11.9999 4C15.7133 4 18.9999 7.07137 18.9999 11C18.9999 12.7539 17.9957 14.4478 16.8749 15.8145L19.7802 18.7197C20.0731 19.0126 20.0731 19.4874 19.7802 19.7803C19.4873 20.0732 19.0126 20.0732 18.7197 19.7803L4.21967 5.28027C3.92678 4.98738 3.92678 4.51262 4.21967 4.21973C4.51256 3.92683 4.98732 3.92683 5.28022 4.21973L7.0976 6.03711C8.37875 4.77707 10.1302 4 11.9999 4ZM5.09076 9.87793C5.15811 9.46941 5.54447 9.19262 5.95307 9.25977C6.36169 9.32702 6.63838 9.7134 6.57123 10.1221C6.52445 10.4069 6.49994 10.7001 6.49994 11C6.49994 11.8098 6.81952 12.6878 7.36713 13.5859C7.91125 14.4783 8.64825 15.3378 9.40522 16.0947C10.1596 16.8491 10.9172 17.4851 11.4872 17.9336C11.6836 18.0881 11.8574 18.2193 11.9999 18.3252C12.0048 18.3216 12.0106 18.3181 12.0156 18.3145C12.2952 18.1064 12.6882 17.8033 13.1376 17.4258C13.4547 17.1594 13.9278 17.2006 14.1943 17.5176C14.4607 17.8347 14.4196 18.3078 14.1025 18.5742C13.6265 18.974 13.2101 19.2961 12.9111 19.5186C12.7615 19.6298 12.6404 19.7159 12.5566 19.7754C12.5146 19.8051 12.4817 19.8289 12.4589 19.8447C12.4478 19.8525 12.4388 19.858 12.4326 19.8623C12.4294 19.8645 12.4266 19.8669 12.4247 19.8682L12.4228 19.8691L12.4218 19.8701C12.199 20.0216 11.9148 20.0406 11.6767 19.9268L11.5781 19.8701L11.5761 19.8691C11.575 19.8684 11.5731 19.8665 11.5712 19.8652C11.5675 19.8627 11.562 19.8589 11.5556 19.8545C11.5423 19.8453 11.5232 19.8324 11.499 19.8154C11.4501 19.7812 11.3797 19.7314 11.291 19.667C11.1132 19.538 10.861 19.3504 10.5595 19.1133C9.9577 18.6399 9.15274 17.9633 8.34467 17.1553C7.53914 16.3497 6.71363 15.3967 6.08588 14.3672C5.46162 13.3434 4.99994 12.1902 4.99994 11C4.99994 10.618 5.03079 10.2429 5.09076 9.87793ZM11.9999 5.5C10.5514 5.5 9.17344 6.1013 8.15717 7.09668L9.90912 8.84863C11.0829 7.70736 12.9596 7.71757 14.121 8.87891C15.2823 10.0403 15.2916 11.9161 14.1503 13.0898L15.8085 14.748C16.8128 13.4962 17.4999 12.1877 17.4999 11C17.4999 7.92863 14.914 5.5 11.9999 5.5ZM13.0605 9.93945C12.4849 9.36392 11.5584 9.35456 10.9706 9.91016L13.0888 12.0283C13.6444 11.4405 13.636 10.5151 13.0605 9.93945Z" fill="black"/>
</svg>
