<svg width="24" height="24" viewBox="0 0 24 24" fill="none" xmlns="http://www.w3.org/2000/svg">
<path fill-rule="evenodd" clip-rule="evenodd" d="M5.21975 8.01074C5.43726 7.69902 5.85998 7.59634 6.19924 7.78516C6.55391 7.98267 6.68462 8.42496 6.50002 8.7832C6.49911 8.79745 6.50055 8.83622 6.52053 8.90918C6.56145 9.05832 6.66402 9.27644 6.86038 9.55957C7.25121 10.1231 7.92186 10.8154 8.82522 11.5488C9.00053 11.6912 9.10244 11.9051 9.10256 12.1309C9.10256 12.3568 9.00064 12.5715 8.82522 12.7139C7.92185 13.4473 7.25121 14.1396 6.86038 14.7031C6.66399 14.9863 6.56144 15.2044 6.52053 15.3535C6.50755 15.4009 6.50261 15.434 6.501 15.4551C6.53192 15.473 6.59762 15.5029 6.72463 15.5264C6.97536 15.5727 7.35455 15.5725 7.85842 15.4902C8.85891 15.3268 10.1945 14.866 11.6455 14.0889C11.878 13.9644 12.1595 13.971 12.3858 14.1064C12.6118 14.2419 12.75 14.4864 12.75 14.75V19.25C12.75 19.6642 12.4142 20 12 20C11.5858 20 11.25 19.6642 11.25 19.25V15.9551C10.099 16.477 9.01563 16.8211 8.09963 16.9707C7.50136 17.0684 6.93398 17.0903 6.4512 17.001C5.98051 16.9138 5.46036 16.6922 5.17874 16.1865C4.95077 15.7769 4.97087 15.3309 5.07327 14.957C5.17556 14.5838 5.37825 14.2087 5.62795 13.8486C6.00537 13.3044 6.5442 12.7197 7.19827 12.1309C6.54443 11.5422 6.00527 10.9581 5.62795 10.4141C5.37818 10.0539 5.17552 9.67802 5.07327 9.30469C4.971 8.931 4.95093 8.48559 5.17874 8.07617L5.21975 8.01074ZM12.1758 4.01172C12.5743 4.06445 12.8923 4.29065 13.1231 4.53711C13.3865 4.81857 13.5993 5.18937 13.7744 5.5918C14.0366 6.1942 14.2513 6.95805 14.4151 7.8252C15.2154 7.54229 15.9576 7.3549 16.5918 7.28906C17.0205 7.24457 17.4437 7.25098 17.8174 7.34863C18.1489 7.43526 18.4913 7.60959 18.7266 7.92969L18.8213 8.07617L18.8955 8.23047C19.0432 8.59527 19.0163 8.97753 18.9268 9.30469C18.8245 9.67802 18.6219 10.0539 18.3721 10.4141C17.9947 10.9583 17.4549 11.542 16.8008 12.1309C17.4551 12.7199 17.9946 13.3043 18.3721 13.8486C18.6218 14.2087 18.8245 14.5838 18.9268 14.957C19.0292 15.3309 19.0493 15.7769 18.8213 16.1865C18.7512 16.3124 18.665 16.4187 18.5703 16.5098L19.7803 17.7197C20.0732 18.0126 20.0732 18.4874 19.7803 18.7803C19.4874 19.0732 19.0126 19.0732 18.7198 18.7803L5.21975 5.28027C4.92686 4.98738 4.92686 4.51262 5.21975 4.21973C5.51264 3.92683 5.9874 3.92683 6.2803 4.21973L9.63381 7.57324C9.79065 6.80981 9.98916 6.13519 10.2256 5.5918C10.4008 5.18933 10.6135 4.81858 10.877 4.53711C11.1407 4.2554 11.5182 4 12 4L12.1758 4.01172ZM11.9717 5.5625C11.8704 5.67085 11.7397 5.87091 11.6006 6.19043C11.3312 6.8098 11.093 7.7304 10.9317 8.87109L17.4971 15.4365C17.4944 15.4162 17.4892 15.3888 17.4795 15.3535C17.4386 15.2044 17.3361 14.9863 17.1397 14.7031C16.7488 14.1396 16.0782 13.4473 15.1748 12.7139C14.9994 12.5715 14.8975 12.3568 14.8975 12.1309C14.8976 11.9051 14.9995 11.6912 15.1748 11.5488C16.0782 10.8154 16.7488 10.1231 17.1397 9.55957C17.336 9.27644 17.4386 9.05832 17.4795 8.90918C17.4898 8.87162 17.4955 8.84295 17.4981 8.82227C17.4834 8.8165 17.4648 8.80669 17.4385 8.7998C17.3042 8.76472 17.0789 8.74683 16.7471 8.78125C16.0873 8.84973 15.1767 9.1044 14.1123 9.54883C13.8975 9.63851 13.6533 9.62337 13.4512 9.50781C13.2491 9.39215 13.1116 9.18876 13.0801 8.95801C12.9187 7.7772 12.6757 6.82546 12.3994 6.19043C12.2602 5.87054 12.1287 5.67077 12.0274 5.5625C12.0178 5.55231 12.0069 5.5457 11.999 5.53809C11.9914 5.5455 11.9809 5.55269 11.9717 5.5625Z" fill="black"/>
</svg>
