<svg width="24" height="24" viewBox="0 0 24 24" fill="none" xmlns="http://www.w3.org/2000/svg">
<path fill-rule="evenodd" clip-rule="evenodd" d="M4.17319 11.344C5.0877 7.02161 9.33312 4.25881 13.6556 5.17309C17.978 6.08752 20.7407 10.333 19.8265 14.6555C19.5173 16.117 18.8124 17.7005 17.7943 18.7678C17.6351 18.9346 17.4075 19.0188 17.1781 18.9963C16.9487 18.9738 16.7423 18.847 16.6185 18.6526L12.0775 11.5188L10.6703 14.3352C10.5433 14.589 10.2841 14.75 10.0003 14.7502C9.71633 14.7502 9.45652 14.5892 9.32944 14.3352L9.11167 13.9006L7.45444 18.5041C7.36631 18.7486 7.15787 18.93 6.90366 18.9836C6.64921 19.0371 6.38462 18.9552 6.20542 18.7668C4.44201 16.9116 3.60982 14.0074 4.17319 11.344ZM13.3451 6.64087C9.83304 5.89801 6.384 8.1426 5.64096 11.6545C5.27358 13.3914 5.63901 15.2567 6.5101 16.6975L8.29428 11.7454L8.3392 11.6438C8.46121 11.4174 8.69347 11.2668 8.95542 11.2512C9.25484 11.2336 9.53601 11.3961 9.67026 11.6643L9.99936 12.3235L11.3294 9.66431L11.3802 9.57739C11.5111 9.38539 11.7254 9.2634 11.9613 9.25122C12.2309 9.23735 12.4871 9.36923 12.6322 9.59692L17.3119 16.9485C17.7942 16.1936 18.165 15.2607 18.3587 14.345C19.1015 10.8329 16.857 7.38382 13.3451 6.64087Z" fill="black"/>
</svg>
