<svg width="24" height="24" viewBox="0 0 24 24" fill="none" xmlns="http://www.w3.org/2000/svg">
<path d="M12 4C16.4183 4 20 7.58172 20 12C20 16.4183 16.4183 20 12 20C7.58172 20 4 16.4183 4 12C4 7.58172 7.58172 4 12 4ZM12 5.5C8.41015 5.5 5.5 8.41015 5.5 12C5.5 15.5899 8.41015 18.5 12 18.5C15.5899 18.5 18.5 15.5899 18.5 12C18.5 8.41015 15.5899 5.5 12 5.5ZM14.25 9C14.6642 9 15 9.33579 15 9.75V14.25C15 14.5533 14.8174 14.8273 14.5371 14.9434C14.2569 15.0594 13.9342 14.9948 13.7197 14.7803L10.5 11.5605V14.25C10.5 14.6642 10.1642 15 9.75 15C9.33579 15 9 14.6642 9 14.25V9.75C9 9.44665 9.18263 9.17273 9.46289 9.05664C9.74313 8.9406 10.0658 9.00525 10.2803 9.21973L13.5 12.4395V9.75C13.5 9.33579 13.8358 9 14.25 9Z" fill="black"/>
</svg>
