<svg width="24" height="24" viewBox="0 0 24 24" fill="none" xmlns="http://www.w3.org/2000/svg">
<path d="M15.0752 15.0039C15.2899 15.0255 15.4849 15.1389 15.6104 15.3145L15.6113 15.3164C15.6121 15.3175 15.6139 15.3184 15.6152 15.3203C15.618 15.3242 15.622 15.3299 15.627 15.3369C15.6369 15.351 15.651 15.3717 15.6689 15.3975C15.7049 15.449 15.7557 15.5225 15.8164 15.6123C15.9377 15.7915 16.1007 16.0388 16.2646 16.3066C16.427 16.5719 16.5982 16.8705 16.7314 17.1504C16.7981 17.2903 16.8608 17.4373 16.9082 17.5811C16.9522 17.7146 16.9999 17.8935 17 18.083C17 18.6375 16.712 19.1154 16.3711 19.4336C16.0268 19.7549 15.5387 20 15 20C14.4613 20 13.9732 19.7549 13.6289 19.4336C13.288 19.1154 13 18.6375 13 18.083C13.0001 17.7925 13.0952 17.4906 13.1885 17.2529C13.2893 16.996 13.4236 16.727 13.5654 16.4756C13.837 15.9941 14.1947 15.4762 14.4883 15.2021L14.5498 15.1504C14.6995 15.038 14.8871 14.9851 15.0752 15.0039ZM14.8721 17.2119C14.7536 17.4221 14.6534 17.6274 14.585 17.8018C14.551 17.8884 14.5275 17.9597 14.5137 18.0146C14.499 18.0731 14.5 18.0929 14.5 18.083C14.5 18.1119 14.5246 18.2176 14.6523 18.3369C14.7768 18.4531 14.9137 18.5 15 18.5C15.0863 18.5 15.2232 18.4531 15.3477 18.3369C15.4592 18.2328 15.4905 18.139 15.4971 18.0977C15.4945 18.0877 15.4914 18.072 15.4844 18.0508C15.4634 17.9871 15.4285 17.9011 15.3779 17.7949C15.2769 17.5828 15.1354 17.3349 14.9854 17.0898C14.9785 17.0787 14.9707 17.0678 14.9639 17.0566C14.9336 17.1072 14.9021 17.1586 14.8721 17.2119ZM14.25 4C14.6642 4 15 4.33579 15 4.75V9C15 9.32931 15.1619 9.49669 15.7002 9.90039C16.162 10.2467 17 10.8296 17 12C17 12.568 16.6712 12.9663 16.3594 13.209C16.0514 13.4485 15.678 13.6067 15.3623 13.7119C15.0373 13.8203 14.7197 13.8898 14.4883 13.9326C14.4684 13.9363 14.4485 13.9381 14.4297 13.9414C14.3317 14.0606 14.2016 14.1996 14.0312 14.3359C13.5954 14.6847 12.9322 15 12 15C11.0678 15 10.4046 14.6847 9.96875 14.3359C9.79816 14.1995 9.66735 14.0607 9.56934 13.9414C9.55084 13.9381 9.53132 13.9362 9.51172 13.9326C9.28035 13.8898 8.96272 13.8203 8.6377 13.7119C8.32196 13.6067 7.94859 13.4485 7.64062 13.209C7.32876 12.9663 7 12.568 7 12C7 10.8296 7.838 10.2467 8.2998 9.90039C8.83807 9.49669 9 9.32931 9 9V4.75C9 4.33579 9.33579 4 9.75 4C10.1642 4 10.5 4.33579 10.5 4.75V9C10.5 10.1704 9.662 10.7533 9.2002 11.0996C8.6809 11.4891 8.51321 11.6587 8.50195 11.9658C8.51185 11.9775 8.52854 11.999 8.5625 12.0254C8.67646 12.1139 8.86584 12.2059 9.1123 12.2881C9.3497 12.3672 9.59467 12.4227 9.78516 12.458C9.87898 12.4754 9.95692 12.4876 10.0098 12.4951C10.0359 12.4988 10.0558 12.5013 10.0684 12.5029C10.0747 12.5037 10.0796 12.5046 10.082 12.5049H10.083L10.1758 12.5205C10.389 12.5719 10.5702 12.7153 10.6699 12.9141H10.6709L10.6699 12.9131L10.666 12.9053C10.6714 12.9141 10.6831 12.9319 10.7012 12.9561C10.7398 13.0076 10.8069 13.0846 10.9062 13.1641C11.0954 13.3153 11.4322 13.5 12 13.5C12.5678 13.5 12.9046 13.3153 13.0938 13.1641C13.1931 13.0846 13.2602 13.0076 13.2988 12.9561C13.3166 12.9323 13.3275 12.9143 13.333 12.9053C13.3326 12.906 13.3323 12.9071 13.332 12.9082C13.4467 12.6841 13.6665 12.5328 13.917 12.5049H13.918C13.9204 12.5046 13.9253 12.5037 13.9316 12.5029C13.9442 12.5013 13.9641 12.4988 13.9902 12.4951C14.0431 12.4876 14.121 12.4754 14.2148 12.458C14.4053 12.4227 14.6503 12.3672 14.8877 12.2881C15.1342 12.2059 15.3235 12.1139 15.4375 12.0254C15.471 11.9993 15.4871 11.9775 15.4971 11.9658C15.4858 11.6587 15.3191 11.4891 14.7998 11.0996C14.338 10.7533 13.5 10.1704 13.5 9V4.75C13.5 4.33579 13.8358 4 14.25 4Z" fill="black"/>
</svg>
