<svg width="24" height="24" viewBox="0 0 24 24" fill="none" xmlns="http://www.w3.org/2000/svg">
<path d="M14.25 5C14.6642 5 15 5.33579 15 5.75V13C15 13.3293 15.1619 13.4967 15.7002 13.9004C16.162 14.2467 17 14.8296 17 16C17 16.568 16.6712 16.9663 16.3594 17.209C16.0514 17.4485 15.678 17.6067 15.3623 17.7119C15.0373 17.8203 14.7197 17.8898 14.4883 17.9326C14.4684 17.9363 14.4485 17.9381 14.4297 17.9414C14.3317 18.0606 14.2016 18.1996 14.0312 18.3359C13.5954 18.6847 12.9322 19 12 19C11.0678 19 10.4046 18.6847 9.96875 18.3359C9.79816 18.1995 9.66735 18.0607 9.56934 17.9414C9.55084 17.9381 9.53132 17.9362 9.51172 17.9326C9.28035 17.8898 8.96272 17.8203 8.6377 17.7119C8.32196 17.6067 7.94859 17.4485 7.64062 17.209C7.32876 16.9663 7 16.568 7 16C7 14.8296 7.838 14.2467 8.2998 13.9004C8.83807 13.4967 9 13.3293 9 13V5.75C9 5.33579 9.33579 5 9.75 5C10.1642 5 10.5 5.33579 10.5 5.75V13C10.5 14.1704 9.662 14.7533 9.2002 15.0996C8.6809 15.4891 8.51321 15.6587 8.50195 15.9658C8.51185 15.9775 8.52854 15.999 8.5625 16.0254C8.67646 16.1139 8.86584 16.2059 9.1123 16.2881C9.3497 16.3672 9.59467 16.4227 9.78516 16.458C9.87898 16.4754 9.95692 16.4876 10.0098 16.4951C10.0359 16.4988 10.0558 16.5013 10.0684 16.5029C10.0747 16.5037 10.0796 16.5046 10.082 16.5049H10.083L10.1758 16.5205C10.389 16.5719 10.5702 16.7153 10.6699 16.9141H10.6709L10.6699 16.9131L10.666 16.9053C10.6714 16.9141 10.6831 16.9319 10.7012 16.9561C10.7398 17.0076 10.8069 17.0846 10.9062 17.1641C11.0954 17.3153 11.4322 17.5 12 17.5C12.5678 17.5 12.9046 17.3153 13.0938 17.1641C13.1931 17.0846 13.2602 17.0076 13.2988 16.9561C13.3166 16.9323 13.3275 16.9143 13.333 16.9053C13.3326 16.906 13.3323 16.9071 13.332 16.9082C13.4467 16.6841 13.6665 16.5328 13.917 16.5049H13.918C13.9204 16.5046 13.9253 16.5037 13.9316 16.5029C13.9442 16.5013 13.9641 16.4988 13.9902 16.4951C14.0431 16.4876 14.121 16.4754 14.2148 16.458C14.4053 16.4227 14.6503 16.3672 14.8877 16.2881C15.1342 16.2059 15.3235 16.1139 15.4375 16.0254C15.471 15.9993 15.4871 15.9775 15.4971 15.9658C15.4858 15.6587 15.3191 15.4891 14.7998 15.0996C14.338 14.7533 13.5 14.1704 13.5 13V5.75C13.5 5.33579 13.8358 5 14.25 5Z" fill="#141414"/>
</svg>
