<svg width="24" height="24" viewBox="0 0 24 24" fill="none" xmlns="http://www.w3.org/2000/svg">
<path d="M16.25 4C17.7688 4 19 5.23122 19 6.75V16.25C19 17.7688 17.7688 19 16.25 19H10.5V19.25C10.5 19.6642 10.1642 20 9.75 20C9.33579 20 9 19.6642 9 19.25V19H7.75C6.23122 19 5 17.7688 5 16.25V6.75C5 5.23122 6.23122 4 7.75 4H16.25ZM10.5 17.5H16.25C16.9404 17.5 17.5 16.9404 17.5 16.25V6.75C17.5 6.05964 16.9404 5.5 16.25 5.5H10.5V17.5ZM7.75 5.5C7.05964 5.5 6.5 6.05964 6.5 6.75V16.25C6.5 16.9404 7.05964 17.5 7.75 17.5H9V5.5H7.75ZM14.25 11C14.6642 11 15 11.3358 15 11.75C15 12.1642 14.6642 12.5 14.25 12.5H13.75C13.3358 12.5 13 12.1642 13 11.75C13 11.3358 13.3358 11 13.75 11H14.25ZM14.25 8C14.6642 8 15 8.33579 15 8.75C15 9.16421 14.6642 9.5 14.25 9.5H13.75C13.3358 9.5 13 9.16421 13 8.75C13 8.33579 13.3358 8 13.75 8H14.25Z" fill="black"/>
</svg>
