<svg width="24" height="24" viewBox="0 0 24 24" fill="none" xmlns="http://www.w3.org/2000/svg">
<path fill-rule="evenodd" clip-rule="evenodd" d="M12.0003 4C12.6907 4.00009 13.2933 4.31563 13.7796 4.77441C14.1693 5.14212 14.504 5.62078 14.7874 6.16699C15.0649 6.11453 15.3365 6.07355 15.5999 6.0459C17.2547 5.87233 18.9316 6.17593 19.6702 7.48535C20.4019 8.78278 19.8299 10.4018 18.8587 11.7773C18.8063 11.8516 18.7514 11.9256 18.6956 12C18.7514 12.0744 18.8063 12.1484 18.8587 12.2227C19.8299 13.5982 20.4019 15.2172 19.6702 16.5146C18.9316 17.8241 17.2547 18.1277 15.5999 17.9541C15.3364 17.9264 15.065 17.8845 14.7874 17.832C14.5039 18.3786 14.1695 18.8577 13.7796 19.2256C13.2933 19.6844 12.6907 19.9999 12.0003 20C11.3099 20 10.7074 19.6844 10.221 19.2256C9.83105 18.8576 9.49584 18.3788 9.21224 17.832C8.935 17.8844 8.66395 17.9265 8.40071 17.9541C6.74591 18.1277 5.0691 17.824 4.3304 16.5146C3.59864 15.2172 4.17065 13.5983 5.14193 12.2227C5.19427 12.1485 5.24841 12.0742 5.30403 12C5.24841 11.9258 5.19427 11.8515 5.14193 11.7773C4.17065 10.4017 3.59864 8.78285 4.3304 7.48535C5.0691 6.17596 6.74591 5.87227 8.40071 6.0459C8.6639 6.07353 8.93506 6.11461 9.21224 6.16699C9.49576 5.62059 9.83123 5.1422 10.221 4.77441C10.7074 4.31564 11.3099 4 12.0003 4ZM12.0003 16.9727C11.5663 17.1549 11.136 17.3134 10.7142 17.4482C10.8892 17.7362 11.0706 17.9652 11.2503 18.1348C11.5414 18.4093 11.7935 18.5 12.0003 18.5C12.2071 18.4999 12.4593 18.4093 12.7503 18.1348C12.9299 17.9653 13.1106 17.7359 13.2855 17.4482C12.8639 17.3135 12.4341 17.1547 12.0003 16.9727ZM6.31185 13.168C5.45275 14.4165 5.37061 15.3077 5.63607 15.7783C5.90045 16.2468 6.70258 16.6247 8.24446 16.4629C8.37057 16.4496 8.49961 16.4314 8.63118 16.4111C8.47561 15.9209 8.34677 15.3928 8.24642 14.8359C7.52467 14.3046 6.87364 13.7426 6.31185 13.168ZM17.6878 13.168C17.126 13.7426 16.475 14.3047 15.7533 14.8359C15.6529 15.3928 15.5241 15.9209 15.3685 16.4111C15.5004 16.4315 15.6298 16.4496 15.7562 16.4629C17.298 16.6246 18.1003 16.2469 18.3646 15.7783C18.63 15.3076 18.547 14.4165 17.6878 13.168ZM10.097 16.0703C10.1103 16.0663 10.1237 16.0617 10.137 16.0576C10.1191 16.0475 10.1013 16.0366 10.0833 16.0264C10.0881 16.041 10.0922 16.0558 10.097 16.0703ZM13.8626 16.0576C13.8759 16.0617 13.8894 16.0663 13.9027 16.0703C13.9075 16.0558 13.9116 16.041 13.9163 16.0264C13.8984 16.0366 13.8806 16.0475 13.8626 16.0576ZM12.0003 8.66797C11.5275 8.88942 11.0467 9.14158 10.5658 9.42578C10.2415 9.61737 9.9291 9.816 9.63021 10.0195C9.54673 10.6423 9.50032 11.3069 9.50032 12C9.50032 12.6928 9.54681 13.357 9.63021 13.9795C9.92924 14.1831 10.2414 14.3825 10.5658 14.5742C11.0466 14.8583 11.5276 15.1096 12.0003 15.3311C12.4731 15.1096 12.9541 14.8583 13.4349 14.5742C13.759 14.3827 14.0706 14.183 14.3695 13.9795C14.4529 13.357 14.5003 12.6928 14.5003 12C14.5003 11.3069 14.4529 10.6423 14.3695 10.0195C14.0708 9.81615 13.7589 9.61724 13.4349 9.42578C12.9539 9.14158 12.4732 8.88943 12.0003 8.66797ZM12.0003 11C12.5524 11.0002 13.0003 11.4478 13.0003 12C13.0003 12.5521 12.5524 12.9998 12.0003 13C11.4481 13 11.0003 12.5522 11.0003 12C11.0003 11.4477 11.4481 11 12.0003 11ZM8.01595 11.2773C7.74827 11.5168 7.49926 11.7587 7.26985 12C7.49912 12.2411 7.74845 12.4824 8.01595 12.7217C8.00587 12.4837 8.00032 12.2429 8.00032 12C8.00032 11.7567 8.00584 11.5157 8.01595 11.2773ZM15.9837 11.2773C15.9938 11.5157 16.0003 11.7567 16.0003 12C16.0003 12.2429 15.9938 12.4836 15.9837 12.7217C16.2512 12.4824 16.5005 12.2411 16.7298 12C16.5004 11.7587 16.2514 11.5168 15.9837 11.2773ZM8.24446 7.53711C6.70258 7.37529 5.90045 7.75318 5.63607 8.22168C5.37066 8.69226 5.45318 9.58289 6.31185 10.8311C6.87365 10.2565 7.52469 9.69433 8.24642 9.16309C8.34681 8.60627 8.47558 8.07807 8.63118 7.58789C8.49966 7.56762 8.37052 7.55035 8.24446 7.53711ZM18.3646 8.22168C18.1003 7.75315 17.298 7.37536 15.7562 7.53711C15.6298 7.55037 15.5003 7.56756 15.3685 7.58789C15.5241 8.07809 15.6529 8.60624 15.7533 9.16309C16.475 9.69432 17.126 10.2565 17.6878 10.8311C18.5466 9.58284 18.6299 8.69233 18.3646 8.22168ZM10.0833 7.97266C10.1013 7.96246 10.1191 7.95153 10.137 7.94141C10.1237 7.9373 10.1103 7.93277 10.097 7.92871C10.0922 7.9432 10.0881 7.95806 10.0833 7.97266ZM13.8626 7.94141C13.8806 7.95153 13.8984 7.96246 13.9163 7.97266C13.9116 7.95806 13.9075 7.9432 13.9027 7.92871C13.8894 7.93276 13.8759 7.93729 13.8626 7.94141ZM12.0003 5.5C11.7935 5.5 11.5414 5.59068 11.2503 5.86523C11.0708 6.03465 10.889 6.2632 10.7142 6.55078C11.136 6.68561 11.5663 6.84417 12.0003 7.02637C12.434 6.8443 12.864 6.68554 13.2855 6.55078C13.1108 6.26343 12.9298 6.03458 12.7503 5.86523C12.4593 5.5907 12.2071 5.50009 12.0003 5.5Z" fill="black"/>
</svg>
