<svg width="24" height="24" viewBox="0 0 24 24" fill="none" xmlns="http://www.w3.org/2000/svg">
<path fill-rule="evenodd" clip-rule="evenodd" d="M11.7676 4.03704C11.9437 3.97962 12.1359 3.98888 12.3066 4.06536L19.5566 7.31536C19.8263 7.43625 20 7.70441 20 7.99994V15.9999C20 16.2955 19.8263 16.5636 19.5566 16.6845L12.3066 19.9345C12.1116 20.0219 11.8884 20.0219 11.6934 19.9345L4.44336 16.6845C4.17369 16.5636 4 16.2955 4 15.9999V7.99994C4 7.70441 4.17369 7.43625 4.44336 7.31536L11.6934 4.06536L11.7676 4.03704ZM5.5 8.48529V15.5136L12 18.4277L18.5 15.5136V8.48529L12 5.57122L5.5 8.48529ZM12 8.99994C13.6569 8.99994 15 10.3431 15 11.9999C15 13.6568 13.6569 14.9999 12 14.9999C10.3431 14.9999 9 13.6568 9 11.9999C9 10.3431 10.3431 8.99994 12 8.99994ZM12 10.4999C11.1716 10.4999 10.5 11.1715 10.5 11.9999C10.5 12.8284 11.1716 13.4999 12 13.4999C12.8284 13.4999 13.5 12.8284 13.5 11.9999C13.5 11.1715 12.8284 10.4999 12 10.4999Z" fill="#141414"/>
</svg>
