<svg width="24" height="24" viewBox="0 0 24 24" fill="none" xmlns="http://www.w3.org/2000/svg">
<path d="M15 4C15.1989 4 15.3896 4.07907 15.5303 4.21973L19.7803 8.46973C19.9209 8.61038 20 8.80109 20 9V15C20 15.1989 19.9209 15.3896 19.7803 15.5303L15.5303 19.7803C15.3896 19.9209 15.1989 20 15 20H9C8.80109 20 8.61038 19.9209 8.46973 19.7803L4.21973 15.5303C4.07907 15.3896 4 15.1989 4 15V9C4 8.80109 4.07907 8.61038 4.21973 8.46973L8.46973 4.21973L8.58398 4.12598C8.70628 4.04445 8.85085 4 9 4H15ZM5.5 9.31055V14.6895L9.31055 18.5H14.6895L18.5 14.6895V9.31055L14.6895 5.5H9.31055L5.5 9.31055Z" fill="black"/>
</svg>
