<svg width="24" height="24" viewBox="0 0 24 24" fill="none" xmlns="http://www.w3.org/2000/svg">
<path fill-rule="evenodd" clip-rule="evenodd" d="M10 4C11.1045 4.00007 12 4.89548 12 6V10.5H16.25C18.321 10.5001 20 12.179 20 14.25V15.25C20 17.8733 17.8733 19.9999 15.25 20H11.3653C9.02549 19.9999 6.91878 18.5818 6.03811 16.4141L4.0596 11.543C3.94541 11.2617 4.00714 10.9393 4.2178 10.7207L4.40823 10.5439C5.39248 9.72319 6.8811 9.83774 7.72268 10.8467L8.00003 11.1787V6C8.00003 4.89543 8.89546 4 10 4ZM10 5.5C9.72389 5.5 9.50003 5.72386 9.50003 6V13.25C9.50003 13.5655 9.30244 13.8474 9.00589 13.9551C8.7091 14.0626 8.37608 13.9729 8.17386 13.7305L6.57034 11.8076C6.34412 11.5365 5.98884 11.4424 5.67483 11.5332L7.42776 15.8496C8.07868 17.4518 9.63591 18.4999 11.3653 18.5H15.25C17.0449 18.4999 18.5 17.0449 18.5 15.25V14.25C18.5 13.0074 17.4926 12.0001 16.25 12H11.25C10.8358 12 10.5 11.6642 10.5 11.25V6C10.5 5.7239 10.2761 5.50007 10 5.5Z" fill="#141414"/>
</svg>
