<svg width="24" height="24" viewBox="0 0 24 24" fill="none" xmlns="http://www.w3.org/2000/svg">
<path d="M12 4C12.4142 4 12.75 4.33579 12.75 4.75C12.75 5.29424 13.0032 5.78959 13.5186 6.3291C14.0486 6.88385 14.7633 7.39333 15.5713 7.99121C17.0788 9.1068 19 10.5684 19 13C19 16.866 15.866 20 12 20C8.13401 20 5 16.866 5 13C5 10.5684 6.92117 9.1068 8.42871 7.99121C9.23665 7.39333 9.95143 6.88385 10.4814 6.3291C10.9968 5.78959 11.25 5.29424 11.25 4.75C11.25 4.33579 11.5858 4 12 4ZM12 17.5C11.8461 17.5 11.5 17.7019 11.5 18.25V18.4756C11.6647 18.4904 11.8314 18.5 12 18.5C12.1686 18.5 12.3353 18.4904 12.5 18.4756V18.25C12.5 18.0711 12.4603 17.9305 12.4053 17.8203C12.3998 17.8087 12.3936 17.7972 12.3887 17.7852C12.388 17.7835 12.3874 17.7819 12.3867 17.7803C12.2718 17.5814 12.0975 17.5 12 17.5ZM12 6.85352C11.8653 7.03341 11.7194 7.20501 11.5654 7.36621C10.9237 8.03779 10.0756 8.63808 9.32129 9.19629C7.70387 10.3932 6.5 11.4317 6.5 13C6.5 15.3335 7.95415 17.325 10.0049 18.124C10.0174 17.8846 10.0633 17.6455 10.1436 17.4189C9.91539 17.2434 9.64698 17.0098 9.37988 16.71C8.68733 15.9324 8 14.7181 8 13C8 12.5858 8.33579 12.25 8.75 12.25C9.16421 12.25 9.5 12.5858 9.5 13C9.5 14.2815 10.0024 15.1533 10.5 15.7119C10.7049 15.942 10.9108 16.1187 11.0801 16.2471C11.135 16.2152 11.1915 16.1863 11.25 16.1602V14.75C11.25 14.3358 11.5858 14 12 14C12.4142 14 12.75 14.3358 12.75 14.75V16.1602C12.9365 16.2437 13.1044 16.3569 13.2529 16.4932C13.4348 16.3163 13.6088 16.0803 13.7588 15.7822C14.027 15.2489 14.1873 14.5886 14.2002 13.9365C14.2131 13.2806 14.0763 12.6899 13.8145 12.2617C13.5661 11.8557 13.1957 11.5736 12.6406 11.4922C12.231 11.4318 11.9477 11.0503 12.0078 10.6406C12.0682 10.231 12.4497 9.94769 12.8594 10.0078C13.886 10.1586 14.6311 10.7206 15.0947 11.4785C15.5448 12.2144 15.7171 13.1085 15.7002 13.9658C15.6832 14.8269 15.4741 15.7094 15.0986 16.4561C14.8291 16.9919 14.4531 17.4935 13.9668 17.8525C13.9816 17.9425 13.9894 18.0332 13.9941 18.124C16.0453 17.3252 17.5 15.3338 17.5 13C17.5 11.4317 16.2961 10.3932 14.6787 9.19629C13.9244 8.63808 13.0763 8.03779 12.4346 7.36621C12.2806 7.20501 12.1347 7.03341 12 6.85352Z" fill="black"/>
</svg>
