<svg width="24" height="24" viewBox="0 0 24 24" fill="none" xmlns="http://www.w3.org/2000/svg">
<path d="M17.25 4C18.7688 4 20 5.23122 20 6.75V17.25C20 18.7688 18.7688 20 17.25 20H6.75C5.23122 20 4 18.7688 4 17.25V6.75C4 5.23122 5.23122 4 6.75 4H17.25ZM6.75 5.5C6.05964 5.5 5.5 6.05964 5.5 6.75V17.25C5.5 17.9404 6.05964 18.5 6.75 18.5H13.5V5.5H6.75ZM15 18.5H17.25C17.9404 18.5 18.5 17.9404 18.5 17.25V6.75C18.5 6.05964 17.9404 5.5 17.25 5.5H15V18.5ZM10.7695 10.1738C11.0877 9.90871 11.561 9.9515 11.8262 10.2695C12.0913 10.5877 12.0485 11.061 11.7305 11.3262L10.9219 12L11.7305 12.6738C12.0485 12.939 12.0913 13.4123 11.8262 13.7305C11.561 14.0485 11.0877 14.0913 10.7695 13.8262L9.26953 12.5762C9.09866 12.4337 9 12.2225 9 12C9 11.7775 9.09866 11.5663 9.26953 11.4238L10.7695 10.1738Z" fill="black"/>
</svg>
