<svg width="24" height="24" viewBox="0 0 24 24" fill="none" xmlns="http://www.w3.org/2000/svg">
<path d="M10 10C10.2142 10 10.4182 10.0918 10.5605 10.252L14.3369 14.5H18.25C18.6642 14.5 19 14.8358 19 15.25C19 15.6642 18.6642 16 18.25 16H14C13.7858 16 13.5818 15.9082 13.4395 15.748L9.66309 11.5H5.75C5.33579 11.5 5 11.1642 5 10.75C5 10.3358 5.33579 10 5.75 10H10ZM18.25 10C18.6642 10 19 10.3358 19 10.75C19 11.1642 18.6642 11.5 18.25 11.5H14.75C14.3358 11.5 14 11.1642 14 10.75C14 10.3358 14.3358 10 14.75 10H18.25Z" fill="black"/>
</svg>
