<svg width="24" height="24" viewBox="0 0 24 24" fill="none" xmlns="http://www.w3.org/2000/svg">
<path fill-rule="evenodd" clip-rule="evenodd" d="M18.1963 14C19.2921 14 19.8864 14.8623 19.9873 15.6367C20.0443 16.0747 19.9546 16.5876 19.6729 17C19.9547 17.4123 20.0442 17.9253 19.9873 18.3633C19.8865 19.1378 19.2923 20 18.1963 20H16.75C16.3358 20 16 19.6642 16 19.25C16.0002 18.8359 16.3359 18.5 16.75 18.5H18.1963C18.2973 18.5 18.3494 18.4673 18.3877 18.4277C18.4365 18.3772 18.4846 18.288 18.5 18.1699C18.5154 18.0514 18.4921 17.9472 18.4561 17.8809C18.4281 17.8296 18.3898 17.7926 18.3193 17.7705C18.3176 17.7704 18.3157 17.7706 18.3135 17.7705L17.7236 17.75C17.32 17.7358 17 17.4039 17 17C17.0002 16.5962 17.3201 16.2642 17.7236 16.25L18.3135 16.2295C18.3157 16.2294 18.3176 16.2286 18.3193 16.2285C18.3897 16.2063 18.4281 16.1704 18.4561 16.1191C18.4921 16.0527 18.5154 15.9486 18.5 15.8301C18.4845 15.712 18.4366 15.6227 18.3877 15.5723C18.3494 15.5328 18.2971 15.5 18.1963 15.5H16.75C16.3358 15.5 16 15.1642 16 14.75C16.0002 14.3359 16.3359 14 16.75 14H18.1963ZM12.2529 9C13.6895 9.00026 14.4782 10.6083 13.6973 11.7393C13.5712 11.9218 13.4146 12.0391 13.3076 12.1104L11.5137 13.3027C11.5009 13.3372 11.5029 13.3787 11.5254 13.4219C11.5394 13.4487 11.5586 13.4687 11.5771 13.4805C11.5932 13.4906 11.617 13.5 11.6562 13.5H13.25C13.6641 13.5 13.9998 13.8359 14 14.25C14 14.6642 13.6642 15 13.25 15H11.6562C10.3107 15 9.56924 13.5037 10.2822 12.4395L10.3838 12.3096C10.488 12.1922 10.5986 12.1116 10.6768 12.0596L12.4746 10.8613C12.5112 10.7927 12.5142 10.7123 12.4736 10.6338C12.4309 10.5514 12.3576 10.5001 12.2529 10.5H10.75C10.3358 10.5 10 10.1642 10 9.75C10.0002 9.33593 10.3359 9 10.75 9H12.2529ZM5.71973 4.21973C5.93418 4.0054 6.25697 3.94069 6.53711 4.05664C6.81727 4.17268 6.99987 4.44678 7 4.75V9.5H7.25C7.66411 9.5 7.99983 9.83593 8 10.25C8 10.6642 7.66421 11 7.25 11H4.75C4.33579 11 4 10.6642 4 10.25C4.00017 9.83593 4.33589 9.5 4.75 9.5H5.5V6.56055L5.28027 6.78027C4.98738 7.07317 4.51262 7.07317 4.21973 6.78027C3.92699 6.48737 3.92689 6.01257 4.21973 5.71973L5.71973 4.21973Z" fill="black"/>
</svg>
