<svg width="24" height="24" viewBox="0 0 24 24" fill="none" xmlns="http://www.w3.org/2000/svg">
<path fill-rule="evenodd" clip-rule="evenodd" d="M11.7461 5.04407C11.9376 4.97517 12.1506 4.98718 12.335 5.07923L18.585 8.19935C18.8392 8.32632 19 8.58602 19 8.87024V15.8702C19 16.1457 18.8487 16.3994 18.6064 16.5304L12.3564 19.9103C12.134 20.0304 11.866 20.0304 11.6436 19.9103L5.39355 16.5304C5.15129 16.3994 5 16.1457 5 15.8702V8.87024C5 8.58602 5.16076 8.32632 5.41504 8.19935L8.54004 6.6388L11.665 5.07923L11.7461 5.04407ZM6.5 15.422L11.25 17.9923V12.6974L6.5 10.1271V15.422ZM15.4814 11.2199L12.75 12.6974V17.9923L17.5 15.422V10.1271L15.4814 11.2199ZM7.37598 8.89661L12 11.3966L13.5234 10.5724L8.86816 8.15149L7.37598 8.89661ZM10.5264 7.32337L15.1182 9.71106L16.624 8.89661L12 6.58802L10.5264 7.32337Z" fill="black"/>
</svg>
