<svg width="24" height="24" viewBox="0 0 24 24" fill="none" xmlns="http://www.w3.org/2000/svg">
<path d="M17.25 4C18.7688 4 20 5.23122 20 6.75V17.25C20 18.7688 18.7688 20 17.25 20H6.75C5.23122 20 4 18.7688 4 17.25V6.75C4 5.23122 5.23122 4 6.75 4H17.25ZM6.75 5.5C6.05964 5.5 5.5 6.05964 5.5 6.75V17.25C5.5 17.9404 6.05964 18.5 6.75 18.5H17.25C17.9404 18.5 18.5 17.9404 18.5 17.25V6.75C18.5 6.05964 17.9404 5.5 17.25 5.5H6.75ZM8.75 12.875C9.16421 12.875 9.5 13.2108 9.5 13.625V14.25C9.5 14.3881 9.61193 14.5 9.75 14.5H10.375C10.7892 14.5 11.125 14.8358 11.125 15.25C11.125 15.6642 10.7892 16 10.375 16H9.75C8.7835 16 8 15.2165 8 14.25V13.625C8 13.2108 8.33579 12.875 8.75 12.875ZM15.25 12.875C15.6642 12.875 16 13.2108 16 13.625V14.25C16 15.2165 15.2165 16 14.25 16H13.625C13.2108 16 12.875 15.6642 12.875 15.25C12.875 14.8358 13.2108 14.5 13.625 14.5H14.25C14.3881 14.5 14.5 14.3881 14.5 14.25V13.625C14.5 13.2108 14.8358 12.875 15.25 12.875ZM10.375 8C10.7892 8 11.125 8.33579 11.125 8.75C11.125 9.16421 10.7892 9.5 10.375 9.5H9.75C9.61193 9.5 9.5 9.61193 9.5 9.75V10.375C9.5 10.7892 9.16421 11.125 8.75 11.125C8.33579 11.125 8 10.7892 8 10.375V9.75C8 8.7835 8.7835 8 9.75 8H10.375ZM14.25 8C15.2165 8 16 8.7835 16 9.75V10.375C16 10.7892 15.6642 11.125 15.25 11.125C14.8358 11.125 14.5 10.7892 14.5 10.375V9.75C14.5 9.61193 14.3881 9.5 14.25 9.5H13.625C13.2108 9.5 12.875 9.16421 12.875 8.75C12.875 8.33579 13.2108 8 13.625 8H14.25Z" fill="black"/>
</svg>
