<svg width="24" height="24" viewBox="0 0 24 24" fill="none" xmlns="http://www.w3.org/2000/svg">
<path fill-rule="evenodd" clip-rule="evenodd" d="M15.6865 4.25584C15.8923 4.0212 16.2215 3.9381 16.5137 4.04783C16.8062 4.15773 17 4.43752 17 4.74998V17C17 17.1363 16.9627 17.2691 16.8936 17.3847L16.8145 17.4941L16.8105 17.498C16.8088 17.5 16.8063 17.5029 16.8037 17.5058C16.7984 17.5118 16.791 17.5197 16.7822 17.5293C16.7658 17.5472 16.7431 17.5711 16.7148 17.6006C16.7631 17.5827 16.8114 17.5667 16.8584 17.5488C17.4853 17.31 17.9918 17.0717 18.3389 16.8945C18.3977 16.8645 18.4506 16.8338 18.5 16.8076V5.74998C18.5 5.33576 18.8358 4.99998 19.25 4.99998C19.6642 4.99998 20 5.33576 20 5.74998V17.25C20 17.5103 19.8651 17.7521 19.6436 17.8886H19.6426V17.8896H19.6406C19.6398 17.8901 19.6388 17.8909 19.6377 17.8916L19.5938 17.9179C19.565 17.9349 19.5241 17.9586 19.4717 17.9883C19.3664 18.0478 19.2143 18.1315 19.0205 18.2304C18.6333 18.4282 18.0769 18.6901 17.3916 18.9511C16.0257 19.4714 14.1198 20 12 20C9.88017 20 7.97426 19.4714 6.6084 18.9511C5.92311 18.6901 5.36673 18.4282 4.97949 18.2304C4.78571 18.1315 4.63358 18.0478 4.52832 17.9883C4.4759 17.9586 4.43496 17.9349 4.40625 17.9179L4.3623 17.8916C4.36116 17.8909 4.36019 17.8901 4.35938 17.8896H4.35742V17.8886H4.35645C4.13487 17.7521 4.00001 17.5103 4 17.25V5.74998C4 5.517 4.10825 5.29721 4.29297 5.15525C4.47774 5.01329 4.71822 4.96533 4.94336 5.02537H4.94434C4.94567 5.02572 4.94817 5.02653 4.95117 5.02732C4.95742 5.02896 4.96739 5.03175 4.98047 5.03513C5.00686 5.04196 5.04708 5.05227 5.09961 5.06541C5.20493 5.09174 5.36122 5.12998 5.55957 5.17576C5.95639 5.26733 6.52268 5.38921 7.19629 5.5117C8.54985 5.7578 10.3134 5.99998 12 5.99998C13.0499 5.99998 13.9678 5.57841 14.6465 5.12595C14.9822 4.90212 15.2483 4.67821 15.4287 4.51169C15.5185 4.4288 15.5863 4.36064 15.6299 4.31541C15.6516 4.29285 15.6674 4.27581 15.6768 4.2656L15.6865 4.25584ZM5.5 16.8076C5.54938 16.8338 5.6023 16.8645 5.66113 16.8945C6.00818 17.0717 6.51473 17.31 7.1416 17.5488C8.23112 17.9639 9.66549 18.371 11.25 18.4736V7.48435C9.68323 7.42736 8.13292 7.20719 6.92871 6.98826C6.37164 6.88697 5.88499 6.78271 5.5 6.69724V16.8076ZM15.4785 6.374C14.8033 6.82411 13.8673 7.29388 12.75 7.44724V18.1777C13.4874 18.039 14.135 17.717 14.6465 17.376C14.9822 17.1521 15.2483 16.9282 15.4287 16.7617C15.4548 16.7376 15.4777 16.7128 15.5 16.6914V6.35837C15.4927 6.36329 15.4859 6.36908 15.4785 6.374Z" fill="black"/>
</svg>
