<svg width="24" height="24" viewBox="0 0 24 24" fill="none" xmlns="http://www.w3.org/2000/svg">
<path d="M17.25 4C18.2165 4 19 4.7835 19 5.75V7.25C19 8.2165 18.2165 9 17.25 9H8.75C7.7835 9 7 8.2165 7 7.25H6.75C6.61193 7.25 6.5 7.36193 6.5 7.5V10.75C6.5 10.8881 6.61193 11 6.75 11H10C11.5188 11 12.75 12.2312 12.75 13.75V15H13C13.9665 15 14.75 15.7835 14.75 16.75V20H13.25V16.75C13.25 16.6119 13.1381 16.5 13 16.5H11C10.8619 16.5 10.75 16.6119 10.75 16.75V20H9.25V16.75C9.25 15.7835 10.0335 15 11 15H11.25V13.75C11.25 13.0596 10.6904 12.5 10 12.5H6.75C5.7835 12.5 5 11.7165 5 10.75V7.5C5 6.5335 5.7835 5.75 6.75 5.75H7C7 4.7835 7.7835 4 8.75 4H17.25ZM8.75 5.5C8.61193 5.5 8.5 5.61193 8.5 5.75V7.25C8.5 7.38807 8.61193 7.5 8.75 7.5H17.25C17.3881 7.5 17.5 7.38807 17.5 7.25V5.75C17.5 5.61193 17.3881 5.5 17.25 5.5H8.75Z" fill="black"/>
</svg>
