<svg width="24" height="24" viewBox="0 0 24 24" fill="none" xmlns="http://www.w3.org/2000/svg">
<path fill-rule="evenodd" clip-rule="evenodd" d="M15.6668 4.79798C16.6531 3.81166 18.2657 3.73097 19.2673 4.73255C20.269 5.73423 20.1882 7.3468 19.2019 8.33314L16.2927 11.2413C17.2263 12.2755 17.2429 13.8547 16.3074 14.9074L15.5603 15.7482C15.4232 15.9023 15.2284 15.993 15.0222 15.9992C14.8158 16.0051 14.6155 15.9254 14.4695 15.7794L14.4197 15.7296L11.8796 19.6574C11.7566 19.8474 11.554 19.9724 11.3289 19.9962C11.1037 20.02 10.8796 19.9405 10.7195 19.7804L4.21949 13.2804C4.05942 13.1203 3.97984 12.8962 4.00367 12.671C4.02753 12.4459 4.15251 12.2433 4.34253 12.1202L8.26929 9.57923L8.21949 9.52942C8.07381 9.38346 7.99375 9.18382 7.99976 8.97767C8.00594 8.77135 8.09743 8.57574 8.25171 8.4386L9.09156 7.69153C10.1437 6.75639 11.7233 6.77386 12.7576 7.70618L15.6668 4.79798ZM5.93531 12.8751L6.99976 13.9396L7.71949 13.2199C8.01234 12.927 8.48713 12.9271 8.78003 13.2199C9.07293 13.5127 9.07293 13.9875 8.78003 14.2804L8.06031 15.0001L11.1238 18.0636L13.3357 14.6456L9.35327 10.6632L5.93531 12.8751ZM11.8025 8.86341C11.3345 8.39599 10.5831 8.37332 10.0886 8.81263L9.84156 9.0304L14.9675 14.1564L15.1863 13.9103C15.6257 13.4156 15.6034 12.6643 15.1355 12.1964L11.8025 8.86341ZM18.2068 5.7931C17.8416 5.42803 17.1799 5.40595 16.7273 5.85853L13.823 8.76185L15.2371 10.1759L18.1414 7.27259C18.594 6.81998 18.5719 6.15826 18.2068 5.7931Z" fill="black"/>
</svg>
