<svg width="24" height="24" viewBox="0 0 24 24" fill="none" xmlns="http://www.w3.org/2000/svg">
<g clip-path="url(#clip0_4152_4400)">
<path fill-rule="evenodd" clip-rule="evenodd" d="M17.5003 14.0004C17.7168 14.0005 17.9233 14.0941 18.0657 14.2572V14.2582L18.0725 14.265C18.0764 14.2695 18.0814 14.2767 18.0882 14.2845C18.1022 14.3008 18.1227 14.3243 18.1477 14.3539C18.1983 14.4137 18.2704 14.4998 18.3557 14.6049C18.5261 14.8145 18.7554 15.1059 18.9856 15.4281C19.2139 15.7476 19.4545 16.1128 19.6409 16.4681C19.8115 16.7934 20.0002 17.2254 20.0003 17.6429C20 19.0033 18.8193 20.0002 17.5003 20.0004C16.1811 20.0004 15.0005 19.0034 15.0003 17.6429C15.0004 17.2253 15.189 16.7934 15.3596 16.4681C15.5461 16.1127 15.7866 15.7476 16.0149 15.4281C16.2452 15.1058 16.4744 14.8146 16.6448 14.6049C16.7303 14.4997 16.8022 14.4137 16.8528 14.3539C16.878 14.3241 16.8983 14.3009 16.9124 14.2845C16.9193 14.2765 16.9241 14.2695 16.928 14.265L16.9348 14.2582V14.2572L16.9915 14.1996C17.1293 14.0723 17.3107 14.0004 17.5003 14.0004ZM17.2356 16.3002C17.0266 16.5927 16.8293 16.8955 16.6878 17.1654C16.6173 17.2998 16.5671 17.4148 16.5354 17.5072C16.505 17.5962 16.5007 17.6384 16.5003 17.6429C16.5005 18.0574 16.8868 18.5004 17.5003 18.5004C18.1136 18.5002 18.5 18.0573 18.5003 17.6429C18.4998 17.6384 18.4955 17.5961 18.4651 17.5072C18.4335 17.4149 18.3832 17.2997 18.3128 17.1654C18.1713 16.8956 17.9739 16.5926 17.7649 16.3002C17.6758 16.1754 17.5858 16.0548 17.5003 15.9427C17.4147 16.0549 17.3249 16.1753 17.2356 16.3002ZM34.2503 15.5004C34.6643 15.5005 35.0003 15.8362 35.0003 16.2504C35.0001 16.6643 34.6642 17.0002 34.2503 17.0004H25.7503C25.3362 17.0004 25.0005 16.6644 25.0003 16.2504C25.0003 15.8362 25.3361 15.5004 25.7503 15.5004H34.2503ZM9.58035 4.57068C10.3131 3.87125 11.3793 3.90509 12.2844 4.19763C13.2265 4.50218 14.2225 5.14532 15.0843 6.02771C15.9456 6.90972 16.5621 7.91753 16.8382 8.86267C17.1025 9.76855 17.1 10.8279 16.3723 11.5316L16.3733 11.5326L11.43 16.4203L11.4202 16.4301C10.6875 17.1293 9.62111 17.0956 8.71609 16.8031C7.77407 16.4986 6.77804 15.8554 5.91628 14.973C5.05497 14.0911 4.43849 13.0832 4.16238 12.1381C3.89682 11.2285 3.89951 10.1631 4.63601 9.45935L9.57058 4.58044V4.58142C9.57389 4.57821 9.57701 4.5739 9.58035 4.57068ZM5.68191 10.5345L5.67214 10.5443C5.53908 10.6718 5.39778 11.0182 5.60183 11.7172C5.79583 12.3814 6.26394 13.1822 6.98953 13.9252C7.7148 14.6677 8.50883 15.1593 9.17702 15.3754C9.87613 15.6013 10.2411 15.478 10.3811 15.348L13.8108 11.9564C13.7604 11.942 13.709 11.9304 13.6594 11.9144C12.7175 11.6099 11.7214 10.9666 10.8596 10.0843C9.99835 9.20234 9.38176 8.19452 9.10574 7.24939C9.09798 7.22283 9.09249 7.19515 9.08523 7.16833L5.68191 10.5345ZM11.8235 5.62537C11.124 5.39924 10.7583 5.52169 10.6184 5.65173L10.6135 5.65857C10.4812 5.78792 10.3423 6.1345 10.5452 6.82947C10.7392 7.49356 11.2075 8.29372 11.9329 9.0365C12.6582 9.77911 13.4522 10.2716 14.1204 10.4877C14.8252 10.7155 15.1909 10.5875 15.3284 10.4564C15.4615 10.329 15.6027 9.98262 15.3987 9.28357C15.2048 8.61935 14.7366 7.81859 14.011 7.07556C13.2857 6.33295 12.4917 5.84149 11.8235 5.62537Z" fill="black"/>
</g>
<defs>
<clipPath id="clip0_4152_4400">
<rect width="24" height="24" fill="white"/>
</clipPath>
</defs>
</svg>
