<svg width="24" height="24" viewBox="0 0 24 24" fill="none" xmlns="http://www.w3.org/2000/svg">
<path d="M12.25 4C12.6642 4 13 4.33579 13 4.75V6.22168L14.6807 4.26172L14.7373 4.20312C14.8756 4.0735 15.0585 4 15.25 4H17.25C17.6642 4 18 4.33579 18 4.75V13.25C18 14.7688 16.7688 16 15.25 16H15V18.25C15 19.2165 14.2165 20 13.25 20H10.75C9.7835 20 9 19.2165 9 18.25V16H8.75C7.23122 16 6 14.7688 6 13.25V4.75C6 4.33579 6.33579 4 6.75 4H12.25ZM7.5 13V13.25C7.5 13.9404 8.05964 14.5 8.75 14.5H9.75C10.1642 14.5 10.5 14.8358 10.5 15.25V18.25C10.5 18.3881 10.6119 18.5 10.75 18.5H13.25C13.3881 18.5 13.5 18.3881 13.5 18.25V15.25C13.5 14.8358 13.8358 14.5 14.25 14.5H15.25C15.9404 14.5 16.5 13.9404 16.5 13.25V13H7.5ZM7.5 11.5H16.5V5.5H15.5947L12.8193 8.73828C12.6151 8.97638 12.2845 9.06182 11.9902 8.95312C11.6959 8.84423 11.5 8.56386 11.5 8.25V5.5H7.5V11.5Z" fill="black"/>
</svg>
