<svg width="24" height="24" viewBox="0 0 24 24" fill="none" xmlns="http://www.w3.org/2000/svg">
<path fill-rule="evenodd" clip-rule="evenodd" d="M11.75 4C12.1641 4.00013 12.5 4.33587 12.5 4.75V7.18945L17.7803 12.4697C18.0729 12.7624 18.0726 13.2363 17.7803 13.5293L12.418 18.9043C10.954 20.3713 8.57693 20.3727 7.11137 18.9072L5.10454 16.8994C3.64115 15.436 3.63975 13.0635 5.10161 11.5986L10.4688 6.2207C10.6093 6.0799 10.8002 6.00021 10.9991 6H11V4.75C11 4.33579 11.3358 4 11.75 4ZM18 15C18.4659 15.0001 18.8135 15.2607 19.0293 15.4873C19.2534 15.7225 19.4293 16.0155 19.5616 16.2939C19.8201 16.8383 20 17.5125 20 18C20 19.1045 19.1045 19.9999 18 20C16.8955 20 16 19.1046 16 18C16 17.5125 16.1799 16.8383 16.4385 16.2939C16.5708 16.0155 16.7467 15.7225 16.9707 15.4873C17.1866 15.2607 17.5342 15 18 15ZM6.16313 12.6582C5.28601 13.5372 5.28705 14.9608 6.16508 15.8389L8.17192 17.8457C9.05114 18.7249 10.4771 18.7246 11.3555 17.8447L16.1895 13L12.5 9.31055V12.25C12.5 12.6641 12.1641 12.9999 11.75 13C11.3358 13 11 12.6642 11 12.25V7.81055L6.16313 12.6582ZM18 16.5879C17.9368 16.6698 17.8655 16.787 17.794 16.9375C17.6002 17.3455 17.5 17.7972 17.5 18C17.5 18.2761 17.7239 18.5 18 18.5C18.2761 18.4999 18.5 18.2761 18.5 18C18.5 17.7972 18.3999 17.3455 18.2061 16.9375C18.1346 16.7871 18.0632 16.6698 18 16.5879Z" fill="black"/>
</svg>
