<svg width="24" height="24" viewBox="0 0 24 24" fill="none" xmlns="http://www.w3.org/2000/svg">
<path fill-rule="evenodd" clip-rule="evenodd" d="M11.3307 5.16025C12.9336 3.61299 15.5212 3.61318 17.1236 5.16122C18.7466 6.72925 18.7392 9.28364 17.109 10.8438L17.11 10.8448L11.402 16.3272C10.4027 17.2908 8.79404 17.29 7.79552 16.3253C6.78212 15.346 6.782 13.7469 7.79552 12.7677L12.5221 8.20126L13.0621 7.68075L14.1041 8.75888L13.5651 9.28036L8.83849 13.8468C8.43521 14.2364 8.43522 14.8566 8.83849 15.2462C9.25627 15.6498 9.94316 15.6498 10.3609 15.2462L10.3629 15.2452L16.0709 9.76279L16.0719 9.76181C17.0879 8.7902 17.0922 7.21678 16.0817 6.24032C15.0601 5.25335 13.3933 5.25342 12.3717 6.24032L12.3707 6.2413L6.72618 11.6729L6.72423 11.6749C5.09718 13.2308 5.09104 15.7576 6.70958 17.3214C8.33689 18.8932 10.9858 18.8934 12.6129 17.3214L18.7281 11.4122L19.2682 10.8907L20.3102 11.9698L19.7711 12.4903L13.6549 18.3995C11.4463 20.5333 7.87521 20.5333 5.66661 18.3995C3.43606 16.2442 3.4451 12.7363 5.68615 10.5919L11.3307 5.16025Z" fill="black"/>
</svg>
