<svg width="24" height="24" viewBox="0 0 24 24" fill="none" xmlns="http://www.w3.org/2000/svg">
<path fill-rule="evenodd" clip-rule="evenodd" d="M7.83691 4.12394C8.18242 3.89596 8.64769 3.99145 8.87598 4.33683C9.10383 4.68211 9.00888 5.14646 8.66406 5.37492L8.66309 5.37589C8.65974 5.37818 8.65285 5.38298 8.64355 5.38956C8.6247 5.40292 8.59398 5.4253 8.55371 5.45597C8.47244 5.51788 8.35082 5.61466 8.20312 5.74699C7.90679 6.01251 7.50691 6.41829 7.10547 6.96671C6.30525 8.05992 5.50002 9.72059 5.5 11.9999C5.5 14.2793 6.30525 15.9399 7.10547 17.0331C7.50691 17.5815 7.90679 17.9873 8.20312 18.2528C8.35082 18.3852 8.47243 18.4819 8.55371 18.5439C8.59397 18.5745 8.62469 18.5969 8.64355 18.6103C8.65283 18.6168 8.65972 18.6216 8.66309 18.6239L8.66406 18.6249H8.66504L8.66602 18.6259L8.72559 18.6698C9.01961 18.9103 9.08965 19.3392 8.87598 19.663C8.6477 20.0084 8.18245 20.1039 7.83691 19.8759L8.25 19.2499C7.86797 19.828 7.83845 19.8718 7.83594 19.8749H7.83496L7.83301 19.8739C7.83185 19.8732 7.83062 19.872 7.8291 19.871C7.8258 19.8688 7.82135 19.8656 7.81641 19.8622C7.80651 19.8555 7.79342 19.8463 7.77734 19.8349C7.74491 19.8119 7.70054 19.7791 7.64551 19.7372C7.53545 19.6534 7.38316 19.5313 7.20312 19.37C6.84325 19.0476 6.36795 18.5656 5.89453 17.9189C4.94488 16.6213 4 14.6573 4 11.9999C4.00002 9.34256 4.94487 7.37848 5.89453 6.08097C6.36796 5.43422 6.84325 4.95222 7.20312 4.6298C7.38316 4.46851 7.53545 4.34643 7.64551 4.26261C7.70055 4.22069 7.74492 4.18791 7.77734 4.16496C7.79342 4.15357 7.80652 4.14437 7.81641 4.13761C7.82135 4.13423 7.8258 4.13104 7.8291 4.12882C7.83062 4.1278 7.83185 4.12666 7.83301 4.12589L7.83496 4.12492H7.83594C7.83774 4.12711 7.85621 4.15419 8.06543 4.47062L7.83691 4.12394ZM15.124 4.33683C15.3523 3.99145 15.8176 3.89596 16.1631 4.12394L15.9346 4.47062C16.1438 4.15419 16.1623 4.12711 16.1641 4.12492H16.165L16.167 4.12589C16.1681 4.12666 16.1694 4.1278 16.1709 4.12882C16.1742 4.13104 16.1786 4.13423 16.1836 4.13761C16.1935 4.14437 16.2066 4.15357 16.2227 4.16496C16.2551 4.18791 16.2995 4.22069 16.3545 4.26261C16.4645 4.34643 16.6168 4.46851 16.7969 4.6298C17.1567 4.95222 17.632 5.43422 18.1055 6.08097C19.0551 7.37848 20 9.34256 20 11.9999C20 14.6573 19.0551 16.6213 18.1055 17.9189C17.632 18.5656 17.1568 19.0476 16.7969 19.37C16.6168 19.5313 16.4646 19.6534 16.3545 19.7372C16.2995 19.7791 16.2551 19.8119 16.2227 19.8349C16.2066 19.8463 16.1935 19.8555 16.1836 19.8622C16.1786 19.8656 16.1742 19.8688 16.1709 19.871C16.1694 19.872 16.1681 19.8732 16.167 19.8739L16.165 19.8749H16.1641C16.1616 19.8718 16.132 19.828 15.75 19.2499L16.1631 19.8759C15.8176 20.1039 15.3523 20.0084 15.124 19.663C14.9104 19.3392 14.9804 18.9103 15.2744 18.6698L15.334 18.6259C15.3342 18.6257 15.3354 18.625 15.3369 18.6239C15.3403 18.6216 15.3472 18.6168 15.3564 18.6103C15.3753 18.5969 15.406 18.5745 15.4463 18.5439C15.5276 18.4819 15.6492 18.3852 15.7969 18.2528C16.0932 17.9873 16.4931 17.5815 16.8945 17.0331C17.6947 15.9399 18.5 14.2793 18.5 11.9999C18.5 9.72059 17.6947 8.05992 16.8945 6.96671C16.4931 6.41829 16.0932 6.01251 15.7969 5.74699C15.6492 5.61466 15.5276 5.51788 15.4463 5.45597C15.406 5.4253 15.3753 5.40292 15.3564 5.38956C15.3471 5.38298 15.3403 5.37818 15.3369 5.37589C14.9915 5.1476 14.896 4.68235 15.124 4.33683Z" fill="black"/>
</svg>
