<svg width="24" height="24" viewBox="0 0 24 24" fill="none" xmlns="http://www.w3.org/2000/svg">
<path d="M17.25 4C18.7688 4 20 5.23122 20 6.75V17.25C20 18.7688 18.7688 20 17.25 20H6.75C5.23122 20 4 18.7688 4 17.25V6.75C4 5.23122 5.23122 4 6.75 4H17.25ZM6.75 5.5C6.05964 5.5 5.5 6.05964 5.5 6.75V17.25C5.5 17.9404 6.05964 18.5 6.75 18.5H17.25C17.9404 18.5 18.5 17.9404 18.5 17.25V6.75C18.5 6.05964 17.9404 5.5 17.25 5.5H6.75ZM12.5 8C13.8807 8 15 9.11929 15 10.5C15 11.8807 13.8807 13 12.5 13H10.5V15.25C10.5 15.6642 10.1642 16 9.75 16C9.33579 16 9 15.6642 9 15.25V8.75C9 8.33579 9.33579 8 9.75 8H12.5ZM10.5 11.5H12.5C13.0523 11.5 13.5 11.0523 13.5 10.5C13.5 9.94772 13.0523 9.5 12.5 9.5H10.5V11.5Z" fill="black"/>
</svg>
