<svg width="24" height="24" viewBox="0 0 24 24" fill="none" xmlns="http://www.w3.org/2000/svg">
<path fill-rule="evenodd" clip-rule="evenodd" d="M8.46361 8.58301C9.17859 7.75803 10.3036 7.94546 11.1374 8.31543C12.0409 8.71639 13.0163 9.48239 13.8865 10.4863C14.7589 11.493 15.409 12.6041 15.7439 13.6084C15.911 14.1099 16.0088 14.6134 15.9988 15.0801C15.9888 15.544 15.8695 16.0319 15.5359 16.417C15.356 16.6246 15.1501 16.7678 14.9294 16.8604C14.9041 16.8726 14.8785 16.8849 14.8513 16.8945L6.42064 19.8691C4.92833 20.4769 3.46316 18.9025 4.20482 17.4521L8.21263 8.96094C8.22447 8.93587 8.23753 8.91179 8.25169 8.88867C8.30991 8.78163 8.38028 8.6792 8.46361 8.58301ZM5.5515 18.1143C5.54822 18.1212 5.54425 18.1279 5.54075 18.1348C5.43507 18.3414 5.64612 18.5723 5.864 18.4785L5.91087 18.46L8.24486 17.6348C7.86016 17.3095 7.47829 16.934 7.114 16.5137C6.93382 16.3058 6.76496 16.0928 6.60521 15.8789L5.5515 18.1143ZM7.34642 14.3076C7.59784 14.7163 7.89988 15.1309 8.24681 15.5312C8.79988 16.1694 9.37671 16.6679 9.90404 17.0049C9.91853 17.0142 9.93239 17.0241 9.94603 17.0342L12.1062 16.2725C11.4319 15.8432 10.7441 15.2419 10.113 14.5137C9.39587 13.6861 8.8316 12.7869 8.46654 11.9355L7.34642 14.3076ZM10.529 9.68652C9.81082 9.36784 9.61114 9.54957 9.5974 9.56543C9.56674 9.60093 9.50503 9.70553 9.49974 9.95215C9.49451 10.1965 9.54717 10.5231 9.67845 10.917C9.9406 11.7034 10.4797 12.6461 11.2468 13.5312C12.0164 14.4193 12.8218 15.0256 13.4704 15.3135C14.1871 15.6315 14.3875 15.4512 14.4021 15.4346C14.4327 15.3992 14.4944 15.2947 14.4997 15.0479C14.505 14.8035 14.4523 14.4769 14.321 14.083C14.0589 13.2965 13.5198 12.3539 12.7527 11.4688C11.983 10.5807 11.1777 9.97439 10.529 9.68652ZM16.7624 12.1768C17.4458 11.4934 18.5536 11.4936 19.237 12.1768L19.53 12.4697C19.8228 12.7626 19.8229 13.2374 19.53 13.5303C19.2371 13.8231 18.7623 13.8231 18.4695 13.5303L18.1765 13.2373C18.0788 13.1399 17.9205 13.1398 17.823 13.2373L17.53 13.5303C17.2371 13.8231 16.7623 13.8231 16.4695 13.5303C16.1768 13.2374 16.1767 12.7625 16.4695 12.4697L16.7624 12.1768ZM15.2195 4.21973C15.5123 3.92687 15.9871 3.92695 16.28 4.21973L16.4089 4.34863C17.8731 5.81304 17.8731 8.18696 16.4089 9.65137L16.28 9.78027C15.9871 10.073 15.5123 10.0731 15.2195 9.78027C14.9267 9.48741 14.9267 9.01259 15.2195 8.71973L15.3484 8.59082C16.2268 7.7122 16.2268 6.2878 15.3484 5.40918L15.2195 5.28027C14.9267 4.98741 14.9267 4.51259 15.2195 4.21973ZM10.9997 4C11.552 4 11.9997 4.44772 11.9997 5C11.9997 5.55228 11.552 6 10.9997 6C10.4476 5.99987 9.99974 5.55221 9.99974 5C9.99974 4.4478 10.4476 4.00013 10.9997 4Z" fill="black"/>
</svg>
