<svg width="24" height="24" viewBox="0 0 24 24" fill="none" xmlns="http://www.w3.org/2000/svg">
<path fill-rule="evenodd" clip-rule="evenodd" d="M11.9998 4C13.6567 4 14.9998 5.34315 14.9998 7C14.9998 7.85304 14.6417 8.62076 14.0701 9.16699L15.9666 16.2783C16.501 16.5385 16.9477 16.969 17.2234 17.5205L17.9207 18.915C18.0367 19.1474 18.0241 19.4235 17.8875 19.6445C17.7508 19.8655 17.5096 20 17.2498 20H6.7498C6.48999 20 6.2488 19.8655 6.11211 19.6445C5.97553 19.4235 5.96288 19.1474 6.0789 18.915L6.77617 17.5205C7.05178 16.9693 7.49802 16.5386 8.03203 16.2783L9.92851 9.16699C9.35723 8.62079 8.9998 7.85279 8.9998 7C8.9998 5.34315 10.3429 4 11.9998 4ZM9.23613 17.5C8.76267 17.5 8.32971 17.7679 8.11797 18.1914L7.96367 18.5H16.0359L15.8816 18.1914C15.6699 17.7679 15.2369 17.5 14.7635 17.5H9.23613ZM9.65898 16H14.3406L12.7156 9.91016C12.486 9.96645 12.2468 10 11.9998 10C11.7525 10 11.5129 9.9666 11.283 9.91016L9.65898 16ZM11.9998 5.5C11.1714 5.5 10.4998 6.17157 10.4998 7C10.4998 7.82843 11.1714 8.5 11.9998 8.5C12.8282 8.5 13.4998 7.82843 13.4998 7C13.4998 6.17157 12.8282 5.5 11.9998 5.5Z" fill="black"/>
</svg>
