<svg width="24" height="24" viewBox="0 0 24 24" fill="none" xmlns="http://www.w3.org/2000/svg">
<path d="M6.25 8C7.2165 8 8 8.7835 8 9.75V11.25C8 12.2165 7.2165 13 6.25 13H5.5V15.25C5.5 15.6642 5.16421 16 4.75 16C4.33579 16 4 15.6642 4 15.25V8.75C4 8.33579 4.33579 8 4.75 8H6.25ZM11.25 8C12.7688 8 14 9.23122 14 10.75V13.25C14 14.7688 12.7688 16 11.25 16H9.75C9.33579 16 9 15.6642 9 15.25V8.75C9 8.33579 9.33579 8 9.75 8H11.25ZM18.25 8C18.6642 8 19 8.33579 19 8.75C19 9.16421 18.6642 9.5 18.25 9.5H16.5V11H18.25C18.6642 11 19 11.3358 19 11.75C19 12.1642 18.6642 12.5 18.25 12.5H16.5V15.25C16.5 15.6642 16.1642 16 15.75 16C15.3358 16 15 15.6642 15 15.25V8.75C15 8.33579 15.3358 8 15.75 8H18.25ZM10.5 14.5H11.25C11.9404 14.5 12.5 13.9404 12.5 13.25V10.75C12.5 10.0596 11.9404 9.5 11.25 9.5H10.5V14.5ZM5.5 11.5H6.25C6.38807 11.5 6.5 11.3881 6.5 11.25V9.75C6.5 9.61193 6.38807 9.5 6.25 9.5H5.5V11.5Z" fill="black"/>
</svg>
