<svg width="24" height="24" viewBox="0 0 24 24" fill="none" xmlns="http://www.w3.org/2000/svg">
<path d="M12 4C16.4183 4 20 7.58172 20 12C20 16.4183 16.4183 20 12 20C7.58172 20 4 16.4183 4 12C4 7.58172 7.58172 4 12 4ZM7.96582 17.0938C8.88998 17.8267 10.0168 18.3134 11.25 18.4551V13.8105L7.96582 17.0938ZM12.75 18.4551C13.9829 18.3134 15.1092 17.8264 16.0332 17.0938L12.75 13.8105V18.4551ZM11.25 5.54395C8.01348 5.91585 5.5 8.66385 5.5 12C5.5 13.5244 6.02657 14.9247 6.90527 16.0332L11.25 11.6895V5.54395ZM12.75 11.6895L17.0938 16.0332C17.9727 14.9247 18.5 13.5246 18.5 12C18.5 8.66385 15.9865 5.91585 12.75 5.54395V11.6895Z" fill="black"/>
</svg>
