<svg width="24" height="24" viewBox="0 0 24 24" fill="none" xmlns="http://www.w3.org/2000/svg">
<path d="M12 4C12.0547 4 12.1078 4.00647 12.1592 4.01758C12.1986 4.02615 12.2371 4.03804 12.2744 4.05273C12.2853 4.05703 12.296 4.06163 12.3066 4.06641C12.3435 4.08294 12.3793 4.10174 12.4131 4.12402C12.4189 4.12787 12.424 4.13272 12.4297 4.13672C12.462 4.15938 12.4929 4.18419 12.5215 4.21191C12.5251 4.21544 12.5287 4.21906 12.5322 4.22266C12.5553 4.24597 12.5776 4.27037 12.5977 4.29688L18.8477 12.5469C18.9951 12.7415 19.0383 12.9959 18.9639 13.2285L17.2773 18.5H18.25C18.6642 18.5 19 18.8358 19 19.25C19 19.6642 18.6642 20 18.25 20H5.75C5.33579 20 5 19.6642 5 19.25C5 18.8358 5.33579 18.5 5.75 18.5H6.72266L5.03613 13.2285C4.96171 12.9959 5.00489 12.7415 5.15234 12.5469L11.4023 4.29688L11.459 4.23047C11.4951 4.19284 11.5346 4.15891 11.5771 4.12988C11.5803 4.12775 11.5838 4.12611 11.5869 4.12402C11.6226 4.10047 11.6601 4.07962 11.6992 4.0625C11.7059 4.05957 11.7129 4.05743 11.7197 4.05469C11.8077 4.01922 11.9026 4 12 4ZM12.75 12.25C12.75 12.6642 12.4142 13 12 13C11.5858 13 11.25 12.6642 11.25 12.25V6.98047L6.58203 13.1426L8.29688 18.5H15.7031L17.417 13.1426L12.75 6.98047V12.25Z" fill="black"/>
</svg>
