<svg width="24" height="24" viewBox="0 0 24 24" fill="none" xmlns="http://www.w3.org/2000/svg">
<path d="M12.75 4.83496C12.9966 4.95157 13.2207 5.12898 13.3994 5.36719L17.5098 10.8477C17.8785 11.3395 17.9625 11.9884 17.7305 12.5576L16.3252 16.0029C17.2568 16.0423 18 16.8087 18 17.75V18.25C18 19.2165 17.2165 20 16.25 20H7.75C6.7835 20 6 19.2165 6 18.25V17.75C6 16.809 6.74269 16.0428 7.67383 16.0029L6.26953 12.5576C6.03759 11.9886 6.12083 11.3394 6.48926 10.8477L10.5996 5.36719C10.7784 5.12883 11.0033 4.95156 11.25 4.83496V4.25H12.75V4.83496ZM7.75 17.5C7.61193 17.5 7.5 17.6119 7.5 17.75V18.25C7.5 18.3881 7.61193 18.5 7.75 18.5H16.25C16.3881 18.5 16.5 18.3881 16.5 18.25V17.75C16.5 17.6119 16.3881 17.5 16.25 17.5H15.7158L15.6611 17.6338L15.333 17.5H8.66699L8.33887 17.6338L8.28418 17.5H7.75ZM12.75 13H11.25V6.99902L7.68945 11.7471C7.637 11.8172 7.62527 11.9101 7.6582 11.9912L9.29199 16H14.708L16.3418 11.9912C16.3747 11.91 16.3631 11.8172 16.3105 11.7471L12.75 6.99902V13Z" fill="black"/>
</svg>
