<svg width="24" height="24" viewBox="0 0 24 24" fill="none" xmlns="http://www.w3.org/2000/svg">
<path fill-rule="evenodd" clip-rule="evenodd" d="M14.7819 4.9067C15.9721 3.71658 17.9021 3.71672 19.0924 4.9067C20.2827 6.09701 20.2826 8.02688 19.0924 9.21725L9.52992 18.7797C9.43133 18.8783 9.30719 18.948 9.17152 18.9799L4.92152 19.9799C4.66878 20.0393 4.40295 19.9633 4.21937 19.7797C4.03595 19.5961 3.95973 19.3303 4.01917 19.0776L5.01917 14.8276C5.05113 14.692 5.12088 14.5677 5.21937 14.4692L14.7819 4.9067ZM18.0319 5.96725C17.4273 5.36305 16.4469 5.36291 15.8424 5.96725L6.43128 15.3774L5.75746 18.2417L8.61878 17.5688L18.0319 8.1567C18.6363 7.55212 18.6364 6.57177 18.0319 5.96725Z" fill="black"/>
</svg>
