<svg width="24" height="24" viewBox="0 0 24 24" fill="none" xmlns="http://www.w3.org/2000/svg">
<path fill-rule="evenodd" clip-rule="evenodd" d="M15.1686 4.52081C15.852 3.83743 16.9598 3.8375 17.6432 4.52081L19.4792 6.35675C20.1624 7.04018 20.1625 8.14799 19.4792 8.83136L9.52994 18.7806C9.43141 18.879 9.30709 18.9479 9.17154 18.9798L4.92154 19.9798C4.66885 20.0391 4.40297 19.9641 4.21939 19.7806C4.03589 19.597 3.95987 19.3311 4.0192 19.0784L5.0192 14.8284L5.05045 14.7288C5.08795 14.6322 5.14561 14.5439 5.21939 14.47L15.1686 4.52081ZM6.43131 15.3782L5.75748 18.2415L8.62076 17.5677L16.0553 10.1321L13.8659 7.94269L6.43131 15.3782ZM16.5827 5.58136C16.485 5.48383 16.3268 5.48376 16.2292 5.58136L14.9264 6.88214L17.1159 9.07159L18.4186 7.77081C18.5162 7.67323 18.5161 7.51494 18.4186 7.4173L16.5827 5.58136Z" fill="black"/>
</svg>
