<svg width="24" height="24" viewBox="0 0 24 24" fill="none" xmlns="http://www.w3.org/2000/svg">
<path d="M12 4C12.2662 4 12.5128 4.14146 12.6475 4.37109L16.8975 11.6211C16.9647 11.736 17 11.8668 17 12V19.25C17 19.6642 16.6642 20 16.25 20C15.8358 20 15.5 19.6642 15.5 19.25V14.5H8.5V19.25C8.5 19.6642 8.16421 20 7.75 20C7.33579 20 7 19.6642 7 19.25V12C7 11.8668 7.03529 11.736 7.10254 11.6211L11.3525 4.37109C11.4872 4.14146 11.7338 4 12 4ZM13.8105 9.32129C13.417 9.69779 12.831 10 12 10C11.1687 10 10.582 9.69802 10.1885 9.32129L8.5 12.2031V13H15.5V12.2031L13.8105 9.32129ZM11.0098 7.91992C11.0362 7.98535 11.0807 8.0716 11.1484 8.15625C11.2671 8.30459 11.4949 8.5 12 8.5C12.5051 8.5 12.7329 8.30459 12.8516 8.15625C12.9192 8.07175 12.9628 7.98531 12.9893 7.91992L12 6.2334L11.0098 7.91992Z" fill="black"/>
</svg>
