<svg width="24" height="24" viewBox="0 0 24 24" fill="none" xmlns="http://www.w3.org/2000/svg">
<path d="M12.25 4C12.6642 4 13 4.33579 13 4.75C13 5.16421 12.6642 5.5 12.25 5.5H8V18.5H13.25C13.6642 18.5 14 18.8358 14 19.25C14 19.6642 13.6642 20 13.25 20H5.75C4.7835 20 4 19.2165 4 18.25V5.75C4 4.7835 4.7835 4 5.75 4H12.25ZM17.25 4C18.7688 4 20 5.23122 20 6.75V16.25C20 16.4123 19.947 16.5704 19.8496 16.7002L17.5996 19.7002C17.458 19.8889 17.2359 20 17 20C16.7641 20 16.542 19.8889 16.4004 19.7002L14.1504 16.7002C14.053 16.5704 14 16.4123 14 16.25V6.75C14 5.23122 15.2312 4 16.75 4H17.25ZM5.75 5.5C5.61193 5.5 5.5 5.61193 5.5 5.75V18.25C5.5 18.3881 5.61193 18.5 5.75 18.5H6.5V5.5H5.75ZM16.75 5.5C16.0596 5.5 15.5 6.05964 15.5 6.75V16L17 18L18.5 16V6.75C18.5 6.05964 17.9404 5.5 17.25 5.5H16.75Z" fill="black"/>
</svg>
