<svg width="24" height="24" viewBox="0 0 24 24" fill="none" xmlns="http://www.w3.org/2000/svg">
<path d="M9 4C10.6569 4 12 5.34315 12 7C12 7.89436 11.6062 8.69451 10.9854 9.24414C11.8221 9.47975 12.4878 9.88918 12.9814 10.4941C13.7884 11.4831 14 12.8307 14 14.25C14 14.6642 13.6642 15 13.25 15H12V17.25C12 18.7688 10.7688 20 9.25 20H8.75C7.23122 20 6 18.7688 6 17.25V15H4.75C4.33579 15 4 14.6642 4 14.25C4 12.8307 4.21157 11.4831 5.01855 10.4941C5.51205 9.8894 6.17735 9.47979 7.01367 9.24414C6.39318 8.69452 6 7.8941 6 7C6 5.34315 7.34315 4 9 4ZM14.75 4C15.5664 4 16.3624 4.32731 16.957 4.84277C17.5533 5.3597 18 6.11586 18 7C18 7.77335 17.6575 8.44811 17.1729 8.95117C17.8652 9.2505 18.4295 9.69287 18.8682 10.2607C19.7117 11.3528 20 12.7946 20 14.25C20 14.6642 19.6642 15 19.25 15H18V17.25C18 18.7688 16.7688 20 15.25 20H14.75C14.3358 20 14 19.6642 14 19.25C14 18.8358 14.3358 18.5 14.75 18.5H15.25C15.9404 18.5 16.5 17.9404 16.5 17.25V14.25C16.5 13.8358 16.8358 13.5 17.25 13.5H18.4648C18.3797 12.5446 18.1264 11.7525 17.6816 11.1768C17.1527 10.4921 16.2696 10 14.75 10C14.3358 10 14 9.66421 14 9.25C14 8.83579 14.3358 8.5 14.75 8.5C15.1762 8.5 15.6299 8.32323 15.9746 8.02441C16.3177 7.727 16.5 7.35846 16.5 7C16.5 6.64154 16.3177 6.273 15.9746 5.97559C15.6299 5.67677 15.1762 5.5 14.75 5.5C14.3358 5.5 14 5.16421 14 4.75C14 4.33579 14.3358 4 14.75 4ZM9 10.5C7.41925 10.5 6.62004 10.9049 6.18066 11.4434C5.80681 11.9018 5.59898 12.5708 5.5293 13.5H6.75C7.16421 13.5 7.5 13.8358 7.5 14.25V17.25C7.5 17.9404 8.05964 18.5 8.75 18.5H9.25C9.94036 18.5 10.5 17.9404 10.5 17.25V14.25C10.5 13.8358 10.8358 13.5 11.25 13.5H12.4707C12.401 12.5708 12.1932 11.9018 11.8193 11.4434C11.38 10.9049 10.5808 10.5 9 10.5ZM9 5.5C8.17157 5.5 7.5 6.17157 7.5 7C7.5 7.82843 8.17157 8.5 9 8.5C9.82843 8.5 10.5 7.82843 10.5 7C10.5 6.17157 9.82843 5.5 9 5.5Z" fill="black"/>
</svg>
