<svg width="24" height="24" viewBox="0 0 24 24" fill="none" xmlns="http://www.w3.org/2000/svg">
<path fill-rule="evenodd" clip-rule="evenodd" d="M16.6357 4.09487C16.8623 3.96903 17.1377 3.96903 17.3643 4.09487L19.6143 5.34487C19.8522 5.47719 20 5.72789 20 6.00014V9.00014C19.9999 9.27232 19.8522 9.52317 19.6143 9.65542L17.3643 10.9054C17.349 10.9139 17.3332 10.9224 17.3174 10.9298L14 12.4777V17.0001C13.9999 17.2778 13.846 17.5333 13.6006 17.6632L9.35059 19.9132C9.13134 20.0291 8.86866 20.0291 8.64941 19.9132L4.39941 17.6632C4.15399 17.5333 4.00013 17.2778 4 17.0001V12.0001C4 11.7224 4.15397 11.4671 4.39941 11.3371L8.64941 9.08706L8.7334 9.04897C8.93359 8.97283 9.15865 8.98558 9.35059 9.08706L13.2705 11.1623L15.3506 10.1916L14.3857 9.65542C14.1478 9.52317 14.0001 9.27232 14 9.00014V6.00014C14 5.72789 14.1478 5.47719 14.3857 5.34487L16.6357 4.09487ZM5.5 12.4513V16.548L9 18.4005L12.5 16.548V12.4513L9 10.5988L5.5 12.4513ZM8.72168 12.0539C9.10623 11.9001 9.54248 12.0873 9.69629 12.4718C9.84979 12.8563 9.66275 13.2927 9.27832 13.4464L8.5 13.757V14.2501C8.49981 14.6642 8.1641 15.0001 7.75 15.0001C7.3359 15.0001 7.00019 14.6642 7 14.2501V13.2501C7 12.9435 7.187 12.6678 7.47168 12.5539L8.72168 12.0539ZM15.5 6.44057V8.55874L17 9.39175L18.5 8.55874V6.44057L17 5.60757L15.5 6.44057Z" fill="black"/>
</svg>
