<svg width="24" height="24" viewBox="0 0 24 24" fill="none" xmlns="http://www.w3.org/2000/svg">
<path d="M10 4C11.6569 4 13 5.34315 13 7C13 7.89436 12.6062 8.69451 11.9854 9.24414C12.8219 9.47985 13.4878 9.88921 13.9814 10.4941C14.6446 11.3069 14.9025 12.3622 14.9746 13.5H18.25C18.6642 13.5 19 13.8358 19 14.25V19.25C19 19.6642 18.6642 20 18.25 20H9.75C8.23122 20 7 18.7688 7 17.25V15H5.75C5.33579 15 5 14.6642 5 14.25C5 12.8307 5.21157 11.4831 6.01855 10.4941C6.51203 9.88943 7.17753 9.47989 8.01367 9.24414C7.39318 8.69452 7 7.8941 7 7C7 5.34315 8.34315 4 10 4ZM10 10.5C8.41925 10.5 7.62004 10.9049 7.18066 11.4434C6.80681 11.9018 6.59898 12.5708 6.5293 13.5H7.75C8.16421 13.5 8.5 13.8358 8.5 14.25V17.25C8.5 17.9404 9.05964 18.5 9.75 18.5H11.5V14.25C11.5 13.8358 11.8358 13.5 12.25 13.5H13.4707C13.401 12.5708 13.1932 11.9018 12.8193 11.4434C12.38 10.9049 11.5808 10.5 10 10.5ZM13 18.5H17.5V15H13V18.5ZM10 5.5C9.17157 5.5 8.5 6.17157 8.5 7C8.5 7.82843 9.17157 8.5 10 8.5C10.8284 8.5 11.5 7.82843 11.5 7C11.5 6.17157 10.8284 5.5 10 5.5Z" fill="black"/>
</svg>
