<svg width="24" height="24" viewBox="0 0 24 24" fill="none" xmlns="http://www.w3.org/2000/svg">
<path d="M9 4C10.6568 4 11.9999 5.34321 12 7C12 7.89433 11.6061 8.69451 10.9854 9.24414C11.8219 9.47984 12.4878 9.88926 12.9814 10.4941C13.7884 11.4831 14 12.8307 14 14.25C14 14.6642 13.6642 15 13.25 15H12V17.25C12 18.7688 10.7688 20 9.25 20H8.75C7.23122 20 6 18.7688 6 17.25V15H4.75C4.33579 15 4 14.6642 4 14.25C4.00001 12.8307 4.21159 11.4831 5.01855 10.4941C5.51202 9.88947 6.17757 9.47988 7.01367 9.24414C6.39322 8.69452 6 7.89406 6 7C6.00007 5.34321 7.34319 4 9 4ZM9 10.5C7.41933 10.5 6.62006 10.9049 6.18066 11.4434C5.80683 11.9018 5.59899 12.5708 5.5293 13.5H6.75C7.16417 13.5 7.49993 13.8358 7.5 14.25V17.25C7.5 17.9404 8.05964 18.5 8.75 18.5H9.25C9.94036 18.5 10.5 17.9404 10.5 17.25V14.25C10.5001 13.8358 10.8358 13.5 11.25 13.5H12.4707C12.401 12.5708 12.1932 11.9018 11.8193 11.4434C11.3799 10.9049 10.5807 10.5 9 10.5ZM18.9551 4.06055C19.3042 3.91075 19.7167 4.04661 19.9053 4.38574C20.1064 4.74776 19.9762 5.20405 19.6143 5.40527C19.6122 5.40645 19.6076 5.40958 19.6016 5.41309C19.5895 5.42011 19.5699 5.43139 19.5439 5.44727C19.4908 5.47983 19.4104 5.53128 19.3105 5.59961C19.1101 5.73679 18.8324 5.94212 18.5342 6.21191C17.93 6.75852 17.2808 7.53066 16.9619 8.4873C16.8797 8.73389 16.6748 8.91976 16.4219 8.97949C16.169 9.03907 15.9034 8.964 15.7197 8.78027L14.2197 7.28027C13.9269 6.98737 13.9269 6.5126 14.2197 6.21973C14.5126 5.92692 14.9874 5.92692 15.2803 6.21973L16.0137 6.95312C16.4576 6.17276 17.0285 5.55279 17.5283 5.10059C17.8862 4.7768 18.2181 4.5288 18.4629 4.36133C18.5853 4.27759 18.687 4.21349 18.7598 4.16895C18.796 4.14673 18.8255 4.12856 18.8467 4.11621C18.8573 4.11004 18.8666 4.10524 18.873 4.10156C18.8762 4.09979 18.8788 4.09786 18.8809 4.09668C18.8818 4.09615 18.883 4.09612 18.8838 4.0957L18.8848 4.09473H18.8857L18.9551 4.06055ZM9 5.5C8.17162 5.5 7.50007 6.17164 7.5 7C7.5 7.82843 8.17157 8.5 9 8.5C9.82843 8.5 10.5 7.82843 10.5 7C10.4999 6.17164 9.82838 5.5 9 5.5Z" fill="black"/>
</svg>
