<svg width="24" height="24" viewBox="0 0 24 24" fill="none" xmlns="http://www.w3.org/2000/svg">
<path d="M12 4C13.6569 4 15 5.34315 15 7C15 7.89436 14.6062 8.69451 13.9854 9.24414C14.8221 9.47975 15.4878 9.88918 15.9814 10.4941C16.7884 11.4831 17 12.8307 17 14.25C17 14.6642 16.6642 15 16.25 15H15V17.25C15 18.7688 13.7688 20 12.25 20H11.75C10.2312 20 9 18.7688 9 17.25V15H7.75C7.33579 15 7 14.6642 7 14.25C7 12.8307 7.21157 11.4831 8.01855 10.4941C8.51205 9.8894 9.17735 9.47979 10.0137 9.24414C9.39318 8.69452 9 7.8941 9 7C9 5.34315 10.3431 4 12 4ZM12 10.5C10.4192 10.5 9.62004 10.9049 9.18066 11.4434C8.80681 11.9018 8.59898 12.5708 8.5293 13.5H9.75C10.1642 13.5 10.5 13.8358 10.5 14.25V17.25C10.5 17.9404 11.0596 18.5 11.75 18.5H12.25C12.9404 18.5 13.5 17.9404 13.5 17.25V14.25C13.5 13.8358 13.8358 13.5 14.25 13.5H15.4707C15.401 12.5708 15.1932 11.9018 14.8193 11.4434C14.38 10.9049 13.5808 10.5 12 10.5ZM12 5.5C11.1716 5.5 10.5 6.17157 10.5 7C10.5 7.82843 11.1716 8.5 12 8.5C12.8284 8.5 13.5 7.82843 13.5 7C13.5 6.17157 12.8284 5.5 12 5.5Z" fill="black"/>
</svg>
