<svg width="24" height="24" viewBox="0 0 24 24" fill="none" xmlns="http://www.w3.org/2000/svg">
<path d="M9 4C10.6569 4 12 5.34315 12 7C12 7.89436 11.6062 8.69451 10.9854 9.24414C11.8219 9.47985 12.4878 9.88921 12.9814 10.4941C13.7884 11.4831 14 12.8307 14 14.25C14 14.6642 13.6642 15 13.25 15H12V17.25C12 18.7688 10.7688 20 9.25 20H8.75C7.23122 20 6 18.7688 6 17.25V15H4.75C4.33579 15 4 14.6642 4 14.25C4 12.8307 4.21157 11.4831 5.01855 10.4941C5.51203 9.88943 6.17753 9.47989 7.01367 9.24414C6.39318 8.69452 6 7.8941 6 7C6 5.34315 7.34315 4 9 4ZM9 10.5C7.41925 10.5 6.62004 10.9049 6.18066 11.4434C5.80681 11.9018 5.59898 12.5708 5.5293 13.5H6.75C7.16421 13.5 7.5 13.8358 7.5 14.25V17.25C7.5 17.9404 8.05964 18.5 8.75 18.5H9.25C9.94036 18.5 10.5 17.9404 10.5 17.25V14.25C10.5 13.8358 10.8358 13.5 11.25 13.5H12.4707C12.401 12.5708 12.1932 11.9018 11.8193 11.4434C11.38 10.9049 10.5808 10.5 9 10.5ZM18.7197 4.21973C19.0126 3.92683 19.4874 3.92683 19.7803 4.21973C20.0732 4.51262 20.0732 4.98738 19.7803 5.28027L18.5605 6.5L19.7803 7.71973C20.0732 8.01262 20.0732 8.48738 19.7803 8.78027C19.4874 9.07317 19.0126 9.07317 18.7197 8.78027L17.5 7.56055L16.2803 8.78027C15.9874 9.07317 15.5126 9.07317 15.2197 8.78027C14.9268 8.48738 14.9268 8.01262 15.2197 7.71973L16.4395 6.5L15.2197 5.28027C14.9268 4.98738 14.9268 4.51262 15.2197 4.21973C15.5126 3.92683 15.9874 3.92683 16.2803 4.21973L17.5 5.43945L18.7197 4.21973ZM9 5.5C8.17157 5.5 7.5 6.17157 7.5 7C7.5 7.82843 8.17157 8.5 9 8.5C9.82843 8.5 10.5 7.82843 10.5 7C10.5 6.17157 9.82843 5.5 9 5.5Z" fill="black"/>
</svg>
