<svg width="24" height="24" viewBox="0 0 24 24" fill="none" xmlns="http://www.w3.org/2000/svg">
<path d="M12.25 6C13.7688 6 15 7.23122 15 8.75V15.25H15.25C15.9404 15.25 16.5 14.6904 16.5 14V10.3799C16.5001 9.9514 16.6577 9.53803 16.9424 9.21777L18.6895 7.25195C18.9646 6.94241 19.4385 6.91438 19.748 7.18945C20.0576 7.46461 20.0856 7.93846 19.8105 8.24805L18.0635 10.2139C18.0229 10.2596 18.0001 10.3188 18 10.3799V14C18 15.5188 16.7688 16.75 15.25 16.75H15V18.5H15.25C15.6642 18.5 16 18.8358 16 19.25C16 19.6642 15.6642 20 15.25 20H4.75C4.33579 20 4 19.6642 4 19.25C4 18.8358 4.33579 18.5 4.75 18.5H5V8.75C5 7.23122 6.23122 6 7.75 6H12.25ZM7.75 7.5C7.05964 7.5 6.5 8.05964 6.5 8.75V18.5H13.5V8.75C13.5 8.05964 12.9404 7.5 12.25 7.5H7.75ZM11.25 9C11.6642 9 12 9.33579 12 9.75V13.25C12 13.6642 11.6642 14 11.25 14H8.75C8.33579 14 8 13.6642 8 13.25V9.75C8 9.33579 8.33579 9 8.75 9H11.25ZM9.5 12.5H10.5V10.5H9.5V12.5Z" fill="black"/>
</svg>
