<svg width="24" height="24" viewBox="0 0 24 24" fill="none" xmlns="http://www.w3.org/2000/svg">
<path fill-rule="evenodd" clip-rule="evenodd" d="M11.698 4.06347C11.9221 3.96494 12.1835 3.98106 12.3953 4.1123L18.6453 7.99218L19.6453 8.6123C19.9972 8.8307 20.1058 9.2936 19.8875 9.6455C19.698 9.95062 19.325 10.0715 18.9998 9.95605V18.25C18.9998 19.2165 18.2163 20 17.2498 20H6.7498C5.78348 19.9998 4.9998 19.2164 4.9998 18.25V9.95605C4.67464 10.0714 4.30149 9.95062 4.1121 9.6455C3.89408 9.29371 4.00271 8.83072 4.35429 8.6123L5.35429 7.99218L11.6043 4.1123L11.698 4.06347ZM6.4998 9.04589V18.25C6.4998 18.3879 6.61191 18.4998 6.7498 18.5H17.2498C17.3879 18.5 17.4998 18.3881 17.4998 18.25V9.04589L11.9998 5.63281L6.4998 9.04589ZM11.9998 9C12.414 9 12.7498 9.33581 12.7498 9.75V12.25H15.2498C15.664 12.25 15.9998 12.5858 15.9998 13C15.9998 13.4142 15.664 13.75 15.2498 13.75H12.7498V16.25C12.7498 16.6642 12.414 17 11.9998 17C11.5858 16.9998 11.2498 16.6641 11.2498 16.25V13.75H8.7498C8.33577 13.7498 7.9998 13.4141 7.9998 13C7.99983 12.5859 8.33579 12.2502 8.7498 12.25H11.2498V9.75C11.2498 9.33594 11.5858 9.00021 11.9998 9Z" fill="black"/>
</svg>
