<svg width="24" height="24" viewBox="0 0 24 24" fill="none" xmlns="http://www.w3.org/2000/svg">
<path fill-rule="evenodd" clip-rule="evenodd" d="M15.7132 12.4209C15.9624 12.2466 16.2985 12.2386 16.5589 12.4121L19.6653 14.4834C19.874 14.6225 19.9993 14.8567 19.9993 15.1074V17.9043C19.9993 19.0391 19.1234 20.0667 17.8851 20.0332C16.237 19.9886 13.3532 19.6514 10.5872 18.042C10.2293 17.8337 10.1076 17.3746 10.3157 17.0166C10.524 16.6586 10.9831 16.537 11.3411 16.7451C13.8066 18.1797 16.4103 18.4922 17.9261 18.5332C18.2183 18.541 18.4993 18.3006 18.4993 17.9043V15.5078L16.2376 14.001L14.9407 15.2988C14.5808 15.6588 13.9711 15.9266 13.3333 15.6719C13.2135 15.624 13.0814 15.5641 12.9407 15.4883C12.5763 15.2918 12.4399 14.8372 12.636 14.4727C12.8326 14.108 13.288 13.9715 13.6526 14.168C13.7242 14.2065 13.7914 14.2356 13.8509 14.2607C13.8592 14.255 13.87 14.2485 13.8802 14.2383L15.6126 12.5059L15.7132 12.4209ZM8.98565 4.00586C9.20037 4.03269 9.39518 4.15142 9.5169 4.33398L11.5882 7.44141C11.7863 7.73884 11.7472 8.13497 11.4944 8.3877L9.85674 10.0254C9.82259 10.0596 9.80644 10.0947 9.80108 10.1201C9.79634 10.1427 9.7993 10.1586 9.80596 10.1729C10.0133 10.6113 10.3878 11.2791 10.9778 11.9609L17.72 5.21973C18.0129 4.92706 18.4878 4.92691 18.7806 5.21973C19.0732 5.51256 19.0732 5.98744 18.7806 6.28027L6.28057 18.7803C5.98776 19.0731 5.51294 19.0729 5.22003 18.7803C4.92713 18.4874 4.92713 18.0126 5.22003 17.7197L7.45538 15.4834C4.53564 12.1956 4.0226 8.169 3.9671 6.11328C3.9338 4.87468 4.96093 4.00012 6.09503 4H8.89288L8.98565 4.00586ZM6.09503 5.5C5.6983 5.50011 5.45824 5.78155 5.46612 6.07324C5.51739 7.97117 5.9925 11.5298 8.51788 14.4209L9.91632 13.0225C9.17273 12.1832 8.70705 11.3569 8.45049 10.8145C8.13644 10.1505 8.33687 9.4243 8.7962 8.96484L9.99835 7.76172L8.49151 5.5H6.09503Z" fill="black"/>
</svg>
