<svg width="24" height="24" viewBox="0 0 24 24" fill="none" xmlns="http://www.w3.org/2000/svg">
<path d="M8.89258 4C9.14329 4 9.37749 4.12541 9.5166 4.33398L11.5879 7.44141C11.7862 7.73887 11.7469 8.1349 11.4941 8.3877L9.85742 10.0254C9.82318 10.0596 9.80715 10.0947 9.80176 10.1201C9.797 10.1428 9.79992 10.1585 9.80664 10.1729C10.0679 10.7253 10.5911 11.6442 11.4814 12.4932C12.3694 13.3399 13.2729 13.8802 13.8262 14.166C13.8468 14.1767 13.8696 14.18 13.8975 14.1748C13.9275 14.1691 13.9654 14.1518 14.001 14.1162L15.6123 12.5059L15.7139 12.4209C15.9631 12.2468 16.2983 12.2386 16.5586 12.4121L19.666 14.4834C19.8746 14.6225 20 14.8567 20 15.1074V17.9316C20 19.0739 19.0739 20 17.9316 20C10.2375 19.9999 4.0001 13.7626 4 6.06836C4 4.92613 4.92613 4 6.06836 4H8.89258ZM6.06836 5.5C5.75456 5.5 5.5 5.75456 5.5 6.06836C5.5001 12.9341 11.0659 18.4999 17.9316 18.5C18.2454 18.5 18.5 18.2454 18.5 17.9316V15.5088L16.2373 14.001L15.0625 15.1768C14.5778 15.6614 13.8107 15.8457 13.1377 15.498C12.4983 15.1677 11.4659 14.5503 10.4463 13.5781C9.38372 12.5648 8.76323 11.4763 8.4502 10.8145C8.13633 10.1507 8.33681 9.42427 8.7959 8.96484L9.99805 7.76172L8.49121 5.5H6.06836ZM18.7197 4.21973C19.0126 3.92683 19.4874 3.92683 19.7803 4.21973C20.0732 4.51262 20.0732 4.98738 19.7803 5.28027L18.5605 6.5L19.7803 7.71973C20.0732 8.01262 20.0732 8.48738 19.7803 8.78027C19.4874 9.07317 19.0126 9.07317 18.7197 8.78027L17.5 7.56055L16.2803 8.78027C15.9874 9.07317 15.5126 9.07317 15.2197 8.78027C14.9268 8.48738 14.9268 8.01262 15.2197 7.71973L16.4395 6.5L15.2197 5.28027C14.9268 4.98738 14.9268 4.51262 15.2197 4.21973C15.5126 3.92683 15.9874 3.92683 16.2803 4.21973L17.5 5.43945L18.7197 4.21973Z" fill="black"/>
</svg>
