<svg width="24" height="24" viewBox="0 0 24 24" fill="none" xmlns="http://www.w3.org/2000/svg">
<path fill-rule="evenodd" clip-rule="evenodd" d="M8.89258 4.00016C9.14329 4.00016 9.37749 4.12558 9.5166 4.33415L11.5879 7.44157C11.7862 7.73903 11.7469 8.13506 11.4941 8.38786L9.85742 10.0256C9.82319 10.0598 9.80715 10.0948 9.80176 10.1203C9.797 10.143 9.79992 10.1587 9.80664 10.173C10.0679 10.7255 10.5911 11.6444 11.4814 12.4933C12.3694 13.34 13.2729 13.8804 13.8262 14.1662C13.8468 14.1768 13.8696 14.1801 13.8975 14.175C13.9275 14.1693 13.9654 14.1519 14.001 14.1164L15.6123 12.506L15.7139 12.4211C15.9631 12.247 16.2983 12.2388 16.5586 12.4123L19.666 14.4836C19.8746 14.6227 20 14.8569 20 15.1076V17.9318C20 19.074 19.0739 20.0002 17.9316 20.0002C10.2375 20.0001 4.0001 13.7627 4 6.06852C4 4.9263 4.92614 4.00016 6.06836 4.00016H8.89258ZM6.06836 5.50016C5.75456 5.50016 5.5 5.75473 5.5 6.06852C5.5001 12.9343 11.0659 18.5001 17.9316 18.5002C18.2454 18.5002 18.5 18.2456 18.5 17.9318V15.509L16.2373 14.0011L15.0625 15.1769C14.5778 15.6616 13.8107 15.8459 13.1377 15.4982C12.4983 15.1679 11.4659 14.5504 10.4463 13.5783C9.38372 12.565 8.76323 11.4764 8.4502 10.8146C8.13633 10.1508 8.33681 9.42443 8.7959 8.96501L9.99805 7.76188L8.49121 5.50016H6.06836ZM16.1924 4.24821C16.4695 3.94038 16.9441 3.91547 17.252 4.19255L19.752 6.44255C19.91 6.58477 20 6.78757 20 7.00016C20 7.21275 19.91 7.41555 19.752 7.55778L17.252 9.80778C16.9441 10.0849 16.4695 10.0599 16.1924 9.75212C15.9153 9.44425 15.9402 8.96965 16.248 8.69255L17.2949 7.75016H13.75C13.3358 7.75016 13 7.41438 13 7.00016C13 6.58595 13.3358 6.25016 13.75 6.25016H17.2949L16.248 5.30778C15.9402 5.03068 15.9153 4.55607 16.1924 4.24821Z" fill="black"/>
</svg>
