<svg width="24" height="24" viewBox="0 0 24 24" fill="none" xmlns="http://www.w3.org/2000/svg">
<path d="M8.89258 4C9.14329 4 9.37749 4.12541 9.5166 4.33398L11.5879 7.44141C11.7862 7.73887 11.7469 8.1349 11.4941 8.3877L9.85742 10.0254C9.82319 10.0596 9.80715 10.0947 9.80176 10.1201C9.797 10.1428 9.79993 10.1585 9.80664 10.1729C10.0679 10.7252 10.5911 11.6442 11.4814 12.4932C12.3693 13.3398 13.2729 13.8801 13.8262 14.166C13.8468 14.1767 13.8696 14.18 13.8975 14.1748C13.9275 14.1691 13.9654 14.1518 14.001 14.1162L15.6123 12.5049C15.8651 12.2522 16.2612 12.2138 16.5586 12.4121L19.666 14.4834C19.8746 14.6225 20 14.8567 20 15.1074V17.9316C20 19.0739 19.0739 20 17.9316 20C10.2375 19.9999 4.0001 13.7626 4 6.06836C4 4.92614 4.92614 4 6.06836 4H8.89258ZM6.06836 5.5C5.75456 5.5 5.5 5.75456 5.5 6.06836C5.5001 12.9341 11.0659 18.4999 17.9316 18.5C18.2454 18.5 18.5 18.2454 18.5 17.9316V15.5088L16.2373 14.001L15.0625 15.1768C14.5778 15.6616 13.8107 15.8456 13.1377 15.498C12.4984 15.1677 11.4658 14.5503 10.4463 13.5781C9.38371 12.5648 8.76322 11.4762 8.4502 10.8145C8.13636 10.1507 8.3368 9.42428 8.7959 8.96484L9.99805 7.76172L8.49121 5.5H6.06836ZM18.9551 4.06055C19.3042 3.9107 19.7167 4.04651 19.9053 4.38574C20.1064 4.74777 19.9762 5.20407 19.6143 5.40527C19.6122 5.40645 19.6076 5.40956 19.6016 5.41309C19.5895 5.42012 19.5699 5.43137 19.5439 5.44727C19.4908 5.47984 19.4105 5.53126 19.3105 5.59961C19.11 5.7368 18.8324 5.94209 18.5342 6.21191C17.93 6.75854 17.2808 7.5306 16.9619 8.4873C16.8797 8.7339 16.6749 8.91977 16.4219 8.97949C16.169 9.03907 15.9035 8.964 15.7197 8.78027L14.2197 7.28027C13.9268 6.98738 13.9268 6.51262 14.2197 6.21973C14.5126 5.92683 14.9874 5.92683 15.2803 6.21973L16.0137 6.95312C16.4576 6.17271 17.0285 5.55281 17.5283 5.10059C17.8862 4.77677 18.2181 4.52881 18.4629 4.36133C18.5853 4.27757 18.687 4.2135 18.7598 4.16895C18.7961 4.14671 18.8255 4.12857 18.8467 4.11621C18.8573 4.11003 18.8666 4.10525 18.873 4.10156C18.8762 4.09978 18.8787 4.09787 18.8809 4.09668C18.8819 4.09612 18.883 4.09613 18.8838 4.0957L18.8848 4.09473H18.8857L18.9551 4.06055Z" fill="black"/>
</svg>
