<svg width="24" height="24" viewBox="0 0 24 24" fill="none" xmlns="http://www.w3.org/2000/svg">
<path d="M15.25 11C16.7688 11 18 12.2312 18 13.75V19.25C18 19.6642 17.6642 20 17.25 20C16.8358 20 16.5 19.6642 16.5 19.25V13.75C16.5 13.0596 15.9404 12.5 15.25 12.5H8.75C8.05964 12.5 7.5 13.0596 7.5 13.75V19.25C7.5 19.6642 7.16421 20 6.75 20C6.33579 20 6 19.6642 6 19.25V13.75C6 12.2312 7.23122 11 8.75 11H15.25ZM12.25 13.5C12.6642 13.5 13 13.8358 13 14.25C13 14.6642 12.6642 15 12.25 15H11.75C11.3358 15 11 14.6642 11 14.25C11 13.8358 11.3358 13.5 11.75 13.5H12.25ZM13.25 6C13.6642 6 14 6.33579 14 6.75V8.25C14 8.66421 13.6642 9 13.25 9C12.8358 9 12.5 8.66421 12.5 8.25V6.75C12.5 6.33579 12.8358 6 13.25 6ZM16.25 5C16.6642 5 17 5.33579 17 5.75V8.25C17 8.66421 16.6642 9 16.25 9C15.8358 9 15.5 8.66421 15.5 8.25V5.75C15.5 5.33579 15.8358 5 16.25 5ZM19.25 4C19.6642 4 20 4.33579 20 4.75V8.25C20 8.66421 19.6642 9 19.25 9C18.8358 9 18.5 8.66421 18.5 8.25V4.75C18.5 4.33579 18.8358 4 19.25 4Z" fill="black"/>
</svg>
