<svg width="24" height="24" viewBox="0 0 24 24" fill="none" xmlns="http://www.w3.org/2000/svg">
<path d="M8.89258 4C9.14329 4 9.37749 4.12541 9.5166 4.33398L11.5879 7.44141C11.7862 7.73887 11.7469 8.1349 11.4941 8.3877L9.85742 10.0254C9.82318 10.0596 9.80715 10.0947 9.80176 10.1201C9.797 10.1428 9.79992 10.1585 9.80664 10.1729C10.0679 10.7253 10.5911 11.6442 11.4814 12.4932C12.3694 13.3399 13.2729 13.8802 13.8262 14.166C13.8468 14.1767 13.8696 14.18 13.8975 14.1748C13.9275 14.1691 13.9654 14.1518 14.001 14.1162L15.6123 12.5059L15.7139 12.4209C15.9631 12.2468 16.2983 12.2386 16.5586 12.4121L19.666 14.4834C19.8746 14.6225 20 14.8567 20 15.1074V17.9316C20 19.0739 19.0739 20 17.9316 20C10.2375 19.9999 4.0001 13.7626 4 6.06836C4 4.92613 4.92613 4 6.06836 4H8.89258ZM6.06836 5.5C5.75456 5.5 5.5 5.75456 5.5 6.06836C5.5001 12.9341 11.0659 18.4999 17.9316 18.5C18.2454 18.5 18.5 18.2454 18.5 17.9316V15.5088L16.2373 14.001L15.0625 15.1768C14.5778 15.6614 13.8107 15.8457 13.1377 15.498C12.4983 15.1677 11.4659 14.5503 10.4463 13.5781C9.38372 12.5648 8.76323 11.4763 8.4502 10.8145C8.13633 10.1507 8.33681 9.42427 8.7959 8.96484L9.99805 7.76172L8.49121 5.5H6.06836ZM19.25 4C19.295 4 19.339 4.00413 19.3818 4.01172C19.3874 4.0127 19.3929 4.01354 19.3984 4.01465C19.4118 4.01733 19.4244 4.02298 19.4375 4.02637C19.4707 4.03495 19.5041 4.04344 19.5361 4.05664C19.5601 4.06654 19.5819 4.08054 19.6045 4.09277C19.667 4.12655 19.7274 4.16688 19.7803 4.21973C19.8213 4.26079 19.8552 4.30631 19.8848 4.35352C19.9066 4.38837 19.9264 4.4245 19.9424 4.46289C19.9631 4.51289 19.9779 4.56459 19.9873 4.61719C19.995 4.66035 20 4.70462 20 4.75V8.25C20 8.66421 19.6642 9 19.25 9C18.8358 9 18.5 8.66421 18.5 8.25V6.56055L15.2803 9.78027C14.9874 10.0732 14.5126 10.0732 14.2197 9.78027C13.9268 9.48738 13.9268 9.01262 14.2197 8.71973L17.4395 5.5H15.75C15.3358 5.5 15 5.16421 15 4.75C15 4.33579 15.3358 4 15.75 4H19.25Z" fill="black"/>
</svg>
