<svg width="24" height="24" viewBox="0 0 24 24" fill="none" xmlns="http://www.w3.org/2000/svg">
<path d="M8.89258 4C9.14329 4 9.37749 4.12541 9.5166 4.33398L11.5879 7.44141C11.7862 7.73887 11.7469 8.1349 11.4941 8.3877L9.85742 10.0254C9.82318 10.0596 9.80715 10.0947 9.80176 10.1201C9.797 10.1428 9.79992 10.1585 9.80664 10.1729C10.0679 10.7253 10.5911 11.6442 11.4814 12.4932C12.3694 13.3399 13.2729 13.8802 13.8262 14.166C13.8468 14.1767 13.8696 14.18 13.8975 14.1748C13.9275 14.1691 13.9654 14.1518 14.001 14.1162L15.6123 12.5059L15.7139 12.4209C15.9631 12.2468 16.2983 12.2386 16.5586 12.4121L19.666 14.4834C19.8746 14.6225 20 14.8567 20 15.1074V17.9316C20 19.0739 19.0739 20 17.9316 20C10.2375 19.9999 4.0001 13.7626 4 6.06836C4 4.92613 4.92613 4 6.06836 4H8.89258ZM6.06836 5.5C5.75456 5.5 5.5 5.75456 5.5 6.06836C5.5001 12.9341 11.0659 18.4999 17.9316 18.5C18.2454 18.5 18.5 18.2454 18.5 17.9316V15.5088L16.2373 14.001L15.0625 15.1768C14.5778 15.6614 13.8107 15.8457 13.1377 15.498C12.4983 15.1677 11.4659 14.5503 10.4463 13.5781C9.38372 12.5648 8.76323 11.4763 8.4502 10.8145C8.13633 10.1507 8.33681 9.42427 8.7959 8.96484L9.99805 7.76172L8.49121 5.5H6.06836ZM18.7197 4.21973C19.0126 3.92683 19.4874 3.92683 19.7803 4.21973C20.0732 4.51262 20.0732 4.98738 19.7803 5.28027L16.5605 8.5H18.25C18.6642 8.5 19 8.83579 19 9.25C19 9.66421 18.6642 10 18.25 10H14.75C14.7046 10 14.6603 9.99503 14.6172 9.9873C14.6117 9.98631 14.6061 9.98549 14.6006 9.98438C14.5872 9.98167 14.5746 9.97607 14.5615 9.97266C14.5283 9.96402 14.4949 9.95565 14.4629 9.94238C14.4338 9.93029 14.407 9.91397 14.3799 9.89844C14.3232 9.86604 14.2681 9.82866 14.2197 9.78027C14.1591 9.71969 14.1136 9.65008 14.0781 9.57715C14.0714 9.5633 14.0626 9.55044 14.0566 9.53613C14.036 9.48615 14.0211 9.4344 14.0117 9.38184C14.0041 9.33903 14 9.29499 14 9.25V5.75C14 5.33579 14.3358 5 14.75 5C15.1642 5 15.5 5.33579 15.5 5.75V7.43945L18.7197 4.21973Z" fill="black"/>
</svg>
