<svg width="24" height="24" viewBox="0 0 24 24" fill="none" xmlns="http://www.w3.org/2000/svg">
<path d="M16.25 4C18.3211 4 20 5.67893 20 7.75V16.25C20 18.3211 18.3211 20 16.25 20H7.75C5.67893 20 4 18.3211 4 16.25V7.75C4 5.67893 5.67893 4 7.75 4H16.25ZM7.75 5.5C6.50736 5.5 5.5 6.50736 5.5 7.75V16.25C5.5 17.4926 6.50736 18.5 7.75 18.5H16.25C17.4926 18.5 18.5 17.4926 18.5 16.25V7.75C18.5 6.50736 17.4926 5.5 16.25 5.5H7.75ZM9.5 8C10.8807 8 12 9.11929 12 10.5C12 11.8807 10.8807 13 9.5 13H8.5V16.25C8.5 16.6642 8.16421 17 7.75 17C7.33579 17 7 16.6642 7 16.25V8.75C7 8.33579 7.33579 8 7.75 8H9.5ZM15.2549 12C15.6689 12.0002 16.0049 12.3359 16.0049 12.75C16.0049 13.1641 15.6689 13.4998 15.2549 13.5H13.752C13.6546 13.5 13.5876 13.5432 13.5439 13.6104C13.5176 13.6511 13.505 13.6952 13.502 13.7373L14.7979 13.957C15.1059 14.0091 15.6898 14.1963 15.9053 14.8057C16.2597 15.8091 15.5519 16.9998 14.3486 17H12.7549C12.3407 17 12.0049 16.6642 12.0049 16.25C12.0049 15.8358 12.3407 15.5 12.7549 15.5H14.3486C14.3841 15.4999 14.4061 15.4916 14.4209 15.4834C14.4375 15.4743 14.4544 15.4597 14.4688 15.4385C14.4721 15.4335 14.4738 15.4279 14.4766 15.4229L13.2266 15.2129C12.9068 15.1588 12.3533 14.9709 12.123 14.3955C11.6905 13.3143 12.4495 12 13.752 12H15.2549ZM8.5 11.5H9.5C10.0523 11.5 10.5 11.0523 10.5 10.5C10.5 9.94772 10.0523 9.5 9.5 9.5H8.5V11.5Z" fill="black"/>
</svg>
