<svg width="24" height="24" viewBox="0 0 24 24" fill="none" xmlns="http://www.w3.org/2000/svg">
<path d="M14.25 5C14.6642 5 15 5.33579 15 5.75C15 6.16421 14.6642 6.5 14.25 6.5H14V17.5H14.25C14.6642 17.5 15 17.8358 15 18.25C15 18.6642 14.6642 19 14.25 19H4.75C4.33579 19 4 18.6642 4 18.25C4 17.8358 4.33579 17.5 4.75 17.5H5V6.5H4.75C4.33579 6.5 4 6.16421 4 5.75C4 5.33579 4.33579 5 4.75 5H14.25ZM6.5 17.5H12.5V6.5H6.5V17.5ZM18.25 7C19.2165 7 20 7.7835 20 8.75V11C20 11.2586 19.8667 11.4987 19.6475 11.6357L18 12.665V15.25C18 16.2165 17.2165 17 16.25 17H15.75C15.3358 17 15 16.6642 15 16.25C15 15.8358 15.3358 15.5 15.75 15.5H16.25C16.3881 15.5 16.5 15.3881 16.5 15.25V12.25C16.5 11.9914 16.6333 11.7513 16.8525 11.6143L18.5 10.584V8.75C18.5 8.61193 18.3881 8.5 18.25 8.5H15.75C15.3358 8.5 15 8.16421 15 7.75C15 7.33579 15.3358 7 15.75 7H18.25Z" fill="black"/>
</svg>
