<svg width="24" height="24" viewBox="0 0 24 24" fill="none" xmlns="http://www.w3.org/2000/svg">
<path d="M12 4C16.4183 4 20 7.58172 20 12C20 16.4183 16.4183 20 12 20C7.58172 20 4 16.4183 4 12C4 7.58172 7.58172 4 12 4ZM13.5 14.5947C13.0584 14.8506 12.5471 15 12 15H6.2334C7.31751 17.0796 9.49247 18.5 12 18.5C12.5165 18.5 13.0183 18.4371 13.5 18.3232V14.5947ZM14.5947 10.5C14.8506 10.9416 15 11.4529 15 12V17.7656C17.0794 16.6814 18.5 14.5074 18.5 12C18.5 11.4836 18.438 10.9816 18.3242 10.5H14.5947ZM9 6.2334C6.92038 7.31751 5.5 9.49247 5.5 12C5.5 12.5164 5.56197 13.0184 5.67578 13.5H9.40527C9.14941 13.0584 9 12.5471 9 12V6.2334ZM12 10.5C11.1716 10.5 10.5 11.1716 10.5 12C10.5 12.8284 11.1716 13.5 12 13.5C12.8284 13.5 13.5 12.8284 13.5 12C13.5 11.1716 12.8284 10.5 12 10.5ZM12 5.5C11.4836 5.5 10.9816 5.56197 10.5 5.67578V9.4043C10.9415 9.14858 11.453 9 12 9H17.7666C16.6825 6.92038 14.5075 5.5 12 5.5Z" fill="black"/>
</svg>
