<svg width="24" height="24" viewBox="0 0 24 24" fill="none" xmlns="http://www.w3.org/2000/svg">
<path d="M17.25 4C18.7688 4 20 5.23122 20 6.75V12.25C20 12.557 19.8125 12.8326 19.5273 12.9463C19.2422 13.0599 18.9172 12.9884 18.7061 12.7656L16.041 9.95508C16.0327 9.9463 16.0245 9.9369 16.0166 9.92773C15.5058 9.33347 14.5802 9.35036 14.0918 9.96094L14.0928 9.96191L14.084 9.9707C14.0019 10.0769 12.8819 11.5228 11.9072 12.7686L12.8018 13.7422C13.082 14.047 13.0625 14.5214 12.7578 14.8018C12.453 15.082 11.9786 15.0624 11.6982 14.7578L10.4795 13.4316C10.4704 13.4251 10.4601 13.4191 10.4512 13.4121C10.3784 13.3548 10.3208 13.2858 10.2754 13.2109L10.0332 12.9473C10.0275 12.9411 10.0221 12.9341 10.0166 12.9277C9.50348 12.3308 8.57263 12.3511 8.08594 12.9697L5.5 16.2598V17.25C5.5 17.9404 6.05964 18.5 6.75 18.5H11.25C11.6642 18.5 12 18.8358 12 19.25C12 19.6642 11.6642 20 11.25 20H6.75C5.23122 20 4 18.7688 4 17.25V6.75C4 5.23122 5.23122 4 6.75 4H17.25ZM17 14C17.4142 14 17.75 14.3358 17.75 14.75V16.25H19.25C19.6642 16.25 20 16.5858 20 17C20 17.4142 19.6642 17.75 19.25 17.75H17.75V19.25C17.75 19.6642 17.4142 20 17 20C16.5858 20 16.25 19.6642 16.25 19.25V17.75H14.75C14.3358 17.75 14 17.4142 14 17C14 16.5858 14.3358 16.25 14.75 16.25H16.25V14.75C16.25 14.3358 16.5858 14 17 14ZM6.75 5.5C6.05964 5.5 5.5 6.05964 5.5 6.75V13.8311L6.90625 12.043C7.89161 10.7895 9.70444 10.6528 10.8672 11.6631C11.8021 10.4667 12.8196 9.15662 12.8984 9.05469L12.9004 9.05078L12.9102 9.03809L12.9131 9.03418H12.9141C13.9793 7.69066 15.9987 7.64077 17.1299 8.92383L18.5 10.3691V6.75C18.5 6.05964 17.9404 5.5 17.25 5.5H6.75Z" fill="black"/>
</svg>
