<svg width="24" height="24" viewBox="0 0 24 24" fill="none" xmlns="http://www.w3.org/2000/svg">
<path d="M17.25 4C18.7688 4 20 5.23122 20 6.75V17.25C20 18.7688 18.7688 20 17.25 20H6.75C5.23122 20 4 18.7688 4 17.25V6.75C4 5.23122 5.23122 4 6.75 4H17.25ZM16.0166 9.92871C15.5046 9.3327 14.5764 9.35176 14.0889 9.9668L14.082 9.97559C13.9784 10.1096 12.8537 11.5603 11.8838 12.7998L13.5693 14.7617C13.8388 15.0759 13.8023 15.5496 13.4883 15.8193C13.1742 16.0887 12.7005 16.053 12.4307 15.7393L10.0166 12.9287C9.50345 12.3314 8.57264 12.3516 8.08594 12.9707L5.5 16.2598V17.25C5.5 17.9404 6.05964 18.5 6.75 18.5H17.25C17.9404 18.5 18.5 17.9404 18.5 17.25V12.8076C18.4761 12.7862 18.4521 12.7642 18.4307 12.7393L16.0166 9.92871ZM6.75 5.5C6.05964 5.5 5.5 6.05964 5.5 6.75V13.832L6.90625 12.0439C7.89162 10.7905 9.70441 10.6528 10.8672 11.6631C11.8014 10.4677 12.8182 9.15851 12.8984 9.05469L12.9004 9.05176L12.9102 9.03906L12.9131 9.03516H12.9141C13.9868 7.68185 16.0278 7.63997 17.1543 8.95117L18.5 10.5166V6.75C18.5 6.05964 17.9404 5.5 17.25 5.5H6.75Z" fill="black"/>
</svg>
