<svg width="24" height="24" viewBox="0 0 24 24" fill="none" xmlns="http://www.w3.org/2000/svg">
<path d="M17.25 4C18.7688 4 20 5.23122 20 6.75V12.25C20 12.5553 19.8151 12.8305 19.5322 12.9453C19.2493 13.0601 18.9246 12.9915 18.7119 12.7725L16.0479 10.0293C16.0372 10.0183 16.0266 10.0067 16.0166 9.99512C15.4756 9.36563 14.5522 9.3862 14.0918 9.96094L14.0928 9.96191L14.084 9.9707C14.0014 10.0775 12.8699 11.5388 11.8916 12.7891L12.792 13.7324C13.078 14.032 13.0671 14.506 12.7676 14.792C12.468 15.078 11.994 15.0671 11.708 14.7676L10.043 13.0244C10.034 13.015 10.0251 13.005 10.0166 12.9951C9.47304 12.3626 8.54446 12.3869 8.08594 12.9697L5.5 16.2598V17.25C5.5 17.9404 6.05964 18.5 6.75 18.5H11.25C11.6642 18.5 12 18.8358 12 19.25C12 19.6642 11.6642 20 11.25 20H6.75C5.23122 20 4 18.7688 4 17.25V6.75C4 5.23122 5.23122 4 6.75 4H17.25ZM19.25 16.5C19.6642 16.5 20 16.8358 20 17.25C20 17.6642 19.6642 18 19.25 18H15.75C15.3358 18 15 17.6642 15 17.25C15 16.8358 15.3358 16.5 15.75 16.5H19.25ZM6.75 5.5C6.05964 5.5 5.5 6.05964 5.5 6.75V13.8311L6.90625 12.043C7.90632 10.7708 9.69442 10.7348 10.8359 11.7021C11.7792 10.4954 12.8188 9.15775 12.8984 9.05469L12.9004 9.05078L12.9102 9.03809L12.9141 9.03418L13.0195 8.9082C14.131 7.66438 16.0558 7.78018 17.124 8.98438L18.5 10.4004V6.75C18.5 6.05964 17.9404 5.5 17.25 5.5H6.75Z" fill="black"/>
</svg>
