<svg width="24" height="24" viewBox="0 0 24 24" fill="none" xmlns="http://www.w3.org/2000/svg">
<path d="M12 4C12.2278 4 12.4436 4.10334 12.5859 4.28125L15.5605 8H18.25C19.2165 8 20 8.7835 20 9.75V18.25C20 19.2165 19.2165 20 18.25 20H5.75C4.7835 20 4 19.2165 4 18.25V9.75C4 8.7835 4.7835 8 5.75 8H8.43945L11.4141 4.28125L11.4707 4.21875C11.6104 4.0795 11.8005 4 12 4ZM5.75 9.5C5.61193 9.5 5.5 9.61193 5.5 9.75V18.25C5.5 18.3881 5.61193 18.5 5.75 18.5H9.38379L11.416 12.9131C12.2937 10.4995 15.7063 10.4995 16.584 12.9131L18.5 18.1797V9.75C18.5 9.61193 18.3881 9.5 18.25 9.5H5.75ZM15.1748 13.4258C14.7759 12.3287 13.2241 12.3287 12.8252 13.4258L10.9805 18.5H17.0195L15.1748 13.4258ZM9 11C9.55228 11 10 11.4477 10 12C10 12.5523 9.55228 13 9 13C8.44772 13 8 12.5523 8 12C8 11.4477 8.44772 11 9 11ZM10.3613 8H13.6387L12 5.95117L10.3613 8Z" fill="black"/>
</svg>
