<svg width="24" height="24" viewBox="0 0 24 24" fill="none" xmlns="http://www.w3.org/2000/svg">
<path d="M17.25 4C18.7688 4 20 5.23122 20 6.75V10.25C20 10.6642 19.6642 11 19.25 11C18.8358 11 18.5 10.6642 18.5 10.25V6.75C18.5 6.05964 17.9404 5.5 17.25 5.5H6.75C6.05964 5.5 5.5 6.05964 5.5 6.75V13.832L6.90625 12.0439C7.51503 11.2695 8.47365 11.0882 9.28418 11.1914C9.80802 11.2582 10.3418 11.4499 10.8018 11.7471C11.7533 10.53 12.8163 9.16094 12.8984 9.05469L12.9004 9.05176L12.9102 9.03906L12.9131 9.03516H12.9141C13.9868 7.68185 16.0278 7.63997 17.1543 8.95117C17.4239 9.26537 17.3883 9.73896 17.0742 10.0088C16.7601 10.2784 16.2865 10.2425 16.0166 9.92871C15.5046 9.3327 14.5764 9.35176 14.0889 9.9668L14.082 9.97559C13.9645 10.1277 12.5346 11.9773 11.5049 13.2871C11.3663 13.4632 11.1557 13.5683 10.9316 13.5732C10.7075 13.5781 10.4919 13.4825 10.3457 13.3125C10.0717 12.9935 9.59029 12.7428 9.09473 12.6797C8.59596 12.6162 8.25577 12.7547 8.08594 12.9707L5.5 16.2598V17.25C5.5 17.9404 6.05964 18.5 6.75 18.5H9.25C9.66421 18.5 10 18.8358 10 19.25C10 19.6642 9.66421 20 9.25 20H6.75C5.23122 20 4 18.7688 4 17.25V6.75C4 5.23122 5.23122 4 6.75 4H17.25ZM16 12C18.2091 12 20 13.7909 20 16C20 18.2091 18.2091 20 16 20C13.7909 20 12 18.2091 12 16C12 13.7909 13.7909 12 16 12ZM13.7842 14.8447C13.6036 15.1904 13.5 15.5829 13.5 16C13.5 17.3807 14.6193 18.5 16 18.5C16.4169 18.5 16.8087 18.3953 17.1543 18.2148L13.7842 14.8447ZM16 13.5C15.5829 13.5 15.1904 13.6036 14.8447 13.7842L18.2148 17.1543C18.3953 16.8087 18.5 16.4169 18.5 16C18.5 14.6193 17.3807 13.5 16 13.5Z" fill="black"/>
</svg>
