<svg width="24" height="24" viewBox="0 0 24 24" fill="none" xmlns="http://www.w3.org/2000/svg">
<path d="M4.75 8.25C5.16421 8.25 5.5 8.58579 5.5 9V13.7939L6.65527 12.293C6.90775 11.9647 7.37873 11.903 7.70703 12.1553C8.03525 12.4078 8.09702 12.8787 7.84473 13.207L5.5 16.2549V17.25C5.5 17.9404 6.05964 18.5 6.75 18.5H14.25C14.6642 18.5 15 18.8358 15 19.25C15 19.6642 14.6642 20 14.25 20H6.75C5.23122 20 4 18.7688 4 17.25V9C4 8.58579 4.33579 8.25 4.75 8.25ZM17.25 4C18.7688 4 20 5.23122 20 6.75V19.25C20 19.295 19.9949 19.339 19.9873 19.3818C19.9779 19.4345 19.963 19.4861 19.9424 19.5361C19.9303 19.5653 19.9139 19.592 19.8984 19.6191C19.8895 19.6348 19.8832 19.6519 19.873 19.667V19.668C19.8464 19.7076 19.8153 19.7452 19.7803 19.7803C19.7317 19.8289 19.6761 19.866 19.6191 19.8984C19.592 19.9139 19.5653 19.9303 19.5361 19.9424C19.5041 19.9556 19.4708 19.9641 19.4375 19.9727C19.4244 19.9761 19.4118 19.9817 19.3984 19.9844C19.3929 19.9855 19.3874 19.9863 19.3818 19.9873C19.339 19.9949 19.295 20 19.25 20C19.2046 20 19.1603 19.995 19.1172 19.9873C19.1117 19.9863 19.1061 19.9855 19.1006 19.9844C19.0872 19.9817 19.0746 19.9761 19.0615 19.9727C19.0283 19.964 18.9949 19.9557 18.9629 19.9424C18.9338 19.9303 18.907 19.914 18.8799 19.8984C18.8232 19.866 18.7681 19.8287 18.7197 19.7803L4.21973 5.28027C4.171 5.23155 4.1331 5.17625 4.10059 5.11914C4.08512 5.09198 4.06868 5.06527 4.05664 5.03613C4.03603 4.98615 4.02106 4.9344 4.01172 4.88184C4.00413 4.83903 4 4.79499 4 4.75C4 4.70468 4.00402 4.66029 4.01172 4.61719C4.02082 4.56636 4.03505 4.51621 4.05469 4.46777L4.05859 4.45801C4.07018 4.43061 4.08596 4.4055 4.10059 4.37988C4.10949 4.36429 4.11587 4.34709 4.12598 4.33203C4.12713 4.33031 4.12871 4.32886 4.12988 4.32715C4.15582 4.28921 4.18604 4.25341 4.21973 4.21973C4.26824 4.17121 4.32305 4.13303 4.37988 4.10059C4.4055 4.08596 4.43061 4.07018 4.45801 4.05859L4.46777 4.05469C4.49822 4.04234 4.53 4.03455 4.56152 4.02637C4.57463 4.02296 4.58722 4.01735 4.60059 4.01465C4.60609 4.01353 4.61166 4.01271 4.61719 4.01172C4.66029 4.00402 4.70468 4 4.75 4H17.25ZM16.0166 9.92773C15.5045 9.33204 14.5763 9.35092 14.0889 9.96582L14.083 9.97461C14.0135 10.0645 13.429 10.8169 12.75 11.6895L18.5 17.4395V12.5479L16.041 9.95508C16.0327 9.9463 16.0245 9.9369 16.0166 9.92773ZM11.6807 10.6201C12.3165 9.80247 12.8449 9.12296 12.8984 9.05371L12.9004 9.05078L12.9102 9.03809L12.9131 9.03418H12.9141C13.9793 7.69066 15.9987 7.64077 17.1299 8.92383L18.5 10.3691V6.75C18.5 6.05964 17.9404 5.5 17.25 5.5H6.56055L11.6807 10.6201Z" fill="black"/>
</svg>
