<svg width="24" height="24" viewBox="0 0 24 24" fill="none" xmlns="http://www.w3.org/2000/svg">
<path d="M18.25 12C19.2165 12 20 12.7835 20 13.75V18.25C20 19.2165 19.2165 20 18.25 20H11.75C10.7835 20 10 19.2165 10 18.25V13.75C10 12.7835 10.7835 12 11.75 12H18.25ZM11.75 13.5C11.6119 13.5 11.5 13.6119 11.5 13.75V18.25C11.5 18.3881 11.6119 18.5 11.75 18.5H18.25C18.3881 18.5 18.5 18.3881 18.5 18.25V13.75C18.5 13.6119 18.3881 13.5 18.25 13.5H11.75ZM17.25 4C18.7688 4 20 5.23122 20 6.75V10H18.5V6.75C18.5 6.05964 17.9404 5.5 17.25 5.5H6.75C6.05964 5.5 5.5 6.05964 5.5 6.75V15.25C5.5 15.9404 6.05964 16.5 6.75 16.5H8V18H6.75C5.23122 18 4 16.7688 4 15.25V6.75C4 5.23122 5.23122 4 6.75 4H17.25Z" fill="black"/>
</svg>
