<svg width="24" height="24" viewBox="0 0 24 24" fill="none" xmlns="http://www.w3.org/2000/svg">
<path d="M12 4C16.4183 4 20 7.58172 20 12C20 16.4183 16.4183 20 12 20C7.58172 20 4 16.4183 4 12C4 7.58172 7.58172 4 12 4ZM11 5.57617C7.88489 6.05716 5.5 8.7502 5.5 12C5.5 15.5899 8.41015 18.5 12 18.5C15.2498 18.5 17.9418 16.115 18.4229 13H13.75C12.2312 13 11 11.7688 11 10.25V5.57617ZM12.5 10.25C12.5 10.9404 13.0596 11.5 13.75 11.5H18.4795C18.2367 8.30889 15.6911 5.76332 12.5 5.52051V10.25Z" fill="black"/>
</svg>
