<svg width="24" height="24" viewBox="0 0 24 24" fill="none" xmlns="http://www.w3.org/2000/svg">
<path fill-rule="evenodd" clip-rule="evenodd" d="M10.3594 3.99739C10.6038 4.01267 10.9465 4.06405 11.3008 4.21907C11.662 4.37714 12.0386 4.64485 12.3193 5.08332C12.4874 5.34598 12.6074 5.65148 12.6777 5.99934H15.25C17.8732 5.99934 19.9998 8.12619 20 10.7493V13.2493C20 15.6175 18.2669 17.581 16 17.9407V19.2503C15.9997 19.6643 15.6641 20.0003 15.25 20.0003C14.8359 20.0003 14.5003 19.6643 14.5 19.2503V18.0003H9.5V19.2503C9.49974 19.6643 9.16405 20.0003 8.75 20.0003C8.33595 20.0003 8.00026 19.6643 8 19.2503V17.8568C7.73505 17.7758 7.49579 17.6645 7.2832 17.5228C6.835 17.224 6.54546 16.8305 6.36035 16.4603C6.23512 16.2098 6.15599 15.9631 6.10352 15.7493H5.75C4.7835 15.7493 4 14.9658 4 13.9993V10.9993C4.00024 10.033 4.78365 9.24934 5.75 9.24934H6.08398C6.14893 8.91017 6.26594 8.47821 6.48535 8.03938C6.73296 7.54416 7.11625 7.02568 7.70508 6.63313C8.13218 6.34844 8.64475 6.14748 9.25 6.05598V4.74934C9.25022 4.37129 9.53205 4.05209 9.90723 4.0052L10 4.74934L9.9082 4.0052H9.91016C9.91149 4.00504 9.91345 4.00441 9.91504 4.00422C9.91813 4.00386 9.92174 4.00368 9.92578 4.00324C9.93415 4.00235 9.94479 4.00139 9.95703 4.00032C9.98153 3.99817 10.014 3.99619 10.0527 3.99446C10.1299 3.99102 10.2351 3.98962 10.3594 3.99739ZM10.75 6.74934C10.75 7.16355 10.4142 7.49934 10 7.49934C9.31889 7.49934 8.85764 7.66755 8.53711 7.88117C8.21188 8.09799 7.98579 8.393 7.82715 8.71028C7.66705 9.03048 7.58361 9.35999 7.54102 9.61555C7.52006 9.74134 7.50981 9.84451 7.50488 9.9134C7.50243 9.94774 7.5005 9.97364 7.5 9.9886V10.0003L7.49902 9.99934C7.49902 10.4136 7.16421 10.7493 6.75 10.7493H5.75C5.61208 10.7493 5.50024 10.8615 5.5 10.9993V13.9993C5.5 14.1374 5.61193 14.2493 5.75 14.2493H6.75C7.16406 14.2493 7.49976 14.5853 7.5 14.9993V15.0003C7.50026 15.008 7.50147 15.0228 7.50293 15.0433C7.50591 15.0849 7.51225 15.149 7.52539 15.2279C7.55236 15.3897 7.60454 15.5942 7.70215 15.7894C7.79825 15.9816 7.93075 16.1507 8.11523 16.2738C8.29514 16.3937 8.56874 16.5003 9 16.5003H15.25C17.0449 16.5003 18.5 15.0443 18.5 13.2493V10.7493C18.4998 8.95462 17.0448 7.49934 15.25 7.49934H12C11.5858 7.49934 11.25 7.16355 11.25 6.74934C11.2499 6.29969 11.1508 6.04064 11.0557 5.89192C10.9732 5.76328 10.8677 5.67855 10.75 5.61848V6.74934ZM10 10.0003C10.5523 10.0003 11 10.448 11 11.0003C10.9997 11.5524 10.5521 12.0003 10 12.0003C9.44788 12.0003 9.00026 11.5524 9 11.0003C9 10.448 9.44772 10.0003 10 10.0003Z" fill="black"/>
</svg>
