<svg width="24" height="24" viewBox="0 0 24 24" fill="none" xmlns="http://www.w3.org/2000/svg">
<path fill-rule="evenodd" clip-rule="evenodd" d="M5.46418 5.46406C7.41561 3.51263 10.5792 3.51263 12.5306 5.46406L18.5364 11.4699C20.4876 13.4214 20.4878 16.585 18.5364 18.5363C16.5851 20.4877 13.4215 20.4875 11.47 18.5363L5.46418 12.5305C3.51275 10.579 3.51275 7.41549 5.46418 5.46406ZM10.0579 15.0031L12.5306 17.4758C13.8963 18.8411 16.1104 18.8413 17.4759 17.4758C18.8414 16.1102 18.8413 13.8961 17.4759 12.5305L15.0032 10.0578L10.0579 15.0031ZM11.47 6.52461C10.1044 5.15896 7.89037 5.15896 6.52473 6.52461C5.15909 7.89025 5.15909 10.1043 6.52473 11.4699L8.99739 13.9426L13.9427 8.99726L11.47 6.52461Z" fill="black"/>
</svg>
