<svg width="24" height="24" viewBox="0 0 24 24" fill="none" xmlns="http://www.w3.org/2000/svg">
<path d="M16.2502 4C16.4491 4.00006 16.6399 4.07913 16.7805 4.21973C16.9211 4.36037 17.0002 4.55115 17.0002 4.75V7.25C17.0002 7.66413 16.6643 7.99987 16.2502 8H16.0002V9.91016L17.0608 10.8379C17.6575 11.36 18.0002 12.1143 18.0002 12.9072V17.25C18.0002 18.7687 16.7689 19.9998 15.2502 20H8.76489C7.24611 20 6.01489 18.7688 6.01489 17.25V12.9033C6.01489 12.1139 6.35438 11.3619 6.94653 10.8398L8.00024 9.91113V8H7.75024C7.55139 8 7.36061 7.92085 7.21997 7.78027C7.07932 7.63962 7.00024 7.44891 7.00024 7.25V4.75C7.00024 4.33579 7.33603 4 7.75024 4H16.2502ZM9.50024 10.25C9.50024 10.4652 9.40765 10.6701 9.24634 10.8125L7.93872 11.9658C7.92643 11.9767 7.91537 11.9887 7.90356 12H13.2502C13.6643 12.0001 14.0002 12.3359 14.0002 12.75V16.25C14.0002 16.6641 13.6643 16.9999 13.2502 17H7.51489V17.25C7.51489 17.9404 8.07454 18.5 8.76489 18.5H15.2502C15.9404 18.4998 16.5002 17.9402 16.5002 17.25V12.9072C16.5002 12.547 16.3445 12.2041 16.0735 11.9668L14.7561 10.8145C14.5933 10.672 14.5002 10.4663 14.5002 10.25V8H9.50024V10.25ZM7.51489 15.5H12.5002V13.5H7.51489V15.5ZM8.50024 6.5H15.5002V5.5H8.50024V6.5Z" fill="black"/>
</svg>
