<svg width="24" height="24" viewBox="0 0 24 24" fill="none" xmlns="http://www.w3.org/2000/svg">
<path fill-rule="evenodd" clip-rule="evenodd" d="M13.3655 5.13886C14.8834 3.62103 17.3438 3.62103 18.8616 5.13886C20.3792 6.65671 20.3794 9.11723 18.8616 10.635L10.6351 18.8615C9.11735 20.3792 6.65683 20.379 5.13898 18.8615C3.62115 17.3437 3.62115 14.8832 5.13898 13.3654L13.3655 5.13886ZM6.19953 14.426C5.26749 15.358 5.26749 16.8689 6.19953 17.801C7.13159 18.7327 8.64259 18.7329 9.57453 17.801L13.6575 13.718L10.2825 10.343L6.19953 14.426ZM17.8011 6.1994C16.869 5.26736 15.3581 5.26736 14.4261 6.1994L11.3431 9.28241L14.7181 12.6574L17.8011 9.5744C18.733 8.64247 18.7328 7.13147 17.8011 6.1994Z" fill="black"/>
</svg>
