<svg width="24" height="24" viewBox="0 0 24 24" fill="none" xmlns="http://www.w3.org/2000/svg">
<path fill-rule="evenodd" clip-rule="evenodd" d="M18.1163 13.0117C18.5237 12.9379 18.9143 13.2088 18.9884 13.6162L19.7735 17.9365C19.9688 19.0106 19.1435 19.9998 18.0519 20H5.94834C4.85665 19.9998 4.03137 19.0106 4.22666 17.9365L5.0128 13.6162C5.08692 13.2087 5.47736 12.9376 5.88487 13.0117C6.29194 13.086 6.56217 13.4766 6.48838 13.8838L5.70225 18.2051C5.67436 18.3584 5.79251 18.4998 5.94834 18.5H18.0519C18.2076 18.4998 18.3258 18.3584 18.298 18.2051L17.5128 13.8838C17.4389 13.4764 17.7089 13.0858 18.1163 13.0117ZM12.0001 4C14.753 4.0002 17.0001 6.20816 17.0001 8.9502C17.0001 9.88197 16.6777 10.7827 16.2452 11.5791C15.8104 12.3797 15.24 13.1194 14.6856 13.7422C14.1294 14.3672 13.5752 14.8908 13.1612 15.2568C12.954 15.4401 12.7802 15.5853 12.6573 15.6855C12.596 15.7356 12.547 15.7748 12.5128 15.8018C12.4959 15.8151 12.4822 15.8256 12.4728 15.833C12.4681 15.8366 12.4638 15.8397 12.461 15.8418L12.4571 15.8457H12.4562C12.1873 16.0513 11.8139 16.0511 11.545 15.8457L12.0001 15.25C11.5754 15.8053 11.5462 15.8432 11.544 15.8457L11.5431 15.8447C11.5422 15.8441 11.5405 15.8428 11.5392 15.8418C11.5365 15.8397 11.5329 15.8365 11.5284 15.833C11.519 15.8257 11.5053 15.8151 11.4884 15.8018C11.4542 15.7748 11.4052 15.7356 11.3439 15.6855C11.221 15.5853 11.0472 15.4401 10.8399 15.2568C10.426 14.8908 9.87182 14.3672 9.31553 13.7422C8.76114 13.1193 8.18988 12.3798 7.75498 11.5791C7.32248 10.7827 7.00015 9.88197 7.0001 8.9502C7.0001 6.20815 9.24721 4.00017 12.0001 4ZM12.0001 5.5C10.0589 5.50017 8.5001 7.05326 8.5001 8.9502C8.50015 9.54324 8.70908 10.1926 9.07334 10.8633C9.4353 11.5297 9.92763 12.1743 10.4356 12.7451C10.9417 13.3137 11.4503 13.7943 11.8331 14.1328C11.8912 14.1842 11.9485 14.23 12.0001 14.2744C12.0518 14.2299 12.1098 14.1843 12.1681 14.1328C12.5509 13.7942 13.0596 13.3136 13.5655 12.7451C14.0734 12.1745 14.565 11.5295 14.9269 10.8633C15.2911 10.1927 15.5001 9.5432 15.5001 8.9502C15.5001 7.05328 13.9413 5.5002 12.0001 5.5ZM12.0001 8C12.5523 8.00007 13.0001 8.44773 13.0001 9C13.0001 9.5522 12.5523 9.99993 12.0001 10C11.4479 10 11.0001 9.55224 11.0001 9C11.0001 8.44769 11.4479 8 12.0001 8Z" fill="black"/>
</svg>
