<svg width="24" height="24" viewBox="0 0 24 24" fill="none" xmlns="http://www.w3.org/2000/svg">
<path d="M16.25 4C16.4911 4 16.7174 4.11595 16.8584 4.31152C16.9993 4.5071 17.0381 4.7586 16.9619 4.9873L16 7.87305V9.49023C17.4276 10.1342 18.183 11.2509 18.5713 12.2217C18.7857 12.7578 18.8922 13.2551 18.9453 13.6182C18.972 13.8005 18.9852 13.952 18.9922 14.0605C18.9957 14.1147 18.9981 14.1585 18.999 14.1904C18.9995 14.2064 18.9999 14.2195 19 14.2295V14.249C19 14.2494 19 14.25 18.25 14.25H19C19 14.6642 18.6642 15 18.25 15H12.75V20H11.25V15H5.75C5.33579 15 5 14.6642 5 14.25H5.75C5 14.25 5 14.2494 5 14.249V14.2295C5.00015 14.2195 5.00049 14.2064 5.00098 14.1904C5.00195 14.1585 5.00432 14.1147 5.00781 14.0605C5.01481 13.952 5.02801 13.8005 5.05469 13.6182C5.10782 13.2551 5.21426 12.7578 5.42871 12.2217C5.81702 11.2509 6.57242 10.1342 8 9.49023V7.87305L7.03809 4.9873C6.96185 4.7586 7.00065 4.5071 7.1416 4.31152C7.28257 4.11595 7.50892 4 7.75 4H16.25ZM9.46191 7.5127C9.48741 7.58917 9.5 7.66939 9.5 7.75V10C9.5 10.3228 9.29356 10.6098 8.9873 10.7119C7.75205 11.1237 7.13885 11.9845 6.82129 12.7783C6.71864 13.035 6.65046 13.2827 6.60254 13.5H17.3975C17.3495 13.2827 17.2814 13.035 17.1787 12.7783C16.8611 11.9845 16.248 11.1237 15.0127 10.7119C14.7064 10.6098 14.5 10.3228 14.5 10V7.75C14.5 7.66939 14.5126 7.58917 14.5381 7.5127L15.209 5.5H8.79102L9.46191 7.5127Z" fill="black"/>
</svg>
