<svg width="24" height="24" viewBox="0 0 24 24" fill="none" xmlns="http://www.w3.org/2000/svg">
<path fill-rule="evenodd" clip-rule="evenodd" d="M13.25 4C14.7688 4 16 5.23122 16 6.75V9.86133L17.9512 14.9834C18.0388 15.2138 18.0071 15.4728 17.8672 15.6758C17.7272 15.8787 17.4965 16 17.25 16H12.75V19.25C12.75 19.6642 12.4142 20 12 20C11.5858 20 11.25 19.6642 11.25 19.25V16H6.74998C6.50343 16 6.27279 15.8787 6.13279 15.6758C5.99291 15.4728 5.9612 15.2138 6.04881 14.9834L7.99998 9.86133V6.75C7.99998 5.23122 9.2312 4 10.75 4H13.25ZM10.75 5.5C10.0596 5.5 9.49998 6.05965 9.49998 6.75V10C9.49998 10.0911 9.48352 10.1815 9.45115 10.2666L7.83885 14.5H16.1611L14.5488 10.2666C14.5164 10.1815 14.5 10.0911 14.5 10V6.75C14.5 6.05964 13.9403 5.5 13.25 5.5H10.75Z" fill="black"/>
</svg>
