<svg width="24" height="24" viewBox="0 0 24 24" fill="none" xmlns="http://www.w3.org/2000/svg">
<path fill-rule="evenodd" clip-rule="evenodd" d="M14.2197 4.21967C14.5126 3.92678 14.9873 3.92678 15.2802 4.21967L19.7802 8.71967C20.0731 9.01256 20.0731 9.48732 19.7802 9.78022C19.4873 10.0731 19.0126 10.0731 18.7197 9.78022L18.4257 9.48627L14.9267 15.8662L15.7802 16.7197C16.0731 17.0126 16.0731 17.4873 15.7802 17.7802C15.4873 18.0731 15.0126 18.0731 14.7197 17.7802L10.9999 14.0605L5.28022 19.7802C4.98732 20.0731 4.51256 20.0731 4.21967 19.7802C3.92678 19.4873 3.92678 19.0126 4.21967 18.7197L9.9394 12.9999L6.21967 9.28022C5.92678 8.98732 5.92678 8.51256 6.21967 8.21967C6.51256 7.92678 6.98732 7.92678 7.28022 8.21967L8.13276 9.07221L14.5126 5.57319L14.2197 5.28022C13.9268 4.98732 13.9268 4.51256 14.2197 4.21967ZM9.23627 10.1757L13.8232 14.7626L17.3222 8.38276L15.6162 6.6767L9.23627 10.1757Z" fill="black"/>
</svg>
