<svg width="24" height="24" viewBox="0 0 24 24" fill="none" xmlns="http://www.w3.org/2000/svg">
<path d="M12 4C15.7134 4 19 7.07137 19 11C19 12.1902 18.5383 13.3434 17.9141 14.3672C17.2863 15.3967 16.4608 16.3497 15.6553 17.1553C14.8472 17.9633 14.0422 18.6399 13.4404 19.1133C13.139 19.3504 12.8867 19.538 12.709 19.667C12.6202 19.7314 12.5498 19.7812 12.501 19.8154C12.4768 19.8324 12.4576 19.8453 12.4443 19.8545C12.4379 19.8589 12.4324 19.8627 12.4287 19.8652C12.4268 19.8665 12.4249 19.8684 12.4238 19.8691L12.4229 19.8701H12.4219C12.199 20.0216 11.9148 20.0406 11.6768 19.9268L11.5781 19.8701L11.5762 19.8691C11.5751 19.8684 11.5732 19.8665 11.5713 19.8652C11.5676 19.8627 11.5621 19.8589 11.5557 19.8545C11.5424 19.8453 11.5232 19.8324 11.499 19.8154C11.4502 19.7812 11.3798 19.7314 11.291 19.667C11.1133 19.538 10.861 19.3504 10.5596 19.1133C9.95776 18.6399 9.15279 17.9633 8.34473 17.1553C7.53919 16.3497 6.71369 15.3967 6.08594 14.3672C5.46168 13.3434 5 12.1902 5 11C5 7.07137 8.28664 4 12 4ZM12 5.5C9.08595 5.5 6.5 7.92863 6.5 11C6.5 11.8098 6.81957 12.6878 7.36719 13.5859C7.91131 14.4783 8.64831 15.3378 9.40527 16.0947C10.1597 16.8491 10.9172 17.4851 11.4873 17.9336C11.6834 18.0879 11.8575 18.2184 12 18.3242C12.1425 18.2184 12.3166 18.0879 12.5127 17.9336C13.0828 17.4851 13.8403 16.8491 14.5947 16.0947C15.3517 15.3378 16.0887 14.4783 16.6328 13.5859C17.1804 12.6878 17.5 11.8098 17.5 11C17.5 7.92863 14.9141 5.5 12 5.5ZM12 8C13.6569 8 15 9.34315 15 11C15 12.6569 13.6569 14 12 14C10.3431 14 9 12.6569 9 11C9 9.34315 10.3431 8 12 8ZM12 9.5C11.1716 9.5 10.5 10.1716 10.5 11C10.5 11.8284 11.1716 12.5 12 12.5C12.8284 12.5 13.5 11.8284 13.5 11C13.5 10.1716 12.8284 9.5 12 9.5Z" fill="black"/>
</svg>
