<svg width="24" height="24" viewBox="0 0 24 24" fill="none" xmlns="http://www.w3.org/2000/svg">
<path d="M18.25 4C19.2165 4 20 4.7835 20 5.75V10.25C20 11.2165 19.2165 12 18.25 12H16.75C16.0523 12 15.452 11.5907 15.1709 11H11.25C11.1119 11 11 11.1119 11 11.25V15.1699C11.5909 15.4509 12 16.0521 12 16.75V18.25C12 19.2165 11.2165 20 10.25 20H5.75C4.7835 20 4 19.2165 4 18.25V15.75C4 15.3358 4.33579 15 4.75 15H5V9.75C5 7.12665 7.12665 5 9.75 5H15V4.75C15 4.33579 15.3358 4 15.75 4H18.25ZM5.5 18.25C5.5 18.3881 5.61193 18.5 5.75 18.5H10.25C10.3881 18.5 10.5 18.3881 10.5 18.25V16.75C10.5 16.6119 10.3881 16.5 10.25 16.5H5.5V18.25ZM9.75 6.5C7.95507 6.5 6.5 7.95507 6.5 9.75V15H9.5V11.25C9.5 10.2835 10.2835 9.5 11.25 9.5H15V6.5H9.75ZM16.5 10.25C16.5 10.3881 16.6119 10.5 16.75 10.5H18.25C18.3881 10.5 18.5 10.3881 18.5 10.25V5.75C18.5 5.61193 18.3881 5.5 18.25 5.5H16.5V10.25Z" fill="#141414"/>
</svg>
