<svg width="24" height="24" viewBox="0 0 24 24" fill="none" xmlns="http://www.w3.org/2000/svg">
<path fill-rule="evenodd" clip-rule="evenodd" d="M18.7345 4.20518C19.0353 3.92053 19.5103 3.93369 19.7951 4.23448C20.0794 4.535 20.0666 5.00924 19.7667 5.29405L19.7609 5.29991C19.756 5.30463 19.7473 5.31168 19.7365 5.32237C19.7145 5.34402 19.6808 5.37787 19.6369 5.42295C19.5489 5.51329 19.4208 5.64943 19.2658 5.8253C18.955 6.17772 18.5396 6.68726 18.1251 7.3126C17.3664 8.45755 16.6523 9.92958 16.5226 11.5001H19.0001V13.0001H16.5822C16.8043 14.3816 17.4475 15.665 18.1251 16.6876C18.5396 17.3129 18.955 17.8225 19.2658 18.1749C19.4208 18.3508 19.5489 18.4869 19.6369 18.5773C19.6808 18.6223 19.7145 18.6562 19.7365 18.6778C19.7473 18.6885 19.756 18.6956 19.7609 18.7003L19.7658 18.7052L19.8185 18.7608C20.0669 19.0487 20.062 19.4836 19.7951 19.7657C19.5103 20.0665 19.0353 20.0797 18.7345 19.795L19.2501 19.2501C18.7795 19.7473 18.7383 19.7904 18.7345 19.794H18.7335L18.7199 19.7804C18.7115 19.7723 18.6993 19.7606 18.6847 19.7462C18.6555 19.7174 18.6143 19.6762 18.5626 19.6231C18.4592 19.5169 18.3138 19.3633 18.1408 19.1671C17.7953 18.7753 17.3356 18.2106 16.8751 17.5157C16.1057 16.3546 15.3009 14.7761 15.0685 13.0001H8.93178C8.69933 14.7761 7.89458 16.3546 7.12513 17.5157C6.66462 18.2106 6.20495 18.7753 5.85951 19.1671C5.6865 19.3633 5.54106 19.5169 5.43763 19.6231C5.38602 19.6762 5.3448 19.7174 5.31556 19.7462C5.30094 19.7606 5.28878 19.7723 5.28041 19.7804L5.26674 19.794H5.26576C5.262 19.7904 5.22066 19.7472 4.75013 19.2501L5.26576 19.795C4.96493 20.0797 4.48993 20.0665 4.20521 19.7657C3.92056 19.4649 3.93372 18.9899 4.23451 18.7052L4.23939 18.7003C4.24428 18.6956 4.25294 18.6885 4.26381 18.6778C4.28581 18.6562 4.31951 18.6223 4.36342 18.5773C4.45138 18.4869 4.57943 18.3508 4.73451 18.1749C5.04528 17.8225 5.4607 17.313 5.87513 16.6876C6.55279 15.665 7.19593 14.3816 7.4181 13.0001H5.00013V11.5001H7.47767C7.34797 9.92959 6.63388 8.45755 5.87513 7.3126C5.46071 6.68726 5.04528 6.17772 4.73451 5.8253C4.57943 5.64943 4.45138 5.51329 4.36342 5.42295C4.31951 5.37787 4.28581 5.34402 4.26381 5.32237C4.25294 5.31168 4.24428 5.30463 4.23939 5.29991L4.23353 5.29405C3.93363 5.00924 3.92085 4.535 4.20521 4.23448C4.48993 3.93369 4.96493 3.92053 5.26576 4.20518L4.99916 4.48741C5.23696 4.23627 5.26282 4.209 5.26576 4.20616H5.26674L5.28041 4.21983C5.28877 4.2279 5.30094 4.23962 5.31556 4.25401C5.3448 4.28278 5.38602 4.32405 5.43763 4.37706C5.54106 4.48326 5.6865 4.63691 5.85951 4.83311C6.20495 5.22486 6.66462 5.78957 7.12513 6.48448C7.9661 7.75349 8.85003 9.52093 8.98158 11.5001H15.0187C15.1502 9.52093 16.0342 7.75349 16.8751 6.48448C17.3357 5.78957 17.7953 5.22486 18.1408 4.83311C18.3138 4.63691 18.4592 4.48326 18.5626 4.37706C18.6143 4.32405 18.6555 4.28278 18.6847 4.25401C18.6993 4.23962 18.7115 4.2279 18.7199 4.21983L18.7335 4.20616H18.7345C18.7374 4.209 18.7633 4.23627 19.0011 4.48741L18.7345 4.20518Z" fill="black"/>
</svg>
