<svg width="24" height="24" viewBox="0 0 24 24" fill="none" xmlns="http://www.w3.org/2000/svg">
<path d="M12.75 5.5H12C8.41015 5.5 5.5 8.41015 5.5 12C5.5 15.5899 8.41015 18.5 12 18.5C15.5899 18.5 18.5 15.5899 18.5 12V11.25H20V12C20 16.4183 16.4183 20 12 20C7.58172 20 4 16.4183 4 12C4 7.58172 7.58172 4 12 4H12.75V5.5ZM11 14C11.5523 14 12 14.4477 12 15C12 15.5523 11.5523 16 11 16C10.4477 16 10 15.5523 10 15C10 14.4477 10.4477 14 11 14ZM16 13C16.5523 13 17 13.4477 17 14C17 14.5523 16.5523 15 16 15C15.4477 15 15 14.5523 15 14C15 13.4477 15.4477 13 16 13ZM9 9C9.55228 9 10 9.44772 10 10C10 10.5523 9.55228 11 9 11C8.44772 11 8 10.5523 8 10C8 9.44772 8.44772 9 9 9ZM15.25 4C17.8734 4 20 6.12665 20 8.75V9C20 9.35998 19.7442 9.66881 19.3906 9.73633L14.1406 10.7363C13.8967 10.7828 13.6453 10.7059 13.4697 10.5303C13.2941 10.3547 13.2172 10.1033 13.2637 9.85938L14.2637 4.60938L14.2998 4.48145C14.4092 4.19576 14.6851 4 15 4H15.25ZM14.9424 9.05664L18.4785 8.38281C18.3096 6.88101 17.1182 5.68894 15.6162 5.52051L14.9424 9.05664Z" fill="black"/>
</svg>
