<svg width="24" height="24" viewBox="0 0 24 24" fill="none" xmlns="http://www.w3.org/2000/svg">
<path fill-rule="evenodd" clip-rule="evenodd" d="M12.0001 4C12.2796 4.00006 12.536 4.15551 12.6652 4.40332L18.9152 16.4033C18.9429 16.4566 18.9607 16.5125 18.9748 16.5684C18.982 16.5974 18.9866 16.6266 18.9904 16.6562C18.9929 16.6759 18.9953 16.6952 18.9962 16.7148C18.9975 16.7416 18.9969 16.7681 18.9953 16.7949C18.9939 16.8166 18.9926 16.838 18.9894 16.8594C18.9853 16.8871 18.979 16.9142 18.9718 16.9414C18.9668 16.9602 18.9616 16.9787 18.9552 16.9971C18.9462 17.0228 18.9349 17.0474 18.923 17.0723C18.9132 17.0928 18.9034 17.1132 18.8917 17.1328C18.8607 17.1848 18.8252 17.2355 18.7804 17.2803C14.9875 21.0731 9.01276 21.0731 5.21987 17.2803C5.17354 17.2339 5.13631 17.1819 5.10463 17.1279C5.09423 17.1101 5.0852 17.0918 5.07631 17.0732C5.06518 17.05 5.05465 17.0269 5.04604 17.0029C5.03776 16.9799 5.03153 16.9564 5.02553 16.9326C5.01958 16.9089 5.01351 16.8854 5.00991 16.8613C5.00643 16.8384 5.00538 16.8153 5.00405 16.792C5.00273 16.7685 5.00121 16.7452 5.00209 16.7217C5.00305 16.6959 5.00624 16.6703 5.00991 16.6445C5.01311 16.6219 5.01636 16.5994 5.02163 16.5771C5.03566 16.5181 5.05581 16.4596 5.0851 16.4033L11.3351 4.40332L11.3888 4.31543C11.5282 4.1193 11.7553 4 12.0001 4ZM6.67788 16.5898C9.75577 19.301 14.2434 19.3008 17.3214 16.5898L16.9884 15.9502C15.4985 17.2869 13.7678 17.9882 12.0001 17.9883C10.2321 17.9882 8.50112 17.2864 7.01088 15.9492L6.67788 16.5898ZM7.73061 14.5684C9.05129 15.8719 10.546 16.4882 12.0001 16.4883C13.4542 16.4882 14.9482 15.8716 16.2687 14.5684L12.0001 6.37305L7.73061 14.5684ZM14.0001 13C14.5524 13.0001 15.0001 13.4478 15.0001 14C15.0001 14.5522 14.5524 14.9999 14.0001 15C13.4479 15 13.0001 14.5523 13.0001 14C13.0001 13.4477 13.4479 13 14.0001 13ZM11.0001 11C11.5524 11.0001 12.0001 11.4478 12.0001 12C12.0001 12.5522 11.5524 12.9999 11.0001 13C10.4479 13 10.0001 12.5523 10.0001 12C10.0001 11.4477 10.4479 11 11.0001 11Z" fill="black"/>
</svg>
