<svg width="24" height="24" viewBox="0 0 24 24" fill="none" xmlns="http://www.w3.org/2000/svg">
<path fill-rule="evenodd" clip-rule="evenodd" d="M5.73921 4.09346C6.14253 4.12964 6.58316 4.27039 7.02925 4.46455C7.89234 4.84022 8.93224 5.48832 10.0517 6.3249C10.6627 6.11517 11.3178 5.99973 12 5.99971C15.3136 5.99971 17.9998 8.68613 18 11.9997C18 12.6674 17.8887 13.309 17.6875 13.9089C18.5804 15.0814 19.2739 16.1729 19.6767 17.0749C19.8823 17.5352 20.0321 17.9884 20.0742 18.4011C20.1151 18.8032 20.0648 19.3089 19.6884 19.6853C19.408 19.9657 19.0504 20.0657 18.7294 20.0808C18.4143 20.0955 18.0839 20.0329 17.7646 19.9353C17.1243 19.7393 16.3694 19.3529 15.5615 18.8415C15.0449 18.5145 14.4938 18.1242 13.916 17.6843C13.3141 17.8871 12.6702 17.9997 12 17.9997C8.68636 17.9996 5.99995 15.3133 5.99995 11.9997C5.99999 11.3151 6.11589 10.6575 6.3271 10.0446C5.95217 9.54274 5.61617 9.06267 5.32906 8.60908C4.81779 7.80133 4.43128 7.04717 4.23531 6.40693C4.13758 6.08754 4.07504 5.75635 4.0898 5.44111C4.10492 5.12022 4.20492 4.76257 4.48531 4.48213L4.62886 4.35908C4.97451 4.10248 5.3936 4.06248 5.73921 4.09346ZM16.9335 15.4118C16.5232 16.004 16.0096 16.5184 15.4179 16.9294C15.7477 17.1659 16.0629 17.3832 16.3642 17.5739C17.1234 18.0545 17.7475 18.3613 18.2031 18.5007C18.3723 18.5525 18.4972 18.5734 18.583 18.5798C18.5823 18.5716 18.5829 18.5626 18.582 18.5534C18.5629 18.3658 18.4823 18.0786 18.3076 17.6872C18.0313 17.0685 17.5653 16.2926 16.9335 15.4118ZM7.52241 11.5456C7.50744 11.6949 7.49996 11.8464 7.49995 11.9997C7.49995 14.4849 9.51478 16.4996 12 16.4997C12.1435 16.4997 12.2856 16.4923 12.4257 16.4792C11.6232 15.7932 10.7932 15.0302 9.96675 14.2038C9.07181 13.3089 8.25094 12.4099 7.52241 11.5456ZM12 7.49971C10.3011 7.4998 8.82144 8.44113 8.05562 9.83076C8.88595 10.8755 9.89121 12.0062 11.0283 13.1433C12.0941 14.2091 13.1547 15.1581 14.1435 15.9567C15.5469 15.1949 16.5 13.7088 16.5 11.9997C16.4998 9.51456 14.4851 7.49971 12 7.49971ZM14 11.9997C14.5521 11.9997 14.9998 12.4476 15 12.9997C15 13.552 14.5522 13.9997 14 13.9997C13.4478 13.9996 13 13.5519 13 12.9997C13.0001 12.4476 13.4479 11.9998 14 11.9997ZM5.5898 5.58662C5.59607 5.67243 5.61791 5.79762 5.66988 5.96748C5.80929 6.42303 6.11617 7.04725 6.59663 7.80635C6.74726 8.04431 6.9152 8.2904 7.09468 8.54658C7.49318 7.98156 7.98626 7.48844 8.55171 7.09053C7.72986 6.51452 7.00834 6.09101 6.43062 5.83955C6.05516 5.67615 5.78201 5.60348 5.60542 5.5876C5.60014 5.58712 5.59471 5.58699 5.5898 5.58662Z" fill="black"/>
</svg>
