<svg width="24" height="24" viewBox="0 0 24 24" fill="none" xmlns="http://www.w3.org/2000/svg">
<path d="M12 4C12.1989 4 12.3896 4.07907 12.5303 4.21973L13.3584 5.04785C14.2492 5.93865 14.75 7.14745 14.75 8.40723V9.75781L19.5742 12.0742C19.8343 12.199 20 12.4616 20 12.75V14.0771C20 15.1539 19.0368 15.9757 17.9736 15.8057L14.75 15.2891V17.1143L15.6143 17.5947C15.8523 17.727 16 17.9777 16 18.25V19.25C16 19.6642 15.6642 20 15.25 20H8.75C8.33579 20 8 19.6642 8 19.25V18.25C8 17.9659 8.16095 17.7061 8.41504 17.5791L9.25 17.1611V15.2891L6.02637 15.8057C4.96316 15.9757 4 15.1539 4 14.0771V12.75C4 12.4616 4.16574 12.199 4.42578 12.0742L9.25 9.75781V8.40723C9.25 7.14745 9.7508 5.93865 10.6416 5.04785L11.4697 4.21973L11.584 4.12598C11.7063 4.04445 11.8508 4 12 4ZM11.7021 6.1084C11.0927 6.71789 10.75 7.54527 10.75 8.40723V10.2305C10.7498 10.5187 10.5841 10.7815 10.3242 10.9062L5.5 13.2207V14.0771C5.5 14.2308 5.63734 14.3482 5.78906 14.3242L9.88184 13.6689C10.0984 13.6344 10.3194 13.6967 10.4863 13.8389C10.6534 13.9814 10.75 14.1905 10.75 14.4102V17.625C10.75 17.9091 10.589 18.1689 10.335 18.2959L9.92676 18.5H14.1562L13.6357 18.2109C13.3977 18.0787 13.25 17.828 13.25 17.5557V14.4102C13.25 14.1905 13.3466 13.9814 13.5137 13.8389C13.6806 13.6967 13.9016 13.6344 14.1182 13.6689L18.2109 14.3242C18.3627 14.3482 18.5 14.2308 18.5 14.0771V13.2207L13.6758 10.9062C13.4159 10.7815 13.2502 10.5187 13.25 10.2305V8.40723C13.25 7.54527 12.9073 6.71789 12.2979 6.1084L12 5.81055L11.7021 6.1084Z" fill="black"/>
</svg>
