<svg width="24" height="24" viewBox="0 0 24 24" fill="none" xmlns="http://www.w3.org/2000/svg">
<path fill-rule="evenodd" clip-rule="evenodd" d="M19.25 18.5001C19.6642 18.5001 20 18.8359 20 19.2501C20 19.6643 19.6642 20.0001 19.25 20.0001H4.75C4.3358 20.0001 4 19.6643 4 19.2501C4 18.8359 4.3358 18.5001 4.75 18.5001H19.25ZM9.20215 4.15732C9.74078 3.96183 10.3266 3.94896 10.8701 4.1163L11.1006 4.19931L11.1367 4.21494L13.7754 5.47373L16.1172 4.62509C17.475 4.13225 18.9788 4.82905 19.4746 6.18662L19.9541 7.50107C20.0224 7.68807 20.0138 7.89485 19.9297 8.07529C19.8455 8.25577 19.6931 8.39602 19.5059 8.46396L15.3643 9.96689L12.8525 14.214C12.5435 14.7363 12.0617 15.1348 11.4912 15.3419L9.80176 15.9552C9.53474 16.0521 9.2354 15.9895 9.0293 15.794C8.82348 15.5987 8.74571 15.3039 8.82812 15.0323L9.74805 12.004L9.40137 12.131C7.55815 12.7999 5.51706 11.8535 4.84473 10.0118L4.0459 7.82041C3.9448 7.54312 4.01517 7.23243 4.22656 7.02646C4.43806 6.82052 4.75085 6.7579 5.02539 6.8663L7.37695 7.79599L9.4248 7.05283L8.23633 5.55966C8.08624 5.37083 8.03601 5.12092 8.10156 4.88876C8.16716 4.65665 8.3407 4.47018 8.56738 4.38779L9.20215 4.15732ZM18.0654 6.70126C17.8544 6.12357 17.212 5.82265 16.6289 6.03427L13.9932 6.9913L10.918 8.10751L7.62305 9.3038C7.45084 9.3663 7.26118 9.36337 7.09082 9.29599L6.02637 8.87412L6.25391 9.49716C6.64144 10.5589 7.82124 11.1086 8.88965 10.7208L10.6465 10.0831C10.9135 9.9862 11.2128 10.0488 11.4189 10.2442C11.6249 10.4397 11.7027 10.7353 11.6201 11.0069L10.6992 14.0323L10.9795 13.9317C11.2238 13.843 11.4299 13.6728 11.5615 13.4503L14.2109 8.97177L14.2861 8.8663C14.3698 8.76824 14.478 8.69305 14.6006 8.64853L18.2871 7.30966L18.0654 6.70126ZM10.9121 6.51279L11.7969 6.1915L10.5137 5.58017C10.3827 5.52803 10.2443 5.50105 10.1055 5.50009L10.9121 6.51279Z" fill="black"/>
</svg>
