<svg width="24" height="24" viewBox="0 0 24 24" fill="none" xmlns="http://www.w3.org/2000/svg">
<path fill-rule="evenodd" clip-rule="evenodd" d="M19.2503 18.5001C19.6645 18.5002 20.0003 18.8359 20.0003 19.2501C20.0003 19.6642 19.6645 20 19.2503 20.0001H4.75035C4.33613 20.0001 4.00035 19.6643 4.00035 19.2501C4.00036 18.8359 4.33614 18.5001 4.75035 18.5001H19.2503ZM5.49351 4.0079C5.78207 3.96568 6.06879 4.09513 6.22886 4.33895L7.77671 6.6954L10.3197 7.40048L10.224 5.20809C10.2135 4.96841 10.3185 4.73839 10.5062 4.58895C10.694 4.43954 10.9419 4.38828 11.1732 4.45223L11.9066 4.65536C12.5041 4.82081 13.0325 5.17178 13.4085 5.65633L13.5599 5.87215L13.5804 5.90731L15.1703 8.74227L17.9183 9.50399C19.4238 9.92083 20.3344 11.4587 19.8871 12.9649L19.4496 14.4356C19.3332 14.8274 18.9245 15.0544 18.5306 14.9454L13.7005 13.6075L8.53452 15.7735C7.92936 16.027 7.25314 16.0687 6.62046 15.8936L4.66636 15.3526C4.38932 15.2758 4.18089 15.0476 4.12925 14.7647C4.0776 14.4818 4.19199 14.1942 4.42417 14.0245L7.38511 11.8595L6.848 11.711C4.78135 11.1389 3.54636 9.03636 4.15464 6.98837L4.88316 4.53622L4.92124 4.43563C5.02634 4.20796 5.24071 4.0451 5.49351 4.0079ZM5.59312 7.4161C5.23636 8.61806 5.94871 9.90592 7.24839 10.2657L9.27964 10.8282C9.55674 10.905 9.76609 11.1332 9.81773 11.4161C9.86928 11.6989 9.75388 11.9866 9.52183 12.1563L6.55992 14.3204L7.02085 14.4483C7.33006 14.5339 7.66074 14.5127 7.95445 14.3897L13.3617 12.1241L13.4808 12.086C13.6024 12.0577 13.7304 12.0602 13.8519 12.0938L18.221 13.3028L18.4486 12.5372C18.6444 11.8771 18.2572 11.1549 17.5189 10.9503L14.471 10.1065L10.9154 9.12215L7.10581 8.06747C6.93052 8.01894 6.77792 7.90799 6.67808 7.75594L5.86167 6.5118L5.59312 7.4161ZM11.8402 7.8204L13.1361 8.17977L12.2894 6.67001C12.1635 6.47397 11.9837 6.31243 11.7689 6.20321L11.8402 7.8204Z" fill="black"/>
</svg>
