<svg width="24" height="24" viewBox="0 0 24 24" fill="none" xmlns="http://www.w3.org/2000/svg">
<path d="M10.4717 6C11.0737 6 11.6567 6.19777 12.1328 6.55859L12.3301 6.72266L12.3594 6.75098L14.5645 9H17.25C18.7688 9 20 10.2312 20 11.75V13.25C20 13.6642 19.6642 14 19.25 14H14.5186L10.4209 17.373C9.92874 17.7782 9.31127 17.9999 8.67383 18H6.75C6.46592 18 6.20615 17.839 6.0791 17.585C5.95228 17.331 5.98003 17.027 6.15039 16.7998L8.25 14H7.75C5.67893 14 4 12.3211 4 10.25V7.75C4 7.45472 4.17305 7.18645 4.44238 7.06543C4.71176 6.94446 5.02731 6.99333 5.24805 7.18945L7.28516 9H9.70898L9.03809 6.9873C8.96185 6.7586 9.00065 6.5071 9.1416 6.31152C9.28257 6.11595 9.50892 6 9.75 6H10.4717ZM8.25 16.5H8.67383C8.96349 16.4999 9.24413 16.3989 9.46777 16.2148L12.1582 14H10.125L8.25 16.5ZM5.5 10.25C5.5 11.4926 6.50736 12.5 7.75 12.5H18.5V11.75C18.5 11.0596 17.9404 10.5 17.25 10.5H7C6.81637 10.5 6.63922 10.4325 6.50195 10.3105L5.5 9.41992V10.25ZM11.291 9H12.4639L11.3076 7.82129C11.1626 7.69081 10.9909 7.5962 10.8057 7.54492L11.291 9Z" fill="black"/>
</svg>
