<svg width="24" height="24" viewBox="0 0 24 24" fill="none" xmlns="http://www.w3.org/2000/svg">
<path fill-rule="evenodd" clip-rule="evenodd" d="M6.74979 10C7.164 10 7.49978 10.3358 7.49979 10.75V11.3428C7.49979 12.2047 7.84245 13.0321 8.45194 13.6416L10.2801 15.4697C10.4207 15.6104 10.4998 15.8011 10.4998 16V18.25C10.4998 18.3881 10.6117 18.5 10.7498 18.5H14.2498C14.664 18.5 14.9998 18.8358 14.9998 19.25C14.9998 19.6642 14.664 20 14.2498 20H10.7498C9.7833 20 8.99979 19.2165 8.99979 18.25V16.3105L7.39139 14.7021C6.5006 13.8114 5.99979 12.6025 5.99979 11.3428V10.75C5.99979 10.3358 6.33558 10 6.74979 10ZM14.2498 4C14.664 4 14.9998 4.33579 14.9998 4.75V7H17.2498C17.664 7 17.9998 7.33579 17.9998 7.75V11.3428C17.9998 12.6026 17.499 13.8114 16.6082 14.7021L15.9158 15.3936L18.8181 18.7607C19.0882 19.0745 19.0526 19.548 18.739 19.8184C18.4253 20.0884 17.9518 20.0529 17.6814 19.7393L5.18143 5.23926C4.91136 4.92553 4.94694 4.45198 5.26053 4.18164C5.57426 3.91157 6.0478 3.94716 6.31815 4.26074L8.6824 7.00293C8.7046 7.00095 8.72708 7 8.74979 7H8.99979V4.75C8.99979 4.3358 9.33558 4.00001 9.74979 4C10.164 4 10.4998 4.33579 10.4998 4.75V7H13.4998V4.75C13.4998 4.3358 13.8356 4.00001 14.2498 4ZM14.9334 14.2549L15.5476 13.6416C16.1571 13.0321 16.4998 12.2047 16.4998 11.3428V8.5H9.97244L14.9334 14.2549Z" fill="black"/>
</svg>
