<svg width="24" height="24" viewBox="0 0 24 24" fill="none" xmlns="http://www.w3.org/2000/svg">
<path fill-rule="evenodd" clip-rule="evenodd" d="M11.7541 9.21936C12.0476 8.92719 12.5224 8.92781 12.8146 9.22131C13.1065 9.51487 13.1051 9.98972 12.8117 10.2819L11.1271 11.9586L12.0734 12.901L13.7209 11.2604C14.0143 10.9682 14.4891 10.9691 14.7814 11.2623C15.0733 11.5558 15.0726 12.0307 14.7795 12.3229L13.1359 13.9586L13.8166 14.6364C13.9578 14.7771 14.0373 14.9692 14.0373 15.1686C14.0371 15.3678 13.9577 15.5593 13.8166 15.6998L12.6437 16.8668C11.3069 18.1978 9.23968 18.356 7.72868 17.3424L5.27946 19.7819C4.98607 20.0739 4.51117 20.073 4.21892 19.7799C3.92676 19.4865 3.92763 19.0116 4.22087 18.7194L6.66618 16.2838C5.65089 14.7775 5.81185 12.7174 7.1486 11.3864L8.32146 10.2194L8.3781 10.1676C8.67226 9.92871 9.10575 9.94625 9.38005 10.2194L10.0646 10.901L11.7541 9.21936ZM8.2072 12.4498C7.27656 13.3766 7.27649 14.8776 8.2072 15.8043C9.13969 16.7323 10.6527 16.7324 11.5851 15.8043L12.2238 15.1676L8.85075 11.8082L8.2072 12.4498ZM13.3566 5.1344C14.8744 3.62317 17.3339 3.62317 18.8517 5.1344C20.3709 6.64746 20.3712 9.10199 18.8517 10.6149L17.6789 11.7819C17.3863 12.073 16.9129 12.0729 16.6203 11.7819L12.1838 7.36487C12.0425 7.22421 11.9632 7.03199 11.9631 6.83264C11.9632 6.63336 12.0426 6.44203 12.1838 6.30139L13.3566 5.1344ZM17.7931 6.1969C16.8606 5.26861 15.3477 5.2686 14.4152 6.1969L13.7756 6.83264L17.1486 10.192L17.7931 9.55139C18.7238 8.62476 18.7236 7.12363 17.7931 6.1969Z" fill="black"/>
</svg>
