<svg width="24" height="24" viewBox="0 0 24 24" fill="none" xmlns="http://www.w3.org/2000/svg">
<path d="M14.25 4C14.6642 4 15 4.33579 15 4.75V7H17.25C17.6642 7 18 7.33579 18 7.75V11.3428C18 12.6026 17.4992 13.8114 16.6084 14.7021L15 16.3105V18.25C15 19.2165 14.2165 20 13.25 20H10.75C9.7835 20 9 19.2165 9 18.25V16.3105L7.3916 14.7021C6.5008 13.8114 6 12.6026 6 11.3428V7.75C6 7.33579 6.33579 7 6.75 7H9V4.75C9 4.33579 9.33579 4 9.75 4C10.1642 4 10.5 4.33579 10.5 4.75V7H13.5V4.75C13.5 4.33579 13.8358 4 14.25 4ZM7.5 11.3428C7.5 12.2047 7.84266 13.0321 8.45215 13.6416L10.2803 15.4697C10.4209 15.6104 10.5 15.8011 10.5 16V18.25C10.5 18.3881 10.6119 18.5 10.75 18.5H13.25C13.3881 18.5 13.5 18.3881 13.5 18.25V16C13.5 15.8011 13.5791 15.6104 13.7197 15.4697L15.5479 13.6416C16.1573 13.0321 16.5 12.2047 16.5 11.3428V8.5H7.5V11.3428Z" fill="black"/>
</svg>
