<svg width="24" height="24" viewBox="0 0 24 24" fill="none" xmlns="http://www.w3.org/2000/svg">
<path fill-rule="evenodd" clip-rule="evenodd" d="M15.7197 4.21967C16.0126 3.92678 16.4873 3.92678 16.7802 4.21967C17.0731 4.51256 17.0731 4.98732 16.7802 5.28022L14.6855 7.37494L16.6249 9.3144L18.7197 7.21967C19.0126 6.92678 19.4873 6.92678 19.7802 7.21967C20.0731 7.51256 20.0731 7.98732 19.7802 8.28022L17.6855 10.3749L18.8115 11.5009C19.6497 12.3392 19.4296 13.7508 18.3759 14.2939L11.3437 17.9169C11.0538 18.0663 10.7003 18.0108 10.4697 17.7802L8.87494 16.1855L5.28022 19.7802C4.98732 20.0731 4.51256 20.0731 4.21967 19.7802C3.92678 19.4873 3.92678 19.0126 4.21967 18.7197L7.8144 15.1249L6.21967 13.5302C5.9891 13.2996 5.9336 12.9461 6.08295 12.6562L9.706 5.62397C10.2491 4.57037 11.6607 4.35019 12.499 5.18842L13.6249 6.3144L15.7197 4.21967ZM11.4384 6.24897C11.3187 6.12922 11.1166 6.1609 11.039 6.31147L7.66694 12.8564L11.1425 16.332L17.6884 12.9609C17.839 12.8833 17.8707 12.6812 17.7509 12.5615L11.4384 6.24897Z" fill="black"/>
</svg>
