<svg width="24" height="24" viewBox="0 0 24 24" fill="none" xmlns="http://www.w3.org/2000/svg">
<path fill-rule="evenodd" clip-rule="evenodd" d="M6.25 7.99979C7.21637 7.99979 7.99979 8.78348 8 9.74979V11.2498C8 12.2163 7.2165 12.9998 6.25 12.9998H5.5V15.2498C5.5 15.664 5.16421 15.9998 4.75 15.9998C4.33579 15.9998 4 15.664 4 15.2498V8.74979C4.00021 8.33576 4.33592 7.99979 4.75 7.99979H6.25ZM13.25 7.99979C13.6641 7.99979 13.9998 8.33576 14 8.74979V15.2498C14 15.5933 13.7666 15.8932 13.4336 15.9773C13.1004 16.0613 12.7527 15.9078 12.5898 15.6053L10.5 11.7234V15.2498C10.5 15.664 10.1642 15.9998 9.75 15.9998C9.33579 15.9998 9 15.664 9 15.2498V8.74979C9.00018 8.40642 9.23345 8.10628 9.56641 8.02226C9.89943 7.93834 10.2472 8.09203 10.4102 8.39433L12.5 12.2752V8.74979C12.5002 8.33576 12.8359 7.99979 13.25 7.99979ZM19.25 7.99979C19.6641 7.99979 19.9998 8.33576 20 8.74979C20 9.16401 19.6642 9.49979 19.25 9.49979H17.75C17.0598 9.49979 16.5002 10.0596 16.5 10.7498V13.2498C16.5 13.9402 17.0596 14.4998 17.75 14.4998H18.5V12.9998H17.75C17.3358 12.9998 17 12.664 17 12.2498C17.0002 11.8358 17.3359 11.4998 17.75 11.4998H19.25C19.6641 11.4998 19.9998 11.8358 20 12.2498V15.2498C20 15.664 19.6642 15.9998 19.25 15.9998H17.75C16.2312 15.9998 15 14.7686 15 13.2498V10.7498C15.0002 9.23119 16.2313 7.99979 17.75 7.99979H19.25ZM5.5 11.4998H6.25C6.38807 11.4998 6.5 11.3879 6.5 11.2498V9.74979C6.49979 9.6119 6.38794 9.49979 6.25 9.49979H5.5V11.4998Z" fill="black"/>
</svg>
