<svg width="24" height="24" viewBox="0 0 24 24" fill="none" xmlns="http://www.w3.org/2000/svg">
<path d="M12 4C16.4183 4 20 7.58172 20 12C20 12.0722 19.996 12.1441 19.9941 12.2158C19.9946 12.2272 19.9961 12.2385 19.9961 12.25C19.9961 12.2777 19.9941 12.3051 19.9912 12.332C19.8171 16.5963 16.307 20 12 20C7.69297 20 4.18292 16.5963 4.00879 12.332C4.00586 12.3051 4.00391 12.2777 4.00391 12.25C4.00391 12.2385 4.00535 12.2272 4.00586 12.2158C4.00396 12.1441 4 12.0722 4 12C4 7.58172 7.58172 4 12 4ZM5.57715 13C6.0582 16.115 8.75025 18.5 12 18.5C15.2498 18.5 17.9418 16.115 18.4229 13H14.8262C14.4141 14.1647 13.3059 15 12 15C10.6941 15 9.58594 14.1647 9.17383 13H5.57715ZM12 10.5C11.1716 10.5 10.5 11.1716 10.5 12C10.5 12.8284 11.1716 13.5 12 13.5C12.8284 13.5 13.5 12.8284 13.5 12C13.5 11.1716 12.8284 10.5 12 10.5ZM12 5.5C8.57843 5.5 5.77588 8.14383 5.52051 11.5H9.04199C9.28007 10.0812 10.5135 9 12 9C13.4865 9 14.7199 10.0812 14.958 11.5H18.4795C18.2241 8.14383 15.4216 5.5 12 5.5Z" fill="black"/>
</svg>
