<svg width="24" height="24" viewBox="0 0 24 24" fill="none" xmlns="http://www.w3.org/2000/svg">
<path d="M18.0254 8.80664C18.1326 8.40654 18.5442 8.16916 18.9443 8.27637C19.4827 8.42073 19.8198 8.80147 19.9561 9.25391C20.0781 9.65946 20.0323 10.0845 19.9404 10.4277L17.7246 18.6973C17.4741 19.6321 16.515 20.1874 15.5801 19.9414V19.9424L9.56348 18.3965C9.16247 18.2935 8.92068 17.8854 9.02344 17.4844C9.12647 17.0832 9.53533 16.8413 9.93652 16.9443L15.9531 18.4893L15.96 18.4912C16.0971 18.528 16.2385 18.4466 16.2754 18.3096L18.4912 10.04C18.5152 9.95039 18.5267 9.87075 18.5293 9.80566C18.5309 9.76545 18.5284 9.73549 18.5254 9.71484C18.1441 9.59527 17.9212 9.19626 18.0254 8.80664ZM14.25 4C15.2165 4 16 4.7835 16 5.75V14.25C16 15.2165 15.2165 16 14.25 16H5.75C4.7835 16 4 15.2165 4 14.25V5.75C4 4.7835 4.7835 4 5.75 4H14.25ZM5.5 14.25C5.5 14.3881 5.61193 14.5 5.75 14.5H14.25C14.3881 14.5 14.5 14.3881 14.5 14.25V13.5H5.5V14.25ZM5.75 5.5C5.61193 5.5 5.5 5.61193 5.5 5.75V12H14.5V5.75C14.5 5.61193 14.3881 5.5 14.25 5.5H5.75Z" fill="black"/>
</svg>
