<svg width="24" height="24" viewBox="0 0 24 24" fill="none" xmlns="http://www.w3.org/2000/svg">
<path d="M7 14C8.65685 14 10 15.3431 10 17C10 18.6569 8.65685 20 7 20C5.34315 20 4 18.6569 4 17C4 15.3431 5.34315 14 7 14ZM7 15.5C6.17157 15.5 5.5 16.1716 5.5 17C5.5 17.8284 6.17157 18.5 7 18.5C7.82843 18.5 8.5 17.8284 8.5 17C8.5 16.1716 7.82843 15.5 7 15.5ZM19.25 16.25C19.6642 16.25 20 16.5858 20 17C20 17.4142 19.6642 17.75 19.25 17.75H12.75C12.3358 17.75 12 17.4142 12 17C12 16.5858 12.3358 16.25 12.75 16.25H19.25ZM7 4C8.65685 4 10 5.34315 10 7C10 8.65685 8.65685 10 7 10C5.34315 10 4 8.65685 4 7C4 5.34315 5.34315 4 7 4ZM7 5.5C6.17157 5.5 5.5 6.17157 5.5 7C5.5 7.82843 6.17157 8.5 7 8.5C7.82843 8.5 8.5 7.82843 8.5 7C8.5 6.17157 7.82843 5.5 7 5.5ZM19.25 6.25C19.6642 6.25 20 6.58579 20 7C20 7.41421 19.6642 7.75 19.25 7.75H12.75C12.3358 7.75 12 7.41421 12 7C12 6.58579 12.3358 6.25 12.75 6.25H19.25Z" fill="black"/>
</svg>
