<svg width="24" height="24" viewBox="0 0 24 24" fill="none" xmlns="http://www.w3.org/2000/svg">
<path d="M16.666 4.25C18.3688 4.25 19.7498 5.63028 19.75 7.33301V12C19.7498 13.7027 18.3688 15.084 16.666 15.084H15.084V16.666C15.084 18.3688 13.7028 19.7499 12 19.75H7.33301C5.63028 19.7498 4.25 18.3688 4.25 16.666V7.33301C4.25018 5.63039 5.63039 4.25018 7.33301 4.25H16.666ZM5.75 16.666C5.75 17.5404 6.45871 18.2498 7.33301 18.25H8.91699V15.084H5.75V16.666ZM10.417 15.084V18.25H12C12.8743 18.2499 13.584 17.5404 13.584 16.666V15.084H10.417ZM15.084 13.584H16.666C17.5403 13.584 18.2498 12.8743 18.25 12V10.417H15.084V13.584ZM5.75 13.583H8.91699V10.417H5.75V13.583ZM10.417 13.583H13.583V10.417H10.417V13.583ZM7.33301 5.75C6.45882 5.75018 5.75018 6.45882 5.75 7.33301V8.91699H8.91699V5.75H7.33301ZM10.417 8.91699H13.583V5.75H10.417V8.91699ZM15.084 8.91699H18.25V7.33301C18.2498 6.45871 17.5404 5.75 16.666 5.75H15.084V8.91699Z" fill="black"/>
</svg>
