<svg width="24" height="24" viewBox="0 0 24 24" fill="none" xmlns="http://www.w3.org/2000/svg">
<path fill-rule="evenodd" clip-rule="evenodd" d="M13.626 4.09929C13.8588 3.96558 14.146 3.96695 14.3779 4.10222L14 4.74968L14.3789 4.10222L14.3809 4.1032C14.382 4.10386 14.3833 4.10526 14.3848 4.10613C14.3878 4.10796 14.392 4.11028 14.3965 4.11296C14.4056 4.11849 14.4181 4.12628 14.4326 4.13542C14.4617 4.15367 14.5014 4.17878 14.5498 4.2116C14.6472 4.27765 14.7814 4.37435 14.9395 4.50164C15.2549 4.75574 15.6709 5.13716 16.0859 5.65593C16.9134 6.69025 17.7347 8.27111 17.748 10.446C18.501 10.9366 19 11.784 19 12.7497C19 13.3611 18.7975 13.9239 18.46 14.3805C19.3782 14.8934 20 15.8732 20 16.9997C20 18.6565 18.6569 19.9997 17 19.9997H7C5.34315 19.9997 4 18.6565 4 16.9997C4.00004 15.8735 4.62127 14.8936 5.53906 14.3805C5.20174 13.924 5 13.3609 5 12.7497C5.00005 11.3872 5.99148 10.259 7.29199 10.0407C7.29717 10.0073 7.30204 9.97228 7.30859 9.93621C7.36527 9.62456 7.48051 9.1985 7.7168 8.76531C7.95538 8.32803 8.32166 7.87787 8.875 7.53972C9.43014 7.20054 10.1316 6.99968 11 6.99968C11.6188 6.99968 12.033 6.84716 12.3184 6.65691C12.6083 6.46362 12.8111 6.20058 12.9541 5.91472C13.0985 5.62592 13.1742 5.32745 13.2129 5.09539C13.2319 4.98115 13.2417 4.88695 13.2461 4.82488C13.2483 4.79421 13.2496 4.77155 13.25 4.75847C13.2502 4.75198 13.25 4.74729 13.25 4.74578C13.2514 4.47891 13.3945 4.23242 13.626 4.09929ZM7 15.4997C6.17161 15.4997 5.50006 16.1713 5.5 16.9997C5.5 17.8281 6.17157 18.4997 7 18.4997H17C17.8284 18.4997 18.5 17.8281 18.5 16.9997C18.4999 16.1713 17.8284 15.4997 17 15.4997H7ZM14.4893 6.11785C14.4358 6.2689 14.3747 6.42696 14.2959 6.58464C14.0639 7.0486 13.704 7.53584 13.1504 7.90496C12.592 8.2772 11.8812 8.49968 11 8.49968C10.3686 8.49968 9.94482 8.64268 9.65625 8.81902C9.36613 8.99637 9.16959 9.23404 9.0332 9.48406C8.93768 9.65924 8.87479 9.83862 8.83203 9.99968H10V11.4997H7.75C7.05968 11.4997 6.50006 12.0594 6.5 12.7497C6.5 13.44 7.05964 13.9997 7.75 13.9997H16.25C16.9404 13.9997 17.5 13.44 17.5 12.7497C17.4999 12.0594 16.9403 11.4997 16.25 11.4997H14V9.99968H16.2305C16.1204 8.46301 15.5163 7.34621 14.9141 6.59343C14.7705 6.41395 14.6258 6.25635 14.4893 6.11785Z" fill="black"/>
</svg>
