<svg width="24" height="24" viewBox="0 0 24 24" fill="none" xmlns="http://www.w3.org/2000/svg">
<path d="M16.5 4C18.433 4 20 5.567 20 7.5C20 8.47258 19.6011 9.35081 18.9619 9.98438C18.9869 10.1529 19 10.3251 19 10.5C19 11.6244 18.4686 12.6233 17.6445 13.2637L17.0918 18.4365C16.9965 19.3256 16.2458 19.9998 15.3516 20H8.64844C7.75416 20 7.0035 19.3257 6.9082 18.4365L6.31641 12.9189C4.98924 12.6094 4 11.4215 4 10C4 8.68806 4.84249 7.5757 6.01562 7.16797C6.18287 5.39071 7.67899 4 9.5 4C10.5255 4 11.4475 4.44136 12.0869 5.14258C12.3753 5.05048 12.6821 5 13 5C13.3176 5 13.624 5.05066 13.9121 5.14258C14.5516 4.44108 15.4743 4 16.5 4ZM9 12.2334C8.66619 12.5325 8.26575 12.7586 7.82227 12.8848L8.40039 18.2764C8.414 18.4034 8.52071 18.5 8.64844 18.5H15.3516C15.4792 18.4998 15.586 18.4033 15.5996 18.2764L16.0615 13.9541C15.8786 13.9836 15.6912 14 15.5 14C14.3154 14 13.2698 13.4114 12.6367 12.5117C12.166 12.819 11.6046 13 11 13C10.2305 13 9.53051 12.7088 9 12.2334ZM16.5 5.5C15.7782 5.5 15.1446 5.88169 14.792 6.45801C14.5774 6.80877 14.1205 6.92182 13.7676 6.71094C13.5436 6.57713 13.282 6.5 13 6.5C12.718 6.5 12.4564 6.57713 12.2324 6.71094C11.8795 6.92182 11.4226 6.80877 11.208 6.45801C10.8554 5.88169 10.2218 5.5 9.5 5.5C8.39543 5.5 7.5 6.39543 7.5 7.5C7.5 7.56476 7.50286 7.62861 7.50879 7.69141C7.54754 8.10076 7.24974 8.4658 6.84082 8.50879C6.08767 8.58785 5.5 9.22556 5.5 10C5.5 10.8284 6.17157 11.5 7 11.5C7.57942 11.5 8.08365 11.1718 8.33398 10.6875L8.3877 10.5986C8.52699 10.4017 8.75452 10.2822 9 10.2822C9.28044 10.2822 9.53723 10.4384 9.66602 10.6875C9.91635 11.1718 10.4206 11.5 11 11.5C11.5141 11.5 11.9678 11.2417 12.2393 10.8447C12.403 10.6052 12.691 10.4815 12.9775 10.5273C13.2639 10.5733 13.4982 10.781 13.5791 11.0596C13.8212 11.8925 14.5906 12.5 15.5 12.5C16.6046 12.5 17.5 11.6046 17.5 10.5C17.5 10.2994 17.4711 10.1067 17.417 9.92578C17.3266 9.62325 17.4348 9.29638 17.6885 9.1084C18.1821 8.74277 18.5 8.15863 18.5 7.5C18.5 6.39543 17.6046 5.5 16.5 5.5Z" fill="black"/>
</svg>
