<svg width="24" height="24" viewBox="0 0 24 24" fill="none" xmlns="http://www.w3.org/2000/svg">
<path fill-rule="evenodd" clip-rule="evenodd" d="M18.2498 9C18.664 9 18.9998 9.33579 18.9998 9.75V11.0449C19.236 10.9614 19.5084 10.9961 19.7185 11.1641C20.042 11.4228 20.0945 11.8953 19.8357 12.2188L18.9998 13.2637V17.25C18.9998 18.7688 17.7686 20 16.2498 20H7.74978C6.23114 19.9998 4.99978 18.7687 4.99978 17.25V13.2637L4.16384 12.2188C3.90527 11.8954 3.9578 11.4228 4.28103 11.1641C4.49106 10.996 4.76354 10.9615 4.99978 11.0449V9.75C4.99978 9.33589 5.33571 9.00016 5.74978 9H18.2498ZM6.49978 17.25C6.49978 17.9403 7.05956 18.4998 7.74978 18.5H16.2498C16.9401 18.5 17.4998 17.9404 17.4998 17.25V10.5H6.49978V17.25ZM8.74978 4C9.16399 4 9.49978 4.33579 9.49978 4.75V6.25C9.49978 6.66421 9.16399 7 8.74978 7C8.33571 6.99984 7.99978 6.66411 7.99978 6.25V4.75C7.99978 4.33589 8.33571 4.00017 8.74978 4ZM11.9998 4C12.414 4 12.7498 4.33579 12.7498 4.75V6.25C12.7498 6.66421 12.414 7 11.9998 7C11.5857 6.99984 11.2498 6.66411 11.2498 6.25V4.75C11.2498 4.33589 11.5857 4.00017 11.9998 4ZM15.2498 4C15.664 4 15.9998 4.33579 15.9998 4.75V6.25C15.9998 6.66421 15.664 7 15.2498 7C14.8357 6.99984 14.4998 6.66411 14.4998 6.25V4.75C14.4998 4.33589 14.8357 4.00017 15.2498 4Z" fill="black"/>
</svg>
