<svg width="24" height="24" viewBox="0 0 24 24" fill="none" xmlns="http://www.w3.org/2000/svg">
<path d="M19.25 18.5C19.6642 18.5 20 18.8358 20 19.25C20 19.6642 19.6642 20 19.25 20H4.75C4.33579 20 4 19.6642 4 19.25C4 18.8358 4.33579 18.5 4.75 18.5H19.25ZM7.75 15C8.16421 15 8.5 15.3358 8.5 15.75V16.25C8.5 16.6642 8.16421 17 7.75 17C7.33579 17 7 16.6642 7 16.25V15.75C7 15.3358 7.33579 15 7.75 15ZM12 15C12.4142 15 12.75 15.3358 12.75 15.75V16.25C12.75 16.6642 12.4142 17 12 17C11.5858 17 11.25 16.6642 11.25 16.25V15.75C11.25 15.3358 11.5858 15 12 15ZM16.25 15C16.6642 15 17 15.3358 17 15.75V16.25C17 16.6642 16.6642 17 16.25 17C15.8358 17 15.5 16.6642 15.5 16.25V15.75C15.5 15.3358 15.8358 15 16.25 15ZM17.25 4C18.2165 4 19 4.7835 19 5.75V7.5H19.25C19.6642 7.5 20 7.83579 20 8.25C20 8.66421 19.6642 9 19.25 9H19V10.25C19 12.3211 17.3211 14 15.25 14H8.75C6.67893 14 5 12.3211 5 10.25V9H4.75C4.33579 9 4 8.66421 4 8.25C4 7.83579 4.33579 7.5 4.75 7.5H5V5.75C5 4.7835 5.7835 4 6.75 4H17.25ZM6.75 5.5C6.61193 5.5 6.5 5.61193 6.5 5.75V10.25C6.5 11.4926 7.50736 12.5 8.75 12.5H15.25C16.4926 12.5 17.5 11.4926 17.5 10.25V5.75C17.5 5.61193 17.3881 5.5 17.25 5.5H6.75Z" fill="#141414"/>
</svg>
