<svg width="24" height="24" viewBox="0 0 24 24" fill="none" xmlns="http://www.w3.org/2000/svg">
<path fill-rule="evenodd" clip-rule="evenodd" d="M16.5967 6.34277C16.8896 6.05038 17.3645 6.05024 17.6572 6.34277C20.7811 9.46682 20.7809 14.5321 17.6572 17.6562C14.5331 20.7804 9.46699 20.7804 6.3428 17.6562C3.21916 14.5321 3.21898 9.46682 6.3428 6.34277C6.63556 6.05024 7.11049 6.05038 7.40334 6.34277C7.69616 6.6356 7.69602 7.11041 7.40334 7.40332C4.86531 9.94158 4.86549 14.0573 7.40334 16.5957C9.94175 19.1341 14.0583 19.1341 16.5967 16.5957C19.1346 14.0573 19.1347 9.94158 16.5967 7.40332C16.304 7.11041 16.3039 6.6356 16.5967 6.34277ZM12 4C12.4142 4 12.75 4.33579 12.75 4.75V11.25C12.75 11.6642 12.4142 12 12 12C11.5858 12 11.25 11.6642 11.25 11.25V4.75C11.25 4.33579 11.5858 4 12 4Z" fill="black"/>
</svg>
