<svg width="24" height="24" viewBox="0 0 24 24" fill="none" xmlns="http://www.w3.org/2000/svg">
<path fill-rule="evenodd" clip-rule="evenodd" d="M9.15013 4C9.54234 4 9.86851 4.30228 9.89818 4.69336L10.321 10.2783L12.4812 8.20898C12.6981 8.00107 13.0183 7.94266 13.2947 8.06055C13.5709 8.17852 13.7497 8.44964 13.7497 8.75V10.6533L18.9158 8.0791C19.1482 7.96323 19.4244 7.97562 19.6453 8.1123C19.866 8.24904 19.9997 8.49035 19.9997 8.75V19.25C19.9997 19.6642 19.664 20 19.2497 20H5.82884C4.81023 19.9999 4.00668 19.1329 4.08373 18.1172L5.10228 4.69336C5.13195 4.30229 5.45814 4.00002 5.85033 4H9.15013ZM5.57982 18.2314C5.56902 18.3764 5.68348 18.4999 5.82884 18.5H9.44115L8.45482 5.5H6.54564L5.57982 18.2314ZM13.3347 12.5361C13.1022 12.652 12.8261 12.6396 12.6052 12.5029C12.3845 12.3662 12.2497 12.1249 12.2497 11.8652V10.5078L10.4685 12.2158L10.9451 18.5H11.9997V15.75C11.9997 14.7837 12.7835 14.0003 13.7497 14H15.2497C16.2162 14 16.9997 14.7835 16.9997 15.75V18.5H18.4997V9.96094L13.3347 12.5361ZM13.7497 15.5C13.6119 15.5003 13.4997 15.6121 13.4997 15.75V18.5H15.4997V15.75C15.4997 15.6119 15.3878 15.5 15.2497 15.5H13.7497Z" fill="black"/>
</svg>
