<svg width="24" height="24" viewBox="0 0 24 24" fill="none" xmlns="http://www.w3.org/2000/svg">
<path fill-rule="evenodd" clip-rule="evenodd" d="M12.7498 4C15.8851 4 17.7284 5.38187 18.7635 6.80957C19.2708 7.5093 19.5749 8.2061 19.7527 8.72656C19.8419 8.98748 19.9006 9.20715 19.9373 9.36523C19.9556 9.44424 19.9686 9.50841 19.9773 9.55469C19.9817 9.57783 19.9847 9.59728 19.9871 9.61133L19.991 9.63477V9.6377C19.9862 9.63883 19.9288 9.64815 19.2498 9.75L19.992 9.63867C19.9975 9.6755 19.9998 9.71276 19.9998 9.75V12.25C19.9998 13.6688 19.2117 14.903 18.0496 15.54C18.628 15.9979 18.9998 16.705 18.9998 17.5C18.9998 18.8807 17.8805 20 16.4998 20C15.1192 19.9999 13.9998 18.8807 13.9998 17.5C13.9998 16.9363 14.189 16.4182 14.5037 16H10.4969C10.8114 16.4181 10.9998 16.9365 10.9998 17.5C10.9998 18.8807 9.88052 20 8.4998 20C7.11917 19.9999 5.9998 18.8807 5.9998 17.5C5.9998 16.7051 6.37176 15.9979 6.95 15.54C5.788 14.903 4.9998 13.6687 4.9998 12.25V9.92676L4.07891 8.08496C3.89404 7.71461 4.04461 7.26431 4.41484 7.0791C4.78523 6.89417 5.23551 7.04473 5.4207 7.41504L6.21367 9H11.9998V4.75C11.9998 4.33584 12.3357 4.00009 12.7498 4ZM8.4998 16.5C7.9476 16.5001 7.4998 16.9478 7.4998 17.5C7.4998 18.0522 7.9476 18.4999 8.4998 18.5C9.05209 18.5 9.4998 18.0523 9.4998 17.5C9.4998 16.9477 9.05209 16.5 8.4998 16.5ZM16.4998 16.5C15.9476 16.5001 15.4998 16.9478 15.4998 17.5C15.4998 18.0522 15.9476 18.4999 16.4998 18.5C17.0521 18.5 17.4998 18.0523 17.4998 17.5C17.4998 16.9477 17.0521 16.5 16.4998 16.5ZM6.4998 12.25C6.4998 13.4926 7.50724 14.4999 8.7498 14.5H16.2498C17.4924 14.5 18.4998 13.4926 18.4998 12.25V10.5H6.4998V12.25ZM13.4998 9H18.2537C18.1059 8.61637 17.8831 8.1518 17.5486 7.69043C16.8491 6.72565 15.6398 5.72625 13.4998 5.53516V9Z" fill="black"/>
</svg>
