<svg width="24" height="24" viewBox="0 0 24 24" fill="none" xmlns="http://www.w3.org/2000/svg">
<path d="M13 7C14.1046 7 15 7.89543 15 9V12.5H16.25C18.3211 12.5 20 14.1789 20 16.25V19.25C20 19.6642 19.6642 20 19.25 20C18.8358 20 18.5 19.6642 18.5 19.25V16.25C18.5 15.0074 17.4926 14 16.25 14H14.25C13.8358 14 13.5 13.6642 13.5 13.25V9C13.5 8.72386 13.2761 8.5 13 8.5C12.7239 8.50004 12.5 8.72389 12.5 9V15.25C12.5 15.5656 12.3025 15.8475 12.0059 15.9551C11.709 16.0626 11.376 15.9729 11.1738 15.7305L9.57031 13.8076C9.34015 13.532 8.97707 13.4404 8.65918 13.5391L10.7021 18.9863C10.8476 19.3741 10.6513 19.8066 10.2637 19.9521C9.87593 20.0976 9.4434 19.9013 9.29785 19.5137L7.05176 13.5244C6.94787 13.2474 7.01251 12.9349 7.21777 12.7217L7.4082 12.5449C8.39258 11.7237 9.88086 11.8385 10.7227 12.8477L11 13.1797V9C11 7.89546 11.8955 7.00004 13 7ZM13 4C16.3137 4 19 6.68629 19 10V10.25C19 10.6642 18.6642 11 18.25 11C17.8358 11 17.5 10.6642 17.5 10.25V10C17.5 7.51472 15.4853 5.5 13 5.5C10.5147 5.5 8.5 7.51472 8.5 10V10.25C8.5 10.6642 8.16421 11 7.75 11C7.33579 11 7 10.6642 7 10.25V10C7 6.68629 9.68629 4 13 4Z" fill="black"/>
</svg>
