<svg width="24" height="24" viewBox="0 0 24 24" fill="none" xmlns="http://www.w3.org/2000/svg">
<path d="M19.25 4C19.6642 4 20 4.33579 20 4.75C20 5.16421 19.6642 5.5 19.25 5.5H19V13.25C19 14.7688 17.7688 16 16.25 16H15.0205L15.9658 19.0264C16.0893 19.4217 15.869 19.8423 15.4736 19.9658C15.0783 20.0893 14.6577 19.869 14.5342 19.4736L13.4482 16H10.5518L9.46582 19.4736C9.34228 19.869 8.92171 20.0893 8.52637 19.9658C8.13103 19.8423 7.91067 19.4217 8.03418 19.0264L8.97949 16H7.75C6.23122 16 5 14.7688 5 13.25V5.5H4.75C4.33579 5.5 4 5.16421 4 4.75C4 4.33579 4.33579 4 4.75 4H19.25ZM6.5 13.25C6.5 13.9404 7.05964 14.5 7.75 14.5H16.25C16.9404 14.5 17.5 13.9404 17.5 13.25V5.5H6.5V13.25ZM14.5791 7.41504C14.7643 7.04469 15.2146 6.89416 15.585 7.0791C15.9553 7.26428 16.1058 7.71455 15.9209 8.08496L13.6709 12.585C13.5565 12.8137 13.3334 12.9691 13.0791 12.9961C12.8248 13.023 12.5738 12.9185 12.4141 12.7188L10.9658 10.9082L9.30762 12.752C9.03052 13.0598 8.55591 13.0847 8.24805 12.8076C7.94022 12.5305 7.9153 12.0559 8.19238 11.748L10.4424 9.24805C10.5896 9.08447 10.8015 8.9937 11.0215 9C11.2416 9.00639 11.4484 9.10929 11.5859 9.28125L12.8535 10.8652L14.5791 7.41504Z" fill="black"/>
</svg>
