<svg width="24" height="24" viewBox="0 0 24 24" fill="none" xmlns="http://www.w3.org/2000/svg">
<path d="M17.25 4C17.6642 4 18 4.33579 18 4.75V10H19.25C19.6642 10 20 10.3358 20 10.75V17.25C20 18.7688 18.7688 20 17.25 20H6.75C5.23122 20 4 18.7688 4 17.25V10.75C4 10.3358 4.33579 10 4.75 10H6V4.75C6 4.33579 6.33579 4 6.75 4H17.25ZM5.5 17.25C5.5 17.9404 6.05964 18.5 6.75 18.5H17.25C17.9404 18.5 18.5 17.9404 18.5 17.25V11.5H5.5V17.25ZM16.25 15.5C16.6642 15.5 17 15.8358 17 16.25C17 16.6642 16.6642 17 16.25 17H7.75C7.33579 17 7 16.6642 7 16.25C7 15.8358 7.33579 15.5 7.75 15.5H16.25ZM7.5 10H16.5V5.5H7.5V10Z" fill="black"/>
</svg>
