<svg width="24" height="24" viewBox="0 0 24 24" fill="none" xmlns="http://www.w3.org/2000/svg">
<path d="M18.25 4C19.2165 4 20 4.7835 20 5.75V6.75C20 7.44772 19.5907 8.04804 19 8.3291V15.25C19 16.7688 17.7688 18 16.25 18H12.75V20H11.25V18H7.75C6.23122 18 5 16.7688 5 15.25V8.3291C4.40928 8.04804 4 7.44772 4 6.75V5.75C4 4.7835 4.7835 4 5.75 4H18.25ZM6.5 15.25C6.5 15.9404 7.05964 16.5 7.75 16.5H16.25C16.9404 16.5 17.5 15.9404 17.5 15.25V8.5H6.5V15.25ZM5.75 5.5C5.61193 5.5 5.5 5.61193 5.5 5.75V6.75C5.5 6.88807 5.61193 7 5.75 7H18.25C18.3881 7 18.5 6.88807 18.5 6.75V5.75C18.5 5.61193 18.3881 5.5 18.25 5.5H5.75Z" fill="black"/>
</svg>
