<svg width="24" height="24" viewBox="0 0 24 24" fill="none" xmlns="http://www.w3.org/2000/svg">
<path d="M11.0293 3C12.2821 3 13.3343 3.84758 13.6504 5H15.25C16.7688 5 18 6.23122 18 7.75V9.34961C19.1528 9.66744 20 10.7217 20 11.9756V12.0244C20 13.2782 19.1527 14.3315 18 14.6494V16.25C18 17.7688 16.7688 19 15.25 19H6.75C5.23122 19 4 17.7688 4 16.25V7.75C4 6.23122 5.23122 5 6.75 5H8.34961C8.66573 3.84758 9.71792 3 10.9707 3H11.0293ZM10.9707 4.5C10.2966 4.5 9.75 5.04659 9.75 5.7207C9.74994 6.15107 9.40107 6.49994 8.9707 6.5H6.75C6.05964 6.5 5.5 7.05964 5.5 7.75V16.25C5.5 16.9404 6.05964 17.5 6.75 17.5H15.25C15.9404 17.5 16.5 16.9404 16.5 16.25V14.0244C16.5 13.5967 16.8467 13.25 17.2744 13.25L17.3994 13.2441C18.0176 13.1815 18.5 12.6591 18.5 12.0244V11.9756C18.5 11.2987 17.9513 10.75 17.2744 10.75C16.8467 10.75 16.5 10.4033 16.5 9.97559V7.75C16.5 7.05964 15.9404 6.5 15.25 6.5H13.0293C12.5989 6.49994 12.2501 6.15107 12.25 5.7207C12.25 5.04659 11.7034 4.5 11.0293 4.5H10.9707Z" fill="black"/>
</svg>
