<svg width="24" height="24" viewBox="0 0 24 24" fill="none" xmlns="http://www.w3.org/2000/svg">
<path d="M4.75 16C5.16421 16 5.5 16.3358 5.5 16.75V17.25C5.5 17.9404 6.05964 18.5 6.75 18.5H7.25C7.66421 18.5 8 18.8358 8 19.25C8 19.6642 7.66421 20 7.25 20H6.75C5.23122 20 4 18.7688 4 17.25V16.75C4 16.3358 4.33579 16 4.75 16ZM18.25 14C19.2165 14 20 14.7835 20 15.75V18.25C20 19.2165 19.2165 20 18.25 20H15.75C14.7835 20 14 19.2165 14 18.25V15.75C14 14.7835 14.7835 14 15.75 14H18.25ZM15.75 15.5C15.6119 15.5 15.5 15.6119 15.5 15.75V18.25C15.5 18.3881 15.6119 18.5 15.75 18.5H18.25C18.3881 18.5 18.5 18.3881 18.5 18.25V15.75C18.5 15.6293 18.4145 15.5283 18.3008 15.5049L18.25 15.5H15.75ZM8.25 12C9.76878 12 11 13.2312 11 14.75V16.25C11 16.6642 10.6642 17 10.25 17C9.83579 17 9.5 16.6642 9.5 16.25V14.75C9.5 14.0596 8.94036 13.5 8.25 13.5H5.75C5.33579 13.5 5 13.1642 5 12.75C5 12.3358 5.33579 12 5.75 12H8.25ZM20 12H12V10.5H20V12ZM8.25 4C9.2165 4 10 4.7835 10 5.75V8.25C10 9.2165 9.2165 10 8.25 10H5.75C4.7835 10 4 9.2165 4 8.25V5.75C4 4.7835 4.7835 4 5.75 4H8.25ZM17.25 4C18.7688 4 20 5.23122 20 6.75V8.25C20 8.66421 19.6642 9 19.25 9C18.8358 9 18.5 8.66421 18.5 8.25V6.75C18.5 6.05964 17.9404 5.5 17.25 5.5H15.75C15.3358 5.5 15 5.16421 15 4.75C15 4.33579 15.3358 4 15.75 4H17.25ZM5.75 5.5C5.61193 5.5 5.5 5.61193 5.5 5.75V8.25C5.5 8.38807 5.61193 8.5 5.75 8.5H8.25L8.30078 8.49512C8.39815 8.47505 8.47505 8.39815 8.49512 8.30078L8.5 8.25V5.75C8.5 5.61193 8.38807 5.5 8.25 5.5H5.75ZM16 8.5H12V7H16V8.5Z" fill="black"/>
</svg>
