<svg width="24" height="24" viewBox="0 0 24 24" fill="none" xmlns="http://www.w3.org/2000/svg">
<path d="M9.25 13C10.2165 13 11 13.7835 11 14.75V18.25C11 19.2165 10.2165 20 9.25 20H5.75C4.7835 20 4 19.2165 4 18.25V14.75C4 13.7835 4.7835 13 5.75 13H9.25ZM15.25 17C15.6642 17 16 17.3358 16 17.75V19.25C16 19.6642 15.6642 20 15.25 20H13.75C13.3358 20 13 19.6642 13 19.25V17.75C13 17.3358 13.3358 17 13.75 17H15.25ZM19.25 17C19.6642 17 20 17.3358 20 17.75V19.25C20 19.6642 19.6642 20 19.25 20H17.75C17.3358 20 17 19.6642 17 19.25V17.75C17 17.3358 17.3358 17 17.75 17H19.25ZM5.75 14.5C5.61193 14.5 5.5 14.6119 5.5 14.75V18.25C5.5 18.3881 5.61193 18.5 5.75 18.5H9.25C9.38807 18.5 9.5 18.3881 9.5 18.25V14.75C9.5 14.6119 9.38807 14.5 9.25 14.5H5.75ZM15.25 13C15.6642 13 16 13.3358 16 13.75V15.25C16 15.6642 15.6642 16 15.25 16H13.75C13.3358 16 13 15.6642 13 15.25V13.75C13 13.3358 13.3358 13 13.75 13H15.25ZM19.25 13C19.6642 13 20 13.3358 20 13.75V15.25C20 15.6642 19.6642 16 19.25 16H17.75C17.3358 16 17 15.6642 17 15.25V13.75C17 13.3358 17.3358 13 17.75 13H19.25ZM9.25 4C10.2165 4 11 4.7835 11 5.75V9.25C11 10.2165 10.2165 11 9.25 11H5.75C4.7835 11 4 10.2165 4 9.25V5.75C4 4.7835 4.7835 4 5.75 4H9.25ZM18.25 4C19.2165 4 20 4.7835 20 5.75V9.25C20 10.2165 19.2165 11 18.25 11H14.75C13.7835 11 13 10.2165 13 9.25V5.75C13 4.7835 13.7835 4 14.75 4H18.25ZM5.75 5.5C5.61193 5.5 5.5 5.61193 5.5 5.75V9.25C5.5 9.38807 5.61193 9.5 5.75 9.5H9.25C9.38807 9.5 9.5 9.38807 9.5 9.25V5.75C9.5 5.61193 9.38807 5.5 9.25 5.5H5.75ZM14.75 5.5C14.6119 5.5 14.5 5.61193 14.5 5.75V9.25C14.5 9.38807 14.6119 9.5 14.75 9.5H18.25C18.3881 9.5 18.5 9.38807 18.5 9.25V5.75C18.5 5.61193 18.3881 5.5 18.25 5.5H14.75Z" fill="black"/>
</svg>
