<svg width="24" height="24" viewBox="0 0 24 24" fill="none" xmlns="http://www.w3.org/2000/svg">
<path fill-rule="evenodd" clip-rule="evenodd" d="M11.9997 18.25C12.4139 18.25 12.7497 18.5858 12.7497 19V19.25C12.7497 19.6642 12.4139 20 11.9997 20C11.5855 19.9999 11.2497 19.6642 11.2497 19.25V19C11.2497 18.5858 11.5855 18.2501 11.9997 18.25ZM11.9997 4C14.7611 4.00001 16.9997 6.23859 16.9997 9C16.9997 10.9462 15.8872 12.6313 14.2672 13.457C13.3414 13.929 12.7497 14.5931 12.7497 15.25C12.7497 15.6642 12.4139 16 11.9997 16C11.5855 15.9999 11.2497 15.6642 11.2497 15.25C11.2497 13.6979 12.5445 12.6523 13.5866 12.1211C14.7237 11.5415 15.4997 10.3605 15.4997 9C15.4997 7.06701 13.9326 5.50001 11.9997 5.5C10.6632 5.50006 9.49998 6.24899 8.90982 7.35352C8.71454 7.71865 8.26042 7.85629 7.89517 7.66113C7.5301 7.46585 7.39246 7.0117 7.58755 6.64648C8.42821 5.07332 10.088 4.00006 11.9997 4Z" fill="black"/>
</svg>
