<svg width="24" height="24" viewBox="0 0 24 24" fill="none" xmlns="http://www.w3.org/2000/svg">
<path d="M12 4C16.4183 4 20 7.58172 20 12C20 16.4183 16.4183 20 12 20C7.58172 20 4 16.4183 4 12C4 7.58172 7.58172 4 12 4ZM12 5.5C8.41015 5.5 5.5 8.41015 5.5 12C5.5 15.5899 8.41015 18.5 12 18.5C15.5899 18.5 18.5 15.5899 18.5 12C18.5 8.41015 15.5899 5.5 12 5.5ZM12 15.5C12.4142 15.5 12.75 15.8358 12.75 16.25V16.2598C12.75 16.674 12.4142 17.0098 12 17.0098C11.5858 17.0098 11.25 16.674 11.25 16.2598V16.25C11.25 15.8358 11.5858 15.5 12 15.5ZM12 7C13.6569 7 15 8.34315 15 10C15 10.8365 14.657 11.5944 14.1055 12.1377C13.8325 12.4066 13.5872 12.6318 13.3525 12.8867C13.1238 13.1352 12.9558 13.3593 12.8555 13.5723C12.6791 13.947 12.2322 14.108 11.8574 13.9316C11.4828 13.7552 11.3217 13.3083 11.498 12.9336C11.692 12.5216 11.9757 12.168 12.249 11.8711C12.5165 11.5805 12.8252 11.2925 13.0527 11.0684C13.3296 10.7955 13.5 10.4183 13.5 10C13.5 9.17157 12.8284 8.5 12 8.5C11.5202 8.5 11.0932 8.72447 10.8174 9.07715C10.7551 9.15678 10.7005 9.24304 10.6553 9.33398C10.4709 9.70462 10.0212 9.85592 9.65039 9.67188C9.27946 9.48754 9.12816 9.03695 9.3125 8.66602C9.40312 8.48371 9.51174 8.31193 9.63574 8.15332C10.1836 7.45268 11.0391 7 12 7Z" fill="black"/>
</svg>
