<svg width="24" height="24" viewBox="0 0 24 24" fill="none" xmlns="http://www.w3.org/2000/svg">
<path d="M17.25 10C18.7688 10 20 11.2312 20 12.75V14.9365C20 15.9831 19.563 16.9825 18.7939 17.6924L16.5088 19.8008C16.2899 20.0028 15.9721 20.0569 15.6992 19.9375C15.4263 19.818 15.25 19.5479 15.25 19.25V17H14.75C13.2312 17 12 15.7688 12 14.25V12.75C12 11.2312 13.2312 10 14.75 10H17.25ZM14.75 11.5C14.0596 11.5 13.5 12.0596 13.5 12.75V14.25C13.5 14.9404 14.0596 15.5 14.75 15.5H16C16.4142 15.5 16.75 15.8358 16.75 16.25V17.5371L17.7764 16.5898C18.2377 16.1639 18.5 15.5644 18.5 14.9365V12.75C18.5 12.0596 17.9404 11.5 17.25 11.5H14.75ZM9.25 4C10.7688 4 12 5.23122 12 6.75V8.93652C12 9.98312 11.563 10.9825 10.7939 11.6924L8.50879 13.8008C8.28994 14.0028 7.97206 14.0569 7.69922 13.9375C7.42633 13.818 7.25 13.5479 7.25 13.25V11H6.75C5.23122 11 4 9.76878 4 8.25V6.75C4 5.23122 5.23122 4 6.75 4H9.25ZM6.75 5.5C6.05964 5.5 5.5 6.05964 5.5 6.75V8.25C5.5 8.94036 6.05964 9.5 6.75 9.5H8C8.41421 9.5 8.75 9.83579 8.75 10.25V11.5371L9.77637 10.5898C10.2377 10.1639 10.5 9.56444 10.5 8.93652V6.75C10.5 6.05964 9.94036 5.5 9.25 5.5H6.75Z" fill="black"/>
</svg>
