<svg width="24" height="24" viewBox="0 0 24 24" fill="none" xmlns="http://www.w3.org/2000/svg">
<path fill-rule="evenodd" clip-rule="evenodd" d="M14.8975 4.08785C15.2628 3.89336 15.7172 4.0322 15.9121 4.39742C16.1067 4.76281 15.9678 5.21721 15.6025 5.41207L10.75 7.99996H17.25C18.7687 7.99996 19.9999 9.23125 20 10.75V17.25C20 18.7687 18.7688 20 17.25 20H6.75C5.23122 20 4 18.7687 4 17.25V10.75C4.00008 9.23125 5.23127 7.99996 6.75 7.99996H7.5625L14.8975 4.08785ZM6.75 9.49996C6.05969 9.49996 5.50008 10.0597 5.5 10.75V17.25C5.5 17.9403 6.05964 18.5 6.75 18.5H17.25C17.9404 18.5 18.5 17.9403 18.5 17.25V10.75C18.4999 10.0597 17.9403 9.49996 17.25 9.49996H6.75ZM10 11C11.6568 11 12.9999 12.3432 13 14C13 15.6568 11.6569 17 10 17C8.34315 17 7 15.6568 7 14C7.00008 12.3432 8.34319 11 10 11ZM16.25 14.5C16.6642 14.5 16.9999 14.8358 17 15.25C17 15.6642 16.6642 16 16.25 16H14.75C14.3358 16 14 15.6642 14 15.25C14.0001 14.8358 14.3358 14.5 14.75 14.5H16.25ZM10 12.5C9.17162 12.5 8.50008 13.1716 8.5 14C8.5 14.8284 9.17157 15.5 10 15.5C10.8284 15.5 11.5 14.8284 11.5 14C11.4999 13.1716 10.8284 12.5 10 12.5ZM16.25 12C16.6642 12 16.9999 12.3358 17 12.75C17 13.1642 16.6642 13.5 16.25 13.5H14.75C14.3358 13.5 14 13.1642 14 12.75C14.0001 12.3358 14.3358 12 14.75 12H16.25Z" fill="black"/>
</svg>
