<svg width="24" height="24" viewBox="0 0 24 24" fill="none" xmlns="http://www.w3.org/2000/svg">
<path d="M7.5127 17.0381C7.90565 16.9071 8.33093 17.1197 8.46191 17.5127L8.96191 19.0127C9.0929 19.4057 8.88026 19.8309 8.4873 19.9619C8.09435 20.0929 7.66907 19.8803 7.53809 19.4873L7.03809 17.9873C6.9071 17.5943 7.11974 17.1691 7.5127 17.0381ZM11.5127 17.0381C11.9057 16.9071 12.3309 17.1197 12.4619 17.5127L12.9619 19.0127C13.0929 19.4057 12.8803 19.8309 12.4873 19.9619C12.0943 20.0929 11.6691 19.8803 11.5381 19.4873L11.0381 17.9873C10.9071 17.5943 11.1197 17.1691 11.5127 17.0381ZM15.5127 17.0381C15.9057 16.9071 16.3309 17.1197 16.4619 17.5127L16.9619 19.0127C17.0929 19.4057 16.8803 19.8309 16.4873 19.9619C16.0943 20.0929 15.6691 19.8803 15.5381 19.4873L15.0381 17.9873C14.9071 17.5943 15.1197 17.1691 15.5127 17.0381ZM12 4C14.4564 4 16.4974 5.77124 16.9189 8.10645C18.6854 8.52187 20 10.107 20 12C20 14.2091 18.2091 16 16 16H8C5.79086 16 4 14.2091 4 12C4 10.1073 5.31411 8.52221 7.08008 8.10645C7.50158 5.77115 9.54355 4 12 4ZM12 5.5C10.1339 5.5 8.60876 6.96083 8.50586 8.80078C8.48484 9.17676 8.18798 9.47883 7.8125 9.50684C6.51995 9.60249 5.5 10.6826 5.5 12C5.5 13.3807 6.61929 14.5 8 14.5H16C17.3807 14.5 18.5 13.3807 18.5 12C18.5 10.6826 17.4801 9.60249 16.1875 9.50684C15.812 9.47883 15.5152 9.17676 15.4941 8.80078C15.3912 6.96083 13.8661 5.5 12 5.5Z" fill="black"/>
</svg>
