<svg width="24" height="24" viewBox="0 0 24 24" fill="none" xmlns="http://www.w3.org/2000/svg">
<path fill-rule="evenodd" clip-rule="evenodd" d="M13.4014 4.16809C13.6959 3.92778 14.1307 3.94524 14.4053 4.21984L19.7803 9.59484C20.0732 9.88774 20.0732 10.3625 19.7803 10.6554L17.6553 12.7804C17.3624 13.0733 16.8876 13.0733 16.5947 12.7804L14.4375 10.6232L11.7705 13.2892C11.9162 13.5897 12 13.926 12 14.2823C12 14.8874 11.7598 15.4677 11.332 15.8956L7.89551 19.3321C7.46761 19.7599 6.88726 20.0001 6.28223 20.0001C5.02188 20.0001 4 18.9782 4 17.7179C4.00004 17.1129 4.24024 16.5325 4.66797 16.1046L8.10449 12.6681C8.53239 12.2404 9.11274 12.0002 9.71777 12.0001C10.0737 12.0001 10.4097 12.0833 10.71 12.2286L13.377 9.56262L11.2197 7.40539C10.9268 7.1125 10.9268 6.63774 11.2197 6.34484L13.3447 4.21984L13.4014 4.16809ZM9.71777 13.5001C9.51042 13.5002 9.31167 13.583 9.16504 13.7296L5.72949 17.1652C5.58287 17.3118 5.50004 17.5105 5.5 17.7179C5.5 18.1498 5.8503 18.5001 6.28223 18.5001C6.48958 18.5001 6.68833 18.4173 6.83496 18.2706L10.2705 14.8351C10.4171 14.6885 10.5 14.4897 10.5 14.2823C10.5 13.8504 10.1497 13.5001 9.71777 13.5001ZM12.8105 6.87512L17.125 11.1896L18.1895 10.1251L13.875 5.81066L12.8105 6.87512Z" fill="black"/>
</svg>
