<svg width="24" height="24" viewBox="0 0 24 24" fill="none" xmlns="http://www.w3.org/2000/svg">
<path d="M13.75 4C13.9749 4 14.1876 4.10129 14.3301 4.27539L18.8301 9.77539C18.9397 9.90939 19 10.0769 19 10.25V19.25C19 19.5365 18.8364 19.798 18.5791 19.9238C18.3219 20.0495 18.0151 20.0176 17.7891 19.8418L16.1914 18.5986C16.097 18.5252 15.9632 18.5288 15.873 18.6074L14.4941 19.8145C14.2114 20.0619 13.7886 20.0619 13.5059 19.8145L12.165 18.6406C12.0708 18.5582 11.9292 18.5582 11.835 18.6406L10.4941 19.8145C10.2114 20.0619 9.78863 20.0619 9.50586 19.8145L8.12695 18.6074C8.03682 18.5288 7.90303 18.5252 7.80859 18.5986L6.21094 19.8418C5.98494 20.0176 5.67815 20.0495 5.4209 19.9238C5.16358 19.798 5 19.5365 5 19.25V4.75C5 4.33579 5.33579 4 5.75 4H13.75ZM6.5 17.7158L6.8877 17.415C7.54951 16.9003 8.48423 16.9264 9.11523 17.4785L10 18.2529L10.8477 17.5117C11.5074 16.9344 12.4926 16.9344 13.1523 17.5117L13.999 18.2529L14.8848 17.4785C15.5158 16.9264 16.4505 16.9003 17.1123 17.415L17.5 17.7158V11H15.75C14.2312 11 13 9.76878 13 8.25V5.5H6.5V17.7158ZM14.5 8.25C14.5 8.94036 15.0596 9.5 15.75 9.5H16.668L14.5 6.84961V8.25Z" fill="black"/>
</svg>
