<svg width="24" height="24" viewBox="0 0 24 24" fill="none" xmlns="http://www.w3.org/2000/svg">
<path d="M17.25 8C18.7688 8 20 9.23122 20 10.75V17.25C20 18.7688 18.7688 20 17.25 20H6.75C5.23122 20 4 18.7688 4 17.25V10.75C4 9.23122 5.23122 8 6.75 8H17.25ZM6.75 9.5C6.05964 9.5 5.5 10.0596 5.5 10.75V17.25C5.5 17.9404 6.05964 18.5 6.75 18.5H17.25C17.9404 18.5 18.5 17.9404 18.5 17.25V10.75C18.5 10.0596 17.9404 9.5 17.25 9.5H6.75ZM12 11C13.6569 11 15 12.3431 15 14C15 15.6569 13.6569 17 12 17C10.3431 17 9 15.6569 9 14C9 12.3431 10.3431 11 12 11ZM12 12.5C11.1716 12.5 10.5 13.1716 10.5 14C10.5 14.8284 11.1716 15.5 12 15.5C12.8284 15.5 13.5 14.8284 13.5 14C13.5 13.1716 12.8284 12.5 12 12.5ZM7.75 4C8.16421 4 8.5 4.33579 8.5 4.75V6.25C8.5 6.66421 8.16421 7 7.75 7C7.33579 7 7 6.66421 7 6.25V4.75C7 4.33579 7.33579 4 7.75 4ZM12 4C12.4142 4 12.75 4.33579 12.75 4.75V6.25C12.75 6.66421 12.4142 7 12 7C11.5858 7 11.25 6.66421 11.25 6.25V4.75C11.25 4.33579 11.5858 4 12 4ZM16.25 4C16.6642 4 17 4.33579 17 4.75V6.25C17 6.66421 16.6642 7 16.25 7C15.8358 7 15.5 6.66421 15.5 6.25V4.75C15.5 4.33579 15.8358 4 16.25 4Z" fill="black"/>
</svg>
