<svg width="24" height="24" viewBox="0 0 24 24" fill="none" xmlns="http://www.w3.org/2000/svg">
<path fill-rule="evenodd" clip-rule="evenodd" d="M18 3.99955C19.1044 3.99955 19.9998 4.89516 20 5.99955C20 7.10412 19.1046 7.99955 18 7.99955C16.9406 7.99955 16.076 7.17615 16.0068 6.13432L14.293 5.62065L13.2324 7.07768C16.9469 7.55016 19.9998 10.1242 20 13.4996C20 17.2422 16.2469 19.9996 12 19.9996C7.75315 19.9996 4 17.2422 4 13.4996C4.00006 12.6324 4.20299 11.8189 4.56543 11.0796C4.21382 10.6491 4 10.0992 4 9.49955C4.00021 8.11902 5.11942 6.99955 6.5 6.99955C7.19672 6.99955 7.82577 7.28775 8.27832 7.74662C9.24021 7.33688 10.3085 7.08492 11.4219 7.01909L13.3936 4.30815L13.4697 4.21928C13.6625 4.02655 13.9488 3.95074 14.2158 4.0308L16.4746 4.70756C16.8415 4.27499 17.3884 3.99955 18 3.99955ZM12 8.49955C8.23891 8.49955 5.50027 10.8911 5.5 13.4996C5.5 16.1082 8.23872 18.4996 12 18.4996C15.7613 18.4996 18.5 16.1082 18.5 13.4996C18.4997 10.8911 15.7611 8.49955 12 8.49955ZM14.6445 14.3072C14.8879 13.975 15.3551 13.8998 15.6895 14.1412C16.0251 14.3836 16.1007 14.8532 15.8584 15.189L15.25 14.7496C15.804 15.1497 15.8532 15.1856 15.8574 15.189V15.19L15.8535 15.1939C15.8519 15.1961 15.8498 15.1989 15.8477 15.2017C15.8433 15.2076 15.8377 15.2156 15.8311 15.2242C15.8177 15.2414 15.7997 15.2645 15.7773 15.2915C15.7324 15.346 15.6688 15.4194 15.5869 15.5044C15.4232 15.6744 15.1824 15.8955 14.8643 16.1158C14.2247 16.5585 13.2662 16.9996 12 16.9996C10.7338 16.9996 9.77531 16.5585 9.13574 16.1158C8.81763 15.8955 8.57679 15.6744 8.41309 15.5044C8.3312 15.4194 8.26757 15.346 8.22266 15.2915C8.20034 15.2645 8.18226 15.2414 8.16895 15.2242C8.16234 15.2156 8.15673 15.2076 8.15234 15.2017C8.15022 15.1989 8.14808 15.1961 8.14648 15.1939L8.14258 15.19V15.189C8.14676 15.1856 8.19601 15.1497 8.75 14.7496L8.1416 15.189C7.89931 14.8532 7.97487 14.3836 8.31055 14.1412C8.64624 13.8989 9.1149 13.9756 9.35742 14.3111C9.36131 14.3161 9.36904 14.3245 9.37891 14.3365C9.40159 14.364 9.44006 14.4083 9.49316 14.4634C9.60021 14.5746 9.76608 14.7288 9.98926 14.8833C10.433 15.1905 11.0997 15.4996 12 15.4996C12.9003 15.4996 13.567 15.1905 14.0107 14.8833C14.2339 14.7288 14.3998 14.5746 14.5068 14.4634C14.5599 14.4083 14.5984 14.364 14.6211 14.3365C14.6306 14.3249 14.6377 14.3162 14.6416 14.3111L14.6436 14.3091L14.6445 14.3072ZM9.35742 14.3091V14.3101L9.35645 14.3091L9.35547 14.3072L9.35742 14.3091ZM10 10.9996C10.5522 10.9996 10.9998 11.4474 11 11.9996C11 12.5518 10.5523 12.9996 10 12.9996C9.44772 12.9996 9 12.5518 9 11.9996C9.00021 11.4474 9.44784 10.9996 10 10.9996ZM14 10.9996C14.5522 10.9996 14.9998 11.4474 15 11.9996C15 12.5518 14.5523 12.9996 14 12.9996C13.4477 12.9996 13 12.5518 13 11.9996C13.0002 11.4474 13.4478 10.9996 14 10.9996ZM6.5 8.49955C5.94784 8.49955 5.50021 8.94745 5.5 9.49955C5.5 9.56116 5.50599 9.62173 5.5166 9.68022C5.89325 9.26066 6.32958 8.88176 6.81348 8.54936C6.71493 8.51689 6.60946 8.49955 6.5 8.49955ZM18 5.49955C17.724 5.49955 17.5002 5.72359 17.5 5.99955C17.5 6.2757 17.7239 6.49955 18 6.49955C18.2761 6.49955 18.5 6.2757 18.5 5.99955C18.4998 5.72359 18.276 5.49955 18 5.49955Z" fill="black"/>
</svg>
