<svg width="24" height="24" viewBox="0 0 24 24" fill="none" xmlns="http://www.w3.org/2000/svg">
<path fill-rule="evenodd" clip-rule="evenodd" d="M14.2051 4.23563C14.4895 3.9345 14.9635 3.92095 15.2646 4.20536L19.7646 8.45536C19.7672 8.45773 19.769 8.46077 19.7715 8.46317C19.7786 8.47009 19.7852 8.47747 19.792 8.48466C19.818 8.51199 19.8428 8.54002 19.8643 8.5706C19.8702 8.57911 19.8752 8.5882 19.8809 8.59696C19.9015 8.62924 19.9201 8.66262 19.9355 8.69755C19.9386 8.70435 19.9415 8.71115 19.9443 8.71806C19.9805 8.80671 20 8.90252 20 9.00028C20 9.09437 19.9808 9.18596 19.9473 9.27177C19.9424 9.28433 19.9372 9.29665 19.9316 9.30888C19.9171 9.34078 19.8997 9.37102 19.8809 9.40067C19.8753 9.40947 19.8702 9.4185 19.8643 9.42704C19.8425 9.4583 19.8186 9.48802 19.792 9.51591C19.7853 9.52293 19.7784 9.52966 19.7715 9.53642C19.7689 9.53892 19.7673 9.54273 19.7646 9.54521L15.2646 13.7952C14.9636 14.0794 14.4895 14.0658 14.2051 13.7649C13.9207 13.4638 13.9344 12.9898 14.2354 12.7054L17.3643 9.75028H8.75C6.95507 9.75028 5.5 11.2054 5.5 13.0003V19.2503C5.49982 19.6643 5.1641 20.0003 4.75 20.0003C4.3359 20.0003 4.00018 19.6643 4 19.2503V13.0003C4 10.3769 6.12665 8.25028 8.75 8.25028H17.3643L14.2354 5.2952C13.9343 5.01085 13.9208 4.53678 14.2051 4.23563Z" fill="black"/>
</svg>
