<svg width="24" height="24" viewBox="0 0 24 24" fill="none" xmlns="http://www.w3.org/2000/svg">
<path fill-rule="evenodd" clip-rule="evenodd" d="M4.75 12.0002C5.16421 12.0002 5.5 12.336 5.5 12.7502V14.0002C5.5 15.2428 6.50736 16.2502 7.75 16.2502H17.2949L16.248 15.3078C15.9402 15.0307 15.9153 14.5561 16.1924 14.2482C16.4695 13.9404 16.9441 13.9155 17.252 14.1925L19.752 16.4425C19.7598 16.4496 19.7669 16.4576 19.7744 16.465C19.7777 16.4682 19.7809 16.4715 19.7842 16.4748C19.8153 16.5064 19.8434 16.5402 19.8682 16.5763C19.8712 16.5808 19.874 16.5855 19.877 16.59C19.9006 16.6261 19.9215 16.6638 19.9385 16.7033C19.9407 16.7084 19.9422 16.7138 19.9443 16.7189C19.9801 16.8074 20 16.9026 20 17.0002C20 17.0974 19.9799 17.1921 19.9443 17.2804C19.9422 17.2856 19.9407 17.291 19.9385 17.2961C19.9215 17.3356 19.9005 17.3732 19.877 17.4093C19.874 17.4139 19.8712 17.4185 19.8682 17.423C19.8441 17.4583 19.8172 17.4917 19.7871 17.5226C19.7831 17.5268 19.7785 17.5303 19.7744 17.5343C19.7667 17.5419 19.76 17.5505 19.752 17.5578L17.252 19.8078C16.9441 20.0849 16.4695 20.0599 16.1924 19.7521C15.9153 19.4443 15.9402 18.9696 16.248 18.6925L17.2949 17.7502H7.75C5.67893 17.7502 4 16.0712 4 14.0002V12.7502C4 12.336 4.33579 12.0002 4.75 12.0002ZM6.74805 4.19255C7.05591 3.91547 7.53052 3.94038 7.80762 4.24821C8.08469 4.55607 8.05978 5.03068 7.75195 5.30778L6.70508 6.25016H16.25C18.3211 6.25016 20 7.9291 20 10.0002V11.2502C20 11.6644 19.6642 12.0002 19.25 12.0002C18.8358 12.0002 18.5 11.6644 18.5 11.2502V10.0002C18.5 8.75753 17.4926 7.75016 16.25 7.75016H6.70508L7.75195 8.69255C8.05978 8.96965 8.08469 9.44425 7.80762 9.75212C7.53052 10.0599 7.05591 10.0849 6.74805 9.80778L4.24805 7.55778C4.23981 7.55037 4.23247 7.54208 4.22461 7.53434C4.22132 7.53111 4.21807 7.52787 4.21484 7.52458C4.18383 7.49292 4.15554 7.4592 4.13086 7.42301C4.1278 7.41854 4.12503 7.41388 4.12207 7.40934C4.09855 7.3732 4.07748 7.33559 4.06055 7.29606C4.05835 7.29096 4.05677 7.2856 4.05469 7.28044C4.0192 7.19223 4 7.0973 4 7.00016C4 6.90272 4.01898 6.80735 4.05469 6.71891C4.05694 6.71336 4.05915 6.7078 4.06152 6.70231C4.07839 6.66325 4.09876 6.62574 4.12207 6.59001C4.12504 6.58547 4.1278 6.5808 4.13086 6.57633C4.16414 6.52765 4.20343 6.48271 4.24805 6.44255L6.74805 4.19255Z" fill="black"/>
</svg>
