<svg width="24" height="24" viewBox="0 0 24 24" fill="none" xmlns="http://www.w3.org/2000/svg">
<path fill-rule="evenodd" clip-rule="evenodd" d="M4.75 10.0002C5.16421 10.0002 5.5 10.336 5.5 10.7502V11.0002C5.5 13.8997 7.85051 16.2502 10.75 16.2502H13.2949L12.248 15.3078C11.9402 15.0307 11.9153 14.5561 12.1924 14.2482C12.4695 13.9404 12.9441 13.9155 13.252 14.1925L15.752 16.4425C15.91 16.5848 16 16.7876 16 17.0002C16 17.2128 15.91 17.4156 15.752 17.5578L13.252 19.8078C12.9441 20.0849 12.4695 20.0599 12.1924 19.7521C11.9153 19.4443 11.9402 18.9696 12.248 18.6925L13.2949 17.7502H10.75C7.02208 17.7502 4 14.7281 4 11.0002V10.7502C4 10.336 4.33579 10.0002 4.75 10.0002ZM10.748 4.19255C11.0559 3.91547 11.5305 3.94038 11.8076 4.24821C12.0847 4.55607 12.0598 5.03068 11.752 5.30778L10.7051 6.25016H13.25C16.9779 6.25016 20 9.27224 20 13.0002V13.2502C20 13.6644 19.6642 14.0002 19.25 14.0002C18.8358 14.0002 18.5 13.6644 18.5 13.2502V13.0002C18.5 10.1007 16.1495 7.75016 13.25 7.75016H10.7051L11.752 8.69255C12.0598 8.96965 12.0847 9.44425 11.8076 9.75212C11.5305 10.0599 11.0559 10.0849 10.748 9.80778L8.24805 7.55778C8.09005 7.41555 8 7.21275 8 7.00016C8 6.78757 8.09005 6.58477 8.24805 6.44255L10.748 4.19255Z" fill="black"/>
</svg>
