<svg width="24" height="24" viewBox="0 0 24 24" fill="none" xmlns="http://www.w3.org/2000/svg">
<path fill-rule="evenodd" clip-rule="evenodd" d="M19.25 10.0002C19.6642 10.0002 20 10.336 20 10.7502V11.0002C20 14.7281 16.9779 17.7502 13.25 17.7502H10.7051L11.752 18.6925C12.0598 18.9696 12.0847 19.4443 11.8076 19.7521C11.5305 20.0599 11.0559 20.0849 10.748 19.8078L8.24805 17.5578C8.09005 17.4156 8 17.2128 8 17.0002C8 16.7876 8.09005 16.5848 8.24805 16.4425L10.748 14.1925C11.0559 13.9155 11.5305 13.9404 11.8076 14.2482C12.0847 14.5561 12.0598 15.0307 11.752 15.3078L10.7051 16.2502H13.25C16.1495 16.2502 18.5 13.8997 18.5 11.0002V10.7502C18.5 10.336 18.8358 10.0002 19.25 10.0002ZM12.1924 4.24821C12.4695 3.94038 12.9441 3.91547 13.252 4.19255L15.752 6.44255C15.91 6.58477 16 6.78757 16 7.00016C16 7.21275 15.91 7.41555 15.752 7.55778L13.252 9.80778C12.9441 10.0849 12.4695 10.0599 12.1924 9.75212C11.9153 9.44425 11.9402 8.96965 12.248 8.69255L13.2949 7.75016H10.75C7.85051 7.75016 5.5 10.1007 5.5 13.0002V13.2502C5.5 13.6644 5.16421 14.0002 4.75 14.0002C4.33579 14.0002 4 13.6644 4 13.2502V13.0002C4 9.27224 7.02208 6.25016 10.75 6.25016H13.2949L12.248 5.30778C11.9402 5.03068 11.9153 4.55607 12.1924 4.24821Z" fill="black"/>
</svg>
