<svg width="24" height="24" viewBox="0 0 24 24" fill="none" xmlns="http://www.w3.org/2000/svg">
<path fill-rule="evenodd" clip-rule="evenodd" d="M19.25 11.0002C19.6642 11.0002 20 11.336 20 11.7502V12.0002C20 15.1758 17.4256 17.7502 14.25 17.7502H6.70508L7.75195 18.6925C8.05978 18.9696 8.08469 19.4443 7.80762 19.7521C7.53052 20.0599 7.05591 20.0849 6.74805 19.8078L4.24805 17.5578C4.09005 17.4156 4 17.2128 4 17.0002C4 16.7876 4.09005 16.5848 4.24805 16.4425L6.74805 14.1925C7.05591 13.9155 7.53052 13.9404 7.80762 14.2482C8.08469 14.5561 8.05978 15.0307 7.75195 15.3078L6.70508 16.2502H14.25C16.5972 16.2502 18.5 14.3474 18.5 12.0002V11.7502C18.5 11.336 18.8358 11.0002 19.25 11.0002ZM16.1924 4.24821C16.4695 3.94038 16.9441 3.91547 17.252 4.19255L19.752 6.44255C19.91 6.58477 20 6.78757 20 7.00016C20 7.21275 19.91 7.41555 19.752 7.55778L17.252 9.80778C16.9441 10.0849 16.4695 10.0599 16.1924 9.75212C15.9153 9.44425 15.9402 8.96965 16.248 8.69255L17.2949 7.75016H9.75C7.40279 7.75016 5.5 9.65296 5.5 12.0002V12.2502C5.5 12.6644 5.16421 13.0002 4.75 13.0002C4.33579 13.0002 4 12.6644 4 12.2502V12.0002C4 8.82453 6.57437 6.25016 9.75 6.25016H17.2949L16.248 5.30778C15.9402 5.03068 15.9153 4.55607 16.1924 4.24821Z" fill="black"/>
</svg>
