<svg width="24" height="24" viewBox="0 0 24 24" fill="none" xmlns="http://www.w3.org/2000/svg">
<path fill-rule="evenodd" clip-rule="evenodd" d="M10.7305 4.20884C10.9472 4.00087 11.2675 3.94181 11.5439 4.05943C11.8205 4.17717 11.9999 4.44931 12 4.74986V8.51646C13.7325 8.59642 15.123 8.95852 16.2305 9.55455C17.5028 10.2394 18.3566 11.2093 18.9189 12.3163C20.0153 14.4748 20 17.1693 20 19.2499C20 19.6143 19.7379 19.9264 19.3789 19.9891C19.0199 20.0517 18.6674 19.8467 18.5439 19.5038C17.495 16.5905 15.6489 15.1011 14.0762 14.329C13.2838 13.94 12.5557 13.731 12.0293 13.62C12.0196 13.6179 12.0095 13.6161 12 13.6141V17.2499C12 17.5505 11.8205 17.8225 11.5439 17.9403C11.2675 18.058 10.9472 17.999 10.7305 17.7909L4.23047 11.5409C4.08351 11.3995 4 11.2038 4 10.9999C4.00009 10.796 4.08349 10.6002 4.23047 10.4588L10.7305 4.20884ZM5.83203 10.9999L10.5 15.4881V12.7499C10.5001 12.5454 10.5838 12.3493 10.7314 12.2079C10.8791 12.0667 11.0781 11.9921 11.2822 12.0008L11.25 12.7499C11.2803 12.0532 11.2827 12.0042 11.2832 12.0008H11.293C11.2978 12.0011 11.3041 12.0014 11.3115 12.0018C11.3268 12.0027 11.3481 12.0047 11.374 12.0067C11.4258 12.0108 11.4982 12.0175 11.5889 12.0282C11.7705 12.0496 12.0266 12.0875 12.3379 12.1532C12.9598 12.2843 13.8103 12.5287 14.7363 12.9833C15.9442 13.5762 17.271 14.5261 18.3838 16.0272C18.2688 14.9389 18.0399 13.8993 17.5811 12.996C17.1434 12.1344 16.4969 11.4009 15.5195 10.8749C14.5325 10.3437 13.1631 9.99986 11.25 9.99986C10.8358 9.99986 10.5 9.66407 10.5 9.24986V6.51158L5.83203 10.9999Z" fill="black"/>
</svg>
