<svg width="24" height="24" viewBox="0 0 24 24" fill="none" xmlns="http://www.w3.org/2000/svg">
<path d="M17.25 4C18.7688 4 20 5.23122 20 6.75V14.25C20 15.7688 18.7688 17 17.25 17H14.8057L15.8975 18.8721L16.2754 19.5195L14.9805 20.2754L14.6025 19.6279L13.0693 17H10.9307L9.39746 19.6279L9.01953 20.2754L7.72461 19.5195L8.10254 18.8721L9.19434 17H6.75C5.23122 17 4 15.7688 4 14.25V6.75C4 5.23122 5.23122 4 6.75 4H17.25ZM6.75 5.5C6.05964 5.5 5.5 6.05964 5.5 6.75V14.25C5.5 14.9404 6.05964 15.5 6.75 15.5H17.25C17.9404 15.5 18.5 14.9404 18.5 14.25V6.75C18.5 6.05964 17.9404 5.5 17.25 5.5H6.75ZM9.5 13H8V8H9.5V13ZM12.75 13H11.25V9H12.75V13ZM16 13H14.5V10H16V13Z" fill="black"/>
</svg>
