<svg width="24" height="24" viewBox="0 0 24 24" fill="none" xmlns="http://www.w3.org/2000/svg">
<path fill-rule="evenodd" clip-rule="evenodd" d="M12.8057 5.14541C13.0335 4.97795 13.3366 4.95331 13.5889 5.08096C13.841 5.20869 14 5.46723 14 5.7499V18.2499C14 18.5326 13.841 18.7911 13.5889 18.9188C13.3366 19.0465 13.0335 19.0219 12.8057 18.8544L4.30566 12.6044C4.11346 12.4631 4 12.2385 4 11.9999C4 11.7613 4.11346 11.5367 4.30566 11.3954L12.8057 5.14541ZM18.8057 5.14541C19.0335 4.97795 19.3366 4.95331 19.5889 5.08096C19.841 5.20869 20 5.46723 20 5.7499V18.2499C20 18.5326 19.841 18.7911 19.5889 18.9188C19.3366 19.0465 19.0335 19.0219 18.8057 18.8544L15.5557 16.4647C15.222 16.2194 15.1502 15.7496 15.3955 15.4159C15.6409 15.0822 16.1106 15.0104 16.4443 15.2558L18.5 16.7665V7.23233L16.4443 8.74404C16.1106 8.98936 15.6409 8.91758 15.3955 8.58389C15.1502 8.25019 15.222 7.7804 15.5557 7.53506L18.8057 5.14541ZM6.01562 11.9999L12.5 16.7665V7.23233L6.01562 11.9999Z" fill="black"/>
</svg>
