<svg width="24" height="24" viewBox="0 0 24 24" fill="none" xmlns="http://www.w3.org/2000/svg">
<path d="M12 4C12.4142 4 12.75 4.33579 12.75 4.75V7H15.25C17.8734 7 20 9.12665 20 11.75V15.25C20 17.8734 17.8734 20 15.25 20H8.75C6.12665 20 4 17.8734 4 15.25V11.75C4 9.12665 6.12665 7 8.75 7H11.25V4.75C11.25 4.33579 11.5858 4 12 4ZM8.75 8.5C6.95507 8.5 5.5 9.95507 5.5 11.75V15.25C5.5 17.0449 6.95507 18.5 8.75 18.5H15.25C17.0449 18.5 18.5 17.0449 18.5 15.25V11.75C18.5 9.95507 17.0449 8.5 15.25 8.5H8.75ZM13.25 15.5C13.6642 15.5 14 15.8358 14 16.25C14 16.6642 13.6642 17 13.25 17H10.75C10.3358 17 10 16.6642 10 16.25C10 15.8358 10.3358 15.5 10.75 15.5H13.25ZM9 10C10.1046 10 11 10.8954 11 12C11 13.1046 10.1046 14 9 14C7.89543 14 7 13.1046 7 12C7 10.8954 7.89543 10 9 10ZM15 10C16.1046 10 17 10.8954 17 12C17 13.1046 16.1046 14 15 14C13.8954 14 13 13.1046 13 12C13 10.8954 13.8954 10 15 10ZM9 11.5C8.72386 11.5 8.5 11.7239 8.5 12C8.5 12.2761 8.72386 12.5 9 12.5C9.27614 12.5 9.5 12.2761 9.5 12C9.5 11.7239 9.27614 11.5 9 11.5ZM15 11.5C14.7239 11.5 14.5 11.7239 14.5 12C14.5 12.2761 14.7239 12.5 15 12.5C15.2761 12.5 15.5 12.2761 15.5 12C15.5 11.7239 15.2761 11.5 15 11.5Z" fill="black"/>
</svg>
