<svg width="24" height="24" viewBox="0 0 24 24" fill="none" xmlns="http://www.w3.org/2000/svg">
<path fill-rule="evenodd" clip-rule="evenodd" d="M6.71965 16.2197C7.01254 15.9269 7.48731 15.9269 7.7802 16.2197C8.07309 16.5126 8.07307 16.9874 7.7802 17.2803L5.2802 19.7803C4.98731 20.0732 4.51255 20.0732 4.21965 19.7803C3.92679 19.4874 3.92677 19.0126 4.21965 18.7197L6.71965 16.2197ZM8.71965 18.2197C9.01254 17.9269 9.48731 17.9269 9.7802 18.2197C10.0731 18.5126 10.0731 18.9874 9.7802 19.2803L9.2802 19.7803C8.98731 20.0732 8.51255 20.0732 8.21965 19.7803C7.92679 19.4874 7.92677 19.0126 8.21965 18.7197L8.71965 18.2197ZM19.2499 4C19.6641 4.00007 19.9999 4.33583 19.9999 4.75V5.13574C19.9999 7.32623 19.1781 9.43767 17.6972 11.0518L14.9872 14.0049C14.9869 14.0606 14.9829 14.1169 14.9697 14.1729L13.7294 19.4229C13.6668 19.6872 13.4664 19.8974 13.205 19.9717C12.9434 20.046 12.662 19.9726 12.4697 19.7803L10.498 17.8086C10.4867 17.7986 10.4745 17.7891 10.4638 17.7783L6.22161 13.5352C6.20095 13.5145 6.18194 13.4924 6.16399 13.4697L4.18938 11.248C4.01023 11.0464 3.95319 10.7642 4.03997 10.5088C4.12689 10.2534 4.34431 10.0643 4.6093 10.0137L9.8593 9.01367C9.90794 9.00441 9.95664 9.00164 10.0048 9.00195L12.9482 6.30273C14.5621 4.82204 16.673 4.00018 18.8632 4H19.2499ZM12.0595 17.249L12.579 17.7686L12.9003 16.4043L12.0595 17.249ZM18.4892 5.50977C16.8095 5.59665 15.2079 6.2659 13.9628 7.4082L7.83489 13.0273L10.9716 16.1641L16.5917 10.0371C17.7343 8.79178 18.4025 7.18983 18.4892 5.50977ZM4.71965 14.2197C5.01254 13.9269 5.48731 13.9269 5.7802 14.2197C6.07309 14.5126 6.07307 14.9874 5.7802 15.2803L5.2802 15.7803C4.98731 16.0732 4.51255 16.0732 4.21965 15.7803C3.92679 15.4874 3.92677 15.0126 4.21965 14.7197L4.71965 14.2197ZM6.18743 11.2383L6.78118 11.9072L7.747 10.9414L6.18743 11.2383Z" fill="black"/>
</svg>
