<svg width="24" height="24" viewBox="0 0 24 24" fill="none" xmlns="http://www.w3.org/2000/svg">
<path d="M12 6C13.5399 6 14.6717 6.46188 15.5225 7.19922C16.3497 7.91624 16.8569 8.8487 17.2432 9.68555C17.4296 10.0895 17.6174 10.5402 17.7725 10.8877C17.939 11.261 18.0931 11.5747 18.2568 11.8301C18.5712 12.3203 18.8523 12.5 19.25 12.5C19.6642 12.5 20 12.8358 20 13.25C20 13.2552 19.9991 13.2604 19.999 13.2656C19.9991 13.2708 20 13.276 20 13.2812V19.25C20 19.6642 19.6642 20 19.25 20C18.8358 20 18.5 19.6642 18.5 19.25V13.8896C18.1016 13.7657 17.7737 13.5461 17.5 13.2754V19.25C17.5 19.6642 17.1642 20 16.75 20C16.3358 20 16 19.6642 16 19.25V10.5801C15.9615 10.4933 15.9235 10.4047 15.8818 10.3145C15.5181 9.52643 15.1189 8.83367 14.54 8.33203C14.5271 8.32084 14.5132 8.31085 14.5 8.2998V19.25C14.5 19.6642 14.1642 20 13.75 20C13.3358 20 13 19.6642 13 19.25V7.59277C12.7037 7.53273 12.3724 7.5 12 7.5C11.8244 7.5 11.6579 7.50738 11.5 7.52148V19.25C11.5 19.6642 11.1642 20 10.75 20C10.3358 20 10 19.6642 10 19.25V7.95703C9.79892 8.0686 9.61967 8.19364 9.45996 8.33203C9.07404 8.6665 8.76897 9.08652 8.5 9.5625V19.25C8.5 19.6642 8.16421 20 7.75 20C7.33579 20 7 19.6642 7 19.25V12.6484C6.65026 13.191 6.17711 13.679 5.5 13.8896V19.25C5.5 19.6642 5.16421 20 4.75 20C4.33579 20 4 19.6642 4 19.25V13.5C4 13.4574 4.00392 13.4157 4.01074 13.375C4.00392 13.3343 4 13.2926 4 13.25C4 12.8358 4.33579 12.5 4.75 12.5C5.14773 12.5 5.42879 12.3203 5.74316 11.8301C5.90687 11.5747 6.061 11.261 6.22754 10.8877C6.38256 10.5402 6.57042 10.0895 6.75684 9.68555C7.14309 8.8487 7.65029 7.91624 8.47754 7.19922C9.32831 6.46188 10.4601 6 12 6Z" fill="black"/>
</svg>
