<svg width="24" height="24" viewBox="0 0 24 24" fill="none" xmlns="http://www.w3.org/2000/svg">
<path fill-rule="evenodd" clip-rule="evenodd" d="M6.34277 6.34235C9.46682 3.21844 14.5321 3.21869 17.6562 6.34235C20.7804 9.46655 20.7804 14.5326 17.6562 17.6568C14.5321 20.7805 9.46681 20.7807 6.34277 17.6568C6.03002 17.344 5.75033 17.0101 5.5 16.6617V19.2496C5.49974 19.6636 5.16405 19.9996 4.75 19.9996C4.33595 19.9996 4.00026 19.6636 4 19.2496V15.7496C4 14.7831 4.7835 13.9996 5.75 13.9996H9.25C9.66421 13.9996 10 14.3354 10 14.7496C9.99974 15.1636 9.66405 15.4996 9.25 15.4996H6.52148C6.77005 15.8878 7.06335 16.2563 7.40332 16.5963C9.94158 19.1344 14.0573 19.1341 16.5957 16.5963C19.1341 14.0578 19.1341 9.94131 16.5957 7.4029C14.0573 4.86502 9.94158 4.86478 7.40332 7.4029C7.11042 7.69567 6.63563 7.69575 6.34277 7.4029C6.05035 7.11001 6.05014 6.63511 6.34277 6.34235Z" fill="black"/>
</svg>
