<svg width="24" height="24" viewBox="0 0 24 24" fill="none" xmlns="http://www.w3.org/2000/svg">
<path fill-rule="evenodd" clip-rule="evenodd" d="M6.34259 6.34259C9.46666 3.21852 14.5328 3.21877 17.657 6.34259C17.9498 6.63534 17.9495 7.11021 17.657 7.40314C17.3642 7.69603 16.8894 7.69603 16.5965 7.40314C14.0581 4.8651 9.94142 4.86486 7.40314 7.40314C4.86486 9.94142 4.8651 14.0581 7.40314 16.5965C9.94155 19.1349 14.0581 19.1349 16.5965 16.5965C16.9367 16.2563 17.2309 15.8883 17.4793 15.4998H14.7498C14.3358 15.4996 13.9998 15.1639 13.9998 14.7498C14 14.3359 14.3359 14 14.7498 13.9998H18.2498C19.2162 13.9998 19.9996 14.7835 19.9998 15.7498V19.2498C19.9998 19.664 19.664 19.9998 19.2498 19.9998C18.8358 19.9996 18.4998 19.6639 18.4998 19.2498V16.6639C18.2497 17.0118 17.9695 17.3446 17.657 17.657C14.5329 20.7812 9.46679 20.7812 6.34259 17.657C3.21877 14.5328 3.21852 9.46666 6.34259 6.34259Z" fill="black"/>
</svg>
