<svg width="24" height="24" viewBox="0 0 24 24" fill="none" xmlns="http://www.w3.org/2000/svg">
<path d="M4.75 10C5.16421 10 5.5 10.3358 5.5 10.75V13.25C5.5 16.1495 7.85051 18.5 10.75 18.5H13.25C13.6642 18.5 14 18.8358 14 19.25C14 19.6642 13.6642 20 13.25 20H10.75C7.02208 20 4 16.9779 4 13.25V10.75C4 10.3358 4.33579 10 4.75 10ZM19 16C19.5523 16 20 16.4477 20 17C20 17.5523 19.5523 18 19 18C18.4477 18 18 17.5523 18 17C18 16.4477 18.4477 16 19 16ZM19 12C19.5523 12 20 12.4477 20 13C20 13.5523 19.5523 14 19 14C18.4477 14 18 13.5523 18 13C18 12.4477 18.4477 12 19 12ZM19 8C19.5523 8 20 8.44772 20 9C20 9.55228 19.5523 10 19 10C18.4477 10 18 9.55228 18 9C18 8.44772 18.4477 8 19 8ZM7 4C7.55228 4 8 4.44772 8 5C8 5.55228 7.55228 6 7 6C6.44772 6 6 5.55228 6 5C6 4.44772 6.44772 4 7 4ZM11 4C11.5523 4 12 4.44772 12 5C12 5.55228 11.5523 6 11 6C10.4477 6 10 5.55228 10 5C10 4.44772 10.4477 4 11 4ZM15 4C15.5523 4 16 4.44772 16 5C16 5.55228 15.5523 6 15 6C14.4477 6 14 5.55228 14 5C14 4.44772 14.4477 4 15 4ZM19 4C19.5523 4 20 4.44772 20 5C20 5.55228 19.5523 6 19 6C18.4477 6 18 5.55228 18 5C18 4.44772 18.4477 4 19 4Z" fill="black"/>
</svg>
