<svg width="24" height="24" viewBox="0 0 24 24" fill="none" xmlns="http://www.w3.org/2000/svg">
<path d="M5 18C5.55228 18 6 18.4477 6 19C6 19.5523 5.55228 20 5 20C4.44772 20 4 19.5523 4 19C4 18.4477 4.44772 18 5 18ZM9 18C9.55228 18 10 18.4477 10 19C10 19.5523 9.55228 20 9 20C8.44772 20 8 19.5523 8 19C8 18.4477 8.44772 18 9 18ZM13 18C13.5523 18 14 18.4477 14 19C14 19.5523 13.5523 20 13 20C12.4477 20 12 19.5523 12 19C12 18.4477 12.4477 18 13 18ZM17 18C17.5523 18 18 18.4477 18 19C18 19.5523 17.5523 20 17 20C16.4477 20 16 19.5523 16 19C16 18.4477 16.4477 18 17 18ZM5 14C5.55228 14 6 14.4477 6 15C6 15.5523 5.55228 16 5 16C4.44772 16 4 15.5523 4 15C4 14.4477 4.44772 14 5 14ZM13.25 4C16.9779 4 20 7.02208 20 10.75V13.25C20 13.6642 19.6642 14 19.25 14C18.8358 14 18.5 13.6642 18.5 13.25V10.75C18.5 7.85051 16.1495 5.5 13.25 5.5H10.75C10.3358 5.5 10 5.16421 10 4.75C10 4.33579 10.3358 4 10.75 4H13.25ZM5 10C5.55228 10 6 10.4477 6 11C6 11.5523 5.55228 12 5 12C4.44772 12 4 11.5523 4 11C4 10.4477 4.44772 10 5 10ZM5 6C5.55228 6 6 6.44772 6 7C6 7.55228 5.55228 8 5 8C4.44772 8 4 7.55228 4 7C4 6.44772 4.44772 6 5 6Z" fill="black"/>
</svg>
