<svg width="24" height="24" viewBox="0 0 24 24" fill="none" xmlns="http://www.w3.org/2000/svg">
<path fill-rule="evenodd" clip-rule="evenodd" d="M12.75 12.0001H17.25C18.7688 12.0001 20 13.2313 20 14.7501V17.2501C20 18.7689 18.7688 20.0001 17.25 20.0001H6.75C5.23122 20.0001 4 18.7689 4 17.2501V14.7501C4 13.2313 5.23122 12.0001 6.75 12.0001H11.25V10.0001H12.75V12.0001ZM6.75 13.5001C6.05964 13.5001 5.5 14.0597 5.5 14.7501V17.2501C5.5 17.9404 6.05964 18.5001 6.75 18.5001H17.25C17.9404 18.5001 18.5 17.9404 18.5 17.2501V14.7501C18.5 14.0597 17.9404 13.5001 17.25 13.5001H6.75ZM8 15.0001C8.55228 15.0001 9 15.4478 9 16.0001C9 16.5524 8.55228 17.0001 8 17.0001C7.44772 17.0001 7 16.5524 7 16.0001C7 15.4478 7.44772 15.0001 8 15.0001ZM11 15.0001C11.5523 15.0001 12 15.4478 12 16.0001C12 16.5524 11.5523 17.0001 11 17.0001C10.4477 17.0001 10 16.5524 10 16.0001C10 15.4478 10.4477 15.0001 11 15.0001ZM9.17188 8.17196C10.734 6.60998 13.267 6.6099 14.8291 8.17196L15.3594 8.70223L14.2988 9.76278L13.7676 9.2325C12.7913 8.25636 11.2087 8.25636 10.2324 9.2325L9.70215 9.76278L8.6416 8.70223L9.17188 8.17196ZM7.05078 6.04989C9.78441 3.31679 14.2167 3.31662 16.9502 6.04989L17.4805 6.58114L16.4199 7.64168L15.8896 7.11141C13.7418 4.96361 10.2592 4.96377 8.11133 7.11141L7.58105 7.64168L6.52051 6.58114L7.05078 6.04989Z" fill="black"/>
</svg>
