<svg width="24" height="24" viewBox="0 0 24 24" fill="none" xmlns="http://www.w3.org/2000/svg">
<path d="M17.25 4C18.7688 4 20 5.23122 20 6.75V17.25C20 18.7688 18.7688 20 17.25 20H6.75C5.23122 20 4 18.7688 4 17.25V6.75C4 5.23122 5.23122 4 6.75 4H17.25ZM6.75 5.5C6.05964 5.5 5.5 6.05964 5.5 6.75V17.25C5.5 17.9404 6.05964 18.5 6.75 18.5H14.5V17.75C14.5 17.0596 13.9404 16.5 13.25 16.5H9.25C8.00736 16.5 7 15.4926 7 14.25C7 13.0074 8.00736 12 9.25 12H12C12.8284 12 13.5 11.3284 13.5 10.5C13.5 9.67157 12.8284 9 12 9H11C10.5858 9 10.25 8.66421 10.25 8.25C10.25 7.83579 10.5858 7.5 11 7.5H12C13.6569 7.5 15 8.84315 15 10.5C15 12.1569 13.6569 13.5 12 13.5H9.25C8.83579 13.5 8.5 13.8358 8.5 14.25C8.5 14.6642 8.83579 15 9.25 15H13.25C14.7688 15 16 16.2312 16 17.75V18.5H17.25C17.9404 18.5 18.5 17.9404 18.5 17.25V6.75C18.5 6.05964 17.9404 5.5 17.25 5.5H6.75ZM8.25 7.5C8.66421 7.5 9 7.83579 9 8.25C9 8.66421 8.66421 9 8.25 9H7.75C7.33579 9 7 8.66421 7 8.25C7 7.83579 7.33579 7.5 7.75 7.5H8.25Z" fill="black"/>
</svg>
