<svg width="24" height="24" viewBox="0 0 24 24" fill="none" xmlns="http://www.w3.org/2000/svg">
<path d="M18.25 16.0001C19.2165 16.0001 20 16.7836 20 17.7501V18.2501C20 19.2166 19.2165 20.0001 18.25 20.0001H5.75C4.7835 20.0001 4 19.2166 4 18.2501V17.7501C4 16.7836 4.7835 16.0001 5.75 16.0001H18.25ZM5.75 17.5001C5.61193 17.5001 5.5 17.6121 5.5 17.7501V18.2501C5.5 18.3882 5.61193 18.5001 5.75 18.5001H18.25C18.3881 18.5001 18.5 18.3882 18.5 18.2501V17.7501C18.5 17.6121 18.3881 17.5001 18.25 17.5001H5.75ZM18.25 10.0001C19.2165 10.0001 20 10.7836 20 11.7501V12.2501C20 13.2166 19.2165 14.0001 18.25 14.0001H5.75C4.7835 14.0001 4 13.2166 4 12.2501V11.7501C4 10.7836 4.7835 10.0001 5.75 10.0001H18.25ZM5.75 11.5001C5.61193 11.5001 5.5 11.6121 5.5 11.7501V12.2501C5.5 12.3882 5.61193 12.5001 5.75 12.5001H18.25C18.3881 12.5001 18.5 12.3882 18.5 12.2501V11.7501C18.5 11.6121 18.3881 11.5001 18.25 11.5001H5.75ZM18.25 4.00012C19.2165 4.00012 20 4.78362 20 5.75012V6.25012C20 7.21662 19.2165 8.00012 18.25 8.00012H5.75C4.7835 8.00012 4 7.21662 4 6.25012V5.75012C4 4.78362 4.7835 4.00012 5.75 4.00012H18.25ZM5.75 5.50012C5.61193 5.50012 5.5 5.61205 5.5 5.75012V6.25012C5.5 6.38819 5.61193 6.50012 5.75 6.50012H18.25C18.3881 6.50012 18.5 6.38819 18.5 6.25012V5.75012C18.5 5.61205 18.3881 5.50012 18.25 5.50012H5.75Z" fill="black"/>
</svg>
