<svg width="24" height="24" viewBox="0 0 24 24" fill="none" xmlns="http://www.w3.org/2000/svg">
<path d="M5 18C5.55228 18 6 18.4477 6 19C6 19.5523 5.55228 20 5 20C4.44772 20 4 19.5523 4 19C4 18.4477 4.44772 18 5 18ZM5 12C8.86599 12 12 15.134 12 19V19.25C12 19.6642 11.6642 20 11.25 20C10.8358 20 10.5 19.6642 10.5 19.25V19C10.5 15.9624 8.03757 13.5 5 13.5H4.75C4.33579 13.5 4 13.1642 4 12.75C4 12.3358 4.33579 12 4.75 12H5ZM5 6C12.1797 6 18 11.8203 18 19V19.25C18 19.6642 17.6642 20 17.25 20C16.8358 20 16.5 19.6642 16.5 19.25V19C16.5 12.6487 11.3513 7.5 5 7.5H4.75C4.33579 7.5 4 7.16421 4 6.75C4 6.33579 4.33579 6 4.75 6H5Z" fill="black"/>
</svg>
