<svg width="24" height="24" viewBox="0 0 24 24" fill="none" xmlns="http://www.w3.org/2000/svg">
<path fill-rule="evenodd" clip-rule="evenodd" d="M12.5005 4C13.7098 4.0002 14.7191 4.85895 14.9507 6H18.2505C18.6645 6.00022 19.0005 6.33593 19.0005 6.75V9.25C19.0005 9.75564 18.8607 10.2277 18.6225 10.6348L19.936 16.6006C20.3284 18.3838 18.9147 19.9997 17.1118 20H6.88915C5.08599 19.9999 3.67248 18.384 4.06493 16.6006L5.37743 10.6357C5.13908 10.2285 5.00048 9.75592 5.00048 9.25V6.75C5.00048 6.33579 5.33626 6 5.75048 6H9.05028C9.28193 4.8589 10.291 4 11.5005 4H12.5005ZM17.3374 11.7754C17.0039 11.9192 16.6367 11.9999 16.2505 12H12.7505V13.25C12.7505 13.6641 12.4145 13.9998 12.0005 14C11.5863 14 11.2505 13.6642 11.2505 13.25V12H7.75048C7.36404 12 6.99625 11.9193 6.66259 11.7754L5.53075 16.9229C5.35914 17.7026 5.9738 18.4999 6.88915 18.5H17.1118C18.0269 18.4997 18.6417 17.7024 18.4702 16.9229L17.3374 11.7754ZM6.50048 9.25C6.50048 9.94036 7.06012 10.5 7.75048 10.5H11.2505V9.75C11.2505 9.33579 11.5863 9 12.0005 9C12.4145 9.00022 12.7505 9.33593 12.7505 9.75V10.5H16.2505C16.9406 10.4998 17.5005 9.94022 17.5005 9.25V7.5H6.50048V9.25ZM11.5005 5.5C11.1304 5.5 10.8072 5.7012 10.6343 6H13.3657C13.1928 5.70135 12.8703 5.50015 12.5005 5.5H11.5005Z" fill="#141414"/>
</svg>
