<svg width="24" height="24" viewBox="0 0 24 24" fill="none" xmlns="http://www.w3.org/2000/svg">
<path fill-rule="evenodd" clip-rule="evenodd" d="M15.5263 4.16809C15.8209 3.92778 16.2556 3.94524 16.5302 4.21984L19.7802 7.46984C20.0731 7.76274 20.0731 8.2375 19.7802 8.53039L8.53022 19.7804C8.23732 20.0733 7.76256 20.0733 7.46967 19.7804L4.21967 16.5304C3.92678 16.2375 3.92678 15.7627 4.21967 15.4698L15.4697 4.21984L15.5263 4.16809ZM15.4413 6.36828L15.79 6.72961C16.0773 7.0277 16.0684 7.50264 15.7705 7.79016C15.4724 8.07748 14.9974 8.0686 14.7099 7.77062L14.3798 7.42883L13.4404 8.3673L13.79 8.72961C14.0773 9.0277 14.0684 9.50264 13.7705 9.79016C13.4724 10.0775 12.9974 10.0686 12.7099 9.77062L12.3798 9.42883L11.4413 10.3683L11.79 10.7296C12.0773 11.0277 12.0684 11.5026 11.7705 11.7902C11.4724 12.0775 10.9974 12.0686 10.7099 11.7706L10.3798 11.4288L9.44037 12.3673L9.78998 12.7296C10.0773 13.0277 10.0684 13.5026 9.77045 13.7902C9.47236 14.0775 8.99742 14.0686 8.7099 13.7706L8.37983 13.4288L7.44135 14.3683L7.78998 14.7296C8.0773 15.0277 8.06843 15.5026 7.77045 15.7902C7.47236 16.0775 6.99742 16.0686 6.7099 15.7706L6.3808 15.4288L5.81049 16.0001L7.99994 18.1896L18.1894 8.00012L15.9999 5.81066L15.4413 6.36828Z" fill="black"/>
</svg>
