<svg width="24" height="24" viewBox="0 0 24 24" fill="none" xmlns="http://www.w3.org/2000/svg">
<path fill-rule="evenodd" clip-rule="evenodd" d="M16.2496 5C16.6639 5 16.9996 5.33579 16.9996 5.75C16.9996 6.16421 16.6639 6.5 16.2496 6.5H14.0914C14.1728 6.59746 14.253 6.69982 14.3268 6.81055C14.636 7.27443 14.8542 7.83425 14.9479 8.5H16.2496C16.6639 8.5 16.9996 8.83579 16.9996 9.25C16.9996 9.66421 16.6639 10 16.2496 10H14.9147C14.7344 10.779 14.28 11.3924 13.7057 11.8564C12.9805 12.4421 12.0537 12.8059 11.195 13.0371C10.7212 13.1646 10.2492 13.2537 9.81605 13.3203L15.4391 17.3926C15.7745 17.6355 15.8498 18.104 15.6071 18.4395C15.3642 18.7747 14.8956 18.8501 14.5602 18.6074L7.31019 13.3574C7.04705 13.1667 6.93564 12.8277 7.03578 12.5186C7.136 12.2094 7.42469 12.0002 7.74964 12H7.76136C7.77137 11.9999 7.78798 11.9994 7.80921 11.999C7.85191 11.9983 7.91667 11.9973 7.99964 11.9941C8.16648 11.9877 8.40807 11.9742 8.69789 11.9482C9.28147 11.8959 10.0481 11.7914 10.8043 11.5879C11.57 11.3817 12.269 11.0887 12.7623 10.6904C13.0151 10.4862 13.2074 10.2588 13.3327 10H7.74964C7.3356 9.9998 6.99964 9.66409 6.99964 9.25C6.99964 8.83591 7.3356 8.5002 7.74964 8.5H13.4274C13.3525 8.14237 13.2258 7.86316 13.0787 7.64258C12.8386 7.28242 12.513 7.03263 12.1647 6.8584C11.8134 6.68283 11.4524 6.59143 11.1735 6.54492C11.0359 6.52201 10.922 6.51029 10.8463 6.50488C10.8091 6.50223 10.781 6.50056 10.7643 6.5H7.74964C7.3356 6.4998 6.99964 6.16409 6.99964 5.75C6.99964 5.33591 7.3356 5.0002 7.74964 5H16.2496Z" fill="black"/>
</svg>
