<svg width="24" height="24" viewBox="0 0 24 24" fill="none" xmlns="http://www.w3.org/2000/svg">
<path d="M17.25 4C18.7688 4 20 5.23122 20 6.75V15.25C20 16.7688 18.7688 18 17.25 18H16.75V19.25C16.75 19.6642 16.4142 20 16 20C15.5858 20 15.25 19.6642 15.25 19.25V18H8.75V19.25C8.75 19.6642 8.41421 20 8 20C7.58579 20 7.25 19.6642 7.25 19.25V18H6.75C5.23122 18 4 16.7688 4 15.25V6.75C4 5.23122 5.23122 4 6.75 4H17.25ZM6.75 5.5C6.05964 5.5 5.5 6.05964 5.5 6.75V15.25C5.5 15.9404 6.05964 16.5 6.75 16.5H17.25C17.9404 16.5 18.5 15.9404 18.5 15.25V6.75C18.5 6.05964 17.9404 5.5 17.25 5.5H6.75ZM12 7C14.2091 7 16 8.79086 16 11C16 13.2091 14.2091 15 12 15C9.79086 15 8 13.2091 8 11C8 8.79086 9.79086 7 12 7ZM12 8.5C10.6193 8.5 9.5 9.61929 9.5 11C9.5 12.3807 10.6193 13.5 12 13.5C13.3807 13.5 14.5 12.3807 14.5 11C14.5 9.61929 13.3807 8.5 12 8.5Z" fill="black"/>
</svg>
