<svg width="24" height="24" viewBox="0 0 24 24" fill="none" xmlns="http://www.w3.org/2000/svg">
<path fill-rule="evenodd" clip-rule="evenodd" d="M14.9999 4C17.209 4 18.9999 5.79086 18.9999 8V17C18.9999 18.6569 17.6567 20 15.9999 20C14.8347 20 13.8268 19.3347 13.3299 18.3643L5.16588 8.2207C4.90629 7.89817 4.95686 7.4258 5.27916 7.16602C5.6017 6.90641 6.07406 6.95699 6.33385 7.2793L13.2294 15.8467C13.6813 14.7622 14.7517 14 15.9999 14C16.5468 14 17.0583 14.1486 17.4999 14.4043V11H16.2499C15.8357 11 15.4999 10.6642 15.4999 10.25V8C15.4999 7.72386 15.276 7.5 14.9999 7.5C14.7237 7.50001 14.4999 7.72387 14.4999 8V10.25C14.4999 10.6642 14.1641 11 13.7499 11H11.7499C11.3357 11 10.9999 10.6642 10.9999 10.25V8C10.9999 5.79087 12.7907 4.00001 14.9999 4ZM15.9999 15.5C15.1714 15.5 14.4999 16.1716 14.4999 17C14.4999 17.2013 14.5403 17.393 14.6122 17.5684C14.6546 17.6284 14.6853 17.6931 14.7079 17.7598C14.9687 18.2023 15.449 18.5 15.9999 18.5C16.8283 18.5 17.4999 17.8284 17.4999 17C17.4999 16.1716 16.8283 15.5 15.9999 15.5ZM14.9999 5.5C13.6192 5.50001 12.4999 6.6193 12.4999 8V9.5H12.9999V8C12.9999 6.89544 13.8953 6.00001 14.9999 6C16.1044 6 16.9999 6.89543 16.9999 8V9.5H17.4999V8C17.4999 6.61929 16.3806 5.5 14.9999 5.5Z" fill="black"/>
</svg>
