<svg width="24" height="24" viewBox="0 0 24 24" fill="none" xmlns="http://www.w3.org/2000/svg">
<path fill-rule="evenodd" clip-rule="evenodd" d="M19.2499 4C19.6642 4 19.9999 4.33579 19.9999 4.75V11.25C19.9999 11.6642 19.6642 12 19.2499 12C18.8357 12 18.4999 11.6642 18.4999 11.25V6.56055L10.0605 15L12.7802 17.7197C13.0731 18.0126 13.0731 18.4874 12.7802 18.7803C12.4873 19.0732 12.0126 19.0732 11.7197 18.7803L8.99994 16.0605L5.28022 19.7803C4.98732 20.0732 4.51256 20.0732 4.21967 19.7803C3.92678 19.4874 3.92678 19.0126 4.21967 18.7197L7.9394 15L5.21967 12.2803C4.92678 11.9874 4.92678 11.5126 5.21967 11.2197C5.51256 10.9268 5.98732 10.9268 6.28022 11.2197L8.99994 13.9395L17.4394 5.5H12.7499C12.3357 5.5 11.9999 5.16421 11.9999 4.75C11.9999 4.33579 12.3357 4 12.7499 4H19.2499Z" fill="black"/>
</svg>
