<svg width="24" height="24" viewBox="0 0 24 24" fill="none" xmlns="http://www.w3.org/2000/svg">
<path d="M9 6C10.1902 6 11.2582 6.52033 11.9902 7.34375C12.4478 7.12456 12.9596 7 13.5 7C14.9039 7 16.111 7.82731 16.6689 9.01953C16.7778 9.00754 16.8882 9 17 9C18.6569 9 20 10.3431 20 12C20 12.9351 19.571 13.769 18.9023 14.3184C18.5335 15.8566 17.1514 17 15.5 17C15.0349 17 14.5904 16.9084 14.1836 16.7432C13.5422 17.5097 12.5795 18 11.5 18C10.8878 18 10.3118 17.8413 9.81055 17.5645C9.2662 17.8414 8.65127 18 8 18C5.79086 18 4 16.2091 4 14C4 12.8938 4.45032 11.8933 5.1748 11.1699C5.06155 10.7993 5 10.4064 5 10C5 7.79086 6.79086 6 9 6ZM9 7.5C7.61929 7.5 6.5 8.61929 6.5 10C6.5 10.3841 6.586 10.7461 6.73926 11.0693C6.89245 11.3924 6.79644 11.7786 6.50977 11.9922C5.89565 12.4491 5.5 13.1785 5.5 14C5.5 15.3807 6.61929 16.5 8 16.5C8.52336 16.5 9.00751 16.3401 9.4082 16.0664L9.51172 16.0068C9.76202 15.8891 10.0612 15.9179 10.2861 16.0898C10.6227 16.3473 11.0426 16.5 11.5 16.5C12.2713 16.5 12.9422 16.0637 13.2764 15.4209L13.3174 15.3516C13.4204 15.1964 13.5781 15.0836 13.7607 15.0381C13.9693 14.9862 14.1902 15.0266 14.3672 15.1484C14.689 15.3701 15.0782 15.5 15.5 15.5C16.5078 15.5 17.343 14.7539 17.4805 13.7842L17.4961 13.7041C17.5424 13.5222 17.6553 13.363 17.8145 13.2598C18.2286 12.9912 18.5 12.5271 18.5 12C18.5 11.1716 17.8284 10.5 17 10.5C16.807 10.5 16.6245 10.5365 16.457 10.6016C16.2531 10.6809 16.024 10.6666 15.8311 10.5635C15.6382 10.4603 15.4995 10.278 15.4521 10.0645C15.2536 9.16917 14.4543 8.5 13.5 8.5C13.0311 8.5 12.6016 8.66019 12.2607 8.92969C12.0911 9.0638 11.8718 9.11839 11.6592 9.0791C11.4467 9.03977 11.2618 8.9104 11.1514 8.72461C10.7144 7.98959 9.9138 7.5 9 7.5Z" fill="black"/>
</svg>
