<svg width="24" height="24" viewBox="0 0 24 24" fill="none" xmlns="http://www.w3.org/2000/svg">
<path d="M13.7188 4C14.8572 4 15.6931 5.0703 15.417 6.1748L15.1699 7.16113C16.2357 7.53988 17 8.55426 17 9.75V16.9502C17 18.0259 16.3605 19.063 15.2598 19.415C14.403 19.689 13.1802 20 12 20C10.8198 20 9.59697 19.689 8.74023 19.415C7.63951 19.063 7 18.0259 7 16.9502V9.75C7 8.55459 7.76374 7.54012 8.8291 7.16113L8.58301 6.1748C8.30688 5.0703 9.14275 4 10.2812 4H13.7188ZM9.75 8.5C9.05964 8.5 8.5 9.05964 8.5 9.75V16.9502C8.5 17.4552 8.79236 17.8568 9.19727 17.9863C9.99931 18.2428 11.0492 18.5 12 18.5C12.9508 18.5 14.0007 18.2428 14.8027 17.9863C15.2076 17.8568 15.5 17.4552 15.5 16.9502V9.75C15.5 9.05964 14.9404 8.5 14.25 8.5H9.75ZM13.25 11C13.6642 11 14 11.3358 14 11.75C14 12.1642 13.6642 12.5 13.25 12.5H11.75C11.6119 12.5 11.5 12.6119 11.5 12.75V13C11.5 13.1381 11.6119 13.25 11.75 13.25H12.25C13.2165 13.25 14 14.0335 14 15V15.25C14 16.2165 13.2165 17 12.25 17H10.75C10.3358 17 10 16.6642 10 16.25C10 15.8358 10.3358 15.5 10.75 15.5H12.25C12.3881 15.5 12.5 15.3881 12.5 15.25V15C12.5 14.8619 12.3881 14.75 12.25 14.75H11.75C10.7835 14.75 10 13.9665 10 13V12.75C10 11.7835 10.7835 11 11.75 11H13.25ZM10.2812 5.5C10.1186 5.5 9.99873 5.6528 10.0381 5.81055L10.335 7H13.665L13.9619 5.81055C14.0013 5.6528 13.8814 5.5 13.7188 5.5H10.2812Z" fill="black"/>
</svg>
