<svg width="24" height="24" viewBox="0 0 24 24" fill="none" xmlns="http://www.w3.org/2000/svg">
<path fill-rule="evenodd" clip-rule="evenodd" d="M9.92711 4.17824C10.2216 3.93798 10.6564 3.95562 10.931 4.23L14.8207 8.11965L16.7201 6.22024C17.013 5.92734 17.4877 5.92734 17.7806 6.22024C18.0732 6.51315 18.0734 6.98798 17.7806 7.28078L15.8812 9.1802L19.7699 13.0689C19.9105 13.2095 19.9896 13.4003 19.9896 13.5991C19.9896 13.798 19.9105 13.9888 19.7699 14.1294C17.1916 16.7075 13.3149 16.672 10.6107 14.4566L7.1566 18.0777C7.00491 18.2368 7.11741 18.5005 7.33726 18.5005H12.0003C12.4145 18.5006 12.7503 18.8364 12.7503 19.2505C12.7501 19.6645 12.4143 20.0004 12.0003 20.0005H7.33726C5.79783 20.0005 5.00888 18.1561 6.07164 17.0425L9.55015 13.397C7.32857 10.6925 7.28996 6.81064 9.87047 4.23L9.92711 4.17824ZM10.4378 5.85793C8.84807 7.96563 9.11954 10.8978 11.1107 12.8892C13.102 14.8805 16.0332 15.1507 18.141 13.5611L10.4378 5.85793Z" fill="black"/>
</svg>
