<svg width="24" height="24" viewBox="0 0 24 24" fill="none" xmlns="http://www.w3.org/2000/svg">
<path d="M17.25 4C18.7688 4 20 5.23122 20 6.75V17.25C20 18.7688 18.7688 20 17.25 20H6.75C5.23122 20 4 18.7688 4 17.25V6.75C4 5.23122 5.23122 4 6.75 4H17.25ZM6.75 5.5C6.05964 5.5 5.5 6.05964 5.5 6.75V17.25C5.5 17.9404 6.05964 18.5 6.75 18.5H17.25C17.9404 18.5 18.5 17.9404 18.5 17.25V6.75C18.5 6.05964 17.9404 5.5 17.25 5.5H6.75ZM12 7C12.8912 7 13.8576 7.18345 14.6689 7.40039C15.4779 7.61669 16.1917 7.88252 16.585 8.0791C16.839 8.20615 17 8.46592 17 8.75V11.25C17 11.6642 16.6642 12 16.25 12H7.75C7.33579 12 7 11.6642 7 11.25V8.75C7 8.46592 7.16095 8.20615 7.41504 8.0791C7.80832 7.88252 8.52212 7.61669 9.33105 7.40039C10.1424 7.18345 11.1088 7 12 7ZM12 8.5C11.2912 8.5 10.4657 8.64988 9.71875 8.84961C9.23772 8.97823 8.81427 9.12233 8.5 9.24414V10.5H15.5V9.24414C15.1857 9.12233 14.7623 8.97823 14.2812 8.84961C13.5343 8.64988 12.7088 8.5 12 8.5Z" fill="black"/>
</svg>
