<svg width="24" height="24" viewBox="0 0 24 24" fill="none" xmlns="http://www.w3.org/2000/svg">
<path d="M12 4C12.4142 4 12.75 4.33579 12.75 4.75V5H19.25C19.6642 5 20 5.33579 20 5.75C20 6.16421 19.6642 6.5 19.25 6.5H18.1592L19.7578 10.0508C19.8352 10.2227 19.8931 10.4019 19.9336 10.585C19.9358 10.5947 19.9386 10.6044 19.9404 10.6143C19.9794 10.7996 20 10.9892 20 11.1797V11.25C20 12.7688 18.7688 14 17.25 14H16.75C15.2312 14 14 12.7688 14 11.25V11.1797C14 10.9893 14.0197 10.7995 14.0586 10.6143C14.0604 10.6044 14.0632 10.5947 14.0654 10.585C14.106 10.4019 14.1648 10.2228 14.2422 10.0508L15.8408 6.5H12.75V16H13.25C14.7688 16 16 17.2312 16 18.75V19.25C16 19.6642 15.6642 20 15.25 20H8.75C8.33579 20 8 19.6642 8 19.25V18.75C8 17.2312 9.23122 16 10.75 16H11.25V6.5H8.15918L9.75781 10.0508C9.83517 10.2227 9.89306 10.4019 9.93359 10.585C9.93579 10.5947 9.93862 10.6044 9.94043 10.6143C9.97935 10.7996 10 10.9892 10 11.1797V11.25C10 12.7688 8.76878 14 7.25 14H6.75C5.23122 14 4 12.7688 4 11.25V11.1797C4 10.9892 4.02065 10.7996 4.05957 10.6143C4.06138 10.6044 4.06421 10.5947 4.06641 10.585C4.10694 10.4019 4.16483 10.2227 4.24219 10.0508L5.84082 6.5H4.75C4.33579 6.5 4 6.16421 4 5.75C4 5.33579 4.33579 5 4.75 5H11.25V4.75C11.25 4.33579 11.5858 4 12 4ZM10.75 17.5C10.1453 17.5 9.64124 17.9295 9.52539 18.5H14.4746C14.3588 17.9295 13.8547 17.5 13.25 17.5H10.75ZM5.52539 11.5C5.64124 12.0705 6.14529 12.5 6.75 12.5H7.25C7.85471 12.5 8.35876 12.0705 8.47461 11.5H5.52539ZM15.5254 11.5C15.6412 12.0705 16.1453 12.5 16.75 12.5H17.25C17.8547 12.5 18.3588 12.0705 18.4746 11.5H15.5254ZM5.91016 10H8.08984L7 7.57617L5.91016 10ZM15.9102 10H18.0898L17 7.57617L15.9102 10Z" fill="black"/>
</svg>
