<svg width="24" height="24" viewBox="0 0 24 24" fill="none" xmlns="http://www.w3.org/2000/svg">
<path d="M5.5 15.25C5.5 17.0449 6.95507 18.5 8.75 18.5H10V20H8.75C6.12665 20 4 17.8734 4 15.25V14H5.5V15.25ZM20 15.25C20 17.8734 17.8734 20 15.25 20H14V18.5H15.25C17.0449 18.5 18.5 17.0449 18.5 15.25V14H20V15.25ZM16 12.75H8V11.25H16V12.75ZM10 5.5H8.75C6.95507 5.5 5.5 6.95507 5.5 8.75V10H4V8.75C4 6.12665 6.12665 4 8.75 4H10V5.5ZM15.25 4C17.8734 4 20 6.12665 20 8.75V10H18.5V8.75C18.5 6.95507 17.0449 5.5 15.25 5.5H14V4H15.25Z" fill="black"/>
</svg>
