<svg width="24" height="24" viewBox="0 0 24 24" fill="none" xmlns="http://www.w3.org/2000/svg">
<path d="M7 5C8.65685 5 10 6.34315 10 8C10 8.24983 9.96575 8.4916 9.9082 8.72363L12.9375 10.8662L18.7793 6.16602C19.1018 5.90641 19.5742 5.95698 19.834 6.2793C20.0936 6.60184 20.043 7.0742 19.7207 7.33398L14.2109 11.7676L19.6826 15.6377C20.0207 15.8768 20.1012 16.3445 19.8623 16.6826C19.6232 17.0207 19.1555 17.1012 18.8174 16.8623L12.9961 12.7451L9.89844 15.2383C9.96226 15.4818 10 15.7364 10 16C10 17.6569 8.65685 19 7 19C5.34315 19 4 17.6569 4 16C4 14.3431 5.34315 13 7 13C7.84508 13 8.60708 13.3508 9.15234 13.9131L11.7227 11.8438L9.18555 10.0498C8.63824 10.6331 7.863 11 7 11C5.34315 11 4 9.65685 4 8C4 6.34315 5.34315 5 7 5ZM7 14.5C6.17157 14.5 5.5 15.1716 5.5 16C5.5 16.8284 6.17157 17.5 7 17.5C7.82843 17.5 8.5 16.8284 8.5 16C8.5 15.7983 8.45893 15.6064 8.38672 15.4307C8.3452 15.3716 8.31538 15.3077 8.29297 15.2422C8.03241 14.7986 7.55165 14.5 7 14.5ZM7 6.5C6.17157 6.5 5.5 7.17157 5.5 8C5.5 8.82843 6.17157 9.5 7 9.5C7.55243 9.5 8.03365 9.2005 8.29395 8.75586C8.31652 8.69066 8.34588 8.62657 8.3877 8.56738V8.56641C8.45917 8.39148 8.5 8.20064 8.5 8C8.5 7.17157 7.82843 6.5 7 6.5Z" fill="black"/>
</svg>
