<svg width="24" height="24" viewBox="0 0 24 24" fill="none" xmlns="http://www.w3.org/2000/svg">
<path d="M19.25 18.5C19.6642 18.5 20 18.8358 20 19.25C20 19.6642 19.6642 20 19.25 20H4.75C4.33579 20 4 19.6642 4 19.25C4 18.8358 4.33579 18.5 4.75 18.5H19.25ZM16.25 6C16.6642 6 17 6.33579 17 6.75C17 7.16421 16.6642 7.5 16.25 7.5H15.5996L16.207 12.3623C16.5845 12.1335 17.0263 12 17.5 12C18.8807 12 20 13.1193 20 14.5C20 15.8807 18.8807 17 17.5 17C16.4751 17 15.5959 16.3826 15.21 15.5H8.79004C8.4041 16.3826 7.52488 17 6.5 17C5.11929 17 4 15.8807 4 14.5C4 13.1193 5.11929 12 6.5 12C7.70949 12 8.71858 12.8589 8.9502 14H14.9004L14.0059 6.84277C13.9793 6.62951 14.0453 6.41509 14.1875 6.25391C14.3299 6.09263 14.5349 6 14.75 6H16.25ZM6.5 13.5C5.94772 13.5 5.5 13.9477 5.5 14.5C5.5 15.0523 5.94772 15.5 6.5 15.5C7.05228 15.5 7.5 15.0523 7.5 14.5C7.5 13.9477 7.05228 13.5 6.5 13.5ZM17.5 13.5C16.9477 13.5 16.5 13.9477 16.5 14.5C16.5 15.0523 16.9477 15.5 17.5 15.5C18.0523 15.5 18.5 15.0523 18.5 14.5C18.5 13.9477 18.0523 13.5 17.5 13.5Z" fill="#141414"/>
</svg>
