<svg width="24" height="24" viewBox="0 0 24 24" fill="none" xmlns="http://www.w3.org/2000/svg">
<path fill-rule="evenodd" clip-rule="evenodd" d="M5.12967 5.12967C6.63589 3.62344 9.07755 3.62344 10.5838 5.12967L13.7801 8.32596C13.9206 8.46659 13.9998 8.65739 13.9998 8.85623C13.9997 9.05503 13.9206 9.24592 13.7801 9.3865L12.1131 11.0525L16.0301 14.9695C16.0397 14.9792 16.0484 14.9897 16.0574 14.9998H17.9998C18.2223 14.9998 18.4335 15.0984 18.576 15.2693L19.826 16.7693C20.0743 17.0673 20.0543 17.5058 19.7801 17.7801L17.7801 19.7801C17.5058 20.0543 17.0673 20.0743 16.7693 19.826L15.2693 18.576C15.0984 18.4335 14.9998 18.2223 14.9998 17.9998V16.0574C14.9897 16.0484 14.9792 16.0397 14.9695 16.0301L11.0525 12.1131L9.3865 13.7801C9.09366 14.0729 8.61886 14.0728 8.32596 13.7801L5.12967 10.5838C3.62344 9.07755 3.62344 6.63589 5.12967 5.12967ZM16.4998 17.6482L17.2039 18.2342L18.2342 17.2039L17.6482 16.4998H16.4998V17.6482ZM9.52322 6.19021C8.60279 5.26978 7.11065 5.26978 6.19021 6.19021C5.26978 7.11065 5.26978 8.60279 6.19021 9.52322L8.85623 12.1892L12.1892 8.85623L9.52322 6.19021Z" fill="black"/>
</svg>
