<svg width="24" height="24" viewBox="0 0 24 24" fill="none" xmlns="http://www.w3.org/2000/svg">
<path d="M9.5 4C9.59535 4 9.68978 4.01832 9.77832 4.05371L12 4.94238L14.2217 4.05371L14.3584 4.01367C14.405 4.00472 14.4524 4 14.5 4H17.25C17.6642 4 18 4.33579 18 4.75V8.25C18 8.66421 17.6642 9 17.25 9H15V17C15 17.1989 14.9209 17.3896 14.7803 17.5303L12.5303 19.7803C12.2374 20.0732 11.7626 20.0732 11.4697 19.7803L9.21973 17.5303C9.07907 17.3896 9 17.1989 9 17V9H6.75C6.33579 9 6 8.66421 6 8.25V4.75C6 4.33579 6.33579 4 6.75 4H9.5ZM10.5 15.6475V16.6895L12 18.1895L13.5 16.6895V14.8975L10.5 15.6475ZM10.5 12.6475V14.1016L13.5 13.3516V11.8975L10.5 12.6475ZM10.5 11.1016L13.5 10.3516V9H10.5V11.1016ZM7.5 7.5H16.5V5.5H14.6436L12.2783 6.44629C12.0996 6.51772 11.9004 6.51772 11.7217 6.44629L9.35645 5.5H7.5V7.5Z" fill="black"/>
</svg>
