<svg width="24" height="24" viewBox="0 0 24 24" fill="none" xmlns="http://www.w3.org/2000/svg">
<path d="M17.625 4C18.375 4 18.9864 4.42233 19.3818 4.96973C19.778 5.51822 20 6.23855 20 7V7.25C20 7.66421 19.6642 8 19.25 8H17V17C17 17.8182 16.6789 18.5529 16.2129 19.085C15.7568 19.6058 15.0973 20 14.375 20H6.75C5.23122 20 4 18.7688 4 17.25V16.75C4 16.3358 4.33579 16 4.75 16H6V6.75C6 5.23122 7.23122 4 8.75 4H17.625ZM5.52539 17.5C5.64124 18.0705 6.14529 18.5 6.75 18.5H12.3154C12.1764 18.1924 12.0805 17.8548 12.0342 17.5H5.52539ZM8.75 5.5C8.05964 5.5 7.5 6.05964 7.5 6.75V16H12.75C13.1642 16 13.5 16.3358 13.5 16.75V17C13.5 17.4812 13.642 17.8865 13.834 18.1523C14.0266 18.4189 14.2277 18.5 14.375 18.5C14.5501 18.5 14.828 18.3901 15.085 18.0967C15.332 17.8144 15.5 17.4243 15.5 17V7C15.5 6.48038 15.5725 5.96048 15.7383 5.5H8.75ZM13.25 11C13.6642 11 14 11.3358 14 11.75C14 12.1642 13.6642 12.5 13.25 12.5H9.75C9.33579 12.5 9 12.1642 9 11.75C9 11.3358 9.33579 11 9.75 11H13.25ZM13.25 8C13.6642 8 14 8.33579 14 8.75C14 9.16421 13.6642 9.5 13.25 9.5H9.75C9.33579 9.5 9 9.16421 9 8.75C9 8.33579 9.33579 8 9.75 8H13.25ZM17.625 5.5C17.5125 5.5 17.3876 5.54277 17.2529 5.7793C17.1551 5.95125 17.0765 6.19639 17.0342 6.5H18.4463C18.388 6.23802 18.2869 6.01505 18.166 5.84766C17.9734 5.58107 17.7723 5.5 17.625 5.5Z" fill="black"/>
</svg>
