<svg width="24" height="24" viewBox="0 0 24 24" fill="none" xmlns="http://www.w3.org/2000/svg">
<path d="M14 9C15.3976 9 16.569 9.95646 16.9023 11.25H19.25C19.6642 11.25 20 11.5858 20 12C20 12.4142 19.6642 12.75 19.25 12.75H16.9023C16.569 14.0435 15.3976 15 14 15C12.6024 15 11.431 14.0435 11.0977 12.75H4.75C4.33579 12.75 4 12.4142 4 12C4 11.5858 4.33579 11.25 4.75 11.25H11.0977C11.431 9.95646 12.6024 9 14 9ZM14 10.5C13.1716 10.5 12.5 11.1716 12.5 12C12.5 12.8284 13.1716 13.5 14 13.5C14.8284 13.5 15.5 12.8284 15.5 12C15.5 11.1716 14.8284 10.5 14 10.5Z" fill="black"/>
</svg>
