<svg width="24" height="24" viewBox="0 0 24 24" fill="none" xmlns="http://www.w3.org/2000/svg">
<path d="M5.5 17.25C5.5 17.9404 6.05964 18.5 6.75 18.5H9V20H6.75C5.23122 20 4 18.7688 4 17.25V15H5.5V17.25ZM12 8C14.2091 8 16 9.79086 16 12C16 12.8334 15.7437 13.6064 15.3076 14.2471L17.7803 16.7197C18.0732 17.0126 18.0732 17.4874 17.7803 17.7803C17.4874 18.0732 17.0126 18.0732 16.7197 17.7803L14.2471 15.3076C13.6064 15.7437 12.8334 16 12 16C9.79086 16 8 14.2091 8 12C8 9.79086 9.79086 8 12 8ZM12 9.5C10.6193 9.5 9.5 10.6193 9.5 12C9.5 13.3807 10.6193 14.5 12 14.5C13.3807 14.5 14.5 13.3807 14.5 12C14.5 10.6193 13.3807 9.5 12 9.5ZM9 5.5H6.75C6.05964 5.5 5.5 6.05964 5.5 6.75V9H4V6.75C4 5.23122 5.23122 4 6.75 4H9V5.5ZM17.25 4C18.7688 4 20 5.23122 20 6.75V9H18.5V6.75C18.5 6.05964 17.9404 5.5 17.25 5.5H15V4H17.25Z" fill="black"/>
</svg>
