<svg width="24" height="24" viewBox="0 0 24 24" fill="none" xmlns="http://www.w3.org/2000/svg">
<path d="M12 4C16.4183 4 20 7.58172 20 12C20 12.4142 19.6642 12.75 19.25 12.75C18.8358 12.75 18.5 12.4142 18.5 12C18.5 9.32811 16.8876 7.03337 14.583 6.03418C15.0432 6.82262 15.4377 7.82199 15.6914 8.99609C15.7006 9.03853 15.7099 9.08112 15.7188 9.12402C15.802 9.52978 15.5405 9.9265 15.1348 10.0098C14.729 10.093 14.3323 9.83153 14.249 9.42578C14.2412 9.3878 14.2337 9.34999 14.2256 9.3125C13.9427 8.00303 13.478 7.00229 13.0039 6.34766C12.7665 6.01982 12.5382 5.79487 12.3457 5.6582C12.147 5.51712 12.0305 5.5 12 5.5C11.9541 5.5 11.7684 5.53753 11.4707 5.80664C11.1885 6.0619 10.8714 6.46918 10.5732 7.03613C10.0499 8.03153 9.61679 9.46099 9.52051 11.25H11.25C11.6642 11.25 12 11.5858 12 12C12 12.4142 11.6642 12.75 11.25 12.75H9.52051C9.61679 14.539 10.0499 15.9685 10.5732 16.9639C10.8714 17.5308 11.1885 17.9381 11.4707 18.1934C11.7684 18.4625 11.9541 18.5 12 18.5C12.4142 18.5 12.75 18.8358 12.75 19.25C12.75 19.6642 12.4142 20 12 20C7.58172 20 4 16.4183 4 12C4 7.58172 7.58172 4 12 4ZM15.2354 12C17.0221 12 18.4707 13.4486 18.4707 15.2354C18.4707 15.8569 18.2941 16.4367 17.9902 16.9297L19.7803 18.7197C20.0732 19.0126 20.0732 19.4874 19.7803 19.7803C19.4874 20.0732 19.0126 20.0732 18.7197 19.7803L16.9297 17.9902C16.4367 18.2941 15.8569 18.4707 15.2354 18.4707C13.4486 18.4707 12 17.0221 12 15.2354C12 13.4485 13.4485 12 15.2354 12ZM5.54395 12.75C5.81335 15.0945 7.32936 17.0588 9.41309 17.9639C9.35597 17.8659 9.29964 17.7648 9.24512 17.6611C8.60323 16.4401 8.11743 14.7695 8.01953 12.75H5.54395ZM15.2354 13.5C14.277 13.5 13.5 14.277 13.5 15.2354C13.5 16.1937 14.277 16.9707 15.2354 16.9707C16.1937 16.9707 16.9707 16.1937 16.9707 15.2354C16.9707 14.277 16.1937 13.5 15.2354 13.5ZM9.41309 6.03516C7.32918 6.94018 5.81336 8.9054 5.54395 11.25H8.01953C8.11743 9.23052 8.60323 7.55991 9.24512 6.33887C9.29978 6.2349 9.35582 6.13335 9.41309 6.03516Z" fill="black"/>
</svg>
