<svg width="24" height="24" viewBox="0 0 24 24" fill="none" xmlns="http://www.w3.org/2000/svg">
<path d="M11 4C14.866 4 18 7.13401 18 11C18 12.6628 17.4186 14.1888 16.4502 15.3896L19.7803 18.7197C20.0732 19.0126 20.0732 19.4874 19.7803 19.7803C19.4874 20.0732 19.0126 20.0732 18.7197 19.7803L15.3896 16.4502C14.1888 17.4186 12.6628 18 11 18C7.13401 18 4 14.866 4 11C4 7.13401 7.13401 4 11 4ZM11 5.5C7.96243 5.5 5.5 7.96243 5.5 11C5.5 14.0376 7.96243 16.5 11 16.5C14.0376 16.5 16.5 14.0376 16.5 11C16.5 7.96243 14.0376 5.5 11 5.5Z" fill="black"/>
</svg>
