<svg width="24" height="24" viewBox="0 0 24 24" fill="none" xmlns="http://www.w3.org/2000/svg">
<path fill-rule="evenodd" clip-rule="evenodd" d="M10.9896 4.00002C11.191 4.00008 11.3848 4.08086 11.5258 4.22463V4.2256H11.5267L11.5277 4.22756L11.5453 4.24513C11.5563 4.25662 11.5721 4.27271 11.5912 4.29299C11.6297 4.33394 11.6834 4.39294 11.7474 4.46486C11.8749 4.60811 12.0466 4.81007 12.2201 5.04103C12.3917 5.26957 12.5767 5.54183 12.722 5.82521C12.8596 6.09356 13.002 6.44838 13.0043 6.82131C13.0084 7.52025 12.6898 8.20517 12.1537 8.61525C12.4057 9.06323 12.7042 9.6904 12.9701 10.5215C13.5662 12.3849 14.0066 15.2456 13.4945 19.3428C13.4432 19.7536 13.0684 20.0452 12.6576 19.9942C12.2467 19.9428 11.955 19.5682 12.0062 19.1572C12.494 15.2548 12.0649 12.6151 11.5414 10.9785C11.2792 10.1591 10.9918 9.58557 10.7787 9.22658C10.7126 9.11529 10.6529 9.02452 10.6039 8.95314C9.63652 8.73888 9.00623 7.7912 9.00037 6.81545C8.99815 6.44138 9.13651 6.08609 9.27185 5.8174C9.41462 5.53407 9.5975 5.26243 9.76697 5.03517C9.93834 4.8054 10.1087 4.60501 10.2347 4.46291C10.2979 4.39169 10.351 4.33357 10.389 4.29299C10.408 4.27273 10.424 4.25655 10.4349 4.24513C10.4402 4.23963 10.4445 4.23475 10.4476 4.23146C10.4492 4.22991 10.4515 4.22857 10.4525 4.22756L10.4535 4.2256C10.5944 4.08186 10.7883 4.00013 10.9896 4.00002ZM18.1595 4.10842C18.3342 4.00271 18.5454 3.97273 18.7426 4.02541C18.9398 4.07833 19.108 4.20969 19.2064 4.38869V4.38967L19.2074 4.39162C19.2081 4.39289 19.2093 4.39453 19.2103 4.3965C19.2125 4.40056 19.2154 4.40626 19.2191 4.4131C19.2267 4.4273 19.2382 4.44754 19.2513 4.47267C19.2776 4.52301 19.314 4.59508 19.3568 4.68263C19.4419 4.85681 19.5543 5.09977 19.6605 5.37209C19.7658 5.64196 19.8718 5.95847 19.9369 6.27443C19.9986 6.57419 20.0411 6.95513 19.9467 7.31642C19.719 8.18641 18.9875 8.92021 18.0941 8.99611C16.7261 11.8034 16.4424 14.3022 16.5004 16.1006C16.53 17.0182 16.6474 17.7543 16.7562 18.2549C16.8106 18.505 16.8627 18.6963 16.8998 18.8213C16.9183 18.8836 16.9332 18.9295 16.9428 18.958C16.9474 18.9721 16.9516 18.9818 16.9535 18.9873L16.9545 18.9903L16.9769 19.0645C17.0713 19.4323 16.874 19.8197 16.5101 19.9541C16.1216 20.0973 15.6896 19.8982 15.5463 19.5098L16.2504 19.25C15.6036 19.4883 15.5506 19.5076 15.5463 19.5088V19.5078L15.5453 19.5059C15.5448 19.5044 15.5441 19.5021 15.5433 19.5C15.5419 19.496 15.5396 19.4906 15.5375 19.4844C15.533 19.4716 15.5271 19.4543 15.5199 19.4326C15.5053 19.3887 15.4857 19.3262 15.4623 19.2471C15.4154 19.0889 15.3542 18.862 15.2914 18.5733C15.1658 17.9958 15.0333 17.1692 15.0004 16.1494C14.9368 14.1803 15.244 11.4941 16.6674 8.50099C16.0818 7.95536 15.8745 7.06177 16.0804 6.27443C16.1753 5.91201 16.3997 5.60171 16.601 5.37209C16.8126 5.13062 17.0601 4.91077 17.2836 4.73049C17.5094 4.54831 17.7259 4.39374 17.8851 4.28615C17.9648 4.23229 18.032 4.18939 18.0795 4.1592C18.1031 4.14417 18.1226 4.13147 18.1361 4.12306C18.1428 4.11894 18.1488 4.11572 18.1527 4.1133C18.1545 4.11218 18.1564 4.1111 18.1576 4.11037L18.1595 4.10939V4.10842ZM5.25916 7.02541C5.45645 6.9727 5.6675 7.0026 5.84217 7.10842L5.84314 7.10939L5.8451 7.11037C5.84632 7.11111 5.84821 7.11221 5.84998 7.1133C5.85397 7.11573 5.85999 7.11898 5.86658 7.12306C5.88015 7.13149 5.89877 7.14426 5.92224 7.1592C5.96969 7.18939 6.03679 7.23224 6.11658 7.28615C6.27583 7.39378 6.49321 7.54826 6.71912 7.73049C6.94259 7.91077 7.19014 8.13065 7.40174 8.37209C7.60296 8.60172 7.82644 8.91208 7.92127 9.27443C8.11995 10.0337 7.93338 10.8908 7.3949 11.4404C8.99696 13.6249 9.61193 15.5378 9.80603 16.961C9.90854 17.7126 9.89275 18.3206 9.84803 18.75C9.82568 18.9644 9.79636 19.1345 9.77088 19.2559C9.75815 19.3165 9.74603 19.3654 9.7367 19.4014C9.73211 19.419 9.72824 19.4338 9.72498 19.4453L9.71814 19.4658V19.4688L9.71717 19.4697C9.71342 19.4691 9.66409 19.4542 9.00037 19.25L9.71717 19.4707C9.59533 19.8664 9.17542 20.0884 8.77967 19.9668C8.38411 19.845 8.16229 19.4259 8.28357 19.0303C8.28399 19.0286 8.28392 19.0259 8.28455 19.0235C8.28816 19.0095 8.29445 18.9838 8.30213 18.9473C8.31764 18.8734 8.33915 18.754 8.35584 18.5938C8.38919 18.2733 8.40462 17.7869 8.31971 17.1641C8.15151 15.9307 7.58532 14.1298 5.93592 11.9971C5.02988 11.9343 4.28609 11.1954 4.05603 10.3164C3.96147 9.95504 4.00409 9.57426 4.0658 9.27443C4.13086 8.95849 4.23692 8.64194 4.34217 8.37209C4.44841 8.09978 4.56082 7.85677 4.64588 7.68263C4.68865 7.59509 4.72507 7.52298 4.75135 7.47267C4.76444 7.4476 4.775 7.42726 4.7826 7.4131C4.78634 7.40616 4.79014 7.40058 4.79236 7.3965C4.79327 7.39474 4.79367 7.3928 4.79432 7.39162L4.79529 7.38967L4.79627 7.38869L4.83631 7.32424C4.93695 7.17846 5.08648 7.07171 5.25916 7.02541ZM5.73963 8.91799C5.6514 9.14422 5.57634 9.37345 5.53455 9.57619C5.48953 9.79488 5.49948 9.90676 5.50721 9.93654C5.63546 10.4266 5.99998 10.532 6.16053 10.4883C6.33111 10.4412 6.5998 10.1469 6.47107 9.65431C6.46361 9.62578 6.41836 9.52534 6.27381 9.36037C6.13969 9.20735 5.96312 9.04783 5.77674 8.89748C5.76955 8.89168 5.76147 8.8866 5.75428 8.88088C5.74945 8.89304 5.74442 8.90569 5.73963 8.91799ZM10.9701 5.93263C10.8293 6.12145 10.7009 6.31528 10.6117 6.4922C10.5676 6.57977 10.5379 6.65468 10.5199 6.71388C10.5112 6.74245 10.5061 6.76486 10.5033 6.78127C10.502 6.78916 10.5008 6.79558 10.5004 6.79982V6.80666C10.5033 7.28226 10.8241 7.49869 11.015 7.50002C11.1958 7.50078 11.507 7.3022 11.5043 6.83009V6.82326C11.5038 6.81894 11.5028 6.81278 11.5013 6.8047C11.4983 6.78772 11.4931 6.76402 11.4838 6.73439C11.4647 6.6739 11.4327 6.59872 11.3871 6.50978C11.295 6.33017 11.1645 6.13269 11.0209 5.94142C11.0114 5.92882 11.0011 5.91673 10.9916 5.90431C10.9845 5.91365 10.9771 5.92319 10.9701 5.93263ZM18.225 5.89748C18.0387 6.04773 17.863 6.20743 17.7289 6.36037C17.5845 6.52513 17.5392 6.62556 17.5316 6.65431C17.4028 7.14706 17.6706 7.44123 17.8412 7.4883C18.0017 7.53204 18.3672 7.42662 18.4955 6.93654C18.5032 6.90644 18.5131 6.79435 18.4681 6.57619C18.4264 6.37345 18.3513 6.14423 18.2631 5.91799C18.2581 5.90518 18.2515 5.89257 18.2465 5.8799C18.2394 5.88556 18.2321 5.89175 18.225 5.89748Z" fill="black"/>
</svg>
