<svg width="24" height="24" viewBox="0 0 24 24" fill="none" xmlns="http://www.w3.org/2000/svg">
<path fill-rule="evenodd" clip-rule="evenodd" d="M9.25019 18.5002C9.66436 18.5002 10.0001 18.8361 10.0002 19.2502V19.26C10.0002 19.6742 9.66441 20.01 9.25019 20.01C8.836 20.01 8.5002 19.6742 8.50019 19.26V19.2502C8.50028 18.8361 8.83605 18.5002 9.25019 18.5002ZM13.0402 13.0403C14.3938 11.6868 16.5877 11.6385 17.9396 12.9905C18.566 13.6169 19.2512 14.797 19.6457 15.9426C19.8454 16.5226 19.9888 17.1438 19.9953 17.7229C20.0017 18.2919 19.875 18.9339 19.4045 19.4045C18.9339 19.8751 18.2919 20.0017 17.7229 19.9953C17.1438 19.9888 16.5226 19.8455 15.9426 19.6457C14.7968 19.2512 13.6159 18.5661 12.9895 17.9397C11.6377 16.5877 11.6868 14.3938 13.0402 13.0403ZM16.8791 14.051C16.3148 13.4867 15.458 13.351 14.7307 13.6701L15.8684 14.8078C15.9831 14.9226 16.0583 15.072 16.0812 15.2326L16.258 16.47C16.3166 16.88 16.0313 17.26 15.6213 17.3186C15.2113 17.3771 14.8312 17.0919 14.7727 16.6819L14.6311 15.6926L13.6691 14.7307C13.3501 15.458 13.4868 16.3149 14.051 16.8791C14.4707 17.2987 15.43 17.8831 16.4309 18.2278C16.9239 18.3976 17.3776 18.4912 17.7395 18.4953C18.1114 18.4995 18.2776 18.4103 18.3439 18.344C18.4103 18.2776 18.4994 18.112 18.4953 17.7405C18.4913 17.3786 18.3976 16.9242 18.2277 16.4309C17.883 15.43 17.2987 14.4708 16.8791 14.051ZM4.75019 13.5002C5.16436 13.5002 5.50011 13.8361 5.50019 14.2502V14.26C5.50019 14.6742 5.16441 15.01 4.75019 15.01C4.336 15.01 4.0002 14.6742 4.00019 14.26V14.2502C4.00028 13.8361 4.33605 13.5002 4.75019 13.5002ZM9.75019 13.5002C10.1644 13.5002 10.5001 13.8361 10.5002 14.2502V14.26C10.5002 14.6742 10.1644 15.01 9.75019 15.01C9.336 15.01 9.0002 14.6742 9.00019 14.26V14.2502C9.00028 13.8361 9.33605 13.5002 9.75019 13.5002ZM9.72285 4.00022C10.2919 3.99387 10.9339 4.12052 11.4045 4.59105C11.8751 5.06166 12.0017 5.70362 11.9953 6.27269C11.9888 6.85174 11.8454 7.4729 11.6457 8.05296C11.2511 9.19875 10.5661 10.3797 9.93965 11.0061C8.58763 12.358 6.39379 12.3089 5.04023 10.9553C3.68677 9.60174 3.63759 7.40788 4.98945 6.05589C5.61586 5.42949 6.79679 4.74442 7.94258 4.34983C8.52259 4.15011 9.14382 4.00674 9.72285 4.00022ZM19.2502 9.50023C19.6644 9.50023 20.0001 9.83608 20.0002 10.2502V10.26C20.0002 10.6742 19.6644 11.01 19.2502 11.01C18.836 11.01 18.5002 10.6742 18.5002 10.26V10.2502C18.5003 9.8361 18.8361 9.50025 19.2502 9.50023ZM9.73945 5.50022C9.37766 5.50434 8.92388 5.59803 8.43086 5.7678C7.43008 6.11245 6.47082 6.69683 6.05098 7.11644C5.48695 7.68048 5.35144 8.53675 5.67012 9.2639L6.63105 8.30296L6.77266 7.3137C6.83124 6.9037 7.21128 6.61846 7.62129 6.67698C8.03124 6.73555 8.3164 7.11568 8.25801 7.52562L8.08125 8.76292C8.0583 8.92356 7.9831 9.07298 7.86836 9.18773L6.73066 10.3244C7.45807 10.6439 8.3147 10.5098 8.8791 9.94554C9.29874 9.5259 9.88298 8.56578 10.2277 7.56468C10.3975 7.0716 10.4912 6.61789 10.4953 6.25608C10.4995 5.88407 10.4103 5.71795 10.3439 5.65159C10.2775 5.58524 10.1113 5.49607 9.73945 5.50022ZM15.2502 7.50022C15.6644 7.50022 16.0001 7.83608 16.0002 8.25023V8.25999C16.0002 8.6742 15.6644 9.00999 15.2502 9.00999C14.836 9.00997 14.5002 8.67419 14.5002 8.25999V8.25023C14.5003 7.8361 14.8361 7.50025 15.2502 7.50022ZM19.2502 4.50022C19.6644 4.50022 20.0001 4.83608 20.0002 5.25022V5.25999C20.0002 5.6742 19.6644 6.00999 19.2502 6.00999C18.836 6.00997 18.5002 5.67419 18.5002 5.25999V5.25022C18.5003 4.8361 18.8361 4.50025 19.2502 4.50022Z" fill="black"/>
</svg>
