<svg width="24" height="24" viewBox="0 0 24 24" fill="none" xmlns="http://www.w3.org/2000/svg">
<path d="M5.5 17.25C5.5 17.9404 6.05964 18.5 6.75 18.5H14V20H6.75C5.23122 20 4 18.7688 4 17.25V10H5.5V17.25ZM9.5 14.25C9.5 14.3881 9.61193 14.5 9.75 14.5H11V16H9.75C8.7835 16 8 15.2165 8 14.25V13H9.5V14.25ZM15 16H13V14.5H15V16ZM20 14.25C20 15.2165 19.2165 16 18.25 16H17V14.5H18.25C18.3881 14.5 18.5 14.3881 18.5 14.25V13H20V14.25ZM9.5 11H8V9H9.5V11ZM20 11H18.5V9H20V11ZM11 5.5H9.75C9.61193 5.5 9.5 5.61193 9.5 5.75V7H8V5.75C8 4.7835 8.7835 4 9.75 4H11V5.5ZM18.25 4C19.2165 4 20 4.7835 20 5.75V7H18.5V5.75C18.5 5.61193 18.3881 5.5 18.25 5.5H17V4H18.25ZM15 5.5H13V4H15V5.5Z" fill="black"/>
</svg>
