<svg width="24" height="24" viewBox="0 0 24 24" fill="none" xmlns="http://www.w3.org/2000/svg">
<path d="M17.25 10C18.7688 10 20 11.2312 20 12.75V17.25C20 18.7688 18.7688 20 17.25 20H12.75C11.2312 20 10 18.7688 10 17.25V12.75C10 11.2312 11.2312 10 12.75 10H17.25ZM12.75 11.5C12.0596 11.5 11.5 12.0596 11.5 12.75V17.25C11.5 17.9404 12.0596 18.5 12.75 18.5H17.25C17.9404 18.5 18.5 17.9404 18.5 17.25V12.75C18.5 12.0596 17.9404 11.5 17.25 11.5H12.75ZM5.5 12.25C5.5 12.3881 5.61193 12.5 5.75 12.5H7V14H5.75C4.7835 14 4 13.2165 4 12.25V11H5.5V12.25ZM7 5.5H5.75C5.61193 5.5 5.5 5.61193 5.5 5.75V7H4V5.75C4 4.7835 4.7835 4 5.75 4H7V5.5ZM12.25 4C13.2165 4 14 4.7835 14 5.75V7H12.5V5.75C12.5 5.61193 12.3881 5.5 12.25 5.5H11V4H12.25Z" fill="black"/>
</svg>
