<svg width="24" height="24" viewBox="0 0 24 24" fill="none" xmlns="http://www.w3.org/2000/svg">
<path fill-rule="evenodd" clip-rule="evenodd" d="M11.9999 4C12.284 4 12.5438 4.16096 12.6708 4.41504L19.9208 18.915C20.064 19.2019 20.0091 19.548 19.7841 19.7764C19.5588 20.0048 19.2127 20.0653 18.9237 19.9258L11.9999 16.583L5.07609 19.9258C4.78711 20.0653 4.44106 20.0048 4.21574 19.7764C3.9907 19.548 3.93581 19.2019 4.07902 18.915L11.329 4.41504C11.4561 4.16096 11.7158 4.00001 11.9999 4ZM6.40422 17.6172L11.2499 15.2783V12.75C11.2499 12.3358 11.5857 12 11.9999 12C12.4141 12 12.7499 12.3358 12.7499 12.75V15.2783L17.5946 17.6172L11.9999 6.42676L6.40422 17.6172Z" fill="black"/>
</svg>
