<svg width="24" height="24" viewBox="0 0 24 24" fill="none" xmlns="http://www.w3.org/2000/svg">
<path d="M11.5 18.25C11.5 18.3881 11.6119 18.5 11.75 18.5H13V20H11.75C10.7835 20 10 19.2165 10 18.25V17H11.5V18.25ZM20 18.25C20 19.2165 19.2165 20 18.25 20H17V18.5H18.25C18.3881 18.5 18.5 18.3881 18.5 18.25V17H20V18.25ZM11.25 4C12.7688 4 14 5.23122 14 6.75V8H12.5V6.75C12.5 6.05964 11.9404 5.5 11.25 5.5H6.75C6.05964 5.5 5.5 6.05964 5.5 6.75V11.25C5.5 11.9404 6.05964 12.5 6.75 12.5H8V14H6.75C5.23122 14 4 12.7688 4 11.25V6.75C4 5.23122 5.23122 4 6.75 4H11.25ZM13 11.5H11.75C11.6119 11.5 11.5 11.6119 11.5 11.75V13H10V11.75C10 10.7835 10.7835 10 11.75 10H13V11.5ZM18.25 10C19.2165 10 20 10.7835 20 11.75V13H18.5V11.75C18.5 11.6119 18.3881 11.5 18.25 11.5H17V10H18.25Z" fill="black"/>
</svg>
