<svg width="24" height="24" viewBox="0 0 24 24" fill="none" xmlns="http://www.w3.org/2000/svg">
<path d="M14.25 8C15.7688 8 17 9.23122 17 10.75V17.25C17 18.7688 15.7688 20 14.25 20H9.75C8.23122 20 7 18.7688 7 17.25V10.75C7 9.23122 8.23122 8 9.75 8H14.25ZM9.75 9.5C9.05964 9.5 8.5 10.0596 8.5 10.75V17.25C8.5 17.9404 9.05964 18.5 9.75 18.5H14.25C14.9404 18.5 15.5 17.9404 15.5 17.25V10.75C15.5 10.0596 14.9404 9.5 14.25 9.5H9.75ZM12 12C13.1046 12 14 12.8954 14 14C14 15.1046 13.1046 16 12 16C10.8954 16 10 15.1046 10 14C10 12.8954 10.8954 12 12 12ZM12 13.5C11.7239 13.5 11.5 13.7239 11.5 14C11.5 14.2761 11.7239 14.5 12 14.5C12.2761 14.5 12.5 14.2761 12.5 14C12.5 13.7239 12.2761 13.5 12 13.5ZM17.25 4C18.7688 4 20 5.23122 20 6.75V11H18.5V6.75C18.5 6.05964 17.9404 5.5 17.25 5.5H6.75C6.05964 5.5 5.5 6.05964 5.5 6.75V11H4V6.75C4 5.23122 5.23122 4 6.75 4H17.25Z" fill="black"/>
</svg>
