<svg width="24" height="24" viewBox="0 0 24 24" fill="none" xmlns="http://www.w3.org/2000/svg">
<path d="M12 6C15.866 6 19 9.13401 19 13V15.1699C19.5909 15.4509 20 16.0521 20 16.75V18.25C20 19.2165 19.2165 20 18.25 20H5.75C4.7835 20 4 19.2165 4 18.25V16.75C4 16.0521 4.40908 15.4509 5 15.1699V13C5 9.13401 8.13401 6 12 6ZM5.75 16.5C5.61193 16.5 5.5 16.6119 5.5 16.75V18.25C5.5 18.3881 5.61193 18.5 5.75 18.5H18.25C18.3881 18.5 18.5 18.3881 18.5 18.25V16.75C18.5 16.6119 18.3881 16.5 18.25 16.5H5.75ZM12 7.5C8.96243 7.5 6.5 9.96243 6.5 13V15H17.5V13C17.5 9.96243 15.0376 7.5 12 7.5ZM12 4C12.5523 4 13 4.44772 13 5C13 5.55228 12.5523 6 12 6C11.4477 6 11 5.55228 11 5C11 4.44772 11.4477 4 12 4Z" fill="black"/>
</svg>
