<svg width="24" height="24" viewBox="0 0 24 24" fill="none" xmlns="http://www.w3.org/2000/svg">
<path d="M15 13C16.3976 13 17.569 13.9565 17.9023 15.25H19.25C19.6642 15.25 20 15.5858 20 16C20 16.4142 19.6642 16.75 19.25 16.75H17.9023C17.569 18.0435 16.3976 19 15 19C13.6024 19 12.431 18.0435 12.0977 16.75H4.75C4.33579 16.75 4 16.4142 4 16C4 15.5858 4.33579 15.25 4.75 15.25H12.0977C12.431 13.9565 13.6024 13 15 13ZM15 14.5C14.1716 14.5 13.5 15.1716 13.5 16C13.5 16.8284 14.1716 17.5 15 17.5C15.8284 17.5 16.5 16.8284 16.5 16C16.5 15.1716 15.8284 14.5 15 14.5ZM10 5C11.3976 5 12.569 5.95646 12.9023 7.25H19.25C19.6642 7.25 20 7.58579 20 8C20 8.41421 19.6642 8.75 19.25 8.75H12.9023C12.569 10.0435 11.3976 11 10 11C8.60239 11 7.43095 10.0435 7.09766 8.75H4.75C4.33579 8.75 4 8.41421 4 8C4 7.58579 4.33579 7.25 4.75 7.25H7.09766C7.43095 5.95646 8.60239 5 10 5ZM10 6.5C9.17157 6.5 8.5 7.17157 8.5 8C8.5 8.82843 9.17157 9.5 10 9.5C10.8284 9.5 11.5 8.82843 11.5 8C11.5 7.17157 10.8284 6.5 10 6.5Z" fill="black"/>
</svg>
