<svg width="24" height="24" viewBox="0 0 24 24" fill="none" xmlns="http://www.w3.org/2000/svg">
<path fill-rule="evenodd" clip-rule="evenodd" d="M12.4483 4C13.0925 3.99861 13.6573 4.40083 13.8858 4.99121H13.8868L14.294 6.04883L14.3282 6.12598C14.5133 6.49725 14.9245 6.66965 15.2979 6.55274V6.55176L16.3624 6.21875L16.4776 6.1875C17.0579 6.0539 17.6608 6.27248 18.0274 6.74219H18.0284L18.5909 7.46485L18.6592 7.56055C18.9626 8.01647 19.0056 8.60056 18.7745 9.09571L18.7208 9.2002L18.1661 10.1885C17.943 10.5861 18.0603 11.087 18.417 11.3379L19.337 11.9814H19.336C19.8258 12.3235 20.0683 12.9129 19.9834 13.4912L19.962 13.6064L19.7618 14.5068H19.7608C19.6231 15.1223 19.1275 15.6043 18.4932 15.7031L17.3936 15.876C16.9793 15.9409 16.6594 16.3288 16.6924 16.792L16.7735 17.9297C16.8183 18.5561 16.4855 19.1587 15.9131 19.4404L15.0977 19.8428C14.5217 20.1263 13.8359 20.0194 13.3711 19.5801L12.5538 18.8066V18.8076C12.2388 18.5102 11.7602 18.5102 11.4463 18.8066L10.628 19.5801L10.627 19.5811C10.1638 20.0174 9.47843 20.1266 8.90142 19.8418V19.8428L8.08696 19.4414C7.5153 19.1592 7.18102 18.5565 7.22564 17.9287L7.30669 16.792C7.33975 16.3288 7.0198 15.9409 6.60552 15.876L5.50493 15.7041V15.7031C4.87123 15.604 4.37589 15.122 4.23931 14.5049L4.03814 13.6064L4.01665 13.4902C3.93176 12.9119 4.17512 12.3236 4.66314 11.9814L5.57134 11.3447C5.93039 11.0932 6.04776 10.5861 5.81939 10.1875L5.252 9.19825L5.25103 9.19727C4.93668 8.6477 4.98259 7.95873 5.37114 7.45606L5.92974 6.73243L5.93071 6.73145C6.3212 6.228 6.98366 6.01133 7.59966 6.20508H7.60064L8.70903 6.55274V6.55371C9.10881 6.67942 9.55194 6.47286 9.71392 6.04688L10.1114 5.00098C10.3368 4.40912 10.9006 4.00376 11.545 4.00196L12.4473 4H12.4483ZM11.5489 5.50196C11.5427 5.50212 11.5243 5.50743 11.5137 5.53516L11.1163 6.58008C10.6798 7.72799 9.43702 8.35485 8.25884 7.98438V7.9834L7.15142 7.63672L7.14946 7.63575C7.14539 7.6345 7.14099 7.63409 7.13579 7.63575C7.13035 7.63753 7.12325 7.64236 7.11626 7.65137L6.55767 8.37305C6.5417 8.39372 6.53848 8.42675 6.55278 8.45215L7.12017 9.44141L7.12114 9.44239C7.69072 10.437 7.46905 11.6998 6.61138 12.4336L6.43169 12.5732L5.52446 13.21C5.51759 13.2148 5.50991 13.2225 5.50493 13.2354L5.502 13.2773V13.2783L5.70317 14.1797V14.1807C5.70999 14.2115 5.72953 14.2204 5.73638 14.2217H5.73735L6.83794 14.3945C8.04886 14.5842 8.88939 15.6846 8.80278 16.8984L8.72173 18.0352C8.71936 18.0691 8.73862 18.0896 8.75103 18.0957H8.75005L9.5645 18.4971H9.56548C9.57037 18.4994 9.57446 18.4997 9.57915 18.499C9.58413 18.4983 9.59125 18.4963 9.59868 18.4893L10.4151 17.7168C11.3075 16.873 12.6903 16.8739 13.5831 17.7168H13.584L14.4014 18.4902C14.4085 18.4969 14.4149 18.4993 14.419 18.5C14.423 18.5006 14.4282 18.5001 14.4346 18.4971L15.25 18.0947H15.251C15.2613 18.0896 15.2797 18.0707 15.2774 18.0371V18.0361L15.1963 16.8984C15.1097 15.6847 15.9504 14.5843 17.1612 14.3945L18.2618 14.2217H18.2627C18.2695 14.2206 18.2897 14.2115 18.2969 14.1797L18.4981 13.2793L18.4952 13.2363C18.4903 13.2237 18.4837 13.2152 18.4776 13.2109H18.4766L17.5577 12.5674L17.5567 12.5664C16.5588 11.8666 16.2632 10.5128 16.8584 9.45313L17.4131 8.46582L17.4219 8.42481C17.4208 8.40931 17.4152 8.3967 17.4083 8.3877L17.4073 8.38672L16.8448 7.66407C16.8378 7.6554 16.8305 7.65205 16.8252 7.65039C16.8201 7.64877 16.8151 7.64899 16.8106 7.65039L15.7461 7.9834C14.5715 8.35133 13.3353 7.72964 12.8946 6.58985V6.58887L12.4874 5.53223L12.4678 5.50586C12.4609 5.50116 12.4542 5.5 12.4512 5.5L11.5489 5.50196ZM9.87896 9.87891C11.0504 8.70745 12.9497 8.70747 14.1211 9.87891C15.2926 11.0504 15.2926 12.9496 14.1211 14.1211C12.9497 15.2925 11.0504 15.2926 9.87896 14.1211C8.70752 12.9496 8.70752 11.0504 9.87896 9.87891ZM13.0606 10.9395C12.4749 10.3538 11.5252 10.3538 10.9395 10.9395C10.3539 11.5251 10.3539 12.4749 10.9395 13.0606C11.5252 13.6462 12.4749 13.6462 13.0606 13.0606C13.6463 12.4749 13.6463 11.5251 13.0606 10.9395Z" fill="black"/>
</svg>
