<svg width="24" height="24" viewBox="0 0 24 24" fill="none" xmlns="http://www.w3.org/2000/svg">
<path d="M12.1289 4C13.0028 4.00022 13.7428 4.64504 13.8623 5.51074L13.9492 6.14258C13.9609 6.22693 14.036 6.3508 14.2148 6.42188C14.2792 6.44743 14.3431 6.47427 14.4062 6.50195C14.5821 6.57897 14.7228 6.5452 14.791 6.49414L15.0986 6.26367C15.7952 5.74125 16.7699 5.81034 17.3857 6.42578L17.5742 6.61328C18.19 7.22909 18.2589 8.20466 17.7363 8.90137L17.5059 9.20898C17.4548 9.27718 17.421 9.41787 17.498 9.59375C17.5257 9.65693 17.5526 9.72084 17.5781 9.78516C17.6492 9.96396 17.7731 10.0391 17.8574 10.0508L18.4893 10.1377C19.355 10.2572 19.9998 10.9972 20 11.8711V12.1289C19.9998 13.0028 19.355 13.7428 18.4893 13.8623L17.8574 13.9492C17.7731 13.9609 17.6492 14.036 17.5781 14.2148C17.5526 14.2791 17.5257 14.3431 17.498 14.4062C17.421 14.5821 17.4548 14.7228 17.5059 14.791L17.7363 15.0986C18.2587 15.7952 18.1897 16.7699 17.5742 17.3857L17.3867 17.5742C16.7709 18.19 15.7953 18.2589 15.0986 17.7363L14.791 17.5059C14.7228 17.4548 14.5821 17.421 14.4062 17.498C14.3431 17.5257 14.2792 17.5526 14.2148 17.5781C14.036 17.6492 13.9609 17.7731 13.9492 17.8574L13.8623 18.4893C13.7428 19.355 13.0028 19.9998 12.1289 20H11.8711C10.9972 19.9998 10.2572 19.355 10.1377 18.4893L10.0508 17.8574C10.0391 17.7731 9.96396 17.6492 9.78516 17.5781C9.72085 17.5526 9.65693 17.5257 9.59375 17.498C9.41787 17.421 9.27718 17.4548 9.20898 17.5059L8.90137 17.7363C8.20466 18.2589 7.22909 18.19 6.61328 17.5742L6.42578 17.3867C5.80997 16.7709 5.74114 15.7953 6.26367 15.0986L6.49414 14.791C6.5452 14.7228 6.57897 14.5821 6.50195 14.4062C6.47427 14.3431 6.44743 14.2791 6.42188 14.2148C6.3508 14.036 6.22693 13.9609 6.14258 13.9492L5.51074 13.8623C4.64504 13.7428 4.00022 13.0028 4 12.1289V11.8711C4.00022 10.9972 4.64504 10.2572 5.51074 10.1377L6.14258 10.0508C6.22693 10.0391 6.3508 9.96395 6.42188 9.78516C6.44743 9.72085 6.47427 9.65693 6.50195 9.59375C6.57897 9.41787 6.5452 9.27718 6.49414 9.20898L6.26367 8.90137C5.74114 8.20466 5.80997 7.22909 6.42578 6.61328L6.61328 6.42578C7.22909 5.80997 8.20466 5.74114 8.90137 6.26367L9.20898 6.49414C9.27718 6.5452 9.41787 6.57897 9.59375 6.50195C9.65693 6.47427 9.72085 6.44743 9.78516 6.42188C9.96396 6.3508 10.0391 6.22693 10.0508 6.14258L10.1377 5.51074C10.2572 4.64504 10.9972 4.00022 11.8711 4H12.1289ZM11.8711 5.5C11.7464 5.50022 11.6411 5.59229 11.624 5.71582L11.5371 6.34766C11.4376 7.06935 10.9162 7.58699 10.3389 7.81641C10.2909 7.83546 10.2434 7.85533 10.1963 7.87598C9.62672 8.12554 8.89166 8.13163 8.30859 7.69434L8.00098 7.46387C7.9016 7.38933 7.7628 7.39872 7.6748 7.48633L7.48633 7.6748C7.39873 7.7628 7.38933 7.9016 7.46387 8.00098L7.69434 8.30859C8.13163 8.89166 8.12554 9.62672 7.87598 10.1963C7.85533 10.2434 7.83546 10.2909 7.81641 10.3389C7.58699 10.9162 7.06935 11.4376 6.34766 11.5371L5.71582 11.624C5.59229 11.6411 5.50022 11.7464 5.5 11.8711V12.1289C5.50022 12.2536 5.59229 12.3589 5.71582 12.376L6.34766 12.4629C7.06935 12.5624 7.58699 13.0838 7.81641 13.6611C7.83546 13.7091 7.85533 13.7566 7.87598 13.8037C8.12554 14.3733 8.13163 15.1083 7.69434 15.6914L7.46387 15.999C7.38933 16.0984 7.39873 16.2372 7.48633 16.3252L7.6748 16.5137C7.7628 16.6013 7.9016 16.6107 8.00098 16.5361L8.30859 16.3057C8.89166 15.8684 9.62672 15.8745 10.1963 16.124C10.2434 16.1447 10.2909 16.1645 10.3389 16.1836C10.9162 16.413 11.4376 16.9307 11.5371 17.6523L11.624 18.2842C11.6411 18.4077 11.7464 18.4998 11.8711 18.5H12.1289C12.2536 18.4998 12.3589 18.4077 12.376 18.2842L12.4629 17.6523C12.5624 16.9307 13.0838 16.413 13.6611 16.1836C13.7091 16.1645 13.7566 16.1447 13.8037 16.124C14.3733 15.8745 15.1083 15.8684 15.6914 16.3057L15.999 16.5361C16.0984 16.6107 16.2372 16.6013 16.3252 16.5137L16.5137 16.3252C16.6013 16.2372 16.6107 16.0984 16.5361 15.999L16.3057 15.6914C15.8684 15.1083 15.8745 14.3733 16.124 13.8037C16.1447 13.7566 16.1645 13.7091 16.1836 13.6611C16.413 13.0838 16.9307 12.5624 17.6523 12.4629L18.2842 12.376C18.4077 12.3589 18.4998 12.2536 18.5 12.1289V11.8711C18.4998 11.7464 18.4077 11.6411 18.2842 11.624L17.6523 11.5371C16.9307 11.4376 16.413 10.9162 16.1836 10.3389C16.1645 10.2909 16.1447 10.2434 16.124 10.1963C15.8745 9.62672 15.8684 8.89166 16.3057 8.30859L16.5361 8.00098C16.6107 7.9016 16.6013 7.7628 16.5137 7.6748L16.3252 7.48633C16.2372 7.39873 16.0984 7.38933 15.999 7.46387L15.6914 7.69434C15.1083 8.13164 14.3733 8.12554 13.8037 7.87598C13.7566 7.85533 13.7091 7.83546 13.6611 7.81641C13.0838 7.58699 12.5624 7.06935 12.4629 6.34766L12.376 5.71582C12.3589 5.59229 12.2536 5.50022 12.1289 5.5H11.8711ZM12 10C13.1046 10 14 10.8954 14 12C14 13.1046 13.1046 14 12 14C10.8954 14 10 13.1046 10 12C10 10.8954 10.8954 10 12 10ZM12 11.5C11.7239 11.5 11.5 11.7239 11.5 12C11.5 12.2761 11.7239 12.5 12 12.5C12.2761 12.5 12.5 12.2761 12.5 12C12.5 11.7239 12.2761 11.5 12 11.5Z" fill="black"/>
</svg>
