<svg width="24" height="24" viewBox="0 0 24 24" fill="none" xmlns="http://www.w3.org/2000/svg">
<path d="M19 18.5C19.4142 18.5 19.75 18.8358 19.75 19.25C19.75 19.6642 19.4142 20 19 20H5C4.58579 20 4.25 19.6642 4.25 19.25C4.25 18.8358 4.58579 18.5 5 18.5H19ZM17 12C17.4142 12 17.75 12.3358 17.75 12.75C17.75 13.3349 17.8691 13.6983 18 13.9238C18.1286 14.1453 18.2931 14.2768 18.46 14.3604C18.6345 14.4476 18.8193 14.4853 18.9678 14.499C19.0401 14.5057 19.0988 14.5067 19.1357 14.5059C19.1511 14.5055 19.1624 14.5043 19.1689 14.5039C19.5798 14.4592 19.9493 14.756 19.9951 15.167C20.0409 15.5786 19.7446 15.9493 19.333 15.9951L19.25 15.25C19.3262 15.9357 19.332 15.9907 19.332 15.9951L19.3311 15.9961H19.3242C19.3207 15.9964 19.3162 15.9966 19.3115 15.9971C19.3023 15.9979 19.2909 15.999 19.2773 16C19.2501 16.0019 19.2141 16.0039 19.1709 16.0049C19.0849 16.0069 18.9675 16.006 18.8291 15.9932C18.5558 15.9678 18.1778 15.8959 17.79 15.7021C17.5008 15.5575 17.2109 15.3454 16.9609 15.0449C16.6694 15.3624 16.3331 15.5771 16.0078 15.7188C15.5864 15.9023 15.1765 15.9703 14.8809 15.9941C14.7309 16.0062 14.6037 16.0068 14.5117 16.0049C14.4755 16.0041 14.4443 16.0023 14.4189 16.001C14.3943 16.0024 14.3639 16.0041 14.3291 16.0049C14.2402 16.0068 14.1186 16.0056 13.9746 15.9932C13.6904 15.9687 13.2963 15.8993 12.8916 15.7109C12.5846 15.568 12.2707 15.3558 12 15.0469C11.7293 15.3558 11.4154 15.568 11.1084 15.7109C10.7037 15.8993 10.3096 15.9687 10.0254 15.9932C9.88144 16.0056 9.75976 16.0068 9.6709 16.0049C9.63563 16.0041 9.60495 16.0024 9.58008 16.001C9.55487 16.0023 9.52409 16.0041 9.48828 16.0049C9.39631 16.0068 9.26913 16.0062 9.11914 15.9941C8.82349 15.9703 8.4136 15.9023 7.99219 15.7188C7.66677 15.577 7.32972 15.3627 7.03809 15.0449C6.78824 15.3452 6.49906 15.5576 6.20996 15.7021C5.82224 15.8959 5.4442 15.9678 5.1709 15.9932C5.03247 16.006 4.91511 16.0069 4.8291 16.0049C4.78592 16.0039 4.74988 16.0019 4.72266 16C4.70915 15.999 4.69771 15.9979 4.68848 15.9971C4.68384 15.9966 4.67929 15.9964 4.67578 15.9961H4.66895L4.66797 15.9951C4.66804 15.9907 4.67382 15.9357 4.75 15.25L4.66699 15.9951C4.25543 15.9493 3.95915 15.5786 4.00488 15.167C4.05063 14.7564 4.41958 14.4598 4.83008 14.5039C4.83647 14.5043 4.84808 14.5055 4.86426 14.5059C4.90125 14.5067 4.95993 14.5057 5.03223 14.499C5.1807 14.4853 5.36547 14.4476 5.54004 14.3604C5.70691 14.2768 5.87143 14.1453 6 13.9238C6.13088 13.6983 6.25 13.3349 6.25 12.75C6.25 12.3358 6.58579 12 7 12C7.41421 12 7.75 12.3358 7.75 12.75C7.75 13.3166 7.88128 13.6656 8.02734 13.8848C8.17422 14.1051 8.37204 14.2484 8.59082 14.3438C8.81513 14.4414 9.05153 14.4828 9.24023 14.498C9.33233 14.5055 9.40777 14.5069 9.45703 14.5059C9.4814 14.5054 9.49927 14.5045 9.50879 14.5039C9.5099 14.5038 9.51084 14.503 9.51172 14.5029V14.5039C9.55949 14.4993 9.60751 14.4993 9.65527 14.5039L9.6543 14.5029C9.65502 14.503 9.65663 14.5037 9.65918 14.5039C9.66687 14.5044 9.68263 14.5054 9.7041 14.5059C9.74737 14.5068 9.81428 14.5061 9.89648 14.499C10.0654 14.4845 10.2761 14.4444 10.4756 14.3516C10.6683 14.2618 10.8489 14.1245 10.9863 13.9043C11.1247 13.6824 11.25 13.3261 11.25 12.75C11.25 12.3358 11.5858 12 12 12C12.4142 12 12.75 12.3358 12.75 12.75C12.75 13.3261 12.8753 13.6824 13.0137 13.9043C13.1511 14.1245 13.3317 14.2618 13.5244 14.3516C13.7239 14.4444 13.9346 14.4845 14.1035 14.499C14.1857 14.5061 14.2526 14.5068 14.2959 14.5059C14.3168 14.5054 14.332 14.5044 14.3398 14.5039H14.3408C14.3434 14.5037 14.345 14.503 14.3457 14.5029L14.3447 14.5039H14.4883L14.4873 14.5029C14.4884 14.503 14.4897 14.5038 14.4912 14.5039C14.5007 14.5045 14.5186 14.5054 14.543 14.5059C14.5922 14.5069 14.6677 14.5055 14.7598 14.498C14.9485 14.4828 15.1849 14.4414 15.4092 14.3438C15.628 14.2484 15.8258 14.1051 15.9727 13.8848C16.1187 13.6656 16.25 13.3166 16.25 12.75C16.25 12.3358 16.5858 12 17 12ZM11.25 4C11.2808 4 11.311 4.00226 11.3408 4.00586C11.3932 4.00222 11.4462 4 11.5 4C13.0452 4 14 5.52948 14 7C14 8.47052 13.0452 10 11.5 10C11.4462 10 11.3932 9.99681 11.3408 9.99316C11.311 9.99677 11.2808 10 11.25 10H4.75C4.33579 10 4 9.66421 4 9.25C4 8.83579 4.33579 8.5 4.75 8.5H9.33887C9.11954 8.03816 9 7.51593 9 7C9 6.48407 9.11954 5.96184 9.33887 5.5H4.75C4.33579 5.5 4 5.16421 4 4.75C4 4.33579 4.33579 4 4.75 4H11.25ZM11.5 5.5C11.1122 5.5 10.5 5.98524 10.5 7C10.5 8.01476 11.1122 8.5 11.5 8.5C11.8878 8.5 12.5 8.01476 12.5 7C12.5 5.98524 11.8878 5.5 11.5 5.5Z" fill="black"/>
</svg>
