<svg width="24" height="24" viewBox="0 0 24 24" fill="none" xmlns="http://www.w3.org/2000/svg">
<path fill-rule="evenodd" clip-rule="evenodd" d="M8.91739 10.1318C10.3153 9.53862 11.9304 10.191 12.5238 11.5889L13.891 14.8105C14.4842 16.2084 13.8317 17.8235 12.434 18.417L9.21231 19.7842C7.81441 20.3775 6.20038 19.7249 5.60684 18.3271L4.23868 15.1055C3.6455 13.7076 4.29795 12.0935 5.69571 11.5L8.91739 10.1318ZM11.143 12.1748C10.8732 11.5396 10.1386 11.2432 9.50332 11.5127L6.28164 12.8809C5.64652 13.1507 5.34995 13.8842 5.61953 14.5195L6.9877 17.7412C7.25757 18.3764 7.99102 18.673 8.62637 18.4033L11.8481 17.0361C12.4832 16.7663 12.7796 16.0318 12.5102 15.3965L11.143 12.1748ZM7.50039 5.38574C10.6147 3.26233 14.8938 3.58014 17.6566 6.34277C20.7808 9.46697 20.7808 14.6561 17.6566 17.7803C17.3638 18.0731 16.889 18.0731 16.5961 17.7803C16.3033 17.4874 16.3033 17.0126 16.5961 16.7197C19.1345 14.1813 19.1345 9.94173 16.5961 7.40332C14.4075 5.21497 11.046 4.9144 8.53457 6.5H9.25039C9.66441 6.50023 10.0004 6.83593 10.0004 7.25C10.0004 7.66407 9.66441 7.99977 9.25039 8H6.75039C6.33618 8 6.00039 7.66421 6.00039 7.25V4.75C6.00039 4.33579 6.33618 4 6.75039 4C7.16441 4.00023 7.50039 4.33593 7.50039 4.75V5.38574Z" fill="black"/>
</svg>
