<svg width="24" height="24" viewBox="0 0 24 24" fill="none" xmlns="http://www.w3.org/2000/svg">
<path d="M7.25 4C8.2165 4 9 4.7835 9 5.75V6H15V5.75C15 4.7835 15.7835 4 16.75 4H18.25C19.2165 4 20 4.7835 20 5.75V7.25C20 8.2165 19.2165 9 18.25 9H18V15H18.25C19.2165 15 20 15.7835 20 16.75V18.25C20 19.2165 19.2165 20 18.25 20H16.75C15.7835 20 15 19.2165 15 18.25V18H9V18.25C9 19.2165 8.2165 20 7.25 20H5.75C4.7835 20 4 19.2165 4 18.25V16.75C4 15.7835 4.7835 15 5.75 15H6V9H5.75C4.7835 9 4 8.2165 4 7.25V5.75C4 4.7835 4.7835 4 5.75 4H7.25ZM5.75 16.5C5.61193 16.5 5.5 16.6119 5.5 16.75V18.25C5.5 18.3881 5.61193 18.5 5.75 18.5H7.25C7.38807 18.5 7.5 18.3881 7.5 18.25V16.75C7.5 16.6119 7.38807 16.5 7.25 16.5H5.75ZM16.75 16.5C16.6119 16.5 16.5 16.6119 16.5 16.75V18.25C16.5 18.3881 16.6119 18.5 16.75 18.5H18.25C18.3881 18.5 18.5 18.3881 18.5 18.25V16.75C18.5 16.6119 18.3881 16.5 18.25 16.5H16.75ZM8.98047 7.5C8.87076 8.26617 8.26615 8.86973 7.5 8.97949V15.0195C8.26622 15.1292 8.87076 15.7338 8.98047 16.5H15.0195C15.1292 15.7338 15.7338 15.1292 16.5 15.0195V8.97949C15.7338 8.86973 15.1292 8.26617 15.0195 7.5H8.98047ZM5.75 5.5C5.61193 5.5 5.5 5.61193 5.5 5.75V7.25C5.5 7.38807 5.61193 7.5 5.75 7.5H7.25C7.38807 7.5 7.5 7.38807 7.5 7.25V5.75C7.5 5.61193 7.38807 5.5 7.25 5.5H5.75ZM16.75 5.5C16.6119 5.5 16.5 5.61193 16.5 5.75V7.25C16.5 7.38807 16.6119 7.5 16.75 7.5H18.25C18.3881 7.5 18.5 7.38807 18.5 7.25V5.75C18.5 5.61193 18.3881 5.5 18.25 5.5H16.75Z" fill="black"/>
</svg>
