<svg width="24" height="24" viewBox="0 0 24 24" fill="none" xmlns="http://www.w3.org/2000/svg">
<path d="M8.25 10C8.66421 10 9 10.3358 9 10.75C9 11.1642 8.66421 11.5 8.25 11.5H7.75C7.05964 11.5 6.5 12.0596 6.5 12.75V17.25C6.5 17.9404 7.05964 18.5 7.75 18.5H16.25C16.9404 18.5 17.5 17.9404 17.5 17.25V12.75C17.5 12.0596 16.9404 11.5 16.25 11.5H15.75C15.3358 11.5 15 11.1642 15 10.75C15 10.3358 15.3358 10 15.75 10H16.25C17.7688 10 19 11.2312 19 12.75V17.25C19 18.7688 17.7688 20 16.25 20H7.75C6.23122 20 5 18.7688 5 17.25V12.75C5 11.2312 6.23122 10 7.75 10H8.25ZM12 4C12.2126 4 12.4154 4.09004 12.5576 4.24805L14.8076 6.74805C15.0847 7.05591 15.0598 7.53052 14.752 7.80762C14.4441 8.0847 13.9695 8.05978 13.6924 7.75195L12.75 6.7041V14.25C12.75 14.6642 12.4142 15 12 15C11.5858 15 11.25 14.6642 11.25 14.25V6.7041L10.3076 7.75195C10.0305 8.05978 9.55591 8.0847 9.24805 7.80762C8.94022 7.53052 8.9153 7.05591 9.19238 6.74805L11.4424 4.24805L11.499 4.19238C11.636 4.06933 11.814 4 12 4Z" fill="black"/>
</svg>
