<svg width="24" height="24" viewBox="0 0 24 24" fill="none" xmlns="http://www.w3.org/2000/svg">
<path d="M17 4C18.6569 4 20 5.34315 20 7C20 8.65685 18.6569 10 17 10C16.1795 10 15.4371 9.66947 14.8955 9.13574C14.8683 9.15261 14.8404 9.16902 14.8105 9.18262L9.93945 11.3965C9.97927 11.5914 10 11.7933 10 12C10 12.3676 9.93055 12.7185 9.80957 13.0439L14.5908 15.2168C15.1374 14.4796 16.0118 14 17 14C18.6569 14 20 15.3431 20 17C20 18.6569 18.6569 20 17 20C15.3431 20 14 18.6569 14 17C14 16.8669 14.0086 16.7359 14.0254 16.6074L8.93164 14.293C8.40957 14.7332 7.73638 15 7 15C5.34315 15 4 13.6569 4 12C4 10.3431 5.34315 9 7 9C7.91175 9 8.72713 9.40789 9.27734 10.0498L14.123 7.84668C14.0441 7.57802 14 7.29421 14 7C14 5.34315 15.3431 4 17 4ZM17 15.5C16.1716 15.5 15.5 16.1716 15.5 17C15.5 17.8284 16.1716 18.5 17 18.5C17.8284 18.5 18.5 17.8284 18.5 17C18.5 16.1716 17.8284 15.5 17 15.5ZM7 10.5C6.17157 10.5 5.5 11.1716 5.5 12C5.5 12.8284 6.17157 13.5 7 13.5C7.82843 13.5 8.5 12.8284 8.5 12C8.5 11.799 8.45938 11.6078 8.3877 11.4326C8.36104 11.3948 8.33724 11.3542 8.31738 11.3105C8.30551 11.2844 8.29481 11.2581 8.28613 11.2314C8.02411 10.7939 7.5471 10.5 7 10.5ZM17 5.5C16.1716 5.5 15.5 6.17157 15.5 7C15.5 7.82843 16.1716 8.5 17 8.5C17.8284 8.5 18.5 7.82843 18.5 7C18.5 6.17157 17.8284 5.5 17 5.5Z" fill="black"/>
</svg>
