<svg width="24" height="24" viewBox="0 0 24 24" fill="none" xmlns="http://www.w3.org/2000/svg">
<path d="M18.25 4C19.2165 4 20 4.7835 20 5.75V12C20 16.4183 16.4183 20 12 20C7.58172 20 4 16.4183 4 12V5.75C4 4.7835 4.7835 4 5.75 4H18.25ZM5.75 5.5C5.61193 5.5 5.5 5.61193 5.5 5.75V12C5.5 15.5899 8.41015 18.5 12 18.5C15.5899 18.5 18.5 15.5899 18.5 12V5.75C18.5 5.61193 18.3881 5.5 18.25 5.5H5.75ZM14.25 7C14.6642 7 15 7.33579 15 7.75C15 8.16421 14.6642 8.5 14.25 8.5H11.75C11.0596 8.5 10.5 9.05964 10.5 9.75V10H15.25C15.6642 10 16 10.3358 16 10.75V13.25C16 14.7688 14.7688 16 13.25 16H10.75C9.23122 16 8 14.7688 8 13.25V10.75C8 10.3358 8.33579 10 8.75 10H9V9.75C9 8.23122 10.2312 7 11.75 7H14.25ZM9.5 13.25C9.5 13.9404 10.0596 14.5 10.75 14.5H13.25C13.9404 14.5 14.5 13.9404 14.5 13.25V11.5H9.5V13.25Z" fill="black"/>
</svg>
