<svg width="24" height="24" viewBox="0 0 24 24" fill="none" xmlns="http://www.w3.org/2000/svg">
<path fill-rule="evenodd" clip-rule="evenodd" d="M11.7676 4.03705C11.9437 3.97959 12.1359 3.98891 12.3066 4.06537L19.5566 7.31537C19.8099 7.42889 19.9796 7.67324 19.998 7.95013L19.25 7.99994C19.934 7.95434 19.993 7.95114 19.998 7.95111L19.999 7.95209V7.96283C19.9994 7.96963 20.0003 7.97927 20.001 7.99115C20.0023 8.01529 20.0039 8.0497 20.0058 8.09369C20.0096 8.18237 20.014 8.31058 20.0166 8.47162C20.0217 8.79346 20.0195 9.25019 19.9912 9.79681C19.9347 10.8859 19.7731 12.3533 19.3457 13.8329C18.9197 15.3075 18.2148 16.8457 17.0381 18.0224C15.8418 19.2186 14.1976 19.9999 12 19.9999C9.80241 19.9999 8.1581 19.2186 6.96189 18.0224C5.7852 16.8457 5.08026 15.3075 4.65428 13.8329C4.22686 12.3533 4.06525 10.8859 4.00877 9.79681C3.98043 9.2502 3.97827 8.79346 3.98338 8.47162C3.98593 8.31058 3.99031 8.18237 3.99412 8.09369C3.99601 8.04971 3.99767 8.0153 3.999 7.99115C3.99966 7.97928 4.00054 7.96963 4.00096 7.96283C4.00117 7.95941 4.0018 7.9561 4.00193 7.95404V7.95111C4.00196 7.95077 4.00179 7.95006 4.74998 7.99994L4.00193 7.95013C4.02039 7.67324 4.19011 7.42889 4.44334 7.31537L11.6933 4.06537L11.7676 4.03705ZM5.48338 8.4931V9.02631C5.48654 9.23207 5.49365 9.46467 5.50682 9.71869C5.55972 10.7389 5.71068 12.0842 6.09568 13.4169C6.48218 14.7547 7.08987 16.0293 8.02244 16.9619C8.93556 17.875 10.1977 18.4999 12 18.4999C13.8023 18.4999 15.0644 17.875 15.9775 16.9619C16.9101 16.0293 17.5178 14.7548 17.9043 13.4169C18.2893 12.0842 18.4402 10.7389 18.4931 9.71869C18.5195 9.21082 18.5212 8.7884 18.5166 8.49506L18.5156 8.4931L12 5.57123L5.48338 8.4931ZM12 13.9999C12.5523 13.9999 13 14.4477 13 14.9999C13 15.5522 12.5523 15.9999 12 15.9999C11.4478 15.9998 11 15.5521 11 14.9999C11 14.4477 11.4478 14.0001 12 13.9999ZM13 11.9999H11V7.99994H13V11.9999Z" fill="black"/>
</svg>
