<svg width="24" height="24" viewBox="0 0 24 24" fill="none" xmlns="http://www.w3.org/2000/svg">
<path d="M16.25 4C16.4937 4 16.7227 4.11829 16.8633 4.31738L19.4971 8.04883C19.8246 8.51279 20 9.06686 20 9.63477V17.25C20 18.7688 18.7688 20 17.25 20H6.75C5.23122 20 4 18.7688 4 17.25V9.63477C4 9.06691 4.17549 8.51277 4.50293 8.04883L7.1377 4.31738L7.19434 4.24707C7.33555 4.09102 7.53676 4 7.75 4H16.25ZM5.5 17.25C5.5 17.9404 6.05964 18.5 6.75 18.5H17.25C17.9404 18.5 18.5 17.9404 18.5 17.25V10H5.5V17.25ZM12.75 8.5H17.9795L15.8613 5.5H12.75V8.5ZM6.02051 8.5H11.25V5.5H8.13867L6.02051 8.5Z" fill="black"/>
</svg>
