<svg width="24" height="24" viewBox="0 0 24 24" fill="none" xmlns="http://www.w3.org/2000/svg">
<path d="M12.25 4C14.3211 4 16 5.67894 16 7.75V9H19.25C19.6642 9 20 9.33579 20 9.75C20 10.1642 19.6642 10.5 19.25 10.5H18.8574L18.4521 12.4062C18.3659 12.8112 17.9675 13.0695 17.5625 12.9834C17.1576 12.8971 16.8993 12.4988 16.9854 12.0938L17.3242 10.5H6.6748L8.14941 17.5078C8.27129 18.0861 8.78203 18.5 9.37305 18.5H11.25C11.6642 18.5 12 18.8358 12 19.25C12 19.6642 11.6642 20 11.25 20H9.37305C8.07259 20 6.94954 19.089 6.68164 17.8164L5.14062 10.5H4.75C4.33579 10.5 4 10.1642 4 9.75C4 9.33579 4.33579 9 4.75 9H8V7.75C8 5.67894 9.67888 4 11.75 4H12.25ZM18.9551 15.0605C19.3042 14.9107 19.7167 15.0465 19.9053 15.3857C20.1064 15.7478 19.9762 16.2041 19.6143 16.4053C19.6122 16.4065 19.6076 16.4096 19.6016 16.4131C19.5895 16.4201 19.5699 16.4314 19.5439 16.4473C19.4908 16.4798 19.4105 16.5313 19.3105 16.5996C19.11 16.7368 18.8324 16.9421 18.5342 17.2119C17.93 17.7585 17.2808 18.5306 16.9619 19.4873C16.8797 19.7339 16.6749 19.9198 16.4219 19.9795C16.169 20.0391 15.9034 19.964 15.7197 19.7803L14.2197 18.2803C13.9268 17.9874 13.9268 17.5126 14.2197 17.2197C14.5126 16.9268 14.9874 16.9268 15.2803 17.2197L16.0137 17.9531C16.4576 17.1727 17.0285 16.5528 17.5283 16.1006C17.8862 15.7768 18.2181 15.5288 18.4629 15.3613C18.5853 15.2776 18.687 15.2135 18.7598 15.1689C18.7961 15.1467 18.8255 15.1286 18.8467 15.1162C18.8573 15.11 18.8666 15.1052 18.873 15.1016C18.8762 15.0998 18.8787 15.0979 18.8809 15.0967C18.8819 15.0961 18.883 15.0961 18.8838 15.0957L18.8848 15.0947H18.8857L18.9551 15.0605ZM11.75 5.5C10.5073 5.5 9.5 6.50736 9.5 7.75V9H14.5V7.75C14.5 6.50736 13.4927 5.5 12.25 5.5H11.75Z" fill="black"/>
</svg>
