<svg width="24" height="24" viewBox="0 0 24 24" fill="none" xmlns="http://www.w3.org/2000/svg">
<path d="M12.25 4C14.3211 4 16 5.67894 16 7.75V9H19.25C19.6642 9 20 9.33579 20 9.75C20 10.1642 19.6642 10.5 19.25 10.5H18.8574L18.4521 12.4062C18.3659 12.8112 17.9675 13.0695 17.5625 12.9834C17.1576 12.8971 16.8993 12.4988 16.9854 12.0938L17.3242 10.5H6.6748L8.14941 17.5078C8.27129 18.0861 8.78203 18.5 9.37305 18.5H11.25C11.6642 18.5 12 18.8358 12 19.25C12 19.6642 11.6642 20 11.25 20H9.37305C8.07259 20 6.94954 19.089 6.68164 17.8164L5.14062 10.5H4.75C4.33579 10.5 4 10.1642 4 9.75C4 9.33579 4.33579 9 4.75 9H8V7.75C8 5.67894 9.67888 4 11.75 4H12.25ZM18.7197 15.2197C19.0126 14.9268 19.4874 14.9268 19.7803 15.2197C20.0732 15.5126 20.0732 15.9874 19.7803 16.2803L18.5605 17.5L19.7803 18.7197C20.0732 19.0126 20.0732 19.4874 19.7803 19.7803C19.4874 20.0732 19.0126 20.0732 18.7197 19.7803L17.5 18.5605L16.2803 19.7803C15.9874 20.0732 15.5126 20.0732 15.2197 19.7803C14.9268 19.4874 14.9268 19.0126 15.2197 18.7197L16.4395 17.5L15.2197 16.2803C14.9268 15.9874 14.9268 15.5126 15.2197 15.2197C15.5126 14.9268 15.9874 14.9268 16.2803 15.2197L17.5 16.4395L18.7197 15.2197ZM11.75 5.5C10.5073 5.5 9.5 6.50736 9.5 7.75V9H14.5V7.75C14.5 6.50736 13.4927 5.5 12.25 5.5H11.75Z" fill="black"/>
</svg>
