<svg width="24" height="24" viewBox="0 0 24 24" fill="none" xmlns="http://www.w3.org/2000/svg">
<path fill-rule="evenodd" clip-rule="evenodd" d="M16.2499 4C16.5007 4 16.7349 4.12534 16.874 4.33398L18.874 7.33398C18.898 7.37007 18.9174 7.40796 18.9345 7.44629C18.9369 7.4516 18.9401 7.45654 18.9423 7.46191C18.9647 7.51556 18.9789 7.57108 18.9882 7.62695C18.9948 7.66707 18.9999 7.708 18.9999 7.75V16.6055L19.9462 18.9717C20.0386 19.2027 20.0105 19.4649 19.871 19.6709C19.7315 19.8768 19.4987 20 19.2499 20H4.74993C4.50117 20 4.26838 19.8768 4.12883 19.6709C3.98935 19.4649 3.96129 19.2027 4.05364 18.9717L4.99993 16.6055V7.75C4.99993 7.70805 5.00405 7.66702 5.01067 7.62695C5.01993 7.57115 5.03423 7.51551 5.05657 7.46191C5.0588 7.45654 5.06203 7.4516 5.06438 7.44629C5.08147 7.40784 5.10177 7.37018 5.1259 7.33398L7.1259 4.33398L7.18254 4.25977C7.32398 4.09604 7.53054 4 7.74993 4H16.2499ZM6.49993 16.75C6.49993 16.8454 6.48161 16.9398 6.44622 17.0283L5.85735 18.5H18.1425L17.5536 17.0283C17.5182 16.9398 17.4999 16.8454 17.4999 16.75V8.5H6.49993V16.75ZM14.2499 10C14.6641 10 14.9999 10.3358 14.9999 10.75V11.75C14.9999 13.4069 13.6568 14.75 11.9999 14.75C10.3431 14.75 8.99993 13.4069 8.99993 11.75V10.75C8.99993 10.3358 9.33571 10 9.74993 10C10.1641 10 10.4999 10.3358 10.4999 10.75V11.75C10.4999 12.5784 11.1715 13.25 11.9999 13.25C12.8284 13.25 13.4999 12.5784 13.4999 11.75V10.75C13.4999 10.3358 13.8357 10 14.2499 10ZM7.15129 7H16.8486L15.8486 5.5H8.15129L7.15129 7Z" fill="black"/>
</svg>
