<svg width="24" height="24" viewBox="0 0 24 24" fill="none" xmlns="http://www.w3.org/2000/svg">
<path d="M12.25 4C14.3211 4 16 5.67893 16 7.75V9H19.25C19.6642 9 20 9.33579 20 9.75C20 10.1642 19.6642 10.5 19.25 10.5H18.8594L17.3184 17.8164C17.0505 19.089 15.9274 20 14.627 20H9.37305C8.07261 20 6.94954 19.089 6.68164 17.8164L5.14062 10.5H4.75C4.33579 10.5 4 10.1642 4 9.75C4 9.33579 4.33579 9 4.75 9H8V7.75C8 5.67893 9.67893 4 11.75 4H12.25ZM8.14941 17.5078C8.27128 18.0861 8.78202 18.5 9.37305 18.5H14.627C15.218 18.5 15.7287 18.0861 15.8506 17.5078L17.3252 10.5H6.6748L8.14941 17.5078ZM11.75 5.5C10.5074 5.5 9.5 6.50736 9.5 7.75V9H14.5V7.75C14.5 6.50736 13.4926 5.5 12.25 5.5H11.75Z" fill="black"/>
</svg>
