<svg width="24" height="24" viewBox="0 0 24 24" fill="none" xmlns="http://www.w3.org/2000/svg">
<path d="M10 18C10.5523 18 11 18.4477 11 19C11 19.5523 10.5523 20 10 20C9.44772 20 9 19.5523 9 19C9 18.4477 9.44772 18 10 18ZM17 18C17.5523 18 18 18.4477 18 19C18 19.5523 17.5523 20 17 20C16.4477 20 16 19.5523 16 19C16 18.4477 16.4477 18 17 18ZM7 4C7.34415 4 7.64407 4.23448 7.72754 4.56836L8.33496 7H19.25C19.4791 7 19.6956 7.10464 19.8379 7.28418C19.9801 7.46379 20.0329 7.69884 19.9805 7.92188L18.3428 14.8799C18.0505 16.1221 16.9421 17 15.666 17H11.5391C10.2916 16.9998 9.20023 16.16 8.88086 14.9541L7.02539 7.94238L7.02246 7.93164L6.41504 5.5H4.75C4.33579 5.5 4 5.16421 4 4.75C4 4.33579 4.33579 4 4.75 4H7ZM10.3311 14.5703C10.4763 15.1182 10.9722 15.4998 11.5391 15.5H15.666C16.2461 15.5 16.75 15.1008 16.8828 14.5361L18.3027 8.5H8.72363L10.3311 14.5703Z" fill="black"/>
</svg>
