<svg width="24" height="24" viewBox="0 0 24 24" fill="none" xmlns="http://www.w3.org/2000/svg">
<path fill-rule="evenodd" clip-rule="evenodd" d="M16.2496 4C16.6051 4 16.9117 4.24961 16.9839 4.59766L19.9839 19.0977C20.0296 19.3185 19.9739 19.5487 19.8316 19.7236C19.6892 19.8985 19.4751 20 19.2496 20H11.7496C11.3941 19.9999 11.0874 19.7503 11.0152 19.4023L10.3111 16H6.42339L5.47221 19.4492C5.36205 19.8484 4.94958 20.0827 4.55034 19.9727C4.15121 19.8624 3.91688 19.45 4.0269 19.0508L8.0269 4.55078L8.06987 4.43359C8.19121 4.17266 8.45443 4.00007 8.74956 4H16.2496ZM12.3599 18.5H18.3287L15.6392 5.5H9.67046L12.3599 18.5ZM6.83745 14.5H10.0005L8.64507 7.94727L6.83745 14.5Z" fill="black"/>
</svg>
