<svg width="24" height="24" viewBox="0 0 24 24" fill="none" xmlns="http://www.w3.org/2000/svg">
<path d="M8.44629 4C9.17996 4.00003 9.87526 4.32963 10.3398 4.89746L11.8672 6.76562C13.5367 5.61423 15.8416 5.78146 17.3271 7.2666L17.8271 7.7666C18.1196 8.05953 18.1199 8.53442 17.8271 8.82715L12.8271 13.8271C12.5344 14.1199 12.0595 14.1196 11.7666 13.8271L11.2666 13.3271C9.76844 11.8286 9.6111 9.49609 10.7959 7.82324L9.17871 5.84668C8.99902 5.62713 8.73 5.50003 8.44629 5.5C7.92371 5.5 7.5 5.92371 7.5 6.44629V19.25C7.5 19.6642 7.16421 20 6.75 20C6.33579 20 6 19.6642 6 19.25V6.44629C6 5.09529 7.09529 4 8.44629 4ZM14.2197 14.2197C14.5126 13.9268 14.9874 13.9268 15.2803 14.2197L15.7803 14.7197C16.0732 15.0126 16.0732 15.4874 15.7803 15.7803C15.4874 16.0732 15.0126 16.0732 14.7197 15.7803L14.2197 15.2803C13.9268 14.9874 13.9268 14.5126 14.2197 14.2197ZM16.2197 12.2197C16.5126 11.9268 16.9874 11.9268 17.2803 12.2197L17.7803 12.7197C18.0732 13.0126 18.0732 13.4874 17.7803 13.7803C17.4874 14.0732 17.0126 14.0732 16.7197 13.7803L16.2197 13.2803C15.9268 12.9874 15.9268 12.5126 16.2197 12.2197ZM16.2344 8.29785C15.1443 7.24105 13.4046 7.24974 12.3271 8.32715C11.2497 9.40456 11.241 11.1443 12.2979 12.2344L16.2344 8.29785ZM18.2197 10.2197C18.5126 9.92683 18.9874 9.92683 19.2803 10.2197L19.7803 10.7197C20.0732 11.0126 20.0732 11.4874 19.7803 11.7803C19.4874 12.0732 19.0126 12.0732 18.7197 11.7803L18.2197 11.2803C17.9268 10.9874 17.9268 10.5126 18.2197 10.2197Z" fill="black"/>
</svg>
