<svg width="24" height="24" viewBox="0 0 24 24" fill="none" xmlns="http://www.w3.org/2000/svg">
<path fill-rule="evenodd" clip-rule="evenodd" d="M7 17.2499C7.41421 17.2499 7.75 17.5857 7.75 17.9999V18.4999C7.75 18.9141 7.41421 19.2499 7 19.2499C6.58579 19.2499 6.25 18.9141 6.25 18.4999V17.9999C6.25 17.5857 6.58579 17.2499 7 17.2499ZM5.46973 6.58489C7.24958 4.80504 10.1352 4.80504 11.915 6.58489C12.5018 7.17168 12.8939 7.87896 13.0938 8.62689L19.4844 15.3232H19.4854C20.3679 16.25 20.4991 17.6865 19.8135 18.7665L19.7275 18.9023C19.6162 19.0777 19.4366 19.1989 19.2324 19.2372C19.0281 19.2755 18.8168 19.2267 18.6494 19.1034L10.5391 13.1318C10.3845 13.0955 10.2121 13.0492 10.0264 12.9872C9.25654 12.7302 8.25614 12.2229 7.2666 11.2333C6.27706 10.2438 5.76978 9.24339 5.5127 8.47357C5.3846 8.08995 5.31888 7.76476 5.28516 7.52923C5.26834 7.41174 5.25957 7.3161 5.25488 7.24603C5.25254 7.211 5.25169 7.18196 5.25098 7.16009C5.25063 7.14936 5.25012 7.14015 5.25 7.13275V7.11614C5.25 7.11576 5.25 7.11517 6 7.11517H5.25C5.25 6.91626 5.32908 6.72555 5.46973 6.58489ZM13.1318 10.8378C12.9891 11.4555 12.7155 12.0482 12.3125 12.5742L18.7471 17.3134C18.762 16.9642 18.6433 16.6135 18.3994 16.3574V16.3583L13.1318 10.8378ZM5 15.2499C5.41421 15.2499 5.75 15.5857 5.75 15.9999V16.4999C5.75 16.9141 5.41421 17.2499 5 17.2499C4.58579 17.2499 4.25 16.9141 4.25 16.4999V15.9999C4.25 15.5857 4.58579 15.2499 5 15.2499ZM9 15.2499C9.41421 15.2499 9.75 15.5857 9.75 15.9999V16.4999C9.75 16.9141 9.41421 17.2499 9 17.2499C8.58579 17.2499 8.25 16.9141 8.25 16.4999V15.9999C8.25 15.5857 8.58579 15.2499 9 15.2499ZM7 13.2499C7.41421 13.2499 7.75 13.5857 7.75 13.9999V14.4999C7.75 14.9141 7.41421 15.2499 7 15.2499C6.58579 15.2499 6.25 14.9141 6.25 14.4999V13.9999C6.25 13.5857 6.58579 13.2499 7 13.2499ZM5 11.2499C5.41421 11.2499 5.75 11.5857 5.75 11.9999V12.4999C5.75 12.9141 5.41421 13.2499 5 13.2499C4.58579 13.2499 4.25 12.9141 4.25 12.4999V11.9999C4.25 11.5857 4.58579 11.2499 5 11.2499ZM10.8545 7.64544C9.74296 6.53391 7.9885 6.45711 6.78809 7.41497C6.81444 7.56526 6.85759 7.76446 6.93555 7.99798C7.1276 8.57315 7.5203 9.36594 8.32715 10.1728C9.134 10.9796 9.92678 11.3723 10.502 11.5644C10.7349 11.6422 10.9338 11.6845 11.084 11.7109C12.0417 10.5105 11.966 8.75693 10.8545 7.64544Z" fill="black"/>
</svg>
