<svg width="24" height="24" viewBox="0 0 24 24" fill="none" xmlns="http://www.w3.org/2000/svg">
<path fill-rule="evenodd" clip-rule="evenodd" d="M16.1925 13.2482C16.4696 12.9404 16.9442 12.9155 17.2521 13.1925L19.7521 15.4425C19.9101 15.5848 20.0001 15.7876 20.0001 16.0001C20.0001 16.2127 19.9101 16.4155 19.7521 16.5578L17.2521 18.8078C16.9442 19.0848 16.4696 19.0599 16.1925 18.7521C15.9155 18.4442 15.9404 17.9696 16.2482 17.6925L17.3654 16.6867C15.1429 16.5064 13.5188 15.9494 12.3273 15.1349C11.9855 14.9012 11.8975 14.4348 12.131 14.0929C12.3647 13.7511 12.8311 13.6631 13.173 13.8966C14.0518 14.4974 15.324 14.9772 17.1993 15.1642L16.2482 14.3078C15.9404 14.0307 15.9155 13.556 16.1925 13.2482ZM16.1925 5.2482C16.4696 4.94038 16.9442 4.91549 17.2521 5.19253L19.7521 7.44253C19.9101 7.58476 20.0001 7.78756 20.0001 8.00015C20.0001 8.21274 19.9101 8.41554 19.7521 8.55777L17.2521 10.8078C16.9442 11.0848 16.4696 11.0599 16.1925 10.7521C15.9155 10.4442 15.9404 9.96963 16.2482 9.69253L17.1974 8.83706C15.5476 9.00846 14.3931 9.41789 13.5392 9.93179C12.4056 10.614 11.7237 11.5257 11.1056 12.5207C10.514 13.473 9.91307 14.6448 9.00403 15.506C8.03105 16.4276 6.72904 17.0001 4.75013 17.0001C4.33594 17.0001 4.00013 16.6643 4.00013 16.2501C4.00013 15.836 4.33594 15.5002 4.75013 15.5001C6.39595 15.5001 7.313 15.0412 7.97278 14.4162C8.69636 13.7305 9.14265 12.8396 9.83216 11.7296C10.4953 10.6621 11.3291 9.51125 12.7658 8.64663C13.9075 7.95951 15.3806 7.48206 17.3673 7.31558L16.2482 6.30777C15.9404 6.03067 15.9155 5.55605 16.1925 5.2482ZM4.82728 7.00405H4.83118C4.83286 7.00423 4.83539 7.00474 4.83802 7.00503C4.84354 7.00563 4.85106 7.00689 4.86048 7.00796C4.88008 7.0102 4.90836 7.01331 4.94349 7.01773C5.01371 7.02656 5.1136 7.03995 5.23646 7.05874C5.4818 7.09627 5.82245 7.15611 6.20423 7.24429C6.94325 7.415 7.93372 7.71349 8.66712 8.23062C9.00554 8.46934 9.08646 8.93804 8.84778 9.27652C8.60906 9.61492 8.14036 9.69585 7.80189 9.45718C7.3166 9.11505 6.5647 8.86653 5.86634 8.70523C5.52952 8.62744 5.22737 8.57443 5.00989 8.54116C4.90146 8.52458 4.81437 8.51335 4.75599 8.50601C4.727 8.50236 4.70467 8.4998 4.69056 8.4982C4.68383 8.49743 4.6789 8.49657 4.67591 8.49624C4.67467 8.49612 4.6735 8.4963 4.67298 8.49624C4.26101 8.45359 3.96143 8.08498 4.00404 7.673C4.04665 7.26102 4.4153 6.96149 4.82728 7.00405Z" fill="black"/>
</svg>
