<svg width="24" height="24" viewBox="0 0 24 24" fill="none" xmlns="http://www.w3.org/2000/svg">
<path d="M9.25 4C9.66421 4 10 4.33579 10 4.75V19.25C10 19.6642 9.66421 20 9.25 20H6.75C5.23122 20 4 18.7688 4 17.25V6.75C4 5.23122 5.23122 4 6.75 4H9.25ZM17.25 4C18.7688 4 20 5.23122 20 6.75V17.25C20 18.7688 18.7688 20 17.25 20H12.75C12.3358 20 12 19.6642 12 19.25C12 18.8358 12.3358 18.5 12.75 18.5H17.25C17.9404 18.5 18.5 17.9404 18.5 17.25V6.75C18.5 6.05964 17.9404 5.5 17.25 5.5H12.75C12.3358 5.5 12 5.16421 12 4.75C12 4.33579 12.3358 4 12.75 4H17.25ZM6.75 5.5C6.05964 5.5 5.5 6.05964 5.5 6.75V17.25C5.5 17.9404 6.05964 18.5 6.75 18.5H8.5V5.5H6.75Z" fill="black"/>
</svg>
