<svg width="24" height="24" viewBox="0 0 24 24" fill="none" xmlns="http://www.w3.org/2000/svg">
<path d="M12 4C15.866 4 19 7.13401 19 11V14.25C19 15.7688 17.7688 17 16.25 17H15V19.25C15 19.6642 14.6642 20 14.25 20C13.8358 20 13.5 19.6642 13.5 19.25V16.25C13.5 15.8358 13.8358 15.5 14.25 15.5H16.25C16.9404 15.5 17.5 14.9404 17.5 14.25V11C17.5 7.96243 15.0376 5.5 12 5.5C8.96243 5.5 6.5 7.96243 6.5 11C6.5 11.7603 6.82443 12.5776 7.3584 13.377C7.88773 14.1693 8.58433 14.8851 9.23047 15.4238C9.40135 15.5663 9.5 15.7775 9.5 16V19.25C9.5 19.6642 9.16421 20 8.75 20C8.33579 20 8 19.6642 8 19.25V16.3447C7.3474 15.767 6.66082 15.0349 6.11035 14.2109C5.4881 13.2795 5 12.1699 5 11C5 7.13401 8.13401 4 12 4ZM14 9C14.5523 9 15 9.44772 15 10C15 10.5523 14.5523 11 14 11C13.4477 11 13 10.5523 13 10C13 9.44772 13.4477 9 14 9Z" fill="black"/>
</svg>
