<svg width="24" height="24" viewBox="0 0 24 24" fill="none" xmlns="http://www.w3.org/2000/svg">
<path d="M12 4C12.2278 4 12.4436 4.10334 12.5859 4.28125L16.3613 9H17.25C18.7688 9 20 10.2312 20 11.75V17.25C20 18.7688 18.7688 20 17.25 20H6.75C5.23122 20 4 18.7688 4 17.25V11.75C4 10.2312 5.23122 9 6.75 9H7.63867L11.4141 4.28125L11.4707 4.21875C11.6104 4.0795 11.8005 4 12 4ZM6.75 10.5C6.05964 10.5 5.5 11.0596 5.5 11.75V17.25C5.5 17.9404 6.05964 18.5 6.75 18.5H17.25C17.9404 18.5 18.5 17.9404 18.5 17.25V11.75C18.5 11.0596 17.9404 10.5 17.25 10.5H6.75ZM9.56055 9H14.4395L12 5.95117L9.56055 9Z" fill="black"/>
</svg>
