<svg width="24" height="24" viewBox="0 0 24 24" fill="none" xmlns="http://www.w3.org/2000/svg">
<path d="M10.75 4C11.1642 4 11.5 4.33579 11.5 4.75V6H16.25C16.4592 6 16.6588 6.08753 16.8008 6.24121L19.8008 9.49121C20.066 9.77851 20.066 10.2215 19.8008 10.5088L16.8008 13.7588C16.6588 13.9125 16.4592 14 16.25 14H11.5V19.25C11.5 19.6642 11.1642 20 10.75 20C10.3358 20 10 19.6642 10 19.25V14H5.75C4.7835 14 4 13.2165 4 12.25V7.75C4 6.7835 4.7835 6 5.75 6H10V4.75C10 4.33579 10.3358 4 10.75 4ZM5.75 7.5C5.61193 7.5 5.5 7.61193 5.5 7.75V12.25C5.5 12.3881 5.61193 12.5 5.75 12.5H15.9219L18.2295 10L15.9219 7.5H5.75Z" fill="black"/>
</svg>
