<svg width="24" height="24" viewBox="0 0 24 24" fill="none" xmlns="http://www.w3.org/2000/svg">
<path d="M15.25 5C16.2165 5 17 5.7835 17 6.75V10.6279C17.6109 11.1323 18 11.8959 18 12.75V17.25C18 17.6642 17.6642 18 17.25 18H16V18.25C16 18.6642 15.6642 19 15.25 19C14.8358 19 14.5 18.6642 14.5 18.25V18H9.5V18.25C9.5 18.6642 9.16421 19 8.75 19C8.33579 19 8 18.6642 8 18.25V18H6.75C6.33579 18 6 17.6642 6 17.25V12.75C6 11.8959 6.38906 11.1323 7 10.6279V6.75C7 5.7835 7.7835 5 8.75 5H15.25ZM8.75 11.5C8.05964 11.5 7.5 12.0596 7.5 12.75V16.5H16.5V12.75C16.5 12.0596 15.9404 11.5 15.25 11.5H8.75ZM8.75 6.5C8.61193 6.5 8.5 6.61193 8.5 6.75V10.0127C8.58238 10.0053 8.66568 10 8.75 10H9V9.75C9 8.7835 9.7835 8 10.75 8H13.25C14.2165 8 15 8.7835 15 9.75V10H15.25C15.3343 10 15.4176 10.0053 15.5 10.0127V6.75C15.5 6.61193 15.3881 6.5 15.25 6.5H8.75ZM10.75 9.5C10.6119 9.5 10.5 9.61193 10.5 9.75V10H13.5V9.75C13.5 9.61193 13.3881 9.5 13.25 9.5H10.75Z" fill="black"/>
</svg>
