<svg width="24" height="24" viewBox="0 0 24 24" fill="none" xmlns="http://www.w3.org/2000/svg">
<path fill-rule="evenodd" clip-rule="evenodd" d="M19.2501 18.5001C19.6643 18.5001 20.0001 18.8359 20.0001 19.2501C20.0001 19.6643 19.6643 20.0001 19.2501 20.0001H4.75007C4.33586 20.0001 4.00007 19.6643 4.00007 19.2501C4.00008 18.8359 4.33587 18.5001 4.75007 18.5001H19.2501ZM7.00007 13.0001C8.10463 13.0001 9.00006 13.8955 9.00007 15.0001C9.00007 16.1046 8.10464 17.0001 7.00007 17.0001C5.89551 17.0001 5.00007 16.1046 5.00007 15.0001C5.00008 13.8955 5.89551 13.0001 7.00007 13.0001ZM17.0001 13.0001C18.1046 13.0001 19.0001 13.8955 19.0001 15.0001C19.0001 16.1046 18.1046 17.0001 17.0001 17.0001C15.8955 17.0001 15.0001 16.1046 15.0001 15.0001C15.0001 13.8955 15.8955 13.0001 17.0001 13.0001ZM7.00007 14.5001C6.72394 14.5001 6.50008 14.7239 6.50007 15.0001C6.50007 15.2762 6.72393 15.5001 7.00007 15.5001C7.27621 15.5001 7.50007 15.2762 7.50007 15.0001C7.50006 14.7239 7.2762 14.5001 7.00007 14.5001ZM17.0001 14.5001C16.7239 14.5001 16.5001 14.7239 16.5001 15.0001C16.5001 15.2762 16.7239 15.5001 17.0001 15.5001C17.2762 15.5001 17.5001 15.2762 17.5001 15.0001C17.5001 14.7239 17.2762 14.5001 17.0001 14.5001ZM18.6739 9.2696C18.9391 8.95158 19.4124 8.9088 19.7305 9.1739C20.0486 9.4391 20.0914 9.9124 19.8262 10.2305L19.4757 10.6505C18.7632 11.5054 17.7077 12.0001 16.5948 12.0001H7.40534C6.29242 12.0001 5.23696 11.5054 4.52448 10.6505L4.1739 10.2305C3.9088 9.9124 3.95158 9.4391 4.2696 9.1739C4.58774 8.90878 5.06103 8.95159 5.32624 9.2696L5.67683 9.6905C6.10431 10.2034 6.73763 10.5001 7.40534 10.5001H16.5948C17.2625 10.5001 17.8958 10.2034 18.3233 9.6905L18.6739 9.2696Z" fill="black"/>
</svg>
