<svg width="24" height="24" viewBox="0 0 24 24" fill="none" xmlns="http://www.w3.org/2000/svg">
<path fill-rule="evenodd" clip-rule="evenodd" d="M16.2503 4C16.4937 4.00011 16.7221 4.11854 16.8626 4.31738L19.8626 8.56738C20.0456 8.82672 20.0457 9.17338 19.8626 9.43262L12.6126 19.6826C12.4721 19.8813 12.2436 19.9999 12.0003 20C11.7569 20 11.5286 19.8813 11.388 19.6826L4.13798 9.43262C3.95477 9.17332 3.95487 8.82679 4.13798 8.56738L7.13798 4.31738L7.19462 4.24707C7.33583 4.09112 7.53712 4 7.75028 4H16.2503ZM5.66825 8.99902L12.0003 17.9512L18.3313 8.99902L15.8616 5.5H8.13896L5.66825 8.99902Z" fill="black"/>
</svg>
