<svg width="24" height="24" viewBox="0 0 24 24" fill="none" xmlns="http://www.w3.org/2000/svg">
<path fill-rule="evenodd" clip-rule="evenodd" d="M4 6.87605C4.00011 5.12087 5.53059 3.69118 7.28613 4.05573L9.40234 4.49519L9.41113 4.49714L15.4111 5.81648L15.4209 5.81843L17.8496 6.38581C19.1343 6.68593 20 7.87566 20 9.19245V14.8077C20 16.1245 19.1343 17.3142 17.8496 17.6143L15.4209 18.1817L15.4111 18.1837L9.41113 19.503L9.40234 19.505L7.28613 19.9444C5.5306 20.309 4.00013 18.8793 4 17.1241V6.87605ZM5.5 17.1241C5.50012 18.0436 6.26686 18.624 6.98145 18.4757L8.5 18.1602V12.7501H5.5V17.1241ZM10 17.837L14.5 16.8477V12.7501H10V17.837ZM16 16.505L17.5088 16.1534C18.0585 16.025 18.5 15.4869 18.5 14.8077V12.7501H16V16.505ZM6.98145 5.52448C6.26685 5.37609 5.5001 5.95655 5.5 6.87605V11.2501H8.5V5.83894L6.98145 5.52448ZM10 11.2501H14.5V7.15144L10 6.16218V11.2501ZM16 11.2501H18.5V9.19245C18.5 8.51321 18.0585 7.97519 17.5088 7.84675L16 7.49421V11.2501Z" fill="black"/>
</svg>
