<svg width="24" height="24" viewBox="0 0 24 24" fill="none" xmlns="http://www.w3.org/2000/svg">
<path d="M12 4C16.4183 4 20 7.58172 20 12V19C20 19.4142 19.6642 19.75 19.25 19.75C18.8358 19.75 18.5 19.4142 18.5 19V12C18.5 8.41015 15.5899 5.5 12 5.5C8.41015 5.5 5.5 8.41015 5.5 12V19C5.5 19.4142 5.16421 19.75 4.75 19.75C4.33579 19.75 4 19.4142 4 19V12C4 7.58172 7.58172 4 12 4ZM12 15C12.7934 15 13.4174 15.2642 13.8818 15.6738C14.331 16.0701 14.592 16.5668 14.7451 16.9863C14.942 17.5256 14.8045 18.0596 14.4824 18.4346C14.173 18.7947 13.7071 18.9999 13.2188 19H10.7812C10.2929 18.9999 9.82696 18.7947 9.51758 18.4346C9.19553 18.0596 9.05803 17.5256 9.25488 16.9863L9.31738 16.8262C9.47602 16.4445 9.72498 16.0207 10.1182 15.6738C10.5826 15.2642 11.2066 15 12 15ZM12 16.5C11.5653 16.5 11.2957 16.6353 11.1104 16.7988C10.9173 16.9692 10.7757 17.2077 10.6758 17.4707C10.6809 17.4739 10.686 17.4791 10.6934 17.4824C10.7159 17.4924 10.7457 17.5 10.7812 17.5H13.2188C13.2543 17.5 13.2841 17.4924 13.3066 17.4824C13.3136 17.4793 13.3183 17.4737 13.3232 17.4707C13.2233 17.2078 13.0827 16.9691 12.8896 16.7988C12.7043 16.6353 12.4348 16.5 12 16.5ZM9 10C9.44934 10 9.84703 10.0868 10.1768 10.2793C10.5152 10.477 10.731 10.7565 10.8545 11.0479C11.0825 11.5861 10.9852 12.1351 10.9424 12.3291C10.9307 12.3822 10.9158 12.4473 10.8994 12.5137C10.8548 12.6944 10.7391 13.0549 10.4492 13.3809C10.1366 13.7322 9.6579 14 9 14C8.3421 14 7.86344 13.7322 7.55078 13.3809C7.26086 13.0549 7.14519 12.6944 7.10059 12.5137C7.08421 12.4473 7.06934 12.3822 7.05762 12.3291C7.01477 12.1351 6.91753 11.5861 7.14551 11.0479C7.269 10.7565 7.48477 10.477 7.82324 10.2793C8.15297 10.0868 8.55066 10 9 10ZM15 10C15.4493 10 15.847 10.0868 16.1768 10.2793C16.5152 10.477 16.731 10.7565 16.8545 11.0479C17.0825 11.5861 16.9852 12.1351 16.9424 12.3291C16.9307 12.3822 16.9158 12.4473 16.8994 12.5137C16.8548 12.6944 16.7391 13.0549 16.4492 13.3809C16.1366 13.7322 15.6579 14 15 14C14.3421 14 13.8634 13.7322 13.5508 13.3809C13.2609 13.0549 13.1452 12.6944 13.1006 12.5137C13.0842 12.4473 13.0693 12.3822 13.0576 12.3291C13.0148 12.1351 12.9175 11.5861 13.1455 11.0479C13.269 10.7565 13.4848 10.477 13.8232 10.2793C14.153 10.0868 14.5507 10 15 10ZM9 11.5C8.73897 11.5 8.62146 11.5511 8.58008 11.5752C8.54789 11.594 8.53629 11.6095 8.52637 11.6328C8.51154 11.6678 8.4995 11.7267 8.5 11.8086C8.50049 11.8881 8.51268 11.9616 8.52246 12.0059C8.53542 12.0645 8.5456 12.1095 8.55664 12.1543C8.57145 12.2143 8.60714 12.3121 8.6709 12.3838C8.69867 12.415 8.73121 12.44 8.77246 12.459C8.81299 12.4776 8.88303 12.5 9 12.5C9.11697 12.5 9.18701 12.4776 9.22754 12.459C9.26879 12.44 9.30133 12.415 9.3291 12.3838C9.39286 12.3121 9.42855 12.2143 9.44336 12.1543C9.4544 12.1095 9.46458 12.0645 9.47754 12.0059C9.48732 11.9616 9.49951 11.8881 9.5 11.8086C9.5005 11.7267 9.48846 11.6678 9.47363 11.6328C9.46371 11.6095 9.45211 11.594 9.41992 11.5752C9.37854 11.5511 9.26103 11.5 9 11.5ZM15 11.5C14.739 11.5 14.6215 11.5511 14.5801 11.5752C14.5479 11.594 14.5363 11.6095 14.5264 11.6328C14.5115 11.6678 14.4995 11.7267 14.5 11.8086C14.5005 11.8881 14.5127 11.9616 14.5225 12.0059C14.5354 12.0645 14.5456 12.1095 14.5566 12.1543C14.5714 12.2143 14.6071 12.3121 14.6709 12.3838C14.6987 12.415 14.7312 12.44 14.7725 12.459C14.813 12.4776 14.883 12.5 15 12.5C15.117 12.5 15.187 12.4776 15.2275 12.459C15.2688 12.44 15.3013 12.415 15.3291 12.3838C15.3929 12.3121 15.4286 12.2143 15.4434 12.1543C15.4544 12.1095 15.4646 12.0645 15.4775 12.0059C15.4873 11.9616 15.4995 11.8881 15.5 11.8086C15.5005 11.7267 15.4885 11.6678 15.4736 11.6328C15.4637 11.6095 15.4521 11.594 15.4199 11.5752C15.3785 11.5511 15.261 11.5 15 11.5Z" fill="black"/>
</svg>
