<svg width="24" height="24" viewBox="0 0 24 24" fill="none" xmlns="http://www.w3.org/2000/svg">
<path d="M5.75 5C6.16421 5 6.5 5.33579 6.5 5.75V18.25C6.5 18.6642 6.16421 19 5.75 19C5.33579 19 5 18.6642 5 18.25V5.75C5 5.33579 5.33579 5 5.75 5ZM17.8057 5.14551C18.0335 4.97804 18.3366 4.9534 18.5889 5.08105C18.841 5.20878 19 5.46733 19 5.75V18.25C19 18.5327 18.841 18.7912 18.5889 18.9189C18.3366 19.0466 18.0335 19.022 17.8057 18.8545L9.30566 12.6045C9.11346 12.4632 9 12.2386 9 12C9 11.7614 9.11346 11.5368 9.30566 11.3955L17.8057 5.14551ZM11.0156 12L17.5 16.7666V7.23242L11.0156 12Z" fill="black"/>
</svg>
