<svg width="24" height="24" viewBox="0 0 24 24" fill="none" xmlns="http://www.w3.org/2000/svg">
<path d="M18.25 5C18.6642 5 19 5.33579 19 5.75V18.25C19 18.6642 18.6642 19 18.25 19C17.8358 19 17.5 18.6642 17.5 18.25V5.75C17.5 5.33579 17.8358 5 18.25 5ZM5.41113 5.08105C5.66344 4.9534 5.96651 4.97804 6.19434 5.14551L14.6943 11.3955C14.8865 11.5368 15 11.7614 15 12C15 12.2386 14.8865 12.4632 14.6943 12.6045L6.19434 18.8545C5.96651 19.022 5.66344 19.0466 5.41113 18.9189C5.15899 18.7912 5 18.5327 5 18.25V5.75C5 5.46733 5.15899 5.20878 5.41113 5.08105ZM6.5 16.7666L12.9834 12L6.5 7.23242V16.7666Z" fill="black"/>
</svg>
