<svg width="24" height="24" viewBox="0 0 24 24" fill="none" xmlns="http://www.w3.org/2000/svg">
<path d="M12 4C16.4183 4 20 7.58172 20 12V13.25C20 14.7688 18.7688 16 17.25 16H17V18.25C17 19.2165 16.2165 20 15.25 20H8.75C7.7835 20 7 19.2165 7 18.25V16H6.75C5.23122 16 4 14.7688 4 13.25V12C4 7.58172 7.58172 4 12 4ZM12 5.5C8.41015 5.5 5.5 8.41015 5.5 12V13.25C5.5 13.9404 6.05964 14.5 6.75 14.5H7.75C8.16421 14.5 8.5 14.8358 8.5 15.25V18.25C8.5 18.3881 8.61193 18.5 8.75 18.5H10V17.75C10 17.3358 10.3358 17 10.75 17C11.1642 17 11.5 17.3358 11.5 17.75V18.5H12.5V17.75C12.5 17.3358 12.8358 17 13.25 17C13.6642 17 14 17.3358 14 17.75V18.5H15.25C15.3881 18.5 15.5 18.3881 15.5 18.25V15.25C15.5 14.8358 15.8358 14.5 16.25 14.5H17.25C17.9404 14.5 18.5 13.9404 18.5 13.25V12C18.5 8.41015 15.5899 5.5 12 5.5ZM9 9C10.1046 9 11 9.89543 11 11C11 12.1046 10.1046 13 9 13C7.89543 13 7 12.1046 7 11C7 9.89543 7.89543 9 9 9ZM15 9C16.1046 9 17 9.89543 17 11C17 12.1046 16.1046 13 15 13C13.8954 13 13 12.1046 13 11C13 9.89543 13.8954 9 15 9ZM9 10.5C8.72386 10.5 8.5 10.7239 8.5 11C8.5 11.2761 8.72386 11.5 9 11.5C9.27614 11.5 9.5 11.2761 9.5 11C9.5 10.7239 9.27614 10.5 9 10.5ZM15 10.5C14.7239 10.5 14.5 10.7239 14.5 11C14.5 11.2761 14.7239 11.5 15 11.5C15.2761 11.5 15.5 11.2761 15.5 11C15.5 10.7239 15.2761 10.5 15 10.5Z" fill="black"/>
</svg>
