<svg width="24" height="24" viewBox="0 0 24 24" fill="none" xmlns="http://www.w3.org/2000/svg">
<path fill-rule="evenodd" clip-rule="evenodd" d="M8.51458 5.60257C8.59602 5.19673 8.99145 4.93358 9.3974 5.01468C9.80332 5.09607 10.0664 5.49148 9.98529 5.89749L7.48529 18.3975C7.40388 18.8034 7.00852 19.0666 6.60247 18.9854C6.19661 18.9039 5.93339 18.5086 6.01458 18.1026L8.51458 5.60257ZM10.9999 17C11.5522 17 11.9999 17.4478 11.9999 18C11.9999 18.5523 11.5522 19 10.9999 19C10.4477 18.9999 9.99994 18.5523 9.99994 18C10 17.4479 10.4478 17.0001 10.9999 17ZM14.9999 17C15.5522 17 15.9999 17.4478 15.9999 18C15.9999 18.5523 15.5522 19 14.9999 19C14.4477 18.9999 13.9999 18.5523 13.9999 18C14 17.4479 14.4478 17.0001 14.9999 17ZM18.9999 17C19.5522 17 19.9999 17.4478 19.9999 18C19.9999 18.5523 19.5522 19 18.9999 19C18.4477 18.9999 17.9999 18.5523 17.9999 18C18 17.4479 18.4478 17.0001 18.9999 17Z" fill="black"/>
</svg>
