<svg width="24" height="24" viewBox="0 0 24 24" fill="none" xmlns="http://www.w3.org/2000/svg">
<path fill-rule="evenodd" clip-rule="evenodd" d="M6.25 18.4998C6.6641 18.4998 6.99982 18.8357 7 19.2498C7 19.664 6.66421 19.9998 6.25 19.9998H4.75C4.33579 19.9998 4 19.664 4 19.2498C4.00018 18.8357 4.3359 18.4998 4.75 18.4998H6.25ZM10.25 18.4998C10.6641 18.4998 10.9998 18.8357 11 19.2498C11 19.664 10.6642 19.9998 10.25 19.9998H8.75C8.33579 19.9998 8 19.664 8 19.2498C8.00018 18.8357 8.3359 18.4998 8.75 18.4998H10.25ZM14.25 18.4998C14.6641 18.4998 14.9998 18.8357 15 19.2498C15 19.664 14.6642 19.9998 14.25 19.9998H12.75C12.3358 19.9998 12 19.664 12 19.2498C12.0002 18.8357 12.3359 18.4998 12.75 18.4998H14.25ZM18.25 18.4998C18.6641 18.4998 18.9998 18.8357 19 19.2498C19 19.664 18.6642 19.9998 18.25 19.9998H16.75C16.3358 19.9998 16 19.664 16 19.2498C16.0002 18.8357 16.3359 18.4998 16.75 18.4998H18.25ZM18.7197 4.21948C18.9342 4.00516 19.257 3.94045 19.5371 4.05639C19.8173 4.17243 19.9999 4.44654 20 4.74975V7.99975C20 8.2041 19.916 8.39932 19.7686 8.54077L14 14.0681V16.2498C14 16.664 13.6642 16.9998 13.25 16.9998H7.75C7.44665 16.9998 7.17273 16.8171 7.05664 16.5369C6.94076 16.2567 7.00532 15.9339 7.21973 15.7195L18.7197 4.21948ZM9.56055 15.4998H12.5V12.5603L9.56055 15.4998ZM14 11.0603V11.9929L18.5 7.68042V6.5603L14 11.0603Z" fill="black"/>
</svg>
