<svg width="24" height="24" viewBox="0 0 24 24" fill="none" xmlns="http://www.w3.org/2000/svg">
<path d="M19.25 18.5C19.6642 18.5 20 18.8358 20 19.25C20 19.6642 19.6642 20 19.25 20H4.75C4.33579 20 4 19.6642 4 19.25C4 18.8358 4.33579 18.5 4.75 18.5H19.25ZM17.25 7C18.7688 7 20 8.23122 20 9.75V14.25C20 15.7688 18.7688 17 17.25 17H6.75C5.23122 17 4 15.7688 4 14.25V9.75C4 8.23122 5.23122 7 6.75 7H17.25ZM6.75 8.5C6.05964 8.5 5.5 9.05964 5.5 9.75V14.25C5.5 14.9404 6.05964 15.5 6.75 15.5H17.25C17.9404 15.5 18.5 14.9404 18.5 14.25V9.75C18.5 9.05964 17.9404 8.5 17.25 8.5H6.75ZM19.25 4C19.6642 4 20 4.33579 20 4.75C20 5.16421 19.6642 5.5 19.25 5.5H4.75C4.33579 5.5 4 5.16421 4 4.75C4 4.33579 4.33579 4 4.75 4H19.25Z" fill="black"/>
</svg>
