<svg width="24" height="24" viewBox="0 0 24 24" fill="none" xmlns="http://www.w3.org/2000/svg">
<path d="M13.25 4C14.7688 4 16 5.23122 16 6.75V17.25C16 18.7688 14.7688 20 13.25 20H6.75C5.23122 20 4 18.7688 4 17.25V6.75C4 5.23122 5.23122 4 6.75 4H13.25ZM6.75 5.5C6.05964 5.5 5.5 6.05964 5.5 6.75V17.25C5.5 17.9404 6.05964 18.5 6.75 18.5H13.25C13.9404 18.5 14.5 17.9404 14.5 17.25V6.75C14.5 6.05964 13.9404 5.5 13.25 5.5H6.75ZM11 17.5H9V16H11V17.5ZM18.3877 9.09375C18.7503 8.89369 19.2061 9.02516 19.4062 9.3877H19.4072V9.38965L19.4092 9.3916C19.41 9.39306 19.4111 9.39461 19.4121 9.39648C19.4142 9.40043 19.4169 9.4054 19.4199 9.41113C19.426 9.42268 19.4331 9.43844 19.4424 9.45703C19.4609 9.49419 19.4853 9.54532 19.5137 9.60938C19.5703 9.73748 19.6432 9.9183 19.7148 10.1445C19.8579 10.596 20 11.2359 20 12C20 12.7641 19.8579 13.404 19.7148 13.8555C19.6432 14.0817 19.5703 14.2625 19.5137 14.3906C19.4853 14.4547 19.4609 14.5058 19.4424 14.543C19.4331 14.5616 19.426 14.5773 19.4199 14.5889C19.4169 14.5946 19.4142 14.5996 19.4121 14.6035C19.4111 14.6054 19.41 14.6069 19.4092 14.6084L19.4072 14.6104V14.6123H19.4062C19.2061 14.9748 18.7503 15.1063 18.3877 14.9062C18.0252 14.7061 17.8937 14.2503 18.0938 13.8877C18.0953 13.8847 18.0976 13.8801 18.1006 13.874C18.1094 13.8564 18.1241 13.826 18.1426 13.7842C18.1796 13.7004 18.2319 13.5706 18.2852 13.4023C18.3921 13.0648 18.5 12.5796 18.5 12C18.5 11.4204 18.3921 10.9352 18.2852 10.5977C18.2319 10.4294 18.1796 10.2996 18.1426 10.2158C18.1241 10.174 18.1094 10.1436 18.1006 10.126C18.0973 10.1194 18.0953 10.1143 18.0938 10.1113C17.8941 9.7488 18.0253 9.29379 18.3877 9.09375Z" fill="black"/>
</svg>
