<svg width="24" height="24" viewBox="0 0 24 24" fill="none" xmlns="http://www.w3.org/2000/svg">
<path d="M5.25 6C5.66421 6 6 6.33579 6 6.75V9H6.07812C6.32213 9 6.55439 9.05069 6.76562 9.14062L7.72852 8.21094C8.02625 7.92304 8.50112 7.93086 8.78906 8.22852C9.07696 8.52625 9.06914 9.00112 8.77148 9.28906L7.76855 10.2588C7.80041 10.3639 7.82291 10.4736 7.83496 10.5859C7.91823 11.3624 8.05737 12.4794 8.24512 13.3936C8.24761 13.4057 8.25043 13.4177 8.25293 13.4297C8.9115 11.4377 10.7873 10 13 10C15.7614 10 18 12.2386 18 15C18 15.1292 17.993 15.2571 17.9834 15.3838C18.3603 15.5089 18.68 15.7156 18.9424 15.9785C19.3646 16.4016 19.6079 16.9348 19.752 17.4062C19.8976 17.883 19.9581 18.3485 19.9834 18.6865C19.9962 18.8574 20.0001 19.0009 20.001 19.1035C20.0014 19.155 20.0015 19.1966 20.001 19.2266C20.0007 19.2415 20.0003 19.2537 20 19.2627C19.9999 19.267 20.0001 19.2706 20 19.2734C20 19.2747 19.9991 19.2763 19.999 19.2773V19.2803C19.9827 19.6823 19.6524 20 19.25 20H7.75C5.67893 20 4 18.3211 4 16.25V10.75C4 10.2735 4.19103 9.84195 4.5 9.52637V6.75C4.5 6.33579 4.83579 6 5.25 6ZM5.75 10.5C5.61193 10.5 5.5 10.6119 5.5 10.75V16.25C5.5 17.4926 6.50736 18.5 7.75 18.5H9.43066C8.76547 17.8217 8.29154 16.9553 8.09766 15.9873C7.7699 15.9338 7.55547 15.7177 7.44922 15.584C7.31576 15.416 7.21943 15.2148 7.14648 15.0332C6.99742 14.6621 6.87555 14.183 6.77539 13.6953C6.57271 12.7085 6.42726 11.533 6.34277 10.7451C6.32704 10.6007 6.20737 10.5 6.07812 10.5H5.75ZM17.6406 16.8604C17.3931 17.4772 17.0271 18.0333 16.5693 18.5H18.4551C18.4274 18.2933 18.3852 18.0657 18.3174 17.8438C18.2131 17.5029 18.0666 17.2233 17.8809 17.0371C17.8124 16.9685 17.7339 16.9081 17.6406 16.8604ZM13 11.5C11.067 11.5 9.5 13.067 9.5 15C9.5 15.6636 9.68511 16.2838 10.0059 16.8125C10.1082 15.204 11.519 14.0001 13.1494 14C13.6605 14 14.1466 14.1165 14.5771 14.3252C14.9498 14.5059 15.1055 14.9544 14.9248 15.3271C14.7441 15.6998 14.2956 15.8555 13.9229 15.6748C13.6942 15.564 13.4316 15.5 13.1494 15.5C12.1923 15.5001 11.5 16.2164 11.5 17C11.5 17.7678 12.1646 18.4689 13.0918 18.4971C14.9823 18.4484 16.5 16.9023 16.5 15C16.5 13.067 14.933 11.5 13 11.5Z" fill="black"/>
</svg>
