<svg width="24" height="24" viewBox="0 0 24 24" fill="none" xmlns="http://www.w3.org/2000/svg">
<path fill-rule="evenodd" clip-rule="evenodd" d="M11.9999 4C14.8079 4.00022 17.1816 6.0821 17.5468 8.86621L17.5712 9.05859C18.0081 8.97136 18.413 8.99613 18.7812 9.15527C19.247 9.35675 19.5249 9.72101 19.6992 9.98242C19.983 10.4086 20.0428 10.9635 19.9921 11.4082C19.943 11.8386 19.7583 12.4247 19.2607 12.7568C19.2385 12.7716 19.2149 12.7855 19.1913 12.7979L18.1337 13.3486L18.8017 18.4385C18.9601 19.6468 17.6147 20.4732 16.6083 19.7861L15.29 18.8848C14.8392 18.5767 14.2395 18.5979 13.8105 18.9355L13.0829 19.5078C12.4479 20.0079 11.553 20.0078 10.9179 19.5078L10.1904 18.9355C9.76144 18.5978 9.16172 18.5769 8.71087 18.8848L7.39251 19.7861C6.3861 20.4737 5.04072 19.647 5.19915 18.4385L5.8681 13.333L4.82318 12.7881C4.79952 12.7757 4.77605 12.7619 4.75384 12.7471C4.25581 12.415 4.07147 11.829 4.0224 11.3984C3.97171 10.9536 4.03124 10.3989 4.31537 9.97266C4.4897 9.7112 4.76755 9.34684 5.23333 9.14551C5.59765 8.98827 5.99808 8.96179 6.42962 9.0459L6.45404 8.86621C6.81927 6.08214 9.19203 4.00023 11.9999 4ZM11.9999 5.5C9.94501 5.50023 8.20859 7.024 7.94134 9.06152L7.79486 10.1787C7.76201 10.428 7.60576 10.6445 7.37982 10.7549C7.15379 10.865 6.88753 10.8541 6.67083 10.7266C6.54042 10.6497 6.44401 10.6059 6.38275 10.585C6.00842 10.4571 5.86575 10.5063 5.82806 10.5225C5.77218 10.5466 5.69528 10.607 5.56341 10.8047C5.55879 10.8116 5.53531 10.854 5.51947 10.9424C5.50433 11.027 5.50117 11.1278 5.51263 11.2285C5.52424 11.3303 5.54866 11.4122 5.57415 11.4658C5.58097 11.4801 5.58817 11.4899 5.59271 11.4971L7.02728 12.2461C7.30612 12.3919 7.46466 12.6968 7.42376 13.0088L6.71185 18.4336L7.86517 17.6465C8.85704 16.969 10.1744 17.0137 11.1181 17.7568L11.8456 18.3301C11.9363 18.4012 12.0646 18.4014 12.1552 18.3301L12.8827 17.7568C13.8265 17.0138 15.1439 16.9688 16.1357 17.6465L17.288 18.4336L16.579 13.0234C16.5383 12.7115 16.6967 12.4074 16.9755 12.2617L18.4199 11.5068C18.4245 11.4996 18.4323 11.4896 18.4394 11.4746C18.4648 11.421 18.4903 11.3399 18.5019 11.2383C18.5134 11.1376 18.5092 11.0368 18.4941 10.9521C18.4786 10.8653 18.4564 10.8227 18.4511 10.8145C18.3197 10.6173 18.2423 10.5566 18.1865 10.5322C18.1495 10.5163 18.0065 10.4655 17.6308 10.5938C17.5679 10.6153 17.4694 10.6614 17.3349 10.7412C17.1182 10.8699 16.8507 10.8814 16.624 10.7715C16.3972 10.6613 16.2408 10.4443 16.2079 10.1943L16.0595 9.06152C15.7923 7.02397 14.0549 5.50022 11.9999 5.5Z" fill="black"/>
</svg>
