<svg width="24" height="24" viewBox="0 0 24 24" fill="none" xmlns="http://www.w3.org/2000/svg">
<path d="M19.25 4C19.6642 4 20 4.33579 20 4.75V15.25C20 17.8734 17.8734 20 15.25 20H10.75C9.7835 20 9 19.2165 9 18.25V17C9 16.5858 9.33579 16.25 9.75 16.25C10.1642 16.25 10.5 16.5858 10.5 17V18.25C10.5 18.3881 10.6119 18.5 10.75 18.5H15.25C17.0449 18.5 18.5 17.0449 18.5 15.25V4.75C18.5 4.33579 18.8358 4 19.25 4ZM13.25 7C14.7688 7 16 8.23122 16 9.75V13.25C16 14.2165 15.2165 15 14.25 15H12.333C11.9545 14.9999 11.586 14.8775 11.2832 14.6504L10 13.6865L8.7168 14.6504C8.41398 14.8775 8.04548 14.9999 7.66699 15H5.75C4.7835 15 4 14.2165 4 13.25V9.75C4 8.23122 5.23122 7 6.75 7H13.25ZM6.75 8.5C6.05964 8.5 5.5 9.05964 5.5 9.75V13.25C5.5 13.3881 5.61193 13.5 5.75 13.5H7.66699C7.72086 13.4999 7.77327 13.4825 7.81641 13.4502L9.5498 12.1504L9.6543 12.084C9.90674 11.9528 10.2169 11.9754 10.4502 12.1504L12.1836 13.4502C12.2267 13.4825 12.2791 13.4999 12.333 13.5H14.25C14.3881 13.5 14.5 13.3881 14.5 13.25V9.75C14.5 9.05964 13.9404 8.5 13.25 8.5H6.75Z" fill="black"/>
</svg>
