<svg width="24" height="24" viewBox="0 0 24 24" fill="none" xmlns="http://www.w3.org/2000/svg">
<path d="M15.8369 6C17.0014 6 18.0396 6.73351 18.4287 7.83105L18.6895 8.56641L19.8945 10.5938C19.9635 10.7097 20 10.8427 20 10.9775V13.25C20 13.5378 19.8354 13.8006 19.5762 13.9258L17.5049 14.9258C17.4032 14.9749 17.2916 15 17.1787 15H16.5V16.5H18.25C18.6642 16.5 19 16.8358 19 17.25C19 17.6642 18.6642 18 18.25 18H15.75C15.3358 18 15 17.6642 15 17.25V15H13.4297L12.4756 16.3809C11.7755 17.3947 10.6217 18 9.38965 18H5.77051C4.08337 17.9999 3.38596 15.8596 4.70996 14.8594L6.49316 13.2373C5.0087 12.7097 4.00002 11.302 4 9.70605V8.75C4 8.33579 4.33579 8 4.75 8H11.25C11.3817 8 11.511 8.03474 11.625 8.10059L15.0615 10.085L17.1113 8.60645L17.0146 8.33203C16.8377 7.83334 16.3661 7.5 15.8369 7.5H15.1074C14.6932 7.5 14.3574 7.16421 14.3574 6.75C14.3574 6.33579 14.6932 6 15.1074 6H15.8369ZM5.70215 15.9854C5.67852 16.0068 5.65312 16.0266 5.62695 16.0449C5.42684 16.1851 5.52614 16.4999 5.77051 16.5H9.38965C10.1289 16.5 10.8211 16.1366 11.2412 15.5283L11.8164 14.6953L8.2002 13.7139L5.70215 15.9854ZM5.5 9.70605C5.50002 10.7215 6.18027 11.6107 7.16016 11.877L8.19629 12.1592L13.1357 13.5H17.0059L18.5 12.7783V11.1826L17.7803 9.97363L15.5459 11.5859C15.3065 11.7585 14.988 11.7744 14.7324 11.627L11.0488 9.5H5.5V9.70605Z" fill="#141414"/>
</svg>
