<svg width="24" height="24" viewBox="0 0 24 24" fill="none" xmlns="http://www.w3.org/2000/svg">
<path fill-rule="evenodd" clip-rule="evenodd" d="M12.9997 4C13.3225 4 13.6095 4.20646 13.7116 4.5127L13.8737 5H16.9997C17.4139 5 17.7497 5.33579 17.7497 5.75C17.7497 6.16421 17.4139 6.5 16.9997 6.5H14.3737L14.903 8.08691C15.982 8.36175 16.8177 9.27407 16.9548 10.4248L17.861 18.043C17.985 19.0841 17.1722 19.9999 16.1237 20H7.87567C6.82728 19.9999 6.01443 19.084 6.13836 18.043L7.04461 10.4248C7.18158 9.27446 8.01694 8.36209 9.09539 8.08691L10.2878 4.5127L10.3347 4.40332C10.4622 4.1584 10.7171 4.00004 10.9997 4H12.9997ZM9.77606 9.5C9.1429 9.50005 8.60969 9.97381 8.53485 10.6025L7.62762 18.2207C7.61009 18.3693 7.72608 18.4999 7.87567 18.5H16.1237C16.2734 18.4999 16.3893 18.3693 16.3718 18.2207L15.4645 10.6025C15.3897 9.97379 14.8565 9.5 14.2233 9.5H9.77606ZM10.7077 8H13.2917L12.4587 5.5H11.5407L10.7077 8Z" fill="black"/>
</svg>
