<svg width="24" height="24" viewBox="0 0 24 24" fill="none" xmlns="http://www.w3.org/2000/svg">
<path d="M18.25 5C19.2165 5 20 5.7835 20 6.75V17.25C20 18.2165 19.2165 19 18.25 19H5.75C4.7835 19 4 18.2165 4 17.25V6.75C4 5.7835 4.7835 5 5.75 5H18.25ZM5.75 6.5C5.61193 6.5 5.5 6.61193 5.5 6.75V9H7.25C7.66421 9 8 9.33579 8 9.75V14.25C8 14.6642 7.66421 15 7.25 15H5.5V17.25C5.5 17.3881 5.61193 17.5 5.75 17.5H11.25V15C11.25 14.9672 11.2528 14.935 11.2568 14.9033C9.95992 14.5723 9 13.4 9 12C9 10.6024 9.95646 9.43095 11.25 9.09766V6.5H5.75ZM12.75 9.09766C14.0435 9.43095 15 10.6024 15 12C15 13.4003 14.0396 14.5727 12.7422 14.9033C12.7463 14.935 12.75 14.9672 12.75 15V17.5H18.25C18.3881 17.5 18.5 17.3881 18.5 17.25V15H16.75C16.3358 15 16 14.6642 16 14.25V9.75C16 9.33579 16.3358 9 16.75 9H18.5V6.75C18.5 6.61193 18.3881 6.5 18.25 6.5H12.75V9.09766ZM17.5 10.5V13.5H18.5V10.5H17.5ZM5.5 13.5H6.5V10.5H5.5V13.5ZM12 10.5C11.1716 10.5 10.5 11.1716 10.5 12C10.5 12.8284 11.1716 13.5 12 13.5C12.8284 13.5 13.5 12.8284 13.5 12C13.5 11.1716 12.8284 10.5 12 10.5Z" fill="black"/>
</svg>
