<svg width="24" height="24" viewBox="0 0 24 24" fill="none" xmlns="http://www.w3.org/2000/svg">
<path fill-rule="evenodd" clip-rule="evenodd" d="M17.2504 12C17.5731 12.0002 17.8603 12.2066 17.9624 12.5127L18.9624 15.5127L18.9712 15.5439L19.9712 19.0439C20.0357 19.27 19.9905 19.5134 19.8491 19.7012C19.7074 19.889 19.4856 19.9999 19.2504 20H4.75045C4.51519 20 4.29354 19.8889 4.15182 19.7012C4.01024 19.5133 3.96512 19.2701 4.02975 19.0439L5.02975 15.5439L5.03853 15.5127L6.03853 12.5127L6.08541 12.4033C6.21303 12.1585 6.46788 12 6.75045 12H17.2504ZM5.74459 18.5H11.2504V16.5H6.31588L5.74459 18.5ZM12.7504 18.5H18.2563L17.685 16.5H12.7504V18.5ZM6.79146 15H11.2504V13.5H7.29146L6.79146 15ZM12.7504 15H17.2094L16.7094 13.5H12.7504V15ZM12.0004 4C12.4145 4.00022 12.7504 4.33592 12.7504 4.75V6.06934C13.2972 6.17312 13.8041 6.38944 14.2475 6.69141L14.7202 6.21973C15.0131 5.92715 15.4879 5.92697 15.7807 6.21973C16.0734 6.5125 16.0732 6.98736 15.7807 7.28027L15.3071 7.75293C15.6543 8.26339 15.8881 8.85769 15.9682 9.5H16.2504C16.6645 9.50022 17.0004 9.83592 17.0004 10.25C17.0004 10.6641 16.6645 10.9998 16.2504 11H15.5004C14.9482 11 14.5004 10.5523 14.5004 10C14.5004 8.61942 13.381 7.50022 12.0004 7.5C10.6197 7.5 9.50045 8.61929 9.50045 10C9.50045 10.5522 9.05255 10.9998 8.50045 11H7.75045C7.33624 11 7.00045 10.6642 7.00045 10.25C7.00045 9.83579 7.33624 9.5 7.75045 9.5H8.03268C8.11281 8.85765 8.34457 8.26243 8.69186 7.75195L8.22018 7.28027C7.92736 6.98747 7.92744 6.51266 8.22018 6.21973C8.51301 5.92724 8.9879 5.9271 9.28072 6.21973L9.7524 6.69043C10.1959 6.38844 10.7035 6.17304 11.2504 6.06934V4.75C11.2504 4.33579 11.5862 4 12.0004 4Z" fill="black"/>
</svg>
