<svg width="24" height="24" viewBox="0 0 24 24" fill="none" xmlns="http://www.w3.org/2000/svg">
<path fill-rule="evenodd" clip-rule="evenodd" d="M13.4182 4C14.6928 4 15.8012 4.87589 16.095 6.11621L17.9612 14H19.2502C19.4776 14 19.6928 14.103 19.8352 14.2803C19.9775 14.4577 20.032 14.691 19.9827 14.9131L19.3303 17.8467C19.2187 18.3487 18.9718 18.7909 18.636 19.1436C18.6061 19.1917 18.5723 19.2385 18.5305 19.2803C18.4736 19.3371 18.408 19.3793 18.3401 19.4141C17.8691 19.7828 17.2787 20 16.6457 20H7.35473C6.72147 20 6.13053 19.7831 5.65942 19.4141C5.59178 19.3793 5.52662 19.3369 5.46996 19.2803C5.42804 19.2383 5.39344 19.1919 5.36352 19.1436C5.02797 18.791 4.7817 18.3485 4.67016 17.8467L4.01781 14.9131C3.96847 14.691 4.02293 14.4577 4.16527 14.2803C4.30762 14.103 4.52287 14 4.75024 14H6.0393L7.90551 6.11621C8.19927 4.87589 9.30764 4 10.5823 4H13.4182ZM15.3108 18.5H16.6457C16.6598 18.5 16.6738 18.4985 16.6877 18.498L16.0002 17.8105L15.3108 18.5ZM11.3108 18.5H12.6897L12.0002 17.8105L11.3108 18.5ZM7.31176 18.498C7.32605 18.4985 7.34034 18.5 7.35473 18.5H8.68969L8.00024 17.8105L7.31176 18.498ZM6.13402 17.5215C6.136 17.5304 6.1387 17.5391 6.14086 17.5479L7.46996 16.2197L7.5266 16.168C7.82118 15.9277 8.2559 15.9451 8.53051 16.2197L10.0002 17.6895L11.47 16.2197L11.5266 16.168C11.8212 15.9277 12.2559 15.9451 12.5305 16.2197L14.0002 17.6895L15.47 16.2197L15.5266 16.168C15.8212 15.9277 16.2559 15.9451 16.5305 16.2197L17.8586 17.5479C17.8608 17.539 17.8645 17.5304 17.8664 17.5215L18.3147 15.5H5.68578L6.13402 17.5215ZM16.0002 12.5H8.00024C7.97849 12.5 7.95706 12.4979 7.93578 12.4961L7.58031 14H16.4202L16.0637 12.4961C16.0428 12.4979 16.0216 12.5 16.0002 12.5ZM10.5823 5.5C10.0029 5.5 9.499 5.89813 9.36547 6.46191L8.29125 11H15.7092L14.635 6.46191C14.5015 5.89813 13.9976 5.5 13.4182 5.5H10.5823Z" fill="black"/>
</svg>
