<svg width="24" height="24" viewBox="0 0 24 24" fill="none" xmlns="http://www.w3.org/2000/svg">
<path d="M11.25 17.5C11.6642 17.5 12 17.8358 12 18.25C12 18.6642 11.6642 19 11.25 19H4.75C4.33579 19 4 18.6642 4 18.25C4 17.8358 4.33579 17.5 4.75 17.5H11.25ZM16 5C16.4142 5 16.75 5.33579 16.75 5.75V16.3389L18.7002 14.2393C18.9821 13.9358 19.4572 13.9184 19.7607 14.2002C20.0642 14.4821 20.0816 14.9572 19.7998 15.2607L16.5498 18.7607C16.5445 18.7665 16.5377 18.7708 16.5322 18.7764C16.5298 18.7788 16.5279 18.7818 16.5254 18.7842C16.4932 18.8158 16.4587 18.8441 16.4219 18.8691C16.4184 18.8715 16.4147 18.8736 16.4111 18.876C16.3748 18.8998 16.3367 18.9204 16.2969 18.9375C16.2914 18.9399 16.2858 18.9421 16.2803 18.9443C16.1919 18.9799 16.0972 19 16 19C15.9025 19 15.8073 18.9801 15.7188 18.9443C15.7132 18.9421 15.7076 18.9399 15.7021 18.9375C15.6624 18.9203 15.6242 18.8998 15.5879 18.876C15.5843 18.8736 15.5807 18.8715 15.5771 18.8691C15.5406 18.8442 15.5066 18.8156 15.4746 18.7842C15.472 18.7816 15.4694 18.779 15.4668 18.7764C15.4615 18.771 15.4554 18.7663 15.4502 18.7607L12.2002 15.2607C11.9184 14.9572 11.9358 14.4821 12.2393 14.2002C12.5428 13.9184 13.0179 13.9358 13.2998 14.2393L15.25 16.3389V5.75C15.25 5.33579 15.5858 5 16 5ZM9.25 13.25C9.66421 13.25 10 13.5858 10 14C10 14.4142 9.66421 14.75 9.25 14.75H4.75C4.33579 14.75 4 14.4142 4 14C4 13.5858 4.33579 13.25 4.75 13.25H9.25ZM8.25 9C8.66421 9 9 9.33579 9 9.75C9 10.1642 8.66421 10.5 8.25 10.5H4.75C4.33579 10.5 4 10.1642 4 9.75C4 9.33579 4.33579 9 4.75 9H8.25Z" fill="black"/>
</svg>
