<svg width="24" height="24" viewBox="0 0 24 24" fill="none" xmlns="http://www.w3.org/2000/svg">
<path d="M16 5C16.2085 5 16.4079 5.0865 16.5498 5.23926L19.7998 8.73926C20.0816 9.04275 20.0642 9.51794 19.7607 9.7998C19.4572 10.0816 18.9821 10.0642 18.7002 9.76074L16.75 7.66016V18.25C16.75 18.6642 16.4142 19 16 19C15.5858 19 15.25 18.6642 15.25 18.25V7.66016L13.2998 9.76074C13.0179 10.0642 12.5428 10.0816 12.2393 9.7998C11.9358 9.51794 11.9184 9.04275 12.2002 8.73926L15.4502 5.23926L15.5059 5.18555C15.6419 5.06642 15.8174 5 16 5ZM8.25 13.5C8.66421 13.5 9 13.8358 9 14.25C9 14.6642 8.66421 15 8.25 15H4.75C4.33579 15 4 14.6642 4 14.25C4 13.8358 4.33579 13.5 4.75 13.5H8.25ZM9.25 9.25C9.66421 9.25 10 9.58579 10 10C10 10.4142 9.66421 10.75 9.25 10.75H4.75C4.33579 10.75 4 10.4142 4 10C4 9.58579 4.33579 9.25 4.75 9.25H9.25ZM11.25 5C11.6642 5 12 5.33579 12 5.75C12 6.16421 11.6642 6.5 11.25 6.5H4.75C4.33579 6.5 4 6.16421 4 5.75C4 5.33579 4.33579 5 4.75 5H11.25Z" fill="black"/>
</svg>
