<svg width="24" height="24" viewBox="0 0 24 24" fill="none" xmlns="http://www.w3.org/2000/svg">
<path d="M9 9.5H7.25C6.83579 9.5 6.5 9.83579 6.5 10.25V10.75C6.5 10.8881 6.61193 11 6.75 11C7.99264 11 9 12.0074 9 13.25V13.5C9 14.8807 7.88071 16 6.5 16H5V14.5H6.5C7.05228 14.5 7.5 14.0523 7.5 13.5V13.25C7.5 12.8358 7.16421 12.5 6.75 12.5C5.7835 12.5 5 11.7165 5 10.75V10.25C5 9.00736 6.00736 8 7.25 8H9V9.5ZM12 8C13.1046 8 14 8.89543 14 10V14C14 15.1046 13.1046 16 12 16C10.8954 16 10 15.1046 10 14V10C10 8.89543 10.8954 8 12 8ZM19 9.5H17.25C16.8358 9.5 16.5 9.83579 16.5 10.25V10.75C16.5 10.8881 16.6119 11 16.75 11C17.9926 11 19 12.0074 19 13.25V13.5C19 14.8807 17.8807 16 16.5 16H15V14.5H16.5C17.0523 14.5 17.5 14.0523 17.5 13.5V13.25C17.5 12.8358 17.1642 12.5 16.75 12.5C15.7835 12.5 15 11.7165 15 10.75V10.25C15 9.00736 16.0074 8 17.25 8H19V9.5ZM12 9.5C11.7239 9.5 11.5 9.72386 11.5 10V14C11.5 14.2761 11.7239 14.5 12 14.5C12.2761 14.5 12.5 14.2761 12.5 14V10C12.5 9.72386 12.2761 9.5 12 9.5Z" fill="black"/>
</svg>
