<svg width="24" height="24" viewBox="0 0 24 24" fill="none" xmlns="http://www.w3.org/2000/svg">
<path fill-rule="evenodd" clip-rule="evenodd" d="M4.75 13.0003C5.16421 13.0003 5.5 13.3361 5.5 13.7503V17.2503C5.49982 17.6643 5.1641 18.0003 4.75 18.0003C4.3359 18.0003 4.00018 17.6643 4 17.2503V13.7503C4 13.3361 4.33579 13.0003 4.75 13.0003ZM7.75 11.0003C8.16421 11.0003 8.5 11.3361 8.5 11.7503V17.2503C8.49982 17.6643 8.1641 18.0003 7.75 18.0003C7.3359 18.0003 7.00018 17.6643 7 17.2503V11.7503C7 11.3361 7.33579 11.0003 7.75 11.0003ZM10.75 7.00027C11.1642 7.00027 11.5 7.33606 11.5 7.75027V17.2503C11.4998 17.6643 11.1641 18.0003 10.75 18.0003C10.3359 18.0003 10.0002 17.6643 10 17.2503V7.75027C10 7.33606 10.3358 7.00027 10.75 7.00027ZM13.1162 6.90262C13.3011 6.53232 13.7515 6.38216 14.1221 6.56668C15.5021 7.25453 16.6084 8.53756 16.9131 10.1057C18.6823 10.5192 20 12.1054 20 14.0003C19.9998 16.2091 18.2089 18.0001 16 18.0003H13.875C13.4611 18.0001 13.1252 17.6642 13.125 17.2503C13.125 16.8361 13.4609 16.5004 13.875 16.5003H16C17.3804 16.5001 18.4998 15.3807 18.5 14.0003C18.5 12.6828 17.4801 11.6028 16.1875 11.5071C15.8121 11.4792 15.5153 11.1769 15.4941 10.8011C15.4261 9.58416 14.6115 8.48618 13.4521 7.90848C13.082 7.72356 12.9317 7.27309 13.1162 6.90262Z" fill="black"/>
</svg>
