<svg width="24" height="24" viewBox="0 0 24 24" fill="none" xmlns="http://www.w3.org/2000/svg">
<path d="M6.25 4C7.76878 4 9 5.23122 9 6.75V17.25C9 18.7688 7.76878 20 6.25 20H4V18.5H6.25C6.94036 18.5 7.5 17.9404 7.5 17.25V6.75C7.5 6.05964 6.94036 5.5 6.25 5.5H4V4H6.25ZM20 5.5H17.75C17.0596 5.5 16.5 6.05964 16.5 6.75V17.25C16.5 17.9404 17.0596 18.5 17.75 18.5H20V20H17.75C16.2312 20 15 18.7688 15 17.25V6.75C15 5.23122 16.2312 4 17.75 4H20V5.5ZM12 8C12.4142 8 12.75 8.33579 12.75 8.75V15.25C12.75 15.6642 12.4142 16 12 16C11.5858 16 11.25 15.6642 11.25 15.25V8.75C11.25 8.33579 11.5858 8 12 8Z" fill="black"/>
</svg>
