<svg width="24" height="24" viewBox="0 0 24 24" fill="none" xmlns="http://www.w3.org/2000/svg">
<path fill-rule="evenodd" clip-rule="evenodd" d="M11.9998 4C12.2046 4 12.4003 4.08435 12.5418 4.23242H12.5427L12.5437 4.2334C12.5443 4.23399 12.5448 4.23533 12.5457 4.23633C12.548 4.23879 12.5519 4.24236 12.5564 4.24707C12.5657 4.25678 12.5797 4.27139 12.5974 4.29004C12.6334 4.32783 12.6864 4.384 12.7537 4.45508C12.8884 4.59744 13.0822 4.80262 13.3171 5.05371C13.7873 5.55613 14.4259 6.2443 15.0955 6.98535C15.7643 7.72565 16.4687 8.523 17.0701 9.24316C17.6611 9.9509 18.1855 10.6233 18.4685 11.0996C19.7402 13.2402 18.6374 15.7427 16.3132 16.7207C15.8939 16.8972 15.5081 17.0354 15.1336 17.0771L15.9392 18.9551C16.0383 19.1867 16.0144 19.4527 15.8757 19.6631C15.7369 19.8733 15.5017 20 15.2498 20H8.74976C8.49788 19.9999 8.26252 19.8733 8.12379 19.6631C7.98522 19.4528 7.96131 19.1866 8.06031 18.9551L8.865 17.0771C8.49077 17.0352 8.10527 16.897 7.68629 16.7207C5.36243 15.7427 4.25954 13.2401 5.53101 11.0996C5.81398 10.6233 6.33843 9.95091 6.92945 9.24316C7.53084 8.52301 8.23518 7.72566 8.90406 6.98535C9.57359 6.24432 10.2122 5.55616 10.6824 5.05371C10.9173 4.80264 11.1111 4.59747 11.2459 4.45508C11.3131 4.38403 11.3661 4.32786 11.4021 4.29004C11.4198 4.27142 11.4338 4.25681 11.4431 4.24707C11.4476 4.24238 11.4515 4.23881 11.4539 4.23633C11.4548 4.23538 11.4553 4.23407 11.4558 4.2334L11.4568 4.23242H11.4578C11.5992 4.08432 11.795 4.0001 11.9998 4ZM11.7771 6.0791C11.3108 6.57734 10.6792 7.25866 10.0173 7.99121C9.35468 8.72463 8.66456 9.50606 8.08082 10.2051C7.48708 10.9161 7.03548 11.5045 6.82105 11.8652C6.10368 13.0729 6.61324 14.6425 8.26734 15.3389C8.90007 15.6051 9.06964 15.6004 9.13258 15.5889C9.15861 15.584 9.2078 15.5693 9.31617 15.501C9.43666 15.4249 9.57365 15.321 9.79859 15.1514C10.0699 14.9469 10.4451 14.9507 10.7127 15.1602C10.98 15.3699 11.0731 15.7335 10.9392 16.0459L9.88746 18.5H14.1121L13.0603 16.0459C12.9266 15.7337 13.0198 15.3699 13.2869 15.1602C13.5543 14.9505 13.9295 14.947 14.2009 15.1514C14.4258 15.321 14.5629 15.4249 14.6834 15.501C14.7914 15.5691 14.8408 15.584 14.867 15.5889C14.9296 15.6004 15.0985 15.6055 15.7322 15.3389C17.3866 14.6426 17.896 13.073 17.1785 11.8652C16.964 11.5044 16.5124 10.9161 15.9187 10.2051C15.335 9.50604 14.6448 8.72462 13.9822 7.99121C13.3203 7.25864 12.6887 6.57732 12.2224 6.0791C12.1433 5.99458 12.0686 5.91509 11.9998 5.8418C11.9309 5.91509 11.8562 5.99458 11.7771 6.0791Z" fill="black"/>
</svg>
