<svg width="24" height="24" viewBox="0 0 24 24" fill="none" xmlns="http://www.w3.org/2000/svg">
<path d="M17 14C17.4142 14 17.75 14.3358 17.75 14.75C17.75 15.0863 17.9175 15.4663 18.2256 15.7744C18.5337 16.0825 18.9137 16.25 19.25 16.25C19.6642 16.25 20 16.5858 20 17C20 17.4142 19.6642 17.75 19.25 17.75C18.9137 17.75 18.5337 17.9175 18.2256 18.2256C17.9175 18.5337 17.75 18.9137 17.75 19.25C17.75 19.6642 17.4142 20 17 20C16.5858 20 16.25 19.6642 16.25 19.25C16.25 18.9137 16.0825 18.5337 15.7744 18.2256C15.4663 17.9175 15.0863 17.75 14.75 17.75C14.3358 17.75 14 17.4142 14 17C14 16.5858 14.3358 16.25 14.75 16.25C15.0863 16.25 15.4663 16.0825 15.7744 15.7744C16.0825 15.4663 16.25 15.0863 16.25 14.75C16.25 14.3358 16.5858 14 17 14ZM16.8359 16.8359C16.7789 16.8929 16.718 16.9467 16.6562 17C16.718 17.0533 16.7789 17.1071 16.8359 17.1641C16.8928 17.2209 16.9468 17.2812 17 17.3428C17.0532 17.2812 17.1072 17.2209 17.1641 17.1641C17.2209 17.1072 17.2812 17.0532 17.3428 17C17.2812 16.9468 17.2209 16.8928 17.1641 16.8359C17.1071 16.7789 17.0533 16.718 17 16.6562C16.9467 16.718 16.8929 16.7789 16.8359 16.8359ZM9 7C9.41421 7 9.75 7.33579 9.75 7.75C9.75 8.5961 10.1621 9.47658 10.8428 10.1572C11.5234 10.8379 12.4039 11.25 13.25 11.25C13.6642 11.25 14 11.5858 14 12C14 12.4142 13.6642 12.75 13.25 12.75C12.4039 12.75 11.5234 13.1621 10.8428 13.8428C10.1621 14.5234 9.75 15.4039 9.75 16.25C9.75 16.6642 9.41421 17 9 17C8.58579 17 8.25 16.6642 8.25 16.25C8.25 15.4039 7.83787 14.5234 7.15723 13.8428C6.47658 13.1621 5.5961 12.75 4.75 12.75C4.33579 12.75 4 12.4142 4 12C4 11.5858 4.33579 11.25 4.75 11.25C5.5961 11.25 6.47658 10.8379 7.15723 10.1572C7.83787 9.47658 8.25 8.5961 8.25 7.75C8.25 7.33579 8.58579 7 9 7ZM9 10.2354C8.77622 10.5928 8.51187 10.9237 8.21777 11.2178C7.92367 11.5119 7.59284 11.7762 7.23535 12C7.59284 12.2238 7.92367 12.4881 8.21777 12.7822C8.51168 13.0761 8.77631 13.4065 9 13.7637C9.22369 13.4065 9.48832 13.0761 9.78223 12.7822C10.0761 12.4883 10.4065 12.2237 10.7637 12C10.4065 11.7763 10.0761 11.5117 9.78223 11.2178C9.48813 10.9237 9.22378 10.5928 9 10.2354ZM17 4C17.4142 4 17.75 4.33579 17.75 4.75C17.75 5.0863 17.9175 5.46632 18.2256 5.77441C18.5337 6.08251 18.9137 6.25 19.25 6.25C19.6642 6.25 20 6.58579 20 7C20 7.41421 19.6642 7.75 19.25 7.75C18.9137 7.75 18.5337 7.91749 18.2256 8.22559C17.9175 8.53368 17.75 8.9137 17.75 9.25C17.75 9.66421 17.4142 10 17 10C16.5858 10 16.25 9.66421 16.25 9.25C16.25 8.9137 16.0825 8.53368 15.7744 8.22559C15.4663 7.91749 15.0863 7.75 14.75 7.75C14.3358 7.75 14 7.41421 14 7C14 6.58579 14.3358 6.25 14.75 6.25C15.0863 6.25 15.4663 6.08251 15.7744 5.77441C16.0825 5.46632 16.25 5.0863 16.25 4.75C16.25 4.33579 16.5858 4 17 4ZM16.8359 6.83594C16.7789 6.89294 16.718 6.94667 16.6562 7C16.718 7.05333 16.7789 7.10706 16.8359 7.16406C16.8928 7.22089 16.9468 7.2812 17 7.34277C17.0532 7.2812 17.1072 7.22089 17.1641 7.16406C17.2209 7.10723 17.2812 7.05318 17.3428 7C17.2812 6.94682 17.2209 6.89277 17.1641 6.83594C17.1071 6.77894 17.0533 6.71802 17 6.65625C16.9467 6.71802 16.8929 6.77894 16.8359 6.83594Z" fill="black"/>
</svg>
