<svg width="24" height="24" viewBox="0 0 24 24" fill="none" xmlns="http://www.w3.org/2000/svg">
<path d="M8 12C8.41421 12 8.75 12.3358 8.75 12.75C8.75 13.3412 9.03981 13.9714 9.53418 14.4658C10.0286 14.9602 10.6588 15.25 11.25 15.25C11.6642 15.25 12 15.5858 12 16C12 16.4142 11.6642 16.75 11.25 16.75C10.6588 16.75 10.0286 17.0398 9.53418 17.5342C9.03981 18.0286 8.75 18.6588 8.75 19.25C8.75 19.6642 8.41421 20 8 20C7.58579 20 7.25 19.6642 7.25 19.25C7.25 18.6588 6.96019 18.0286 6.46582 17.5342C5.97145 17.0398 5.3412 16.75 4.75 16.75C4.33579 16.75 4 16.4142 4 16C4 15.5858 4.33579 15.25 4.75 15.25C5.3412 15.25 5.97145 14.9602 6.46582 14.4658C6.96019 13.9714 7.25 13.3412 7.25 12.75C7.25 12.3358 7.58579 12 8 12ZM8 14.9678C7.85676 15.168 7.69761 15.3551 7.52637 15.5264C7.35512 15.6976 7.16797 15.8568 6.96777 16C7.16797 16.1432 7.35512 16.3024 7.52637 16.4736C7.69743 16.6447 7.85688 16.8313 8 17.0312C8.14312 16.8313 8.30257 16.6447 8.47363 16.4736C8.64469 16.3026 8.83129 16.1431 9.03125 16C8.83129 15.8569 8.64469 15.6974 8.47363 15.5264C8.30239 15.3551 8.14324 15.168 8 14.9678ZM15 4C15.4142 4 15.75 4.33579 15.75 4.75C15.75 6.00652 16.0907 7.15243 16.6924 7.96387C17.2791 8.75494 18.1246 9.25 19.25 9.25C19.6642 9.25 20 9.58579 20 10C20 10.4142 19.6642 10.75 19.25 10.75C18.1246 10.75 17.2791 11.2451 16.6924 12.0361C16.0907 12.8476 15.75 13.9935 15.75 15.25C15.75 15.6642 15.4142 16 15 16C14.5858 16 14.25 15.6642 14.25 15.25C14.25 13.9935 13.9093 12.8476 13.3076 12.0361C12.7209 11.2451 11.8754 10.75 10.75 10.75C10.3358 10.75 10 10.4142 10 10C10 9.58579 10.3358 9.25 10.75 9.25C11.8754 9.25 12.7209 8.75494 13.3076 7.96387C13.9093 7.15243 14.25 6.00652 14.25 4.75C14.25 4.33579 14.5858 4 15 4ZM15 8.06543C14.8578 8.34406 14.6963 8.60985 14.5127 8.85742C14.1794 9.30687 13.7785 9.69393 13.3164 10C13.7785 10.3061 14.1794 10.6931 14.5127 11.1426C14.6961 11.3899 14.8579 11.6553 15 11.9336C15.1421 11.6553 15.3039 11.3899 15.4873 11.1426C15.8205 10.6934 16.2208 10.306 16.6826 10C16.2208 9.694 15.8205 9.30665 15.4873 8.85742C15.3037 8.60985 15.1422 8.34406 15 8.06543Z" fill="black"/>
</svg>
