<svg width="24" height="24" viewBox="0 0 24 24" fill="none" xmlns="http://www.w3.org/2000/svg">
<path fill-rule="evenodd" clip-rule="evenodd" d="M6.75 11C7.16412 11.0001 7.5 11.3358 7.5 11.75V14.25C7.50001 14.388 7.61193 14.5 7.75 14.5H11.5C11.6531 14.5 11.8031 14.5473 11.9287 14.6347L17.6787 18.6347C18.0182 18.8714 18.1016 19.3389 17.8652 19.6787C17.6286 20.0182 17.1611 20.1015 16.8213 19.8652L11.2646 16H7.75C6.78351 16 6.00001 15.2165 6 14.25V11.75C6 11.3357 6.33579 11 6.75 11ZM16.8213 4.13473C17.0505 3.97534 17.3502 3.95562 17.5977 4.08492C17.845 4.2143 18 4.47081 18 4.74996V15.4189L19.6895 16.6425C20.0247 16.8854 20.1 17.354 19.8574 17.6894C19.6146 18.0248 19.146 18.1 18.8105 17.8574L7.12988 9.3984C7.08121 9.37057 7.03617 9.33838 6.99512 9.30074L4.31055 7.35738C3.97515 7.11451 3.89987 6.64598 4.14258 6.31051C4.38548 5.97519 4.85402 5.89986 5.18945 6.14254L7.75488 7.99996H11.2646L16.8213 4.13473ZM11.9287 9.3652C11.8031 9.4526 11.6531 9.49992 11.5 9.49996H9.82617L16.5 14.332V6.18453L11.9287 9.3652Z" fill="black"/>
</svg>
