<svg width="24" height="24" viewBox="0 0 24 24" fill="none" xmlns="http://www.w3.org/2000/svg">
<path fill-rule="evenodd" clip-rule="evenodd" d="M12.7666 4.17689C12.9897 3.98899 13.3019 3.9474 13.5664 4.07045C13.8307 4.19356 14 4.45853 14 4.75014V19.2501C13.9999 19.5417 13.8307 19.8068 13.5664 19.9298C13.302 20.0528 12.9897 20.0111 12.7666 19.8234L8.22656 16.0001H5.75C4.78362 16.0001 4.00019 15.2165 4 14.2501V9.75014C4 8.78364 4.7835 8.00014 5.75 8.00014H8.22656L12.7666 4.17689ZM8.9834 9.32338C8.8482 9.43716 8.67671 9.50014 8.5 9.50014H5.75C5.61193 9.50014 5.5 9.61207 5.5 9.75014V14.2501C5.50019 14.388 5.61205 14.5001 5.75 14.5001H8.5C8.67678 14.5001 8.84818 14.563 8.9834 14.6769L12.5 17.6378V6.36147L8.9834 9.32338ZM17.0791 9.41518C17.2643 9.04482 17.7146 8.8943 18.085 9.07924L17.75 9.75014C18.0607 9.12867 18.084 9.08251 18.0859 9.07924L18.0879 9.08021C18.0887 9.08069 18.0898 9.08165 18.0908 9.08217L18.1201 9.09682C18.1371 9.1059 18.1595 9.11851 18.1865 9.13393C18.2408 9.16492 18.3143 9.20933 18.4004 9.26674C18.5715 9.38082 18.7999 9.55203 19.0303 9.78236C19.487 10.2391 20 10.9812 20 12.0001C19.9999 13.019 19.487 13.7612 19.0303 14.2179C18.7999 14.4482 18.5715 14.6195 18.4004 14.7335C18.3143 14.7909 18.2407 14.8354 18.1865 14.8663C18.1595 14.8818 18.1371 14.8944 18.1201 14.9035L18.0908 14.9181C18.0898 14.9187 18.0887 14.9196 18.0879 14.9201H18.0869C18.0865 14.9201 18.0804 14.911 17.75 14.2501L18.085 14.921C17.7147 15.1058 17.2643 14.9552 17.0791 14.5851C16.8948 14.2159 17.0434 13.7675 17.4111 13.5812C17.4117 13.5809 17.4129 13.5799 17.4141 13.5792C17.419 13.5766 17.4289 13.5713 17.4424 13.5636C17.4701 13.5477 17.5141 13.5217 17.5684 13.4855C17.6784 13.4121 17.8252 13.3019 17.9697 13.1574C18.2629 12.8642 18.4999 12.4809 18.5 12.0001C18.5 11.5193 18.2629 11.1361 17.9697 10.8429C17.8252 10.6984 17.6785 10.5882 17.5684 10.5148C17.5141 10.4786 17.4702 10.4525 17.4424 10.4367C17.4289 10.429 17.4191 10.4237 17.4141 10.421C17.4121 10.42 17.4106 10.4193 17.4102 10.4191H17.4111C17.0434 10.2329 16.895 9.78436 17.0791 9.41518Z" fill="black"/>
</svg>
