<svg width="24" height="24" viewBox="0 0 24 24" fill="none" xmlns="http://www.w3.org/2000/svg">
<path fill-rule="evenodd" clip-rule="evenodd" d="M16.8672 4.10448C17.099 3.96711 17.387 3.96524 17.6211 4.09862C17.8552 4.23203 18 4.48052 18 4.74999V19.25C18 19.5195 17.8552 19.7679 17.6211 19.9014C17.387 20.0347 17.099 20.0329 16.8672 19.8955L10.2939 16H7.75C6.7835 16 6 15.2165 6 14.25V9.74999C6 8.78349 6.7835 7.99999 7.75 7.99999H10.2939L16.8672 4.10448ZM10.8828 9.3955C10.7671 9.46409 10.6345 9.49999 10.5 9.49999H7.75C7.61193 9.49999 7.5 9.61192 7.5 9.74999V14.25C7.5 14.3881 7.61193 14.5 7.75 14.5H10.5C10.6345 14.5 10.7671 14.5359 10.8828 14.6045L16.5 17.9326V6.0664L10.8828 9.3955Z" fill="black"/>
</svg>
