<svg width="24" height="24" viewBox="0 0 24 24" fill="none" xmlns="http://www.w3.org/2000/svg">
<path fill-rule="evenodd" clip-rule="evenodd" d="M12.7666 4.17689C12.9897 3.98899 13.3019 3.9474 13.5664 4.07045C13.8307 4.19356 14 4.45853 14 4.75014V19.2501C13.9999 19.5417 13.8307 19.8068 13.5664 19.9298C13.302 20.0528 12.9897 20.0111 12.7666 19.8234L8.22656 16.0001H5.75C4.78362 16.0001 4.00019 15.2165 4 14.2501V9.75014C4 8.78364 4.7835 8.00014 5.75 8.00014H8.22656L12.7666 4.17689ZM8.9834 9.32338C8.8482 9.43716 8.67671 9.50014 8.5 9.50014H5.75C5.61193 9.50014 5.5 9.61207 5.5 9.75014V14.2501C5.50019 14.3881 5.61204 14.5001 5.75 14.5001H8.5C8.67678 14.5001 8.84818 14.563 8.9834 14.6769L12.5 17.6378V6.36147L8.9834 9.32338ZM17.1738 7.26967C17.439 6.95164 17.9123 6.90885 18.2305 7.17397L18.1484 7.2726C18.2156 7.19224 18.2281 7.17749 18.2305 7.17494H18.2314L18.2363 7.17982C18.2388 7.18187 18.242 7.18399 18.2451 7.18666C18.2515 7.19218 18.2596 7.19907 18.2686 7.20717C18.2867 7.22352 18.3102 7.24557 18.3379 7.2726C18.3938 7.32718 18.4682 7.40434 18.5537 7.50404C18.7249 7.70376 18.9433 7.99684 19.1582 8.39076C19.5905 9.18321 20 10.3688 20 11.9992C19.9999 13.6292 19.5903 14.8147 19.1582 15.6076C18.9433 16.0018 18.7248 16.2954 18.5537 16.4953C18.4683 16.595 18.3947 16.6721 18.3389 16.7267C18.3112 16.7538 18.2877 16.7757 18.2695 16.7921C18.2607 16.8001 18.2524 16.8072 18.2461 16.8126C18.243 16.8153 18.2397 16.8184 18.2373 16.8204C18.2361 16.8215 18.2344 16.8225 18.2334 16.8234L18.2314 16.8253C18.2309 16.8254 18.2207 16.8138 17.75 16.2501L18.2305 16.8263C17.9126 17.0912 17.4392 17.0482 17.1738 16.7306C16.9095 16.4137 16.9515 15.9427 17.2666 15.6769L17.2646 15.6779L17.29 15.6544C17.3161 15.6289 17.3601 15.5839 17.415 15.5197C17.5251 15.3911 17.6819 15.183 17.8418 14.8898C18.1595 14.3068 18.4999 13.3668 18.5 11.9992C18.5 10.6314 18.1594 9.69179 17.8418 9.10951C17.6819 8.81652 17.525 8.60898 17.415 8.48061C17.3604 8.41692 17.3172 8.37237 17.291 8.34682C17.2782 8.33428 17.2685 8.32582 17.2646 8.3224L17.2637 8.32045C16.9515 8.05434 16.9107 7.58569 17.1738 7.26967ZM15.2109 10.2287C15.499 9.93119 15.9739 9.9232 16.2715 10.2111L15.8779 10.6183L16.2725 10.2121L16.291 10.2306C16.2993 10.239 16.3097 10.2494 16.3213 10.2619C16.3447 10.2871 16.3751 10.3217 16.4092 10.3634C16.4771 10.4465 16.5636 10.5643 16.6494 10.713C16.8204 11.0097 17 11.4515 17 12.0001C16.9999 12.5487 16.8204 12.9907 16.6494 13.2872C16.5636 13.436 16.477 13.5538 16.4092 13.6369C16.3752 13.6785 16.3447 13.7122 16.3213 13.7374C16.3096 13.75 16.2993 13.7612 16.291 13.7697L16.2715 13.7892C15.974 14.0768 15.499 14.0688 15.2109 13.7716C14.9412 13.4928 14.9312 13.0583 15.1758 12.7677L15.2227 12.7169L15.2217 12.7179C15.2256 12.7137 15.2345 12.7031 15.2471 12.6876C15.2728 12.6561 15.3117 12.6047 15.3506 12.5372C15.4294 12.4004 15.4999 12.2167 15.5 12.0001C15.5 11.7836 15.4294 11.5998 15.3506 11.463C15.3117 11.3956 15.2728 11.3442 15.2471 11.3126C15.2384 11.302 15.2323 11.2927 15.2275 11.2872V11.2882C14.9308 11.0001 14.9235 10.526 15.2109 10.2287Z" fill="black"/>
</svg>
