<svg width="24" height="24" viewBox="0 0 24 24" fill="none" xmlns="http://www.w3.org/2000/svg">
<path fill-rule="evenodd" clip-rule="evenodd" d="M12.7666 4.17689C12.9897 3.98899 13.3019 3.9474 13.5664 4.07045C13.8307 4.19356 14 4.45853 14 4.75014V19.2501C13.9999 19.5417 13.8307 19.8068 13.5664 19.9298C13.302 20.0528 12.9897 20.0111 12.7666 19.8234L8.22656 16.0001H5.75C4.78362 16.0001 4.00019 15.2165 4 14.2501V9.75014C4 8.78364 4.7835 8.00014 5.75 8.00014H8.22656L12.7666 4.17689ZM8.9834 9.32338C8.8482 9.43716 8.67671 9.50014 8.5 9.50014H5.75C5.61193 9.50014 5.5 9.61207 5.5 9.75014V14.2501C5.50019 14.3881 5.61204 14.5001 5.75 14.5001H8.5C8.67678 14.5001 8.84818 14.563 8.9834 14.6769L12.5 17.6378V6.36147L8.9834 9.32338Z" fill="black"/>
</svg>
