<svg width="24" height="24" viewBox="0 0 24 24" fill="none" xmlns="http://www.w3.org/2000/svg">
<path fill-rule="evenodd" clip-rule="evenodd" d="M12.7666 4.17689C12.9897 3.98899 13.3019 3.9474 13.5664 4.07045C13.8307 4.19356 14 4.45853 14 4.75014V19.2501C13.9999 19.5417 13.8307 19.8068 13.5664 19.9298C13.302 20.0528 12.9897 20.0111 12.7666 19.8234L8.22656 16.0001H5.75C4.78362 16.0001 4.00019 15.2165 4 14.2501V9.75014C4 8.78364 4.7835 8.00014 5.75 8.00014H8.22656L12.7666 4.17689ZM8.9834 9.32338C8.8482 9.43716 8.67671 9.50014 8.5 9.50014H5.75C5.61193 9.50014 5.5 9.61207 5.5 9.75014V14.2501C5.50019 14.3881 5.61204 14.5001 5.75 14.5001H8.5C8.67678 14.5001 8.84818 14.563 8.9834 14.6769L12.5 17.6378V6.36147L8.9834 9.32338ZM18.7197 10.2199C19.0126 9.92697 19.4874 9.92697 19.7803 10.2199C20.073 10.5128 20.0731 10.9876 19.7803 11.2804L18.5605 12.5001L19.7803 13.7199C20.073 14.0128 20.0731 14.4876 19.7803 14.7804C19.4874 15.0731 19.0126 15.0731 18.7197 14.7804L17.5 13.5607L16.2803 14.7804C15.9874 15.0731 15.5126 15.0731 15.2197 14.7804C14.9269 14.4876 14.927 14.0128 15.2197 13.7199L16.4395 12.5001L15.2197 11.2804C14.9269 10.9876 14.927 10.5128 15.2197 10.2199C15.5126 9.92697 15.9874 9.92697 16.2803 10.2199L17.5 11.4396L18.7197 10.2199Z" fill="black"/>
</svg>
