<svg width="24" height="24" viewBox="0 0 24 24" fill="none" xmlns="http://www.w3.org/2000/svg">
<path fill-rule="evenodd" clip-rule="evenodd" d="M16.4805 6.05018C16.867 5.90151 17.3014 6.09437 17.4502 6.48085L19.9502 12.9808C19.9831 13.0666 20 13.1585 20 13.2504V16.2504C19.9998 17.2167 19.2164 18.0004 18.25 18.0004H14.75C13.7836 18.0004 13.0002 17.2167 13 16.2504V15.0004H11V16.2504C10.9998 17.2167 10.2164 18.0004 9.25 18.0004H5.75C4.78365 18.0004 4.00024 17.2167 4 16.2504V13.2504C4 13.1585 4.01686 13.0666 4.0498 12.9808L6.5498 6.48085C6.69857 6.09437 7.13299 5.90151 7.51953 6.05018C7.90591 6.199 8.09885 6.63342 7.9502 7.01991L6.03418 12.0004H9.25C10.1317 12.0004 10.8592 12.6522 10.9805 13.5004H13.0195C13.1408 12.6522 13.8683 12.0004 14.75 12.0004H17.9658L16.0498 7.01991C15.9012 6.63342 16.0941 6.199 16.4805 6.05018ZM5.75 13.5004C5.61193 13.5004 5.5 13.6123 5.5 13.7504V16.2504C5.50024 16.3882 5.61208 16.5004 5.75 16.5004H9.25C9.38792 16.5004 9.49976 16.3882 9.5 16.2504V13.7504C9.5 13.6123 9.38807 13.5004 9.25 13.5004H5.75ZM14.75 13.5004C14.6119 13.5004 14.5 13.6123 14.5 13.7504V16.2504C14.5002 16.3882 14.6121 16.5004 14.75 16.5004H18.25C18.3879 16.5004 18.4998 16.3882 18.5 16.2504V13.7504C18.5 13.6123 18.3881 13.5004 18.25 13.5004H14.75Z" fill="black"/>
</svg>
