<svg width="24" height="24" viewBox="0 0 24 24" fill="none" xmlns="http://www.w3.org/2000/svg">
<path fill-rule="evenodd" clip-rule="evenodd" d="M16.4697 5.21967C16.7626 4.92678 17.2374 4.92678 17.5303 5.21967L19.1943 6.88373C19.71 7.39939 19.9999 8.09883 20 8.82807V13.7578C19.9999 14.7133 19.6338 15.63 18.9814 16.3242C18.8197 17.8285 17.5473 18.9999 16 18.9999C14.5135 18.9999 13.2801 17.9188 13.042 16.4999H10.958C10.7199 17.9188 9.48647 18.9999 8 18.9999C6.4527 18.9999 5.17925 17.8285 5.01758 16.3242C4.36548 15.63 4.00012 14.7131 4 13.7578V8.82807C4.00008 8.09883 4.29001 7.39939 4.80566 6.88373L6.46973 5.21967C6.76262 4.92678 7.23738 4.92678 7.53027 5.21967C7.82317 5.51256 7.82317 5.98732 7.53027 6.28022L5.86621 7.94428C5.63186 8.17863 5.50008 8.49666 5.5 8.82807V13.7578C5.50003 13.9279 5.52125 14.0955 5.55859 14.2587C6.10267 13.4972 6.99275 12.9999 8 12.9999C9.30585 12.9999 10.4141 13.8353 10.8262 14.9999H13.1738C13.5859 13.8353 14.6941 12.9999 16 12.9999C17.007 12.9999 17.8963 13.4975 18.4404 14.2587C18.4778 14.0955 18.5 13.9279 18.5 13.7578V8.82807C18.4999 8.49666 18.3681 8.17863 18.1338 7.94428L16.4697 6.28022C16.1768 5.98732 16.1768 5.51256 16.4697 5.21967ZM8 14.4999C7.17157 14.4999 6.5 15.1715 6.5 15.9999C6.5 16.8284 7.17157 17.4999 8 17.4999C8.82843 17.4999 9.5 16.8284 9.5 15.9999C9.5 15.1715 8.82843 14.4999 8 14.4999ZM16 14.4999C15.1716 14.4999 14.5 15.1715 14.5 15.9999C14.5 16.8284 15.1716 17.4999 16 17.4999C16.8284 17.4999 17.5 16.8284 17.5 15.9999C17.5 15.1715 16.8284 14.4999 16 14.4999Z" fill="black"/>
</svg>
