<svg width="24" height="24" viewBox="0 0 24 24" fill="none" xmlns="http://www.w3.org/2000/svg">
<path d="M12 4C14.0587 4 16.057 4.55705 17.5547 5.80273C19.0724 7.06522 20 8.97323 20 11.5C20 14.0268 19.0724 15.9348 17.5547 17.1973C16.057 18.4429 14.0587 19 12 19C11.5394 19 11.083 18.9718 10.6357 18.915C10.5637 18.906 10.4875 18.9184 10.416 18.9521C9.38863 19.4379 8.18459 19.7562 7.14258 19.9648C6.28532 20.1365 5.61436 19.6412 5.28613 19.0645C4.96349 18.4974 4.87891 17.7149 5.25293 17.043C5.35331 16.8626 5.45123 16.6727 5.54395 16.4746C5.55369 16.4537 5.56082 16.4221 5.55176 16.3711C5.54205 16.3164 5.5143 16.2473 5.46191 16.1797C4.53034 14.9767 4 13.4112 4 11.5C4 8.97323 4.92758 7.06522 6.44531 5.80273C7.94298 4.55705 9.94131 4 12 4ZM12 5.5C10.1928 5.5 8.56609 5.99063 7.40527 6.95605C6.26464 7.90478 5.5 9.37172 5.5 11.5C5.5 13.1237 5.9454 14.3551 6.64746 15.2617C7.00923 15.7289 7.2175 16.4367 6.90234 17.1104C6.79373 17.3424 6.67973 17.5636 6.56348 17.7725C6.48328 17.9165 6.48424 18.1377 6.58984 18.3232C6.68964 18.4983 6.78916 18.5058 6.84766 18.4941C7.83754 18.296 8.90611 18.0062 9.77441 17.5957C10.0985 17.4425 10.4631 17.3818 10.8252 17.4277C11.2069 17.4761 11.5997 17.5 12 17.5C13.8072 17.5 15.4339 17.0094 16.5947 16.0439C17.7354 15.0952 18.5 13.6283 18.5 11.5C18.5 9.37172 17.7354 7.90478 16.5947 6.95605C15.4339 5.99063 13.8072 5.5 12 5.5ZM14.25 11C14.6642 11 15 11.3358 15 11.75C15 12.1642 14.6642 12.5 14.25 12.5H9.75C9.33579 12.5 9 12.1642 9 11.75C9 11.3358 9.33579 11 9.75 11H14.25Z" fill="black"/>
</svg>
