<svg width="24" height="24" viewBox="0 0 24 24" fill="none" xmlns="http://www.w3.org/2000/svg">
<path d="M14.25 4C14.6642 4 15 4.33579 15 4.75C15 5.16421 14.6642 5.5 14.25 5.5H12.75V6.04004C14.1204 6.18611 15.372 6.72818 16.3896 7.54883L16.7197 7.21973C17.0126 6.92683 17.4874 6.92683 17.7803 7.21973C18.0732 7.51262 18.0732 7.98738 17.7803 8.28027L17.4502 8.60938C18.4188 9.81027 19 11.3371 19 13C19 16.8659 15.8658 19.9997 12 20C10.7971 19.9999 9.66228 19.6953 8.67188 19.1592C8.30795 18.9619 8.17301 18.5067 8.37012 18.1426C8.5675 17.7788 9.02267 17.6437 9.38672 17.8408C10.1632 18.261 11.0528 18.4999 12 18.5C15.0374 18.4997 17.5 16.0374 17.5 13C17.5 9.96259 15.0374 7.50026 12 7.5C11.0528 7.50007 10.1632 7.73902 9.38672 8.15918C9.02267 8.35625 8.5675 8.2212 8.37012 7.85742C8.17301 7.49331 8.30795 7.03814 8.67188 6.84082C9.45382 6.41758 10.3257 6.14067 11.25 6.04199V5.5H9.75C9.33579 5.5 9 5.16421 9 4.75C9 4.33579 9.33579 4 9.75 4H14.25ZM8.25 15.25C8.66421 15.25 9 15.5858 9 16C9 16.4142 8.66421 16.75 8.25 16.75H4.75C4.33579 16.75 4 16.4142 4 16C4 15.5858 4.33579 15.25 4.75 15.25H8.25ZM13.7197 10.2197C14.0126 9.92683 14.4874 9.92683 14.7803 10.2197C15.0732 10.5126 15.0732 10.9874 14.7803 11.2803L12.2803 13.7803C11.9874 14.0732 11.5126 14.0732 11.2197 13.7803C10.9268 13.4874 10.9268 13.0126 11.2197 12.7197L13.7197 10.2197ZM6.25 12.25C6.66421 12.25 7 12.5858 7 13C7 13.4142 6.66421 13.75 6.25 13.75H4.75C4.33579 13.75 4 13.4142 4 13C4 12.5858 4.33579 12.25 4.75 12.25H6.25ZM8.25 9.25C8.66421 9.25 9 9.58579 9 10C9 10.4142 8.66421 10.75 8.25 10.75H4.75C4.33579 10.75 4 10.4142 4 10C4 9.58579 4.33579 9.25 4.75 9.25H8.25Z" fill="black"/>
</svg>
