<svg width="24" height="24" viewBox="0 0 24 24" fill="none" xmlns="http://www.w3.org/2000/svg">
<path d="M12 4C16.4183 4 20 7.58172 20 12C20 16.4183 16.4183 20 12 20C7.58172 20 4 16.4183 4 12C4 7.58172 7.58172 4 12 4ZM5.99902 14.5C6.97866 16.8488 9.29617 18.5 12 18.5C14.7038 18.5 17.0213 16.8488 18.001 14.5H5.99902ZM12 5.5C8.41015 5.5 5.5 8.41015 5.5 12C5.5 12.3401 5.5268 12.674 5.57715 13H11.4072L13.5723 8.42871C13.7497 8.05452 14.197 7.89498 14.5713 8.07227C14.9455 8.24965 15.105 8.69702 14.9277 9.07129L13.0664 13H18.4229C18.4732 12.674 18.5 12.3401 18.5 12C18.5 8.41015 15.5899 5.5 12 5.5Z" fill="black"/>
</svg>
