<svg width="24" height="24" viewBox="0 0 24 24" fill="none" xmlns="http://www.w3.org/2000/svg">
<path d="M14.25 4C14.6642 4 15 4.33579 15 4.75C15 5.16421 14.6642 5.5 14.25 5.5H12.75V6.04102C14.1205 6.187 15.372 6.72821 16.3896 7.54883L16.7197 7.21973C17.0126 6.92683 17.4874 6.92683 17.7803 7.21973C18.0732 7.51262 18.0732 7.98738 17.7803 8.28027L17.4502 8.60938C18.1969 9.53521 18.7139 10.6543 18.9111 11.8809C18.9769 12.2898 18.698 12.6745 18.2891 12.7402C17.8803 12.8058 17.4954 12.528 17.4297 12.1191C17.0086 9.5005 14.7373 7.5 12 7.5C8.96243 7.5 6.5 9.96243 6.5 13C6.5 16.0376 8.96243 18.5 12 18.5H12.25C12.6642 18.5 13 18.8358 13 19.25C13 19.6642 12.6642 20 12.25 20H12C8.13401 20 5 16.866 5 13C5 9.38739 7.73669 6.41428 11.25 6.04004V5.5H9.75C9.33579 5.5 9 5.16421 9 4.75C9 4.33579 9.33579 4 9.75 4H14.25ZM19.25 15C19.5309 15 19.7884 15.1574 19.917 15.4072C20.0453 15.6569 20.0234 15.9571 19.8604 16.1855L18.207 18.5H19.25C19.6642 18.5 20 18.8358 20 19.25C20 19.6642 19.6642 20 19.25 20H16.75C16.4691 20 16.2116 19.8426 16.083 19.5928C15.9547 19.3431 15.9766 19.0429 16.1396 18.8145L17.793 16.5H16.75C16.3358 16.5 16 16.1642 16 15.75C16 15.3358 16.3358 15 16.75 15H19.25ZM14.25 12C14.5202 12 14.7692 12.1457 14.9023 12.3809C15.0353 12.6159 15.0324 12.9041 14.8936 13.1357L14.0752 14.5H14.25C14.6642 14.5 15 14.8358 15 15.25C15 15.6642 14.6642 16 14.25 16H12.75C12.4798 16 12.2308 15.8543 12.0977 15.6191C11.9647 15.3841 11.9676 15.0959 12.1064 14.8643L12.9248 13.5H12.75C12.3358 13.5 12 13.1642 12 12.75C12 12.3358 12.3358 12 12.75 12H14.25Z" fill="black"/>
</svg>
