<svg width="24" height="24" viewBox="0 0 24 24" fill="none" xmlns="http://www.w3.org/2000/svg">
<path d="M12 4C14.0587 4 16.057 4.55705 17.5547 5.80273C19.0724 7.06522 20 8.97323 20 11.5C20 14.0268 19.0724 15.9348 17.5547 17.1973C16.057 18.4429 14.0587 19 12 19C11.5394 19 11.083 18.9718 10.6357 18.915C10.5638 18.906 10.4876 18.9183 10.416 18.9521C9.38865 19.4379 8.18459 19.7562 7.14258 19.9648C6.28531 20.1365 5.61437 19.6412 5.28613 19.0645C4.98372 18.533 4.89 17.8125 5.1875 17.1709L5.25293 17.043C5.3533 16.8626 5.45123 16.6727 5.54395 16.4746C5.55368 16.4538 5.56083 16.4222 5.55176 16.3711C5.54205 16.3165 5.5143 16.2474 5.46191 16.1797C4.53033 14.9768 4 13.4112 4 11.5C4 8.97323 4.92758 7.06522 6.44531 5.80273C7.94298 4.55705 9.94131 4 12 4ZM12 5.5C10.1928 5.5 8.5661 5.99063 7.40527 6.95605C6.26464 7.90478 5.5 9.37172 5.5 11.5C5.5 13.1238 5.94542 14.3552 6.64746 15.2617C7.00917 15.7289 7.21756 16.4367 6.90234 17.1104C6.79373 17.3425 6.67973 17.5635 6.56348 17.7725V17.7734C6.48343 17.9175 6.4843 18.1378 6.58984 18.3232C6.68966 18.4984 6.78918 18.5058 6.84766 18.4941C7.83754 18.296 8.90614 18.0062 9.77441 17.5957H9.77539C10.0589 17.4618 10.3728 17.398 10.6895 17.415L10.8252 17.4277L11.1133 17.459C11.4036 17.4862 11.6997 17.5 12 17.5C13.8072 17.5 15.4339 17.0094 16.5947 16.0439C17.7354 15.0952 18.5 13.6283 18.5 11.5C18.5 9.37172 17.7354 7.90478 16.5947 6.95605C15.4339 5.99064 13.8072 5.5 12 5.5ZM13 15.0098H11V13H13V15.0098ZM13 12H11V8H13V12Z" fill="black"/>
</svg>
