<svg width="24" height="24" viewBox="0 0 24 24" fill="none" xmlns="http://www.w3.org/2000/svg">
<path d="M12 4C16.4183 4 20 7.58172 20 12C20 16.4183 16.4183 20 12 20C7.58172 20 4 16.4183 4 12C4 7.58172 7.58172 4 12 4ZM5.59375 13.0957C6.08487 15.9879 8.48496 18.2273 11.4531 18.4746C11.489 18.423 11.5417 18.346 11.6064 18.2451C11.7418 18.0342 11.9311 17.7201 12.1377 17.3203C12.4493 16.7173 12.7962 15.9249 13.0625 14.998C13.0417 14.9982 13.0209 15 13 15C11.1172 15 9.018 14.4014 7.43359 13.8311C6.70499 13.5688 6.07058 13.3038 5.59375 13.0957ZM17.9951 13.6055C17.1687 14.0788 16.021 14.5962 14.6533 14.8467C14.3435 16.1355 13.8778 17.221 13.4707 18.0088C13.4036 18.1386 13.3366 18.2602 13.2734 18.374C15.8017 17.8717 17.8003 15.9039 18.3486 13.3926C18.2377 13.4616 18.1203 13.5338 17.9951 13.6055ZM11.4521 5.52441C8.30982 5.78672 5.80346 8.28279 5.52637 11.4209C5.65092 11.4799 5.83272 11.5647 6.06152 11.666C6.52565 11.8714 7.1807 12.1451 7.94141 12.4189C9.48198 12.9736 11.3829 13.5 13 13.5C13.1311 13.5 13.2606 13.495 13.3887 13.4883C13.458 13.0117 13.5 12.5142 13.5 12C13.5 10.1377 12.9755 8.49459 12.4414 7.30762C12.1753 6.71628 11.909 6.24501 11.7119 5.92383C11.6135 5.76342 11.5325 5.64087 11.4775 5.56055C11.4684 5.54727 11.4598 5.53536 11.4521 5.52441ZM13.2725 5.625C13.4394 5.92577 13.6247 6.28366 13.8086 6.69238C14.3995 8.00541 15 9.86226 15 12C15 12.4293 14.9741 12.8469 14.9307 13.251C15.8509 13.0167 16.6417 12.6516 17.249 12.3037C17.6552 12.071 17.9746 11.8502 18.1895 11.6895C18.2967 11.6092 18.3774 11.5442 18.4297 11.501C18.4493 11.4848 18.4642 11.4707 18.4756 11.4609C18.2365 8.54986 16.0815 6.18255 13.2725 5.625Z" fill="black"/>
</svg>
