<svg width="24" height="24" viewBox="0 0 24 24" fill="none" xmlns="http://www.w3.org/2000/svg">
<path fill-rule="evenodd" clip-rule="evenodd" d="M16.0127 4.03817C16.4056 3.90719 16.8309 4.11985 16.9619 4.51278L17.5127 6.16708C18.0304 7.72068 17.1787 9.32776 15.7363 9.83505C15.8692 10.3612 15.9552 10.9207 15.9863 11.5001H17.25C17.9403 11.5001 18.4999 10.9403 18.5 10.2501V9.75009C18.5 9.33587 18.8358 9.00009 19.25 9.00009C19.6642 9.00009 20 9.33587 20 9.75009V10.2501C19.9999 11.7688 18.7687 13.0001 17.25 13.0001H15.9453C15.9014 13.4017 15.8304 13.7913 15.7363 14.1641C17.1796 14.6701 18.0524 16.2722 17.5322 17.8331L16.9805 19.4874C16.8494 19.88 16.4249 20.0926 16.0322 19.962C15.6393 19.831 15.4268 19.4057 15.5576 19.0128L16.1094 17.3585C16.3628 16.5973 15.9326 15.8167 15.2256 15.5763C15.1354 15.761 15.0396 15.9394 14.9355 16.1075C14.27 17.1823 13.2526 18.0001 12 18.0001C10.7474 18 9.72995 17.1823 9.06445 16.1075C8.96052 15.9396 8.86451 15.7617 8.77441 15.5772C8.07737 15.8177 7.65464 16.5911 7.91016 17.3585L8.46191 19.0128C8.59275 19.4057 8.38019 19.831 7.9873 19.962C7.59444 20.0929 7.16915 19.8802 7.03809 19.4874L6.4873 17.8331C5.96959 16.2797 6.82079 14.6718 8.2627 14.1641C8.16864 13.7914 8.09955 13.4016 8.05566 13.0001H6.75C5.2313 13.0001 4.00013 11.7688 4 10.2501V9.75009C4 9.33587 4.33579 9.00009 4.75 9.00009C5.16421 9.00009 5.5 9.33587 5.5 9.75009V10.2501C5.50013 10.9403 6.05972 11.5001 6.75 11.5001H8.01465C8.04579 10.9208 8.12991 10.3611 8.2627 9.83505C6.82102 9.32735 5.96981 7.72028 6.4873 6.16708L7.03906 4.51278C7.17014 4.12002 7.59446 3.90729 7.9873 4.03817C8.38022 4.16918 8.59289 4.59446 8.46191 4.98739L7.91016 6.64169C7.65483 7.4089 8.07764 8.18145 8.77441 8.42196C8.8644 8.23775 8.96068 8.06032 9.06445 7.89266C9.72995 6.81779 10.7473 6.00014 12 6.00009C13.2527 6.00009 14.27 6.81781 14.9355 7.89266C15.0392 8.06005 15.1357 8.23709 15.2256 8.42098C15.9223 8.18043 16.3452 7.40889 16.0898 6.64169L15.5391 4.98739C15.4081 4.59449 15.6199 4.16923 16.0127 4.03817ZM12 7.50009C11.458 7.50014 10.8506 7.8577 10.3398 8.6827C9.8363 9.49624 9.5 10.6672 9.5 12.0001C9.50004 13.3329 9.83627 14.504 10.3398 15.3175C10.8505 16.1424 11.458 16.5 12 16.5001C12.542 16.5001 13.1494 16.1424 13.6602 15.3175C14.1637 14.504 14.5 13.333 14.5 12.0001C14.5 10.6672 14.1637 9.49624 13.6602 8.6827C13.1494 7.85767 12.5421 7.50009 12 7.50009Z" fill="black"/>
</svg>
