<svg width="24" height="24" viewBox="0 0 24 24" fill="none" xmlns="http://www.w3.org/2000/svg">
<path d="M12 17C12.4142 17 12.75 17.3358 12.75 17.75V19.25C12.75 19.6642 12.4142 20 12 20C11.5858 20 11.25 19.6642 11.25 19.25V17.75C11.25 17.3358 11.5858 17 12 17ZM7.4043 15.5361C7.69717 15.2433 8.17195 15.2433 8.46484 15.5361C8.75725 15.8291 8.75757 16.3039 8.46484 16.5967L7.4043 17.6572C7.11157 17.95 6.63668 17.9496 6.34375 17.6572C6.05091 17.3643 6.05088 16.8896 6.34375 16.5967L7.4043 15.5361ZM15.5361 15.5361C15.829 15.2432 16.3038 15.2432 16.5967 15.5361L17.6572 16.5967C17.9496 16.8896 17.95 17.3645 17.6572 17.6572C17.3645 17.95 16.8896 17.9496 16.5967 17.6572L15.5361 16.5967C15.2432 16.3038 15.2432 15.829 15.5361 15.5361ZM6.25 11.25C6.66421 11.25 7 11.5858 7 12C7 12.4142 6.66421 12.75 6.25 12.75H4.75C4.33579 12.75 4 12.4142 4 12C4 11.5858 4.33579 11.25 4.75 11.25H6.25ZM19.25 11.25C19.6642 11.25 20 11.5858 20 12C20 12.4142 19.6642 12.75 19.25 12.75H17.75C17.3358 12.75 17 12.4142 17 12C17 11.5858 17.3358 11.25 17.75 11.25H19.25ZM6.34375 6.34375C6.63664 6.05086 7.1114 6.05086 7.4043 6.34375L8.46484 7.4043C8.75725 7.69723 8.75757 8.17211 8.46484 8.46484C8.17211 8.75757 7.69723 8.75725 7.4043 8.46484L6.34375 7.4043C6.05086 7.1114 6.05086 6.63664 6.34375 6.34375ZM16.5967 6.34375C16.8896 6.05088 17.3643 6.05091 17.6572 6.34375C17.9496 6.63668 17.95 7.11157 17.6572 7.4043L16.5967 8.46484C16.3039 8.75757 15.8291 8.75725 15.5361 8.46484C15.2433 8.17195 15.2433 7.69717 15.5361 7.4043L16.5967 6.34375ZM12 4C12.4142 4 12.75 4.33579 12.75 4.75V6.25C12.75 6.66421 12.4142 7 12 7C11.5858 7 11.25 6.66421 11.25 6.25V4.75C11.25 4.33579 11.5858 4 12 4Z" fill="black"/>
</svg>
