<svg width="24" height="24" viewBox="0 0 24 24" fill="none" xmlns="http://www.w3.org/2000/svg">
<path fill-rule="evenodd" clip-rule="evenodd" d="M4.9177 4.91758C5.7352 4.10008 6.89077 3.87524 8.00657 4.06114C9.12412 4.24739 10.2694 4.84942 11.2097 5.78965C12.2049 6.78487 12.823 8.01159 12.9675 9.19297C13.0474 9.84709 13.194 10.3275 13.4861 10.6197L19.406 16.5397C20.1974 17.3312 20.1975 18.6143 19.406 19.4059C18.6144 20.1974 17.3314 20.1973 16.5398 19.4059L10.6199 13.4859C10.3276 13.1939 9.84721 13.0473 9.19309 12.9674C8.01171 12.8229 6.78499 12.2048 5.78977 11.2096C4.84954 10.2692 4.24752 9.12399 4.06126 8.00645C3.87536 6.89064 4.10021 5.73508 4.9177 4.91758ZM7.7595 5.54063C6.9826 5.41133 6.36522 5.59311 5.97923 5.97911C5.59323 6.3651 5.41145 6.98248 5.54075 7.75938C5.66999 8.53481 6.10567 9.40429 6.85032 10.149C7.64027 10.939 8.56841 11.3794 9.37571 11.4781C10.077 11.5638 11.0069 11.7521 11.6804 12.4254L17.6003 18.3453C17.8061 18.551 18.1397 18.5511 18.3454 18.3453C18.5512 18.1396 18.5511 17.806 18.3454 17.6002L12.4255 11.6803C11.7522 11.0068 11.5639 10.0769 11.4783 9.37559C11.3796 8.56829 10.9391 7.64015 10.1491 6.8502C9.40441 6.10555 8.53493 5.66987 7.7595 5.54063Z" fill="#141414"/>
</svg>
