<svg width="24" height="24" viewBox="0 0 24 24" fill="none" xmlns="http://www.w3.org/2000/svg">
<path fill-rule="evenodd" clip-rule="evenodd" d="M4.17335 10.3442C5.08779 6.02177 9.33323 3.25905 13.6558 4.17334C17.9783 5.08777 20.741 9.33321 19.8267 13.6558C18.9122 17.9783 14.6668 20.741 10.3442 19.8267C6.02177 18.9122 3.25905 14.6668 4.17335 10.3442ZM13.3452 5.64112C9.83315 4.89825 6.38409 7.14276 5.64112 10.6548C4.89825 14.1669 7.14277 17.6159 10.6548 18.3589C14.1669 19.1018 17.6159 16.8573 18.3589 13.3452C19.1018 9.83313 16.8573 6.38407 13.3452 5.64112ZM10.3462 13.8228C10.7109 13.8252 11.1312 13.8605 11.5855 13.9565C12.04 14.0527 12.4393 14.1909 12.7739 14.3364C13.1535 14.5016 13.3275 14.943 13.1626 15.3228C12.9974 15.7026 12.5551 15.8766 12.1753 15.7114C11.9218 15.6012 11.6196 15.4971 11.2759 15.4243C10.9317 15.3515 10.6121 15.3246 10.3355 15.3228C9.92158 15.3197 9.58864 14.9818 9.59131 14.5679C9.59412 14.1538 9.93211 13.8201 10.3462 13.8228ZM10.3325 10.9165C10.8038 10.87 11.4591 10.8639 12.2065 11.022C12.954 11.1801 13.5513 11.4507 13.9634 11.6841C14.1696 11.8009 14.3313 11.9098 14.4448 11.9917C14.5016 12.0327 14.5471 12.0674 14.5796 12.0933C14.5957 12.1061 14.6087 12.1172 14.6187 12.1255C14.6236 12.1296 14.6279 12.1333 14.6314 12.1362C14.633 12.1376 14.6349 12.139 14.6362 12.1401L14.6382 12.1411L14.6392 12.1421V12.1431C14.9526 12.4139 14.9871 12.8873 14.7163 13.2007C14.4454 13.5136 13.9719 13.5475 13.6587 13.2769C13.6561 13.2748 13.6519 13.272 13.647 13.2681C13.6316 13.2558 13.6047 13.2351 13.5679 13.2085C13.4936 13.1549 13.3774 13.0766 13.2241 12.9898C12.916 12.8153 12.4629 12.6087 11.896 12.4888C11.3293 12.369 10.8323 12.374 10.48 12.4087C10.3045 12.426 10.1663 12.4513 10.0767 12.4702C10.0325 12.4796 10 12.4877 9.98096 12.4927C9.97169 12.4951 9.96505 12.4968 9.96241 12.4976V12.4966C9.56704 12.6153 9.14923 12.3928 9.02881 11.9976C8.90821 11.6015 9.13189 11.1819 9.52784 11.061L9.72315 11.7007L9.52881 11.061H9.52979L9.53858 11.0581C9.54277 11.0569 9.54824 11.0559 9.5542 11.0542C9.56668 11.0507 9.58309 11.0457 9.60303 11.0405C9.64319 11.0301 9.69859 11.0169 9.7671 11.0024C9.90412 10.9735 10.0964 10.9398 10.3325 10.9165ZM10.2222 7.81006C10.8332 7.79886 11.711 7.85025 12.8276 8.08643C13.9443 8.32263 14.7676 8.63151 15.3218 8.88916C15.5985 9.01783 15.8078 9.13405 15.9526 9.2212C16.0249 9.26466 16.0811 9.30135 16.1216 9.32862C16.1418 9.34221 16.1589 9.353 16.1714 9.36182C16.1775 9.36615 16.1828 9.37044 16.187 9.37354C16.189 9.375 16.1913 9.37629 16.1929 9.37745L16.1958 9.38038H16.1968C16.5287 9.62794 16.5975 10.0982 16.3501 10.4302C16.1027 10.7618 15.6332 10.8303 15.3013 10.5835C15.298 10.5812 15.2921 10.5778 15.2847 10.5728C15.2647 10.5593 15.2294 10.5365 15.1792 10.5064C15.0785 10.4458 14.916 10.3551 14.689 10.2495C14.235 10.0384 13.5198 9.7663 12.5171 9.5542C11.5143 9.34211 10.75 9.30088 10.2495 9.31006C9.99947 9.31466 9.81433 9.33159 9.69776 9.3462C9.63958 9.3535 9.59744 9.36055 9.57374 9.36475C9.5648 9.36633 9.55804 9.36693 9.5542 9.36768C9.15088 9.45864 8.74959 9.20656 8.65772 8.80323C8.56596 8.39968 8.81879 7.99803 9.22217 7.90577L9.32764 8.36573C9.23196 7.9454 9.22365 7.90896 9.22315 7.90577L9.2251 7.90479H9.22803C9.22997 7.90436 9.23242 7.90339 9.23487 7.90284C9.23991 7.90175 9.24625 7.90039 9.25342 7.89893C9.26827 7.89592 9.28826 7.8924 9.31202 7.88819C9.36006 7.87968 9.42669 7.86841 9.51026 7.85791C9.67799 7.83687 9.91697 7.81567 10.2222 7.81006Z" fill="black"/>
</svg>
