<svg width="24" height="24" viewBox="0 0 24 24" fill="none" xmlns="http://www.w3.org/2000/svg">
<path fill-rule="evenodd" clip-rule="evenodd" d="M11.25 5.00018C11.6642 5.00018 11.9999 5.33606 12 5.75018V8.25018C12 8.6644 11.6642 9.00018 11.25 9.00018H10.75V10.0002H12.25C12.5653 10.0002 12.8473 10.198 12.9551 10.4943L13.8945 13.0793C15.102 13.3696 15.9999 14.4537 16 15.7502V19.2502C16 19.6644 15.6642 20.0002 15.25 20.0002C14.8358 20.0002 14.5 19.6644 14.5 19.2502V15.7502C14.4999 15.0599 13.9403 14.5002 13.25 14.5002H6.75C6.05971 14.5002 5.5001 15.0599 5.5 15.7502V19.2502C5.5 19.6644 5.16421 20.0002 4.75 20.0002C4.33579 20.0002 4 19.6644 4 19.2502V15.7502C4.00009 14.454 4.89752 13.3699 6.10449 13.0793L7.04492 10.4943C7.15275 10.198 7.43468 10.0002 7.75 10.0002H9.25V9.00018H8.75C8.33579 9.00018 8 8.6644 8 8.25018V5.75018C8.0001 5.33606 8.33585 5.00018 8.75 5.00018H11.25ZM7.72949 13.0002H12.2705L11.7246 11.5002H8.27539L7.72949 13.0002ZM13.0947 8.38593C13.296 8.0241 13.7523 7.89387 14.1143 8.09491L18.6143 10.5949C18.9762 10.7961 19.1063 11.2524 18.9053 11.6144C18.7041 11.9764 18.2478 12.1066 17.8857 11.9055L13.3857 9.40546C13.0238 9.20423 12.8936 8.74793 13.0947 8.38593ZM18.25 7.00018C18.6642 7.00018 18.9999 7.33606 19 7.75018C19 8.1644 18.6642 8.50018 18.25 8.50018H17.75C17.3358 8.50018 17 8.1644 17 7.75018C17.0001 7.33606 17.3358 7.00018 17.75 7.00018H18.25ZM9.5 7.50018H10.5V6.50018H9.5V7.50018ZM18.0488 4.02753C18.4477 3.91675 18.8616 4.15028 18.9727 4.54901C19.0835 4.94796 18.85 5.36179 18.4512 5.47284L13.9512 6.72284C13.5522 6.83366 13.1384 6.60021 13.0273 6.20136C12.9166 5.80244 13.15 5.38854 13.5488 5.27753L18.0488 4.02753Z" fill="#141414"/>
</svg>
