<svg width="24" height="24" viewBox="0 0 24 24" fill="none" xmlns="http://www.w3.org/2000/svg">
<path d="M17.25 4C18.7688 4 20 5.23122 20 6.75V17.25C20 18.7688 18.7688 20 17.25 20H6.75C5.23122 20 4 18.7688 4 17.25V6.75C4 5.23122 5.23122 4 6.75 4H17.25ZM5.5 17.25C5.5 17.9404 6.05964 18.5 6.75 18.5H8.5V16.5H5.5V17.25ZM15.5 18.5H17.25C17.9404 18.5 18.5 17.9404 18.5 17.25V16.5H15.5V18.5ZM10 18.5H14V16.5H10V18.5ZM5.5 15H8.5V12.5H5.5V15ZM15.5 15H18.5V12.5H15.5V15ZM10 15H14V12.5H10V15ZM5.5 11H8.5V9H5.5V11ZM15.5 11H18.5V9H15.5V11ZM10 11H14V9H10V11ZM6.75 5.5C6.05964 5.5 5.5 6.05964 5.5 6.75V7.5H18.5V6.75C18.5 6.05964 17.9404 5.5 17.25 5.5H6.75Z" fill="black"/>
</svg>
