<svg width="24" height="24" viewBox="0 0 24 24" fill="none" xmlns="http://www.w3.org/2000/svg">
<path d="M16.25 4C18.3211 4 20 5.67893 20 7.75V16.25C20 18.3211 18.3211 20 16.25 20H7.75C5.67893 20 4 18.3211 4 16.25V7.75C4 5.67893 5.67893 4 7.75 4H16.25ZM7.75 5.5C6.50736 5.5 5.5 6.50736 5.5 7.75V16.25C5.5 17.4926 6.50736 18.5 7.75 18.5H16.25C17.4926 18.5 18.5 17.4926 18.5 16.25V7.75C18.5 6.50736 17.4926 5.5 16.25 5.5H7.75ZM8.5 15.25C8.5 15.3881 8.61193 15.5 8.75 15.5H11V17H8.75C7.7835 17 7 16.2165 7 15.25V13H8.5V15.25ZM17 15.25C17 16.2165 16.2165 17 15.25 17H13V15.5H15.25C15.3881 15.5 15.5 15.3881 15.5 15.25V13H17V15.25ZM11 8.5H8.75C8.61193 8.5 8.5 8.61193 8.5 8.75V11H7V8.75C7 7.7835 7.7835 7 8.75 7H11V8.5ZM15.25 7C16.2165 7 17 7.7835 17 8.75V11H15.5V8.75C15.5 8.61193 15.3881 8.5 15.25 8.5H13V7H15.25Z" fill="black"/>
</svg>
