<svg width="24" height="24" viewBox="0 0 24 24" fill="none" xmlns="http://www.w3.org/2000/svg">
<path d="M17.25 4C18.7688 4 20 5.23122 20 6.75V17.25C20 18.7688 18.7688 20 17.25 20H6.75C5.23122 20 4 18.7688 4 17.25V6.75C4 5.23122 5.23122 4 6.75 4H17.25ZM6.75 5.5C6.05964 5.5 5.5 6.05964 5.5 6.75V17.25C5.5 17.9404 6.05964 18.5 6.75 18.5H17.25C17.9404 18.5 18.5 17.9404 18.5 17.25V6.75C18.5 6.05964 17.9404 5.5 17.25 5.5H6.75ZM12 8C12.4142 8 12.75 8.33579 12.75 8.75V11.25H15.25C15.6642 11.25 16 11.5858 16 12C16 12.4142 15.6642 12.75 15.25 12.75H12.75V15.25C12.75 15.6642 12.4142 16 12 16C11.5858 16 11.25 15.6642 11.25 15.25V12.75H8.75C8.33579 12.75 8 12.4142 8 12C8 11.5858 8.33579 11.25 8.75 11.25H11.25V8.75C11.25 8.33579 11.5858 8 12 8Z" fill="black"/>
</svg>
