<svg width="24" height="24" viewBox="0 0 24 24" fill="none" xmlns="http://www.w3.org/2000/svg">
<path d="M17.25 4C18.7688 4 20 5.23122 20 6.75V17.25C20 18.7688 18.7688 20 17.25 20H6.75C5.23122 20 4 18.7688 4 17.25V6.75C4 5.23122 5.23122 4 6.75 4H17.25ZM6.75 5.5C6.05964 5.5 5.5 6.05964 5.5 6.75V17.25C5.5 17.9404 6.05964 18.5 6.75 18.5H17.25C17.9404 18.5 18.5 17.9404 18.5 17.25V6.75C18.5 6.05964 17.9404 5.5 17.25 5.5H6.75ZM14.7051 9.23535C14.9895 8.93421 15.4635 8.92067 15.7646 9.20508C16.0658 9.48949 16.0793 9.96351 15.7949 10.2646L11.5449 14.7646C11.4058 14.912 11.2133 14.9971 11.0107 15C10.8081 15.0029 10.613 14.9236 10.4697 14.7803L8.21973 12.5303C7.92683 12.2374 7.92683 11.7626 8.21973 11.4697C8.51262 11.1768 8.98738 11.1768 9.28027 11.4697L10.9844 13.1738L14.7051 9.23535Z" fill="black"/>
</svg>
