<svg width="24" height="24" viewBox="0 0 24 24" fill="none" xmlns="http://www.w3.org/2000/svg">
<path d="M4.75 16C5.16421 16 5.5 16.3358 5.5 16.75V17.25C5.5 17.9404 6.05964 18.5 6.75 18.5H7.25C7.66421 18.5 8 18.8358 8 19.25C8 19.6642 7.66421 20 7.25 20H6.75C5.23122 20 4 18.7688 4 17.25V16.75C4 16.3358 4.33579 16 4.75 16ZM10.25 18.5C10.6642 18.5 11 18.8358 11 19.25C11 19.6642 10.6642 20 10.25 20H9.75C9.33579 20 9 19.6642 9 19.25C9 18.8358 9.33579 18.5 9.75 18.5H10.25ZM14.25 18.5C14.6642 18.5 15 18.8358 15 19.25C15 19.6642 14.6642 20 14.25 20H13.75C13.3358 20 13 19.6642 13 19.25C13 18.8358 13.3358 18.5 13.75 18.5H14.25ZM19.25 16C19.6642 16 20 16.3358 20 16.75V17.25C20 18.7688 18.7688 20 17.25 20H16.75C16.3358 20 16 19.6642 16 19.25C16 18.8358 16.3358 18.5 16.75 18.5H17.25C17.9404 18.5 18.5 17.9404 18.5 17.25V16.75C18.5 16.3358 18.8358 16 19.25 16ZM14.25 8C15.2165 8 16 8.7835 16 9.75V14.25C16 15.2165 15.2165 16 14.25 16H9.75C8.7835 16 8 15.2165 8 14.25V9.75C8 8.7835 8.7835 8 9.75 8H14.25ZM4.75 13C5.16421 13 5.5 13.3358 5.5 13.75V14.25C5.5 14.6642 5.16421 15 4.75 15C4.33579 15 4 14.6642 4 14.25V13.75C4 13.3358 4.33579 13 4.75 13ZM19.25 13C19.6642 13 20 13.3358 20 13.75V14.25C20 14.6642 19.6642 15 19.25 15C18.8358 15 18.5 14.6642 18.5 14.25V13.75C18.5 13.3358 18.8358 13 19.25 13ZM9.75 9.5C9.61193 9.5 9.5 9.61193 9.5 9.75V14.25C9.5 14.3881 9.61193 14.5 9.75 14.5H14.25C14.3881 14.5 14.5 14.3881 14.5 14.25V9.75C14.5 9.61193 14.3881 9.5 14.25 9.5H9.75ZM4.75 9C5.16421 9 5.5 9.33579 5.5 9.75V10.25C5.5 10.6642 5.16421 11 4.75 11C4.33579 11 4 10.6642 4 10.25V9.75C4 9.33579 4.33579 9 4.75 9ZM19.25 9C19.6642 9 20 9.33579 20 9.75V10.25C20 10.6642 19.6642 11 19.25 11C18.8358 11 18.5 10.6642 18.5 10.25V9.75C18.5 9.33579 18.8358 9 19.25 9ZM7.25 4C7.66421 4 8 4.33579 8 4.75C8 5.16421 7.66421 5.5 7.25 5.5H6.75C6.05964 5.5 5.5 6.05964 5.5 6.75V7.25C5.5 7.66421 5.16421 8 4.75 8C4.33579 8 4 7.66421 4 7.25V6.75C4 5.23122 5.23122 4 6.75 4H7.25ZM17.25 4C18.7688 4 20 5.23122 20 6.75V7.25C20 7.66421 19.6642 8 19.25 8C18.8358 8 18.5 7.66421 18.5 7.25V6.75C18.5 6.05964 17.9404 5.5 17.25 5.5H16.75C16.3358 5.5 16 5.16421 16 4.75C16 4.33579 16.3358 4 16.75 4H17.25ZM10.25 4C10.6642 4 11 4.33579 11 4.75C11 5.16421 10.6642 5.5 10.25 5.5H9.75C9.33579 5.5 9 5.16421 9 4.75C9 4.33579 9.33579 4 9.75 4H10.25ZM14.25 4C14.6642 4 15 4.33579 15 4.75C15 5.16421 14.6642 5.5 14.25 5.5H13.75C13.3358 5.5 13 5.16421 13 4.75C13 4.33579 13.3358 4 13.75 4H14.25Z" fill="black"/>
</svg>
