<svg width="24" height="24" viewBox="0 0 24 24" fill="none" xmlns="http://www.w3.org/2000/svg">
<path d="M12.25 4C13.7688 4 15 5.23122 15 6.75V9H17.25C18.7688 9 20 10.2312 20 11.75V17.25C20 18.7688 18.7688 20 17.25 20H11.75C10.2312 20 9 18.7688 9 17.25V15H6.75C5.23122 15 4 13.7688 4 12.25V6.75C4 5.23122 5.23122 4 6.75 4H12.25ZM15 12.25C15 13.7688 13.7688 15 12.25 15H10.5V17.25C10.5 17.9404 11.0596 18.5 11.75 18.5H17.25C17.9404 18.5 18.5 17.9404 18.5 17.25V11.75C18.5 11.0596 17.9404 10.5 17.25 10.5H15V12.25ZM11.75 10.5C11.0596 10.5 10.5 11.0596 10.5 11.75V13.5H12.25C12.9404 13.5 13.5 12.9404 13.5 12.25V10.5H11.75ZM6.75 5.5C6.05964 5.5 5.5 6.05964 5.5 6.75V12.25C5.5 12.9404 6.05964 13.5 6.75 13.5H9V11.75C9 10.2312 10.2312 9 11.75 9H13.5V6.75C13.5 6.05964 12.9404 5.5 12.25 5.5H6.75Z" fill="black"/>
</svg>
