<svg width="24" height="24" viewBox="0 0 24 24" fill="none" xmlns="http://www.w3.org/2000/svg">
<path d="M17.25 4C18.7688 4 20 5.23122 20 6.75V17.25C20 18.7688 18.7688 20 17.25 20H6.75C5.23122 20 4 18.7688 4 17.25V6.75C4 5.23122 5.23122 4 6.75 4H17.25ZM6.75 5.5C6.05964 5.5 5.5 6.05964 5.5 6.75V17.25C5.5 17.9404 6.05964 18.5 6.75 18.5H17.25C17.9404 18.5 18.5 17.9404 18.5 17.25V6.75C18.5 6.05964 17.9404 5.5 17.25 5.5H6.75ZM13.7197 9.21973C14.0126 8.92683 14.4874 8.92683 14.7803 9.21973C15.0732 9.51262 15.0732 9.98738 14.7803 10.2803L13.0605 12L14.7803 13.7197C15.0732 14.0126 15.0732 14.4874 14.7803 14.7803C14.4874 15.0732 14.0126 15.0732 13.7197 14.7803L12 13.0605L10.2803 14.7803C9.98738 15.0732 9.51262 15.0732 9.21973 14.7803C8.92683 14.4874 8.92683 14.0126 9.21973 13.7197L10.9395 12L9.21973 10.2803C8.92683 9.98738 8.92683 9.51262 9.21973 9.21973C9.51262 8.92683 9.98738 8.92683 10.2803 9.21973L12 10.9395L13.7197 9.21973Z" fill="black"/>
</svg>
