<svg width="24" height="24" viewBox="0 0 24 24" fill="none" xmlns="http://www.w3.org/2000/svg">
<g clip-path="url(#clip0_4152_5811)">
<path fill-rule="evenodd" clip-rule="evenodd" d="M19.25 16.2502C19.6641 16.2502 19.9999 16.586 20 17.0002V18.2502C20 19.2167 19.2165 20.0002 18.25 20.0002H5.75C4.7835 20.0002 4 19.2167 4 18.2502V17.0002C4.00011 16.586 4.33585 16.2502 4.75 16.2502C5.16415 16.2502 5.49989 16.586 5.5 17.0002V18.2502C5.5 18.3882 5.61193 18.5002 5.75 18.5002H18.25C18.3881 18.5002 18.5 18.3882 18.5 18.2502V17.0002C18.5001 16.586 18.8359 16.2502 19.25 16.2502ZM16.25 15.5002C16.6641 15.5002 16.9999 15.836 17 16.2502C17 16.6644 16.6642 17.0002 16.25 17.0002H7.75C7.33579 17.0002 7 16.6644 7 16.2502C7.00011 15.836 7.33585 15.5002 7.75 15.5002H16.25ZM34.25 15.5002C34.6641 15.5002 34.9999 15.836 35 16.2502C35 16.6644 34.6642 17.0002 34.25 17.0002H25.75C25.3358 17.0002 25 16.6644 25 16.2502C25.0001 15.836 25.3359 15.5002 25.75 15.5002H34.25ZM8.48633 11.9787L16.9277 12.9709C17.3391 13.0192 17.6333 13.3915 17.585 13.8029C17.5364 14.214 17.1641 14.5084 16.7529 14.4601L8.31055 13.4689C7.89945 13.4204 7.60519 13.047 7.65332 12.6359C7.70182 12.2247 8.07507 11.9304 8.48633 11.9787ZM8.78125 8.9611C8.88551 8.56031 9.29452 8.31987 9.69531 8.42399L17.9219 10.5636C18.3224 10.6681 18.5632 11.078 18.459 11.4787C18.3545 11.8791 17.9445 12.1197 17.5439 12.0158L9.31836 9.87516C8.91762 9.77091 8.67724 9.36184 8.78125 8.9611ZM10.7227 5.46403C10.8833 5.08254 11.3234 4.90325 11.7051 5.06363L19.541 8.35758C19.9224 8.51816 20.1014 8.95745 19.9414 9.33903C19.7809 9.72088 19.3408 9.9009 18.959 9.74039L11.123 6.44645C10.7415 6.2858 10.5622 5.84574 10.7227 5.46403Z" fill="black"/>
</g>
<defs>
<clipPath id="clip0_4152_5811">
<rect width="24" height="24" fill="white"/>
</clipPath>
</defs>
</svg>
