<svg width="24" height="24" viewBox="0 0 24 24" fill="none" xmlns="http://www.w3.org/2000/svg">
<g clip-path="url(#clip0_4152_5822)">
<path d="M19.25 18.5C19.6642 18.5 20 18.8358 20 19.25C20 19.6642 19.6642 20 19.25 20H4.75C4.33579 20 4 19.6642 4 19.25C4 18.8358 4.33579 18.5 4.75 18.5H19.25ZM14.0479 4C15.1418 4.00015 15.9676 4.99269 15.7686 6.06836L14.8555 11H15.25C17.3211 11 19 12.6789 19 14.75V16.25C19 16.6642 18.6642 17 18.25 17H5.75C5.33579 17 5 16.6642 5 16.25V14.75C5 12.6789 6.67893 11 8.75 11H9.14453L8.23145 6.06836C8.03246 4.99273 8.85826 4.00018 9.95215 4H14.0479ZM34.25 15.5C34.6642 15.5 35 15.8358 35 16.25C35 16.6642 34.6642 17 34.25 17H25.75C25.3358 17 25 16.6642 25 16.25C25 15.8358 25.3358 15.5 25.75 15.5H34.25ZM8.75 12.5C7.50736 12.5 6.5 13.5074 6.5 14.75V15.5H17.5V14.75C17.5 13.5074 16.4926 12.5 15.25 12.5H8.75ZM9.95215 5.5C9.79599 5.50018 9.67859 5.6423 9.70703 5.7959L10.6699 11H13.3301L14.2939 5.7959C14.3224 5.6423 14.204 5.50015 14.0479 5.5H9.95215Z" fill="black"/>
</g>
<defs>
<clipPath id="clip0_4152_5822">
<rect width="24" height="24" fill="white"/>
</clipPath>
</defs>
</svg>
