<svg width="24" height="24" viewBox="0 0 24 24" fill="none" xmlns="http://www.w3.org/2000/svg">
<path fill-rule="evenodd" clip-rule="evenodd" d="M12.0003 4C12.3268 4.00012 12.6161 4.21136 12.7151 4.52246L14.2991 9.5H19.2503C19.5706 9.50012 19.8553 9.70386 19.9593 10.0068C20.0631 10.3096 19.9637 10.6451 19.7112 10.8418L15.6048 14.0342L16.9739 19.0527C17.0598 19.3678 16.9317 19.7025 16.6575 19.8799C16.3834 20.0571 16.0259 20.0365 15.7737 19.8291L12.0003 16.7207L8.22686 19.8291C7.97479 20.0365 7.61727 20.057 7.34307 19.8799C7.06878 19.7025 6.94075 19.3679 7.02666 19.0527L8.39483 14.0342L4.28936 10.8418C4.03677 10.6451 3.93743 10.3097 4.04131 10.0068C4.14532 9.70382 4.42992 9.5 4.7503 9.5H9.70147L11.2855 4.52246L11.3314 4.41113C11.4575 4.16208 11.7145 4 12.0003 4ZM10.9651 10.4775C10.8661 10.7886 10.5768 10.9999 10.2503 11H6.93682L9.71123 13.1582C9.94978 13.3441 10.0535 13.6554 9.97393 13.9473L9.09405 17.1709L11.5237 15.1709L11.6331 15.0967C11.8988 14.9473 12.2347 14.9716 12.4769 15.1709L14.9056 17.1709L14.0267 13.9473C13.9471 13.6553 14.0507 13.3441 14.2894 13.1582L17.0638 11H13.7503C13.4237 11 13.1345 10.7887 13.0355 10.4775L12.0003 7.22363L10.9651 10.4775Z" fill="black"/>
</svg>
