<svg width="24" height="24" viewBox="0 0 24 24" fill="none" xmlns="http://www.w3.org/2000/svg">
<path d="M12 4C16.4183 4 20 7.58172 20 12C20 16.4183 16.4183 20 12 20C7.58172 20 4 16.4183 4 12C4 7.58172 7.58172 4 12 4ZM5.77344 13.8672C6.48471 16.2425 8.51669 18.0466 11.0176 18.4258L10.5156 16.9189C10.0066 15.3918 8.67849 14.2834 7.08496 14.0557L5.77344 13.8672ZM16.915 14.0557C15.3215 14.2834 13.9934 15.3918 13.4844 16.9189L12.9814 18.4258C15.4827 18.0469 17.5142 16.2426 18.2256 13.8672L16.915 14.0557ZM12 11.5C10.1377 11.5 8.49459 12.0245 7.30762 12.5586C7.30016 12.562 7.29258 12.565 7.28516 12.5684L7.29688 12.5703C9.45287 12.8783 11.2497 14.3782 11.9385 16.4443L12 16.6279L12.0615 16.4443C12.7503 14.3782 14.5471 12.8783 16.7031 12.5703L16.7139 12.5684C16.7067 12.5651 16.6996 12.5618 16.6924 12.5586C15.5054 12.0245 13.8623 11.5 12 11.5ZM12 5.5C8.47944 5.5 5.61423 8.29895 5.50488 11.793C5.82864 11.6092 6.22822 11.4003 6.69238 11.1914C8.00541 10.6005 9.86226 10 12 10C14.1377 10 15.9946 10.6005 17.3076 11.1914C17.7714 11.4001 18.1705 11.6093 18.4941 11.793C18.3848 8.29896 15.5206 5.5 12 5.5Z" fill="black"/>
</svg>
