<svg width="24" height="24" viewBox="0 0 24 24" fill="none" xmlns="http://www.w3.org/2000/svg">
<path d="M15.25 4C15.6642 4 16 4.33579 16 4.75V8.25C16 10.8734 13.8734 13 11.25 13H10.5V14.25C10.5 16.0449 11.9551 17.5 13.75 17.5H15.1914C15.1554 17.4084 15.1228 17.3171 15.0967 17.2256C14.9405 16.6788 14.9257 15.9551 15.4404 15.4404C15.9551 14.9257 16.6788 14.9405 17.2256 15.0967C17.8002 15.2609 18.3848 15.6251 18.8799 16.1201C19.3749 16.6152 19.7391 17.1998 19.9033 17.7744C20.0595 18.3212 20.0743 19.0449 19.5596 19.5596C19.0449 20.0743 18.3212 20.0595 17.7744 19.9033C17.2478 19.7528 16.7139 19.4332 16.2471 19H13.75C11.1266 19 9 16.8734 9 14.25V13H8.75C6.12665 13 4 10.8734 4 8.25V4.75C4 4.33579 4.33579 4 4.75 4C5.16421 4 5.5 4.33579 5.5 4.75V8.25C5.5 10.0449 6.95507 11.5 8.75 11.5H11.25C13.0449 11.5 14.5 10.0449 14.5 8.25V4.75C14.5 4.33579 14.8358 4 15.25 4ZM16.5068 16.5068C16.4976 16.5441 16.4882 16.6354 16.5391 16.8135C16.6209 17.0998 16.8312 17.4699 17.1807 17.8193C17.5301 18.1688 17.9002 18.3791 18.1865 18.4609C18.3635 18.5115 18.4545 18.5014 18.4922 18.4922C18.5014 18.4545 18.5115 18.3635 18.4609 18.1865C18.3791 17.9002 18.1688 17.5301 17.8193 17.1807C17.4699 16.8312 17.0998 16.6209 16.8135 16.5391C16.6354 16.4882 16.5441 16.4976 16.5068 16.5068Z" fill="black"/>
</svg>
