<svg width="24" height="24" viewBox="0 0 24 24" fill="none" xmlns="http://www.w3.org/2000/svg">
<path d="M17.25 4C18.7688 4 20 5.23122 20 6.75V13.75C20 13.9489 19.9209 14.1396 19.7803 14.2803L14.2803 19.7803C14.1396 19.9209 13.9489 20 13.75 20H6.75C5.23122 20 4 18.7688 4 17.25V6.75C4 5.23122 5.23122 4 6.75 4H17.25ZM6.75 5.5C6.05964 5.5 5.5 6.05964 5.5 6.75V17.25C5.5 17.9404 6.05964 18.5 6.75 18.5H13V14.75C13 13.7835 13.7835 13 14.75 13H18.5V6.75C18.5 6.05964 17.9404 5.5 17.25 5.5H6.75ZM14.75 14.5C14.6119 14.5 14.5 14.6119 14.5 14.75V17.4395L17.4395 14.5H14.75Z" fill="black"/>
</svg>
