<svg width="24" height="24" viewBox="0 0 24 24" fill="none" xmlns="http://www.w3.org/2000/svg">
<path d="M12.0234 4.00098C12.0322 4.00126 12.041 4.00136 12.0498 4.00195C12.0803 4.00395 12.1102 4.00813 12.1396 4.01367C12.1422 4.01416 12.1449 4.01413 12.1475 4.01465C12.1521 4.01558 12.1565 4.01754 12.1611 4.01855C12.1991 4.02695 12.2361 4.03852 12.2725 4.05273C12.2882 4.05887 12.3032 4.0661 12.3184 4.07324C12.3438 4.08522 12.3685 4.09841 12.3926 4.11328C12.4047 4.12076 12.4171 4.12761 12.4287 4.13574C12.4644 4.16068 12.4988 4.18822 12.5303 4.21973L19.7803 11.4697C19.8115 11.5009 19.8385 11.535 19.8633 11.5703C19.8714 11.5819 19.8782 11.5944 19.8857 11.6064C19.9007 11.6305 19.9138 11.6553 19.9258 11.6807C19.933 11.6958 19.9401 11.7109 19.9463 11.7266C19.9606 11.7629 19.972 11.7999 19.9805 11.8379C19.9885 11.8742 19.9945 11.9112 19.9971 11.9492C19.9977 11.958 19.9977 11.9668 19.998 11.9756C19.9983 11.9837 20 11.9918 20 12C20 16.4183 16.4183 20 12 20C7.58172 20 4 16.4183 4 12C4 7.58172 7.58172 4 12 4C12.0078 4 12.0156 4.00074 12.0234 4.00098ZM11.2666 5.54102C8.02203 5.90536 5.5 8.65811 5.5 12C5.5 15.5899 8.41015 18.5 12 18.5C15.3422 18.5 18.0941 15.9774 18.458 12.7324C16.152 12.6376 14.3578 12.1058 13.126 10.874C11.894 9.64206 11.3613 7.84751 11.2666 5.54102ZM12.8672 6.67773C13.064 8.1371 13.5082 9.13512 14.1865 9.81348C14.8647 10.4917 15.8625 10.935 17.3213 11.1318L12.8672 6.67773Z" fill="black"/>
</svg>
