<svg width="24" height="24" viewBox="0 0 24 24" fill="none" xmlns="http://www.w3.org/2000/svg">
<path fill-rule="evenodd" clip-rule="evenodd" d="M4 6.79562C4.0002 5.51146 5.33167 4.56417 6.54395 5.19698L9.59766 6.79073L9.71387 6.86593C9.75039 6.89466 9.78473 6.92746 9.81543 6.96261L13.1475 10.779C13.3421 11.0019 13.5107 11.2484 13.6436 11.4343C14.2591 12.2957 15.2257 12.7995 16.2441 12.7995C18.3437 12.7995 19.9998 14.5679 20 16.6833V18.2497C20 18.6639 19.6642 18.9997 19.25 18.9997H13.543C12.9505 18.9997 12.398 18.6997 12.0752 18.2028L9 13.4694V17.2058C8.99975 18.1655 8.24672 18.9997 7.25 18.9997H6.61719C5.72027 18.9997 5.00163 18.316 4.88379 17.4548L4.00684 11.0407C4.00227 11.0073 4.00002 10.9729 4 10.9392V6.79562ZM6.37012 17.2517C6.39315 17.4192 6.51895 17.4997 6.61719 17.4997H7.25C7.35759 17.4997 7.49977 17.3991 7.5 17.2058V11.6892H5.60938L6.37012 17.2517ZM5.84961 6.52608C5.77455 6.48708 5.70011 6.4922 5.63086 6.53683C5.55926 6.58304 5.50009 6.67044 5.5 6.79562V10.1892H8.25L8.34473 10.195C8.56169 10.2226 8.75794 10.344 8.87891 10.53L13.333 17.3855C13.3791 17.4564 13.4583 17.4997 13.543 17.4997H18.5V16.6833C18.4998 15.3381 17.4581 14.2995 16.2441 14.2995C14.7238 14.2995 13.3105 13.5469 12.4238 12.3064C12.2665 12.0862 12.1512 11.9184 12.0176 11.7653L8.77734 8.05538L5.84961 6.52608Z" fill="black"/>
</svg>
