<svg width="24" height="24" viewBox="0 0 24 24" fill="none" xmlns="http://www.w3.org/2000/svg">
<path d="M5 17C5.55228 17 6 17.4477 6 18C6 18.5523 5.55228 19 5 19C4.44772 19 4 18.5523 4 18C4 17.4477 4.44772 17 5 17ZM4.75 14C7.16421 14 9 15.8358 9 18.25C9 18.6642 8.66421 19 8.25 19C7.83579 19 7.5 18.6642 7.5 18.25C7.5 16.6642 6.33579 15.5 4.75 15.5C4.33579 15.5 4 15.1642 4 14.75C4 14.3358 4.33579 14 4.75 14ZM4.75 11C8.8785 11 12 14.1215 12 18.25C12 18.6642 11.6642 19 11.25 19C10.8358 19 10.5 18.6642 10.5 18.25C10.5 14.9499 8.05007 12.5 4.75 12.5C4.33579 12.5 4 12.1642 4 11.75C4 11.3358 4.33579 11 4.75 11ZM17.25 5C18.7688 5 20 6.23122 20 7.75V16.25C20 17.7688 18.7688 19 17.25 19H14V17.5H17.25C17.9404 17.5 18.5 16.9404 18.5 16.25V7.75C18.5 7.05964 17.9404 6.5 17.25 6.5H6.75C6.05964 6.5 5.5 7.05964 5.5 7.75V9H4V7.75C4 6.23122 5.23122 5 6.75 5H17.25Z" fill="black"/>
</svg>
