<svg width="24" height="24" viewBox="0 0 24 24" fill="none" xmlns="http://www.w3.org/2000/svg">
<path d="M13 19.0098H11V17H13V19.0098ZM17.25 5C18.7688 5 20 6.23122 20 7.75V16.25C20 17.7688 18.7688 19 17.25 19H16V17.5H17.25C17.9404 17.5 18.5 16.9404 18.5 16.25V7.75C18.5 7.05964 17.9404 6.5 17.25 6.5H6.75C6.05964 6.5 5.5 7.05964 5.5 7.75V16.25C5.5 16.9404 6.05964 17.5 6.75 17.5H8V19H6.75C5.23122 19 4 17.7688 4 16.25V7.75C4 6.23122 5.23122 5 6.75 5H17.25ZM9.17188 15.1719C10.734 13.6099 13.267 13.6098 14.8291 15.1719L15.3594 15.7021L14.2988 16.7627L13.7676 16.2324C12.7913 15.2563 11.2087 15.2563 10.2324 16.2324L9.70215 16.7627L8.6416 15.7021L9.17188 15.1719ZM7.05078 13.0498C9.78441 10.3167 14.2167 10.3165 16.9502 13.0498L17.4805 13.5811L16.4199 14.6416L15.8896 14.1113C13.7418 11.9635 10.2592 11.9637 8.11133 14.1113L7.58105 14.6416L6.52051 13.5811L7.05078 13.0498Z" fill="black"/>
</svg>
