<svg width="24" height="24" viewBox="0 0 24 24" fill="none" xmlns="http://www.w3.org/2000/svg">
<path d="M19 16.25C19 18.3211 17.3211 20 15.25 20H8.75C6.67893 20 5 18.3211 5 16.25V15H6.5V16.25C6.5 17.4926 7.50736 18.5 8.75 18.5H15.25C16.4926 18.5 17.5 17.4926 17.5 16.25V14H19V16.25ZM15.25 4.25C17.3211 4.25 19 5.92893 19 8V9H17.5V8C17.5 6.75736 16.4926 5.75 15.25 5.75H8.75C7.50736 5.75 6.5 6.75736 6.5 8V9.25C6.5 10.4926 7.50736 11.5 8.75 11.5H19.25C19.6642 11.5 20 11.8358 20 12.25C20 12.6642 19.6642 13 19.25 13H4.75C4.33579 13 4 12.6642 4 12.25C4 11.8358 4.33579 11.5 4.75 11.5H5.75C5.27917 10.8732 5 10.0943 5 9.25V8C5 5.92893 6.67893 4.25 8.75 4.25H15.25Z" fill="black"/>
</svg>
