<svg width="24" height="24" viewBox="0 0 24 24" fill="none" xmlns="http://www.w3.org/2000/svg">
<path d="M15.25 4C16.7688 4 18 5.23122 18 6.75V7.10645C19.1539 7.43316 20 8.4915 20 9.75V17.25C20 18.7688 18.7688 20 17.25 20H12.75C12.3358 20 12 19.6642 12 19.25C12 18.8358 12.3358 18.5 12.75 18.5H17.25C17.9404 18.5 18.5 17.9404 18.5 17.25V9.75C18.5 9.05964 17.9404 8.5 17.25 8.5H6.75C6.05964 8.5 5.5 9.05964 5.5 9.75V10.25C5.5 10.6642 5.16421 11 4.75 11C4.33579 11 4 10.6642 4 10.25V9.75C4 8.4915 4.84614 7.43316 6 7.10645V6.75C6 5.23122 7.23122 4 8.75 4H15.25ZM7.46973 10.2197C7.76262 9.92683 8.23738 9.92683 8.53027 10.2197L10.5303 12.2197C10.8232 12.5126 10.8232 12.9874 10.5303 13.2803L8.53027 15.2803C8.23738 15.5732 7.76262 15.5732 7.46973 15.2803C7.17683 14.9874 7.17683 14.5126 7.46973 14.2197L8.43945 13.25H8C6.61929 13.25 5.5 14.3693 5.5 15.75C5.5 17.1307 6.61929 18.25 8 18.25C8.5104 18.25 8.96376 18.1139 9.34375 17.8691C9.69196 17.6449 10.1566 17.7456 10.3809 18.0938C10.6051 18.442 10.5044 18.9066 10.1562 19.1309C9.52279 19.5389 8.78474 19.75 8 19.75C5.79086 19.75 4 17.9591 4 15.75C4 13.5608 5.75876 11.7828 7.94043 11.751L7.46973 11.2803C7.17683 10.9874 7.17683 10.5126 7.46973 10.2197ZM8.75 5.5C8.05964 5.5 7.5 6.05964 7.5 6.75V7H16.5V6.75C16.5 6.05964 15.9404 5.5 15.25 5.5H8.75Z" fill="#141414"/>
</svg>
