<svg width="24" height="24" viewBox="0 0 24 24" fill="none" xmlns="http://www.w3.org/2000/svg">
<path fill-rule="evenodd" clip-rule="evenodd" d="M9.99993 12C11.6738 12 12.9234 12.5487 13.8339 13.3262C14.7298 14.0913 15.2615 15.0463 15.5771 15.8204C15.8677 16.5334 15.7668 17.3013 15.4618 17.8848C15.165 18.4528 14.5808 19 13.788 19H6.21185C5.41915 19 4.83486 18.4528 4.53802 17.8848C4.23313 17.3013 4.1322 16.5333 4.42278 15.8204C4.73839 15.0463 5.27012 14.0913 6.16595 13.3262C7.07649 12.5487 8.32611 12.0001 9.99993 12ZM9.99993 13.5C8.68293 13.5001 7.77933 13.9214 7.14056 14.4668C6.48736 15.0246 6.07253 15.7464 5.81146 16.3868C5.7104 16.6351 5.73714 16.9404 5.86712 17.1895C6.00542 17.4542 6.16497 17.5 6.21185 17.5H13.788C13.8347 17.5 13.9943 17.4544 14.1327 17.1895C14.2628 16.9404 14.2895 16.6351 14.1884 16.3868C13.9273 15.7464 13.5125 15.0246 12.8593 14.4668C12.2205 13.9214 11.3169 13.5 9.99993 13.5ZM15.7695 9.17387C16.0876 8.90877 16.5609 8.9516 16.8261 9.26957C17.0676 9.55933 17.0532 9.97731 16.8085 10.25H19.2499C19.6641 10.25 19.9999 10.5858 19.9999 11C19.9999 11.4143 19.6641 11.75 19.2499 11.75H16.8085C17.0532 12.0228 17.0676 12.4408 16.8261 12.7305C16.5609 13.0485 16.0876 13.0913 15.7695 12.8262L14.2695 11.5762C14.0986 11.4337 13.9999 11.2225 13.9999 11C13.9999 10.7776 14.0986 10.5664 14.2695 10.4239L15.7695 9.17387ZM9.99993 5.00004C11.6568 5.00004 12.9999 6.3432 12.9999 8.00004C12.9999 9.6569 11.6568 11 9.99993 11C8.34313 11 6.99993 9.65686 6.99993 8.00004C6.99994 6.34323 8.34314 5.0001 9.99993 5.00004ZM9.99993 6.50004C9.17156 6.5001 8.49994 7.17166 8.49993 8.00004C8.49993 8.82843 9.17156 9.49998 9.99993 9.50004C10.8284 9.50004 11.4999 8.82847 11.4999 8.00004C11.4999 7.17162 10.8284 6.50004 9.99993 6.50004ZM17.1738 4.26957C17.4389 3.95157 17.9123 3.90882 18.2304 4.17387L19.7304 5.42387C19.9013 5.56636 19.9999 5.77755 19.9999 6.00004C19.9999 6.22254 19.9013 6.43372 19.7304 6.57621L18.2304 7.82621C17.9123 8.09128 17.4389 8.04852 17.1738 7.73051C16.9324 7.44079 16.9468 7.02275 17.1913 6.75004H14.7499C14.3358 6.74998 13.9999 6.41422 13.9999 6.00004C13.9999 5.58587 14.3358 5.2501 14.7499 5.25004H17.1913C16.9468 4.97733 16.9324 4.55928 17.1738 4.26957Z" fill="black"/>
</svg>
