<svg width="24" height="24" viewBox="0 0 24 24" fill="none" xmlns="http://www.w3.org/2000/svg">
<path d="M12 19C12.4142 19 12.75 19.3358 12.75 19.75V21.25C12.75 21.6642 12.4142 22 12 22C11.5858 22 11.25 21.6642 11.25 21.25V19.75C11.25 19.3358 11.5858 19 12 19ZM7.4043 15.5352C7.69716 15.2428 8.17208 15.2426 8.46484 15.5352C8.75738 15.8279 8.75724 16.3028 8.46484 16.5957L7.28027 17.7803C6.98744 18.0729 6.51256 18.0729 6.21973 17.7803C5.92705 17.4874 5.9269 17.0116 6.21973 16.7188L7.4043 15.5352ZM15.5361 15.5361C15.829 15.2433 16.3038 15.2433 16.5967 15.5361L17.7812 16.7197C18.0737 17.0126 18.074 17.4885 17.7812 17.7812C17.4887 18.0738 17.0137 18.0732 16.7207 17.7812L15.5361 16.5967C15.2432 16.3038 15.2433 15.829 15.5361 15.5361ZM12 8C14.2091 8 16 9.79086 16 12C16 14.2091 14.2091 16 12 16C9.79086 16 8 14.2091 8 12C8 9.79086 9.79086 8 12 8ZM12 9.5C10.6193 9.5 9.5 10.6193 9.5 12C9.5 13.3807 10.6193 14.5 12 14.5C13.3807 14.5 14.5 13.3807 14.5 12C14.5 10.6193 13.3807 9.5 12 9.5ZM4.25 11.25C4.66417 11.25 4.99993 11.5858 5 12C5 12.4142 4.66421 12.75 4.25 12.75H2.75C2.33579 12.75 2 12.4142 2 12C2.00007 11.5858 2.33583 11.25 2.75 11.25H4.25ZM21.25 11.25C21.6642 11.25 21.9999 11.5858 22 12C22 12.4142 21.6642 12.75 21.25 12.75H19.75C19.3358 12.75 19 12.4142 19 12C19.0001 11.5858 19.3358 11.25 19.75 11.25H21.25ZM6.21973 6.21973C6.51263 5.92691 6.98741 5.92686 7.28027 6.21973L8.46484 7.4043C8.75725 7.6972 8.75749 8.1721 8.46484 8.46484C8.17196 8.75771 7.69621 8.75768 7.40332 8.46484L6.21973 7.28027C5.92685 6.98738 5.92684 6.51261 6.21973 6.21973ZM16.7197 6.21973C17.0126 5.92707 17.4884 5.92692 17.7812 6.21973C18.0735 6.5125 18.0735 6.9875 17.7812 7.28027L16.5967 8.46484C16.3039 8.75738 15.829 8.75722 15.5361 8.46484C15.2433 8.17202 15.2434 7.69721 15.5361 7.4043L16.7197 6.21973ZM12 2C12.4142 2 12.75 2.33579 12.75 2.75V4.25C12.75 4.66421 12.4142 5 12 5C11.5858 5 11.25 4.66421 11.25 4.25V2.75C11.25 2.33579 11.5858 2 12 2Z" fill="black"/>
</svg>
