<svg width="24" height="24" viewBox="0 0 24 24" fill="none" xmlns="http://www.w3.org/2000/svg">
<path d="M17.25 18.5C17.6642 18.5 18 18.8358 18 19.25C18 19.6642 17.6642 20 17.25 20H6.74023C6.32602 20 5.99023 19.6642 5.99023 19.25C5.99023 18.8358 6.32602 18.5 6.74023 18.5H17.25ZM19.25 15.5C19.6642 15.5 20 15.8358 20 16.25C20 16.6642 19.6642 17 19.25 17H4.74023C4.32602 17 3.99023 16.6642 3.99023 16.25C3.99023 15.8358 4.32602 15.5 4.74023 15.5H19.25ZM12 8C13.6569 8 15 9.34315 15 11C15 12.6569 13.6569 14 12 14C10.3431 14 9 12.6569 9 11C9 9.34315 10.3431 8 12 8ZM12 9.5C11.1716 9.5 10.5 10.1716 10.5 11C10.5 11.8284 11.1716 12.5 12 12.5C12.8284 12.5 13.5 11.8284 13.5 11C13.5 10.1716 12.8284 9.5 12 9.5ZM6.25 10.25C6.66421 10.25 7 10.5858 7 11C7 11.4142 6.66421 11.75 6.25 11.75H5.75C5.33579 11.75 5 11.4142 5 11C5 10.5858 5.33579 10.25 5.75 10.25H6.25ZM18.25 10.25C18.6642 10.25 19 10.5858 19 11C19 11.4142 18.6642 11.75 18.25 11.75H17.75C17.3358 11.75 17 11.4142 17 11C17 10.5858 17.3358 10.25 17.75 10.25H18.25ZM7.05078 6.05078C7.34367 5.75789 7.81843 5.75789 8.11133 6.05078L8.46484 6.4043C8.75725 6.69723 8.75757 7.17211 8.46484 7.46484C8.17211 7.75757 7.69723 7.75725 7.4043 7.46484L7.05078 7.11133C6.75789 6.81843 6.75789 6.34367 7.05078 6.05078ZM15.8896 6.05078C16.1825 5.75789 16.6573 5.75791 16.9502 6.05078C17.2426 6.34371 17.2429 6.8186 16.9502 7.11133L16.5967 7.46484C16.3039 7.75757 15.8291 7.75725 15.5361 7.46484C15.2433 7.17195 15.2432 6.69718 15.5361 6.4043L15.8896 6.05078ZM12 4C12.4142 4 12.75 4.33579 12.75 4.75V5.25C12.75 5.66421 12.4142 6 12 6C11.5858 6 11.25 5.66421 11.25 5.25V4.75C11.25 4.33579 11.5858 4 12 4Z" fill="black"/>
</svg>
