<svg width="24" height="24" viewBox="0 0 24 24" fill="none" xmlns="http://www.w3.org/2000/svg">
<path d="M17.25 18.5C17.6642 18.5 18 18.8358 18 19.25C18 19.6642 17.6642 20 17.25 20H6.74023C6.32602 20 5.99023 19.6642 5.99023 19.25C5.99023 18.8358 6.32602 18.5 6.74023 18.5H17.25ZM12 8C14.7614 8 17 10.2386 17 13C17 13.9105 16.7531 14.7639 16.3271 15.5H19.25C19.6642 15.5 20 15.8358 20 16.25C20 16.6642 19.6642 17 19.25 17H4.74023C4.32602 17 3.99023 16.6642 3.99023 16.25C3.99023 15.8358 4.32602 15.5 4.74023 15.5H7.67285C7.24686 14.7639 7 13.9105 7 13C7 10.2386 9.23858 8 12 8ZM12 9.5C10.067 9.5 8.5 11.067 8.5 13C8.5 13.7592 8.74174 14.4593 9.15137 15.0322L9.58008 15.5H14.4199L14.8477 15.0322C15.2575 14.4592 15.5 13.7594 15.5 13C15.5 11.067 13.933 9.5 12 9.5ZM5.25 11.25C5.66421 11.25 6 11.5858 6 12C6 12.4142 5.66421 12.75 5.25 12.75H4.75C4.33579 12.75 4 12.4142 4 12C4 11.5858 4.33579 11.25 4.75 11.25H5.25ZM19.25 11.25C19.6642 11.25 20 11.5858 20 12C20 12.4142 19.6642 12.75 19.25 12.75H18.75C18.3358 12.7499 18 12.4142 18 12C18 11.5859 18.3359 11.2501 18.75 11.25H19.25ZM5.07227 8C5.27943 7.64144 5.73803 7.51852 6.09668 7.72559L6.5293 7.97559C6.88768 8.1827 7.01145 8.64143 6.80469 9C6.59763 9.35863 6.13798 9.4813 5.7793 9.27441L5.34668 9.02441C4.988 8.81729 4.86517 8.3587 5.07227 8ZM17.9033 7.72559C18.262 7.51848 18.7216 7.64128 18.9287 8C19.1357 8.35869 19.012 8.81735 18.6533 9.02441L18.2207 9.27441C17.862 9.48151 17.4034 9.35868 17.1963 9C16.9892 8.6413 17.112 8.18271 17.4707 7.97559L17.9033 7.72559ZM8 5.07227C8.3587 4.86517 8.81729 4.988 9.02441 5.34668L9.27441 5.7793C9.4813 6.13798 9.35863 6.59763 9 6.80469C8.64143 7.01145 8.1827 6.88768 7.97559 6.5293L7.72559 6.09668C7.51852 5.73803 7.64144 5.27943 8 5.07227ZM14.9756 5.34668C15.1827 4.988 15.6413 4.86517 16 5.07227C16.3586 5.27943 16.4815 5.73803 16.2744 6.09668L16.0244 6.5293C15.8173 6.88768 15.3586 7.01145 15 6.80469C14.6414 6.59763 14.5187 6.13798 14.7256 5.7793L14.9756 5.34668ZM12 4C12.4142 4 12.75 4.33579 12.75 4.75V5.25C12.75 5.66421 12.4142 6 12 6C11.5858 6 11.25 5.66421 11.25 5.25V4.75C11.25 4.33579 11.5858 4 12 4Z" fill="black"/>
</svg>
