<svg width="24" height="24" viewBox="0 0 24 24" fill="none" xmlns="http://www.w3.org/2000/svg">
<path fill-rule="evenodd" clip-rule="evenodd" d="M19.2499 12.9999C19.6641 12.9999 19.9999 13.3357 19.9999 13.7499C19.9998 14.1641 19.6641 14.4999 19.2499 14.4999H6.56041L10.7801 18.7197C11.073 19.0126 11.073 19.4873 10.7801 19.7802C10.4872 20.0729 10.0124 20.073 9.71959 19.7802L4.21959 14.2802C4.00527 14.0658 3.94058 13.743 4.05651 13.4628C4.17255 13.1827 4.44665 13.0001 4.74986 12.9999H19.2499ZM13.2196 4.21966C13.5124 3.92681 13.9872 3.92691 14.2801 4.21966L19.7801 9.71966C19.9946 9.93414 20.0593 10.2568 19.9432 10.537C19.8271 10.8172 19.5531 10.9999 19.2499 10.9999H4.74986C4.33583 10.9998 3.9999 10.664 3.99986 10.2499C3.99986 9.83583 4.33581 9.50012 4.74986 9.49994H17.4393L13.2196 5.28021C12.9269 4.98737 12.9269 4.51253 13.2196 4.21966Z" fill="black"/>
</svg>
