<svg width="24" height="24" viewBox="0 0 24 24" fill="none" xmlns="http://www.w3.org/2000/svg">
<path fill-rule="evenodd" clip-rule="evenodd" d="M9.53711 4.0316C9.75492 3.96709 9.98998 4.00484 10.1768 4.13414L9.75 4.75035C10.1446 4.18042 10.175 4.13707 10.1777 4.13414L10.1797 4.13512L10.1816 4.13707C10.1835 4.13837 10.1863 4.1404 10.1885 4.14195C10.1928 4.14505 10.1984 4.14849 10.2041 4.1527C10.2161 4.16152 10.2314 4.17309 10.249 4.18688C10.2844 4.2146 10.3309 4.25324 10.3857 4.30211C10.4957 4.40021 10.6411 4.54237 10.8037 4.73473C11.1301 5.12089 11.5249 5.7064 11.8535 6.53649C12.4747 8.10597 12.8378 10.4989 12.126 14.0004H17C18.6569 14.0004 20 15.3435 20 17.0004C19.9998 18.657 18.6567 20.0004 17 20.0004H7C5.34327 20.0004 4.0002 18.657 4 17.0004C4 16.1098 4.3897 15.3115 5.00586 14.7621C5.02096 14.4495 5.08707 14.1411 5.20605 13.8509L9.05566 4.46617C9.14187 4.25604 9.31934 4.09614 9.53711 4.0316ZM7 15.5004C6.17157 15.5004 5.5 16.1719 5.5 17.0004C5.5002 17.8286 6.1717 18.5004 7 18.5004H17C17.8283 18.5004 18.4998 17.8286 18.5 17.0004C18.5 16.1719 17.8284 15.5004 17 15.5004H7ZM7.75 16.2504C8.16421 16.2504 8.5 16.5861 8.5 17.0004V17.0101C8.4998 17.4242 8.16409 17.7601 7.75 17.7601C7.33591 17.7601 7.0002 17.4242 7 17.0101V17.0004C7 16.5861 7.33579 16.2504 7.75 16.2504ZM6.76172 14.0101C6.84034 14.0039 6.91979 14.0004 7 14.0004H10.5908C11.3402 10.5609 10.9701 8.38094 10.459 7.08922C10.308 6.70781 10.1405 6.39979 9.98438 6.15465L6.76172 14.0101Z" fill="black"/>
</svg>
