<svg width="24" height="24" viewBox="0 0 24 24" fill="none" xmlns="http://www.w3.org/2000/svg">
<path fill-rule="evenodd" clip-rule="evenodd" d="M15.2002 12.2391C15.482 11.9359 15.9573 11.9184 16.2607 12.2001L19.7607 15.4501C19.7663 15.4552 19.771 15.4614 19.7764 15.4667C19.779 15.4693 19.7816 15.4719 19.7842 15.4745C19.8149 15.5058 19.8426 15.5393 19.8672 15.5751C19.8711 15.5807 19.8742 15.5869 19.8779 15.5927C19.8864 15.6057 19.8957 15.6182 19.9033 15.6317L19.9414 15.7079C19.9431 15.7119 19.9437 15.7165 19.9453 15.7206C19.9806 15.8086 20 15.9031 20 15.9999C20 16.097 19.9798 16.1919 19.9443 16.2802C19.9421 16.2857 19.9399 16.2913 19.9375 16.2968C19.9208 16.3355 19.9009 16.3726 19.8779 16.4081C19.8743 16.4136 19.8709 16.4193 19.8672 16.4247C19.8428 16.4603 19.8148 16.4931 19.7842 16.5243C19.7816 16.5269 19.779 16.5295 19.7764 16.5321C19.7708 16.5376 19.7665 16.5443 19.7607 16.5497L16.2607 19.7997C15.9572 20.0815 15.4821 20.064 15.2002 19.7606C14.9185 19.4571 14.9359 18.9819 15.2393 18.7001L17.3389 16.7499H8.75C8.33579 16.7499 8 16.4141 8 15.9999C8.00014 15.5858 8.33587 15.2499 8.75 15.2499H17.3389L15.2393 13.2997C14.936 13.0178 14.9184 12.5426 15.2002 12.2391ZM7.73926 4.20008C8.04271 3.91842 8.51796 3.93589 8.7998 4.23914C9.08158 4.54259 9.06405 5.01781 8.76074 5.29969L6.66016 7.24988H15.25C15.6641 7.24988 15.9999 7.58578 16 7.99988C16 8.41409 15.6642 8.74988 15.25 8.74988H6.66016L8.76074 10.7001C9.06412 10.9819 9.08149 11.4571 8.7998 11.7606C8.51794 12.064 8.04275 12.0815 7.73926 11.7997L4.23926 8.54969C4.23334 8.54419 4.22837 8.53777 4.22266 8.53211C4.22004 8.52951 4.21742 8.52693 4.21484 8.5243C4.18433 8.49313 4.1562 8.46024 4.13184 8.42469C4.1281 8.41926 4.12469 8.41362 4.12109 8.40808C4.09813 8.37261 4.07815 8.33547 4.06152 8.29676C4.05915 8.29126 4.05693 8.28572 4.05469 8.28015C4.01928 8.19196 4 8.09689 4 7.99988C4.00003 7.90323 4.01852 7.80849 4.05371 7.72058C4.0554 7.71638 4.05683 7.71206 4.05859 7.70789L4.09668 7.63172C4.10421 7.61833 4.11274 7.60557 4.12109 7.59265C4.12483 7.58689 4.12794 7.58073 4.13184 7.57508C4.16273 7.53005 4.19859 7.48786 4.23926 7.45008L7.73926 4.20008Z" fill="black"/>
</svg>
