<svg width="24" height="24" viewBox="0 0 24 24" fill="none" xmlns="http://www.w3.org/2000/svg">
<path fill-rule="evenodd" clip-rule="evenodd" d="M15.9999 8C16.4141 8 16.7499 8.33579 16.7499 8.75V17.3389L18.7001 15.2393C18.9819 14.9359 19.4571 14.9185 19.7606 15.2002C20.064 15.4821 20.0815 15.9572 19.7997 16.2607L16.5497 19.7607C16.5443 19.7665 16.5376 19.7708 16.5321 19.7764C16.5295 19.779 16.5269 19.7816 16.5243 19.7842C16.4931 19.8148 16.4603 19.8428 16.4247 19.8672C16.4193 19.8709 16.4136 19.8743 16.4081 19.8779C16.3726 19.9009 16.3355 19.9208 16.2968 19.9375C16.2913 19.9399 16.2857 19.9421 16.2802 19.9443C16.1919 19.9798 16.097 20 15.9999 20C15.9031 20 15.8086 19.9806 15.7206 19.9453C15.7143 19.9428 15.7082 19.9402 15.702 19.9375C15.6638 19.921 15.6277 19.9006 15.5927 19.8779C15.5869 19.8742 15.5807 19.8711 15.5751 19.8672C15.5393 19.8426 15.5058 19.8149 15.4745 19.7842C15.4719 19.7816 15.4693 19.779 15.4667 19.7764C15.4614 19.771 15.4552 19.7663 15.4501 19.7607L12.2001 16.2607C11.9184 15.9573 11.9359 15.482 12.2391 15.2002C12.5426 14.9184 13.0178 14.936 13.2997 15.2393L15.2499 17.3389V8.75C15.2499 8.33587 15.5858 8.00014 15.9999 8ZM7.99988 4C8.09689 4 8.19196 4.01928 8.28015 4.05469C8.28572 4.05693 8.29126 4.05915 8.29676 4.06152C8.33547 4.07815 8.37261 4.09813 8.40808 4.12109C8.41362 4.12469 8.41926 4.1281 8.42469 4.13184C8.46024 4.1562 8.49313 4.18433 8.5243 4.21484C8.52693 4.21742 8.52951 4.22004 8.53211 4.22266C8.53777 4.22837 8.54419 4.23334 8.54969 4.23926L11.7997 7.73926C12.0815 8.04275 12.064 8.51794 11.7606 8.7998C11.4571 9.08149 10.9819 9.06412 10.7001 8.76074L8.74988 6.66016V15.25C8.74988 15.6642 8.41409 16 7.99988 16C7.58578 15.9999 7.24988 15.6641 7.24988 15.25V6.66016L5.29969 8.76074C5.01781 9.06405 4.54259 9.08158 4.23914 8.7998C3.93589 8.51796 3.91842 8.04271 4.20008 7.73926L7.45008 4.23926L7.50574 4.18555C7.51921 4.17376 7.5345 4.16406 7.54871 4.15332C7.56506 4.14093 7.58115 4.12823 7.59851 4.11719C7.61925 4.10404 7.64109 4.09306 7.66297 4.08203C7.68229 4.07226 7.70132 4.06182 7.72156 4.05371C7.74808 4.04312 7.77597 4.03682 7.80359 4.0293C7.82279 4.02407 7.84143 4.0164 7.86121 4.0127C7.8641 4.01215 7.8671 4.01223 7.87 4.01172C7.91221 4.00433 7.95556 4.00001 7.99988 4Z" fill="black"/>
</svg>
