<svg width="24" height="24" viewBox="0 0 24 24" fill="none" xmlns="http://www.w3.org/2000/svg">
<path fill-rule="evenodd" clip-rule="evenodd" d="M15.0742 4.0037C15.2902 4.02525 15.4868 4.13906 15.6123 4.3162L19.8623 10.3162C19.9939 10.5021 20.0335 10.7379 19.9706 10.9568C19.9077 11.1758 19.7484 11.3545 19.538 11.4422L16.9999 12.4988V18.2498C16.9999 19.2163 16.2164 19.9998 15.2499 19.9998H8.74995C7.78345 19.9998 6.99995 19.2163 6.99995 18.2498V12.4988L4.46186 11.4422C4.25153 11.3545 4.09218 11.1758 4.02924 10.9568C3.96635 10.7379 4.006 10.5021 4.13764 10.3162L8.38764 4.3162L8.43842 4.25273C8.56296 4.11203 8.7368 4.02255 8.92573 4.0037C9.14128 3.98226 9.35575 4.05464 9.51362 4.20292L9.51459 4.20487C9.51632 4.20648 9.51976 4.20946 9.52436 4.21366C9.53353 4.22205 9.54847 4.23515 9.56831 4.25273C9.60833 4.2882 9.66945 4.3404 9.74702 4.40409C9.9029 4.53211 10.1231 4.70287 10.3818 4.87187C10.9304 5.23027 11.5251 5.49979 11.9999 5.4998C12.4748 5.4998 13.0695 5.23028 13.6181 4.87187C13.8767 4.70287 14.097 4.53211 14.2529 4.40409C14.3304 4.3404 14.3916 4.2882 14.4316 4.25273C14.4514 4.23514 14.4664 4.22205 14.4755 4.21366C14.4801 4.20945 14.4836 4.20648 14.4853 4.20487L14.4863 4.20292C14.6441 4.05464 14.8586 3.98226 15.0742 4.0037ZM14.4384 6.12773C13.839 6.51932 12.9331 6.9998 11.9999 6.9998C11.0668 6.9998 10.1609 6.51932 9.56147 6.12773C9.41093 6.02937 9.27201 5.93098 9.14741 5.83866L5.90327 10.4178L6.99995 10.8748V10.7498C6.99995 10.3356 7.33574 9.9998 7.74995 9.9998C8.16416 9.9998 8.49994 10.3356 8.49995 10.7498V18.2498C8.49995 18.3879 8.61188 18.4998 8.74995 18.4998H15.2499C15.388 18.4998 15.4999 18.3879 15.4999 18.2498V10.7498C15.4999 10.3356 15.8357 9.9998 16.2499 9.9998C16.6642 9.9998 16.9999 10.3356 16.9999 10.7498V10.8748L18.0956 10.4178L14.8515 5.83866C14.7271 5.93085 14.5887 6.02954 14.4384 6.12773Z" fill="black"/>
</svg>
