<svg width="24" height="24" viewBox="0 0 24 24" fill="none" xmlns="http://www.w3.org/2000/svg">
<path fill-rule="evenodd" clip-rule="evenodd" d="M11.25 5.00002C11.6642 5.00002 12 5.33581 12 5.75002C12 6.16424 11.6642 6.50002 11.25 6.50002H7.75C6.50736 6.50002 5.5 7.50738 5.5 8.75002V15.25C5.5 16.4927 6.50736 17.5 7.75 17.5H16.25C17.4926 17.5 18.5 16.4927 18.5 15.25V11.75C18.5 11.3358 18.8358 11 19.25 11C19.6642 11 20 11.3358 20 11.75V15.25C20 17.3211 18.3211 19 16.25 19H7.75C5.67893 19 4 17.3211 4 15.25V8.75002C4 6.67896 5.67893 5.00002 7.75 5.00002H11.25ZM9.25 12C9.66421 12 10 12.3358 10 12.75C10 13.1642 9.66421 13.5 9.25 13.5H9C8.72386 13.5 8.5 13.7239 8.5 14C8.5 14.2762 8.72386 14.5 9 14.5H15.25C15.6642 14.5 16 14.8358 16 15.25C16 15.6642 15.6642 16 15.25 16H9C7.89543 16 7 15.1046 7 14C7 12.8955 7.89543 12 9 12H9.25ZM15.7422 4.73049C16.7163 3.75654 18.2955 3.75646 19.2695 4.73049C20.2436 5.70452 20.2435 7.28376 19.2695 8.25784L15.9863 11.541C15.6173 11.91 15.1547 12.1723 14.6484 12.2989L11.9316 12.9776C11.6761 13.0414 11.406 12.9665 11.2197 12.7803C11.0335 12.5941 10.9587 12.3239 11.0225 12.0684L11.7012 9.35159C11.8277 8.84535 12.09 8.38268 12.459 8.0137L15.7422 4.73049ZM18.209 5.79104C17.8207 5.4028 17.191 5.40287 16.8027 5.79104L13.5195 9.07424C13.3429 9.25092 13.2179 9.47248 13.1572 9.71487L12.7803 11.2188L14.2852 10.8428C14.5275 10.7822 14.7491 10.6572 14.9258 10.4805L18.209 7.19729C18.5972 6.809 18.5972 6.17928 18.209 5.79104Z" fill="black"/>
</svg>
