<svg width="24" height="24" viewBox="0 0 24 24" fill="none" xmlns="http://www.w3.org/2000/svg">
<path fill-rule="evenodd" clip-rule="evenodd" d="M15.9996 14C16.4138 14 16.7496 14.3358 16.7496 14.75V16.25H18.2496C18.6638 16.25 18.9996 16.5858 18.9996 17C18.9996 17.4142 18.6638 17.75 18.2496 17.75H16.7496V19.25C16.7496 19.6642 16.4138 20 15.9996 20C15.5856 19.9998 15.2496 19.6641 15.2496 19.25V17.75H13.7496C13.3356 17.7498 12.9996 17.4141 12.9996 17C12.9996 16.5859 13.3356 16.2502 13.7496 16.25H15.2496V14.75C15.2496 14.3359 15.5856 14.0002 15.9996 14ZM19.2506 4C19.6645 4.00032 20.0006 4.33598 20.0006 4.75V12C20.0006 12.414 19.6645 12.7497 19.2506 12.75C18.8364 12.75 18.5006 12.4142 18.5006 12V5.5H12.3024L5.88243 11.6709C5.38893 12.1453 5.36906 12.9286 5.83751 13.4277L10.2311 18.1094C10.5142 18.4114 10.4986 18.8865 10.1969 19.1699C9.89489 19.4529 9.42065 19.4374 9.13731 19.1357L4.74376 14.4541C3.71316 13.356 3.75765 11.6335 4.84337 10.5898L11.4811 4.20898L11.5934 4.12012C11.7138 4.0424 11.8553 4 12.0006 4H19.2506ZM14.9996 8C15.5519 8 15.9996 8.44772 15.9996 9C15.9996 9.55228 15.5519 10 14.9996 10C14.4475 9.99981 13.9996 9.55217 13.9996 9C13.9996 8.44783 14.4475 8.00019 14.9996 8Z" fill="black"/>
</svg>
