<svg width="24" height="24" viewBox="0 0 24 24" fill="none" xmlns="http://www.w3.org/2000/svg">
<path fill-rule="evenodd" clip-rule="evenodd" d="M4.21967 4.21967C4.51256 3.92678 4.98732 3.92678 5.28022 4.21967L7.17865 6.11811C7.37854 6.04268 7.59495 5.99994 7.82123 5.99994H12.0439C12.5267 5.99999 12.9896 6.19184 13.331 6.53315L19.1533 12.3544C20.2825 13.4837 20.2822 15.3149 19.1533 16.4443L16.4443 19.1533C15.3149 20.2822 13.4837 20.2825 12.3544 19.1533L6.53315 13.331C6.19184 12.9896 5.99999 12.5267 5.99994 12.0439V7.82123C5.99994 7.59495 6.04268 7.37854 6.11811 7.17865L4.21967 5.28022C3.92678 4.98732 3.92678 4.51256 4.21967 4.21967ZM10.7802 9.71967C11.0731 10.0126 11.0731 10.4873 10.7802 10.7802C10.4873 11.0731 10.0126 11.0731 9.71967 10.7802L7.49994 8.56049V12.0439C7.49999 12.1288 7.53369 12.2103 7.59369 12.2705L13.416 18.0927C13.9595 18.6357 14.8403 18.6358 15.3837 18.0927L18.0927 15.3837C18.6358 14.8403 18.6357 13.9595 18.0927 13.416L12.2705 7.59369C12.2103 7.53369 12.1288 7.49999 12.0439 7.49994H8.56049L10.7802 9.71967Z" fill="black"/>
</svg>
