<svg width="24" height="24" viewBox="0 0 24 24" fill="none" xmlns="http://www.w3.org/2000/svg">
<path fill-rule="evenodd" clip-rule="evenodd" d="M19.2506 4C19.6645 4.00032 20.0006 4.33598 20.0006 4.75V12C20.0006 12.1993 19.921 12.3905 19.7799 12.5312L13.0836 19.2021C11.9849 20.2966 10.1987 20.2664 9.13731 19.1357L4.74376 14.4541C3.71316 13.356 3.75765 11.6335 4.84337 10.5898L11.4811 4.20898L11.5934 4.12012C11.7138 4.0424 11.8553 4 12.0006 4H19.2506ZM5.88243 11.6709C5.38892 12.1453 5.36905 12.9286 5.83751 13.4277L10.2311 18.1094C10.7135 18.6231 11.5257 18.6371 12.025 18.1396L18.5006 11.6885V5.5H12.3024L5.88243 11.6709ZM14.9996 8C15.5519 8 15.9996 8.44772 15.9996 9C15.9996 9.55228 15.5519 10 14.9996 10C14.4475 9.99981 13.9996 9.55217 13.9996 9C13.9996 8.44783 14.4475 8.00019 14.9996 8Z" fill="black"/>
</svg>
