<svg width="24" height="24" viewBox="0 0 24 24" fill="none" xmlns="http://www.w3.org/2000/svg">
<path fill-rule="evenodd" clip-rule="evenodd" d="M13 7.00016C14.1046 7.00016 15 7.8956 15 9.00016V12.5002H16.25C18.3211 12.5002 20 14.1791 20 16.2502V19.2502C20 19.6644 19.6642 20.0002 19.25 20.0002C18.8358 20.0002 18.5 19.6644 18.5 19.2502V16.2502C18.5 15.0075 17.4926 14.0002 16.25 14.0002H14.25C13.8358 14.0002 13.5 13.6644 13.5 13.2502V9.00016C13.5 8.72402 13.2761 8.50016 13 8.50016C12.7239 8.50016 12.5 8.72402 12.5 9.00016V15.2502C12.5 15.5657 12.3025 15.8476 12.0059 15.9552C11.709 16.0628 11.376 15.9731 11.1738 15.7306L9.57031 13.8078C9.34017 13.5321 8.97707 13.4406 8.65918 13.5392L10.7021 18.9865C10.8475 19.3742 10.6513 19.8068 10.2637 19.9523C9.87594 20.0977 9.44341 19.9015 9.29785 19.5138L7.05176 13.5246C6.94786 13.2475 7.01248 12.935 7.21777 12.7218L7.40723 12.5451C8.3916 11.7234 9.88071 11.8384 10.7227 12.8478L11 13.1799V9.00016C11 7.8956 11.8954 7.00016 13 7.00016ZM6.74805 4.19255C7.05591 3.91547 7.53052 3.94038 7.80762 4.24821C8.08469 4.55607 8.05978 5.03068 7.75195 5.30778L6.70508 6.25016H9.25C9.66421 6.25016 10 6.58595 10 7.00016C10 7.41438 9.66421 7.75016 9.25 7.75016H6.70508L7.75195 8.69255C8.05978 8.96965 8.08469 9.44425 7.80762 9.75212C7.53052 10.0599 7.05591 10.0849 6.74805 9.80778L4.24805 7.55778C4.09005 7.41555 4 7.21275 4 7.00016C4 6.78757 4.09005 6.58477 4.24805 6.44255L6.74805 4.19255Z" fill="black"/>
</svg>
