<svg width="24" height="24" viewBox="0 0 24 24" fill="none" xmlns="http://www.w3.org/2000/svg">
<path d="M19.25 4C19.6642 4 20 4.33579 20 4.75C20 5.16421 19.6642 5.5 19.25 5.5C17.9467 5.5 17.3492 5.83512 17.0156 6.19629C16.6408 6.60213 16.466 7.16692 16.2549 7.94629C16.0637 8.65204 15.8332 9.58665 15.2109 10.3037C15.0554 10.4829 14.8801 10.6417 14.6855 10.7822C16.077 11.67 17 13.2271 17 15C17 17.7614 14.7614 20 12 20C9.23858 20 7 17.7614 7 15C7 13.2274 7.92241 11.6701 9.31348 10.7822C9.11916 10.6418 8.94445 10.4827 8.78906 10.3037C8.16676 9.58665 7.93625 8.65204 7.74512 7.94629C7.53404 7.16692 7.35919 6.60213 6.98438 6.19629C6.6508 5.83512 6.05332 5.5 4.75 5.5C4.33579 5.5 4 5.16421 4 4.75C4 4.33579 4.33579 4 4.75 4C6.32165 4 7.38045 4.41491 8.08594 5.17871C8.75007 5.89777 8.99723 6.83314 9.19238 7.55371C9.40746 8.34784 9.56787 8.91348 9.92188 9.32129C10.2261 9.6716 10.7698 10 12 10C13.2302 10 13.7739 9.6716 14.0781 9.32129C14.4321 8.91348 14.5925 8.34784 14.8076 7.55371C15.0028 6.83314 15.2499 5.89777 15.9141 5.17871C16.6195 4.41491 17.6784 4 19.25 4ZM12 11.5C10.067 11.5 8.5 13.067 8.5 15C8.5 16.933 10.067 18.5 12 18.5C13.933 18.5 15.5 16.933 15.5 15C15.5 13.067 13.933 11.5 12 11.5Z" fill="black"/>
</svg>
