<svg width="24" height="24" viewBox="0 0 24 24" fill="none" xmlns="http://www.w3.org/2000/svg">
<path fill-rule="evenodd" clip-rule="evenodd" d="M18.995 4.04479C19.2606 3.94879 19.5577 4.00965 19.7636 4.20299C19.9695 4.3965 20.0491 4.68963 19.9696 4.96081L15.7196 19.4608C15.6434 19.7208 15.4328 19.9193 15.1688 19.9803C14.9047 20.0413 14.6278 19.9551 14.4452 19.7548L9.37392 14.1883L4.31728 10.6122C4.0893 10.4509 3.96939 10.176 4.00673 9.89928C4.04418 9.62267 4.23254 9.38983 4.49502 9.29479L18.995 4.04479ZM6.35341 10.2157L9.84951 12.6883L11.7851 11.161C12.1102 10.9044 12.5821 10.9599 12.8388 11.285C13.0954 11.6101 13.0398 12.0821 12.7147 12.3387L10.9716 13.7147L14.6552 17.7577L18.1132 5.95788L6.35341 10.2157Z" fill="black"/>
</svg>
