<svg width="24" height="24" viewBox="0 0 24 24" fill="none" xmlns="http://www.w3.org/2000/svg">
<path fill-rule="evenodd" clip-rule="evenodd" d="M16.5603 4.01718C16.76 4.06173 16.9329 4.18682 17.0388 4.36191L19.8913 9.08749C19.9997 9.26699 20.0281 9.48386 19.9695 9.68515C19.9107 9.88641 19.7706 10.054 19.5828 10.1471L12.0456 13.8766L14.9011 18.8775C15.1065 19.2372 14.9814 19.6955 14.6218 19.901C14.2622 20.1063 13.8038 19.9813 13.5984 19.6217L10.9997 15.0709L8.40111 19.6217C8.19569 19.9813 7.73735 20.1063 7.37768 19.901C7.01833 19.6954 6.89307 19.2371 7.09838 18.8775L9.54955 14.5846C9.10332 14.45 8.71099 14.1401 8.48705 13.69L8.33178 13.3795L5.07104 14.9273C4.69686 15.1047 4.24951 14.945 4.07201 14.5709C3.89494 14.1968 4.05449 13.7493 4.42846 13.5719L7.66381 12.0367L7.47045 11.6461C7.07862 10.8577 7.33306 9.9007 8.06518 9.41171L15.9802 4.12558L16.0456 4.08652C16.2025 4.00339 16.3854 3.97826 16.5603 4.01718ZM8.89818 10.6588C8.79374 10.7285 8.75756 10.8656 8.81322 10.9781L9.3474 12.0533L9.82982 13.0221C9.89125 13.1454 10.0413 13.1954 10.1648 13.1344L10.6667 12.8863L18.1863 9.16464L16.1599 5.80917L8.89818 10.6588Z" fill="black"/>
</svg>
