<svg width="24" height="24" viewBox="0 0 24 24" fill="none" xmlns="http://www.w3.org/2000/svg">
<path d="M9 4C10.6569 4 12 5.34315 12 7V11.002C13.2127 11.9132 14 13.3639 14 15C14 17.7614 11.7614 20 9 20C6.23858 20 4 17.7614 4 15C4 13.3639 4.78736 11.9132 6 11.002V7C6 5.34315 7.34315 4 9 4ZM9 5.5C8.17157 5.5 7.5 6.17157 7.5 7V11.3936C7.5 11.6521 7.36663 11.8922 7.14746 12.0293C6.15643 12.6489 5.5 13.7483 5.5 15C5.5 16.933 7.067 18.5 9 18.5C10.933 18.5 12.5 16.933 12.5 15C12.5 13.7483 11.8436 12.6489 10.8525 12.0293C10.6334 11.8922 10.5 11.6521 10.5 11.3936V7C10.5 6.17157 9.82843 5.5 9 5.5ZM9 13C9.41421 13 9.75 13.3358 9.75 13.75V15.25C9.75 15.6642 9.41421 16 9 16C8.58579 16 8.25 15.6642 8.25 15.25V13.75C8.25 13.3358 8.58579 13 9 13ZM17 4C17.2126 4 17.4154 4.09004 17.5576 4.24805L19.8076 6.74805C20.0847 7.05591 20.0598 7.53052 19.752 7.80762C19.4441 8.0847 18.9695 8.05978 18.6924 7.75195L17.75 6.7041V11.25C17.75 11.6642 17.4142 12 17 12C16.5858 12 16.25 11.6642 16.25 11.25V6.7041L15.3076 7.75195C15.0305 8.05978 14.5559 8.0847 14.248 7.80762C13.9402 7.53052 13.9153 7.05591 14.1924 6.74805L16.4424 4.24805L16.499 4.19238C16.636 4.06933 16.814 4 17 4Z" fill="black"/>
</svg>
