<svg width="24" height="24" viewBox="0 0 24 24" fill="none" xmlns="http://www.w3.org/2000/svg">
<path d="M11.25 4C12.7688 4 14 5.23122 14 6.75V11.002C15.2126 11.9133 16 13.3639 16 15C16 17.7614 13.7614 20 11 20C8.23858 20 6 17.7614 6 15C6 13.3639 6.78738 11.9133 8 11.002V6.75C8 5.23122 9.23122 4 10.75 4H11.25ZM10.75 5.5C10.0596 5.5 9.5 6.05964 9.5 6.75V11.3936C9.5 11.6521 9.36664 11.8922 9.14746 12.0293C8.15639 12.649 7.5 13.7483 7.5 15C7.5 16.933 9.067 18.5 11 18.5C12.933 18.5 14.5 16.933 14.5 15C14.5 13.7483 13.8436 12.649 12.8525 12.0293C12.6334 11.8922 12.5 11.6521 12.5 11.3936V6.75C12.5 6.05964 11.9404 5.5 11.25 5.5H10.75ZM11 12.25C11.4142 12.25 11.75 12.5858 11.75 13V15.25C11.75 15.6642 11.4142 16 11 16C10.5858 16 10.25 15.6642 10.25 15.25V13C10.25 12.5858 10.5858 12.25 11 12.25ZM17.25 10C17.6642 10 18 10.3358 18 10.75C18 11.1642 17.6642 11.5 17.25 11.5H16.75C16.3358 11.5 16 11.1642 16 10.75C16 10.3358 16.3358 10 16.75 10H17.25ZM17.25 7C17.6642 7 18 7.33579 18 7.75C18 8.16421 17.6642 8.5 17.25 8.5H16.75C16.3358 8.5 16 8.16421 16 7.75C16 7.33579 16.3358 7 16.75 7H17.25ZM17.25 4C17.6642 4 18 4.33579 18 4.75C18 5.16421 17.6642 5.5 17.25 5.5H16.75C16.3358 5.5 16 5.16421 16 4.75C16 4.33579 16.3358 4 16.75 4H17.25Z" fill="black"/>
</svg>
