<svg width="24" height="24" viewBox="0 0 24 24" fill="none" xmlns="http://www.w3.org/2000/svg">
<path d="M9 4C10.6569 4 12 5.34315 12 7V11.002C13.2127 11.9132 14 13.3639 14 15C14 17.7614 11.7614 20 9 20C6.23858 20 4 17.7614 4 15C4 13.3639 4.78736 11.9132 6 11.002V7C6 5.34315 7.34315 4 9 4ZM9 5.5C8.17157 5.5 7.5 6.17157 7.5 7V11.3936C7.5 11.6521 7.36663 11.8922 7.14746 12.0293C6.15643 12.6489 5.5 13.7483 5.5 15C5.5 16.933 7.067 18.5 9 18.5C10.933 18.5 12.5 16.933 12.5 15C12.5 13.7483 11.8436 12.6489 10.8525 12.0293C10.6334 11.8922 10.5 11.6521 10.5 11.3936V7C10.5 6.17157 9.82843 5.5 9 5.5ZM9 13C9.41421 13 9.75 13.3358 9.75 13.75V15.25C9.75 15.6642 9.41421 16 9 16C8.58579 16 8.25 15.6642 8.25 15.25V13.75C8.25 13.3358 8.58579 13 9 13ZM17 4C17.4142 4 17.75 4.33579 17.75 4.75V9.29492L18.6924 8.24805C18.9695 7.94022 19.4441 7.9153 19.752 8.19238C20.0598 8.46948 20.0847 8.94409 19.8076 9.25195L17.5576 11.752C17.4154 11.91 17.2126 12 17 12C16.7874 12 16.5846 11.91 16.4424 11.752L14.1924 9.25195C13.9153 8.94409 13.9402 8.46948 14.248 8.19238C14.5559 7.9153 15.0305 7.94022 15.3076 8.24805L16.25 9.29492V4.75C16.25 4.33579 16.5858 4 17 4Z" fill="black"/>
</svg>
