<svg width="24" height="24" viewBox="0 0 24 24" fill="none" xmlns="http://www.w3.org/2000/svg">
<path fill-rule="evenodd" clip-rule="evenodd" d="M13.6229 4.33876C13.85 3.99249 14.3146 3.89599 14.661 4.12294C15.0073 4.35 15.1038 4.81464 14.8768 5.16102L12.8954 8.18348L19.8671 18.8241C19.87 18.8283 19.873 18.8325 19.8759 18.8368L19.8768 18.8388C19.8987 18.8721 19.9166 18.907 19.9325 18.9423C19.936 18.9501 19.94 18.9577 19.9432 18.9657C19.9505 18.9835 19.954 19.0023 19.9598 19.0204C19.9833 19.0931 19.9999 19.1694 19.9999 19.2499C19.9999 19.2518 19.9989 19.2538 19.9989 19.2557C19.9989 19.2597 19.999 19.2636 19.9989 19.2675C19.9958 19.4003 19.9559 19.5227 19.8925 19.6298C19.8393 19.7198 19.7687 19.8008 19.6776 19.8641C19.673 19.8674 19.6686 19.8708 19.6639 19.8739C19.6629 19.8746 19.6621 19.8761 19.661 19.8768C19.6237 19.9013 19.5844 19.9204 19.5448 19.9374C19.5428 19.9383 19.541 19.9395 19.5389 19.9403C19.5131 19.9512 19.4863 19.9579 19.4598 19.9657C19.4356 19.9728 19.4118 19.9816 19.3866 19.9862C19.3843 19.9866 19.382 19.9868 19.3798 19.9872C19.3375 19.9946 19.2942 19.9999 19.2499 19.9999H4.74988C4.7055 19.9999 4.66225 19.9946 4.62 19.9872C4.61741 19.9867 4.61476 19.9867 4.61218 19.9862C4.587 19.9815 4.56317 19.9728 4.53894 19.9657C4.5125 19.9579 4.48564 19.9512 4.45984 19.9403C4.45783 19.9395 4.45598 19.9383 4.45398 19.9374C4.41469 19.9204 4.37576 19.9011 4.33875 19.8768C4.33739 19.876 4.33618 19.8748 4.33484 19.8739C4.32904 19.87 4.32392 19.8652 4.31824 19.8612C4.22888 19.7982 4.15871 19.7187 4.10632 19.6298C4.04022 19.5181 3.99991 19.3891 3.99988 19.2499C3.99988 19.1696 4.01556 19.093 4.03894 19.0204C4.04392 19.005 4.04658 18.9887 4.05261 18.9735L4.05847 18.9579C4.06074 18.9525 4.0639 18.9476 4.06628 18.9423C4.08223 18.9069 4.101 18.8722 4.12292 18.8388V18.8368C4.12576 18.8325 4.1288 18.8283 4.13171 18.8241L11.1034 8.18348L9.12292 5.16102C8.89601 4.81468 8.9926 4.35003 9.33875 4.12294C9.68513 3.89599 10.1498 3.99249 10.3768 4.33876L11.9999 6.81532L13.6229 4.33876ZM6.13757 18.4999H11.2499V15.7499C11.2499 15.3357 11.5857 14.9999 11.9999 14.9999C12.4141 14.9999 12.7499 15.3357 12.7499 15.7499V18.4999H17.8622L11.9999 9.55165L6.13757 18.4999Z" fill="black"/>
</svg>
