<svg width="24" height="24" viewBox="0 0 24 24" fill="none" xmlns="http://www.w3.org/2000/svg">
<path fill-rule="evenodd" clip-rule="evenodd" d="M19.2503 11C19.6644 11.0002 20.0003 11.3359 20.0003 11.75V17.25C20.0003 17.6641 19.6644 17.9998 19.2503 18C18.875 18 18.5642 17.7242 18.5091 17.3643C17.9404 17.7639 17.2482 17.9999 16.5003 18C14.5673 18 13.0003 16.433 13.0003 14.5C13.0003 12.567 14.5673 11 16.5003 11C17.248 11.0001 17.9405 11.2353 18.5091 11.6348C18.5646 11.2753 18.8753 11 19.2503 11ZM8.00032 6C8.32897 6.00016 8.61994 6.21435 8.71712 6.52832L11.9671 17.0283C12.0894 17.4238 11.8674 17.8442 11.472 17.9668C11.0764 18.0891 10.656 17.8673 10.5335 17.4717L9.76888 15H6.23177L5.46712 17.4717C5.3447 17.8672 4.92419 18.0889 4.52864 17.9668C4.13301 17.8443 3.91117 17.424 4.03353 17.0283L7.28353 6.52832C7.38078 6.21429 7.67157 6 8.00032 6ZM16.5003 12.5C15.3958 12.5 14.5003 13.3954 14.5003 14.5C14.5003 15.6046 15.3958 16.5 16.5003 16.5C17.6047 16.4998 18.5003 15.6044 18.5003 14.5C18.5003 13.3956 17.6047 12.5002 16.5003 12.5ZM6.69661 13.5H9.30404L8.00032 9.28711L6.69661 13.5Z" fill="black"/>
</svg>
