<svg width="24" height="24" viewBox="0 0 24 24" fill="none" xmlns="http://www.w3.org/2000/svg">
<path d="M19.25 6C19.6642 6 20 6.33579 20 6.75V13.25C20 15.8734 17.8734 18 15.25 18H13.75C13.3358 18 13 17.6642 13 17.25C13 16.8358 13.3358 16.5 13.75 16.5H15.25C17.0449 16.5 18.5 15.0449 18.5 13.25V12.3711C17.9329 12.7668 17.2439 13 16.5 13C14.567 13 13 11.433 13 9.5C13 7.567 14.567 6 16.5 6C17.248 6 17.941 6.23505 18.5098 6.63477C18.5653 6.27533 18.875 6 19.25 6ZM10.25 6C10.6642 6 11 6.33579 11 6.75V12.25C11 12.6642 10.6642 13 10.25 13C9.87469 13 9.56486 12.7242 9.50977 12.3643C8.94087 12.7642 8.24822 13 7.5 13C5.567 13 4 11.433 4 9.5C4 7.567 5.567 6 7.5 6C8.24802 6 8.94096 6.23505 9.50977 6.63477C9.56526 6.27533 9.87502 6 10.25 6ZM7.5 7.5C6.39543 7.5 5.5 8.39543 5.5 9.5C5.5 10.6046 6.39543 11.5 7.5 11.5C8.60457 11.5 9.5 10.6046 9.5 9.5C9.5 8.39543 8.60457 7.5 7.5 7.5ZM16.5 7.5C15.3954 7.5 14.5 8.39543 14.5 9.5C14.5 10.6046 15.3954 11.5 16.5 11.5C17.6046 11.5 18.5 10.6046 18.5 9.5C18.5 8.39543 17.6046 7.5 16.5 7.5Z" fill="black"/>
</svg>
