<svg width="24" height="24" viewBox="0 0 24 24" fill="none" xmlns="http://www.w3.org/2000/svg">
<path fill-rule="evenodd" clip-rule="evenodd" d="M8.00032 6C8.32897 6.00016 8.61994 6.21435 8.71712 6.52832L11.9671 17.0283C12.0894 17.4238 11.8674 17.8442 11.472 17.9668C11.0764 18.0891 10.656 17.8673 10.5335 17.4717L9.76888 15H6.23177L5.46712 17.4717C5.3447 17.8672 4.92419 18.0889 4.52864 17.9668C4.13301 17.8443 3.91117 17.424 4.03353 17.0283L7.28353 6.52832C7.38078 6.21429 7.67157 6 8.00032 6ZM16.0003 6C16.329 6.00016 16.6199 6.21435 16.7171 6.52832L19.9671 17.0283C20.0894 17.4238 19.8674 17.8442 19.472 17.9668C19.0764 18.0891 18.656 17.8673 18.5335 17.4717L17.7689 15H14.2318L13.4671 17.4717C13.3447 17.8672 12.9242 18.0889 12.5286 17.9668C12.133 17.8443 11.9112 17.424 12.0335 17.0283L15.2835 6.52832C15.3808 6.21429 15.6716 6 16.0003 6ZM14.6966 13.5H17.304L16.0003 9.28711L14.6966 13.5ZM6.69661 13.5H9.30404L8.00032 9.28711L6.69661 13.5Z" fill="black"/>
</svg>
