<svg width="24" height="24" viewBox="0 0 24 24" fill="none" xmlns="http://www.w3.org/2000/svg">
<path d="M16.25 17.5C16.6642 17.5 17 17.8358 17 18.25C17 18.6642 16.6642 19 16.25 19H7.75C7.33579 19 7 18.6642 7 18.25C7 17.8358 7.33579 17.5 7.75 17.5H16.25ZM19.25 11.25C19.6642 11.25 20 11.5858 20 12C20 12.4142 19.6642 12.75 19.25 12.75H4.75C4.33579 12.75 4 12.4142 4 12C4 11.5858 4.33579 11.25 4.75 11.25H19.25ZM16.25 5C16.6642 5 17 5.33579 17 5.75C17 6.16421 16.6642 6.5 16.25 6.5H7.75C7.33579 6.5 7 6.16421 7 5.75C7 5.33579 7.33579 5 7.75 5H16.25Z" fill="black"/>
</svg>
