<svg width="24" height="24" viewBox="0 0 24 24" fill="none" xmlns="http://www.w3.org/2000/svg">
<path d="M18.25 5C18.6642 5 19 5.33579 19 5.75V7.25C19 7.66421 18.6642 8 18.25 8C17.8358 8 17.5 7.66421 17.5 7.25V6.5H12.75V17.5H13.25C13.6642 17.5 14 17.8358 14 18.25C14 18.6642 13.6642 19 13.25 19H10.75C10.3358 19 10 18.6642 10 18.25C10 17.8358 10.3358 17.5 10.75 17.5H11.25V6.5H6.5V7.25C6.5 7.66421 6.16421 8 5.75 8C5.33579 8 5 7.66421 5 7.25V5.75C5 5.33579 5.33579 5 5.75 5H18.25Z" fill="black"/>
</svg>
