<svg width="24" height="24" viewBox="0 0 24 24" fill="none" xmlns="http://www.w3.org/2000/svg">
<path fill-rule="evenodd" clip-rule="evenodd" d="M9.02148 5.56878C9.06503 4.4894 10.2348 3.63087 11.3145 4.17034C12.3472 4.6867 13 5.74229 13 6.8969V8.99944H18C19.1044 8.99944 19.9998 9.89508 20 10.9994C20 11.869 19.444 12.6068 18.6689 12.8823L18.0088 17.6303C17.8046 19.0962 16.4763 20.1378 15.0039 19.9867L8.07129 19.2758C7.94854 19.2632 7.83024 19.2369 7.7168 19.2006C7.40481 19.6809 6.86543 19.9994 6.25 19.9994H5.75C4.7835 19.9994 4 19.2159 4 18.2494V9.74944C4.00022 8.78313 4.78364 7.99944 5.75 7.99944H6.25C6.90506 7.99944 7.47542 8.36013 7.77539 8.893C8.10489 8.74531 8.35614 8.44325 8.55957 7.98382C8.87052 7.2813 8.98966 6.35723 9.02148 5.56878ZM10.5869 5.52679C10.541 5.55606 10.5218 5.59838 10.5205 5.62933C10.4863 6.47643 10.3574 7.62745 9.93066 8.59124C9.57656 9.39096 8.96901 10.1443 8 10.4037V17.5346C8.00001 17.6628 8.09709 17.7705 8.22461 17.7836L15.1572 18.4946C15.8265 18.5632 16.4307 18.0897 16.5234 17.4233L17.1387 12.9994H16.75C16.3358 12.9994 16 12.6636 16 12.2494C16.0002 11.8354 16.3359 11.4994 16.75 11.4994H18C18.2761 11.4994 18.5 11.2756 18.5 10.9994C18.4998 10.7235 18.276 10.4994 18 10.4994H12.25C11.8358 10.4994 11.5 10.1636 11.5 9.74944V6.8969C11.5 6.31059 11.1688 5.77448 10.6445 5.51214C10.6389 5.50931 10.6358 5.50879 10.6309 5.50921C10.6231 5.50992 10.6071 5.51396 10.5869 5.52679ZM5.75 9.49944C5.61206 9.49944 5.50022 9.61156 5.5 9.74944V18.2494C5.5 18.3875 5.61193 18.4994 5.75 18.4994H6.25C6.38807 18.4994 6.5 18.3875 6.5 18.2494V9.74944C6.49978 9.61156 6.38794 9.49944 6.25 9.49944H5.75Z" fill="black"/>
</svg>
