<svg width="24" height="24" viewBox="0 0 24 24" fill="none" xmlns="http://www.w3.org/2000/svg">
<path d="M6.24963 4C6.86787 4 7.41001 4.32166 7.72131 4.80566C7.83325 4.77024 7.94997 4.74487 8.07092 4.73242L15.0035 4.02148C16.476 3.87046 17.8044 4.91187 18.0084 6.37793L18.6686 11.125C19.4437 11.4004 19.9995 12.1382 19.9996 13.0078C19.9995 14.1123 19.1041 15.0078 17.9996 15.0078H12.9996V17.1113C12.9994 18.2657 12.3467 19.3216 11.3141 19.8379C10.2347 20.3767 9.06487 19.5185 9.02112 18.4395C8.9893 17.6508 8.87029 16.7261 8.5592 16.0234C8.35493 15.5622 8.10364 15.2574 7.77209 15.1104C7.47151 15.641 6.90302 16 6.24963 16H5.74963C4.78333 15.9998 3.99963 15.2164 3.99963 14.25V5.75C3.99963 4.78364 4.78333 4.00023 5.74963 4H6.24963ZM15.1569 5.51367L8.22424 6.22461C8.09694 6.23789 7.99963 6.34559 7.99963 6.47363V13.6035C8.96875 13.8629 9.57617 14.6172 9.9303 15.417C10.357 16.3808 10.486 17.5319 10.5201 18.3789C10.5215 18.4098 10.5409 18.4523 10.5865 18.4814C10.6064 18.494 10.6226 18.4982 10.6305 18.499C10.6353 18.4994 10.6388 18.4987 10.6442 18.4961C11.1684 18.2339 11.4994 17.6975 11.4996 17.1113V14.2578C11.4998 13.8439 11.8357 13.508 12.2496 13.5078H17.9996C18.2757 13.5078 18.4995 13.2838 18.4996 13.0078C18.4995 12.7318 18.2757 12.5078 17.9996 12.5078H16.7496C16.3357 12.5076 15.9998 12.1718 15.9996 11.7578C15.9998 11.3439 16.3357 11.008 16.7496 11.0078H17.1383L16.5231 6.58496C16.4304 5.91855 15.8262 5.44502 15.1569 5.51367ZM5.74963 5.5C5.61176 5.50023 5.49963 5.61207 5.49963 5.75V14.25C5.49963 14.3879 5.61176 14.4998 5.74963 14.5H6.24963C6.3877 14.5 6.49963 14.3881 6.49963 14.25V5.75C6.49963 5.61193 6.3877 5.5 6.24963 5.5H5.74963Z" fill="black"/>
</svg>
