<svg width="24" height="24" viewBox="0 0 24 24" fill="none" xmlns="http://www.w3.org/2000/svg">
<path d="M18.25 5C19.2165 5 20 5.7835 20 6.75V8.0459C19.9999 8.88416 19.4187 9.48559 18.8545 9.77734C18.0486 10.1939 17.5 11.0336 17.5 12C17.5 12.9664 18.0486 13.8061 18.8545 14.2227C19.4187 14.5144 19.9999 15.1158 20 15.9541V17.25C20 18.2165 19.2165 19 18.25 19H5.75C4.7835 19 4 18.2165 4 17.25V15.9541C4.00011 15.1158 4.58129 14.5144 5.14551 14.2227C5.9514 13.8061 6.5 12.9664 6.5 12C6.5 11.0336 5.9514 10.1939 5.14551 9.77734C4.58129 9.48559 4.00011 8.88416 4 8.0459V6.75C4 5.7835 4.7835 5 5.75 5H18.25ZM5.75 6.5C5.61193 6.5 5.5 6.61193 5.5 6.75V8.0459C5.50013 8.13489 5.57566 8.3103 5.83496 8.44434C7.11951 9.10834 8 10.4509 8 12C8 13.5491 7.11951 14.8917 5.83496 15.5557C5.57567 15.6897 5.50013 15.8651 5.5 15.9541V17.25C5.5 17.3881 5.61193 17.5 5.75 17.5H18.25C18.3881 17.5 18.5 17.3881 18.5 17.25V15.9541C18.4999 15.8651 18.4243 15.6897 18.165 15.5557C16.8805 14.8917 16 13.5491 16 12C16 10.4509 16.8805 9.10834 18.165 8.44434C18.4243 8.3103 18.4999 8.13489 18.5 8.0459V6.75C18.5 6.61193 18.3881 6.5 18.25 6.5H5.75Z" fill="black"/>
</svg>
