<svg width="24" height="24" viewBox="0 0 24 24" fill="none" xmlns="http://www.w3.org/2000/svg">
<path fill-rule="evenodd" clip-rule="evenodd" d="M11.3193 4.89139C11.7859 4.05021 12.8466 3.73741 13.6875 4.24296L14.6338 4.81132C14.9793 5.01936 15.0973 5.4632 14.9023 5.8162C14.9015 5.81775 14.9011 5.82077 14.8994 5.82401C14.8944 5.83368 14.886 5.85078 14.875 5.87382C14.8525 5.92068 14.82 5.99283 14.7852 6.0828C14.714 6.26678 14.6388 6.51122 14.6084 6.7703C14.5498 7.26992 14.6494 7.73913 15.2061 8.07401C15.513 8.2586 15.7495 8.2807 15.9316 8.2537C16.1296 8.22433 16.3302 8.12626 16.5264 7.97245C16.722 7.81904 16.885 7.63198 17.002 7.47635C17.0591 7.40033 17.1022 7.33538 17.1299 7.29178C17.1435 7.27027 17.1536 7.2543 17.1592 7.24491C17.1618 7.24054 17.1634 7.23734 17.1641 7.23612L17.2031 7.1746C17.3038 7.02961 17.4529 6.9238 17.625 6.87772C17.8215 6.82513 18.0307 6.85502 18.2051 6.95975L19.1514 7.52811C19.9732 8.02246 20.2324 9.09112 19.7754 9.91581L14.6807 19.1082C14.2142 19.9495 13.1534 20.2623 12.3125 19.7566L6.84863 16.4715C6.02686 15.9771 5.7675 14.9085 6.22461 14.0838L11.3193 4.89139ZM12.915 5.52811C12.8277 5.47566 12.7014 5.49378 12.6318 5.61893L7.53613 14.8113C7.45731 14.9535 7.51571 15.1223 7.62207 15.1863L13.085 18.4715C13.1723 18.524 13.2986 18.506 13.3682 18.3807L18.4639 9.18827C18.5426 9.04605 18.4843 8.87724 18.3779 8.81327L18.0215 8.59842C17.8704 8.77531 17.681 8.97263 17.4521 9.15214C17.1219 9.41109 16.684 9.65911 16.1523 9.73807C15.6048 9.81932 15.0196 9.71152 14.4336 9.35917C13.2047 8.62013 13.0169 7.45852 13.1182 6.59549C13.155 6.28182 13.2288 5.99592 13.3057 5.76346L12.915 5.52811ZM8.25 4.99979C8.66416 4.99979 8.99991 5.33566 9 5.74979C9 6.16401 8.66421 6.49979 8.25 6.49979H5.75C5.61199 6.49979 5.50009 6.6118 5.5 6.74979V12.2498C5.5 12.664 5.16421 12.9998 4.75 12.9998C4.33579 12.9998 4 12.664 4 12.2498V6.74979C4.00009 5.78337 4.78356 4.99979 5.75 4.99979H8.25Z" fill="black"/>
</svg>
