<svg width="24" height="24" viewBox="0 0 24 24" fill="none" xmlns="http://www.w3.org/2000/svg">
<path d="M14.25 4C14.6642 4 15 4.33579 15 4.75C15 5.83762 15.6997 6.51136 16.585 6.9541C17.0213 7.17228 17.4662 7.31233 17.8066 7.39746C17.9754 7.43964 18.115 7.46741 18.21 7.48438C18.2574 7.49284 18.2935 7.49852 18.3164 7.50195C18.3278 7.50366 18.3363 7.50524 18.3408 7.50586H18.3428C18.7537 7.55723 19.0454 7.93185 18.9941 8.34277C18.9428 8.75371 18.5681 9.04537 18.1572 8.99414L18.25 8.25C18.157 8.99421 18.1565 8.99418 18.1562 8.99414H18.1543C18.1531 8.99399 18.1511 8.99339 18.1494 8.99316C18.1461 8.99273 18.1418 8.99191 18.1367 8.99121C18.1261 8.98976 18.1116 8.98803 18.0938 8.98535C18.058 8.97999 18.0082 8.972 17.9463 8.96094C17.8226 8.93885 17.6495 8.90408 17.4434 8.85254C17.034 8.75019 16.4784 8.57755 15.915 8.2959C15.6135 8.14514 15.2993 7.95469 15 7.72168V15C15 17.7614 12.7614 20 10 20C7.23858 20 5 17.7614 5 15C5 12.1845 7.54483 10 10.25 10H11V11.5H10.25C8.26075 11.5 6.5 13.1211 6.5 15C6.5 16.933 8.067 18.5 10 18.5C11.933 18.5 13.5 16.933 13.5 15V4.75C13.5 4.33579 13.8358 4 14.25 4Z" fill="black"/>
</svg>
