<svg width="24" height="24" viewBox="0 0 24 24" fill="none" xmlns="http://www.w3.org/2000/svg">
<path d="M18.6992 14.2412C18.9802 13.937 19.4545 13.9183 19.7588 14.1992C20.063 14.4802 20.0817 14.9545 19.8008 15.2588L19.7979 15.2617C19.7951 15.2648 19.7904 15.2705 19.7842 15.2773C19.7717 15.2912 19.7526 15.3125 19.7275 15.3408C19.6768 15.3983 19.6013 15.4842 19.5078 15.5957C19.3206 15.8189 19.0604 16.1429 18.7705 16.5391C18.1864 17.3373 17.5031 18.4048 17.0537 19.5283C16.9556 19.7736 16.7355 19.9499 16.4746 19.9912C16.2138 20.0325 15.9504 19.9332 15.7812 19.7305L14.1738 17.8018C13.9087 17.4836 13.9514 17.0103 14.2695 16.7451C14.5876 16.48 15.061 16.5229 15.3262 16.8408L16.1758 17.8604C16.6172 17.0131 17.1227 16.2504 17.5596 15.6533C17.8723 15.2259 18.1548 14.8757 18.3594 14.6318C18.4616 14.51 18.5451 14.4138 18.6035 14.3477C18.6326 14.3147 18.6557 14.2893 18.6719 14.2715C18.68 14.2625 18.6859 14.255 18.6904 14.25L18.6982 14.2422V14.2412H18.6992ZM12 4C15.9182 4 19.1777 6.8162 19.8662 10.5352L19.9248 10.8975V10.9023L19.958 11.1562C20.0118 11.5668 19.723 11.9431 19.3125 11.9971C18.9019 12.0508 18.5256 11.7621 18.4717 11.3516L18.4375 11.0977V11.0967C17.9983 7.93467 15.283 5.5 12 5.5C8.41015 5.5 5.5 8.41015 5.5 12C5.5 15.1822 7.78752 17.831 10.8076 18.3906L11.1025 18.4385L11.1982 18.458L11.4482 18.5264C11.8476 18.6358 12.0829 19.0488 11.9736 19.4482C11.8642 19.8476 11.4512 20.0829 11.0518 19.9736L10.8379 19.915C6.97019 19.3517 4 16.0238 4 12C4 7.58172 7.58172 4 12 4ZM12.25 8C12.6642 8 13 8.33579 13 8.75V12C13 12.2225 12.9013 12.4337 12.7305 12.5762L11.2305 13.8262C10.9123 14.0913 10.439 14.0485 10.1738 13.7305C9.90871 13.4123 9.9515 12.939 10.2695 12.6738L11.5 11.6484V8.75C11.5 8.33579 11.8358 8 12.25 8Z" fill="black"/>
</svg>
