<svg width="24" height="24" viewBox="0 0 24 24" fill="none" xmlns="http://www.w3.org/2000/svg">
<path d="M12 4C12.4142 4 12.75 4.33579 12.75 4.75C12.75 5.16421 12.4142 5.5 12 5.5C8.41015 5.5 5.5 8.41015 5.5 12C5.5 15.5899 8.41015 18.5 12 18.5C15.5899 18.5 18.5 15.5899 18.5 12C18.5 11.5858 18.8358 11.25 19.25 11.25C19.6642 11.25 20 11.5858 20 12C20 16.4183 16.4183 20 12 20C7.58172 20 4 16.4183 4 12C4 7.58172 7.58172 4 12 4ZM12.25 8C12.6642 8 13 8.33579 13 8.75V12C13 12.2225 12.9013 12.4337 12.7305 12.5762L11.2305 13.8262C10.9123 14.0913 10.439 14.0485 10.1738 13.7305C9.90871 13.4123 9.9515 12.939 10.2695 12.6738L11.5 11.6484V8.75C11.5 8.33579 11.8358 8 12.25 8ZM19.25 4C19.5309 4 19.7884 4.15742 19.917 4.40723C20.0453 4.65686 20.0234 4.95708 19.8604 5.18555L18.207 7.5H19.25C19.6642 7.5 20 7.83579 20 8.25C20 8.66421 19.6642 9 19.25 9H16.75C16.4691 9 16.2116 8.84258 16.083 8.59277C15.9547 8.34314 15.9766 8.04292 16.1396 7.81445L17.793 5.5H16.75C16.3358 5.5 16 5.16421 16 4.75C16 4.33579 16.3358 4 16.75 4H19.25Z" fill="black"/>
</svg>
