<svg width="24" height="24" viewBox="0 0 24 24" fill="none" xmlns="http://www.w3.org/2000/svg">
<path d="M14.25 4C14.6642 4 15 4.33579 15 4.75C15 5.16421 14.6642 5.5 14.25 5.5H12.75V6.04004C14.1204 6.18602 15.3719 6.72822 16.3896 7.54883L16.7197 7.21973C17.0126 6.92683 17.4874 6.92683 17.7803 7.21973C18.0732 7.51262 18.0732 7.98738 17.7803 8.28027L17.4502 8.60938C18.4189 9.81031 19 11.337 19 13C19 16.866 15.866 20 12 20C8.13401 20 5 16.866 5 13C5 9.38739 7.73669 6.41428 11.25 6.04004V5.5H9.75C9.33579 5.5 9 5.16421 9 4.75C9 4.33579 9.33579 4 9.75 4H14.25ZM12 7.5C8.96243 7.5 6.5 9.96243 6.5 13C6.5 16.0376 8.96243 18.5 12 18.5C15.0376 18.5 17.5 16.0376 17.5 13C17.5 9.96243 15.0376 7.5 12 7.5ZM12 9C12.4142 9 12.75 9.33579 12.75 9.75V13.25C12.75 13.6642 12.4142 14 12 14C11.5858 14 11.25 13.6642 11.25 13.25V9.75C11.25 9.33579 11.5858 9 12 9Z" fill="black"/>
</svg>
