<svg width="24" height="24" viewBox="0 0 24 24" fill="none" xmlns="http://www.w3.org/2000/svg">
<path d="M14 4C14.4142 4 14.75 4.33579 14.75 4.75C14.75 5.16421 14.4142 5.5 14 5.5H12.75V6.04004C16.2633 6.41428 19 9.38739 19 13C19 16.866 15.866 20 12 20C8.09999 20 5 16.6294 5 12.75C5 12.3358 5.33579 12 5.75 12H11.25V6.75C11.25 6.70739 11.2539 6.66567 11.2607 6.625C11.2539 6.58433 11.25 6.54261 11.25 6.5V5.5H10C9.58579 5.5 9.25 5.16421 9.25 4.75C9.25 4.33579 9.58579 4 10 4H14ZM12.75 12.75C12.75 13.1642 12.4142 13.5 12 13.5H6.5498C6.91062 16.2806 9.24062 18.5 12 18.5C15.0376 18.5 17.5 16.0376 17.5 13C17.5 10.2169 15.4327 7.91761 12.75 7.55176V12.75ZM5.21973 7.21973C5.51262 6.92683 5.98738 6.92683 6.28027 7.21973L7.78027 8.71973C8.07317 9.01262 8.07317 9.48738 7.78027 9.78027C7.48738 10.0732 7.01262 10.0732 6.71973 9.78027L5.21973 8.28027C4.92683 7.98738 4.92683 7.51262 5.21973 7.21973Z" fill="black"/>
</svg>
