<svg width="24" height="24" viewBox="0 0 24 24" fill="none" xmlns="http://www.w3.org/2000/svg">
<path d="M6.71973 16.2197C7.01262 15.9268 7.48738 15.9268 7.78027 16.2197C8.07317 16.5126 8.07317 16.9874 7.78027 17.2803L6.28027 18.7803C5.98738 19.0732 5.51262 19.0732 5.21973 18.7803C4.92683 18.4874 4.92683 18.0126 5.21973 17.7197L6.71973 16.2197ZM14.25 4C14.6642 4 15 4.33579 15 4.75C15 5.16421 14.6642 5.5 14.25 5.5H12.5V6.04297C16.0433 6.44434 19 9.63635 19 13.25C19 13.6642 18.6642 14 18.25 14H11.75C11.3358 14 11 13.6642 11 13.25V6.75C11 6.70739 11.0039 6.66567 11.0107 6.625C11.0039 6.58433 11 6.54261 11 6.5V5.5H9.75C9.33579 5.5 9 5.16421 9 4.75C9 4.33579 9.33579 4 9.75 4H14.25ZM7.25 12.25C7.66421 12.25 8 12.5858 8 13C8 13.4142 7.66421 13.75 7.25 13.75H4.75C4.33579 13.75 4 13.4142 4 13C4 12.5858 4.33579 12.25 4.75 12.25H7.25ZM12.5 12.5H17.4434C17.0808 10.0269 14.9732 7.91815 12.5 7.55566V12.5ZM5.21973 7.21973C5.51262 6.92683 5.98738 6.92683 6.28027 7.21973L7.78027 8.71973C8.07317 9.01262 8.07317 9.48738 7.78027 9.78027C7.48738 10.0732 7.01262 10.0732 6.71973 9.78027L5.21973 8.28027C4.92683 7.98738 4.92683 7.51262 5.21973 7.21973Z" fill="black"/>
</svg>
