<svg width="24" height="24" viewBox="0 0 24 24" fill="none" xmlns="http://www.w3.org/2000/svg">
<path d="M14 6C17.3137 6 20 8.68629 20 12C20 15.3137 17.3137 18 14 18H10C6.68629 18 4 15.3137 4 12C4 8.68629 6.68629 6 10 6H14ZM10 7.5C7.51472 7.5 5.5 9.51472 5.5 12C5.5 14.4853 7.51472 16.5 10 16.5H14C16.4853 16.5 18.5 14.4853 18.5 12C18.5 9.51472 16.4853 7.5 14 7.5H10ZM14 9C15.6569 9 17 10.3431 17 12C17 13.6569 15.6569 15 14 15C12.3431 15 11 13.6569 11 12C11 10.3431 12.3431 9 14 9ZM14 10.5C13.1716 10.5 12.5 11.1716 12.5 12C12.5 12.8284 13.1716 13.5 14 13.5C14.8284 13.5 15.5 12.8284 15.5 12C15.5 11.1716 14.8284 10.5 14 10.5Z" fill="black"/>
</svg>
