<svg width="24" height="24" viewBox="0 0 24 24" fill="none" xmlns="http://www.w3.org/2000/svg">
<path d="M14 6C17.3137 6 20 8.68629 20 12C20 15.3137 17.3137 18 14 18H10C6.68629 18 4 15.3137 4 12C4 8.68629 6.68629 6 10 6H14ZM10 7.5C7.51472 7.5 5.5 9.51472 5.5 12C5.5 14.4853 7.51472 16.5 10 16.5H14C16.4853 16.5 18.5 14.4853 18.5 12C18.5 9.51472 16.4853 7.5 14 7.5H10ZM10 9C11.6569 9 13 10.3431 13 12C13 13.6569 11.6569 15 10 15C8.34315 15 7 13.6569 7 12C7 10.3431 8.34315 9 10 9ZM10 10.5C9.17157 10.5 8.5 11.1716 8.5 12C8.5 12.8284 9.17157 13.5 10 13.5C10.8284 13.5 11.5 12.8284 11.5 12C11.5 11.1716 10.8284 10.5 10 10.5Z" fill="black"/>
</svg>
