<svg width="24" height="24" viewBox="0 0 24 24" fill="none" xmlns="http://www.w3.org/2000/svg">
<path d="M16 4C17.2527 4 18.27 4.81769 18.9355 5.89258C19.6082 6.97916 20 8.43349 20 10V19.25C20 19.6642 19.6642 20 19.25 20H9.75C9.33579 20 9 19.6642 9 19.25V16H8C6.74728 16 5.72997 15.1823 5.06445 14.1074C4.39181 13.0208 4 11.5665 4 10C4 8.43349 4.39181 6.97916 5.06445 5.89258C5.72997 4.81769 6.74728 4 8 4H16ZM18.5 14.709C17.858 15.4725 17.0053 16 16 16H10.5V18.5H18.5V14.709ZM8 5.5C7.45794 5.5 6.8506 5.85755 6.33984 6.68262C5.83622 7.49616 5.5 8.66702 5.5 10C5.5 11.333 5.83622 12.5038 6.33984 13.3174C6.8506 14.1424 7.45794 14.5 8 14.5H13.332C13.2374 14.374 13.1482 14.2427 13.0645 14.1074C12.3918 13.0208 12 11.5665 12 10C12 8.43349 12.3918 6.97916 13.0645 5.89258C13.1482 5.75731 13.2374 5.626 13.332 5.5H8ZM16 5.5C15.4579 5.5 14.8506 5.85755 14.3398 6.68262C13.8362 7.49616 13.5 8.66702 13.5 10C13.5 11.333 13.8362 12.5038 14.3398 13.3174C14.8506 14.1424 15.4579 14.5 16 14.5C16.5421 14.5 17.1494 14.1424 17.6602 13.3174C18.1638 12.5038 18.5 11.333 18.5 10C18.5 8.66702 18.1638 7.49616 17.6602 6.68262C17.1494 5.85755 16.5421 5.5 16 5.5ZM16 8C16.29 8 16.4882 8.15002 16.5869 8.25098C16.6843 8.35058 16.7423 8.4574 16.7754 8.52734C16.8433 8.67094 16.8846 8.83114 16.9121 8.96875C16.9697 9.25646 17 9.62085 17 10C17 10.3792 16.9697 10.7435 16.9121 11.0312C16.8846 11.1689 16.8433 11.3291 16.7754 11.4727C16.7423 11.5426 16.6843 11.6494 16.5869 11.749C16.4882 11.85 16.29 12 16 12C15.71 12 15.5118 11.85 15.4131 11.749C15.3157 11.6494 15.2577 11.5426 15.2246 11.4727C15.1567 11.3291 15.1154 11.1689 15.0879 11.0312C15.0303 10.7435 15 10.3792 15 10C15 9.62085 15.0303 9.25646 15.0879 8.96875C15.1154 8.83114 15.1567 8.67094 15.2246 8.52734C15.2577 8.4574 15.3157 8.35058 15.4131 8.25098C15.5118 8.15002 15.71 8 16 8Z" fill="black"/>
</svg>
