<svg width="24" height="24" viewBox="0 0 24 24" fill="none" xmlns="http://www.w3.org/2000/svg">
<path fill-rule="evenodd" clip-rule="evenodd" d="M18.6914 4.25021C18.9676 3.94163 19.4413 3.91546 19.75 4.19162C20.0585 4.46785 20.0847 4.94161 19.8086 5.25021V5.25119H19.8076L19.8066 5.25314C19.8057 5.2542 19.8041 5.25552 19.8027 5.25705C19.7997 5.2604 19.796 5.2653 19.791 5.27072C19.7808 5.28182 19.7662 5.29726 19.748 5.31662C19.7113 5.3557 19.6577 5.41123 19.5889 5.48068C19.4507 5.61995 19.2483 5.81675 18.9844 6.05295C18.4575 6.52446 17.6817 7.15613 16.6777 7.81369C15.6343 8.50949 15.009 9.69112 14.6748 11.1653C14.3412 12.637 14.3208 14.3095 14.4131 15.8498C14.5437 18.0334 12.8925 20.0002 10.626 20.0002H7.75C5.67904 20.0002 4.00015 18.3212 4 16.2502V13.0002C4 11.8437 4.75448 11.0229 5.46875 10.51C6.19602 9.98777 7.03456 9.66791 7.55273 9.52658L7.67285 9.50412C11.176 9.14172 13.9536 7.80498 15.8516 6.56271C16.7857 5.9513 17.5036 5.36498 17.9844 4.93479C18.2242 4.7202 18.4047 4.54471 18.5234 4.42502C18.5827 4.36525 18.6272 4.31909 18.6553 4.28928C18.6689 4.27481 18.6785 4.26367 18.6846 4.25705C18.6875 4.25389 18.6903 4.2514 18.6914 4.25021ZM13.6289 9.46115C12.0073 10.168 10.09 10.7506 7.90723 10.9856C7.50555 11.1 6.86928 11.3505 6.34375 11.7278C5.78735 12.1273 5.5 12.5569 5.5 13.0002V16.2502C5.50015 17.4927 6.50743 18.5002 7.75 18.5002H10.626C11.9508 18.5002 12.9988 17.341 12.915 15.9397C12.8194 14.3424 12.8325 12.5068 13.2119 10.8332C13.3177 10.3665 13.4553 9.90539 13.6289 9.46115Z" fill="black"/>
</svg>
