<svg width="24" height="24" viewBox="0 0 24 24" fill="none" xmlns="http://www.w3.org/2000/svg">
<path d="M13.25 4C14.7688 4 16 5.23122 16 6.75V8H17.25C18.7688 8 20 9.23122 20 10.75V17.25C20 18.7688 18.7688 20 17.25 20H6.75C5.23122 20 4 18.7688 4 17.25V10.75C4 9.23122 5.23122 8 6.75 8H8V6.75C8 5.23122 9.23122 4 10.75 4H13.25ZM5.5 17.25C5.5 17.9404 6.05964 18.5 6.75 18.5H17.25C17.9404 18.5 18.5 17.9404 18.5 17.25V13.5H14V14.25C14 15.2165 13.2165 16 12.25 16H11.75C10.7835 16 10 15.2165 10 14.25V13.5H5.5V17.25ZM11.75 12.5C11.6119 12.5 11.5 12.6119 11.5 12.75V14.25C11.5 14.3881 11.6119 14.5 11.75 14.5H12.25C12.3881 14.5 12.5 14.3881 12.5 14.25V12.75C12.5 12.6119 12.3881 12.5 12.25 12.5H11.75ZM6.75 9.5C6.05964 9.5 5.5 10.0596 5.5 10.75V12H10.1709C10.452 11.4093 11.0523 11 11.75 11H12.25C12.9477 11 13.548 11.4093 13.8291 12H18.5V10.75C18.5 10.0596 17.9404 9.5 17.25 9.5H6.75ZM10.75 5.5C10.0596 5.5 9.5 6.05964 9.5 6.75V8H14.5V6.75C14.5 6.05964 13.9404 5.5 13.25 5.5H10.75Z" fill="black"/>
</svg>
