<svg width="24" height="24" viewBox="0 0 24 24" fill="none" xmlns="http://www.w3.org/2000/svg">
<path d="M8.375 4C10.5884 4 12.0087 4.73424 12.5303 5.25586C12.823 5.54877 12.8231 6.02358 12.5303 6.31641C12.2374 6.60902 11.7626 6.60902 11.4697 6.31641C11.3009 6.14755 10.3045 5.5 8.375 5.5C7.3085 5.5 6.62766 5.91344 6.19141 6.49512C5.73329 7.10615 5.50005 7.96803 5.5 8.89258C5.5 9.30555 5.60701 9.87347 5.79492 10.5312C5.97964 11.1777 6.22896 11.8644 6.48242 12.498C6.73526 13.1302 6.9883 13.7007 7.17871 14.1133C7.27372 14.3191 7.35323 14.4848 7.4082 14.5986C7.43569 14.6556 7.45629 14.7002 7.4707 14.7295C7.47781 14.7439 7.48376 14.7546 7.4873 14.7617L7.49219 14.7715C7.50978 14.8067 7.5243 14.8435 7.53613 14.8809L7.56348 14.9951V14.9961C7.56367 14.9974 7.56396 14.9998 7.56445 15.0029C7.56545 15.0093 7.56714 15.0198 7.56934 15.0332C7.57377 15.0604 7.58049 15.1016 7.58984 15.1543C7.60868 15.2603 7.63745 15.4134 7.67676 15.5977C7.75602 15.9691 7.87529 16.4573 8.03809 16.9385C8.20407 17.429 8.40074 17.8663 8.61523 18.167C8.84192 18.4847 8.97624 18.5 9 18.5C9.13211 18.5 9.37463 18.4049 9.70605 17.9492C10.0204 17.5169 10.3044 16.9056 10.5449 16.2441C10.7823 15.5914 10.9629 14.9321 11.084 14.4326C11.1442 14.1841 11.1889 13.9775 11.2188 13.834C11.2337 13.7623 11.2447 13.7062 11.252 13.6689C11.2556 13.6503 11.2581 13.6359 11.2598 13.627C11.2605 13.623 11.2614 13.6201 11.2617 13.6182V13.6152C11.3268 13.2589 11.6377 13 12 13C12.3623 13 12.6732 13.2589 12.7383 13.6152V13.6182C12.7386 13.6201 12.7395 13.623 12.7402 13.627C12.7419 13.6359 12.7444 13.6503 12.748 13.6689C12.7553 13.7062 12.7663 13.7623 12.7812 13.834C12.8111 13.9775 12.8558 14.1841 12.916 14.4326C13.0371 14.9321 13.2177 15.5914 13.4551 16.2441C13.6956 16.9056 13.9796 17.5169 14.2939 17.9492C14.6254 18.4049 14.8679 18.5 15 18.5C15.0238 18.5 15.1581 18.4847 15.3848 18.167C15.5993 17.8663 15.7959 17.429 15.9619 16.9385C16.1247 16.4573 16.244 15.9691 16.3232 15.5977C16.3626 15.4134 16.3913 15.2603 16.4102 15.1543C16.4195 15.1016 16.4262 15.0604 16.4307 15.0332C16.4329 15.0198 16.4346 15.0093 16.4355 15.0029C16.436 14.9998 16.4363 14.9974 16.4365 14.9961V14.9951C16.4475 14.9224 16.4694 14.8516 16.501 14.7852L18.5723 10.4277C18.7501 10.0537 19.1982 9.89443 19.5723 10.0723C19.9463 10.2501 20.1056 10.6982 19.9277 11.0723L17.9004 15.332C17.8962 15.3564 17.8923 15.3846 17.8867 15.416C17.8653 15.5365 17.8335 15.7073 17.79 15.9111C17.7036 16.3164 17.5695 16.8644 17.3818 17.4189C17.1974 17.964 16.946 18.5621 16.6064 19.0381C16.2791 19.497 15.753 20 15 20C14.1322 20 13.4996 19.4075 13.0811 18.832C12.6456 18.2333 12.3043 17.4691 12.0449 16.7559C12.0291 16.7124 12.0153 16.6684 12 16.625C11.9847 16.6684 11.9709 16.7124 11.9551 16.7559C11.6957 17.4691 11.3544 18.2333 10.9189 18.832C10.5004 19.4075 9.86778 20 9 20C8.24697 20 7.72093 19.497 7.39355 19.0381C7.05401 18.5621 6.8026 17.964 6.61816 17.4189C6.43054 16.8644 6.29644 16.3164 6.20996 15.9111C6.16648 15.7073 6.13468 15.5365 6.11328 15.416C6.10827 15.3878 6.10346 15.3624 6.09961 15.3398C6.08731 15.3146 6.07292 15.2847 6.05664 15.251C5.99837 15.1303 5.91541 14.9567 5.81641 14.7422C5.61846 14.3133 5.3548 13.718 5.08984 13.0557C4.82546 12.3947 4.55621 11.6562 4.35254 10.9434C4.15218 10.242 4 9.51513 4 8.89258C4.00005 7.74615 4.28454 6.53708 4.99121 5.59473C5.72013 4.62283 6.85222 4 8.375 4ZM16 9C16.4142 9 16.75 9.33579 16.75 9.75V11.25C16.75 11.6642 16.4142 12 16 12C15.5858 12 15.25 11.6642 15.25 11.25V9.75C15.25 9.33579 15.5858 9 16 9ZM14.25 7.25C14.6642 7.25 15 7.58579 15 8C15 8.41421 14.6642 8.75 14.25 8.75H12.75C12.3358 8.75 12 8.41421 12 8C12 7.58579 12.3358 7.25 12.75 7.25H14.25ZM19.25 7.25C19.6642 7.25 20 7.58579 20 8C20 8.41421 19.6642 8.75 19.25 8.75H17.75C17.3358 8.75 17 8.41421 17 8C17 7.58579 17.3358 7.25 17.75 7.25H19.25ZM16 4C16.4142 4 16.75 4.33579 16.75 4.75V6.25C16.75 6.66421 16.4142 7 16 7C15.5858 7 15.25 6.66421 15.25 6.25V4.75C15.25 4.33579 15.5858 4 16 4Z" fill="black"/>
</svg>
