<svg width="24" height="24" viewBox="0 0 24 24" fill="none" xmlns="http://www.w3.org/2000/svg">
<path d="M15.625 4C17.1478 4 18.2799 4.62283 19.0088 5.59473C19.7155 6.53708 20 7.74615 20 8.89258C20 9.51513 19.8478 10.242 19.6475 10.9434C19.4438 11.6562 19.1745 12.3947 18.9102 13.0557C18.6452 13.718 18.3815 14.3133 18.1836 14.7422C18.0846 14.9567 18.0016 15.1303 17.9434 15.251C17.927 15.2849 17.9118 15.3146 17.8994 15.3398C17.8956 15.3624 17.8917 15.3879 17.8867 15.416C17.8653 15.5365 17.8335 15.7073 17.79 15.9111C17.7036 16.3164 17.5695 16.8644 17.3818 17.4189C17.1974 17.964 16.946 18.5621 16.6064 19.0381C16.2791 19.497 15.753 20 15 20C14.1322 20 13.4996 19.4075 13.0811 18.832C12.6456 18.2333 12.3043 17.4691 12.0449 16.7559C12.0291 16.7124 12.0153 16.6684 12 16.625C11.9847 16.6684 11.9709 16.7124 11.9551 16.7559C11.6957 17.4691 11.3544 18.2333 10.9189 18.832C10.5004 19.4075 9.86778 20 9 20C8.24697 20 7.72093 19.497 7.39355 19.0381C7.05401 18.5621 6.8026 17.964 6.61816 17.4189C6.43054 16.8644 6.29644 16.3164 6.20996 15.9111C6.16648 15.7073 6.13468 15.5365 6.11328 15.416C6.10827 15.3878 6.10346 15.3624 6.09961 15.3398C6.08731 15.3146 6.07292 15.2847 6.05664 15.251C5.99837 15.1303 5.91541 14.9567 5.81641 14.7422C5.61846 14.3133 5.3548 13.718 5.08984 13.0557C4.82546 12.3947 4.55621 11.6562 4.35254 10.9434C4.15218 10.242 4 9.51513 4 8.89258C4.00005 7.74615 4.28454 6.53708 4.99121 5.59473C5.72013 4.62283 6.85222 4 8.375 4C10.0564 4 11.2802 4.42327 12 4.85547C12.7198 4.42327 13.9436 4 15.625 4ZM15.625 5.5C13.6955 5.5 12.6991 6.14755 12.5303 6.31641C12.2374 6.60902 11.7626 6.60902 11.4697 6.31641C11.3009 6.14755 10.3045 5.5 8.375 5.5C7.3085 5.5 6.62766 5.91344 6.19141 6.49512C5.73329 7.10615 5.50005 7.96803 5.5 8.89258C5.5 9.30555 5.60701 9.87347 5.79492 10.5312C5.97964 11.1777 6.22896 11.8644 6.48242 12.498C6.73526 13.1302 6.9883 13.7007 7.17871 14.1133C7.27372 14.3191 7.35323 14.4848 7.4082 14.5986C7.43569 14.6556 7.45629 14.7002 7.4707 14.7295C7.47781 14.7439 7.48376 14.7546 7.4873 14.7617L7.49219 14.7715C7.50978 14.8067 7.5243 14.8435 7.53613 14.8809L7.56348 14.9951V14.9961C7.56367 14.9974 7.56396 14.9998 7.56445 15.0029C7.56545 15.0093 7.56714 15.0198 7.56934 15.0332C7.57377 15.0604 7.58049 15.1016 7.58984 15.1543C7.60868 15.2603 7.63745 15.4134 7.67676 15.5977C7.75602 15.9691 7.87529 16.4573 8.03809 16.9385C8.20407 17.429 8.40074 17.8663 8.61523 18.167C8.84192 18.4847 8.97624 18.5 9 18.5C9.13211 18.5 9.37463 18.4049 9.70605 17.9492C10.0204 17.5169 10.3044 16.9056 10.5449 16.2441C10.7823 15.5914 10.9629 14.9321 11.084 14.4326C11.1442 14.1841 11.1889 13.9775 11.2188 13.834C11.2337 13.7623 11.2447 13.7062 11.252 13.6689C11.2556 13.6503 11.2581 13.6359 11.2598 13.627C11.2605 13.623 11.2614 13.6201 11.2617 13.6182V13.6152C11.3268 13.2589 11.6377 13 12 13C12.3623 13 12.6732 13.2589 12.7383 13.6152V13.6182C12.7386 13.6201 12.7395 13.623 12.7402 13.627C12.7419 13.6359 12.7444 13.6503 12.748 13.6689C12.7553 13.7062 12.7663 13.7623 12.7812 13.834C12.8111 13.9775 12.8558 14.1841 12.916 14.4326C13.0371 14.9321 13.2177 15.5914 13.4551 16.2441C13.6956 16.9056 13.9796 17.5169 14.2939 17.9492C14.6254 18.4049 14.8679 18.5 15 18.5C15.0238 18.5 15.1581 18.4847 15.3848 18.167C15.5993 17.8663 15.7959 17.429 15.9619 16.9385C16.1247 16.4573 16.244 15.9691 16.3232 15.5977C16.3626 15.4134 16.3913 15.2603 16.4102 15.1543C16.4195 15.1016 16.4262 15.0604 16.4307 15.0332C16.4329 15.0198 16.4346 15.0093 16.4355 15.0029C16.436 14.9998 16.4363 14.9974 16.4365 14.9961V14.9951C16.4483 14.9174 16.4727 14.8418 16.5078 14.7715L16.5127 14.7617C16.5162 14.7546 16.5222 14.7439 16.5293 14.7295C16.5437 14.7002 16.5643 14.6556 16.5918 14.5986C16.6468 14.4848 16.7263 14.3191 16.8213 14.1133C17.0117 13.7007 17.2647 13.1302 17.5176 12.498C17.771 11.8644 18.0204 11.1777 18.2051 10.5312C18.393 9.87347 18.5 9.30555 18.5 8.89258C18.5 7.96803 18.2667 7.10615 17.8086 6.49512C17.3723 5.91344 16.6915 5.5 15.625 5.5Z" fill="#141414"/>
</svg>
