<svg width="24" height="24" viewBox="0 0 24 24" fill="none" xmlns="http://www.w3.org/2000/svg">
<path d="M12 4C13.4904 4 14.8638 4.14342 15.8857 4.38672C16.3908 4.50697 16.852 4.66159 17.2051 4.86035C17.4845 5.01763 17.9551 5.35045 17.9951 5.92188C17.9978 5.94758 18 5.97359 18 6V14.7432C18.4521 14.9512 18.8555 15.2117 19.1777 15.4971C19.5775 15.8512 20 16.3789 20 17C20 17.6627 19.569 18.154 19.124 18.4805C18.6636 18.8183 18.0451 19.0915 17.3486 19.3076C15.9467 19.7427 14.0558 20 12 20C9.94422 20 8.05331 19.7427 6.65137 19.3076C5.9549 19.0915 5.33642 18.8183 4.87598 18.4805C4.431 18.154 4 17.6627 4 17C4 16.3789 4.42247 15.8512 4.82227 15.4971C5.14453 15.2117 5.54786 14.9512 6 14.7432V6C6 5.97362 6.00125 5.94755 6.00391 5.92188C6.04392 5.3504 6.51552 5.01763 6.79492 4.86035C7.14801 4.66159 7.60918 4.50697 8.11426 4.38672C9.13624 4.14342 10.5096 4 12 4ZM17.2051 16.1396C16.852 16.3384 16.3908 16.493 15.8857 16.6133C14.8638 16.8566 13.4904 17 12 17C10.5096 17 9.13624 16.8566 8.11426 16.6133C7.60918 16.493 7.14801 16.3384 6.79492 16.1396C6.76268 16.1215 6.72784 16.101 6.69141 16.0781C6.33361 16.235 6.0326 16.4287 5.81641 16.6201C5.57564 16.8334 5.51763 16.9698 5.50391 17.001C5.51549 17.031 5.56415 17.1251 5.76367 17.2715C6.03699 17.4719 6.48043 17.6841 7.0957 17.875C8.31771 18.2542 10.0519 18.5 12 18.5C13.9481 18.5 15.6823 18.2542 16.9043 17.875C17.5196 17.6841 17.963 17.4719 18.2363 17.2715C18.4351 17.1256 18.4833 17.0313 18.4951 17.001C18.4811 16.9692 18.4234 16.8326 18.1836 16.6201C17.9672 16.4285 17.6658 16.2351 17.3076 16.0781C17.2714 16.1009 17.2371 16.1216 17.2051 16.1396ZM7.5 14.8125C7.5093 14.8186 7.5187 14.8265 7.53027 14.833C7.70846 14.9333 8.01618 15.0484 8.46094 15.1543C9.33906 15.3634 10.591 15.5 12 15.5C13.409 15.5 14.6609 15.3634 15.5391 15.1543C15.9838 15.0484 16.2915 14.9333 16.4697 14.833C16.4813 14.8265 16.4908 14.8187 16.5 14.8125V7.43848C16.3062 7.50271 16.1003 7.5622 15.8857 7.61328C14.8638 7.85658 13.4904 8 12 8C10.5096 8 9.13624 7.85658 8.11426 7.61328C7.8997 7.5622 7.69379 7.50271 7.5 7.43848V14.8125ZM12 5.5C10.591 5.5 9.33906 5.63663 8.46094 5.8457C8.25125 5.89564 8.07237 5.94853 7.92285 6C8.07237 6.05147 8.25125 6.10436 8.46094 6.1543C9.33906 6.36337 10.591 6.5 12 6.5C13.409 6.5 14.6609 6.36337 15.5391 6.1543C15.7483 6.10445 15.9268 6.05138 16.0762 6C15.9268 5.94862 15.7483 5.89554 15.5391 5.8457C14.6609 5.63663 13.409 5.5 12 5.5Z" fill="black"/>
</svg>
