<svg width="24" height="24" viewBox="0 0 24 24" fill="none" xmlns="http://www.w3.org/2000/svg">
<path d="M17 4C18.6569 4 20 5.34315 20 7C20 8.23025 19.2588 9.28613 18.1992 9.74902C18.7098 10.7206 19 11.8262 19 13C19 16.866 15.866 20 12 20C8.13401 20 5 16.866 5 13C5 11.8264 5.28937 10.7205 5.7998 9.74902C4.74061 9.28594 4 8.22994 4 7C4 5.34315 5.34315 4 7 4C8.4204 4 9.60728 4.98782 9.91797 6.31348C10.5756 6.10894 11.2751 6 12 6C12.7246 6 13.4237 6.10912 14.0811 6.31348C14.3917 4.98771 15.5795 4 17 4ZM12 7.5C8.96243 7.5 6.5 9.96243 6.5 13C6.5 16.0376 8.96243 18.5 12 18.5C15.0376 18.5 17.5 16.0376 17.5 13C17.5 9.96243 15.0376 7.5 12 7.5ZM13.7354 15.0488C14.0907 14.9142 14.4973 15.0678 14.6709 15.415C14.8442 15.7622 14.7232 16.1794 14.4023 16.3828L14.335 16.4209L14.333 16.4219C14.3318 16.4225 14.3298 16.424 14.3281 16.4248C14.3248 16.4264 14.3205 16.4282 14.3154 16.4307C14.3049 16.4358 14.2903 16.4428 14.2725 16.4512C14.2367 16.4679 14.1864 16.4908 14.124 16.5176C13.9992 16.5711 13.823 16.6417 13.6123 16.7119C13.1999 16.8494 12.6134 17 12 17C11.3866 17 10.8001 16.8494 10.3877 16.7119C10.177 16.6417 10.0008 16.5711 9.87598 16.5176C9.81357 16.4908 9.76335 16.4679 9.72754 16.4512C9.70966 16.4428 9.69514 16.4358 9.68457 16.4307C9.6795 16.4282 9.67517 16.4264 9.67188 16.4248C9.67019 16.424 9.66819 16.4225 9.66699 16.4219H9.66602L9.66504 16.4209C9.29469 16.2357 9.14416 15.7854 9.3291 15.415C9.51428 15.0447 9.96455 14.8942 10.335 15.0791L10.334 15.0781C10.3344 15.0783 10.3358 15.0791 10.3379 15.0801C10.3424 15.0823 10.351 15.0865 10.3623 15.0918C10.385 15.1024 10.4211 15.1187 10.4678 15.1387C10.5617 15.1789 10.6982 15.2334 10.8623 15.2881C11.1999 15.4006 11.6134 15.5 12 15.5C12.3866 15.5 12.8001 15.4006 13.1377 15.2881C13.3018 15.2334 13.4383 15.1789 13.5322 15.1387C13.5789 15.1187 13.615 15.1024 13.6377 15.0918C13.649 15.0865 13.6576 15.0823 13.6621 15.0801C13.6642 15.0791 13.6656 15.0783 13.666 15.0781L13.665 15.0791L13.7354 15.0488ZM9.75 10C10.1642 10 10.5 10.3358 10.5 10.75V13.25C10.5 13.6642 10.1642 14 9.75 14C9.33579 14 9 13.6642 9 13.25V10.75C9 10.3358 9.33579 10 9.75 10ZM14.25 10C14.6642 10 15 10.3358 15 10.75V13.25C15 13.6642 14.6642 14 14.25 14C13.8358 14 13.5 13.6642 13.5 13.25V10.75C13.5 10.3358 13.8358 10 14.25 10ZM7 5.5C6.17157 5.5 5.5 6.17157 5.5 7C5.5 7.7153 6.00087 8.31281 6.6709 8.46289C7.1868 7.85752 7.8038 7.34161 8.49609 6.94043C8.46476 6.13967 7.80844 5.5 7 5.5ZM17 5.5C16.1915 5.5 15.5342 6.13965 15.5029 6.94043C16.1953 7.34156 16.8121 7.85752 17.3281 8.46289C17.9986 8.31316 18.5 7.71563 18.5 7C18.5 6.17157 17.8284 5.5 17 5.5Z" fill="black"/>
</svg>
