<svg width="24" height="24" viewBox="0 0 24 24" fill="none" xmlns="http://www.w3.org/2000/svg">
<path fill-rule="evenodd" clip-rule="evenodd" d="M13.2499 4C14.5085 4 15.5678 4.84604 15.8945 6H19.2499C19.549 6 19.8196 6.17771 19.9384 6.45215C20.0571 6.7268 20.0009 7.04578 19.7958 7.26367L16.2783 11H19.2499C19.549 11 19.8196 11.1777 19.9384 11.4521C20.0571 11.7268 20.0009 12.0458 19.7958 12.2637L15.9999 16.2959V17.25C15.9999 18.7688 14.7687 20 13.2499 20H10.7499C9.23128 19.9999 7.99994 18.7687 7.99994 17.25V16.5342L4.18939 12.248C3.99339 12.0273 3.94448 11.7117 4.06537 11.4424C4.18636 11.1731 4.45476 11.0001 4.74994 11H7.52533L4.18939 7.24805C3.99339 7.02734 3.94448 6.71168 4.06537 6.44238C4.18636 6.17313 4.45476 6.0001 4.74994 6H8.10639C8.43306 4.84618 9.49153 4.00012 10.7499 4H13.2499ZM10.7499 5.5C10.0597 5.50014 9.49994 6.05973 9.49994 6.75V17.25C9.49994 17.9403 10.0597 18.4999 10.7499 18.5H13.2499C13.9403 18.5 14.4999 17.9404 14.4999 17.25V6.75C14.4999 6.05964 13.9403 5.5 13.2499 5.5H10.7499ZM11.9999 15C12.5522 15 12.9999 15.4477 12.9999 16C12.9999 16.5523 12.5522 17 11.9999 17C11.4478 16.9999 10.9999 16.5522 10.9999 16C10.9999 15.4478 11.4478 15.0001 11.9999 15ZM7.99994 14.2773V12.5H6.41986L7.99994 14.2773ZM15.9999 14.1094L17.5146 12.5H15.9999V14.1094ZM11.9999 11C12.5522 11 12.9999 11.4477 12.9999 12C12.9999 12.5523 12.5522 13 11.9999 13C11.4478 12.9999 10.9999 12.5522 10.9999 12C10.9999 11.4478 11.4478 11.0001 11.9999 11ZM7.99994 9.27734V7.5H6.41986L7.99994 9.27734ZM15.9999 9.10938L17.5146 7.5H15.9999V9.10938ZM11.9999 7C12.5522 7 12.9999 7.44772 12.9999 8C12.9999 8.55228 12.5522 9 11.9999 9C11.4478 8.99986 10.9999 8.5522 10.9999 8C10.9999 7.4478 11.4478 7.00014 11.9999 7Z" fill="black"/>
</svg>
