<svg width="24" height="24" viewBox="0 0 24 24" fill="none" xmlns="http://www.w3.org/2000/svg">
<path fill-rule="evenodd" clip-rule="evenodd" d="M15.2438 4C16.5476 4 17.5761 5.02007 17.777 6.29004L18.9635 13.79C19.2157 15.3846 18.1016 17 16.4303 17H15.8053L16.8971 18.8721C17.1058 19.2298 16.9852 19.6887 16.6276 19.8975C16.2699 20.1059 15.8109 19.9855 15.6022 19.6279L14.069 17H9.93033L8.39713 19.6279C8.18832 19.9854 7.72941 20.1061 7.37173 19.8975C7.01437 19.6887 6.89372 19.2297 7.1022 18.8721L8.194 17H7.569C5.89802 16.9998 4.78367 15.3844 5.0358 13.79L6.22232 6.29004C6.4232 5.02018 7.45185 4.0002 8.75552 4H15.2438ZM8.75552 5.5C8.29102 5.50021 7.8059 5.87869 7.70377 6.52441L6.51822 14.0244C6.38355 14.8761 6.98217 15.4997 7.569 15.5H16.4303C17.0173 15.5 17.6158 14.8763 17.4811 14.0244L16.2956 6.52441C16.1934 5.87855 15.7084 5.5 15.2438 5.5H8.75552ZM8.99966 12.25C9.41388 12.25 9.74966 12.5858 9.74966 13V13.0098C9.74966 13.424 9.41388 13.7598 8.99966 13.7598C8.58563 13.7596 8.24966 13.4239 8.24966 13.0098V13C8.24966 12.5859 8.58563 12.2502 8.99966 12.25ZM14.9997 12.25C15.4139 12.25 15.7497 12.5858 15.7497 13V13.0098C15.7497 13.424 15.4139 13.7598 14.9997 13.7598C14.5856 13.7596 14.2497 13.4239 14.2497 13.0098V13C14.2497 12.5859 14.5856 12.2502 14.9997 12.25Z" fill="black"/>
</svg>
