<svg width="24" height="24" viewBox="0 0 24 24" fill="none" xmlns="http://www.w3.org/2000/svg">
<path fill-rule="evenodd" clip-rule="evenodd" d="M19.25 18.5001C19.6642 18.5001 20 18.8359 20 19.2501C20 19.6643 19.6642 20.0001 19.25 20.0001H4.75C4.33579 20.0001 4 19.6643 4 19.2501C4.00001 18.8359 4.33579 18.5001 4.75 18.5001H19.25ZM19.25 6.00007C19.6642 6.00007 20 6.33587 20 6.75007C20 7.16428 19.6642 7.50007 19.25 7.50007H17V9.25007C17 10.7689 15.7688 12.0001 14.25 12.0001H10C9.95323 12.0001 9.90768 11.9946 9.86328 11.9864L8.83105 13.2178C8.46111 13.6593 8.41685 14.2329 8.61914 14.711C8.82075 15.1872 9.23312 15.5 9.74414 15.5001H19.25C19.6642 15.5001 20 15.8359 20 16.2501C20 16.6643 19.6642 17.0001 19.25 17.0001H9.74414C8.5379 17 7.63635 16.2361 7.23828 15.296C6.8411 14.3578 6.9109 13.1748 7.68164 12.255L10.3232 9.10261C11.971 7.1365 14.3449 6.00007 16.8496 6.00007H19.25ZM15.5 7.63777C13.9611 7.95069 12.5411 8.79278 11.4736 10.0665L11.1104 10.5001H14.25C14.9404 10.5001 15.5 9.94043 15.5 9.25007V7.63777ZM5.76953 4.1739C6.08767 3.90879 6.56097 3.95158 6.82617 4.2696C7.06776 4.55951 7.0527 4.97743 6.80762 5.25007H9.25C9.66421 5.25007 9.99999 5.58587 10 6.00007C10 6.41428 9.66421 6.75007 9.25 6.75007H6.80762C7.0527 7.02271 7.06776 7.44062 6.82617 7.73054C6.56097 8.04857 6.08767 8.09136 5.76953 7.82624L4.26953 6.57624C4.09866 6.43375 4 6.22257 4 6.00007C4.00001 5.77758 4.09866 5.56639 4.26953 5.4239L5.76953 4.1739Z" fill="black"/>
</svg>
