<svg width="24" height="24" viewBox="0 0 24 24" fill="none" xmlns="http://www.w3.org/2000/svg">
<g clip-path="url(#clip0_4152_6337)">
<path d="M16.25 6C17.2165 6 18 6.7835 18 7.75V17.5H19.25C19.6642 17.5 20 17.8358 20 18.25C20 18.6642 19.6642 19 19.25 19H14.5C14.4987 19 14.4974 18.999 14.4961 18.999C14.0399 19.6055 13.3173 20 12.5 20C11.683 20 10.9601 19.6061 10.5039 19H8.49609C8.0399 19.6061 7.31703 20 6.5 20C5.11929 20 4 18.8807 4 17.5C4 16.6657 4.41001 15.9287 5.03809 15.4746C5.01563 15.4034 5 15.3287 5 15.25V7.75C5 6.7835 5.7835 6 6.75 6H16.25ZM6.5 16.5C5.94772 16.5 5.5 16.9477 5.5 17.5C5.5 18.0523 5.94772 18.5 6.5 18.5C7.05228 18.5 7.5 18.0523 7.5 17.5C7.5 16.9477 7.05228 16.5 6.5 16.5ZM12.5 16.5C11.9477 16.5 11.5 16.9477 11.5 17.5C11.5 18.0523 11.9477 18.5 12.5 18.5C13.0523 18.5 13.5 18.0523 13.5 17.5C13.5 16.9477 13.0523 16.5 12.5 16.5ZM6.75 7.5C6.61193 7.5 6.5 7.61193 6.5 7.75V15C7.88071 15 9 16.1193 9 17.5H10C10 16.1193 11.1193 15 12.5 15C13.8807 15 15 16.1193 15 17.5H16.5V7.75C16.5 7.61193 16.3881 7.5 16.25 7.5H6.75ZM34.25 15.5C34.6642 15.5 35 15.8358 35 16.25C35 16.6642 34.6642 17 34.25 17H25.75C25.3358 17 25 16.6642 25 16.25C25 15.8358 25.3358 15.5 25.75 15.5H34.25ZM13.25 10.5C13.6642 10.5 14 10.8358 14 11.25C14 11.6642 13.6642 12 13.25 12H8.75C8.33579 12 8 11.6642 8 11.25C8 10.8358 8.33579 10.5 8.75 10.5H13.25Z" fill="#141414"/>
</g>
<defs>
<clipPath id="clip0_4152_6337">
<rect width="24" height="24" fill="white"/>
</clipPath>
</defs>
</svg>
