<svg width="24" height="24" viewBox="0 0 24 24" fill="none" xmlns="http://www.w3.org/2000/svg">
<path fill-rule="evenodd" clip-rule="evenodd" d="M19.25 18.5001C19.6642 18.5001 20 18.8359 20 19.2501C20 19.6643 19.6642 20.0001 19.25 20.0001H4.75C4.33579 20.0001 4 19.6643 4 19.2501C4.00001 18.8359 4.33579 18.5001 4.75 18.5001H19.25ZM7.15039 6.00007C9.65507 6.00007 12.029 7.1365 13.6768 9.10261L16.3184 12.255C17.0891 13.1748 17.1589 14.3578 16.7617 15.296C16.3636 16.2361 15.4621 17 14.2559 17.0001H4.75C4.33579 17.0001 4 16.6643 4 16.2501C4.00001 15.8359 4.33579 15.5001 4.75 15.5001H14.2559C14.7669 15.5 15.1792 15.1872 15.3809 14.711C15.5832 14.2329 15.5389 13.6593 15.1689 13.2178L14.1357 11.9864C14.0916 11.9945 14.0464 12.0001 14 12.0001H9.75C8.23122 12.0001 7 10.7689 7 9.25007V7.50007H4.75C4.33579 7.50007 4 7.16428 4 6.75007C4.00001 6.33587 4.33579 6.00007 4.75 6.00007H7.15039ZM8.5 9.25007C8.5 9.94043 9.05964 10.5001 9.75 10.5001H12.8896L12.5264 10.0665C11.4589 8.79278 10.0389 7.95069 8.5 7.63777V9.25007ZM17.1738 4.2696C17.439 3.95158 17.9123 3.90879 18.2305 4.1739L19.7305 5.4239C19.9013 5.56639 20 5.77758 20 6.00007C20 6.22257 19.9013 6.43375 19.7305 6.57624L18.2305 7.82624C17.9123 8.09136 17.439 8.04857 17.1738 7.73054C16.9322 7.44062 16.9473 7.02271 17.1924 6.75007H14.75C14.3358 6.75007 14 6.41428 14 6.00007C14 5.58587 14.3358 5.25007 14.75 5.25007H17.1924C16.9473 4.97743 16.9322 4.55951 17.1738 4.2696Z" fill="black"/>
</svg>
