<svg width="24" height="24" viewBox="0 0 24 24" fill="none" xmlns="http://www.w3.org/2000/svg">
<path d="M12 5C14.1116 5 16.0599 5.50004 17.5059 6.34766C18.934 7.18486 20 8.45075 20 10V15.25C20 15.6642 19.6642 16 19.25 16C18.8358 16 18.5 15.6642 18.5 15.25V12.9443C18.1987 13.2057 17.8637 13.4426 17.5059 13.6523C16.2329 14.3986 14.5704 14.8742 12.75 14.9775V18.25C12.75 18.6642 12.4142 19 12 19C11.5858 19 11.25 18.6642 11.25 18.25V14.9775C9.42963 14.8742 7.76714 14.3986 6.49414 13.6523C6.13627 13.4426 5.80131 13.2057 5.5 12.9443V15.25C5.5 15.6642 5.16421 16 4.75 16C4.33579 16 4 15.6642 4 15.25V10C4 8.45075 5.06597 7.18486 6.49414 6.34766C7.94008 5.50004 9.88843 5 12 5ZM12 6.5C10.1076 6.5 8.43096 6.9511 7.25293 7.6416C6.05711 8.3426 5.5 9.20204 5.5 10C5.5 10.798 6.05711 11.6574 7.25293 12.3584C8.43096 13.0489 10.1076 13.5 12 13.5C13.8924 13.5 15.569 13.0489 16.7471 12.3584C17.9429 11.6574 18.5 10.798 18.5 10C18.5 9.20204 17.9429 8.3426 16.7471 7.6416C15.569 6.9511 13.8924 6.5 12 6.5Z" fill="black"/>
</svg>
