<svg width="24" height="24" viewBox="0 0 24 24" fill="none" xmlns="http://www.w3.org/2000/svg">
<path d="M12.25 4C13.7688 4 15 5.23122 15 6.75V7H18.25C18.6642 7 19 7.33579 19 7.75C19 8.16421 18.6642 8.5 18.25 8.5H17.9375L17.1562 17.4883C17.0327 18.9094 15.8425 20 14.416 20H8.58398C7.15755 20 5.96734 18.9094 5.84375 17.4883L5.0625 8.5H4.75C4.33579 8.5 4 8.16421 4 7.75C4 7.33579 4.33579 7 4.75 7H8V6.75C8 5.23122 9.23122 4 10.75 4H12.25ZM7.33789 17.3584C7.39409 18.0043 7.93562 18.5 8.58398 18.5H14.416C15.0644 18.5 15.6059 18.0043 15.6621 17.3584L16.4316 8.5H6.56836L7.33789 17.3584ZM9.75 10C10.1642 10 10.5 10.3358 10.5 10.75V16.25C10.5 16.6642 10.1642 17 9.75 17C9.33579 17 9 16.6642 9 16.25V10.75C9 10.3358 9.33579 10 9.75 10ZM13.25 10C13.6642 10 14 10.3358 14 10.75V16.25C14 16.6642 13.6642 17 13.25 17C12.8358 17 12.5 16.6642 12.5 16.25V10.75C12.5 10.3358 12.8358 10 13.25 10ZM10.75 5.5C10.0596 5.5 9.5 6.05964 9.5 6.75V7H13.5V6.75C13.5 6.05964 12.9404 5.5 12.25 5.5H10.75Z" fill="black"/>
</svg>
