<svg width="24" height="24" viewBox="0 0 24 24" fill="none" xmlns="http://www.w3.org/2000/svg">
<path d="M12.25 4C13.7688 4 15 5.23122 15 6.75V7H19C19.4142 7 19.75 7.33579 19.75 7.75C19.75 8.16421 19.4142 8.5 19 8.5H17.9375L17.1562 17.4883C17.0327 18.9094 15.8425 20 14.416 20H9.58398C8.15755 20 6.96734 18.9094 6.84375 17.4883L6.0625 8.5H5C4.58579 8.5 4.25 8.16421 4.25 7.75C4.25 7.33579 4.58579 7 5 7H9V6.75C9 5.23122 10.2312 4 11.75 4H12.25ZM7.56836 8.5L8.33789 17.3584C8.39409 18.0043 8.93562 18.5 9.58398 18.5H14.416C15.0644 18.5 15.6059 18.0043 15.6621 17.3584L16.4316 8.5H7.56836ZM11.75 5.5C11.0596 5.5 10.5 6.05964 10.5 6.75V7H13.5V6.75C13.5 6.05964 12.9404 5.5 12.25 5.5H11.75Z" fill="black"/>
</svg>
