<svg width="24" height="24" viewBox="0 0 24 24" fill="none" xmlns="http://www.w3.org/2000/svg">
<path d="M11.9999 4C14.0432 4 15.9178 4.19896 17.3026 4.5332C17.9888 4.69885 18.597 4.9076 19.0516 5.16699C19.4484 5.39343 19.9999 5.81652 19.9999 6.5C19.9999 6.55202 19.9952 6.60234 19.9891 6.65137C19.9985 6.72185 20.0019 6.79433 19.9901 6.86816L18.5292 16C18.1605 18.3043 16.1724 20 13.8387 20H10.161C7.8274 19.9999 5.83927 18.3043 5.47058 16L4.00964 6.86816C3.99781 6.79405 4.00016 6.72112 4.00964 6.65039C4.00365 6.60171 3.99988 6.55163 3.99988 6.5C3.99988 5.81657 4.55134 5.39345 4.94812 5.16699C5.40279 4.9076 6.01092 4.69886 6.69714 4.5332C8.08192 4.19895 9.95658 4.00001 11.9999 4ZM6.95203 15.7637C7.2044 17.3402 8.56444 18.4999 10.161 18.5H13.8387C15.4354 18.5 16.7953 17.3402 17.0477 15.7637L18.2606 8.18652C17.9669 8.29132 17.6444 8.3843 17.3026 8.4668C15.9178 8.80104 14.0432 9 11.9999 9C9.95658 8.99999 8.08192 8.80105 6.69714 8.4668C6.35489 8.38418 6.03219 8.29054 5.73816 8.18555L6.95203 15.7637ZM11.9999 5.5C10.0394 5.50001 8.28882 5.69216 7.04968 5.99121C6.42437 6.14215 5.97026 6.31055 5.69128 6.46973C5.67357 6.47984 5.6576 6.49075 5.64246 6.5C5.6576 6.50925 5.67357 6.52016 5.69128 6.53027C5.97026 6.68945 6.42437 6.85785 7.04968 7.00879C8.28882 7.30784 10.0394 7.49999 11.9999 7.5C13.9603 7.5 15.7109 7.30783 16.9501 7.00879C17.5754 6.85785 18.0295 6.68944 18.3085 6.53027C18.3259 6.52032 18.3414 6.50912 18.3563 6.5C18.3414 6.49088 18.3259 6.47968 18.3085 6.46973C18.0295 6.31056 17.5754 6.14215 16.9501 5.99121C15.7109 5.69217 13.9603 5.5 11.9999 5.5Z" fill="black"/>
</svg>
