<svg width="24" height="24" viewBox="0 0 24 24" fill="none" xmlns="http://www.w3.org/2000/svg">
<path d="M12 4C15.3137 4 18 6.68629 18 10C18 13.0596 15.7096 15.582 12.75 15.9512V19.25C12.75 19.6642 12.4142 20 12 20C11.5858 20 11.25 19.6642 11.25 19.25V15.9512C8.29041 15.582 6 13.0596 6 10C6 6.68629 8.68629 4 12 4ZM12 5.5C9.51472 5.5 7.5 7.51472 7.5 10C7.5 12.2297 9.12182 14.0794 11.25 14.4365V11.3154L10.2266 10.3164C9.93015 10.0271 9.92362 9.55229 10.2129 9.25586C10.5021 8.95952 10.977 8.95411 11.2734 9.24316L11.9932 9.94531L12.7197 9.21973C13.0126 8.92697 13.4874 8.92698 13.7803 9.21973C14.0731 9.51259 14.073 9.98739 13.7803 10.2803L12.75 11.3105V14.4365C14.8782 14.0794 16.5 12.2297 16.5 10C16.5 7.51472 14.4853 5.5 12 5.5Z" fill="black"/>
</svg>
