<svg width="24" height="24" viewBox="0 0 24 24" fill="none" xmlns="http://www.w3.org/2000/svg">
<path d="M15 4C17.7614 4 20 6.23858 20 9C20 11.5065 18.1556 13.5814 15.75 13.9434V18.5H19.25C19.6642 18.5 20 18.8358 20 19.25C20 19.6642 19.6642 20 19.25 20H4.75C4.33579 20 4 19.6642 4 19.25C4 18.8358 4.33579 18.5 4.75 18.5H6.25V15.9014C4.95658 15.568 4 14.3975 4 13C4 11.3431 5.34315 10 7 10C8.65685 10 10 11.3431 10 13C10 14.3975 9.04342 15.568 7.75 15.9014V18.5H14.25V13.9434C11.8444 13.5814 10 11.5065 10 9C10 6.23858 12.2386 4 15 4ZM7 11.5C6.17157 11.5 5.5 12.1716 5.5 13C5.5 13.5549 5.802 14.0384 6.25 14.2979V13.75C6.25 13.3358 6.58579 13 7 13C7.41421 13 7.75 13.3358 7.75 13.75V14.2979C8.198 14.0384 8.5 13.5549 8.5 13C8.5 12.1716 7.82843 11.5 7 11.5ZM15 5.5C13.067 5.5 11.5 7.067 11.5 9C11.5 10.6754 12.6776 12.0745 14.25 12.418V9.75C14.25 9.33579 14.5858 9 15 9C15.4142 9 15.75 9.33579 15.75 9.75V12.418C17.3224 12.0745 18.5 10.6754 18.5 9C18.5 7.067 16.933 5.5 15 5.5Z" fill="black"/>
</svg>
