<svg width="24" height="24" viewBox="0 0 24 24" fill="none" xmlns="http://www.w3.org/2000/svg">
<path fill-rule="evenodd" clip-rule="evenodd" d="M12.0002 4C12.6401 4.00003 13.3312 4.30852 13.6975 4.98242L18.7854 14.3457C19.4931 15.6484 18.4106 16.9997 17.0881 17H12.7502V20H11.2502V17H6.91231C5.58975 16.9997 4.50726 15.6484 5.21504 14.3457L10.3029 4.98242C10.6692 4.30851 11.3602 4 12.0002 4ZM12.0002 5.5C11.8158 5.5 11.682 5.58492 11.6203 5.69824L6.5334 15.0615C6.4844 15.1517 6.49088 15.2401 6.54805 15.3252C6.60854 15.4151 6.73066 15.4999 6.91231 15.5H11.2502V13.3154L10.2268 12.3164L9.68965 11.793L10.7375 10.7197L11.2736 11.2432L11.9934 11.9453L12.7199 11.2197L13.2502 10.6895L14.3107 11.75L12.7502 13.3105V15.5H17.0881C17.2697 15.4998 17.3919 15.4151 17.4523 15.3252C17.5095 15.2401 17.516 15.1517 17.467 15.0615L12.3801 5.69824C12.3184 5.58492 12.1846 5.50003 12.0002 5.5Z" fill="black"/>
</svg>
