<svg width="24" height="24" viewBox="0 0 24 24" fill="none" xmlns="http://www.w3.org/2000/svg">
<path d="M6.25 4C7.2165 4 8 4.7835 8 5.75V18.25C8 19.2165 7.2165 20 6.25 20H5.75C4.7835 20 4 19.2165 4 18.25V5.75C4 4.7835 4.7835 4 5.75 4H6.25ZM12.25 11C13.2165 11 14 11.7835 14 12.75V18.25C14 19.2165 13.2165 20 12.25 20H11.75C10.7835 20 10 19.2165 10 18.25V12.75C10 11.7835 10.7835 11 11.75 11H12.25ZM18.25 14C19.2165 14 20 14.7835 20 15.75V18.25C20 19.2165 19.2165 20 18.25 20H17.75C16.7835 20 16 19.2165 16 18.25V15.75C16 14.7835 16.7835 14 17.75 14H18.25ZM5.75 5.5C5.61193 5.5 5.5 5.61193 5.5 5.75V18.25C5.5 18.3881 5.61193 18.5 5.75 18.5H6.25C6.38807 18.5 6.5 18.3881 6.5 18.25V5.75C6.5 5.61193 6.38807 5.5 6.25 5.5H5.75ZM11.75 12.5C11.6119 12.5 11.5 12.6119 11.5 12.75V18.25C11.5 18.3881 11.6119 18.5 11.75 18.5H12.25C12.3881 18.5 12.5 18.3881 12.5 18.25V12.75C12.5 12.6119 12.3881 12.5 12.25 12.5H11.75ZM17.75 15.5C17.6119 15.5 17.5 15.6119 17.5 15.75V18.25C17.5 18.3881 17.6119 18.5 17.75 18.5H18.25C18.3881 18.5 18.5 18.3881 18.5 18.25V15.75C18.5 15.6119 18.3881 15.5 18.25 15.5H17.75ZM13.2197 4.21973C13.5126 3.92683 13.9874 3.92683 14.2803 4.21973L18.5 8.43945V6.75C18.5 6.33579 18.8358 6 19.25 6C19.6642 6 20 6.33579 20 6.75V10.25C20 10.295 19.9949 10.339 19.9873 10.3818C19.9779 10.4345 19.963 10.4861 19.9424 10.5361C19.9303 10.5653 19.9139 10.592 19.8984 10.6191C19.866 10.6761 19.8289 10.7317 19.7803 10.7803C19.7317 10.8289 19.6761 10.866 19.6191 10.8984C19.592 10.9139 19.5653 10.9303 19.5361 10.9424C19.5041 10.9556 19.4708 10.9641 19.4375 10.9727C19.4244 10.9761 19.4118 10.9817 19.3984 10.9844C19.3929 10.9855 19.3874 10.9863 19.3818 10.9873C19.339 10.9949 19.295 11 19.25 11H15.75C15.3358 11 15 10.6642 15 10.25C15 9.83579 15.3358 9.5 15.75 9.5H17.4395L13.2197 5.28027C12.9268 4.98738 12.9268 4.51262 13.2197 4.21973Z" fill="black"/>
</svg>
