<svg width="24" height="24" viewBox="0 0 24 24" fill="none" xmlns="http://www.w3.org/2000/svg">
<path d="M6.25 14C7.2165 14 8 14.7835 8 15.75V18.25C8 19.2165 7.2165 20 6.25 20H5.75C4.7835 20 4 19.2165 4 18.25V15.75C4 14.7835 4.7835 14 5.75 14H6.25ZM12.25 11C13.2165 11 14 11.7835 14 12.75V18.25C14 19.2165 13.2165 20 12.25 20H11.75C10.7835 20 10 19.2165 10 18.25V12.75C10 11.7835 10.7835 11 11.75 11H12.25ZM18.25 4C19.2165 4 20 4.7835 20 5.75V18.25C20 19.2165 19.2165 20 18.25 20H17.75C16.7835 20 16 19.2165 16 18.25V5.75C16 4.7835 16.7835 4 17.75 4H18.25ZM5.75 15.5C5.61193 15.5 5.5 15.6119 5.5 15.75V18.25C5.5 18.3881 5.61193 18.5 5.75 18.5H6.25C6.38807 18.5 6.5 18.3881 6.5 18.25V15.75C6.5 15.6119 6.38807 15.5 6.25 15.5H5.75ZM11.75 12.5C11.6119 12.5 11.5 12.6119 11.5 12.75V18.25C11.5 18.3881 11.6119 18.5 11.75 18.5H12.25C12.3881 18.5 12.5 18.3881 12.5 18.25V12.75C12.5 12.6119 12.3881 12.5 12.25 12.5H11.75ZM17.75 5.5C17.6119 5.5 17.5 5.61193 17.5 5.75V18.25C17.5 18.3881 17.6119 18.5 17.75 18.5H18.25C18.3881 18.5 18.5 18.3881 18.5 18.25V5.75C18.5 5.61193 18.3881 5.5 18.25 5.5H17.75ZM11.25 4C11.6642 4 12 4.33579 12 4.75V8.25C12 8.66421 11.6642 9 11.25 9C10.8358 9 10.5 8.66421 10.5 8.25V6.56055L5.28027 11.7803C4.98738 12.0732 4.51262 12.0732 4.21973 11.7803C3.92683 11.4874 3.92683 11.0126 4.21973 10.7197L9.43945 5.5H7.75C7.33579 5.5 7 5.16421 7 4.75C7 4.33579 7.33579 4 7.75 4H11.25Z" fill="black"/>
</svg>
