<svg width="24" height="24" viewBox="0 0 24 24" fill="none" xmlns="http://www.w3.org/2000/svg">
<path fill-rule="evenodd" clip-rule="evenodd" d="M18.7196 4.21968C18.9339 4.0053 19.2568 3.94078 19.5369 4.05659C19.8171 4.17263 19.9997 4.44674 19.9998 4.74995V19.25C19.9998 19.6642 19.664 20 19.2498 20H4.74983C4.44661 19.9998 4.17251 19.8172 4.05647 19.5371C3.94065 19.2569 4.00518 18.9341 4.21956 18.7197L18.7196 4.21968ZM17.5604 7.49995L17.7801 7.71968C18.073 8.01257 18.073 8.48733 17.7801 8.78022C17.4872 9.07312 17.0124 9.07312 16.7196 8.78022L16.4998 8.5605L15.5604 9.49995L16.7801 10.7197C17.073 11.0126 17.073 11.4873 16.7801 11.7802C16.4872 12.0731 16.0124 12.0731 15.7196 11.7802L14.4998 10.5605L13.0604 12L13.7801 12.7197C14.073 13.0126 14.073 13.4873 13.7801 13.7802C13.4872 14.0731 13.0124 14.0731 12.7196 13.7802L11.9998 13.0605L10.5604 14.5L11.7801 15.7197C12.073 16.0126 12.073 16.4873 11.7801 16.7802C11.4872 17.0731 11.0124 17.0731 10.7196 16.7802L9.49983 15.5605L8.56038 16.5L8.7801 16.7197C9.073 17.0126 9.073 17.4873 8.7801 17.7802C8.48721 18.0731 8.01245 18.0731 7.71956 17.7802L7.49983 17.5605L6.56038 18.5H18.4998V6.5605L17.5604 7.49995Z" fill="black"/>
</svg>
