<svg width="24" height="24" viewBox="0 0 24 24" fill="none" xmlns="http://www.w3.org/2000/svg">
<g clip-path="url(#clip0_4152_6411)">
<path fill-rule="evenodd" clip-rule="evenodd" d="M15.0483 8.84668C15.1875 8.45663 15.6163 8.25352 16.0063 8.39258C18.2255 9.18453 19.8636 11.2525 19.9848 13.7549C20.1448 17.0645 17.5914 19.8779 14.2817 20.0381C12.8017 20.1097 11.4189 19.6377 10.3305 18.7988C10.0027 18.546 9.94216 18.0751 10.1948 17.7471C10.4477 17.4192 10.9185 17.3585 11.2465 17.6113C12.0634 18.2408 13.0985 18.5938 14.2094 18.54C16.6914 18.4198 18.6065 16.3101 18.4868 13.8281C18.3961 11.9533 17.1694 10.3996 15.5024 9.80469C15.1126 9.66544 14.9094 9.23662 15.0483 8.84668ZM34.2505 15.5C34.6645 15.5002 35.0005 15.8359 35.0005 16.25C35.0005 16.6641 34.6645 16.9998 34.2505 17H25.7505C25.3362 17 25.0005 16.6642 25.0005 16.25C25.0005 15.8358 25.3362 15.5 25.7505 15.5H34.2505ZM10.0005 4C10.2733 4.00014 10.5247 4.14889 10.6567 4.3877L15.9067 13.8877C16.0348 14.1199 16.0306 14.4024 15.896 14.6309C15.7612 14.8593 15.5157 14.9999 15.2505 15H4.75046C4.4851 15 4.23984 14.8594 4.10495 14.6309C3.97013 14.4023 3.96597 14.12 4.09421 13.8877L9.34421 4.3877L9.39889 4.30176C9.53922 4.1135 9.76174 4 10.0005 4ZM6.02096 13.5H13.9799L10.0005 6.2998L6.02096 13.5Z" fill="black"/>
</g>
<defs>
<clipPath id="clip0_4152_6411">
<rect width="24" height="24" fill="white"/>
</clipPath>
</defs>
</svg>
