<svg width="24" height="24" viewBox="0 0 24 24" fill="none" xmlns="http://www.w3.org/2000/svg">
<path d="M5.75 6C7.26878 6 8.5 7.23122 8.5 8.75V16.0654C9.20233 16.2464 9.75357 16.7977 9.93457 17.5H19.25C19.6642 17.5 20 17.8358 20 18.25C20 18.6642 19.6642 19 19.25 19H9.75C9.74346 19 9.73697 18.9992 9.73047 18.999C9.38464 19.5968 8.74023 20 8 20C6.89543 20 6 19.1046 6 18C6 17.2601 6.40267 16.6155 7 16.2695V8.75C7 8.05964 6.44036 7.5 5.75 7.5H4V6H5.75ZM8 17.5C7.72386 17.5 7.5 17.7239 7.5 18C7.5 18.2761 7.72386 18.5 8 18.5C8.27614 18.5 8.5 18.2761 8.5 18C8.5 17.7239 8.27614 17.5 8 17.5ZM18.25 8C19.2165 8 20 8.7835 20 9.75V14.25C20 15.2165 19.2165 16 18.25 16H13.75C12.7835 16 12 15.2165 12 14.25V9.75C12 8.7835 12.7835 8 13.75 8H18.25ZM13.75 9.5C13.6119 9.5 13.5 9.61193 13.5 9.75V14.25C13.5 14.3881 13.6119 14.5 13.75 14.5H18.25C18.3881 14.5 18.5 14.3881 18.5 14.25V9.75C18.5 9.61193 18.3881 9.5 18.25 9.5H13.75ZM16.25 11.5C16.6642 11.5 17 11.8358 17 12.25C17 12.6642 16.6642 13 16.25 13H15.75C15.3358 13 15 12.6642 15 12.25C15 11.8358 15.3358 11.5 15.75 11.5H16.25Z" fill="black"/>
</svg>
