<svg width="24" height="24" viewBox="0 0 24 24" fill="none" xmlns="http://www.w3.org/2000/svg">
<path fill-rule="evenodd" clip-rule="evenodd" d="M15.3635 4C16.2488 4 16.9946 4.66117 17.1008 5.54004L18.7443 19.1602C18.77 19.373 18.7038 19.5866 18.5617 19.7471C18.4194 19.9076 18.2148 20 18.0002 20H14.0002C13.6455 20 13.3389 19.7514 13.2658 19.4043L12.0002 13.3926L10.7346 19.4043C10.6615 19.7514 10.3549 20 10.0002 20H5.75019C5.5335 20 5.32719 19.9065 5.18476 19.7432C5.04233 19.5797 4.97741 19.3622 5.00703 19.1475L6.88789 5.51074C7.00735 4.64504 7.74741 4.00022 8.62128 4H15.3635ZM6.61054 18.5H9.39082L11.2658 9.5957L11.3039 9.4707C11.4162 9.19038 11.6897 9 12.0002 9C12.3549 9 12.6615 9.24865 12.7346 9.5957L14.6096 18.5H17.1545L15.8869 8H8.05878L6.61054 18.5ZM8.62128 5.5C8.49662 5.50022 8.39127 5.59229 8.37421 5.71582L8.26582 6.5H15.7053L15.6115 5.71973C15.5962 5.59433 15.4898 5.5 15.3635 5.5H8.62128Z" fill="black"/>
</svg>
