<svg width="24" height="24" viewBox="0 0 24 24" fill="none" xmlns="http://www.w3.org/2000/svg">
<path d="M15.25 4C15.6642 4 16 4.33579 16 4.75V8H16.25C18.3211 8 20 9.67893 20 11.75V15.25C20 15.6642 19.6642 16 19.25 16H18.4961C18.8108 16.4182 19 16.9363 19 17.5C19 18.8807 17.8807 20 16.5 20C15.1193 20 14 18.8807 14 17.5C14 16.9363 14.1892 16.4182 14.5039 16H9.49609C9.81083 16.4182 10 16.9363 10 17.5C10 18.8807 8.88071 20 7.5 20C6.11929 20 5 18.8807 5 17.5C5 16.9363 5.18917 16.4182 5.50391 16H4.75C4.33579 16 4 15.6642 4 15.25V4.75C4 4.33579 4.33579 4 4.75 4H15.25ZM7.5 16.5C6.94772 16.5 6.5 16.9477 6.5 17.5C6.5 18.0523 6.94772 18.5 7.5 18.5C8.05228 18.5 8.5 18.0523 8.5 17.5C8.5 16.9477 8.05228 16.5 7.5 16.5ZM16.5 16.5C15.9477 16.5 15.5 16.9477 15.5 17.5C15.5 18.0523 15.9477 18.5 16.5 18.5C17.0523 18.5 17.5 18.0523 17.5 17.5C17.5 16.9477 17.0523 16.5 16.5 16.5ZM5.5 14.5H14.5V5.5H5.5V14.5ZM16 14.5H18.5V11.75C18.5 10.5074 17.4926 9.5 16.25 9.5H16V14.5Z" fill="black"/>
</svg>
