<svg width="24" height="24" viewBox="0 0 24 24" fill="none" xmlns="http://www.w3.org/2000/svg">
<path d="M15.165 5C16.0106 5 16.7352 5.60467 16.8867 6.43652L17.6865 10.833L19.3242 12.1074C19.7505 12.439 20 12.9492 20 13.4893V16.25C20 16.9061 19.578 17.4614 18.9912 17.665C18.9061 18.9687 17.8252 20 16.5 20C15.2905 20 14.2814 19.1411 14.0498 18H9.9502C9.71858 19.1411 8.70949 20 7.5 20C6.20367 20 5.13814 19.0133 5.0127 17.75H4.75C4.33579 17.75 4 17.4142 4 17V6.75C4 5.7835 4.7835 5 5.75 5H15.165ZM7.5 16.5C6.94772 16.5 6.5 16.9477 6.5 17.5C6.5 18.0523 6.94772 18.5 7.5 18.5C8.05228 18.5 8.5 18.0523 8.5 17.5C8.5 16.9477 8.05228 16.5 7.5 16.5ZM16.5 16.5C15.9477 16.5 15.5 16.9477 15.5 17.5C15.5 18.0523 15.9477 18.5 16.5 18.5C17.0523 18.5 17.5 18.0523 17.5 17.5C17.5 17.3995 17.4857 17.3036 17.459 17.2139C17.3359 16.8003 16.9519 16.5 16.5 16.5ZM5.75 6.5C5.61193 6.5 5.5 6.61193 5.5 6.75V16.0049C5.95596 15.3959 6.68073 15 7.5 15C8.52488 15 9.4041 15.6174 9.79004 16.5H14.21C14.5959 15.6174 15.4751 15 16.5 15C17.3193 15 18.0443 15.3949 18.5 16.0029V13.4893C18.5 13.4121 18.4642 13.3394 18.4033 13.292L16.7422 12H13.75C12.2312 12 11 10.7688 11 9.25V6.5H5.75ZM12.5 9.25C12.5 9.94036 13.0596 10.5 13.75 10.5H16.1006L15.4111 6.70508C15.3894 6.58633 15.2858 6.5 15.165 6.5H12.5V9.25Z" fill="black"/>
</svg>
