<svg width="24" height="24" viewBox="0 0 24 24" fill="none" xmlns="http://www.w3.org/2000/svg">
<path d="M11.9999 8C15.3136 8 17.9999 10.6863 17.9999 14C17.9999 17.3137 15.3136 20 11.9999 20C8.68625 19.9999 5.99988 17.3136 5.99988 14C5.99988 10.6863 8.68625 8.00009 11.9999 8ZM11.9999 9.5C9.51468 9.50009 7.49988 11.5148 7.49988 14C7.49988 16.4852 9.51468 18.4999 11.9999 18.5C14.4852 18.5 16.4999 16.4853 16.4999 14C16.4999 11.5147 14.4852 9.5 11.9999 9.5ZM14.7596 12.75H13.2499V11.25H14.7596V12.75ZM6.82019 7.68262L7.07703 7.91895L7.62878 8.42676L6.61316 9.53027L6.0614 9.02246L5.80457 8.78613L5.25281 8.27832L6.26843 7.1748L6.82019 7.68262ZM20.3104 6.75L17.7499 9.31055L16.6893 8.25L19.2499 5.68945L20.3104 6.75ZM15.4725 4.82422L15.2225 5.53125L14.7802 6.78223L14.5302 7.48926L13.1161 6.98926L13.3661 6.28223L13.8085 5.03125L14.0585 4.32422L15.4725 4.82422ZM10.4423 5.46094L10.7538 6.20703L11.0428 6.89941L9.65808 7.47754L9.36902 6.78516L9.0575 6.03906L8.76843 5.34668L10.1532 4.76855L10.4423 5.46094Z" fill="black"/>
</svg>
