<svg width="24" height="24" viewBox="0 0 24 24" fill="none" xmlns="http://www.w3.org/2000/svg">
<path d="M17.25 4C18.7688 4 20 5.23122 20 6.75V17.25C20 18.7688 18.7688 20 17.25 20H6.75C5.23122 20 4 18.7688 4 17.25V6.75C4 5.23122 5.23122 4 6.75 4H17.25ZM6.75 5.5C6.05964 5.5 5.5 6.05964 5.5 6.75V17.25C5.5 17.9404 6.05964 18.5 6.75 18.5H17.25C17.9404 18.5 18.5 17.9404 18.5 17.25V6.75C18.5 6.05964 17.9404 5.5 17.25 5.5H15V6.80371C16.7932 7.8412 18 9.77934 18 12C18 15.3137 15.3137 18 12 18C8.68629 18 6 15.3137 6 12C6 8.68629 8.68629 6 12 6C12.5179 6 13.0206 6.0651 13.5 6.18848V5.5H6.75ZM12 7.5C9.51472 7.5 7.5 9.51472 7.5 12C7.5 14.4853 9.51472 16.5 12 16.5C14.4853 16.5 16.5 14.4853 16.5 12C16.5 10.6674 15.9204 9.47046 15 8.64648V12.25C15 12.4123 14.947 12.5704 14.8496 12.7002L13.3496 14.7002C13.101 15.0313 12.6311 15.0981 12.2998 14.8496C11.9687 14.601 11.9019 14.1311 12.1504 13.7998L13.5 12V7.75684C13.0308 7.59095 12.526 7.5 12 7.5Z" fill="black"/>
</svg>
