<svg width="24" height="24" viewBox="0 0 24 24" fill="none" xmlns="http://www.w3.org/2000/svg">
<path d="M12.0001 8.00049C15.3138 8.00049 18.0001 10.6868 18.0001 14.0005C18 17.3141 15.3137 20.0005 12.0001 20.0005C8.68652 20.0005 6.00026 17.3141 6.00012 14.0005C6.00012 10.6868 8.68644 8.00052 12.0001 8.00049ZM12.0001 9.50049C9.51486 9.50052 7.50012 11.5152 7.50012 14.0005C7.50026 16.4856 9.51495 18.5005 12.0001 18.5005C14.4853 18.5005 16.5 16.4857 16.5001 14.0005C16.5001 11.5152 14.4854 9.50049 12.0001 9.50049ZM10.7599 12.7505H9.25012V11.2505H10.7599V12.7505ZM6.82043 7.68311L7.07727 7.91943L7.62903 8.42725L6.6134 9.53076L6.06165 9.02295L5.80481 8.78662L5.25305 8.27881L6.26868 7.17529L6.82043 7.68311ZM20.3107 6.75049L17.7501 9.31104L16.6896 8.25049L19.2501 5.68994L20.3107 6.75049ZM15.4728 4.82471L15.2228 5.53174L14.7804 6.78271L14.5304 7.48975L13.1163 6.98975L13.3663 6.28271L13.8087 5.03174L14.0587 4.32471L15.4728 4.82471ZM10.4425 5.46143L10.754 6.20752L11.0431 6.8999L9.65833 7.47803L9.36926 6.78564L9.05774 6.03955L8.76868 5.34717L10.1534 4.76904L10.4425 5.46143Z" fill="black"/>
</svg>
