<svg width="24" height="24" viewBox="0 0 24 24" fill="none" xmlns="http://www.w3.org/2000/svg">
<path d="M18.25 4C19.2165 4 20 4.7835 20 5.75V14C20 14.1989 19.9209 14.3896 19.7803 14.5303L17.5303 16.7803C17.3896 16.9209 17.1989 17 17 17H11.293L8.25879 19.8008C8.03994 20.0028 7.72206 20.0569 7.44922 19.9375C7.17633 19.818 7 19.5479 7 19.25V17H5.75C4.7835 17 4 16.2165 4 15.25V5.75C4 4.7835 4.7835 4 5.75 4H18.25ZM5.75 5.5C5.61193 5.5 5.5 5.61193 5.5 5.75V15.25C5.5 15.3881 5.61193 15.5 5.75 15.5H7.75C8.16421 15.5 8.5 15.8358 8.5 16.25V17.5371L10.4912 15.6992L10.6025 15.6143C10.721 15.5402 10.8585 15.5 11 15.5H16.6895L18.5 13.6895V5.75C18.5 5.61193 18.3881 5.5 18.25 5.5H5.75ZM11.25 9C11.6642 9 12 9.33579 12 9.75V12.25C12 12.6642 11.6642 13 11.25 13C10.8358 13 10.5 12.6642 10.5 12.25V9.75C10.5 9.33579 10.8358 9 11.25 9ZM15.25 9C15.6642 9 16 9.33579 16 9.75V12.25C16 12.6642 15.6642 13 15.25 13C14.8358 13 14.5 12.6642 14.5 12.25V9.75C14.5 9.33579 14.8358 9 15.25 9Z" fill="black"/>
</svg>
