<svg width="24" height="24" viewBox="0 0 24 24" fill="none" xmlns="http://www.w3.org/2000/svg">
<path fill-rule="evenodd" clip-rule="evenodd" d="M12.2217 6.07657C13.6045 4.69769 15.7272 4.65416 17.1573 5.88907C17.6409 5.72382 18.0353 5.56451 18.4942 5.31778L18.627 5.26211C18.9433 5.16363 19.2954 5.28518 19.4805 5.57364C20.0741 6.49941 20.1541 7.37413 19.8243 8.10977C19.5316 8.762 18.9742 9.16944 18.5215 9.38711C18.4659 13.8106 15.2672 19.0004 9.30963 19.0004C9.28291 19.0004 9.25652 18.9983 9.23053 18.9955C7.48848 18.982 5.78864 18.4465 4.32818 17.4525C4.04162 17.2574 3.92615 16.891 4.04889 16.5668C4.1719 16.2428 4.50093 16.0455 4.84479 16.0893C5.04794 16.1152 5.25302 16.1268 5.45904 16.1273C6.13197 16.1279 6.7952 15.9889 7.41412 15.7221C7.14808 15.5653 6.8948 15.3871 6.66607 15.1967C5.96639 14.6141 5.3353 13.8166 5.08404 12.9887C5.02612 12.7975 5.04693 12.5936 5.13775 12.4213C4.43206 11.6999 4.00796 10.6979 4.00787 9.62344V9.5834C4.00789 9.3242 4.14279 9.08528 4.36139 8.94864C3.88884 7.83833 3.91895 6.52063 4.52936 5.40469L4.58014 5.32461C4.70836 5.14744 4.90876 5.03305 5.12994 5.01602C5.38283 4.99665 5.62903 5.10666 5.78326 5.30801C6.47322 6.20865 7.47484 7.08024 8.5899 7.73965C9.40859 8.22372 10.2612 8.57496 11.0665 8.75137C11.1049 7.75362 11.5072 6.7891 12.2217 6.07657ZM16.3995 7.24258C15.6102 6.35222 14.3425 6.2595 13.4532 6.98379L13.2813 7.13907C12.6961 7.72269 12.4361 8.60841 12.6231 9.46329C12.673 9.6918 12.6134 9.93053 12.462 10.1088C12.3105 10.287 12.0842 10.3848 11.8506 10.3725C10.4989 10.3007 9.08348 9.77437 7.82721 9.03165C6.99485 8.53947 6.21012 7.93645 5.53619 7.27676C5.51378 8.09332 5.87743 8.89536 6.54205 9.36661C6.8118 9.55799 6.92467 9.90365 6.81939 10.2172C6.71395 10.5305 6.41544 10.7382 6.08502 10.7279C5.97046 10.7243 5.85629 10.7123 5.74322 10.6977C6.04788 11.3549 6.62164 11.838 7.30182 11.9838C7.63771 12.0559 7.88142 12.3475 7.89361 12.6908C7.90544 13.0338 7.6832 13.3412 7.35357 13.4369C7.26305 13.4632 7.17102 13.4844 7.07916 13.5033C7.23733 13.6901 7.42163 13.8742 7.62604 14.0443C8.19389 14.517 8.77363 14.7669 9.16803 14.7748C9.48088 14.7812 9.75684 14.9815 9.86041 15.2768C9.9638 15.572 9.8732 15.9007 9.63287 16.101C9.00465 16.6244 8.29538 17.0204 7.54205 17.2787C8.11882 17.4235 8.71135 17.4984 9.30865 17.4975C9.31607 17.4975 9.32372 17.4992 9.33111 17.4994C14.2514 17.4871 17.0243 13.1566 17.0245 9.26993C17.0247 8.67617 17.4286 8.23882 17.8428 8.05118L17.9405 8.00235C18.1662 7.88011 18.3635 7.70033 18.4551 7.49649C18.5031 7.38964 18.5429 7.22628 18.4883 6.98575C18.0675 7.16778 17.6585 7.30756 17.1895 7.4584C16.9066 7.54924 16.5968 7.46475 16.3995 7.24258Z" fill="black"/>
</svg>
