<svg width="24" height="24" viewBox="0 0 24 24" fill="none" xmlns="http://www.w3.org/2000/svg">
<path fill-rule="evenodd" clip-rule="evenodd" d="M12.5 4C13.6045 4.00008 14.5 4.89548 14.5 6V10.5H16.25C18.321 10.5001 20 12.179 20 14.25V15.25C20 17.8733 17.8733 19.9999 15.25 20H11.3653C9.02543 19.9999 6.91879 18.5819 6.03813 16.4141L4.05961 11.543C3.9454 11.2617 4.00715 10.9393 4.21781 10.7207L4.40824 10.5439C5.39239 9.72328 6.88009 9.83803 7.72172 10.8467L8.00004 11.1797V8C8.00004 6.89544 8.89548 6.00001 10 6C10.1729 6.00001 10.3401 6.02419 10.5 6.06543V6C10.5 4.89544 11.3955 4.00001 12.5 4ZM12.5 5.5C12.2239 5.50001 12 5.72386 12 6V11.25C12 11.6642 11.6642 11.9999 11.25 12C10.8358 12 10.5 11.6642 10.5 11.25V8C10.5 7.72391 10.2761 7.50008 10 7.5C9.72391 7.50001 9.50004 7.72386 9.50004 8V13.25C9.50004 13.5657 9.30174 13.8475 9.00492 13.9551C8.7082 14.0624 8.376 13.9728 8.17387 13.7305L6.57035 11.8076C6.34414 11.5364 5.98887 11.4424 5.67484 11.5332L7.42777 15.8496C8.0787 17.4519 9.63585 18.4999 11.3653 18.5H15.25C17.0449 18.4999 18.5 17.0449 18.5 15.25V14.25C18.5 13.0074 17.4926 12.0001 16.25 12H13.75C13.3358 12 13 11.6642 13 11.25V6C13 5.72391 12.7761 5.50008 12.5 5.5Z" fill="black"/>
</svg>
