<svg width="24" height="24" viewBox="0 0 24 24" fill="none" xmlns="http://www.w3.org/2000/svg">
<path fill-rule="evenodd" clip-rule="evenodd" d="M12.8143 8.1394C13.1513 7.89896 13.6195 7.97733 13.8602 8.3142C14.1005 8.65094 14.0226 9.11824 13.6864 9.35912H13.6854V9.3601C13.6847 9.36058 13.6836 9.36119 13.6825 9.36205C13.6784 9.36499 13.6716 9.37045 13.662 9.37768C13.6421 9.39246 13.6104 9.41675 13.5692 9.44897C13.4867 9.51348 13.3638 9.61238 13.2108 9.74486C12.904 10.0105 12.4763 10.409 12.0057 10.9333C11.062 11.985 9.96043 13.5247 9.29379 15.491C9.21086 15.7353 9.00769 15.9195 8.75668 15.9792C8.50567 16.0389 8.24151 15.9657 8.05746 15.7849L5.22445 12.9988C4.92922 12.7084 4.92449 12.2336 5.21469 11.9382C5.50504 11.643 5.97988 11.6392 6.27524 11.9294L8.2977 13.9167C9.03941 12.2271 10.0315 10.8875 10.8895 9.93139C11.4083 9.35328 11.8826 8.91124 12.2293 8.61107C12.4028 8.46087 12.5446 8.3451 12.6454 8.26635C12.6956 8.22703 12.7361 8.19675 12.7645 8.17553C12.7786 8.16498 12.7904 8.15714 12.7987 8.15111C12.8028 8.14812 12.8059 8.14517 12.8084 8.1433C12.8095 8.14254 12.8106 8.14192 12.8114 8.14135L12.8133 8.14037V8.1394H12.8143ZM17.8905 8.09154C18.2539 7.89316 18.7095 8.027 18.908 8.39037C19.0941 8.73118 18.9882 9.15295 18.6746 9.36791L18.6092 9.40795C18.6082 9.40851 18.6061 9.40936 18.6034 9.41088C18.5975 9.41417 18.5875 9.4198 18.5741 9.42748C18.5471 9.4429 18.5055 9.46697 18.451 9.49975C18.3418 9.56551 18.1812 9.66673 17.9823 9.80053C17.5838 10.0686 17.0358 10.4684 16.4461 10.9929C15.2585 12.0494 13.9445 13.5716 13.2938 15.491C13.2109 15.7353 13.0077 15.9195 12.7567 15.9792C12.5057 16.0389 12.2415 15.9657 12.0575 15.7849L10.9559 14.7009C10.6606 14.4105 10.6558 13.9357 10.9461 13.6404C11.2364 13.3452 11.7113 13.3415 12.0067 13.6316L12.3123 13.9314C13.137 12.1942 14.3715 10.8314 15.4491 9.87279C16.0988 9.2948 16.7027 8.85318 17.1454 8.55541C17.3667 8.4065 17.5489 8.29303 17.6776 8.21557C17.7419 8.17682 17.7929 8.14634 17.8289 8.12572C17.8469 8.11544 17.8617 8.10802 17.8719 8.10229C17.8767 8.09959 17.8806 8.09713 17.8836 8.09545C17.8851 8.09462 17.8865 8.09307 17.8875 8.09252H17.8895V8.09154C17.8898 8.09152 17.8948 8.09975 18.2498 8.74975L17.8905 8.09154Z" fill="black"/>
</svg>
