<svg width="24" height="24" viewBox="0 0 24 24" fill="none" xmlns="http://www.w3.org/2000/svg">
<path fill-rule="evenodd" clip-rule="evenodd" d="M5.25727 9.89734C6.01132 9.18162 6.93294 8.90086 7.83344 9.03112C8.44365 9.11957 9.01328 9.39113 9.49653 9.79675C9.97811 9.39229 10.5454 9.12219 11.1547 9.03503C12.0526 8.90679 12.9687 9.18845 13.7289 9.8905C15.2306 11.2774 15.3946 13.6002 14.2582 15.2255C14.2384 15.2538 14.2163 15.2812 14.1928 15.3065L10.0463 19.7606C9.90462 19.9129 9.70547 19.9997 9.4975 19.9999C9.28932 19.9999 9.08957 19.913 8.9477 19.7606L4.80219 15.3065C4.77852 15.2811 4.75668 15.2539 4.73676 15.2255C3.59435 13.592 3.79236 11.2882 5.25727 9.89734ZM7.6186 10.5155C7.19261 10.4539 6.72616 10.5718 6.29047 10.9852C5.3854 11.8445 5.24317 13.2953 5.94379 14.3319L9.49653 18.1493L13.0493 14.3319C13.756 13.2872 13.6205 11.8318 12.7114 10.9921C12.2618 10.577 11.7909 10.4591 11.3676 10.5194C10.9296 10.582 10.4659 10.8483 10.0913 11.3348C9.94942 11.5189 9.72988 11.6266 9.4975 11.6268C9.26483 11.6268 9.04476 11.5192 8.90278 11.3348C8.52875 10.849 8.06054 10.5797 7.6186 10.5155ZM16.267 4.01843C16.5307 4.05663 16.7772 4.15186 16.9985 4.28796C17.2189 4.15256 17.4646 4.05808 17.728 4.02038C18.2779 3.94188 18.8292 4.11849 19.2709 4.52624C20.1356 5.32487 20.2223 6.64812 19.5776 7.57019C19.5577 7.59855 19.5357 7.62589 19.5122 7.65124L17.5483 9.76062C17.4065 9.91294 17.2066 9.99977 16.9985 9.99987C16.7904 9.99976 16.5914 9.91288 16.4497 9.76062L14.4858 7.65124C14.4621 7.62584 14.4403 7.59861 14.4204 7.57019C13.7697 6.63989 13.8804 5.32937 14.7192 4.53308C15.16 4.1149 15.7159 3.93872 16.267 4.01843ZM16.0522 5.5028C15.9753 5.49173 15.8738 5.50493 15.7514 5.62097C15.4698 5.8883 15.4194 6.35048 15.6352 6.68445L16.9985 8.14831L18.3637 6.68152C18.5828 6.34032 18.5277 5.88224 18.2534 5.62878C18.1223 5.50772 18.0166 5.49506 17.9409 5.50573C17.8506 5.51864 17.7179 5.57937 17.5932 5.74109C17.4513 5.92541 17.2311 6.03394 16.9985 6.03405C16.7659 6.03393 16.5466 5.92537 16.4047 5.74109C16.2806 5.57985 16.1452 5.51637 16.0522 5.5028Z" fill="black"/>
</svg>
