<svg width="24" height="24" viewBox="0 0 24 24" fill="none" xmlns="http://www.w3.org/2000/svg">
<path fill-rule="evenodd" clip-rule="evenodd" d="M8.24956 15.0004C8.66378 15.0004 8.99956 15.3362 8.99956 15.7504C8.99931 16.1644 8.66362 16.5004 8.24956 16.5004H7.74956C7.0594 16.5006 6.49956 17.0602 6.49956 17.7504V17.7924L7.48589 17.4233C7.87363 17.2779 8.30615 17.4741 8.45171 17.8617C8.59691 18.2494 8.40077 18.682 8.01324 18.8276L5.01324 19.9526C4.62573 20.0976 4.19301 19.9014 4.04742 19.5141C3.90208 19.1265 4.09861 18.694 4.48589 18.5483L4.99956 18.3549V17.7504C4.99956 16.2318 6.23097 15.0006 7.74956 15.0004H8.24956ZM11.9996 14.7504C12.6898 14.7504 13.2496 15.31 13.2496 16.0004C13.2493 16.6905 12.6897 17.2504 11.9996 17.2504C11.3096 17.2502 10.7498 16.6904 10.7496 16.0004C10.7496 15.3102 11.3095 14.7506 11.9996 14.7504ZM11.9996 15.7504C11.8616 15.7506 11.7496 15.8624 11.7496 16.0004C11.7498 16.1382 11.8618 16.2502 11.9996 16.2504C12.1375 16.2504 12.2493 16.1383 12.2496 16.0004C12.2496 15.8623 12.1377 15.7504 11.9996 15.7504ZM13.7496 4.25041C16.7097 4.25041 18.2767 6.42622 19.0679 8.3383C19.4693 9.30832 19.6996 10.2697 19.8306 10.9819C19.8964 11.3395 19.9384 11.6393 19.9634 11.851C19.9759 11.9565 19.9844 12.041 19.9898 12.1C19.9925 12.1292 19.9943 12.1529 19.9957 12.1694C19.9963 12.1775 19.9963 12.1851 19.9966 12.1899C19.9969 12.192 19.9975 12.1943 19.9976 12.1957V12.1987L19.9996 12.2768C19.9931 12.4565 19.9213 12.6294 19.7974 12.7621C19.6556 12.9137 19.4571 13.0004 19.2496 13.0004H15.7496C14.2311 13.0002 12.9998 11.7688 12.9996 10.2504V9.75041C12.9996 9.33633 13.3355 9.00063 13.7496 9.00041C14.1638 9.00041 14.4996 9.3362 14.4996 9.75041V10.2504C14.4998 10.9404 15.0596 11.5002 15.7496 11.5004H18.397C18.3842 11.4226 18.3719 11.3396 18.356 11.2533C18.237 10.6063 18.0296 9.75471 17.6812 8.91252C16.9724 7.19964 15.7893 5.75041 13.7496 5.75041C13.3357 5.75019 12.9998 5.41427 12.9996 5.00041C12.9996 4.58633 13.3355 4.25063 13.7496 4.25041ZM4.09234 4.38811C4.29225 4.02545 4.74914 3.8934 5.11187 4.09318L4.74956 4.75041C5.07778 4.15476 5.1095 4.09908 5.11285 4.09416H5.11382L5.11578 4.09611C5.11734 4.09699 5.11971 4.09797 5.12163 4.09904C5.12546 4.10121 5.1302 4.10389 5.13531 4.10686C5.1459 4.11302 5.15952 4.12155 5.17535 4.13127C5.20715 4.15082 5.24952 4.17749 5.30035 4.21232C5.40244 4.28232 5.53988 4.38497 5.70269 4.52482C6.02892 4.8051 6.45501 5.23562 6.8941 5.85881C7.77538 7.10974 8.69206 9.10979 8.99566 12.1762C9.0362 12.5881 8.73565 12.9555 8.32378 12.9965C7.91203 13.037 7.54465 12.7363 7.50347 12.3246C7.22374 9.49877 6.39029 7.74794 5.66753 6.72209C5.30478 6.20731 4.96492 5.86771 4.72613 5.66252C4.60655 5.55979 4.51134 5.49051 4.45171 5.44963C4.42205 5.4293 4.40132 5.41545 4.39019 5.40861L4.38824 5.40666C4.02572 5.20683 3.89288 4.75077 4.09234 4.38811Z" fill="black"/>
</svg>
