<svg width="24" height="24" viewBox="0 0 24 24" fill="none" xmlns="http://www.w3.org/2000/svg">
<path d="M8.09863 15.3779C8.30412 15.0183 8.76245 14.8932 9.12207 15.0986C9.48167 15.3041 9.60679 15.7624 9.40137 16.1221L7.40137 19.6221C7.19588 19.9817 6.73755 20.1068 6.37793 19.9014C6.01833 19.6959 5.89321 19.2376 6.09863 18.8779L8.09863 15.3779ZM14.8779 15.0986C15.2376 14.8932 15.6959 15.0183 15.9014 15.3779L17.9014 18.8779C18.1068 19.2376 17.9817 19.6959 17.6221 19.9014C17.2624 20.1068 16.8041 19.9817 16.5986 19.6221L14.5986 16.1221C14.3932 15.7624 14.5183 15.3041 14.8779 15.0986ZM12 4C14.5958 4 16.8199 5.78361 16.9883 8.42676C18.184 9.0535 19 10.3063 19 11.75V12.25C19 12.6642 18.6642 13 18.25 13H5.75C5.33579 13 5 12.6642 5 12.25V11.75C5 10.3066 5.81541 9.05364 7.01074 8.42676C7.17908 5.78357 9.40417 4 12 4ZM8.75 9.5C7.5919 9.5 6.63906 10.3751 6.51465 11.5H17.4854C17.3609 10.3751 16.4081 9.5 15.25 9.5H8.75ZM12 5.5C10.2815 5.5 8.92592 6.52176 8.58398 8.00391C8.63903 8.00151 8.69437 8 8.75 8H15.25C15.3053 8 15.3603 8.00154 15.415 8.00391C15.073 6.52187 13.7185 5.5 12 5.5Z" fill="black"/>
</svg>
