<svg width="24" height="24" viewBox="0 0 24 24" fill="none" xmlns="http://www.w3.org/2000/svg">
<path fill-rule="evenodd" clip-rule="evenodd" d="M13.2196 18.2197C13.5124 17.927 13.9872 17.9271 14.2801 18.2197L14.7801 18.7197C15.073 19.0126 15.0729 19.4874 14.7801 19.7803C14.4872 20.0731 14.0125 20.0731 13.7196 19.7803L13.2196 19.2803C12.9269 18.9873 12.9268 18.5125 13.2196 18.2197ZM16.2196 17.2197C16.5124 16.927 16.9872 16.9271 17.2801 17.2197L18.7801 18.7197C19.073 19.0126 19.0729 19.4874 18.7801 19.7803C18.4872 20.0731 18.0125 20.0731 17.7196 19.7803L16.2196 18.2803C15.9269 17.9873 15.9268 17.5125 16.2196 17.2197ZM10.3045 4.17674C12.7306 3.52049 15.2085 4.74341 16.2381 6.9492L16.5819 7.0117L16.8758 7.07127C18.3318 7.39701 19.6049 8.17365 19.9276 9.55369C20.2604 10.9787 19.4182 12.4122 18.2127 13.5381C16.9695 14.699 15.161 15.7172 13.0848 16.3554C11.0105 16.9931 8.98958 17.1526 7.38558 16.8564C5.82409 16.568 4.41387 15.783 4.0721 14.3203C3.87994 13.4971 4.08613 12.6648 4.50667 11.916C4.86861 11.2717 5.40676 10.6543 6.06331 10.0888C5.65838 7.52584 7.22898 5.00934 9.77913 4.31931L10.3045 4.17674ZM18.2196 15.2197C18.5124 14.927 18.9872 14.9271 19.2801 15.2197L19.7801 15.7197C20.073 16.0126 20.0729 16.4874 19.7801 16.7803C19.4872 17.0731 19.0125 17.0731 18.7196 16.7803L18.2196 16.2803C17.9269 15.9873 17.9268 15.5125 18.2196 15.2197ZM16.745 8.58299C16.8911 9.41152 16.6521 10.3367 15.8729 10.9033C15.1297 11.4437 13.9349 12.1374 12.2625 12.5898C10.5987 13.0399 9.22532 13.0446 8.31331 12.9531C7.48635 12.8699 6.87339 12.3537 6.53402 11.707C6.22779 12.0278 5.98684 12.3459 5.81527 12.6513C5.51759 13.1814 5.45088 13.6258 5.53304 13.9785C5.66881 14.5598 6.30199 15.1303 7.65804 15.3808C8.97188 15.6235 10.7437 15.5061 12.6444 14.9219C14.5431 14.3382 16.1395 13.4208 17.1883 12.4414C18.2746 11.4269 18.6111 10.5146 18.4666 9.89549C18.3449 9.37519 17.8243 8.86397 16.745 8.58299ZM15.1024 8.19822C14.5853 6.25177 12.6094 5.10736 10.6961 5.62498L10.1707 5.76658C8.25455 6.28507 7.10673 8.28001 7.62386 10.2295L7.76742 10.7695C7.88017 11.1942 8.16784 11.4311 8.4637 11.4609C9.2213 11.5369 10.408 11.5373 11.8709 11.1416C13.3416 10.7437 14.3729 10.1399 14.991 9.69041C15.201 9.53774 15.3261 9.25261 15.2791 8.90134L15.2479 8.74705L15.1024 8.19822Z" fill="black"/>
</svg>
