<svg width="24" height="24" viewBox="0 0 24 24" fill="none" xmlns="http://www.w3.org/2000/svg">
<path d="M17.25 4C18.7688 4 20 5.23122 20 6.75V17.25C20 18.7688 18.7688 20 17.25 20H6.75C5.23122 20 4 18.7688 4 17.25V6.75C4 5.23122 5.23122 4 6.75 4H17.25ZM6.75 5.5C6.05964 5.5 5.5 6.05964 5.5 6.75V17.25C5.5 17.9404 6.05964 18.5 6.75 18.5H17.25C17.9404 18.5 18.5 17.9404 18.5 17.25V6.75C18.5 6.05964 17.9404 5.5 17.25 5.5H6.75ZM15.25 12C16.2165 12 17 12.7835 17 13.75V15.25C17 16.2165 16.2165 17 15.25 17H8.75C7.7835 17 7 16.2165 7 15.25V13.75C7 12.7835 7.7835 12 8.75 12H15.25ZM8.75 13.5C8.61193 13.5 8.5 13.6119 8.5 13.75V15.25C8.5 15.3881 8.61193 15.5 8.75 15.5H15.25C15.3881 15.5 15.5 15.3881 15.5 15.25V13.75C15.5 13.6119 15.3881 13.5 15.25 13.5H8.75Z" fill="black"/>
</svg>
