<svg width="24" height="24" viewBox="0 0 24 24" fill="none" xmlns="http://www.w3.org/2000/svg">
<path d="M12 4C12.4142 4 12.75 4.33579 12.75 4.75V5.02832C14.6135 5.1662 16.3189 5.81863 17.6143 6.92871C19.0923 8.1955 20 10.0287 20 12.25C20 12.526 19.8487 12.7758 19.6123 12.9062L19.5059 12.9551H19.5039C19.5031 12.9554 19.502 12.9567 19.501 12.957C19.4987 12.9578 19.4956 12.9588 19.4922 12.96C19.4849 12.9625 19.4753 12.9664 19.4629 12.9707C19.4377 12.9794 19.4015 12.9909 19.3555 13.0059C19.2631 13.0359 19.1291 13.0775 18.9561 13.127C18.6099 13.2259 18.106 13.3561 17.46 13.4854C16.311 13.7151 14.7112 13.9415 12.75 13.9893V17.625C12.75 18.9367 11.6867 20 10.375 20C9.06332 20 8 18.9367 8 17.625V16.75C8 16.3358 8.33579 16 8.75 16C9.16421 16 9.5 16.3358 9.5 16.75V17.625C9.5 18.1082 9.89175 18.5 10.375 18.5C10.8582 18.5 11.25 18.1082 11.25 17.625V13.9893C9.28881 13.9415 7.68898 13.7151 6.54004 13.4854C5.89405 13.3561 5.3901 13.2259 5.04395 13.127C4.87088 13.0775 4.73686 13.0359 4.64453 13.0059C4.59849 12.9909 4.56232 12.9794 4.53711 12.9707C4.52473 12.9664 4.51506 12.9625 4.50781 12.96C4.50441 12.9588 4.50126 12.9578 4.49902 12.957C4.49798 12.9567 4.49686 12.9554 4.49609 12.9551H4.49414C4.19775 12.8473 4 12.5654 4 12.25C4 10.0287 4.90773 8.1955 6.38574 6.92871C7.68109 5.81863 9.38648 5.1662 11.25 5.02832V4.75C11.25 4.33579 11.5858 4 12 4ZM12 6.80762C11.724 7.10918 11.3637 7.54314 11.0039 8.09668C10.3213 9.14685 9.6512 10.6057 9.52344 12.3916C10.2705 12.4568 11.0988 12.5 12 12.5C12.9008 12.5 13.7287 12.4568 14.4756 12.3916C14.3478 10.6057 13.6786 9.14684 12.9961 8.09668C12.6363 7.54314 12.276 7.10918 12 6.80762ZM13.8545 6.70703C13.9849 6.8836 14.1205 7.07311 14.2539 7.27832C15.0256 8.46547 15.8059 10.1451 15.9678 12.2188C16.412 12.154 16.8123 12.0852 17.165 12.0146C17.7257 11.9025 18.1663 11.7894 18.4746 11.7031C18.3434 10.176 17.6646 8.94785 16.6387 8.06836C15.8876 7.42464 14.936 6.95681 13.8545 6.70703ZM10.1445 6.70703C9.06343 6.95687 8.11217 7.42482 7.36133 8.06836C6.33533 8.94787 5.65557 10.176 5.52441 11.7031C5.83278 11.7894 6.2738 11.9024 6.83496 12.0146C7.1874 12.0851 7.58736 12.154 8.03125 12.2188C8.19307 10.145 8.97443 8.46549 9.74609 7.27832C9.87937 7.07329 10.0142 6.88347 10.1445 6.70703Z" fill="black"/>
</svg>
