<svg width="24" height="24" viewBox="0 0 24 24" fill="none" xmlns="http://www.w3.org/2000/svg">
<path fill-rule="evenodd" clip-rule="evenodd" d="M18.6497 4.33704C18.9406 4.18349 19.298 4.23727 19.5305 4.46986C19.763 4.70248 19.8169 5.05989 19.6634 5.35072L12.6634 18.6007C12.5292 18.8544 12.2617 19.0097 11.9749 19.0001C11.6879 18.9904 11.4314 18.8172 11.3147 18.5548L10.3704 16.4308L9.58914 15.6495L8.13308 17.1056L8.1321 17.1046C7.22188 18.0984 5.72335 18.2883 4.59402 17.5451L4.33816 17.3761C3.99221 17.1484 3.89655 16.684 4.12429 16.338C4.35207 15.9922 4.81644 15.8964 5.16238 16.1242L5.41921 16.2921C5.93804 16.6335 6.629 16.5427 7.04128 16.0783L7.07253 16.0451L8.52859 14.589L7.56863 13.629L5.44558 12.6857C5.18315 12.569 5.01002 12.3125 5.00027 12.0255C4.99055 11.7386 5.14589 11.4712 5.39968 11.337L18.6497 4.33704ZM7.46609 11.9415L8.30496 12.3146L8.42507 12.382C8.46271 12.4078 8.49811 12.4374 8.53054 12.4699L11.5305 15.4699L11.6184 15.5753C11.6444 15.6131 11.6671 15.6534 11.6858 15.6954L12.0579 16.5333L17.2014 6.79798L7.46609 11.9415Z" fill="black"/>
</svg>
