<svg width="24" height="24" viewBox="0 0 24 24" fill="none" xmlns="http://www.w3.org/2000/svg">
<path d="M19.25 18.5C19.6642 18.5 20 18.8358 20 19.25C20 19.6642 19.6642 20 19.25 20H4.75C4.33579 20 4 19.6642 4 19.25C4 18.8358 4.33579 18.5 4.75 18.5H19.25ZM16.25 4C16.6642 4 17 4.33579 17 4.75V11C17 13.7614 14.7614 16 12 16C9.23858 16 7 13.7614 7 11V4.75C7 4.33579 7.33579 4 7.75 4C8.16421 4 8.5 4.33579 8.5 4.75V11C8.5 12.933 10.067 14.5 12 14.5C13.933 14.5 15.5 12.933 15.5 11V4.75C15.5 4.33579 15.8358 4 16.25 4Z" fill="black"/>
</svg>
