<svg width="24" height="24" viewBox="0 0 24 24" fill="none" xmlns="http://www.w3.org/2000/svg">
<path fill-rule="evenodd" clip-rule="evenodd" d="M8.73535 4.20548C9.03649 3.92107 9.51051 3.93462 9.79492 4.23576C10.0792 4.5369 10.0657 5.01097 9.76465 5.29533L6.63477 8.25041H15.25C17.8734 8.25041 20 10.3771 20 13.0004V19.2504C19.9998 19.6645 19.6641 20.0004 19.25 20.0004C18.8359 20.0004 18.5002 19.6645 18.5 19.2504V13.0004C18.5 11.2055 17.0449 9.75041 15.25 9.75041H6.63477L9.76465 12.7055C10.0656 12.9899 10.0793 13.464 9.79492 13.7651C9.51055 14.066 9.03644 14.0795 8.73535 13.7953L4.23535 9.54533C4.08541 9.40372 4.00009 9.20663 4 9.00041C4 8.79413 4.08544 8.59715 4.23535 8.45548L8.73535 4.20548Z" fill="black"/>
</svg>
