<svg width="24" height="24" viewBox="0 0 24 24" fill="none" xmlns="http://www.w3.org/2000/svg">
<path d="M11.25 4C12.7688 4 14 5.23122 14 6.75V10H17.25C18.7688 10 20 11.2312 20 12.75V17.25C20 18.7688 18.7688 20 17.25 20H12.75C11.2312 20 10 18.7688 10 17.25V14H6.75C5.23122 14 4 12.7688 4 11.25V6.75C4 5.23122 5.23122 4 6.75 4H11.25ZM12.5742 18.4854C12.6318 18.4935 12.6902 18.5 12.75 18.5H14.4395L18.4697 14.4697C18.4796 14.4599 18.4898 14.4506 18.5 14.4414V12.75C18.5 12.6902 18.4935 12.6318 18.4854 12.5742L12.5742 18.4854ZM16.5605 18.5H17.25C17.9404 18.5 18.5 17.9404 18.5 17.25V16.5605L16.5605 18.5ZM15.5303 11.5303L11.5 15.5605V17.25C11.5 17.3094 11.5057 17.3676 11.5137 17.4248L17.4248 11.5137C17.3676 11.5057 17.3094 11.5 17.25 11.5H15.5576C15.5486 11.5101 15.54 11.5206 15.5303 11.5303ZM10.5605 12.5H10.75C11.1642 12.5 11.5 12.8358 11.5 13.25V13.4395L13.4395 11.5H13.25C12.8358 11.5 12.5 11.1642 12.5 10.75V10.5605L10.5605 12.5ZM6.57422 12.4854C6.63176 12.4935 6.69022 12.5 6.75 12.5H8.43945L12.4697 8.46973C12.4796 8.45989 12.4898 8.45058 12.5 8.44141V6.75C12.5 6.69022 12.4935 6.63176 12.4854 6.57422L6.57422 12.4854ZM5.5 9.56055V11.25C5.5 11.3094 5.50566 11.3676 5.51367 11.4248L11.4248 5.51367C11.3676 5.50566 11.3094 5.5 11.25 5.5H9.56055L5.5 9.56055ZM6.75 5.5C6.05964 5.5 5.5 6.05964 5.5 6.75V7.43945L7.43945 5.5H6.75Z" fill="black"/>
</svg>
