<svg width="24" height="24" viewBox="0 0 24 24" fill="none" xmlns="http://www.w3.org/2000/svg">
<path d="M6 17C6.55228 17 7 17.4477 7 18C7 18.5523 6.55228 19 6 19C5.44772 19 5 18.5523 5 18C5 17.4477 5.44772 17 6 17ZM18.25 17.25C18.6642 17.25 19 17.5858 19 18C19 18.4142 18.6642 18.75 18.25 18.75H9.75C9.33579 18.75 9 18.4142 9 18C9 17.5858 9.33579 17.25 9.75 17.25H18.25ZM6 11C6.55228 11 7 11.4477 7 12C7 12.5523 6.55228 13 6 13C5.44772 13 5 12.5523 5 12C5 11.4477 5.44772 11 6 11ZM18.25 11.25C18.6642 11.25 19 11.5858 19 12C19 12.4142 18.6642 12.75 18.25 12.75H9.75C9.33579 12.75 9 12.4142 9 12C9 11.5858 9.33579 11.25 9.75 11.25H18.25ZM6 5C6.55228 5 7 5.44772 7 6C7 6.55228 6.55228 7 6 7C5.44772 7 5 6.55228 5 6C5 5.44772 5.44772 5 6 5ZM18.25 5.25C18.6642 5.25 19 5.58579 19 6C19 6.41421 18.6642 6.75 18.25 6.75H9.75C9.33579 6.75 9 6.41421 9 6C9 5.58579 9.33579 5.25 9.75 5.25H18.25Z" fill="black"/>
</svg>
