<svg width="24" height="24" viewBox="0 0 24 24" fill="none" xmlns="http://www.w3.org/2000/svg">
<path fill-rule="evenodd" clip-rule="evenodd" d="M7.28705 11.7334C7.43447 11.3464 7.86782 11.1516 8.25483 11.2988C8.64184 11.4463 8.83575 11.8796 8.68842 12.2666L7.83783 14.5H11.9999C12.4142 14.5 12.7499 14.8358 12.7499 15.25V19.25C12.7499 19.6642 12.4142 20 11.9999 20C11.5857 20 11.2499 19.6642 11.2499 19.25V16H6.74994C6.50339 16 6.27275 15.8787 6.13276 15.6758C5.99287 15.4728 5.96117 15.2138 6.04877 14.9834L7.28705 11.7334ZM13.2499 4C14.7687 4 15.9999 5.23122 15.9999 6.75V9.86133L17.9511 14.9834C18.0387 15.2138 18.007 15.4728 17.8671 15.6758C17.7271 15.8787 17.4965 16 17.2499 16H17.0605L19.7802 18.7197C20.0731 19.0126 20.0731 19.4874 19.7802 19.7803C19.4873 20.0732 19.0126 20.0732 18.7197 19.7803L4.21967 5.28027C3.92678 4.98738 3.92678 4.51262 4.21967 4.21973C4.51256 3.92683 4.98732 3.92683 5.28022 4.21973L7.99994 6.93945V6.75C7.99994 5.23122 9.23116 4 10.7499 4H13.2499ZM10.7499 5.5C10.0596 5.5 9.49994 6.05964 9.49994 6.75V8.43945L15.5605 14.5H16.1611L14.5488 10.2666C14.5164 10.1815 14.4999 10.0911 14.4999 10V6.75C14.4999 6.05964 13.9403 5.5 13.2499 5.5H10.7499Z" fill="black"/>
</svg>
