<svg width="24" height="24" viewBox="0 0 24 24" fill="none" xmlns="http://www.w3.org/2000/svg">
<path d="M12.25 4C12.6642 4 13 4.33579 13 4.75C13 5.16421 12.6642 5.5 12.25 5.5H12C10.1928 5.5 8.5661 5.99063 7.40527 6.95605C6.26464 7.90478 5.5 9.37172 5.5 11.5C5.5 13.1238 5.94542 14.3552 6.64746 15.2617C7.00916 15.7289 7.21756 16.4367 6.90234 17.1104C6.79373 17.3425 6.67973 17.5635 6.56348 17.7725V17.7734C6.48343 17.9175 6.4843 18.1378 6.58984 18.3232C6.68966 18.4984 6.78918 18.5058 6.84766 18.4941C7.83754 18.296 8.90615 18.0062 9.77441 17.5957H9.77539C10.0589 17.4618 10.3728 17.398 10.6895 17.415L10.8252 17.4277L11.1133 17.459C11.4036 17.4862 11.6997 17.5 12 17.5C13.7742 17.5 15.3751 17.0268 16.5312 16.0957C17.6678 15.1803 18.4427 13.7696 18.4971 11.7305C18.5081 11.3164 18.8526 10.99 19.2666 11.001C19.6807 11.012 20.0071 11.3564 19.9961 11.7705C19.931 14.2112 18.9805 16.0502 17.4727 17.2646C15.9844 18.4632 14.0217 19 12 19C11.5394 19 11.083 18.9718 10.6357 18.915C10.5638 18.906 10.4876 18.9183 10.416 18.9521C9.38865 19.4379 8.18459 19.7562 7.14258 19.9648C6.28531 20.1365 5.61437 19.6412 5.28613 19.0645C4.98372 18.533 4.89 17.8125 5.1875 17.1709L5.25293 17.043C5.3533 16.8626 5.45123 16.6727 5.54395 16.4746C5.55368 16.4538 5.56083 16.4222 5.55176 16.3711C5.54205 16.3165 5.5143 16.2474 5.46191 16.1797C4.53033 14.9768 4 13.4112 4 11.5C4 8.97323 4.92758 7.06522 6.44531 5.80273C7.94298 4.55705 9.94131 4 12 4H12.25ZM17 4C18.6569 4 20 5.34315 20 7C20 8.65685 18.6569 10 17 10C15.3431 10 14 8.65685 14 7C14 5.34315 15.3431 4 17 4ZM17 5.5C16.1716 5.5 15.5 6.17157 15.5 7C15.5 7.82843 16.1716 8.5 17 8.5C17.8284 8.5 18.5 7.82843 18.5 7C18.5 6.17157 17.8284 5.5 17 5.5Z" fill="black"/>
</svg>
