<svg width="24" height="24" viewBox="0 0 24 24" fill="none" xmlns="http://www.w3.org/2000/svg">
<path d="M12 12C12.2126 12 12.4154 12.09 12.5576 12.248L14.8076 14.748C15.0847 15.0559 15.0598 15.5305 14.752 15.8076C14.4441 16.0847 13.9695 16.0598 13.6924 15.752L12.75 14.7041V19.25C12.75 19.6642 12.4142 20 12 20C11.5858 20 11.25 19.6642 11.25 19.25V14.7041L10.3076 15.752C10.0305 16.0598 9.55591 16.0847 9.24805 15.8076C8.94022 15.5305 8.9153 15.0559 9.19238 14.748L11.4424 12.248L11.499 12.1924C11.636 12.0693 11.814 12 12 12ZM12 4C14.4564 4 16.4974 5.77124 16.9189 8.10645C18.6854 8.52187 20 10.107 20 12C20 13.2162 19.5311 13.9922 18.9805 14.4512C18.7179 14.67 18.4549 14.8015 18.2559 14.8789C18.1561 14.9177 18.0702 14.9438 18.0049 14.9609C17.9721 14.9695 17.9439 14.9758 17.9219 14.9805C17.9108 14.9828 17.9007 14.9848 17.8926 14.9863C17.8887 14.9871 17.885 14.9877 17.8818 14.9883C17.8802 14.9886 17.8784 14.989 17.877 14.9893H17.874C17.8728 14.9848 17.8632 14.929 17.75 14.25L17.873 14.9902C17.4646 15.0581 17.0778 14.7815 17.0098 14.373C16.9423 13.9674 17.2144 13.5837 17.6182 13.5117H17.6162C17.6182 13.5112 17.6208 13.5106 17.624 13.5098C17.6406 13.5054 17.6724 13.4962 17.7129 13.4805C17.795 13.4485 17.9073 13.3923 18.0195 13.2988C18.2188 13.1328 18.5 12.7837 18.5 12C18.5 10.6826 17.4801 9.60249 16.1875 9.50684C15.812 9.47883 15.5152 9.17676 15.4941 8.80078C15.3912 6.96083 13.8661 5.5 12 5.5C10.1339 5.5 8.60876 6.96083 8.50586 8.80078C8.48484 9.17676 8.18798 9.47883 7.8125 9.50684C6.51995 9.60249 5.5 10.6826 5.5 12C5.5 12.7837 5.7812 13.1328 5.98047 13.2988C6.09267 13.3923 6.20502 13.4485 6.28711 13.4805C6.32764 13.4962 6.35937 13.5054 6.37598 13.5098C6.3792 13.5106 6.38182 13.5112 6.38379 13.5117H6.38184C6.7856 13.5837 7.05766 13.9674 6.99023 14.373C6.92216 14.7815 6.53541 15.0581 6.12695 14.9902L6.25 14.25C6.13683 14.929 6.12718 14.9848 6.12598 14.9893H6.12305C6.12164 14.989 6.11976 14.9886 6.11816 14.9883C6.11499 14.9877 6.11131 14.9871 6.10742 14.9863C6.09932 14.9848 6.08917 14.9828 6.07812 14.9805C6.05608 14.9758 6.02786 14.9695 5.99512 14.9609C5.92982 14.9438 5.84389 14.9177 5.74414 14.8789C5.54506 14.8015 5.28209 14.67 5.01953 14.4512C4.46888 13.9922 4 13.2162 4 12C4 10.1073 5.31411 8.52221 7.08008 8.10645C7.50158 5.77115 9.54355 4 12 4Z" fill="black"/>
</svg>
