<svg width="24" height="24" viewBox="0 0 24 24" fill="none" xmlns="http://www.w3.org/2000/svg">
<path d="M19.25 14C19.6642 14 20 14.3358 20 14.75V16.25C20 18.3211 18.3211 20 16.25 20H7.75C5.67893 20 4 18.3211 4 16.25V14.75C4 14.3358 4.33579 14 4.75 14C5.16421 14 5.5 14.3358 5.5 14.75V16.25C5.5 17.4926 6.50736 18.5 7.75 18.5H16.25C17.4926 18.5 18.5 17.4926 18.5 16.25V14.75C18.5 14.3358 18.8358 14 19.25 14ZM12 4C12.2085 4 12.4079 4.0865 12.5498 4.23926L15.7998 7.73926C16.0816 8.04275 16.0642 8.51794 15.7607 8.7998C15.4572 9.08162 14.9821 9.06417 14.7002 8.76074L12.75 6.66016V14.25C12.75 14.6642 12.4142 15 12 15C11.5858 15 11.25 14.6642 11.25 14.25V6.66016L9.2998 8.76074C9.01794 9.06417 8.54275 9.08162 8.23926 8.7998C7.93583 8.51794 7.91838 8.04275 8.2002 7.73926L11.4502 4.23926L11.5059 4.18555C11.6419 4.06642 11.8174 4 12 4Z" fill="black"/>
</svg>
