<svg width="24" height="24" viewBox="0 0 24 24" fill="none" xmlns="http://www.w3.org/2000/svg">
<path fill-rule="evenodd" clip-rule="evenodd" d="M19.2499 6C19.6642 6 19.9999 6.33579 19.9999 6.75V19.25C19.9999 19.6642 19.6642 20 19.2499 20H6.74994C6.33573 20 5.99994 19.6642 5.99994 19.25V14.75C5.99994 14.3358 6.33573 14 6.74994 14H9.99994V10.75C9.99994 10.3358 10.3357 10 10.7499 10H13.9999V6.75C13.9999 6.33579 14.3357 6 14.7499 6H19.2499ZM15.4999 10.75C15.4999 11.1642 15.1642 11.5 14.7499 11.5H11.4999V14.75C11.4999 15.1642 11.1642 15.5 10.7499 15.5H7.49994V18.5H18.4999V7.5H15.4999V10.75ZM10.2499 4C10.6642 4 10.9999 4.33579 10.9999 4.75V8.25C10.9999 8.66421 10.6642 9 10.2499 9C9.83573 9 9.49994 8.66421 9.49994 8.25V6.56055L5.28022 10.7803C4.98732 11.0732 4.51256 11.0732 4.21967 10.7803C3.92678 10.4874 3.92678 10.0126 4.21967 9.71973L8.4394 5.5H6.74994C6.33573 5.5 5.99994 5.16421 5.99994 4.75C5.99994 4.33579 6.33573 4 6.74994 4H10.2499Z" fill="black"/>
</svg>
