<svg width="24" height="24" viewBox="0 0 24 24" fill="none" xmlns="http://www.w3.org/2000/svg">
<path fill-rule="evenodd" clip-rule="evenodd" d="M9.50002 13.25C11.3851 13.2501 12.6704 14.0386 13.5069 15.0684C14.3186 16.0677 14.6829 17.2592 14.8496 18.0791C15.0712 19.169 14.1807 19.9997 13.2188 20H5.78224C4.82009 20 3.92883 19.1692 4.15041 18.0791C4.31714 17.2592 4.68144 16.0677 5.49318 15.0684C6.32969 14.0386 7.61487 13.2501 9.50002 13.25ZM15.75 13.25C17.0972 13.25 18.0358 13.9643 18.6504 14.835C19.2493 15.6833 19.5751 16.7188 19.7559 17.5332C20.0629 18.9161 18.9292 20 17.6768 20H16.75C16.3358 20 16 19.6642 16 19.25C16 18.8358 16.3358 18.5 16.75 18.5H17.6768C17.8947 18.5 18.0727 18.4091 18.1807 18.2881C18.2831 18.1731 18.3295 18.0271 18.292 17.8584C18.1291 17.1248 17.8571 16.3127 17.4248 15.7002C17.0081 15.1099 16.4816 14.75 15.75 14.75C15.3358 14.75 15 14.4142 15 14C15 13.5858 15.3358 13.25 15.75 13.25ZM9.50002 14.75C8.09589 14.7501 7.22886 15.3122 6.65822 16.0146C6.06287 16.7476 5.76495 17.6706 5.62111 18.3779C5.61682 18.399 5.61854 18.4104 5.62013 18.416C5.6221 18.4229 5.62698 18.4334 5.63771 18.4453C5.66021 18.4701 5.70855 18.5 5.78224 18.5H13.2188C13.2926 18.4999 13.341 18.4701 13.3633 18.4453C13.374 18.4334 13.378 18.4229 13.3799 18.416C13.3815 18.4104 13.3842 18.399 13.3799 18.3779C13.2361 17.6707 12.938 16.7476 12.3428 16.0146C11.7722 15.3121 10.9042 14.7501 9.50002 14.75ZM9.50002 4C11.433 4.00002 13 5.56702 13 7.5C13 9.43298 11.433 11 9.50002 11C7.56702 11 6.00002 9.433 6.00002 7.5C6.00002 5.567 7.56702 4 9.50002 4ZM14.75 4C16.7744 4.00002 18 5.66472 18 7.5C18 9.33528 16.7744 11 14.75 11C14.3358 11 14 10.6642 14 10.25C14 9.83579 14.3358 9.5 14.75 9.5C15.7632 9.49998 16.5 8.70226 16.5 7.5C16.5 6.29774 15.7632 5.50002 14.75 5.5C14.3358 5.5 14 5.16421 14 4.75C14 4.33579 14.3358 4 14.75 4ZM9.50002 5.5C8.39545 5.5 7.50002 6.39543 7.50002 7.5C7.50002 8.60457 8.39545 9.5 9.50002 9.5C10.6046 9.49998 11.5 8.60456 11.5 7.5C11.5 6.39544 10.6046 5.50002 9.50002 5.5Z" fill="black"/>
</svg>
