<svg width="24" height="24" viewBox="0 0 24 24" fill="none" xmlns="http://www.w3.org/2000/svg">
<path fill-rule="evenodd" clip-rule="evenodd" d="M12.0003 13.25C14.1451 13.25 15.747 13.7183 16.9358 14.4277C18.1253 15.1377 18.8579 16.0636 19.304 16.9082C19.7176 17.6915 19.5821 18.5085 19.1116 19.0996C18.6608 19.6657 17.931 20 17.1526 20H6.84791C6.06951 20 5.33973 19.6657 4.88893 19.0996C4.41832 18.5086 4.28203 17.6915 4.69557 16.9082C5.1416 16.0636 5.87429 15.1378 7.06373 14.4277C8.25261 13.7181 9.85511 13.25 12.0003 13.25ZM12.0003 14.75C10.0776 14.75 8.75062 15.1677 7.83229 15.7158C6.9148 16.2635 6.36108 16.9678 6.02271 17.6084C5.90326 17.8346 5.9406 18.0138 6.06178 18.166C6.20295 18.3431 6.48464 18.5 6.84791 18.5H17.1526C17.5157 18.5 17.7965 18.343 17.9378 18.166C18.059 18.0138 18.0973 17.8347 17.9778 17.6084C17.6394 16.9677 17.085 16.2636 16.1672 15.7158C15.2489 15.1678 13.9226 14.75 12.0003 14.75ZM12.0003 4C14.2093 4.00005 16.0003 5.79089 16.0003 8C16.0003 10.2091 14.2093 11.9999 12.0003 12C9.79111 12 8.00025 10.2091 8.00025 8C8.00025 5.79086 9.79111 4 12.0003 4ZM12.0003 5.5C10.6195 5.5 9.50025 6.61929 9.50025 8C9.50025 9.38071 10.6195 10.5 12.0003 10.5C13.3809 10.4999 14.5003 9.38068 14.5003 8C14.5003 6.61932 13.3809 5.50005 12.0003 5.5Z" fill="black"/>
</svg>
