<svg width="24" height="24" viewBox="0 0 24 24" fill="none" xmlns="http://www.w3.org/2000/svg">
<path fill-rule="evenodd" clip-rule="evenodd" d="M9.50002 13.25C10.2032 13.25 10.8945 13.306 11.5225 13.5508C11.9082 13.7013 12.0995 14.1367 11.9492 14.5225C11.7988 14.9083 11.3634 15.0995 10.9776 14.9492C10.6123 14.8068 10.1454 14.75 9.50002 14.75C8.09589 14.7501 7.22886 15.3122 6.65822 16.0146C6.06287 16.7476 5.76495 17.6706 5.62111 18.3779C5.61682 18.399 5.61854 18.4104 5.62013 18.416C5.6221 18.4229 5.62698 18.4334 5.63771 18.4453C5.66021 18.4701 5.70855 18.5 5.78224 18.5H11.25C11.6641 18.5002 12 18.8359 12 19.25C12 19.6641 11.6641 19.9998 11.25 20H5.78224C4.82009 20 3.92883 19.1692 4.15041 18.0791C4.31714 17.2592 4.68144 16.0677 5.49318 15.0684C6.32969 14.0386 7.61487 13.2501 9.50002 13.25ZM17 14C17.4141 14.0002 17.75 14.3359 17.75 14.75V16.25H19.25C19.6641 16.2502 20 16.5859 20 17C20 17.4141 19.6641 17.7498 19.25 17.75H17.75V19.25C17.75 19.6641 17.4141 19.9998 17 20C16.5859 19.9999 16.25 19.6641 16.25 19.25V17.75H14.75C14.3359 17.7499 14 17.4141 14 17C14 16.5859 14.3359 16.2501 14.75 16.25H16.25V14.75C16.25 14.3359 16.5859 14.0001 17 14ZM9.50002 4C11.4329 4.00015 13 5.5671 13 7.5C13 9.4329 11.4329 10.9998 9.50002 11C7.56711 10.9999 6.00002 9.43293 6.00002 7.5C6.00002 5.56707 7.56711 4.00011 9.50002 4ZM14.75 4C16.7742 4.00015 18 5.6648 18 7.5C18 9.33521 16.7742 10.9998 14.75 11C14.3359 10.9999 14 10.6641 14 10.25C14 9.83585 14.3359 9.50011 14.75 9.5C15.7631 9.49985 16.5 8.70217 16.5 7.5C16.5 6.29783 15.7631 5.50015 14.75 5.5C14.3359 5.49989 14 5.16415 14 4.75C14 4.33585 14.3359 4.00011 14.75 4ZM9.50002 5.5C8.39554 5.50011 7.50002 6.3955 7.50002 7.5C7.50002 8.6045 8.39554 9.49989 9.50002 9.5C10.6045 9.49985 11.5 8.60448 11.5 7.5C11.5 6.39552 10.6045 5.50015 9.50002 5.5Z" fill="black"/>
</svg>
