<svg width="24" height="24" viewBox="0 0 24 24" fill="none" xmlns="http://www.w3.org/2000/svg">
<path fill-rule="evenodd" clip-rule="evenodd" d="M12.2498 13.25C12.664 13.25 12.9998 13.5858 12.9998 14C12.9998 14.4142 12.664 14.75 12.2498 14.75C8.50435 14.7501 6.87297 16.3336 6.13647 17.5771C5.99841 17.8103 6.03354 17.9958 6.15112 18.1514C6.28928 18.3339 6.57397 18.5 6.94995 18.5H12.2498C12.664 18.5 12.9998 18.8358 12.9998 19.25C12.9998 19.6642 12.664 20 12.2498 20H6.94995C6.14677 20 5.40049 19.6466 4.95386 19.0557C4.48687 18.4378 4.38276 17.5951 4.84546 16.8135C5.85228 15.1132 7.97471 13.2501 12.2498 13.25ZM19.2498 16.25C19.664 16.25 19.9998 16.5858 19.9998 17C19.9998 17.4142 19.664 17.75 19.2498 17.75H15.7498C15.3357 17.7498 14.9998 17.4141 14.9998 17C14.9998 16.5859 15.3357 16.2502 15.7498 16.25H19.2498ZM11.9998 4C14.2089 4 15.9998 5.79086 15.9998 8C15.9998 10.2091 14.2089 12 11.9998 12C9.79077 11.9998 7.99976 10.209 7.99976 8C7.99976 5.79097 9.79077 4.00018 11.9998 4ZM11.9998 5.5C10.6192 5.50018 9.49976 6.6194 9.49976 8C9.49976 9.3806 10.6192 10.4998 11.9998 10.5C13.3805 10.5 14.4998 9.38071 14.4998 8C14.4998 6.61929 13.3805 5.5 11.9998 5.5Z" fill="black"/>
</svg>
