<svg width="24" height="24" viewBox="0 0 24 24" fill="none" xmlns="http://www.w3.org/2000/svg">
<path fill-rule="evenodd" clip-rule="evenodd" d="M9.46973 13C10.0983 13 10.6385 13.1535 11.0156 13.3018C11.2059 13.3766 11.3604 13.4521 11.4697 13.5107C11.5244 13.5401 11.5684 13.5657 11.6006 13.585C11.6166 13.5945 11.6295 13.603 11.6397 13.6094C11.6446 13.6124 11.6489 13.615 11.6523 13.6172C11.654 13.6182 11.6559 13.6193 11.6572 13.6201L11.6592 13.6221H11.6611V13.623C12.0074 13.8501 12.1039 14.3148 11.877 14.6611C11.6499 15.0074 11.1853 15.1039 10.8389 14.877C10.8368 14.8757 10.8336 14.8742 10.8301 14.8721C10.8166 14.864 10.7932 14.8504 10.7607 14.833C10.6952 14.7979 10.5944 14.7484 10.4668 14.6982C10.2081 14.5965 9.85826 14.5 9.46973 14.5C8.03154 14.5 7.14228 15.0981 6.55567 15.8535C5.94432 16.6409 5.64395 17.6283 5.50196 18.3701C5.49813 18.3901 5.50025 18.4014 5.50196 18.4072C5.50406 18.4142 5.50946 18.4253 5.52149 18.4385C5.54697 18.4661 5.60197 18.5 5.68555 18.5H11.25C11.6642 18.5 12 18.8358 12 19.25C12 19.6642 11.6642 20 11.25 20H5.68555C4.72856 20 3.81921 19.1874 4.0293 18.0889C4.19163 17.2406 4.55216 15.9882 5.3711 14.9336C6.21509 13.8468 7.52629 13 9.46973 13ZM18.7197 15.2197C19.0126 14.9268 19.4874 14.9268 19.7803 15.2197C20.0732 15.5126 20.0732 15.9874 19.7803 16.2803L18.5606 17.5L19.7803 18.7197C20.0732 19.0126 20.0732 19.4874 19.7803 19.7803C19.4874 20.0732 19.0126 20.0732 18.7197 19.7803L17.5 18.5605L16.2803 19.7803C15.9874 20.0732 15.5126 20.0732 15.2197 19.7803C14.9268 19.4874 14.9268 19.0126 15.2197 18.7197L16.4395 17.5L15.2197 16.2803C14.9268 15.9874 14.9268 15.5126 15.2197 15.2197C15.5126 14.9268 15.9874 14.9268 16.2803 15.2197L17.5 16.4395L18.7197 15.2197ZM9.50001 4C11.433 4.00001 13 5.56701 13 7.5C13 9.43299 11.433 11 9.50001 11C7.56701 11 6.00001 9.433 6.00001 7.5C6.00001 5.567 7.56701 4 9.50001 4ZM14.75 4C16.7744 4.00001 18 5.66472 18 7.5C18 9.33528 16.7744 11 14.75 11C14.3358 11 14 10.6642 14 10.25C14 9.83579 14.3358 9.5 14.75 9.5C15.7632 9.49999 16.5 8.70227 16.5 7.5C16.5 6.29773 15.7632 5.50001 14.75 5.5C14.3358 5.5 14 5.16421 14 4.75C14 4.33579 14.3358 4 14.75 4ZM9.50001 5.5C8.39544 5.5 7.50001 6.39543 7.50001 7.5C7.50001 8.60457 8.39544 9.5 9.50001 9.5C10.6046 9.49999 11.5 8.60456 11.5 7.5C11.5 6.39544 10.6046 5.50001 9.50001 5.5Z" fill="black"/>
</svg>
