<svg width="24" height="24" viewBox="0 0 24 24" fill="none" xmlns="http://www.w3.org/2000/svg">
<path fill-rule="evenodd" clip-rule="evenodd" d="M12.2498 13.25C12.664 13.25 12.9998 13.5858 12.9998 14C12.9998 14.4142 12.664 14.75 12.2498 14.75C8.50435 14.7501 6.87297 16.3336 6.13647 17.5771C5.99841 17.8103 6.03354 17.9958 6.15112 18.1514C6.28928 18.3339 6.57397 18.5 6.94995 18.5H12.2498C12.664 18.5 12.9998 18.8358 12.9998 19.25C12.9998 19.6642 12.664 20 12.2498 20H6.94995C6.14677 20 5.40049 19.6466 4.95386 19.0557C4.48687 18.4378 4.38276 17.5951 4.84546 16.8135C5.85228 15.1132 7.97471 13.2501 12.2498 13.25ZM18.6414 14.3105C18.8838 13.9749 19.3534 13.8993 19.6892 14.1416C20.025 14.3841 20.1007 14.8537 19.8582 15.1895L16.6082 19.6895C16.4726 19.8771 16.2574 19.9919 16.0261 20C15.7948 20.0079 15.5718 19.9083 15.4236 19.7305L14.1736 18.2305C13.9087 17.9124 13.9515 17.439 14.2693 17.1738C14.5874 16.9088 15.0607 16.9516 15.3259 17.2695L15.9568 18.0264L18.6414 14.3105ZM11.9998 4C14.2089 4 15.9998 5.79086 15.9998 8C15.9998 10.2091 14.2089 12 11.9998 12C9.79077 11.9998 7.99976 10.209 7.99976 8C7.99976 5.79097 9.79077 4.00018 11.9998 4ZM11.9998 5.5C10.6192 5.50018 9.49976 6.6194 9.49976 8C9.49976 9.3806 10.6192 10.4998 11.9998 10.5C13.3805 10.5 14.4998 9.38071 14.4998 8C14.4998 6.61929 13.3805 5.5 11.9998 5.5Z" fill="black"/>
</svg>
