<svg width="24" height="24" viewBox="0 0 24 24" fill="none" xmlns="http://www.w3.org/2000/svg">
<path d="M12 4C16.4183 4 20 7.58172 20 12C20 16.4183 16.4183 20 12 20C7.58172 20 4 16.4183 4 12C4 7.58172 7.58172 4 12 4ZM12 15.5C10.4537 15.5001 9.05766 16.1385 8.05762 17.167C9.15126 18.0027 10.5173 18.5 12 18.5C13.4824 18.5 14.8479 18.0024 15.9414 17.167C14.9414 16.1389 13.546 15.5001 12 15.5ZM12 5.5C8.41015 5.5 5.5 8.41015 5.5 12C5.5 13.5666 6.05445 15.0036 6.97754 16.126C8.24887 14.8163 10.0291 14.0001 12 14C13.9709 14.0001 15.7502 14.8173 17.0215 16.127C17.9451 15.0044 18.5 13.5671 18.5 12C18.5 8.41015 15.5899 5.5 12 5.5ZM12 7C13.6569 7 15 8.34315 15 10C15 11.6569 13.6569 13 12 13C10.3431 13 9 11.6569 9 10C9 8.34315 10.3431 7 12 7ZM12 8.5C11.1716 8.5 10.5 9.17157 10.5 10C10.5 10.8284 11.1716 11.5 12 11.5C12.8284 11.5 13.5 10.8284 13.5 10C13.5 9.17157 12.8284 8.5 12 8.5Z" fill="black"/>
</svg>
