<svg width="24" height="24" viewBox="0 0 24 24" fill="none" xmlns="http://www.w3.org/2000/svg">
<path fill-rule="evenodd" clip-rule="evenodd" d="M12.2498 13.25C12.664 13.25 12.9998 13.5858 12.9998 14C12.9998 14.4142 12.664 14.75 12.2498 14.75C8.50435 14.7501 6.87297 16.3336 6.13647 17.5771C5.99841 17.8103 6.03354 17.9958 6.15112 18.1514C6.28928 18.3339 6.57397 18.5 6.94995 18.5H12.2498C12.664 18.5 12.9998 18.8358 12.9998 19.25C12.9998 19.6642 12.664 20 12.2498 20H6.94995C6.14677 20 5.40049 19.6466 4.95386 19.0557C4.48687 18.4378 4.38276 17.5951 4.84546 16.8135C5.85228 15.1132 7.97471 13.2501 12.2498 13.25ZM18.7195 15.2197C19.0123 14.9269 19.4871 14.927 19.78 15.2197C20.0729 15.5126 20.0729 15.9874 19.78 16.2803L18.5603 17.5L19.78 18.7197C20.0729 19.0126 20.0729 19.4874 19.78 19.7803C19.4871 20.073 19.0123 20.0731 18.7195 19.7803L17.4998 18.5605L16.28 19.7803C15.9871 20.073 15.5123 20.0731 15.2195 19.7803C14.9268 19.4874 14.9268 19.0126 15.2195 18.7197L16.4392 17.5L15.2195 16.2803C14.9268 15.9874 14.9268 15.5126 15.2195 15.2197C15.5123 14.9269 15.9871 14.927 16.28 15.2197L17.4998 16.4395L18.7195 15.2197ZM11.9998 4C14.2089 4 15.9998 5.79086 15.9998 8C15.9998 10.2091 14.2089 12 11.9998 12C9.79077 11.9998 7.99976 10.209 7.99976 8C7.99976 5.79097 9.79077 4.00018 11.9998 4ZM11.9998 5.5C10.6192 5.50018 9.49976 6.6194 9.49976 8C9.49976 9.3806 10.6192 10.4998 11.9998 10.5C13.3805 10.5 14.4998 9.38071 14.4998 8C14.4998 6.61929 13.3805 5.5 11.9998 5.5Z" fill="black"/>
</svg>
