<svg width="24" height="24" viewBox="0 0 24 24" fill="none" xmlns="http://www.w3.org/2000/svg">
<path fill-rule="evenodd" clip-rule="evenodd" d="M6.21967 4.21967C6.51256 3.92678 6.98732 3.92678 7.28022 4.21967C7.57311 4.51256 7.57311 4.98732 7.28022 5.28022L6.81049 5.74994L7.87494 6.8144L8.46967 6.21967L8.52631 6.16791C8.82089 5.9276 9.25561 5.94507 9.53022 6.21967L17.6552 14.3447C18.3837 15.0732 18.5292 16.1611 18.0966 17.0361L19.7802 18.7197C20.0731 19.0126 20.0731 19.4873 19.7802 19.7802C19.4873 20.0731 19.0126 20.0731 18.7197 19.7802L17.0361 18.0966C16.1611 18.5292 15.0732 18.3837 14.3447 17.6552L6.21967 9.53022C5.92678 9.23732 5.92678 8.76256 6.21967 8.46967L6.8144 7.87494L5.74994 6.81049L5.28022 7.28022C4.98732 7.57311 4.51256 7.57311 4.21967 7.28022C3.92678 6.98732 3.92678 6.51256 4.21967 6.21967L6.21967 4.21967ZM7.81049 8.99994L15.4052 16.5947C15.7336 16.9231 16.2662 16.9231 16.5947 16.5947C16.9231 16.2662 16.9231 15.7336 16.5947 15.4052L8.99994 7.81049L7.81049 8.99994Z" fill="black"/>
</svg>
