<svg width="24" height="24" viewBox="0 0 24 24" fill="none" xmlns="http://www.w3.org/2000/svg">
<path d="M15.25 4C17.3211 4 19 5.67893 19 7.75V18.25C19 19.2165 18.2165 20 17.25 20H6.75C5.7835 20 5 19.2165 5 18.25V7.75C5 5.67893 6.67893 4 8.75 4H15.25ZM8.75 5.5C7.50736 5.5 6.5 6.50736 6.5 7.75V18.25C6.5 18.3881 6.61193 18.5 6.75 18.5H17.25C17.3881 18.5 17.5 18.3881 17.5 18.25V7.75C17.5 6.50736 16.4926 5.5 15.25 5.5H8.75ZM16.3105 12.75L11.75 17.3105L10.6895 16.25L15.25 11.6895L16.3105 12.75ZM15.5605 9L9 15.5605L7.93945 14.5L14.5 7.93945L15.5605 9Z" fill="black"/>
</svg>
