<svg width="24" height="24" viewBox="0 0 24 24" fill="none" xmlns="http://www.w3.org/2000/svg">
<path d="M15.25 4C15.4853 4 15.7069 4.11094 15.8486 4.29883C15.9902 4.48668 16.0353 4.72986 15.9707 4.95605L15.0869 8.05176C15.0238 8.27278 15.0044 8.43973 15.0215 8.57324C15.0811 9.03818 15.2628 9.52946 15.541 10.0957C15.8282 10.68 16.162 11.2415 16.5371 11.9424C17.2608 13.2945 18 14.9251 18 17C18 17.0288 17.9973 17.057 17.9941 17.085C17.9686 17.6119 17.7116 18.0573 17.3711 18.4023C17.0156 18.7626 16.5384 19.0529 16.0078 19.2803C14.9439 19.7362 13.5264 20 12 20C10.4736 20 9.05608 19.7362 7.99219 19.2803C7.46161 19.0529 6.98445 18.7626 6.62891 18.4023C6.28838 18.0573 6.03044 17.6119 6.00488 17.085C6.00174 17.0571 6 17.0287 6 17C6 14.9251 6.73923 13.2945 7.46289 11.9424C7.83803 11.2415 8.17184 10.68 8.45898 10.0957C8.73724 9.52946 8.91887 9.03818 8.97852 8.57324C8.99558 8.43973 8.97623 8.27278 8.91309 8.05176L8.0293 4.95605C7.96467 4.72986 8.00979 4.48668 8.15137 4.29883C8.29309 4.11094 8.51466 4 8.75 4H15.25ZM10.3555 7.63965C10.4454 7.95452 10.5206 8.34524 10.4668 8.76465C10.3764 9.46912 10.1118 10.1328 9.80469 10.7578C9.5064 11.3647 9.11559 12.0321 8.78516 12.6494C8.09752 13.9342 7.5 15.2995 7.5 17C7.5 17.057 7.5239 17.1739 7.69629 17.3486C7.87203 17.5267 8.16366 17.7216 8.58301 17.9014C9.41924 18.2598 10.6269 18.5 12 18.5C13.3731 18.5 14.5808 18.2598 15.417 17.9014C15.8363 17.7216 16.128 17.5267 16.3037 17.3486C16.4761 17.1739 16.5 17.057 16.5 17C16.5 15.2995 15.9025 13.9342 15.2148 12.6494C14.8844 12.0321 14.4936 11.3647 14.1953 10.7578C13.8882 10.1328 13.6236 9.46912 13.5332 8.76465C13.4794 8.34524 13.5546 7.95452 13.6445 7.63965L14.2559 5.5H9.74414L10.3555 7.63965Z" fill="black"/>
</svg>
