<svg width="24" height="24" viewBox="0 0 24 24" fill="none" xmlns="http://www.w3.org/2000/svg">
<path d="M12 4C13.1022 4 14.0793 4.49834 14.7861 5.26953C15.8322 5.22327 16.8771 5.56363 17.6572 6.34375C18.4368 7.12356 18.7755 8.16735 18.7295 9.21289C19.5013 9.91979 20 10.8973 20 12C20 13.1025 19.501 14.0793 18.7295 14.7861C18.7758 15.8322 18.4373 16.8771 17.6572 17.6572C16.8771 18.4374 15.8322 18.7758 14.7861 18.7295C14.0793 19.501 13.1025 20 12 20C10.8973 20 9.91979 19.5013 9.21289 18.7295C8.16712 18.7755 7.12267 18.4371 6.34277 17.6572C5.56266 16.8771 5.22324 15.8322 5.26953 14.7861C4.49834 14.0793 4 13.1022 4 12C4 10.8975 4.49806 9.91975 5.26953 9.21289C5.22356 8.16737 5.56323 7.12355 6.34277 6.34375C7.12265 5.56387 8.16714 5.22353 9.21289 5.26953C9.91975 4.49806 10.8975 4 12 4ZM12 5.5C11.2855 5.5 10.6135 5.86488 10.1377 6.50195C9.97318 6.72229 9.70085 6.83535 9.42871 6.7959C8.64196 6.68196 7.90848 6.89914 7.40332 7.4043C6.89838 7.90953 6.68185 8.643 6.7959 9.42969C6.83516 9.70167 6.72216 9.97326 6.50195 10.1377C5.86488 10.6135 5.5 11.2855 5.5 12C5.5 12.7145 5.86488 13.3865 6.50195 13.8623C6.72216 14.0267 6.83516 14.2983 6.7959 14.5703C6.68177 15.3573 6.89808 16.0914 7.40332 16.5967C7.9086 17.102 8.64272 17.3182 9.42969 17.2041L9.53125 17.1963C9.76781 17.1945 9.99376 17.3053 10.1377 17.498C10.6135 18.1351 11.2855 18.5 12 18.5C12.7145 18.5 13.3865 18.1351 13.8623 17.498L13.9287 17.4199C14.0946 17.2516 14.3325 17.1697 14.5703 17.2041C15.3573 17.3182 16.0914 17.102 16.5967 16.5967C17.1019 16.0914 17.3182 15.3573 17.2041 14.5703C17.1648 14.2983 17.2778 14.0267 17.498 13.8623C18.1351 13.3865 18.5 12.7145 18.5 12C18.5 11.2855 18.1351 10.6135 17.498 10.1377C17.2778 9.97326 17.1648 9.70167 17.2041 9.42969C17.3181 8.643 17.1016 7.90953 16.5967 7.4043C16.0915 6.89914 15.358 6.68196 14.5713 6.7959C14.2992 6.83535 14.0268 6.72229 13.8623 6.50195C13.3865 5.86488 12.7145 5.5 12 5.5ZM13.8525 9.11426C14.1745 8.91242 14.6033 8.98286 14.8418 9.28906C15.096 9.61589 15.0375 10.0874 14.7109 10.3418L14.71 10.3428C14.7076 10.3447 14.7027 10.3484 14.6963 10.3535C14.6835 10.3638 14.6629 10.3804 14.6357 10.4033C14.5811 10.4495 14.4993 10.5206 14.3975 10.6152C14.1932 10.8051 13.9105 11.0881 13.6055 11.4512C12.9911 12.1826 12.3105 13.2121 11.9736 14.4473C11.9033 14.7052 11.7008 14.906 11.4424 14.9746C11.184 15.0432 10.9088 14.9693 10.7197 14.7803L9.21973 13.2803C8.92683 12.9874 8.92683 12.5126 9.21973 12.2197C9.51262 11.9268 9.98738 11.9268 10.2803 12.2197L10.9443 12.8838C11.3775 11.9029 11.9489 11.0913 12.457 10.4863C12.8082 10.0683 13.1349 9.74171 13.376 9.51758C13.4967 9.40533 13.5967 9.31806 13.668 9.25781C13.7036 9.22769 13.7323 9.20416 13.7529 9.1875C13.763 9.17933 13.7712 9.17284 13.7773 9.16797C13.7804 9.16551 13.7831 9.16272 13.7852 9.16113C13.7861 9.1604 13.7874 9.15972 13.7881 9.15918L13.7891 9.1582L13.8525 9.11426Z" fill="black"/>
</svg>
