<svg width="24" height="24" viewBox="0 0 24 24" fill="none" xmlns="http://www.w3.org/2000/svg">
<path d="M16.25 4C16.6642 4 17 4.33579 17 4.75V7H18.25C18.6642 7 19 7.33579 19 7.75V12.25C19 13.2165 18.2165 14 17.25 14H16.75L15.6924 16.5381C15.5759 16.8176 15.3028 17 15 17H12.75V19.25C12.75 19.6642 12.4142 20 12 20C11.5858 20 11.25 19.6642 11.25 19.25V17H9C8.69722 17 8.42407 16.8176 8.30762 16.5381L7.25 14H6.75C5.7835 14 5 13.2165 5 12.25V7.75C5 7.33579 5.33579 7 5.75 7H7V4.75C7 4.33579 7.33579 4 7.75 4H16.25ZM6.5 12.25C6.5 12.3881 6.61193 12.5 6.75 12.5H7.75C8.05278 12.5 8.32593 12.6824 8.44238 12.9619L9.5 15.5H14.5L15.5576 12.9619L15.6084 12.8613C15.7428 12.6393 15.9851 12.5 16.25 12.5H17.25C17.3881 12.5 17.5 12.3881 17.5 12.25V8.5H6.5V12.25ZM14.25 10C14.6642 10 15 10.3358 15 10.75C15 11.1642 14.6642 11.5 14.25 11.5H9.75C9.33579 11.5 9 11.1642 9 10.75C9 10.3358 9.33579 10 9.75 10H14.25ZM8.5 7H15.5V5.5H8.5V7Z" fill="#141414"/>
</svg>
