<svg width="24" height="24" viewBox="0 0 24 24" fill="none" xmlns="http://www.w3.org/2000/svg">
<path d="M9.25 13C9.66421 13 10 13.3358 10 13.75V14H19.25C19.6642 14 20 14.3358 20 14.75V17.25C20 17.6642 19.6642 18 19.25 18H18V19.25C18 19.6642 17.6642 20 17.25 20H13.75C13.3358 20 13 19.6642 13 19.25V18H6.75C5.23122 18 4 16.7688 4 15.25V13.75C4 13.3358 4.33579 13 4.75 13H9.25ZM5.5 15.25C5.5 15.9404 6.05964 16.5 6.75 16.5H13.75C14.1642 16.5 14.5 16.8358 14.5 17.25V18.5H16.5V17.25C16.5 16.8358 16.8358 16.5 17.25 16.5H18.5V15.5H9.25C8.83579 15.5 8.5 15.1642 8.5 14.75V14.5H5.5V15.25ZM18.25 11.5C18.6642 11.5 19 11.8358 19 12.25C19 12.6642 18.6642 13 18.25 13H16.75C16.3358 13 16 12.6642 16 12.25C16 11.8358 16.3358 11.5 16.75 11.5H18.25ZM18.25 9C18.6642 9 19 9.33579 19 9.75C19 10.1642 18.6642 10.5 18.25 10.5H16.75C16.3358 10.5 16 10.1642 16 9.75C16 9.33579 16.3358 9 16.75 9H18.25ZM19.25 4C19.6642 4 20 4.33579 20 4.75V7.25C20 7.66421 19.6642 8 19.25 8H10V8.25C10 8.66421 9.66421 9 9.25 9H4.75C4.33579 9 4 8.66421 4 8.25V6.75C4 5.23122 5.23122 4 6.75 4H19.25ZM6.75 5.5C6.05964 5.5 5.5 6.05964 5.5 6.75V7.5H8.5V7.25C8.5 6.83579 8.83579 6.5 9.25 6.5H18.5V5.5H6.75Z" fill="black"/>
</svg>
