<svg width="24" height="24" viewBox="0 0 24 24" fill="none" xmlns="http://www.w3.org/2000/svg">
<path fill-rule="evenodd" clip-rule="evenodd" d="M4.46289 6.05639C4.74303 5.94045 5.06582 6.00516 5.28027 6.21948L17.7803 18.7195C18.0731 19.0123 18.073 19.4871 17.7803 19.78C17.4874 20.0729 17.0126 20.0729 16.7197 19.78L14.9395 17.9998H6.75C5.23122 17.9998 4 16.7685 4 15.2498V6.74975C4.00013 6.44654 4.18274 6.17243 4.46289 6.05639ZM13.25 5.99975C14.7579 5.99975 15.9806 7.21375 15.998 8.71752L18.8818 7.09643C19.114 6.96591 19.399 6.96789 19.6289 7.10229C19.8587 7.23677 19.9999 7.4835 20 7.74975V16.2498C20 16.5161 19.8587 16.7627 19.6289 16.8972C19.3989 17.0317 19.1141 17.0337 18.8818 16.9031L14.8818 14.6531C14.6461 14.5201 14.5 14.2705 14.5 13.9998V8.74975C14.4998 8.05955 13.9402 7.49975 13.25 7.49975H9.75C9.33579 7.49975 9 7.16396 9 6.74975C9.00018 6.33569 9.3359 5.99975 9.75 5.99975H13.25ZM5.5 15.2498C5.5 15.9401 6.05964 16.4998 6.75 16.4998H13.4395L5.5 8.5603V15.2498ZM16 10.4382V13.5603L18.5 14.9665V9.03198L16 10.4382Z" fill="black"/>
</svg>
