<svg width="24" height="24" viewBox="0 0 24 24" fill="none" xmlns="http://www.w3.org/2000/svg">
<path fill-rule="evenodd" clip-rule="evenodd" d="M4.21973 4.21967C4.51262 3.92678 4.98738 3.92678 5.28027 4.21967L7.06055 5.99994H15.25C15.6642 5.99994 16 6.33573 16 6.74994V8.97944L19.0264 8.03412C19.2541 7.96299 19.5021 8.00417 19.6943 8.14545C19.8866 8.28678 20 8.51135 20 8.74994V15.2499C20 15.4885 19.8866 15.7131 19.6943 15.8544C19.5021 15.9957 19.2541 16.0369 19.0264 15.9658L16.1172 15.0566L19.7803 18.7197C20.0732 19.0126 20.0732 19.4873 19.7803 19.7802C19.4874 20.0731 19.0126 20.0731 18.7197 19.7802L4.21973 5.28022C3.92683 4.98732 3.92683 4.51256 4.21973 4.21967ZM4.75 7.99994C5.16421 7.99994 5.5 8.33573 5.5 8.74994V15.2499C5.5 15.9403 6.05964 16.4999 6.75 16.4999H12.25C12.6642 16.4999 13 16.8357 13 17.2499C13 17.6642 12.6642 17.9999 12.25 17.9999H6.75C5.23122 17.9999 4 16.7687 4 15.2499V8.74994C4 8.33573 4.33579 7.99994 4.75 7.99994ZM16 10.5507V13.4482L18.5 14.2294V9.76947L16 10.5507ZM14.5 13.4394V7.49994H8.56055L14.5 13.4394Z" fill="black"/>
</svg>
