<svg width="24" height="24" viewBox="0 0 24 24" fill="none" xmlns="http://www.w3.org/2000/svg">
<path d="M17.25 4C18.7688 4 20 5.23122 20 6.75V17.25C20 18.7688 18.7688 20 17.25 20H6.75C5.23122 20 4 18.7688 4 17.25V6.75C4 5.23122 5.23122 4 6.75 4H17.25ZM6.75 5.5C6.05964 5.5 5.5 6.05964 5.5 6.75V17.25C5.5 17.9404 6.05964 18.5 6.75 18.5H17.25C17.9404 18.5 18.5 17.9404 18.5 17.25V6.75C18.5 6.05964 17.9404 5.5 17.25 5.5H6.75ZM9.37793 8.09863C9.61183 7.96516 9.89998 7.96749 10.1318 8.10449L15.6318 11.3545C15.86 11.4895 16 11.7349 16 12C16 12.2651 15.86 12.5105 15.6318 12.6455L10.1318 15.8955C9.89998 16.0325 9.61183 16.0348 9.37793 15.9014C9.1442 15.7679 9 15.5192 9 15.25V8.75C9 8.48081 9.1442 8.23214 9.37793 8.09863ZM10.5 13.9355L13.7754 12L10.5 10.0635V13.9355Z" fill="black"/>
</svg>
