<svg width="24" height="24" viewBox="0 0 24 24" fill="none" xmlns="http://www.w3.org/2000/svg">
<path d="M13.25 6C14.7688 6 16 7.23122 16 8.75V8.82422L18.8643 7.10645C19.0959 6.96763 19.3841 6.96467 19.6191 7.09766C19.8543 7.23079 20 7.4798 20 7.75V16.25C20 16.5202 19.8543 16.7692 19.6191 16.9023C19.3841 17.0353 19.0959 17.0324 18.8643 16.8936L16 15.1748V15.25C16 16.7688 14.7688 18 13.25 18H6.75C5.23122 18 4 16.7688 4 15.25V8.75C4 7.23122 5.23122 6 6.75 6H13.25ZM6.75 7.5C6.05964 7.5 5.5 8.05964 5.5 8.75V15.25C5.5 15.9404 6.05964 16.5 6.75 16.5H13.25C13.9404 16.5 14.5 15.9404 14.5 15.25V8.75C14.5 8.05964 13.9404 7.5 13.25 7.5H6.75ZM16 10.5742V13.4248L18.5 14.9248V9.07422L16 10.5742Z" fill="black"/>
</svg>
