<svg width="24" height="24" viewBox="0 0 24 24" fill="none" xmlns="http://www.w3.org/2000/svg">
<path d="M15.25 6C15.6642 6 16 6.33579 16 6.75V8.97949L19.0264 8.03418C19.2541 7.96305 19.5021 8.00423 19.6943 8.14551C19.8866 8.28683 20 8.51141 20 8.75V15.25C20 15.4886 19.8866 15.7132 19.6943 15.8545C19.5021 15.9958 19.2541 16.037 19.0264 15.9658L16 15.0195V17.25C16 17.6642 15.6642 18 15.25 18H6.75C5.23122 18 4 16.7688 4 15.25V8.75C4 7.23122 5.23122 6 6.75 6H15.25ZM6.75 7.5C6.05964 7.5 5.5 8.05964 5.5 8.75V15.25C5.5 15.9404 6.05964 16.5 6.75 16.5H14.5V7.5H6.75ZM16 10.5508V13.4482L18.5 14.2295V9.76953L16 10.5508Z" fill="black"/>
</svg>
