<svg width="24" height="24" viewBox="0 0 24 24" fill="none" xmlns="http://www.w3.org/2000/svg">
<path fill-rule="evenodd" clip-rule="evenodd" d="M4.85204 4.00152C4.92432 4.00512 5.01981 4.01478 5.13036 4.03668C5.35138 4.08055 5.64524 4.17688 5.93798 4.38727C6.13101 4.52609 6.30636 4.70125 6.45653 4.91656C6.93811 4.50165 7.56494 4.25055 8.25048 4.25055C9.039 4.25068 9.74814 4.58398 10.2495 5.11578C10.751 4.58358 11.4615 4.25055 12.2505 4.25055C13.769 4.2508 15.0005 5.48192 15.0005 7.00055V9.5816C15.3971 9.37 15.8506 9.25055 16.3315 9.25055C17.7797 9.25085 19.1055 10.3918 18.9585 11.9839C18.8285 13.3915 18.4396 15.3736 17.311 17.022C17.1002 17.33 16.8633 17.6233 16.6011 17.899C17.2016 18.2483 18.0473 18.5005 19.2505 18.5005C19.6645 18.5008 20.0005 18.8365 20.0005 19.2505C20.0002 19.6644 19.6643 20.0003 19.2505 20.0005C17.5044 20.0005 16.2632 19.544 15.3921 18.8951C14.3262 19.5752 12.9681 20.0005 11.2505 20.0005H10.5005V18.5005H11.2505C12.5306 18.5005 13.5344 18.2246 14.3296 17.7828C14.2992 17.7377 14.2682 17.6935 14.2397 17.648C13.8689 17.0546 13.6853 16.4659 13.5942 16.0289C13.5485 15.8094 13.5252 15.623 13.5132 15.4888C13.5072 15.422 13.5041 15.367 13.5024 15.3267C13.5016 15.3068 13.5007 15.2896 13.5005 15.2769V7.00055C13.5005 6.31035 12.9406 5.7508 12.2505 5.75055C11.5601 5.75055 11.0005 6.31019 11.0005 7.00055V16.0005H9.50048V7.00055C9.50048 6.31035 8.94062 5.7508 8.25048 5.75055C7.56012 5.75055 7.00048 6.31019 7.00048 7.00055V16.0005H5.50048V7.00055C5.50046 5.99925 5.19021 5.69666 5.06298 5.60504C4.98131 5.54633 4.89939 5.51937 4.83934 5.50738C4.81012 5.50159 4.78769 5.50007 4.77782 5.49957H4.78856L4.79149 5.49859C4.38041 5.52118 4.02702 5.20804 4.00145 4.79645C3.97589 4.38323 4.29044 4.02739 4.7036 4.00152L4.74852 4.72027C4.7039 4.00156 4.70498 4.00156 4.70556 4.00152H4.70849C4.71013 4.00133 4.71259 4.00063 4.71434 4.00055C4.71805 4.00041 4.72261 4.00071 4.72704 4.00055C4.73628 4.0002 4.74802 3.99969 4.76024 3.99957C4.78492 3.99934 4.81614 3.99975 4.85204 4.00152ZM16.3315 10.7505C15.5965 10.7505 15.0005 11.3465 15.0005 12.0816V15.2505C15.0006 15.2536 15.0012 15.2585 15.0015 15.2642C15.0022 15.2825 15.0036 15.3142 15.0073 15.356C15.0149 15.4405 15.0308 15.5676 15.063 15.7222C15.1282 16.0351 15.2575 16.4471 15.5112 16.8531C15.5131 16.8561 15.5152 16.8589 15.5171 16.8619C15.7234 16.6446 15.9091 16.4149 16.0737 16.1744C16.9923 14.8326 17.3442 13.1465 17.4643 11.8453C17.5163 11.279 17.0507 10.7508 16.3315 10.7505Z" fill="black"/>
</svg>
