<svg width="24" height="24" viewBox="0 0 24 24" fill="none" xmlns="http://www.w3.org/2000/svg">
<path d="M14 5.5H12.75V7.05566C13.5706 7.1791 14.3258 7.50227 14.9648 7.97363L16.0664 6.87305L15.1826 5.98926L16.2432 4.92871L19.0713 7.75684L18.0107 8.81738L17.127 7.93359L16.0254 9.03418C16.4972 9.67347 16.8208 10.4289 16.9443 11.25H18.5V10H20V14H18.5V12.75H16.9443C16.8209 13.5708 16.4969 14.3257 16.0254 14.9648L17.127 16.0664L18.0107 15.1826L19.0713 16.2432L16.2432 19.0713L15.1826 18.0107L16.0664 17.127L14.9648 16.0254C14.3257 16.4969 13.5707 16.8199 12.75 16.9434V18.5H14V20H10V18.5H11.25V16.9434C10.429 16.8198 9.67343 16.4972 9.03418 16.0254L7.93359 17.127L8.81738 18.0107L7.75684 19.0713L4.92871 16.2432L5.98926 15.1826L6.87305 16.0664L7.97363 14.9648C7.50227 14.3258 7.1791 13.5706 7.05566 12.75H5.5V14H4V10H5.5V11.25H7.05566C7.17914 10.4291 7.50202 9.67337 7.97363 9.03418L6.87305 7.93359L5.98926 8.81738L4.92871 7.75684L7.75684 4.92871L8.81738 5.98926L7.93359 6.87305L9.03418 7.97363C9.67337 7.50202 10.4291 7.17914 11.25 7.05566V5.5H10V4H14V5.5ZM12 8.5C10.067 8.5 8.5 10.067 8.5 12C8.5 13.933 10.067 15.5 12 15.5C13.933 15.5 15.5 13.933 15.5 12C15.5 10.067 13.933 8.5 12 8.5Z" fill="black"/>
</svg>
