<svg width="24" height="24" viewBox="0 0 24 24" fill="none" xmlns="http://www.w3.org/2000/svg">
<path d="M12 6C12.4142 6 12.75 6.33579 12.75 6.75V17.25C12.75 17.6642 12.4142 18 12 18C11.5858 18 11.25 17.6642 11.25 17.25V6.75C11.25 6.33579 11.5858 6 12 6ZM8.75 8C9.16421 8 9.5 8.33579 9.5 8.75V15.25C9.5 15.6642 9.16421 16 8.75 16C8.33579 16 8 15.6642 8 15.25V8.75C8 8.33579 8.33579 8 8.75 8ZM15.25 8C15.6642 8 16 8.33579 16 8.75V15.25C16 15.6642 15.6642 16 15.25 16C14.8358 16 14.5 15.6642 14.5 15.25V8.75C14.5 8.33579 14.8358 8 15.25 8ZM5.75 10C6.16421 10 6.5 10.3358 6.5 10.75V13.25C6.5 13.6642 6.16421 14 5.75 14C5.33579 14 5 13.6642 5 13.25V10.75C5 10.3358 5.33579 10 5.75 10ZM18.25 10C18.6642 10 19 10.3358 19 10.75V13.25C19 13.6642 18.6642 14 18.25 14C17.8358 14 17.5 13.6642 17.5 13.25V10.75C17.5 10.3358 17.8358 10 18.25 10Z" fill="black"/>
</svg>
