<svg width="24" height="24" viewBox="0 0 24 24" fill="none" xmlns="http://www.w3.org/2000/svg">
<path fill-rule="evenodd" clip-rule="evenodd" d="M13.25 12.0002C13.5792 12.0002 13.8699 12.2149 13.9668 12.5295C14.9228 15.6363 16.3271 17.1054 17.4092 17.8088C17.9562 18.1643 18.4399 18.3372 18.7754 18.4211C18.9433 18.4631 19.0752 18.4831 19.1582 18.4924C19.1989 18.4969 19.2282 18.4984 19.2441 18.4992C19.2513 18.4996 19.2563 18.5001 19.2578 18.5002H19.25C19.6642 18.5002 20 18.836 20 19.2502C19.9998 19.6643 19.6641 20.0002 19.25 20.0002V19.2502C19.25 19.9658 19.2496 19.9987 19.249 20.0002H19.2188C19.2046 19.9998 19.1865 19.9984 19.165 19.9973C19.1214 19.9949 19.0619 19.9906 18.9902 19.9826C18.8468 19.9665 18.6498 19.9356 18.4121 19.8762C17.9352 19.7569 17.2934 19.5233 16.5908 19.0666C15.2488 18.1942 13.7491 16.5506 12.707 13.5002H11.293C10.2509 16.5505 8.7512 18.1942 7.40918 19.0666C6.70665 19.5232 6.06478 19.7569 5.58789 19.8762C5.35021 19.9356 5.15316 19.9665 5.00977 19.9826C4.9381 19.9906 4.87859 19.9949 4.83496 19.9973C4.81349 19.9984 4.79536 19.9998 4.78125 20.0002H4.75098C4.75038 19.9987 4.75 19.9658 4.75 19.2502V20.0002C4.33601 20 4.00016 19.6642 4 19.2502C4 18.8361 4.33591 18.5003 4.75 18.5002H4.74219C4.74341 18.5002 4.74842 18.4996 4.75586 18.4992C4.77173 18.4984 4.80104 18.4969 4.8418 18.4924C4.92477 18.4831 5.0567 18.463 5.22461 18.4211C5.56001 18.3372 6.04384 18.1642 6.59082 17.8088C7.6729 17.1054 9.07721 15.6362 10.0332 12.5295L10.0781 12.4162C10.2031 12.1645 10.4621 12.0003 10.75 12.0002H13.25ZM9.17188 5.17206C10.734 3.60996 13.267 3.60996 14.8291 5.17206C15.1185 5.46149 15.4029 5.75956 15.624 6.12714C16.0565 5.95469 16.5219 5.89325 16.9688 5.92206C17.7516 5.97269 18.544 6.30106 19.1221 6.87909C20.293 8.0506 20.2931 9.94986 19.1221 11.1213C18.8293 11.414 18.3534 11.4139 18.0605 11.1213C17.7681 10.8284 17.768 10.3535 18.0605 10.0607C18.6462 9.47503 18.6461 8.52545 18.0605 7.93964C17.76 7.63923 17.3202 7.44814 16.8721 7.41913C16.4264 7.39043 16.0375 7.52323 15.7803 7.78046C15.5807 7.97996 15.2859 8.05049 15.0176 7.96308C14.7493 7.8754 14.5523 7.64425 14.5088 7.36542C14.4471 6.967 14.2683 6.73338 13.7676 6.23261C12.7913 5.25644 11.2087 5.25634 10.2324 6.23261C9.73145 6.73359 9.5529 6.96707 9.49121 7.36542C9.44777 7.64415 9.25151 7.87531 8.9834 7.96308C8.715 8.0508 8.41948 7.98001 8.21973 7.78046C7.96241 7.5232 7.57351 7.39052 7.12793 7.41913C6.67977 7.44799 6.23997 7.63829 5.93945 7.93866C5.3537 8.52445 5.35368 9.47496 5.93945 10.0607C6.23185 10.3537 6.23218 10.8286 5.93945 11.1213C5.64672 11.4139 5.17181 11.4136 4.87891 11.1213C3.70735 9.94972 3.70737 8.04969 4.87891 6.87812C5.45701 6.30015 6.24846 5.9725 7.03125 5.92206C7.47778 5.89334 7.94278 5.95496 8.375 6.12714C8.59642 5.75903 8.88221 5.46173 9.17188 5.17206ZM10.75 9.00019C11.1642 9.00019 11.5 9.33597 11.5 9.75019V10.2502C11.4998 10.6643 11.1641 11.0002 10.75 11.0002C10.336 11 10.0002 10.6642 10 10.2502V9.75019C10 9.33606 10.3359 9.00033 10.75 9.00019ZM13.252 9.00019C13.6662 9.00019 14.002 9.33597 14.002 9.75019V10.2502C14.0018 10.6643 13.6661 11.0002 13.252 11.0002C12.838 11 12.5021 10.6642 12.502 10.2502V9.75019C12.502 9.33606 12.8379 9.00033 13.252 9.00019Z" fill="black"/>
</svg>
