<svg width="24" height="24" viewBox="0 0 24 24" fill="none" xmlns="http://www.w3.org/2000/svg">
<path fill-rule="evenodd" clip-rule="evenodd" d="M7.52571 8.55476C7.63348 8.15492 8.04573 7.9178 8.44563 8.02547C8.84528 8.13338 9.08257 8.5456 8.97493 8.94539L7.22493 15.4454C7.13667 15.7726 6.8392 15.9999 6.50032 16.0001C6.16137 16.0001 5.86404 15.7726 5.77571 15.4454L4.02571 8.94539C3.91805 8.54549 4.15516 8.13324 4.55501 8.02547C4.95484 7.91794 5.36718 8.15499 5.47493 8.55476L6.50032 12.3634L7.52571 8.55476ZM12.2503 8.00008C13.2167 8.00023 14.0003 8.78367 14.0003 9.75008V11.2501C14.0002 12.2164 13.2166 12.9999 12.2503 13.0001H11.5003V15.2501C11.5002 15.6641 11.1643 15.9999 10.7503 16.0001C10.3362 16.0001 10.0005 15.6642 10.0003 15.2501V8.75008C10.0003 8.33586 10.3361 8.00008 10.7503 8.00008H12.2503ZM19.2503 8.00008C19.6644 8.00023 20.0003 8.33596 20.0003 8.75008V15.2501C20.0002 15.5934 19.7668 15.8935 19.4339 15.9776C19.1009 16.0616 18.7531 15.9079 18.5902 15.6055L16.5003 11.7237V15.2501C16.5002 15.6641 16.1643 15.9999 15.7503 16.0001C15.3362 16.0001 15.0005 15.6642 15.0003 15.2501V8.75008C15.0003 8.40654 15.2336 8.10659 15.5667 8.02254C15.8998 7.93866 16.2476 8.09215 16.4105 8.39461L18.5003 12.2755V8.75008C18.5003 8.33586 18.8361 8.00008 19.2503 8.00008ZM11.5003 11.5001H12.2503C12.3882 11.4999 12.5002 11.3879 12.5003 11.2501V9.75008C12.5003 9.6121 12.3883 9.50023 12.2503 9.50008H11.5003V11.5001Z" fill="black"/>
</svg>
