<svg width="24" height="24" viewBox="0 0 24 24" fill="none" xmlns="http://www.w3.org/2000/svg">
<path d="M16.499 4C17.8773 4.00003 19.0424 5.02052 19.2246 6.38672L19.9932 12.1504C19.9975 12.1833 20 12.2169 20 12.25V14.5C20 14.526 19.9987 14.5518 19.9961 14.5771C19.9987 14.6344 20 14.6921 20 14.75V16.25C20 18.3211 18.3211 20 16.25 20H14C13.7722 20 13.5564 19.8967 13.4141 19.7188L12.9766 19.1709C12.4762 18.5454 11.5238 18.5454 11.0234 19.1709L10.5859 19.7188C10.4436 19.8967 10.2278 20 10 20H7.75C5.67893 20 4 18.3211 4 16.25V14.75C4 14.6921 4.00131 14.6344 4.00391 14.5771C4.00131 14.5518 4 14.526 4 14.5V12.25C4 12.2169 4.00245 12.1833 4.00684 12.1504L4.77539 6.38672C4.95755 5.02052 6.12269 4.00003 7.50098 4H16.499ZM7.75 12.5C6.50736 12.5 5.5 13.5074 5.5 14.75V16.25C5.5 17.4926 6.50736 18.5 7.75 18.5H9.63965L9.85254 18.2334C10.9534 16.8574 13.0466 16.8574 14.1475 18.2334L14.3604 18.5H16.25C17.4926 18.5 18.5 17.4926 18.5 16.25V14.75C18.5 13.5074 17.4926 12.5 16.25 12.5H7.75ZM7.50098 5.5C6.8745 5.50003 6.34452 5.96397 6.26172 6.58496L5.58008 11.6914C6.19257 11.2561 6.94135 11 7.75 11H16.25C17.0584 11 17.8066 11.2564 18.4189 11.6914L17.7383 6.58496C17.6555 5.96397 17.1255 5.50003 16.499 5.5H7.50098Z" fill="black"/>
</svg>
