<svg width="24" height="24" viewBox="0 0 24 24" fill="none" xmlns="http://www.w3.org/2000/svg">
<path d="M15.25 4C16.7688 4 18 5.23122 18 6.75V7.5H20V17.25C20 18.7688 18.7688 20 17.25 20H6.75C5.23122 20 4 18.7688 4 17.25V6.75C4 6.71588 4.00242 6.68232 4.00684 6.64941C4.00392 6.59993 4 6.55021 4 6.5C4 5.11929 5.11929 4 6.5 4H15.25ZM5.5 17.25C5.5 17.9404 6.05964 18.5 6.75 18.5H17.25C17.9404 18.5 18.5 17.9404 18.5 17.25V9H6.5C6.14417 9 5.80642 8.92403 5.5 8.79004V17.25ZM16 12C16.5523 12 17 12.4477 17 13C17 13.5523 16.5523 14 16 14C15.4477 14 15 13.5523 15 13C15 12.4477 15.4477 12 16 12ZM6.5 5.5C5.94772 5.5 5.5 5.94772 5.5 6.5C5.5 7.05228 5.94772 7.5 6.5 7.5H16.5V6.75C16.5 6.05964 15.9404 5.5 15.25 5.5H6.5Z" fill="black"/>
</svg>
