<svg width="24" height="24" viewBox="0 0 24 24" fill="none" xmlns="http://www.w3.org/2000/svg">
<path d="M7 4C8.30585 4 9.41406 4.83532 9.82617 6H18.25C19.2165 6 20 6.7835 20 7.75V18.25C20 19.2165 19.2165 20 18.25 20H7C5.34315 20 4 18.6569 4 17V7C4 5.34315 5.34315 4 7 4ZM7 15.5C6.17157 15.5 5.5 16.1716 5.5 17C5.5 17.8284 6.17157 18.5 7 18.5C7.82843 18.5 8.5 17.8284 8.5 17C8.5 16.1716 7.82843 15.5 7 15.5ZM10 17C10 17.5471 9.85059 18.0584 9.59473 18.5H18.25C18.3881 18.5 18.5 18.3881 18.5 18.25V7.75C18.5 7.61193 18.3881 7.5 18.25 7.5H10V17ZM7 5.5C6.17157 5.5 5.5 6.17157 5.5 7V14.4043C5.94155 14.1486 6.45304 14 7 14C7.54696 14 8.05845 14.1486 8.5 14.4043V7C8.5 6.17157 7.82843 5.5 7 5.5Z" fill="black"/>
</svg>
