<svg width="24" height="24" viewBox="0 0 24 24" fill="none" xmlns="http://www.w3.org/2000/svg">
<path d="M17.25 5C18.7688 5 20 6.23122 20 7.75V16.25C20 17.7688 18.7688 19 17.25 19H6.75C5.23122 19 4 17.7688 4 16.25V7.75C4 6.23122 5.23122 5 6.75 5H17.25ZM6.75 6.5C6.05964 6.5 5.5 7.05964 5.5 7.75V16.25C5.5 16.9404 6.05964 17.5 6.75 17.5H17.25C17.9404 17.5 18.5 16.9404 18.5 16.25V7.75C18.5 7.05964 17.9404 6.5 17.25 6.5H6.75ZM10.25 13.5C10.6642 13.5 11 13.8358 11 14.25C11 14.6642 10.6642 15 10.25 15H9.75C9.33579 15 9 14.6642 9 14.25C9 13.8358 9.33579 13.5 9.75 13.5H10.25ZM14.25 13.5C14.6642 13.5 15 13.8358 15 14.25C15 14.6642 14.6642 15 14.25 15H13.75C13.3358 15 13 14.6642 13 14.25C13 13.8358 13.3358 13.5 13.75 13.5H14.25ZM12 9C12.4142 9 12.75 9.33579 12.75 9.75V11.25C12.75 11.6642 12.4142 12 12 12C11.5858 12 11.25 11.6642 11.25 11.25V9.75C11.25 9.33579 11.5858 9 12 9Z" fill="black"/>
</svg>
