<svg width="24" height="24" viewBox="0 0 24 24" fill="none" xmlns="http://www.w3.org/2000/svg">
<path fill-rule="evenodd" clip-rule="evenodd" d="M16.1767 4.51253C16.8601 3.82918 17.9679 3.82913 18.6513 4.51253L19.4873 5.34846C20.1704 6.03187 20.1705 7.13972 19.4873 7.82307L7.82515 19.4852C7.1418 20.1684 6.03395 20.1683 5.35054 19.4852L4.5146 18.6492C3.83121 17.9659 3.83126 16.8581 4.5146 16.1746L16.1767 4.51253ZM5.57515 17.2352C5.47759 17.3328 5.47754 17.4911 5.57515 17.5887L6.41108 18.4246C6.50871 18.522 6.66704 18.5221 6.7646 18.4246L16.0644 9.12483L14.875 7.93538L5.57515 17.2352ZM17.5908 5.57307C17.4932 5.47547 17.3349 5.47552 17.2373 5.57307L15.9355 6.87483L17.125 8.06428L18.4267 6.76253C18.5242 6.66496 18.5241 6.50663 18.4267 6.40901L17.5908 5.57307Z" fill="black"/>
</svg>
