<svg width="24" height="24" viewBox="0 0 24 24" fill="none" xmlns="http://www.w3.org/2000/svg">
<path fill-rule="evenodd" clip-rule="evenodd" d="M9.54516 5.52033C10.5598 3.49668 13.4483 3.49726 14.4622 5.5213L19.72 16.0184C20.6358 17.8469 19.3061 19.9998 17.261 19.9998H6.74047C4.69495 19.9998 3.36491 17.846 4.28149 16.0174L9.54516 5.52033ZM13.1204 6.19318C12.6596 5.27327 11.3473 5.27268 10.886 6.1922L5.62231 16.6893C5.20556 17.5205 5.81064 18.4998 6.74047 18.4998H17.261C18.1905 18.4998 18.7952 17.5214 18.3791 16.6902L13.1204 6.19318ZM12.0002 14.9998C12.5525 14.9999 13.0002 15.4476 13.0002 15.9998C13.0002 16.5521 12.5525 16.9997 12.0002 16.9998C11.448 16.9998 11.0002 16.5521 11.0002 15.9998C11.0002 15.4475 11.448 14.9998 12.0002 14.9998ZM13.0002 12.9998H11.0002V8.99982H13.0002V12.9998Z" fill="black"/>
</svg>
