<svg width="24" height="24" viewBox="0 0 24 24" fill="none" xmlns="http://www.w3.org/2000/svg">
<path d="M6.625 15.2217C8.11359 14.8175 10.1543 14.8412 12.4209 16.3799C14.2971 17.6536 15.8817 17.6299 16.9824 17.3311C17.5453 17.1782 17.9966 16.9476 18.3057 16.7568C18.4594 16.662 18.5761 16.5783 18.6514 16.5205C18.6889 16.4917 18.7164 16.4695 18.7324 16.4561C18.7404 16.4493 18.7456 16.4445 18.748 16.4424V16.4414C19.0552 16.1654 19.5283 16.1907 19.8057 16.4971C20.0836 16.8042 20.06 17.2777 19.7529 17.5557L19.25 17C19.7415 17.543 19.753 17.556 19.7529 17.5566L19.752 17.5576L19.75 17.5586C19.7488 17.5597 19.7476 17.5611 19.7461 17.5625L19.6953 17.6055C19.6639 17.6318 19.6206 17.6676 19.5654 17.71C19.4546 17.795 19.2958 17.9095 19.0938 18.0342C18.6909 18.2828 18.1065 18.5797 17.375 18.7783C15.8864 19.1825 13.8457 19.1588 11.5791 17.6201C9.70291 16.3464 8.11825 16.3701 7.01758 16.6689C6.45466 16.8218 6.00344 17.0524 5.69434 17.2432C5.5406 17.338 5.42391 17.4217 5.34863 17.4795C5.3111 17.5083 5.28362 17.5305 5.26758 17.5439C5.25957 17.5507 5.25435 17.5555 5.25195 17.5576C5.25102 17.5584 5.25 17.5586 5.25 17.5586L5.25195 17.5566H5.25293C5.25295 17.5566 5.25261 17.5564 5.25195 17.5557C4.94485 17.8331 4.47214 17.8098 4.19434 17.5029C3.91639 17.1958 3.93999 16.7223 4.24707 16.4443L4.66504 16.9062C4.25722 16.4556 4.24702 16.4439 4.24707 16.4434L4.24805 16.4424L4.25 16.4414C4.25119 16.4403 4.25236 16.4389 4.25391 16.4375L4.30469 16.3945C4.3361 16.3682 4.37935 16.3324 4.43457 16.29C4.5454 16.205 4.70421 16.0905 4.90625 15.9658C5.30913 15.7172 5.89351 15.4203 6.625 15.2217ZM13 5C13.4142 5 13.75 5.33579 13.75 5.75C13.75 6.16421 13.4142 6.5 13 6.5C11.6193 6.5 10.5 7.61929 10.5 9C10.5 10.3807 11.6193 11.5 13 11.5C14.3807 11.5 15.5 10.3807 15.5 9C15.5 8.58579 15.8358 8.25 16.25 8.25C16.6642 8.25 17 8.58579 17 9C17 10.3807 18.1193 11.5 19.5 11.5C19.9142 11.5 20.25 11.8358 20.25 12.25C20.25 12.6642 19.9142 13 19.5 13C18.1606 13 16.976 12.3409 16.25 11.3301C15.524 12.3409 14.3394 13 13 13C10.7909 13 9 11.2091 9 9C9 8.25969 9.20118 7.56639 9.55176 6.97168C8.81395 7.19982 8.15625 7.50987 7.59961 7.90332C6.31301 8.81289 5.5 10.206 5.5 12.25C5.5 12.6642 5.16421 13 4.75 13C4.33579 13 4 12.6642 4 12.25C4 9.73769 5.03409 7.88005 6.7334 6.67871C8.39696 5.50269 10.6312 5 13 5Z" fill="black"/>
</svg>
