<svg width="24" height="24" viewBox="0 0 24 24" fill="none" xmlns="http://www.w3.org/2000/svg">
<path fill-rule="evenodd" clip-rule="evenodd" d="M12.1759 4.01172C12.5744 4.06448 12.8925 4.29067 13.1232 4.53711C13.3866 4.81856 13.5995 5.1894 13.7746 5.5918C14.0367 6.1942 14.2515 6.95807 14.4152 7.8252C15.2155 7.54231 15.9577 7.3549 16.5919 7.28906C17.0206 7.24458 17.4438 7.25098 17.8175 7.34863C18.149 7.43527 18.4915 7.60962 18.7267 7.92969L18.8214 8.07617L18.8957 8.23047C19.0433 8.59525 19.0164 8.97754 18.9269 9.30469C18.8246 9.67801 18.622 10.0539 18.3722 10.4141C17.9948 10.9582 17.455 11.542 16.8009 12.1309C17.4552 12.7199 17.9947 13.3043 18.3722 13.8486C18.6219 14.2087 18.8246 14.5838 18.9269 14.957C19.0293 15.3308 19.0494 15.7769 18.8214 16.1865C18.5282 16.7131 17.9824 16.9121 17.5089 16.9736C17.024 17.0366 16.4574 16.9821 15.8654 16.8564C14.9601 16.6643 13.8884 16.2823 12.7501 15.749V19.25C12.7501 19.6642 12.4143 19.9999 12.0001 20C11.5859 20 11.2501 19.6642 11.2501 19.25V15.749C10.1119 16.2823 9.04015 16.6643 8.13491 16.8564C7.54294 16.9821 6.97629 17.0366 6.49136 16.9736C6.01792 16.9121 5.47212 16.7131 5.17886 16.1865C4.95089 15.7769 4.97099 15.3309 5.07339 14.957C5.17568 14.5838 5.37838 14.2087 5.62808 13.8486C6.00549 13.3045 6.54434 12.7197 7.19839 12.1309C6.54457 11.5422 6.00539 10.9581 5.62808 10.4141C5.37831 10.0539 5.17565 9.67801 5.07339 9.30469C4.97112 8.931 4.95106 8.48559 5.17886 8.07617L5.27358 7.92969C5.50883 7.60962 5.85132 7.43525 6.18276 7.34863C6.55644 7.251 6.97972 7.24458 7.40835 7.28906C8.04237 7.35489 8.78417 7.54248 9.58413 7.8252C9.74787 6.95796 9.96359 6.19424 10.2257 5.5918C10.4009 5.18934 10.6136 4.81857 10.8771 4.53711C11.1408 4.25542 11.5184 4 12.0001 4L12.1759 4.01172ZM11.9718 5.5625C11.8705 5.67085 11.7398 5.87093 11.6007 6.19043C11.3245 6.82545 11.0814 7.77716 10.9201 8.95801C10.8885 9.18873 10.7511 9.39214 10.549 9.50781C10.347 9.62338 10.1026 9.63838 9.88784 9.54883C8.82359 9.10446 7.91284 8.84973 7.25308 8.78125C6.9213 8.74684 6.69593 8.76474 6.56167 8.7998C6.5349 8.80681 6.51587 8.81642 6.50112 8.82227C6.50364 8.84296 6.51035 8.87156 6.52065 8.90918C6.56157 9.05832 6.66415 9.27646 6.8605 9.55957C7.25133 10.1231 7.92201 10.8154 8.82534 11.5488C9.00062 11.6912 9.10256 11.9051 9.10268 12.1309C9.10268 12.3568 9.00072 12.5715 8.82534 12.7139C7.92199 13.4473 7.25134 14.1396 6.8605 14.7031C6.66412 14.9863 6.56157 15.2044 6.52065 15.3535C6.51018 15.3918 6.50359 15.4206 6.50112 15.4414C6.53322 15.4544 6.58943 15.4739 6.68472 15.4863C6.93334 15.5186 7.31314 15.497 7.82339 15.3887C8.83473 15.174 10.1815 14.6573 11.6457 13.873C11.8668 13.7546 12.1335 13.7546 12.3546 13.873C13.8189 14.6573 15.1656 15.174 16.1769 15.3887C16.6872 15.497 17.067 15.5186 17.3156 15.4863C17.4101 15.474 17.466 15.4544 17.4982 15.4414C17.4957 15.4206 17.4901 15.3917 17.4796 15.3535C17.4387 15.2044 17.3362 14.9863 17.1398 14.7031C16.749 14.1396 16.0783 13.4473 15.175 12.7139C14.9995 12.5715 14.8976 12.3568 14.8976 12.1309C14.8977 11.9051 14.9996 11.6912 15.175 11.5488C16.0783 10.8154 16.749 10.123 17.1398 9.55957C17.3361 9.27646 17.4387 9.05831 17.4796 8.90918C17.4899 8.87163 17.4957 8.84294 17.4982 8.82227C17.4835 8.81651 17.4649 8.80669 17.4386 8.7998C17.3044 8.76473 17.079 8.74685 16.7472 8.78125C16.0874 8.84973 15.1768 9.10442 14.1125 9.54883C13.8976 9.6385 13.6534 9.62333 13.4513 9.50781C13.2492 9.39215 13.1118 9.18876 13.0802 8.95801C12.9189 7.77722 12.6758 6.82546 12.3996 6.19043C12.2604 5.87059 12.1288 5.67079 12.0275 5.5625C12.018 5.55233 12.0071 5.54568 11.9992 5.53809C11.9915 5.54549 11.981 5.55272 11.9718 5.5625Z" fill="black"/>
</svg>
