<svg width="24" height="24" viewBox="0 0 24 24" fill="none" xmlns="http://www.w3.org/2000/svg">
<path d="M12 4C16.4183 4 20 7.58172 20 12C20 16.4183 16.4183 20 12 20C7.58172 20 4 16.4183 4 12C4 7.58172 7.58172 4 12 4ZM12 5.5C8.41015 5.5 5.5 8.41015 5.5 12C5.5 15.5899 8.41015 18.5 12 18.5C15.5899 18.5 18.5 15.5899 18.5 12C18.5 8.41015 15.5899 5.5 12 5.5ZM14.5273 9.54883C14.6384 9.14997 15.0522 8.91652 15.4512 9.02734C15.85 9.13837 16.0835 9.5522 15.9727 9.95117L14.7227 14.4512C14.6415 14.7426 14.393 14.9567 14.0928 14.9941C13.7924 15.0316 13.4988 14.8849 13.3486 14.6221L12 12.2617L10.6514 14.6221C10.5012 14.8849 10.2076 15.0316 9.90723 14.9941C9.60699 14.9567 9.35848 14.7426 9.27734 14.4512L8.02734 9.95117C7.91652 9.5522 8.14997 9.13837 8.54883 9.02734C8.9478 8.91652 9.36163 9.14997 9.47266 9.54883L10.2412 12.3154L11.3486 10.3779L11.4043 10.2949C11.545 10.1107 11.7644 10 12 10C12.2691 10 12.5178 10.1442 12.6514 10.3779L13.7578 12.3154L14.5273 9.54883Z" fill="black"/>
</svg>
