<svg width="24" height="24" viewBox="0 0 24 24" fill="none" xmlns="http://www.w3.org/2000/svg">
<path d="M12 4C12.4142 4 12.75 4.33579 12.75 4.75V6.49902C13.4342 5.58862 14.5235 5 15.75 5H17.25C17.6642 5 18 5.33579 18 5.75V7.25C18 9.32107 16.3211 11 14.25 11H12.75V13.499C13.4342 12.5886 14.5235 12 15.75 12H17.25C17.6642 12 18 12.3358 18 12.75V14.25C18 16.3211 16.3211 18 14.25 18H12.75V19.25C12.75 19.6642 12.4142 20 12 20C11.5858 20 11.25 19.6642 11.25 19.25V18H9.75C7.67893 18 6 16.3211 6 14.25V12.75C6 12.3358 6.33579 12 6.75 12H8.25C9.47652 12 10.5658 12.5886 11.25 13.499V11H9.75C7.67893 11 6 9.32107 6 7.25V5.75C6 5.33579 6.33579 5 6.75 5H8.25C9.47652 5 10.5658 5.58862 11.25 6.49902V4.75C11.25 4.33579 11.5858 4 12 4ZM7.5 14.25C7.5 15.4926 8.50736 16.5 9.75 16.5H10.5V15.75C10.5 14.5074 9.49264 13.5 8.25 13.5H7.5V14.25ZM15.75 13.5C14.5074 13.5 13.5 14.5074 13.5 15.75V16.5H14.25C15.4926 16.5 16.5 15.4926 16.5 14.25V13.5H15.75ZM7.5 7.25C7.5 8.49264 8.50736 9.5 9.75 9.5H10.5V8.75C10.5 7.50736 9.49264 6.5 8.25 6.5H7.5V7.25ZM15.75 6.5C14.5074 6.5 13.5 7.50736 13.5 8.75V9.5H14.25C15.4926 9.5 16.5 8.49264 16.5 7.25V6.5H15.75Z" fill="black"/>
</svg>
