<svg width="24" height="24" viewBox="0 0 24 24" fill="none" xmlns="http://www.w3.org/2000/svg">
<path d="M12 4C16.4183 4 20 7.58172 20 12C20 16.4183 16.4183 20 12 20C7.58172 20 4 16.4183 4 12C4 7.58172 7.58172 4 12 4ZM9.08105 17.8076C9.95892 18.2497 10.95 18.5 12 18.5C13.0496 18.5 14.0403 18.2495 14.918 17.8076L12.7402 14.9033C12.5031 14.9636 12.2559 15 12 15C11.7438 15 11.4962 14.9637 11.2588 14.9033L9.08105 17.8076ZM5.54395 12.75C5.73868 14.4447 6.58488 15.9403 7.82617 16.9814L9.93359 14.1709C9.53369 13.7901 9.23974 13.3014 9.09766 12.75H5.54395ZM14.9023 12.75C14.7602 13.3017 14.4656 13.7901 14.0654 14.1709L16.1729 16.9814C17.4145 15.9403 18.2613 14.445 18.4561 12.75H14.9023ZM12 10.5C11.7984 10.5 11.6063 10.5402 11.4307 10.6123C11.3724 10.6533 11.3094 10.6817 11.2451 10.7041C10.7996 10.9642 10.5 11.4469 10.5 12C10.5 12.5529 10.7998 13.0348 11.2451 13.2949C11.3094 13.3173 11.3724 13.3458 11.4307 13.3867C11.6064 13.4589 11.7983 13.5 12 13.5C12.2014 13.5 12.3929 13.4587 12.5684 13.3867C12.6265 13.3458 12.6897 13.3173 12.7539 13.2949C13.1996 13.0349 13.5 12.5532 13.5 12C13.5 11.4466 13.1998 10.9641 12.7539 10.7041C12.6897 10.6816 12.6265 10.6533 12.5684 10.6123C12.393 10.5404 12.2013 10.5 12 10.5ZM7.82617 7.01758C6.58462 8.05874 5.73871 9.55508 5.54395 11.25H9.09766C9.23979 10.6984 9.53344 10.209 9.93359 9.82812L7.82617 7.01758ZM14.0654 9.82812C14.4658 10.209 14.7601 10.6981 14.9023 11.25H18.4561C18.2613 9.55482 17.4147 8.05876 16.1729 7.01758L14.0654 9.82812ZM12 5.5C10.9502 5.5 9.95882 5.74944 9.08105 6.19141L11.2588 9.0957C11.4961 9.03532 11.7439 9 12 9C12.2558 9 12.5032 9.03547 12.7402 9.0957L14.918 6.19141C14.0404 5.74969 13.0495 5.5 12 5.5Z" fill="black"/>
</svg>
