<svg width="24" height="24" viewBox="0 0 24 24" fill="none" xmlns="http://www.w3.org/2000/svg">
<path d="M4.75 4C5.16421 4 5.5 4.33579 5.5 4.75V19.25C5.5 19.6642 5.16421 20 4.75 20C4.33579 20 4 19.6642 4 19.25V4.75C4 4.33579 4.33579 4 4.75 4ZM19.25 4C19.6642 4 20 4.33579 20 4.75V19.25C20 19.6642 19.6642 20 19.25 20C18.8358 20 18.5 19.6642 18.5 19.25V4.75C18.5 4.33579 18.8358 4 19.25 4ZM8.74805 9.19238C9.05591 8.9153 9.53052 8.94022 9.80762 9.24805C10.0847 9.55591 10.0598 10.0305 9.75195 10.3076L7.87109 12L9.75195 13.6924C10.0598 13.9695 10.0847 14.4441 9.80762 14.752C9.53052 15.0598 9.05591 15.0847 8.74805 14.8076L6.24805 12.5576C6.09004 12.4154 6 12.2126 6 12C6 11.7874 6.09004 11.5846 6.24805 11.4424L8.74805 9.19238ZM14.1924 9.24805C14.4695 8.94022 14.9441 8.9153 15.252 9.19238L17.752 11.4424C17.91 11.5846 18 11.7874 18 12C18 12.2126 17.91 12.4154 17.752 12.5576L15.252 14.8076C14.9441 15.0847 14.4695 15.0598 14.1924 14.752C13.9153 14.4441 13.9402 13.9695 14.248 13.6924L16.1279 12L14.248 10.3076C13.9402 10.0305 13.9153 9.55591 14.1924 9.24805Z" fill="black"/>
</svg>
