<svg width="24" height="24" viewBox="0 0 24 24" fill="none" xmlns="http://www.w3.org/2000/svg">
<path fill-rule="evenodd" clip-rule="evenodd" d="M12 15C13.1704 15 13.9332 15.3727 14.4052 15.8447C14.6327 16.0722 14.7739 16.3042 14.8593 16.4873C14.902 16.5788 14.9315 16.6593 14.9511 16.7217C14.9609 16.7527 14.968 16.7798 14.9736 16.8018C14.9764 16.8127 14.9785 16.8226 14.9804 16.8311C14.9814 16.8352 14.9826 16.8393 14.9834 16.8428C14.9837 16.8445 14.984 16.847 14.9843 16.8486L14.9853 16.8506V16.8516C14.9854 16.8521 14.9854 16.8529 14.25 17L14.9853 16.8525C15.0345 17.0984 14.9575 17.353 14.7802 17.5303L12.5302 19.7803C12.2374 20.0732 11.7626 20.0732 11.4697 19.7803L9.2197 17.5303C9.04242 17.353 8.96545 17.0984 9.01462 16.8525L9.74997 17C9.01454 16.8529 9.01451 16.8521 9.01462 16.8516V16.8506L9.0156 16.8486C9.01592 16.847 9.0162 16.8445 9.01657 16.8428C9.01733 16.8393 9.01857 16.8352 9.0195 16.8311C9.02141 16.8226 9.02358 16.8127 9.02634 16.8018C9.03191 16.7798 9.03906 16.7527 9.0488 16.7217C9.0684 16.6593 9.09791 16.5788 9.1406 16.4873C9.22609 16.3042 9.3672 16.0722 9.5947 15.8447C10.0668 15.3727 10.8296 15 12 15ZM12 16.5C11.2221 16.5 10.8553 16.7222 10.6865 16.876L12 18.1895L13.3125 16.876C13.1435 16.7223 12.7771 16.5 12 16.5ZM12 11C14.0676 11 15.5344 11.6882 16.4892 12.3984C16.963 12.7508 17.3068 13.1054 17.5351 13.377C17.6493 13.5128 17.7355 13.6286 17.7949 13.7139C17.8246 13.7564 17.8474 13.7921 17.8642 13.8184C17.8725 13.8313 17.8795 13.842 17.8847 13.8506C17.8874 13.8549 17.8897 13.8592 17.8916 13.8623C17.8924 13.8637 17.8938 13.865 17.8945 13.8662L17.8955 13.8682V13.8691C17.8915 13.8719 17.8492 13.8968 17.417 14.1514L17.8965 13.8691C18.1066 14.226 17.9876 14.6862 17.6308 14.8965C17.2739 15.1067 16.8137 14.9868 16.6035 14.6299C16.6027 14.6287 16.6015 14.6275 16.6006 14.626C16.594 14.6157 16.5822 14.5968 16.5644 14.5713C16.5286 14.5199 16.4694 14.4402 16.3867 14.3418C16.2209 14.1446 15.96 13.874 15.5937 13.6016C14.868 13.0619 13.7098 12.5 12 12.5C10.2902 12.5 9.13195 13.0619 8.40622 13.6016C8.03996 13.874 7.77905 14.1446 7.61325 14.3418C7.53055 14.4402 7.47134 14.5199 7.43552 14.5713C7.41774 14.5968 7.40596 14.6157 7.39939 14.626L7.39548 14.6299C7.18529 14.9868 6.72604 15.1067 6.36911 14.8965C6.01231 14.6863 5.89333 14.226 6.10349 13.8691L6.58298 14.1514C6.15073 13.8967 6.10841 13.8719 6.10446 13.8691V13.8682L6.10544 13.8662C6.10616 13.865 6.10751 13.8637 6.10837 13.8623C6.11023 13.8592 6.11259 13.8549 6.11521 13.8506C6.12044 13.8421 6.12745 13.8313 6.13571 13.8184C6.15252 13.7921 6.17539 13.7564 6.20505 13.7139C6.26447 13.6286 6.35065 13.5128 6.46482 13.377C6.69311 13.1054 7.03697 12.7508 7.51071 12.3984C8.46557 11.6882 9.93234 11 12 11ZM12 7C14.2701 7 16.1964 7.66752 17.5468 8.32617C18.2237 8.65629 18.762 8.98678 19.1338 9.2373C19.3198 9.36265 19.465 9.46801 19.5654 9.54395C19.6154 9.58173 19.654 9.61284 19.6816 9.63477C19.6954 9.6457 19.7068 9.65463 19.7148 9.66113C19.7187 9.6643 19.7221 9.66689 19.7246 9.66895C19.7257 9.66988 19.7267 9.67116 19.7275 9.67188L19.7295 9.67285V9.67383H19.7304C20.0484 9.93895 20.0911 10.4123 19.8261 10.7305C19.561 11.0484 19.0877 11.0912 18.7695 10.8262L18.7675 10.8242C18.7639 10.8212 18.7571 10.8158 18.748 10.8086C18.7296 10.7939 18.6999 10.7713 18.6601 10.7412C18.5798 10.6805 18.4574 10.5903 18.2959 10.4814C17.9721 10.2632 17.4941 9.96864 16.8896 9.67383C15.6772 9.0825 13.9781 8.5 12 8.5C10.0219 8.5 8.32276 9.0825 7.11032 9.67383C6.50589 9.96864 6.02785 10.2633 5.70407 10.4814C5.54258 10.5903 5.42011 10.6805 5.33982 10.7412C5.30005 10.7713 5.27038 10.7939 5.25192 10.8086C5.2429 10.8158 5.23606 10.8212 5.23239 10.8242C5.23097 10.8254 5.23 10.8267 5.22946 10.8271C4.91131 11.0915 4.43874 11.0482 4.1738 10.7305C3.90887 10.4123 3.95156 9.93895 4.2695 9.67383H4.27048V9.67285L4.27243 9.67188C4.27326 9.67116 4.27423 9.66987 4.27536 9.66895C4.27786 9.66689 4.28125 9.66429 4.28513 9.66113C4.29312 9.65463 4.3046 9.64569 4.31833 9.63477C4.3459 9.61284 4.3846 9.58172 4.43454 9.54395C4.53493 9.46801 4.6802 9.36264 4.86618 9.2373C5.23793 8.98679 5.77628 8.65628 6.4531 8.32617C7.80357 7.66752 9.72981 7 12 7Z" fill="black"/>
</svg>
