<svg width="24" height="24" viewBox="0 0 24 24" fill="none" xmlns="http://www.w3.org/2000/svg">
<path fill-rule="evenodd" clip-rule="evenodd" d="M11.9997 17C12.552 17 12.9997 17.4477 12.9997 18C12.9997 18.5523 12.552 19 11.9997 19C11.4475 19 10.9997 18.5523 10.9997 18C10.9997 17.4477 11.4475 17 11.9997 17ZM17.7195 5.21973C18.0123 4.92684 18.4871 4.92687 18.78 5.21973C19.0729 5.51262 19.0729 5.98738 18.78 6.28027L18.3034 6.75586C18.7817 7.03246 19.239 7.32823 19.6784 7.63477C20.0181 7.87167 20.1017 8.339 19.865 8.67871C19.628 9.01832 19.1607 9.10195 18.821 8.86523C18.2985 8.50079 17.761 8.1617 17.2009 7.8584L15.3952 9.66406C16.0149 9.91668 16.601 10.2349 17.1423 10.6123C17.4816 10.8492 17.5644 11.3166 17.3278 11.6562C17.091 11.9959 16.6237 12.0794 16.2839 11.8428C15.6596 11.4075 14.9656 11.066 14.2234 10.8359L12.0583 13.001C13.1342 13.0133 14.1304 13.3655 14.9411 13.9561C15.2758 14.1999 15.3497 14.6692 15.1062 15.0039C14.8623 15.3386 14.3931 15.4127 14.0583 15.1689C13.4807 14.7482 12.7702 14.5 11.9997 14.5C11.2293 14.5 10.5187 14.7482 9.94113 15.1689C9.90257 15.197 9.86161 15.2195 9.82004 15.2393L7.28 17.7803C6.9871 18.0731 6.51233 18.0732 6.21945 17.7803C5.9266 17.4874 5.9266 17.0126 6.21945 16.7197L17.7195 5.21973ZM10.197 9.18066C10.6026 9.09863 10.9982 9.36102 11.0808 9.7666C11.1632 10.1723 10.9014 10.5686 10.4958 10.6514C9.48024 10.8581 8.53839 11.2699 7.71652 11.8428C7.3768 12.0796 6.90949 11.9959 6.67258 11.6562C6.43589 11.3165 6.51939 10.8491 6.8591 10.6123C7.84497 9.9251 8.9763 9.42913 10.197 9.18066ZM11.9997 5C12.73 5 13.4217 5.06244 14.0798 5.17676C14.4879 5.24766 14.762 5.63588 14.6911 6.04395C14.6202 6.45191 14.2319 6.72496 13.8239 6.6543C13.2506 6.55468 12.6442 6.5 11.9997 6.5C9.20889 6.50002 7.09183 7.5306 5.17844 8.86523C4.83873 9.10192 4.37138 9.01833 4.13449 8.67871C3.8978 8.33902 3.98142 7.87167 4.32101 7.63477C6.37594 6.20145 8.79078 5.00002 11.9997 5Z" fill="black"/>
</svg>
