<svg width="24" height="24" viewBox="0 0 24 24" fill="none" xmlns="http://www.w3.org/2000/svg">
<path fill-rule="evenodd" clip-rule="evenodd" d="M11.9999 17C12.5521 17 12.9999 17.4477 12.9999 18C12.9999 18.5523 12.5521 19 11.9999 19C11.4476 19 10.9999 18.5523 10.9999 18C10.9999 17.4477 11.4476 17 11.9999 17ZM11.9999 13C13.0981 13 14.1158 13.3548 14.9413 13.9561C15.2759 14.1999 15.3499 14.6692 15.1063 15.0039C14.8624 15.3386 14.3932 15.4127 14.0585 15.1689C13.4809 14.7482 12.7703 14.5 11.9999 14.5C11.2294 14.5 10.5188 14.7482 9.94127 15.1689C9.6065 15.4127 9.13727 15.3386 8.89341 15.0039C8.6499 14.6692 8.72385 14.1999 9.05845 13.9561C9.88389 13.3548 10.9016 13 11.9999 13ZM12.0008 9C13.9109 9.00015 15.6849 9.59616 17.1424 10.6123C17.4817 10.8493 17.5646 11.3166 17.328 11.6562C17.0912 11.9959 16.6238 12.0794 16.284 11.8428C15.07 10.9965 13.5943 10.5001 12.0008 10.5C10.4072 10.5 8.93083 10.9964 7.71666 11.8428C7.37694 12.0795 6.90961 11.9958 6.67271 11.6562C6.43596 11.3165 6.5195 10.8492 6.85923 10.6123C8.31689 9.59622 10.0906 9 12.0008 9ZM11.9999 5C14.7609 5 17.3226 5.8621 19.4286 7.33105C19.7683 7.56803 19.8521 8.03527 19.6151 8.375C19.3781 8.71459 18.9108 8.7974 18.5711 8.56055C16.7087 7.26148 14.4442 6.5 11.9999 6.5C9.55555 6.50001 7.29098 7.26147 5.42857 8.56055C5.08888 8.79737 4.62158 8.7146 4.38462 8.375C4.14769 8.03529 4.23146 7.56803 4.57115 7.33105C6.67712 5.8621 9.23885 5.00001 11.9999 5Z" fill="black"/>
</svg>
