<svg width="24" height="24" viewBox="0 0 24 24" fill="none" xmlns="http://www.w3.org/2000/svg">
<path fill-rule="evenodd" clip-rule="evenodd" d="M11.9999 15C13.1704 15 13.9331 15.3726 14.4052 15.8447C14.6327 16.0723 14.7738 16.3042 14.8593 16.4873C14.902 16.5788 14.9315 16.6593 14.9511 16.7217C14.9609 16.7528 14.968 16.7798 14.9736 16.8018C14.9763 16.8127 14.9785 16.8226 14.9804 16.8311C14.9813 16.8352 14.9826 16.8392 14.9833 16.8428C14.9837 16.8446 14.984 16.847 14.9843 16.8486L14.9853 16.8506V16.8516C14.9854 16.8521 14.9854 16.8529 14.2499 17L14.9853 16.8525C15.0345 17.0984 14.9575 17.353 14.7802 17.5303L12.5302 19.7803C12.2373 20.0732 11.7625 20.0732 11.4697 19.7803L9.21966 17.5303C9.04234 17.353 8.9654 17.0984 9.01458 16.8525L9.74993 17C9.01551 16.8531 9.01447 16.8521 9.01458 16.8516V16.8506L9.01555 16.8486C9.01589 16.847 9.01615 16.8446 9.01653 16.8428C9.01729 16.8392 9.01852 16.8352 9.01946 16.8311C9.02138 16.8226 9.02352 16.8127 9.0263 16.8018C9.03187 16.7798 9.039 16.7528 9.04876 16.7217C9.06836 16.6593 9.09784 16.5788 9.14055 16.4873C9.22604 16.3042 9.36712 16.0723 9.59466 15.8447C10.0667 15.3726 10.8295 15 11.9999 15ZM11.9999 16.5C11.2219 16.5 10.8552 16.7222 10.6865 16.876L11.9999 18.1895L13.3124 16.876C13.1434 16.7223 12.7771 16.5 11.9999 16.5Z" fill="black"/>
</svg>
