<svg width="24" height="24" viewBox="0 0 24 24" fill="none" xmlns="http://www.w3.org/2000/svg">
<path fill-rule="evenodd" clip-rule="evenodd" d="M11.9998 15C13.1701 15 13.933 15.3727 14.4051 15.8447C14.6326 16.0722 14.7737 16.3042 14.8592 16.4873C14.9019 16.5788 14.9314 16.6593 14.951 16.7217C14.9607 16.7527 14.9679 16.7798 14.9734 16.8018C14.9762 16.8127 14.9784 16.8226 14.9803 16.8311C14.9812 16.8352 14.9824 16.8393 14.9832 16.8428C14.9836 16.8446 14.9838 16.847 14.9842 16.8486L14.9852 16.8506V16.8516C14.9811 16.8529 14.9277 16.8644 14.2498 17L14.9852 16.8525C15.0343 17.0984 14.9574 17.353 14.7801 17.5303L12.5301 19.7803C12.2372 20.073 11.7624 20.0731 11.4695 19.7803L9.21953 17.5303C9.04237 17.353 8.96532 17.0983 9.01445 16.8525L9.74981 17C9.02257 16.8546 9.01443 16.8521 9.01445 16.8516V16.8506L9.01543 16.8486C9.01576 16.847 9.01603 16.8446 9.01641 16.8428C9.01716 16.8393 9.0184 16.8352 9.01934 16.8311C9.02125 16.8226 9.02341 16.8127 9.02617 16.8018C9.03174 16.7798 9.03889 16.7527 9.04863 16.7217C9.06823 16.6593 9.09775 16.5788 9.14043 16.4873C9.22589 16.3042 9.36711 16.0722 9.59453 15.8447C10.0666 15.3727 10.8296 15.0001 11.9998 15ZM11.9998 16.5C11.2221 16.5001 10.855 16.7223 10.6863 16.876L11.9998 18.1895L13.3123 16.876C13.1432 16.7223 12.7767 16.5 11.9998 16.5ZM11.9998 11C14.0673 11 15.5342 11.6883 16.4891 12.3984C16.9627 12.7508 17.3067 13.1054 17.535 13.377C17.6491 13.5127 17.7353 13.6286 17.7947 13.7139C17.8244 13.7564 17.8473 13.7921 17.8641 13.8184C17.8723 13.8312 17.8793 13.8421 17.8846 13.8506C17.8872 13.8548 17.8896 13.8592 17.8914 13.8623C17.8922 13.8637 17.8936 13.8651 17.8943 13.8662L17.8953 13.8682V13.8691C17.8899 13.8727 17.8407 13.9017 17.4168 14.1514L17.8963 13.8691C18.1065 14.226 17.9875 14.6863 17.6307 14.8965C17.2738 15.1064 16.8135 14.9867 16.6033 14.6299C16.6026 14.6288 16.6013 14.6275 16.6004 14.626C16.5938 14.6157 16.582 14.5967 16.5643 14.5713C16.5284 14.5199 16.4692 14.4401 16.3865 14.3418C16.2207 14.1446 15.9597 13.8739 15.5936 13.6016C14.8678 13.0619 13.7095 12.5 11.9998 12.5C10.2902 12.5001 9.13172 13.0619 8.40606 13.6016C8.03988 13.874 7.77884 14.1447 7.61309 14.3418C7.53042 14.4401 7.47115 14.5199 7.43535 14.5713C7.41759 14.5968 7.40577 14.6157 7.39922 14.626L7.39531 14.6299C7.18508 14.9867 6.72581 15.1066 6.36895 14.8965C6.0124 14.6862 5.89335 14.2259 6.10332 13.8691L6.58281 14.1514C6.1508 13.8969 6.10825 13.8719 6.1043 13.8691V13.8682L6.10527 13.8662C6.10596 13.8651 6.10732 13.8637 6.1082 13.8623C6.11005 13.8592 6.11244 13.8548 6.11504 13.8506C6.12026 13.8421 6.12731 13.8313 6.13555 13.8184C6.15234 13.7921 6.17525 13.7564 6.20488 13.7139C6.26428 13.6286 6.35052 13.5127 6.46465 13.377C6.6929 13.1055 7.03689 12.7508 7.51055 12.3984C8.46534 11.6883 9.93234 11.0001 11.9998 11Z" fill="black"/>
</svg>
