<svg width="24" height="24" viewBox="0 0 24 24" fill="none" xmlns="http://www.w3.org/2000/svg">
<path fill-rule="evenodd" clip-rule="evenodd" d="M19.0977 4.01561C19.3185 3.96993 19.5487 4.02564 19.7236 4.16795C19.8985 4.31038 20 4.52442 20 4.74999V19.25C20 19.4755 19.8985 19.6896 19.7236 19.832C19.5487 19.9743 19.3185 20.03 19.0977 19.9844L4.59766 16.9844C4.24959 16.9122 4 16.6055 4 16.25V7.74999C4 7.39448 4.24959 7.08781 4.59766 7.01561L19.0977 4.01561ZM12.5 12.5V17.0859L18.5 18.3281V12.5H12.5ZM5.5 12.5V15.6387L11 16.7764V12.5H5.5ZM5.5 8.36034V11H11V7.22167L5.5 8.36034ZM12.5 6.91209V11H18.5V5.67088L12.5 6.91209Z" fill="black"/>
</svg>
