<svg width="24" height="24" viewBox="0 0 24 24" fill="none" xmlns="http://www.w3.org/2000/svg">
<path fill-rule="evenodd" clip-rule="evenodd" d="M12.9997 4.25C13.3817 4.25007 13.7035 4.53728 13.7458 4.91699L14.3717 10.5605L19.651 13.8115C19.9763 14.0119 20.0992 14.4251 19.9362 14.7705L19.0924 16.5566C18.9292 16.9019 18.5328 17.0691 18.1715 16.9453L12.7497 15.084V19.25C12.7497 19.6642 12.4139 20 11.9997 20C11.5855 19.9999 11.2497 19.6642 11.2497 19.25V15.0928L5.85317 16.9453C5.49173 17.0694 5.09454 16.9022 4.9313 16.5566L4.08852 14.7705C3.9254 14.425 4.04736 14.0119 4.3727 13.8115L9.62563 10.5771L10.2545 4.91699L10.2829 4.7793C10.3778 4.47001 10.6654 4.25012 10.9997 4.25H12.9997ZM11.0758 11.1064C11.0503 11.336 10.9209 11.5419 10.7243 11.6631L5.73013 14.7363L6.00063 15.3076L11.7692 13.3291L11.8893 13.2988C12.0113 13.2786 12.1373 13.2886 12.2555 13.3291L18.0231 15.3086L18.2926 14.7363L13.2741 11.6465C13.0775 11.5254 12.9481 11.3203 12.9225 11.0908L12.3288 5.75H11.6715L11.0758 11.1064Z" fill="black"/>
</svg>
