<svg width="24" height="24" viewBox="0 0 24 24" fill="none" xmlns="http://www.w3.org/2000/svg">
<path d="M16 4C16.2723 4 16.523 4.14774 16.6553 4.38574H16.6562V4.3877C16.6567 4.38846 16.6576 4.38959 16.6582 4.39062C16.6593 4.39266 16.6605 4.39539 16.6621 4.39844C16.6655 4.40476 16.6701 4.41323 16.6758 4.42383C16.6871 4.44519 16.7033 4.47551 16.7227 4.51367C16.7613 4.58991 16.8148 4.69894 16.8779 4.83789C17.0044 5.11621 17.1713 5.51578 17.3369 6.0127C17.6673 7.00384 18 8.39841 18 10C18 13.1593 15.7857 15.6068 12.75 15.9551V18.5H16.25C16.6642 18.5 17 18.8358 17 19.25C17 19.6642 16.6642 20 16.25 20H7.75C7.33579 20 7 19.6642 7 19.25C7 18.8358 7.33579 18.5 7.75 18.5H11.25V15.9551C8.2143 15.6068 6 13.1593 6 10C6 8.39841 6.33271 7.00384 6.66309 6.0127C6.82872 5.51578 6.99556 5.11621 7.12207 4.83789C7.18523 4.69894 7.23868 4.58991 7.27734 4.51367C7.2967 4.47551 7.31286 4.44519 7.32422 4.42383C7.32986 4.41323 7.33445 4.40476 7.33789 4.39844C7.33955 4.39539 7.34068 4.39266 7.3418 4.39062C7.34237 4.38959 7.34333 4.38846 7.34375 4.3877V4.38574H7.34473C7.47703 4.14774 7.72769 4 8 4H16ZM7.52539 10.5C7.75516 12.8287 9.58392 14.5 12 14.5C14.4161 14.5 16.2448 12.8287 16.4746 10.5H7.52539ZM8.46973 5.5C8.36395 5.73592 8.22556 6.07137 8.08691 6.4873C7.86486 7.15348 7.64409 8.01653 7.54883 9H16.4512C16.3559 8.01653 16.1351 7.15348 15.9131 6.4873C15.7744 6.07137 15.636 5.73592 15.5303 5.5H8.46973Z" fill="black"/>
</svg>
