<svg width="24" height="24" viewBox="0 0 24 24" fill="none" xmlns="http://www.w3.org/2000/svg">
<path d="M15.25 4C17.8734 4 20 6.12665 20 8.75V15.25C20 17.8734 17.8734 20 15.25 20H8.75C6.12665 20 4 17.8734 4 15.25V8.75C4 6.12665 6.12665 4 8.75 4H15.25ZM8.75 5.5C6.95507 5.5 5.5 6.95508 5.5 8.75V15.25C5.5 17.0449 6.95508 18.5 8.75 18.5H15.25C17.0449 18.5 18.5 17.0449 18.5 15.25V8.75C18.5 6.95507 17.0449 5.5 15.25 5.5H8.75ZM14.7041 13.7354C14.9856 13.4367 15.4563 13.4193 15.7588 13.6982C16.0633 13.979 16.0825 14.4543 15.8018 14.7588L15.25 14.25C15.7655 14.7253 15.7989 14.7565 15.8008 14.7588L15.7998 14.7598L15.7988 14.7617L15.7695 14.791C15.7549 14.8057 15.7358 14.8247 15.7129 14.8457C15.6672 14.8877 15.6044 14.9409 15.5244 15.002C15.3636 15.1247 15.1323 15.2781 14.8223 15.4268C14.1989 15.7256 13.2754 16 12 16C10.7246 16 9.8011 15.7256 9.17773 15.4268C8.86769 15.2781 8.6364 15.1247 8.47559 15.002C8.39555 14.9409 8.33282 14.8877 8.28711 14.8457C8.26422 14.8247 8.24511 14.8057 8.23047 14.791L8.20117 14.7617L8.2002 14.7598L8.19922 14.7588C8.2011 14.7565 8.23449 14.7253 8.75 14.25L8.19824 14.7588C7.91746 14.4543 7.93671 13.979 8.24121 13.6982C8.54217 13.4207 9.00908 13.4371 9.29102 13.7314C9.29129 13.7317 9.29191 13.7334 9.29395 13.7354V13.7344L9.29492 13.7354C9.29649 13.7368 9.29926 13.7379 9.30176 13.7402C9.3155 13.7529 9.34326 13.7781 9.38574 13.8105C9.47059 13.8753 9.61513 13.9721 9.82617 14.0732C10.2458 14.2744 10.9475 14.5 12 14.5C13.0525 14.5 13.7542 14.2744 14.1738 14.0732C14.3849 13.9721 14.5294 13.8753 14.6143 13.8105C14.6567 13.7781 14.6845 13.7529 14.6982 13.7402C14.7005 13.7382 14.7026 13.7368 14.7041 13.7354ZM9 9C9.55228 9 10 9.44772 10 10C10 10.5523 9.55228 11 9 11C8.44772 11 8 10.5523 8 10C8 9.44772 8.44772 9 9 9ZM14 9C14.5545 9 14.9962 9.17783 15.2949 9.35156C15.4445 9.4386 15.5625 9.5264 15.6455 9.5957C15.6872 9.63052 15.7208 9.66145 15.7461 9.68555L15.7891 9.72852C15.7906 9.73013 15.7917 9.73201 15.793 9.7334L15.7959 9.73633H15.7969C15.7971 9.73654 15.7971 9.73695 15.377 10.1309L15.7969 9.7373C16.0802 10.0395 16.0649 10.5136 15.7627 10.7969C15.4605 11.0802 14.9864 11.0649 14.7031 10.7627L14.7041 10.7637V10.7646L14.708 10.7686C14.7094 10.77 14.7113 10.7708 14.7119 10.7715C14.7132 10.7728 14.7125 10.773 14.7109 10.7715C14.7075 10.7682 14.698 10.7601 14.6836 10.748C14.6544 10.7236 14.6061 10.6863 14.541 10.6484C14.41 10.5722 14.2266 10.5 14 10.5C13.7734 10.5 13.59 10.5722 13.459 10.6484C13.3939 10.6863 13.3456 10.7236 13.3164 10.748C13.302 10.7601 13.2925 10.7682 13.2891 10.7715C13.2875 10.773 13.2868 10.7728 13.2881 10.7715C13.2887 10.7708 13.2906 10.77 13.292 10.7686L13.2959 10.7646V10.7637H13.2969C13.2969 10.7636 13.2967 10.7635 13.2959 10.7627C13.0125 11.0644 12.5393 11.08 12.2373 10.7969C11.9351 10.5136 11.9198 10.0395 12.2031 9.7373L12.623 10.1309C12.2029 9.73695 12.2029 9.73654 12.2031 9.73633H12.2041L12.207 9.7334C12.2083 9.73201 12.2094 9.73013 12.2109 9.72852L12.2539 9.68555C12.2792 9.66145 12.3128 9.63052 12.3545 9.5957C12.4375 9.5264 12.5555 9.4386 12.7051 9.35156C13.0038 9.17783 13.4455 9 14 9Z" fill="black"/>
</svg>
