<svg width="24" height="24" viewBox="0 0 24 24" fill="none" xmlns="http://www.w3.org/2000/svg">
<path d="M17.25 4C18.7688 4 20 5.23122 20 6.75V10.25C20 10.6642 19.6642 11 19.25 11C18.8358 11 18.5 10.6642 18.5 10.25V6.75C18.5 6.05964 17.9404 5.5 17.25 5.5H6.75C6.05964 5.5 5.5 6.05964 5.5 6.75V17.25C5.5 17.9404 6.05964 18.5 6.75 18.5H11.25C11.6642 18.5 12 18.8358 12 19.25C12 19.6642 11.6642 20 11.25 20H6.75C5.23122 20 4 18.7688 4 17.25V6.75C4 5.23122 5.23122 4 6.75 4H17.25ZM15.5801 13.0215C15.9131 13.0697 16.2224 13.1988 16.4971 13.3848C16.771 13.1992 17.08 13.0711 17.4131 13.0234C18.0328 12.9348 18.6566 13.1328 19.1621 13.5996C20.1544 14.516 20.256 16.0388 19.5127 17.1016C19.4928 17.1299 19.4709 17.1573 19.4473 17.1826L17.0469 19.7607C16.905 19.9132 16.7063 20 16.498 20C16.2898 20 16.0911 19.9131 15.9492 19.7607L13.5488 17.1826C13.5252 17.1573 13.5033 17.1299 13.4834 17.1016C12.7344 16.0306 12.8622 14.5216 13.8262 13.6064C14.3298 13.1283 14.9588 12.9316 15.5801 13.0215ZM15.3652 14.5059C15.2185 14.4846 15.0446 14.5186 14.8594 14.6943C14.4551 15.0781 14.383 15.734 14.6904 16.208L16.498 18.1494L18.3047 16.207C18.6177 15.7254 18.5444 15.0705 18.1445 14.7012C17.9494 14.5211 17.7703 14.488 17.625 14.5088C17.4652 14.5318 17.2673 14.6336 17.0928 14.8604C16.9508 15.0448 16.7308 15.1523 16.498 15.1523C16.2653 15.1523 16.0453 15.0448 15.9033 14.8604C15.7291 14.6341 15.528 14.5295 15.3652 14.5059ZM11.25 12C11.6642 12 12 12.3358 12 12.75C12 13.1642 11.6642 13.5 11.25 13.5H8.75C8.33579 13.5 8 13.1642 8 12.75C8 12.3358 8.33579 12 8.75 12H11.25ZM15.25 8C15.6642 8 16 8.33579 16 8.75C16 9.16421 15.6642 9.5 15.25 9.5H8.75C8.33579 9.5 8 9.16421 8 8.75C8 8.33579 8.33579 8 8.75 8H15.25Z" fill="black"/>
</svg>
