<svg width="24" height="24" viewBox="0 0 24 24" fill="none" xmlns="http://www.w3.org/2000/svg">
<path d="M12 4C16.4183 4 20 7.58172 20 12C20 16.4183 16.4183 20 12 20C7.58172 20 4 16.4183 4 12C4 7.58172 7.58172 4 12 4ZM18 9.5H16C15.3515 9.5 14.734 10.0525 14.5615 10.8936C14.3731 11.8133 14.0508 12.4747 13.6387 12.9707C13.2296 13.463 12.7694 13.7455 12.4033 13.9512C11.997 14.1795 11.813 14.2696 11.6748 14.4121C11.5952 14.4942 11.5 14.6257 11.5 15C11.5 16.0913 11.2962 17.0409 11.0938 17.7158C11.0119 17.9888 10.9273 18.2182 10.8574 18.3975C11.2285 18.4633 11.61 18.5 12 18.5C15.5899 18.5 18.5 15.5899 18.5 12C18.5 11.1137 18.3222 10.2689 18.001 9.49902L18 9.5ZM12 5.5C11.3021 5.5 10.6301 5.61086 10 5.81445V9.25C10 11.3211 8.32107 13 6.25 13H5.57715C5.92225 15.2347 7.40536 17.0926 9.41602 17.9648C9.41804 17.9599 9.42078 17.9553 9.42285 17.9502C9.48522 17.7977 9.57035 17.5705 9.65625 17.2842C9.82877 16.7091 10 15.9086 10 15C10 14.2995 10.2057 13.7725 10.5977 13.3682C10.9311 13.0243 11.3904 12.8001 11.6689 12.6436C11.9878 12.4644 12.2545 12.2905 12.4854 12.0127C12.7131 11.7386 12.9437 11.3153 13.0918 10.5928C13.3629 9.26985 14.4394 8 16 8H17.1211C15.9314 6.47899 14.0807 5.5 12 5.5ZM8.5 6.52441C6.82841 7.59512 5.67966 9.40833 5.52051 11.5H6.25C7.49264 11.5 8.5 10.4926 8.5 9.25V6.52441Z" fill="black"/>
</svg>
