<svg width="24" height="24" viewBox="0 0 24 24" fill="none" xmlns="http://www.w3.org/2000/svg">
<path fill-rule="evenodd" clip-rule="evenodd" d="M13.8096 4.49945C14.0039 4.35852 14.2542 4.31956 14.4824 4.39398C17.6842 5.43842 20 8.44771 20 12.0004C19.9997 16.4184 16.4182 20.0004 12 20.0004C7.58184 20.0004 4.00029 16.4184 4 12.0004C4 8.44771 6.31576 5.43842 9.51758 4.39398C9.74585 4.31956 9.99606 4.35852 10.1904 4.49945C10.3848 4.64055 10.5 4.86665 10.5 5.10688V11.2504L10.5049 11.3002C10.5282 11.4146 10.6295 11.5004 10.75 11.5004H13.25C13.3875 11.5004 13.4997 11.3887 13.5 11.2504V5.10688C13.5 4.86665 13.6152 4.64055 13.8096 4.49945ZM15 11.2504C14.9995 12.2161 14.2167 13.0004 13.25 13.0004H10.75C9.78334 13.0004 9.00045 12.2161 9 11.2504V6.23383C6.9198 7.31819 5.5 9.49387 5.5 12.0004L5.50879 12.3344C5.68288 15.7689 8.52239 18.5004 12 18.5004C15.4776 18.5004 18.3171 15.7689 18.4912 12.3344L18.5 12.0004C18.5 9.49387 17.0802 7.31819 15 6.23383V11.2504Z" fill="#141414"/>
</svg>
