<svg width="24" height="24" viewBox="0 0 24 24" fill="none" xmlns="http://www.w3.org/2000/svg">
<path fill-rule="evenodd" clip-rule="evenodd" d="M14.9999 4C15.7715 4 16.5046 4.17558 17.1591 4.48926C17.3783 4.59445 17.5332 4.79934 17.5741 5.03906C17.615 5.27876 17.537 5.52331 17.3651 5.69531L14.995 8.06543C14.8974 8.16306 14.8974 8.32229 14.995 8.41992L15.5966 9.02051C15.6942 9.11811 15.8525 9.11813 15.9501 9.02051L18.3144 6.65625L18.3827 6.5957C18.5486 6.46593 18.7633 6.41074 18.9735 6.44727C19.2138 6.48911 19.4191 6.64568 19.5233 6.86621C19.8295 7.51425 19.9999 8.23829 19.9999 9C19.9999 11.7614 17.7613 14 14.9999 14C14.4195 14 13.8613 13.9004 13.3417 13.7178L7.69423 19.3662C6.84905 20.2113 5.47884 20.2114 4.63369 19.3662C3.78861 18.5211 3.78861 17.1508 4.63369 16.3057L10.2811 10.6572C10.0988 10.138 9.9999 9.57991 9.9999 9C9.9999 6.23863 12.2385 4.00008 14.9999 4ZM14.9999 5.5C13.067 5.50008 11.4999 7.06705 11.4999 9C11.4999 9.54247 11.6229 10.0544 11.8417 10.5107C11.9791 10.7977 11.9202 11.1403 11.6952 11.3652L5.69423 17.3662C5.43494 17.6256 5.43494 18.0463 5.69423 18.3057C5.9536 18.565 6.37429 18.565 6.63369 18.3057L12.6347 12.3047L12.7245 12.2275C12.9446 12.0676 13.2382 12.0381 13.4892 12.1582C13.9455 12.3769 14.4575 12.5 14.9999 12.5C16.9329 12.5 18.4999 10.933 18.4999 9C18.4999 8.86883 18.4924 8.73952 18.4784 8.6123L17.0106 10.0811C16.3272 10.7645 15.2185 10.7645 14.5351 10.0811L13.9345 9.48047C13.251 8.79705 13.251 7.6883 13.9345 7.00488L15.414 5.52441C15.2783 5.50847 15.1401 5.5 14.9999 5.5Z" fill="black"/>
</svg>
