<svg width="24" height="24" viewBox="0 0 24 24" fill="none" xmlns="http://www.w3.org/2000/svg">
<path fill-rule="evenodd" clip-rule="evenodd" d="M11 5.50002H7.75C6.50736 5.50002 5.5 6.50738 5.5 7.75002V16.25C5.5 17.4927 6.50736 18.5 7.75 18.5H14.25C15.4926 18.5 16.5 17.4927 16.5 16.25V15H18V16.25C18 18.3211 16.3211 20 14.25 20H7.75C5.67893 20 4 18.3211 4 16.25V7.75002C4 5.67896 5.67893 4.00002 7.75 4.00002H11V5.50002ZM14.25 14.5C14.6642 14.5 15 14.8358 15 15.25C15 15.6642 14.6642 16 14.25 16H7.75C7.33579 16 7 15.6642 7 15.25C7 14.8358 7.33579 14.5 7.75 14.5H14.25ZM9.25 11.5C9.66421 11.5 10 11.8358 10 12.25C10 12.6642 9.66421 13 9.25 13H7.75C7.33579 13 7 12.6642 7 12.25C7 11.8358 7.33579 11.5 7.75 11.5H9.25ZM15.7422 4.73049C16.7163 3.75654 18.2955 3.75646 19.2695 4.73049C20.2436 5.70452 20.2435 7.28376 19.2695 8.25784L15.9863 11.541C15.6173 11.91 15.1547 12.1723 14.6484 12.2989L11.9316 12.9776C11.6761 13.0414 11.406 12.9665 11.2197 12.7803C11.0335 12.5941 10.9587 12.3239 11.0225 12.0684L11.7012 9.35159C11.8277 8.84535 12.09 8.38268 12.459 8.0137L15.7422 4.73049ZM18.209 5.79104C17.8207 5.4028 17.191 5.40287 16.8027 5.79104L13.5195 9.07424C13.3429 9.25092 13.2179 9.47248 13.1572 9.71487L12.7803 11.2188L14.2852 10.8428C14.5275 10.7822 14.7491 10.6572 14.9258 10.4805L18.209 7.19729C18.5972 6.809 18.5972 6.17928 18.209 5.79104ZM9.25 8.50002C9.66421 8.50002 10 8.83581 10 9.25002C10 9.66424 9.66421 10 9.25 10H7.75C7.33579 10 7 9.66424 7 9.25002C7 8.83581 7.33579 8.50002 7.75 8.50002H9.25Z" fill="black"/>
</svg>
