<svg width="24" height="24" viewBox="0 0 24 24" fill="none" xmlns="http://www.w3.org/2000/svg">
<path d="M16.1924 14.248C16.4695 13.9402 16.9441 13.9153 17.252 14.1924L19.752 16.4424C19.91 16.5846 20 16.7874 20 17C20 17.2126 19.91 17.4154 19.752 17.5576L17.252 19.8076C16.9441 20.0847 16.4695 20.0598 16.1924 19.752C15.9153 19.4441 15.9402 18.9695 16.248 18.6924L17.2949 17.75H4.75C4.33579 17.75 4 17.4142 4 17C4 16.5858 4.33579 16.25 4.75 16.25H17.2949L16.248 15.3076C15.9402 15.0305 15.9153 14.5559 16.1924 14.248ZM4.75 13C5.16421 13 5.5 13.3358 5.5 13.75V14.25C5.5 14.6642 5.16421 15 4.75 15C4.33579 15 4 14.6642 4 14.25V13.75C4 13.3358 4.33579 13 4.75 13ZM4.75 10C5.16421 10 5.5 10.3358 5.5 10.75V11.25C5.5 11.6642 5.16421 12 4.75 12C4.33579 12 4 11.6642 4 11.25V10.75C4 10.3358 4.33579 10 4.75 10ZM4.75 7C5.16421 7 5.5 7.33579 5.5 7.75V8.25C5.5 8.66421 5.16421 9 4.75 9C4.33579 9 4 8.66421 4 8.25V7.75C4 7.33579 4.33579 7 4.75 7ZM4.75 4C5.16421 4 5.5 4.33579 5.5 4.75V5.25C5.5 5.66421 5.16421 6 4.75 6C4.33579 6 4 5.66421 4 5.25V4.75C4 4.33579 4.33579 4 4.75 4Z" fill="black"/>
</svg>
