<svg width="24" height="24" viewBox="0 0 24 24" fill="none" xmlns="http://www.w3.org/2000/svg">
<path fill-rule="evenodd" clip-rule="evenodd" d="M10.7498 8C11.164 8 11.4997 8.33585 11.4998 8.75V14.5H13.2498C13.664 14.5 13.9997 14.8359 13.9998 15.25C13.9998 15.6642 13.664 16 13.2498 16H10.7498C10.3357 15.9999 9.99981 15.6642 9.99981 15.25V8.75C9.99989 8.3359 10.3357 8.00008 10.7498 8ZM19.2498 8C19.664 8 19.9997 8.33585 19.9998 8.75C19.9998 9.16421 19.664 9.5 19.2498 9.5H17.4998C16.9476 9.50008 16.4999 9.94783 16.4998 10.5C16.4998 11.0522 16.9476 11.4999 17.4998 11.5H17.7498C18.9924 11.5 19.9997 12.5074 19.9998 13.75C19.9998 14.9926 18.9924 16 17.7498 16H15.7498C15.3357 15.9999 14.9998 15.6642 14.9998 15.25C14.9999 14.8359 15.3357 14.5001 15.7498 14.5H17.7498C18.164 14.5 18.4998 14.1642 18.4998 13.75C18.4997 13.3359 18.164 13 17.7498 13H17.4998C16.1192 12.9999 14.9998 11.8807 14.9998 10.5C14.9999 9.1194 16.1192 8.00008 17.4998 8H19.2498ZM4.39434 8.08984C4.75898 7.8935 5.21353 8.02996 5.40996 8.39453L6.49981 10.418L7.58965 8.39453C7.78601 8.02993 8.24062 7.89361 8.60528 8.08984C8.96996 8.28621 9.1063 8.74077 8.90996 9.10547L7.35137 12L8.90996 14.8945C9.10634 15.2592 8.96998 15.7138 8.60528 15.9102C8.24058 16.1065 7.78602 15.9702 7.58965 15.6055L6.49981 13.5811L5.40996 15.6055C5.21359 15.9702 4.75904 16.1065 4.39434 15.9102C4.02977 15.7137 3.8933 15.2592 4.08965 14.8945L5.64824 12L4.08965 9.10547C3.89342 8.74081 4.02973 8.28621 4.39434 8.08984Z" fill="black"/>
</svg>
