<svg width="24" height="24" viewBox="0 0 24 24" fill="none" xmlns="http://www.w3.org/2000/svg">
<path fill-rule="evenodd" clip-rule="evenodd" d="M7.00016 4C7.21275 4 7.41555 4.09005 7.55778 4.24805L9.80778 6.74805C10.0849 7.05591 10.0599 7.53052 9.75212 7.80762C9.44425 8.08469 8.96965 8.05978 8.69255 7.75195L7.75016 6.7041V19.25C7.75016 19.6642 7.41438 20 7.00016 20C6.58595 20 6.25016 19.6642 6.25016 19.25V6.7041L5.30778 7.75195C5.03068 8.05978 4.55607 8.08469 4.24821 7.80762C3.94038 7.53052 3.91547 7.05591 4.19255 6.74805L6.44255 4.24805L6.49919 4.19238C6.63614 4.06933 6.8142 4 7.00016 4ZM10.2502 18.5C10.6644 18.5 11.0002 18.8358 11.0002 19.25C11.0002 19.6642 10.6644 20 10.2502 20H9.75016C9.33595 20 9.00016 19.6642 9.00016 19.25C9.00016 18.8358 9.33595 18.5 9.75016 18.5H10.2502ZM13.2502 18.5C13.6644 18.5 14.0002 18.8358 14.0002 19.25C14.0002 19.6642 13.6644 20 13.2502 20H12.7502C12.336 20 12.0002 19.6642 12.0002 19.25C12.0002 18.8358 12.336 18.5 12.7502 18.5H13.2502ZM16.2502 18.5C16.6644 18.5 17.0002 18.8358 17.0002 19.25C17.0002 19.6642 16.6644 20 16.2502 20H15.7502C15.336 20 15.0002 19.6642 15.0002 19.25C15.0002 18.8358 15.336 18.5 15.7502 18.5H16.2502ZM19.2502 18.5C19.6644 18.5 20.0002 18.8358 20.0002 19.25C20.0002 19.6642 19.6644 20 19.2502 20H18.7502C18.336 20 18.0002 19.6642 18.0002 19.25C18.0002 18.8358 18.336 18.5 18.7502 18.5H19.2502Z" fill="black"/>
</svg>
