<svg width="24" height="24" viewBox="0 0 24 24" fill="none" xmlns="http://www.w3.org/2000/svg">
<path fill-rule="evenodd" clip-rule="evenodd" d="M15.6096 4.36059C15.8247 4.00692 16.286 3.89474 16.6399 4.10961C16.9934 4.32477 17.1057 4.78607 16.8909 5.13988L12.7502 11.9592V13.0002H15.2502C15.6644 13.0003 16.0002 13.3361 16.0002 13.7502C16.0001 14.1643 15.6643 14.5001 15.2502 14.5002H12.7502V16.0002H15.2502C15.6644 16.0003 16.0002 16.3361 16.0002 16.7502C16.0001 17.1643 15.6643 17.5001 15.2502 17.5002H12.7502V19.2502C12.7501 19.6643 12.4143 20.0001 12.0002 20.0002C11.5861 20.0002 11.2503 19.6644 11.2502 19.2502V17.5002H8.75023C8.33608 17.5002 8.00033 17.1644 8.00023 16.7502C8.00023 16.336 8.33602 16.0002 8.75023 16.0002H11.2502V14.5002H8.75023C8.33608 14.5002 8.00033 14.1644 8.00023 13.7502C8.00023 13.336 8.33602 13.0002 8.75023 13.0002H11.2502V11.9592L7.10961 5.13988C6.89474 4.78599 7.00692 4.32471 7.36059 4.10961C7.71447 3.8948 8.17577 4.00695 8.39086 4.36059L12.0002 10.3049L15.6096 4.36059Z" fill="black"/>
</svg>
