<svg width="24" height="24" viewBox="0 0 24 24" fill="none" xmlns="http://www.w3.org/2000/svg">
<path d="M12 4C16.4183 4 20 7.58172 20 12C20 16.4183 16.4183 20 12 20C7.58172 20 4 16.4183 4 12C4 7.58172 7.58172 4 12 4ZM13.6582 5.71387C13.8544 6.00466 14.0444 6.34197 14.1963 6.72168C14.4926 7.46258 14.6453 8.36733 14.4199 9.38184C14.1951 10.3933 13.6079 11.4526 12.5303 12.5303C11.6083 13.4523 11.1951 14.2685 11.0449 14.9443C10.8955 15.6171 10.9937 16.2127 11.1973 16.7217C11.404 17.2382 11.7197 17.6631 11.9932 17.9639C12.1283 18.1125 12.2486 18.2271 12.333 18.3018C12.375 18.3389 12.4082 18.3662 12.4287 18.3828C12.4388 18.391 12.4465 18.3965 12.4502 18.3994L12.4512 18.4004H12.4502C12.481 18.4235 12.509 18.449 12.5352 18.4756C15.8746 18.2033 18.5 15.4096 18.5 12C18.5 8.98327 16.4448 6.44696 13.6582 5.71387ZM11.4639 5.52344C8.12488 5.79611 5.5 8.59072 5.5 12C5.5 15.0163 7.55483 17.5517 10.3408 18.2852C10.1446 17.9946 9.95541 17.6575 9.80371 17.2783C9.50742 16.5374 9.35562 15.6326 9.58105 14.6182C9.80593 13.6067 10.3922 12.5474 11.4697 11.4697C12.3917 10.5477 12.8059 9.73148 12.9561 9.05566C13.1054 8.38303 13.0072 7.78722 12.8037 7.27832C12.5971 6.76184 12.2812 6.33695 12.0078 6.03613C11.8728 5.88757 11.7524 5.77298 11.668 5.69824C11.626 5.66113 11.5928 5.63385 11.5723 5.61719C11.5622 5.60905 11.5546 5.60354 11.5508 5.60059C11.55 5.59994 11.5493 5.59906 11.5488 5.59863H11.5498C11.519 5.57541 11.4901 5.55021 11.4639 5.52344ZM15 13C15.5523 13 16 13.4477 16 14C16 14.5523 15.5523 15 15 15C14.4477 15 14 14.5523 14 14C14 13.4477 14.4477 13 15 13ZM9 9C9.55228 9 10 9.44772 10 10C10 10.5523 9.55228 11 9 11C8.44772 11 8 10.5523 8 10C8 9.44772 8.44772 9 9 9Z" fill="black"/>
</svg>
